<svg xmlns="http://www.w3.org/2000/svg" xml:space="preserve" style="fill-rule:evenodd;clip-rule:evenodd;stroke-linejoin:round;stroke-miterlimit:2" viewBox="0 0 50 50"><path d="M541.193 151.599c.781 5.669-5.953 9.652-7.812 14.892-2.696 7.004.225 17.584 5.349 18.326-1.418-3.282-1.999-7.961-.072-11.267.162-.341.867-1.663 1.762-3.325a21.302 21.302 0 0 0 .773-18.626m8.141 50.158c.069-1.015.263-3.219 1.024-1.641 2.768 4.749 1.931 11.469-.103 16.182 7.359-1.064 11.553-16.261 7.682-26.318-2.671-7.526-12.339-13.247-11.221-21.387 0 0-4.775 1.077-5.969 13.679-.644 6.794 1.131 13.652 5.313 19.072 1.704 2.211 3.171 3.235 3.274.413m-4.231 1.409c-.806 2.169-5.05 7.949-5.05 7.949.953-17.983-6.149-19.282-6.149-19.282 1.118 6.606-8.552 11.25-11.221 17.359-3.871 8.164.321 20.501 7.682 21.365-2.036-3.826-2.873-9.282-.105-13.136.761-1.281.953.508 1.023 1.332.26 5.639 5.709 15.156 10.503 12.218 11.192-6.855 3.317-27.805 3.317-27.805" style="fill:#d6b37b;fill-rule:nonzero" transform="matrix(.6256 0 0 .6256 -313.022 -94.841)"/></svg>