<svg xmlns="http://www.w3.org/2000/svg" xml:space="preserve" style="fill-rule:evenodd;clip-rule:evenodd;stroke-linejoin:round;stroke-miterlimit:2" viewBox="0 0 4342 4342">
<path d="M1612,3113c-766,-236 -1317,-945 -1317,-1791.67l104,0c-0,971 792,1771 1771,1771c979,-0 1771,-800 1771,-1770.83l104,0c0,847 -551,1556 -1317,1791.67l946,0l0,70.833l-1285,0l-0,0c-119,14 -239,16 -358,7c-27,-2 -54,-4 -80,-7.491l-0,-0-1285,0l-0,-71,0Z" style="fill:#89838d;"/>
<circle cx="3821" cy="3146" r="175" style="fill:#c83154;"/>
<circle cx="521" cy="3146" r="175" style="fill:#c83154;"/>
<path d="M167,1041.67l333,-0l0,333-333,0l-0,-333Zm3667,-0l333,-0l-0,333-333,0l0,-333Zm-1833,1916.67l333,0l0,333-333,-0l-0,-333Z" style="fill:#fff;"/></svg>