<svg xmlns="http://www.w3.org/2000/svg" xml:space="preserve" width="300" height="300" style="fill-rule:evenodd;clip-rule:evenodd;stroke-linejoin:round;stroke-miterlimit:2"><path d="M50 220h215v10H50z" style="fill:#89838d" transform="matrix(1.06977 0 0 .7 -18.4884 69)"/><path d="M292.5 100h7.5c0 77.268-62.732 140-140 140S20 177.268 20 100h7.5c0 73.129 59.371 132.5 132.5 132.5 73.129 0 132.5-59.371 132.5-132.5Z" style="fill:#89838d" transform="translate(-10 -10)"/>
<circle cx="50" cy="260" r="15" style="fill:#c83154" transform="matrix(.9 0 0 .9 -18.5 -7.5)"/>
<circle cx="50" cy="260" r="15" style="fill:#c83154" transform="matrix(.9 0 0 .9 228.5 -7.5)"/>
<path d="M162.5 214h-25v25h25v-25ZM25 70H0v25h25V70Zm275 0h-25v25h25V70Z" style="fill:#fff"/></svg>