<svg xmlns="http://www.w3.org/2000/svg" xml:space="preserve" style="fill-rule:evenodd;clip-rule:evenodd;stroke-linejoin:round;stroke-miterlimit:2" viewBox="0 0 500 700"><path d="M34 368h171v196H34z" style="fill:#ccbec0" transform="matrix(2.92398 0 0 3.57143 -99.4152 -1314.29)"/><path d="M267.622 596.761h9.009c0-2.97-2.211-5.016-5.445-5.016-3.795 0-6.27 2.706-6.27 6.93 0 4.29 2.475 6.93 6.468 6.93 2.376 0 4.026-1.155 4.983-3.399l-.297-.132c-1.089 1.65-2.475 2.508-3.993 2.508-2.706 0-4.554-2.541-4.554-6.27 0-.528.033-1.056.099-1.551Zm-46.497-9.966c-.528-.66-1.155-.99-1.98-.99h-3.267v.33c1.419 0 2.31.759 2.31 1.98v14.85c0 1.221-.891 1.98-2.31 1.98v.33h5.313v-.33c-1.419 0-2.31-.759-2.31-1.98v-14.85l13.827 17.49h.33v-17.49c0-1.221.891-1.98 2.31-1.98v-.33h-5.214c-.099 0-.099.33-.099.33 1.419 0 2.31.759 2.31 1.98v12.87l-11.22-14.19Zm36.894 15.51-3.234-7.92c-.099-.231-.132-.462-.132-.693 0-.759.495-1.287 1.353-1.287v-.33h-5.775v.33c.825 0 1.584.858 2.046 1.98l4.587 11.22h.33l4.587-11.22c.462-1.089 1.353-1.98 2.31-1.98v-.33h-4.62v.33c1.188 0 1.914.528 1.914 1.32 0 .198-.066.429-.165.66l-3.201 7.92Zm-14.883-10.56c-3.762 0-6.27 2.772-6.27 6.93 0 4.158 2.508 6.93 6.27 6.93 3.762 0 6.27-2.772 6.27-6.93 0-4.158-2.508-6.93-6.27-6.93Zm39.006 11.22v-18.48c-1.188.693-2.904 1.32-4.29 1.32v.33c1.32 0 1.98.858 1.98 2.64v14.19c0 1.089-.891 1.98-1.98 1.98v.33h6.27v-.33c-1.089 0-1.98-.891-1.98-1.98Zm-39.006-10.626c2.244 0 3.696 2.475 3.696 6.336s-1.452 6.336-3.696 6.336-3.696-2.475-3.696-6.336 1.452-6.336 3.696-6.336Zm24.585 3.828c.528-2.376 1.848-3.828 3.465-3.828 1.749 0 3.003 1.617 3.003 3.828h-6.468Zm-95.578-64.849v-27.56c0-1.961 1.431-3.18 3.71-3.18v-.53h-11.554v.53c2.279 0 3.71 1.219 3.71 3.18v28.62c0 5.088-1.484 7.791-4.929 9.063l.106.477c5.247 0 8.957-4.399 8.957-10.6Zm18.974-2.332c0 1.696 1.378 2.862 3.392 2.862 1.908 0 3.71-1.007 4.505-2.597l-.424-.318c-.583.795-1.643 1.325-2.438 1.325-.848 0-1.325-.583-1.325-1.643v-12.879c0-3.922-2.703-6.148-7.42-6.148-4.028 0-7.844 1.749-7.844 5.406 0 1.802 1.272 2.809 3.339 2.809.583 0 1.166-.106 1.537-.265-1.06-.795-1.59-1.961-1.59-3.18 0-1.908 1.325-3.816 3.975-3.816 2.65 0 4.293 1.908 4.293 4.558 0 6.784-12.614 3.339-12.614 11.501 0 2.915 2.756 5.247 6.254 5.247 2.385 0 5.035-1.59 6.36-3.763v.901Zm113.208-19.398c-6.042 0-10.07 4.452-10.07 11.13 0 6.678 4.028 11.13 10.07 11.13 6.042 0 10.07-4.452 10.07-11.13 0-6.678-4.028-11.13-10.07-11.13Zm18.126 8.056h14.469c0-4.77-3.551-8.056-8.745-8.056-6.095 0-10.07 4.346-10.07 11.13 0 6.89 3.975 11.13 10.388 11.13 3.816 0 6.466-1.855 8.003-5.459l-.477-.212c-1.749 2.65-3.975 4.028-6.413 4.028-4.346 0-7.314-4.081-7.314-10.07 0-.848.053-1.696.159-2.491Zm-91.849 0h14.469c0-4.77-3.551-8.056-8.745-8.056-6.095 0-10.07 4.346-10.07 11.13 0 6.89 3.975 11.13 10.388 11.13 3.816 0 6.466-1.855 8.003-5.459l-.477-.212c-1.749 2.65-3.975 4.028-6.413 4.028-4.346 0-7.314-4.081-7.314-10.07 0-.848.053-1.696.159-2.491Zm30.263-17.596v.53c2.279 0 3.71 1.219 3.71 3.18v23.85c0 1.961-1.431 3.18-3.71 3.18v.53h13.992c8.957 0 15.211-6.413 15.211-15.635s-6.254-15.635-15.211-15.635h-13.992Zm-44.149 15.317v12.243c0 1.749-1.431 3.18-3.18 3.18v.53h10.07v-.53c-1.749 0-3.18-1.431-3.18-3.18v-11.713c0-3.816-2.438-6.307-6.095-6.307-3.392 0-6.466 2.12-7.685 5.3v-5.83c-1.908 1.113-4.664 2.12-6.89 2.12v.53c2.12 0 3.18 1.378 3.18 4.24v11.66c0 1.749-1.431 3.18-3.18 3.18v.53h10.07v-.53c-1.749 0-3.18-1.431-3.18-3.18v-8.586c0-4.346 2.809-7.844 6.254-7.844 2.332 0 3.816 1.59 3.816 4.187Zm87.609-4.823c3.604 0 5.936 3.975 5.936 10.176 0 6.201-2.332 10.176-5.936 10.176s-5.936-3.975-5.936-10.176c0-6.201 2.332-10.176 5.936-10.176Zm-122.112 15.847c0-4.611 5.777-5.088 8.904-8.056v8.374c-1.431 2.332-3.233 3.71-5.194 3.71-2.226 0-3.71-1.643-3.71-4.028Zm103.191-10.653c0 8.745-4.134 14.469-10.494 14.469h-2.491c-2.279 0-3.71-1.219-3.71-3.18v-25.864h6.201c6.307 0 10.494 5.83 10.494 14.575Zm-54.643.954c.848-3.816 2.968-6.148 5.565-6.148 2.809 0 4.823 2.597 4.823 6.148h-10.388Zm91.849 0c.848-3.816 2.968-6.148 5.565-6.148 2.809 0 4.823 2.597 4.823 6.148H322.61Zm-21.675-213.428c-11.253-34.039-43.874-60.359-81.565-60.359-27.463 0-52.774 22.756-52.774 52.421 0 15.782 12.148 32.296 32.345 32.296 9.379 0 18.853-8.612 18.853-18.787 0-6.639-5.624-12.149-12.263-12.149-3.209 0-5.204 2.863-5.204 5.377 0 3.02 2.408 5.231 5.291 5.231.75 0 1.36.61 1.36 1.361 0 .75-.61 1.36-1.36 1.36-4.374 0-8.012-3.37-8.012-7.952 0-3.806 3.066-8.097 7.925-8.097 8.119 0 14.984 6.751 14.984 14.869 0 11.646-10.839 21.508-21.574 21.508-21.897 0-35.065-17.907-35.065-35.017 0-31.2 26.611-55.141 55.494-55.141 38.991 0 72.726 27.298 84.25 62.562.09-.017.14-.026.142-.026 6.981.022 14.965.667 28.906 15.353 33.891 39.751 12.342 121.322-15.718 144.395 30.421-54.761-2.885-116.225-2.885-116.225-2.469 45.312-49.085 129.451-155.798 107.705 131.613-9.655 126.692-131.789 126.692-131.789l.011-.006c-.022-.369-.034-.739-.034-1.113 0-7.484 4.497-13.926 10.934-16.768h.001c.085-.038 2.834-.577 5.064-1.009Zm-77.065 42.492c5.96 3.94 11.121 9.287 14.935 15.892 13.146 22.769 5.333 51.927-17.436 65.073-22.769 13.146-51.928 5.333-65.074-17.436-3.813-6.606-5.863-13.749-6.295-20.88 14.591 9.646 33.974 10.876 50.138 1.544 16.164-9.332 24.79-26.734 23.732-44.193Zm-45.141 70.563c3.252 3.03 7.617 4.874 12.409 4.874 4.792 0 9.157-1.844 12.409-4.874-3.252-3.031-7.617-4.875-12.409-4.875-4.792 0-9.157 1.844-12.409 4.875Zm36.819.32c-.957-.459-1.994.14-2.294.819-.3.678.137 1.436 1.094 1.895.691.359 1.954.389 2.951.318.559-.828 1.164-1.936 1.199-2.714.081-1.058-.357-1.816-1.094-1.895-.738-.08-1.775.519-1.856 1.577Zm5.723-10.553c4.25-1.301 8.029-4.159 10.426-8.309 2.396-4.15 2.981-8.852 1.983-13.184-4.251 1.301-8.03 4.159-10.426 8.309-2.396 4.15-2.982 8.852-1.983 13.184ZM94.535 189.74c0-5.353-3.594-8.002-7.267-8.002-3.674 0-7.268 2.649-7.268 8.002 0 5.352 3.594 8.002 7.268 8.002 3.673 0 7.267-2.65 7.267-8.002Zm166.209 2.492c0 2.781-1.784 4.801-4.277 4.801-2.44 0-4.145-1.967-4.145-4.801v-8.396c0-.97.708-1.574 1.836-1.574V182h-5.719v.262c1.128 0 1.836.604 1.836 1.574v8.396c0 3.437 2.073 5.51 5.484 5.51 3.463 0 5.536-2.073 5.536-5.51v-8.396c0-.97.708-1.574 1.836-1.574V182h-4.224v.262c1.128 0 1.837.604 1.837 1.574v8.396Zm74.591 5.248h.262c0-.525.236-.656.656-.656.708 0 2.204.918 3.935.918 2.965 0 4.854-1.915 4.854-4.88 0-4.303-7.923-4.224-7.923-8.527 0-1.102 1.285-2.046 2.807-2.046 1.863 0 3.253 1.154 4.067 3.358h.262V182h-.262c0 .525-.237.735-.656.735-.761 0-1.286-.997-3.411-.997-2.598 0-4.329 1.757-4.329 4.355 0 4.329 7.923 4.145 7.923 8.527 0 1.39-1.495 2.571-3.332 2.571-2.204 0-4.119-1.417-4.591-3.936h-.262v4.225Zm-123.732-14.693c-.42-.525-.919-.787-1.574-.787h-2.598v.262c1.128 0 1.837.604 1.837 1.574v11.807c0 .971-.709 1.574-1.837 1.574v.263h4.224v-.263c-1.128 0-1.836-.603-1.836-1.574v-11.807l10.993 13.906h.262v-13.906c0-.97.709-1.574 1.837-1.574V182h-4.146c-.078 0-.078.262-.078.262 1.128 0 1.836.604 1.836 1.574v10.233l-8.92-11.282Zm199.083 6.008c.735 1.286 1.102 2.65 1.102 4.119v2.729c0 .971-.708 1.574-1.837 1.574v.263h5.72v-.263c-1.128 0-1.837-.603-1.837-1.574v-5.037c0-.315.105-.709.263-.997l3.752-5.773c.603-.944 1.364-1.574 2.151-1.574V182h-3.752v.262c.814 0 1.26.289 1.26.761 0 .236-.105.499-.315.813l-3.673 5.668-3.411-5.668c-.184-.288-.289-.577-.289-.787 0-.498.472-.787 1.338-.787V182h-5.326v.262c.682 0 1.338.682 1.889 1.574l2.965 4.959Zm-309.093 8.685h7.477c2.256 0 4.067-1.811 4.067-4.067 0-2.125-1.679-3.778-4.093-4.067 1.81-.288 3.148-1.836 3.148-3.673 0-2.02-1.679-3.673-3.673-3.673h-6.926v.262c1.128 0 1.836.604 1.836 1.574v11.807c0 .971-.708 1.574-1.836 1.574v.263Zm39.932-5.956h5.483l1.706 4.119c.078.184.105.341.105.525 0 .603-.525 1.049-1.443 1.049v.263h5.326v-.263c-.814 0-1.365-.551-1.784-1.574l-5.694-13.905h-.262l-5.746 13.905c-.42 1.023-.945 1.574-1.732 1.574v.263h3.752v-.263c-.971 0-1.522-.472-1.522-1.128 0-.131.027-.289.105-.446l1.706-4.119ZM352.257 182v.262c1.128 0 1.837.604 1.837 1.574v11.807c0 .971-.709 1.574-1.837 1.574v.263h5.72v-.263c-1.128 0-1.837-.603-1.837-1.574v-13.092h1.469c2.099 0 3.883 1.758 3.883 3.804 0 2.545-2.177 3.909-3.751 3.909-.289 0-.525-.052-.761-.131v.263c.708.367 1.416.524 2.125.524 2.335 0 4.434-1.889 4.434-4.46 0-2.466-1.994-4.46-4.46-4.46h-6.822Zm-51.712 0v.262c1.128 0 1.836.604 1.836 1.574v11.807c0 .971-.708 1.574-1.836 1.574v.263h6.926c4.434 0 7.53-3.175 7.53-7.74s-3.096-7.74-7.53-7.74h-6.926Zm-121.948 9.524h5.484l1.705 4.119c.079.184.105.341.105.525 0 .603-.525 1.049-1.443 1.049v.263h5.326v-.263c-.813 0-1.364-.551-1.784-1.574l-5.694-13.905h-.262l-5.746 13.905c-.419 1.023-.944 1.574-1.731 1.574v.263h3.752v-.263c-.971 0-1.522-.472-1.522-1.128 0-.131.026-.289.105-.446l1.705-4.119Zm55.044-1.706h2.913c.813 0 1.364.656 1.574 1.837h.262v-4.224h-.262c-.184 1.181-.761 1.836-1.574 1.836h-2.913v-6.716c4.671 0 5.563.079 6.324.577.577.367.787.787 1.311 2.545h.263V182h-11.781v.262c1.129 0 1.837.604 1.837 1.574v11.807c0 .971-.708 1.574-1.837 1.574v.263h12.043v-4.198h-.262c-.446 1.679-.63 2.177-.997 2.623-.709.892-1.574 1.024-6.901 1.024v-7.111Zm39.959 0h2.912c.813 0 1.364.656 1.574 1.837h.263v-4.224h-.263c-.183 1.181-.761 1.836-1.574 1.836H273.6v-6.716c4.67 0 5.562.079 6.323.577.577.367.787.787 1.312 2.545h.262V182h-11.78v.262c1.128 0 1.836.604 1.836 1.574v11.807c0 .971-.708 1.574-1.836 1.574v.263h12.042v-4.198h-.262c-.446 1.679-.63 2.177-.997 2.623-.708.892-1.574 1.024-6.9 1.024v-7.111ZM170.936 182h-12.803v3.673h.262c.472-1.653.735-2.125 1.233-2.519.551-.472 1.364-.603 3.883-.603v13.092c0 .971-.708 1.574-1.836 1.574v.263h5.719v-.263c-1.128 0-1.836-.603-1.836-1.574v-13.092c2.518 0 3.332.131 3.883.603.498.394.76.866 1.233 2.519h.262V182Zm220.492 9.524h5.484l1.705 4.119c.079.184.105.341.105.525 0 .603-.525 1.049-1.443 1.049v.263h5.326v-.263c-.813 0-1.364-.551-1.784-1.574l-5.693-13.905h-.263l-5.745 13.905c-.42 1.023-.945 1.574-1.732 1.574v.263h3.752v-.263c-.971 0-1.522-.472-1.522-1.128 0-.131.026-.289.105-.446l1.705-4.119Zm-21.251 5.956h11.491v-4.198h-.262c-.551 2.072-.813 2.623-1.469 3.043-.787.499-1.732.604-5.877.604v-13.093c0-.97.708-1.574 1.836-1.574V182h-5.719v.262c1.128 0 1.836.604 1.836 1.574v11.807c0 .971-.708 1.574-1.836 1.574v.263Zm-249.904 0h11.492v-4.198h-.263c-.551 2.072-.813 2.623-1.469 3.043-.787.499-1.731.604-5.877.604v-13.093c0-.97.709-1.574 1.837-1.574V182h-5.72v.262c1.128 0 1.837.604 1.837 1.574v11.807c0 .971-.709 1.574-1.837 1.574v.263Zm205.669-13.644c0-.97.708-1.574 1.836-1.574V182h-5.719v.262c1.128 0 1.836.604 1.836 1.574v11.807c0 .971-.708 1.574-1.836 1.574v.263h5.719v-.263c-1.128 0-1.836-.603-1.836-1.574v-11.807ZM92.279 189.74c0 5.037-2.44 7.451-5.011 7.451-2.572 0-5.012-2.414-5.012-7.451 0-5.038 2.44-7.451 5.012-7.451 2.571 0 5.011 2.413 5.011 7.451Zm14.036-.394v.263h1.155c2.046 0 3.699 1.652 3.699 3.699 0 1.994-1.653 3.621-3.699 3.621h-1.994v-14.378h1.312c1.889 0 3.437 1.522 3.437 3.358 0 1.915-1.548 3.437-3.437 3.437h-.473Zm206.377.42c0 4.329-2.046 7.163-5.195 7.163h-1.233c-1.128 0-1.836-.604-1.836-1.575v-12.803h3.069c3.123 0 5.195 2.886 5.195 7.215Zm78.946 1.207 2.545-6.14 2.519 6.14h-5.064Zm-249.903 0 2.545-6.14 2.518 6.14h-5.063Zm37.072 0 2.545-6.14 2.519 6.14h-5.064Zm18.182-62.247h38.235c0-12.605-9.384-21.288-23.109-21.288-16.107 0-26.611 11.484-26.611 29.411 0 18.208 10.504 29.412 27.451 29.412 10.084 0 17.087-4.902 21.149-14.426l-1.261-.56c-4.622 7.003-10.504 10.644-16.947 10.644-11.484 0-19.327-10.784-19.327-26.61 0-2.241.14-4.482.42-6.583Zm-85.714 31.233-.981-.841c-2.101 2.101-5.602 3.502-8.823 3.502-5.743 0-8.964-4.622-8.964-12.885v-38.376h16.106v-2.521H92.507V90.771h-1.401c-.7 4.202-2.381 8.123-4.761 11.485-3.082 4.201-7.143 7.002-11.345 8.123v.98h7.703v40.056c0 10.224 4.342 14.846 14.286 14.846 6.722 0 11.624-2.101 14.286-6.302Zm192.577-50c6.442 0 11.624 4.481 11.624 10.084 0 1.4-.28 2.661-.98 3.641 1.26.42 2.381.7 3.221.7 3.361 0 5.602-1.96 5.602-5.042 0-6.722-8.543-11.904-19.467-11.904-16.107 0-26.611 11.484-26.611 29.411 0 18.208 10.504 29.412 27.451 29.412 10.084 0 17.087-4.902 21.148-14.426l-1.26-.56c-4.622 7.003-10.504 10.644-16.947 10.644-11.485 0-19.328-10.784-19.328-26.61 0-14.706 6.443-25.35 15.547-25.35Zm121.148 50-.98-.841c-2.101 2.101-5.603 3.502-8.824 3.502-5.742 0-8.964-4.622-8.964-12.885v-38.376h16.107v-2.521h-16.107V90.771h-1.4c-.7 4.202-2.381 8.123-4.762 11.485-3.081 4.201-7.143 7.002-11.345 8.123v.98h7.704v40.056c0 10.224 4.341 14.846 14.285 14.846 6.723 0 11.625-2.101 14.286-6.302Zm-264.706-37.255v32.353c0 4.622-3.781 8.403-8.403 8.403v1.401h26.61v-1.401c-4.621 0-8.403-3.781-8.403-8.403v-30.953c0-10.084-6.443-16.666-16.106-16.666-8.964 0-17.087 5.602-20.309 14.005V76.625c-5.042 2.941-12.324 5.603-18.207 5.603v1.4c5.602 0 8.404 3.642 8.404 11.205v60.224c0 4.622-3.782 8.403-8.404 8.403v1.401h26.611v-1.401c-4.622 0-8.404-3.781-8.404-8.403v-22.689c0-11.485 7.423-20.729 16.527-20.729 6.163 0 10.084 4.202 10.084 11.065Zm37.115 3.501c2.241-10.084 7.843-16.246 14.706-16.246 7.423 0 12.745 6.862 12.745 16.246h-27.451Z" style="fill:#403f41;fill-rule:nonzero"/><path d="m250 554.6 2.245 6.91h7.266l-5.878 4.271 2.245 6.91L250 568.42l-5.878 4.271 2.245-6.91-5.878-4.271h7.266L250 554.6Zm114.636-395.902c0 4.482 3.641 7.563 8.963 7.563 5.042 0 9.804-2.661 11.905-6.863l-1.12-.84c-1.541 2.101-4.342 3.501-6.443 3.501-2.241 0-3.501-1.54-3.501-4.341v-34.034c0-10.364-7.143-16.246-19.608-16.246-10.644 0-20.728 4.621-20.728 14.285 0 4.762 3.361 7.423 8.823 7.423 1.541 0 3.081-.28 4.062-.7-2.801-2.101-4.202-5.182-4.202-8.403 0-5.042 3.502-10.084 10.504-10.084 7.003 0 11.345 5.042 11.345 12.044 0 17.928-33.333 8.824-33.333 30.393 0 7.703 7.282 13.865 16.526 13.865 6.303 0 13.305-4.202 16.807-9.944v2.381Zm-23.53-6.863c0-12.184 15.267-13.445 23.53-21.288v22.129c-3.782 6.162-8.544 9.804-13.726 9.804-5.882 0-9.804-4.342-9.804-10.645Z" style="fill:#c83154;fill-rule:nonzero"/><text x="23.768" y="49.268" style="font-family:&quot;Verdana&quot;,sans-serif;font-size:11.562px" transform="translate(183.277 637.356) scale(.86486)">© 2025 Astrid Schäfer</text><path d="M1612 3113C846 2877 295 2168 295 1321.33h104c0 971 792 1771 1771 1771s1771-800 1771-1770.83h104c0 847-551 1556-1317 1791.67h946v70.833H2389c-119 14-239 16-358 7-27-2-54-4-80-7.491H666v-71" style="fill:#89838d" transform="translate(182.07 667.085) scale(.00439)"/><circle cx="3821" cy="3146" r="175" style="fill:#c83154" transform="translate(182.07 667.085) scale(.00439)"/><circle cx="521" cy="3146" r="175" style="fill:#c83154" transform="translate(182.07 667.085) scale(.00439)"/><path d="M167 1041.67h333v333H167v-333Zm3667 0h333v333h-333v-333ZM2001 2958.34h333v333h-333v-333Z" style="fill:#fff" transform="translate(182.07 667.085) scale(.00439)"/></svg>