<svg xmlns="http://www.w3.org/2000/svg" xml:space="preserve" style="fill-rule:evenodd;clip-rule:evenodd;stroke-linejoin:round;stroke-miterlimit:2" viewBox="0 0 6667 10667"><path d="M0 0h6666.67v10666.7H0z" style="fill:#ccbec0"/><path d="m3333.33 9172.72 31.223 96.094h101.039l-81.742 59.39 31.223 96.093-81.743-59.389-81.742 59.389 31.223-96.093-81.743-59.39h101.04l31.222-96.094Zm1705.26-7142.46c0 66.667 54.166 112.501 133.333 112.501 75.001 0 145.834-39.584 177.084-102.084l-16.666-12.5c-22.917 31.25-64.584 52.083-95.834 52.083-33.334 0-52.084-22.916-52.084-64.583v-506.252c0-154.167-106.25-241.667-291.667-241.667-158.334 0-308.335 68.75-308.335 212.501 0 70.833 50.001 110.417 131.251 110.417 22.917 0 45.833-4.167 60.417-10.417-41.667-31.25-62.5-77.084-62.5-125.001 0-75 52.083-150 156.25-150s168.751 75 168.751 179.167c0 266.668-495.835 131.251-495.835 452.085 0 114.584 108.333 206.251 245.834 206.251 93.75 0 197.917-62.501 250.001-147.917v35.416Zm-350.002-102.083c0-181.251 227.085-200.001 350.002-316.668v329.168c-56.251 91.667-127.084 145.833-204.168 145.833-87.5 0-145.834-64.583-145.834-158.333Z" style="fill:#ea234f"/><path d="m3434.59 9815.69-40.833-100c-1.25-2.917-1.667-5.833-1.667-8.75 0-9.583 6.25-16.25 17.083-16.25v-4.167h-72.917v4.167c10.417 0 20 10.833 25.834 25l57.917 141.667h4.166l57.917-141.667c5.833-13.75 17.083-25 29.167-25v-4.167h-58.334v4.167c15 0 24.167 6.667 24.167 16.667 0 2.5-.833 5.416-2.083 8.333l-40.417 100Zm-465.837-195.834c-6.667-8.333-14.583-12.5-25-12.5h-41.25v4.167c17.917 0 29.167 9.583 29.167 25v187.5c0 15.417-11.25 25-29.167 25v4.167h67.083v-4.167c-17.916 0-29.166-9.583-29.166-25v-187.5l174.583 220.834h4.167v-220.834c0-15.417 11.25-25 29.167-25v-4.167h-65.834c-1.25 0-1.25 4.167-1.25 4.167 17.917 0 29.167 9.583 29.167 25v162.5l-141.667-179.167Zm587.087 125.834h113.75c0-37.5-27.917-63.333-68.75-63.333-47.917 0-79.167 34.166-79.167 87.5 0 54.166 31.25 87.5 81.667 87.5 30 0 50.833-14.584 62.917-42.917l-3.75-1.667c-13.75 20.834-31.25 31.667-50.417 31.667-34.167 0-57.5-32.083-57.5-79.167 0-6.666.417-13.333 1.25-19.583Zm-309.167-63.333c-47.5 0-79.167 35-79.167 87.5s31.667 87.5 79.167 87.5 79.167-35 79.167-87.5-31.667-87.5-79.167-87.5Zm492.5 141.666V9590.69c-15 8.75-36.666 16.666-54.166 16.666v4.167c16.666 0 25 10.833 25 33.334v179.166c0 13.75-11.25 25-25 25v4.167h79.166v-4.167c-13.75 0-25-11.25-25-25Zm-492.5-134.166c28.333 0 46.667 31.25 46.667 80s-18.334 80-46.667 80c-28.333 0-46.667-31.25-46.667-80s18.334-80 46.667-80Zm310.417 48.333c6.667-30 23.333-48.333 43.75-48.333 22.083 0 37.917 20.416 37.917 48.333h-81.667Zm-1447.92-898.52v-433.333c0-30.833 22.5-50 58.333-50v-8.333h-181.667v8.333c35.834 0 58.334 19.167 58.334 50v450c0 80-23.334 122.5-77.5 142.5l1.666 7.5c82.5 0 140.834-69.167 140.834-166.667Zm298.333-36.667c0 26.667 21.667 45 53.333 45 30 0 58.334-15.833 70.834-40.833l-6.667-5c-9.167 12.5-25.833 20.833-38.333 20.833-13.334 0-20.834-9.166-20.834-25.833v-202.5c0-61.667-42.5-96.667-116.666-96.667-63.334 0-123.334 27.5-123.334 85 0 28.334 20 44.167 52.5 44.167 9.167 0 18.334-1.667 24.167-4.167-16.667-12.5-25-30.833-25-50 0-30 20.833-60 62.5-60s67.5 30 67.5 71.667c0 106.667-198.333 52.5-198.333 180.833 0 45.834 43.333 82.5 98.333 82.5 37.5 0 79.167-25 100-59.166v14.166Zm620.833-178.333h227.5c0-75-55.833-126.667-137.5-126.667-95.833 0-158.333 68.334-158.333 175 0 108.334 62.5 175 163.333 175 60 0 101.667-29.166 125.833-85.833l-7.5-3.333c-27.5 41.666-62.5 63.333-100.833 63.333-68.333 0-115-64.167-115-158.333 0-13.334.833-26.667 2.5-39.167Zm1444.17 0h227.5c0-75-55.833-126.667-137.5-126.667-95.833 0-158.333 68.334-158.333 175 0 108.334 62.5 175 163.333 175 60 0 101.667-29.166 125.833-85.833l-7.5-3.333c-27.5 41.666-62.5 63.333-100.833 63.333-68.333 0-115-64.167-115-158.333 0-13.334.833-26.667 2.5-39.167Zm-285-126.667c-95 0-158.333 70-158.333 175s63.333 175 158.333 175 158.333-70 158.333-175-63.333-175-158.333-175Zm-1377.5 90.834v192.5c0 27.5-22.5 50-50 50v8.333h158.333v-8.333c-27.5 0-50-22.5-50-50V8597.17c0-60-38.333-99.167-95.833-99.167-53.334 0-101.667 33.334-120.834 83.334v-91.667c-30 17.5-73.333 33.333-108.333 33.333v8.334c33.334 0 50 21.666 50 66.666v183.334c0 27.5-22.5 50-50 50v8.333h158.333v-8.333c-27.5 0-50-22.5-50-50v-135c0-68.334 44.167-123.334 98.334-123.334 36.666 0 60 25 60 65.834Zm694.166-240.833v8.333c35.833 0 58.333 19.167 58.333 50v375c0 30.833-22.5 50-58.333 50v8.333h220c140.833 0 239.167-100.833 239.167-245.833s-98.334-245.833-239.167-245.833h-220Zm683.333 164.999c56.667 0 93.333 62.5 93.333 160s-36.666 160-93.333 160c-56.666 0-93.333-62.5-93.333-160s36.667-160 93.333-160Zm-1920 249.167c0-72.5 90.833-80 140-126.667v131.667c-22.5 36.667-50.833 58.333-81.667 58.333-35 0-58.333-25.833-58.333-63.333Zm1622.5-167.5c0 137.5-65 227.5-165 227.5h-39.166c-35.834 0-58.334-19.167-58.334-50v-406.666h97.5c99.167 0 165 91.666 165 229.166Zm585 15c13.333-60 46.667-96.667 87.5-96.667 44.167 0 75.833 40.834 75.833 96.667h-163.333Zm-1444.17 0c13.333-60 46.667-96.667 87.5-96.667 44.167 0 75.833 40.834 75.833 96.667h-163.333Zm1015.64-4046.8c-157.547-476.581-614.275-845.078-1141.98-845.078-384.508 0-738.887 318.597-738.887 733.938 0 220.957 170.085 452.18 452.863 452.18 131.316 0 263.955-120.582 263.955-263.035 0-92.951-78.738-170.1-171.689-170.1-44.934 0-72.866 40.084-72.866 75.284 0 42.28 33.715 73.241 74.075 73.241 10.511 0 19.045 8.534 19.045 19.045 0 10.511-8.534 19.045-19.045 19.045-61.23 0-112.165-47.188-112.165-111.331 0-53.296 42.922-113.374 110.956-113.374 113.667 0 209.779 94.523 209.779 208.19 0 163.045-151.747 301.125-302.045 301.125-306.58 0-490.953-250.715-490.953-490.27 0-436.823 372.581-772.028 776.977-772.028 545.904 0 1018.23 382.197 1179.58 875.93 1.258-.237 1.957-.366 1.992-.366 97.736.308 209.524 9.346 404.702 214.963 474.513 556.544 172.808 1698.62-220.064 2021.67 425.929-766.705-40.389-1627.27-40.389-1627.27-34.569 634.42-687.239 1812.45-2181.32 1507.98 1842.71-135.18 1773.81-1845.18 1773.81-1845.18l.148-.078c-.311-5.167-.468-10.355-.468-15.579 0-104.783 62.961-194.977 153.086-234.779l.006.004c1.192-.527 39.682-8.073 70.903-14.127Zm-1078.98 594.927c83.45 55.166 155.712 130.024 209.106 222.505 184.053 318.79 74.664 727.035-244.126 911.089-318.79 184.053-727.035 74.664-911.088-244.126-53.394-92.481-82.093-192.49-88.143-292.343 204.283 135.056 475.674 152.279 701.983 21.62 226.309-130.66 347.089-374.302 332.268-618.745Zm-632.014 987.95c45.53 42.432 106.643 68.247 173.738 68.247 67.094 0 128.207-25.815 173.738-68.247-45.531-42.433-106.644-68.247-173.738-68.247-67.095 0-128.208 25.814-173.738 68.247Zm515.493 4.479c-13.392-6.422-27.919 1.965-32.118 11.466-4.198 9.501 1.93 20.117 15.322 26.539 9.681 5.026 27.352 5.439 41.311 4.457 7.83-11.598 16.307-27.108 16.795-38.005 1.135-14.809-4.994-25.424-15.322-26.538-10.328-1.114-24.854 7.272-25.988 22.081Zm80.129-147.746c59.513-18.215 112.425-58.233 145.972-116.338 33.548-58.106 41.748-123.939 27.766-184.585-59.513 18.214-112.425 58.232-145.973 116.338-33.547 58.105-41.747 123.938-27.765 184.585Zm-1661.26-3953.47-14.584-12.5c-31.25 31.25-83.333 52.084-131.25 52.084-85.417 0-133.334-68.75-133.334-191.667v-570.836h239.584v-37.5H990.675V1019.84h-20.833c-10.417 62.501-35.417 120.834-70.834 170.834-45.833 62.5-106.25 104.167-168.75 120.834v14.583h114.583v595.836c0 152.083 64.584 220.834 212.501 220.834 100 0 172.917-31.25 212.501-93.751Zm4666.66 0-14.584-12.5c-31.25 31.25-83.333 52.084-131.25 52.084-85.417 0-133.334-68.75-133.334-191.667v-570.836h239.584v-37.5h-239.584V1019.84h-20.833c-10.417 62.501-35.417 120.834-70.834 170.834-45.833 62.5-106.25 104.167-168.75 120.834v14.583h114.583v595.836c0 152.083 64.584 220.834 212.501 220.834 100 0 172.917-31.25 212.501-93.751Zm-1802.07-743.752c95.834 0 172.917 66.667 172.917 150 0 20.834-4.166 39.584-14.583 54.167 18.75 6.25 35.417 10.417 47.917 10.417 50 0 83.333-29.167 83.333-75 0-100.001-127.083-177.084-289.584-177.084-239.584 0-395.834 170.834-395.834 437.501 0 270.834 156.25 437.502 408.334 437.502 150.001 0 254.168-72.917 314.585-214.584l-18.75-8.334c-68.751 104.167-156.251 158.334-252.085 158.334-170.833 0-287.501-160.417-287.501-395.834 0-218.751 95.834-377.085 231.251-377.085Zm-1589.59 279.168h568.752c0-187.501-139.584-316.668-343.751-316.668-239.585 0-395.835 170.834-395.835 437.501 0 270.834 156.25 437.502 408.335 437.502 150 0 254.167-72.917 314.584-214.584l-18.75-8.334c-68.75 104.167-156.251 158.334-252.084 158.334-170.834 0-287.501-160.417-287.501-395.834 0-33.334 2.083-66.667 6.25-97.917Zm-545.835-89.584v481.251c0 68.751-56.25 125.001-125.001 125.001v20.833h395.835v-20.833c-68.75 0-125-56.25-125-125.001v-460.418c0-150-95.834-247.917-239.585-247.917-133.333 0-254.167 83.333-302.084 208.334V809.423c-75 43.75-183.334 83.334-270.834 83.334v20.833c83.334 0 125 54.167 125 166.667v895.836c0 68.751-56.25 125.001-125 125.001v20.833h395.835v-20.833c-68.751 0-125.001-56.25-125.001-125.001v-337.501c0-170.833 110.417-308.334 245.834-308.334 91.667 0 150.001 62.5 150.001 164.584Zm552.085 52.083c33.333-150 116.667-241.667 218.751-241.667 110.417 0 189.583 102.084 189.583 241.667h-408.334Z" style="fill:#403f41;fill-rule:nonzero"/></svg>