<svg xmlns="http://www.w3.org/2000/svg" xml:space="preserve" style="fill-rule:evenodd;clip-rule:evenodd;stroke-linejoin:round;stroke-miterlimit:2" viewBox="0 0 6667 10667"><path d="M-370.833-258.068h7162.09v11177.7h-7162.09z" style="fill:#da4f62"/><path d="M2591.46 1424.59v-252.034c0-17.933 13.086-29.08 33.928-29.08v-4.847h-105.66v4.847c20.841 0 33.927 11.147 33.927 29.08v261.727c0 46.529-13.571 71.248-45.075 82.88l.969 4.362c47.984 0 81.911-40.228 81.911-96.935Zm1434.65-125.048h132.317c0-43.621-32.474-73.671-79.972-73.671-55.738 0-92.089 39.744-92.089 101.783 0 63.008 36.351 101.782 94.997 101.782 34.897 0 59.131-16.963 73.187-49.922l-4.363-1.938c-15.994 24.234-36.35 36.835-58.646 36.835-39.743 0-66.885-37.32-66.885-92.089 0-7.755.484-15.509 1.454-22.78Zm-165.761-73.671c-55.253 0-92.089 40.713-92.089 101.783 0 61.069 36.836 101.782 92.089 101.782 55.254 0 92.089-40.713 92.089-101.782 0-61.07-36.835-101.783-92.089-101.783Zm-1120.58 0c-55.253 0-92.089 40.713-92.089 101.783 0 61.069 36.836 101.782 92.089 101.782s92.089-40.713 92.089-101.782c0-61.07-36.836-101.783-92.089-101.783Zm515.699 52.83v111.961c0 15.995-13.087 29.081-29.081 29.081v4.847h92.089v-4.847c-15.994 0-29.081-13.086-29.081-29.081v-107.114c0-34.897-22.295-57.677-55.738-57.677-31.019 0-59.131 19.387-70.278 48.468v-53.315c-17.449 10.179-42.652 19.388-63.009 19.388v4.846c19.387 0 29.081 12.602 29.081 38.775v106.629c0 15.995-13.086 29.081-29.081 29.081v4.847h92.089v-4.847c-15.994 0-29.08-13.086-29.08-29.081v-78.518c0-39.744 25.688-71.732 57.192-71.732 21.326 0 34.897 14.54 34.897 38.289Zm-238.463 0v111.961c0 15.995-13.086 29.081-29.08 29.081v4.847h92.089v-4.847c-15.995 0-29.081-13.086-29.081-29.081v-107.114c0-34.897-22.295-57.677-55.738-57.677-31.02 0-59.131 19.387-70.279 48.468v-155.097c-17.448 10.178-42.651 19.387-63.008 19.387v4.847c19.387 0 29.081 12.601 29.081 38.774v208.412c0 15.995-13.086 29.081-29.081 29.081v4.847h92.089v-4.847c-15.994 0-29.081-13.086-29.081-29.081v-78.518c0-39.744 25.688-71.732 57.193-71.732 21.325 0 34.896 14.54 34.896 38.289Zm445.905-140.072v4.847c20.842 0 33.928 11.147 33.928 29.08v218.106c0 17.933-13.086 29.081-33.928 29.081v4.847h127.956c81.91 0 139.103-58.647 139.103-142.981s-57.193-142.98-139.103-142.98H3462.91Zm397.437 95.966c32.958 0 54.284 36.351 54.284 93.059 0 56.707-21.326 93.058-54.284 93.058s-54.284-36.351-54.284-93.058c0-56.708 21.326-93.059 54.284-93.059Zm-1120.58 0c32.958 0 54.284 36.351 54.284 93.059 0 56.707-21.326 93.058-54.284 93.058s-54.284-36.351-54.284-93.058c0-56.708 21.326-93.059 54.284-93.059Zm947.548 47.499c0 79.972-37.805 132.317-95.967 132.317h-22.78c-20.841 0-33.927-11.147-33.927-29.08v-236.524h56.707c57.677 0 95.967 53.315 95.967 133.287Zm340.245 8.724c7.754-34.897 27.142-56.223 50.891-56.223 25.688 0 44.106 23.75 44.106 56.223h-94.997Z" style="fill:#fff;fill-rule:nonzero"/><path d="M1929.05 9541.96h5.807c0-11.614 5.226-14.518 14.518-14.518 15.679 0 48.78 20.325 87.107 20.325 65.62 0 107.432-42.392 107.432-108.012 0-95.237-175.376-93.495-175.376-188.732 0-24.39 28.455-45.296 62.137-45.296 41.23 0 72.008 25.552 90.01 74.331h5.807v-80.719h-5.807c0 11.615-5.226 16.26-14.518 16.26-16.84 0-28.454-22.067-75.492-22.067-57.491 0-95.818 38.908-95.818 96.399 0 95.817 175.375 91.752 175.375 188.731 0 30.778-33.1 56.91-73.75 56.91-48.78 0-91.172-31.358-101.625-87.107h-5.807v93.495Zm567.357-290.357v296.164h5.807c5.807-12.195 15.679-20.905 30.197-27.293 18.002 17.421 42.973 27.293 70.266 27.293 65.04 0 108.594-50.522 108.594-126.595 0-71.428-35.424-117.304-90.011-117.304-37.165 0-70.847 23.228-84.203 58.071v-185.828c-20.906 12.195-51.103 23.228-75.493 23.228v5.807c23.229 0 34.843 15.099 34.843 46.457Zm406.499 270.032-4.065-3.484c-8.711 8.711-23.228 14.518-36.585 14.518-23.809 0-37.165-19.164-37.165-53.426v-159.115h66.782v-10.453h-66.782v-74.912h-5.808c-2.903 17.421-9.872 33.681-19.744 47.618-12.776 17.422-29.616 29.036-47.038 33.682v4.065h31.94v166.084c0 42.392 18.002 61.555 59.232 61.555 27.875 0 48.2-8.71 59.233-26.132Zm-540.063-171.31v94.075c0 47.619-30.778 85.946-68.524 85.946-25.552 0-41.812-17.422-41.812-45.876v-174.795h-75.493v5.807c19.164 0 34.843 15.679 34.843 34.843v128.337c0 41.812 26.132 69.105 66.202 69.105 37.165 0 71.427-23.228 84.784-58.071v17.421c0 12.195 2.323 28.455 5.807 40.65l69.685-9.872v-5.807c-26.132-4.646-34.842-17.421-34.842-54.006v-168.407H2328v5.807c19.163 0 34.843 15.679 34.843 34.843Zm850.164 171.31-4.065-3.484c-8.711 8.711-23.229 14.518-36.585 14.518-23.809 0-37.166-19.164-37.166-53.426v-159.115h66.782v-10.453h-66.782v-74.912h-5.807c-2.903 17.421-9.872 33.681-19.744 47.618-12.776 17.422-29.616 29.036-47.038 33.682v4.065h31.939v166.084c0 42.392 18.003 61.555 59.233 61.555 27.874 0 48.199-8.71 59.233-26.132Zm204.411-129.499h158.535c0-52.264-38.908-88.268-95.818-88.268-66.782 0-110.335 47.618-110.335 121.949 0 75.493 43.553 121.95 113.819 121.95 41.812 0 70.847-20.325 87.688-59.813l-5.226-2.323c-19.164 29.036-43.554 44.134-70.267 44.134-47.618 0-80.138-44.715-80.138-110.335 0-9.292.581-18.583 1.742-27.294Zm1234.02 124.273c0 18.583 15.098 31.358 37.165 31.358 20.906 0 40.65-11.033 49.361-28.455l-4.646-3.484c-6.387 8.711-18.002 14.518-26.712 14.518-9.292 0-14.518-6.388-14.518-18.002V9371.23c0-42.972-29.617-67.362-81.3-67.362-44.134 0-85.946 19.163-85.946 59.232 0 19.745 13.937 30.778 36.585 30.778 6.388 0 12.776-1.161 16.841-2.903-11.614-8.711-17.421-21.487-17.421-34.843 0-20.906 14.517-41.811 43.553-41.811 29.036 0 47.038 20.905 47.038 49.941 0 74.331-138.21 36.585-138.21 126.015 0 31.939 30.197 57.49 68.524 57.49 26.132 0 55.168-17.421 69.686-41.23v9.872ZM4327.4 9392.136h158.535c0-52.264-38.908-88.268-95.818-88.268-66.782 0-110.336 47.618-110.336 121.949 0 75.493 43.554 121.95 113.82 121.95 41.811 0 70.847-20.325 87.688-59.813l-5.227-2.323c-19.163 29.036-43.553 44.134-70.266 44.134-47.618 0-80.138-44.715-80.138-110.335 0-9.292.58-18.583 1.742-27.294Zm-513.931 18.002h121.369l37.746 91.172c1.742 4.065 2.323 7.549 2.323 11.614 0 13.357-11.614 23.229-31.939 23.229v5.807h117.884v-5.807c-18.002 0-30.197-12.195-39.488-34.843l-126.015-307.778h-5.807l-127.176 307.778c-9.292 22.648-20.906 34.843-38.327 34.843v5.807h83.042v-5.807c-21.487 0-33.682-10.453-33.682-24.971 0-2.903.581-6.388 2.323-9.872l37.747-91.172Zm292.098-36.585v127.757c0 19.164-15.679 34.843-34.842 34.843v5.807h110.335v-5.807c-19.163 0-34.843-15.679-34.843-34.843v-92.914c0-47.618 23.229-77.816 48.78-77.816 18.002 0 29.617 13.938 29.617 36.005 0 2.903 0 6.388-.581 9.872 19.744-10.453 27.293-22.648 27.293-38.327 0-19.164-15.679-34.262-36.585-34.262-27.874 0-55.167 23.228-68.524 58.071v-63.878c-20.905 12.195-51.103 23.228-75.492 23.228v5.807c23.228 0 34.842 15.679 34.842 46.457Zm-802.545 127.757v-325.199c-20.906 12.195-51.103 23.228-75.493 23.228v5.807c23.228 0 34.843 15.099 34.843 46.457v249.707c0 19.164-15.68 34.843-34.843 34.843v5.807h110.335v-5.807c-19.163 0-34.842-15.679-34.842-34.843Zm-307.778 0v-203.249c-20.906 12.195-51.103 23.228-75.493 23.228v5.807c19.163 0 34.843 9.872 34.843 46.457v127.757c0 19.164-15.68 34.843-34.843 34.843v5.807h110.335v-5.807c-19.163 0-34.842-15.679-34.842-34.843Zm-458.183 10.453v-104.528c0-47.619 30.778-85.946 68.524-85.946 38.327 0 62.136 38.908 62.136 102.786 0 69.105-27.874 110.336-74.331 110.336-21.486 0-42.973-8.711-56.329-22.648Zm2016.82-23.809c0-50.522 63.298-55.749 97.56-88.269v91.753c-15.679 25.551-35.424 40.65-56.91 40.65-24.39 0-40.65-18.002-40.65-44.134Zm-735.764-90.011 56.329-135.887 55.749 135.887h-112.078Zm-398.95-16.26c9.292-41.811 32.52-67.362 60.975-67.362 30.778 0 52.845 28.454 52.845 67.362h-113.82Zm909.978 0c9.291-41.811 32.52-67.362 60.975-67.362 30.778 0 52.845 28.454 52.845 67.362h-113.82Zm-1358.29-176.537c-14.518 0-26.133 11.615-26.133 26.133 0 14.517 11.615 26.132 26.133 26.132 14.517 0 26.132-11.615 26.132-26.132 0-14.518-11.615-26.133-26.132-26.133Zm2024.03-1157.11h823.15c0-271.368-202.019-458.31-497.508-458.31-346.748 0-572.888 247.246-572.888 633.192 0 391.976 226.14 633.192 590.979 633.192 217.094 0 367.854-105.532 455.295-310.566l-27.137-12.061c-99.501 150.76-226.14 229.156-364.839 229.156-247.246 0-416.097-232.171-416.097-572.888 0-48.244 3.015-96.487 9.045-141.715Zm-361.824 672.39-21.106-18.091c-45.228 45.228-120.608 75.38-189.958 75.38-123.623 0-192.973-99.502-192.973-277.399v-826.165h346.748v-54.273h-346.748v-388.961h-30.152c-15.076 90.456-51.258 174.882-102.516 247.246-66.335 90.456-153.776 150.76-244.232 174.882v21.106h165.836v862.348c0 220.109 93.472 319.611 307.551 319.611 144.729 0 250.261-45.228 307.55-135.684Zm-1842.29-105.532v-1688.51c-108.547 63.319-265.338 120.608-391.976 120.608v30.152c120.608 0 180.912 78.395 180.912 241.216V8614.9c0 99.501-81.41 180.912-180.912 180.912v30.152h572.888v-30.152c-99.502 0-180.912-81.411-180.912-180.912Zm711.587 0v-1055.32c-108.547 63.319-265.337 120.608-391.976 120.608v30.152c99.502 0 180.912 51.258 180.912 241.216v663.344c0 99.501-81.41 180.912-180.912 180.912v30.152h572.888v-30.152c-99.501 0-180.912-81.411-180.912-180.912Zm-2207.13-669.375h334.687c93.471 0 156.79 75.38 180.912 211.064h30.152v-485.447h-30.152c-21.106 135.684-87.441 211.064-180.912 211.064h-334.687v-771.891c536.705 0 639.222 9.046 726.663 66.334 66.334 42.213 90.456 90.456 150.76 292.475h30.152V7046.99H848.973v30.152c129.654 0 211.064 69.349 211.064 180.912v1356.84c0 111.562-81.41 180.912-211.064 180.912v30.152h1383.98v-482.432h-30.152c-51.258 192.973-72.365 250.261-114.578 301.52-81.41 102.517-180.912 117.593-792.997 117.593v-817.12Zm3708.7 48.244c48.243-217.095 168.851-349.764 316.596-349.764 159.805 0 274.383 147.745 274.383 349.764h-590.979Zm-1628.21-916.621c-75.38 0-135.684 60.304-135.684 135.684s60.304 135.684 135.684 135.684 135.684-60.304 135.684-135.684-60.304-135.684-135.684-135.684Zm746.968-3933.98c534.596 384.423 656.52 1130.56 272.09 1665.17-384.43 534.607-1130.57 656.532-1665.18 272.102 459 207.602 1076.65 35.439 1423.02-446.236 346.368-481.676 312.969-1122-29.93-1491.04l-.011-.008v-.004l.011.012Z"/></svg>