<svg xmlns="http://www.w3.org/2000/svg" xml:space="preserve" style="fill-rule:evenodd;clip-rule:evenodd;stroke-linejoin:round;stroke-miterlimit:2" viewBox="0 0 500 700"><path d="M34 368h171v196H34z" style="fill:#da4f62" transform="matrix(2.92398 0 0 3.57143 -99.4152 -1314.29)"/><path d="M205.924 123.22v-14.56c0-1.036.756-1.68 1.96-1.68v-.28h-6.104v.28c1.204 0 1.96.644 1.96 1.68v15.12c0 2.688-.784 4.116-2.604 4.788l.056.252c2.772 0 4.732-2.324 4.732-5.6Zm82.88-7.224h7.644c0-2.52-1.876-4.256-4.62-4.256-3.22 0-5.32 2.296-5.32 5.88 0 3.64 2.1 5.88 5.488 5.88 2.016 0 3.416-.98 4.228-2.884l-.252-.112c-.924 1.4-2.1 2.128-3.388 2.128-2.296 0-3.864-2.156-3.864-5.32 0-.448.028-.896.084-1.316Zm-74.312-4.256c-3.192 0-5.32 2.352-5.32 5.88s2.128 5.88 5.32 5.88 5.32-2.352 5.32-5.88-2.128-5.88-5.32-5.88Zm64.736 0c-3.192 0-5.32 2.352-5.32 5.88s2.128 5.88 5.32 5.88 5.32-2.352 5.32-5.88-2.128-5.88-5.32-5.88Zm-34.944 3.052v6.468c0 .924-.756 1.68-1.68 1.68v.28h5.32v-.28c-.924 0-1.68-.756-1.68-1.68v-6.188c0-2.016-1.288-3.332-3.22-3.332-1.792 0-3.416 1.12-4.06 2.8v-3.08c-1.008.588-2.464 1.12-3.64 1.12v.28c1.12 0 1.68.728 1.68 2.24v6.16c0 .924-.756 1.68-1.68 1.68v.28h5.32v-.28c-.924 0-1.68-.756-1.68-1.68v-4.536c0-2.296 1.484-4.144 3.304-4.144 1.232 0 2.016.84 2.016 2.212Zm-13.776 0v6.468c0 .924-.756 1.68-1.68 1.68v.28h5.32v-.28c-.924 0-1.68-.756-1.68-1.68v-6.188c0-2.016-1.288-3.332-3.22-3.332-1.792 0-3.416 1.12-4.06 2.8v-8.96c-1.008.588-2.464 1.12-3.64 1.12v.28c1.12 0 1.68.728 1.68 2.24v12.04c0 .924-.756 1.68-1.68 1.68v.28h5.32v-.28c-.924 0-1.68-.756-1.68-1.68v-4.536c0-2.296 1.484-4.144 3.304-4.144 1.232 0 2.016.84 2.016 2.212Zm25.76-8.092v.28c1.204 0 1.96.644 1.96 1.68v12.6c0 1.036-.756 1.68-1.96 1.68v.28h7.392c4.732 0 8.036-3.388 8.036-8.26s-3.304-8.26-8.036-8.26h-7.392Zm-41.776 5.544c1.904 0 3.136 2.1 3.136 5.376 0 3.276-1.232 5.376-3.136 5.376-1.904 0-3.136-2.1-3.136-5.376 0-3.276 1.232-5.376 3.136-5.376Zm64.736 0c1.904 0 3.136 2.1 3.136 5.376 0 3.276-1.232 5.376-3.136 5.376-1.904 0-3.136-2.1-3.136-5.376 0-3.276 1.232-5.376 3.136-5.376Zm-9.996 2.744c0 4.62-2.184 7.644-5.544 7.644h-1.316c-1.204 0-1.96-.644-1.96-1.68v-13.664h3.276c3.332 0 5.544 3.08 5.544 7.7Zm19.656.504c.448-2.016 1.568-3.248 2.94-3.248 1.484 0 2.548 1.372 2.548 3.248h-5.488Z" style="fill:#fff;fill-rule:nonzero" transform="translate(1.20753 -54.877)"/><path d="m351.37 588.108-2.858-6.947c-.112-.28-.168-.533-.168-.757 0-.588.393-.924 1.121-.924v-.28h-4.903v.28c.729 0 1.429.728 1.821 1.681l3.194 7.76c.224.56.364 1.232.364 1.905 0 2.045-1.232 3.473-2.549 3.473-.813 0-1.429-.42-1.793-1.148-.252.504-.336.812-.336 1.176 0 1.037.616 1.681 1.569 1.681 2.437 0 4.342-5.967 4.818-7.227l2.998-7.62c.42-1.093.952-1.681 1.68-1.681v-.28h-3.361v.28c.7 0 1.288.336 1.288 1.036 0 .196-.056.393-.14.645l-2.745 6.947Zm-33.645-6.387v-3.082c-1.009.589-2.466 1.121-3.642 1.121v.28c1.12 0 1.681.729 1.681 2.241v11.486c0 .925-.757 1.681-1.681 1.681v.28h5.323v-.28c-.925 0-1.681-.756-1.681-1.681v-4.202c.84.728 1.961 1.121 3.193 1.121 3.138 0 5.211-2.466 5.211-6.164 0-3.361-1.737-5.602-4.342-5.602-1.793 0-3.418 1.12-4.062 2.801Zm-110.489 7.452c0 .896.728 1.513 1.793 1.513 1.009 0 1.961-.533 2.381-1.373l-.224-.168c-.308.42-.868.7-1.289.7-.448 0-.7-.308-.7-.868v-6.808c0-2.073-1.429-3.249-3.922-3.249-2.129 0-4.146.924-4.146 2.857 0 .953.672 1.485 1.765 1.485.308 0 .616-.056.812-.14-.56-.42-.84-1.037-.84-1.681 0-1.009.7-2.017 2.101-2.017s2.269 1.008 2.269 2.409c0 3.586-6.667 1.765-6.667 6.079 0 1.541 1.456 2.774 3.305 2.774 1.261 0 2.662-.841 3.362-1.989v.476Zm-7.648.252-.196-.168c-.42.42-1.12.7-1.765.7-1.148 0-1.793-.924-1.793-2.577v-7.676h3.222v-.504h-3.222v-3.614h-.28c-.14.84-.476 1.625-.952 2.297-.617.84-1.429 1.401-2.27 1.625v.196h1.541v8.012c0 2.045.869 2.97 2.858 2.97 1.344 0 2.325-.421 2.857-1.261Zm23.84-14.708c-.448-.56-.98-.84-1.68-.84h-2.774v.28c1.205 0 1.961.644 1.961 1.681v12.606c0 1.037-.756 1.681-1.961 1.681v.28h4.51v-.28c-1.204 0-1.961-.644-1.961-1.681v-12.606l11.738 14.848h.281v-14.848c0-1.037.756-1.681 1.961-1.681v-.28h-4.427c-.084 0-.084.28-.084.28 1.205 0 1.961.644 1.961 1.681v10.926l-9.525-12.047Zm40.789 8.461h7.648c0-2.522-1.877-4.258-4.622-4.258-3.222 0-5.323 2.297-5.323 5.883 0 3.641 2.101 5.883 5.491 5.883 2.017 0 3.418-.981 4.23-2.886l-.252-.112c-.925 1.401-2.101 2.129-3.39 2.129-2.297 0-3.866-2.157-3.866-5.323 0-.448.028-.896.084-1.316Zm-102.112-6.78v14.288h.28c.28-.589.757-1.009 1.457-1.317.868.84 2.073 1.317 3.39 1.317 3.137 0 5.238-2.438 5.238-6.108 0-3.445-1.709-5.658-4.342-5.658-1.793 0-3.418 1.12-4.062 2.801v-8.965c-1.009.589-2.465 1.121-3.642 1.121v.28c1.121 0 1.681.729 1.681 2.241Zm94.436 4.763v4.538c0 2.297-1.484 4.146-3.305 4.146-1.233 0-2.017-.84-2.017-2.213V579.2h-3.642v.28c.924 0 1.681.756 1.681 1.681v6.191c0 2.017 1.26 3.334 3.193 3.334 1.793 0 3.446-1.121 4.09-2.802v.841c0 .588.112 1.372.28 1.961l3.362-.477v-.28c-1.26-.224-1.681-.84-1.681-2.605V579.2h-3.642v.28c.925 0 1.681.756 1.681 1.681Zm84.632 8.012c0 .896.728 1.513 1.793 1.513 1.008 0 1.961-.533 2.381-1.373l-.224-.168c-.308.42-.869.7-1.289.7-.448 0-.7-.308-.7-.868v-6.808c0-2.073-1.429-3.249-3.922-3.249-2.129 0-4.146.924-4.146 2.857 0 .953.672 1.485 1.764 1.485.309 0 .617-.056.813-.14-.56-.42-.841-1.037-.841-1.681 0-1.009.701-2.017 2.102-2.017 1.4 0 2.269 1.008 2.269 2.409 0 3.586-6.668 1.765-6.668 6.079 0 1.541 1.457 2.774 3.306 2.774 1.261 0 2.661-.841 3.362-1.989v.476Zm-153.659 0c0 .896.728 1.513 1.793 1.513 1.008 0 1.961-.533 2.381-1.373l-.224-.168c-.308.42-.868.7-1.289.7-.448 0-.7-.308-.7-.868v-6.808c0-2.073-1.429-3.249-3.922-3.249-2.129 0-4.146.924-4.146 2.857 0 .953.672 1.485 1.765 1.485.308 0 .616-.056.812-.14-.56-.42-.84-1.037-.84-1.681 0-1.009.7-2.017 2.101-2.017s2.269 1.008 2.269 2.409c0 3.586-6.667 1.765-6.667 6.079 0 1.541 1.456 2.774 3.305 2.774 1.261 0 2.662-.841 3.362-1.989v.476Zm-28.323-7.032c0-5.715-3.837-8.544-7.759-8.544s-7.76 2.829-7.76 8.544 3.838 8.545 7.76 8.545c3.922 0 7.759-2.83 7.759-8.545Zm79.897 1.037h7.648c0-2.522-1.877-4.258-4.622-4.258-3.222 0-5.323 2.297-5.323 5.883 0 3.641 2.101 5.883 5.491 5.883 2.017 0 3.418-.981 4.23-2.886l-.252-.112c-.924 1.401-2.101 2.129-3.39 2.129-2.297 0-3.866-2.157-3.866-5.323 0-.448.028-.896.084-1.316Zm65.918 7.227h.28c.14-.42.308-.56.533-.56.588 0 1.316.841 2.829.841 1.989 0 3.642-1.625 3.642-3.586 0-3.502-5.827-3.418-5.827-6.023 0-.897.868-1.653 1.877-1.653 1.204 0 2.297 1.036 2.969 2.857h.281V579.2h-.281c-.14.42-.28.588-.476.588-.532 0-1.092-.868-2.465-.868-1.793 0-3.278 1.428-3.278 3.193 0 3.502 5.855 3.418 5.855 6.079 0 1.065-1.036 1.989-2.269 1.989-1.513 0-2.745-1.26-3.39-3.417h-.28v3.641Zm-3.754-1.961v-9.805c-1.008.589-2.465 1.121-3.642 1.121v.28c.925 0 1.681.476 1.681 2.241v6.163c0 .925-.756 1.681-1.681 1.681v.28h5.323v-.28c-.924 0-1.681-.756-1.681-1.681Zm30.116 0v-15.688c-1.009.589-2.466 1.121-3.642 1.121v.28c1.12 0 1.681.729 1.681 2.241v12.046c0 .925-.757 1.681-1.681 1.681v.28h5.323v-.28c-.925 0-1.681-.756-1.681-1.681Zm-51.155-14.567v.28c1.205 0 1.961.644 1.961 1.681v12.606c0 1.037-.756 1.681-1.961 1.681v.28h7.396c4.735 0 8.04-3.389 8.04-8.264 0-4.874-3.305-8.264-8.04-8.264h-7.396Zm-102.504 14.567v-15.688c-1.009.589-2.465 1.121-3.642 1.121v.28c1.121 0 1.681.729 1.681 2.241v12.046c0 .925-.756 1.681-1.681 1.681v.28h5.323v-.28c-.925 0-1.681-.756-1.681-1.681Zm-20.927-6.303c0 5.379-2.605 7.956-5.35 7.956-2.746 0-5.351-2.577-5.351-7.956 0-5.379 2.605-7.956 5.351-7.956 2.745 0 5.35 2.577 5.35 7.956Zm160.943 6.808v-5.043c0-2.297 1.484-4.146 3.305-4.146 1.849 0 2.998 1.877 2.998 4.959 0 3.333-1.345 5.322-3.586 5.322-1.036 0-2.073-.42-2.717-1.092Zm-153.659 0v-5.043c0-2.297 1.485-4.146 3.306-4.146 1.849 0 2.997 1.877 2.997 4.959 0 3.333-1.344 5.322-3.586 5.322-1.036 0-2.073-.42-2.717-1.092Zm18.742-1.149c0-2.437 3.053-2.689 4.706-4.258v4.426c-.756 1.233-1.709 1.961-2.745 1.961-1.177 0-1.961-.868-1.961-2.129Zm19.722 0c0-2.437 3.053-2.689 4.706-4.258v4.426c-.756 1.233-1.709 1.961-2.745 1.961-1.177 0-1.961-.868-1.961-2.129Zm133.936 0c0-2.437 3.054-2.689 4.707-4.258v4.426c-.757 1.233-1.709 1.961-2.746 1.961-1.176 0-1.961-.868-1.961-2.129Zm-43.282-5.631c0 4.623-2.185 7.648-5.547 7.648h-1.316c-1.205 0-1.961-.644-1.961-1.681v-13.671h3.277c3.334 0 5.547 3.082 5.547 7.704Zm-28.883.504c.449-2.017 1.569-3.249 2.942-3.249 1.485 0 2.549 1.373 2.549 3.249h-5.491Zm-25.129 0c.449-2.017 1.569-3.249 2.942-3.249 1.485 0 2.549 1.373 2.549 3.249h-5.491Zm60.904-8.516c-.701 0-1.261.56-1.261 1.261 0 .7.56 1.26 1.261 1.26.7 0 1.26-.56 1.26-1.26 0-.701-.56-1.261-1.26-1.261ZM336.2 549l-1.4-1.2c-3 3-8 5-12.6 5-8.2 0-12.8-6.6-12.8-18.4v-54.8h23V476h-23v-25.8h-2c-1 6-3.4 11.6-6.8 16.4-4.4 6-10.2 10-16.2 11.6v1.4h11v57.2c0 14.6 6.2 21.2 20.4 21.2 9.6 0 16.6-3 20.4-9Zm24-44.6h54.6c0-18-13.4-30.4-33-30.4-23 0-38 16.4-38 42 0 26 15 42 39.2 42 14.4 0 24.4-7 30.2-20.6l-1.8-.8c-6.6 10-15 15.2-24.2 15.2-16.4 0-27.6-15.4-27.6-38 0-3.2.2-6.4.6-9.4Zm-245.4-6.8H137c6.2 0 10.4 5 12 14h2v-32.2h-2c-1.4 9-5.8 14-12 14h-22.2v-51.2c35.6 0 42.4.6 48.2 4.4 4.4 2.8 6 6 10 19.4h2v-28H85.2v2c8.6 0 14 4.6 14 12v90c0 7.4-5.4 12-14 12v2H177v-32h-2c-3.4 12.8-4.8 16.6-7.6 20-5.4 6.8-12 7.8-52.6 7.8v-54.2ZM261.2 542v-70c-7.2 4.2-17.6 8-26 8v2c6.6 0 12 3.4 12 16v44c0 6.6-5.4 12-12 12v2h38v-2c-6.6 0-12-5.4-12-12Zm-47.2 0V430c-7.2 4.2-17.6 8-26 8v2c8 0 12 5.2 12 16v86c0 6.6-5.4 12-12 12v2h38v-2c-6.6 0-12-5.4-12-12Zm146.8-41.2c3.2-14.4 11.2-23.2 21-23.2 10.6 0 18.2 9.8 18.2 23.2h-39.2Zm-108-60.8c-5 0-9 4-9 9s4 9 9 9 9-4 9-9-4-9-9-9Zm34.566-265.242c39.556 22.837 53.129 73.492 30.291 113.048-22.837 39.555-73.492 53.128-113.048 30.291 33.115 11.155 74.555-4.997 95.131-40.636 20.576-35.639 13.844-79.603-12.374-102.703Z"/><text x="23.768" y="49.268" style="font-family:&quot;Verdana&quot;,sans-serif;font-size:11.562px" transform="matrix(.86486 0 0 .86486 183.277 637.356)">© 2025 Astrid Schäfer</text><path d="M1612 3113C846 2877 295 2168 295 1321.33h104c0 971 792 1771 1771 1771s1771-800 1771-1770.83h104c0 847-551 1556-1317 1791.67h946v70.833H2389c-119 14-239 16-358 7-27-2-54-4-80-7.491H666v-71" style="fill:#89838d" transform="matrix(.00439 0 0 .00439 182.07 667.085)"/><circle cx="3821" cy="3146" r="175" style="fill:#c83154" transform="matrix(.00439 0 0 .00439 182.07 667.085)"/><circle cx="521" cy="3146" r="175" style="fill:#c83154" transform="matrix(.00439 0 0 .00439 182.07 667.085)"/><path d="M167 1041.67h333v333H167v-333Zm3667 0h333v333h-333v-333ZM2001 2958.34h333v333h-333v-333Z" style="fill:#fff" transform="matrix(.00439 0 0 .00439 182.07 667.085)"/></svg>