<?xml version="1.0" encoding="UTF-8" standalone="no"?><!DOCTYPE svg PUBLIC "-//W3C//DTD SVG 1.1//EN" "http://www.w3.org/Graphics/SVG/1.1/DTD/svg11.dtd"><svg width="1600px" height="2560px" version="1.1" xmlns="http://www.w3.org/2000/svg" xmlns:xlink="http://www.w3.org/1999/xlink" xml:space="preserve" xmlns:serif="http://www.serif.com/" style="fill-rule:evenodd;clip-rule:evenodd;stroke-linejoin:round;stroke-miterlimit:2;"><rect x="0" y="0" width="1600" height="2560" style="fill:#252525;"/><g id="path23828-94-3-3" transform="matrix(3.33938,0,0,3.68533,-3242.64,-2996.24)"><path d="M1248.51,1159.76C1297.55,1249.39 1111.15,1236.31 1212.22,1367.2C1179.51,1245.94 1346.8,1272.28 1248.51,1159.76Z" style="fill:#4f3425;fill-opacity:0.99;fill-rule:nonzero;"/></g><path id="path23828-8-0" d="M688.782,1045.96C557.428,1247.43 707.586,1350.84 830.084,1476.72C952.582,1602.6 1047.42,1750.96 805.426,2042.35C1023.31,1497.69 292.369,1452.75 688.782,1045.96ZM517.494,721.412C532.668,721.412 544.988,733.731 544.988,748.906C544.988,764.08 532.668,776.4 517.494,776.4C502.32,776.4 490,764.08 490,748.906C490,733.731 502.32,721.412 517.494,721.412Z" style="fill:#ff4525;fill-opacity:0.99;fill-rule:nonzero;"/><g transform="matrix(1,0,0,1,0,-1)"><path d="M545.076,2251.07L545.076,2214.07C545.076,2211.44 546.997,2209.8 550.056,2209.8L550.056,2209.09L534.548,2209.09L534.548,2209.8C537.607,2209.8 539.527,2211.44 539.527,2214.07L539.527,2252.49C539.527,2259.32 537.535,2262.95 532.911,2264.65L533.054,2265.29C540.096,2265.29 545.076,2259.39 545.076,2251.07ZM676.682,2211.23C675.544,2209.8 674.192,2209.09 672.414,2209.09L665.371,2209.09L665.371,2209.8C668.43,2209.8 670.351,2211.44 670.351,2214.07L670.351,2246.09C670.351,2248.72 668.43,2250.35 665.371,2250.35L665.371,2251.07L676.824,2251.07L676.824,2250.35C673.765,2250.35 671.844,2248.72 671.844,2246.09L671.844,2214.07L701.651,2251.78L702.363,2251.78L702.363,2214.07C702.363,2211.44 704.283,2209.8 707.342,2209.8L707.342,2209.09L696.103,2209.09C695.889,2209.09 695.889,2209.8 695.889,2209.8C698.948,2209.8 700.869,2211.44 700.869,2214.07L700.869,2241.82L676.682,2211.23ZM993.958,2230.08C993.958,2215.57 984.212,2208.38 974.253,2208.38C964.294,2208.38 954.548,2215.57 954.548,2230.08C954.548,2244.59 964.294,2251.78 974.253,2251.78C984.212,2251.78 993.958,2244.59 993.958,2230.08ZM1044.96,2230.29L1052.86,2230.29C1055.07,2230.29 1056.56,2232.07 1057.13,2235.27L1057.84,2235.27L1057.84,2223.82L1057.13,2223.82C1056.63,2227.02 1055.07,2228.8 1052.86,2228.8L1044.96,2228.8L1044.96,2210.59C1057.63,2210.59 1060.05,2210.8 1062.11,2212.15C1063.67,2213.15 1064.24,2214.29 1065.67,2219.05L1066.38,2219.05L1066.38,2209.09L1034.44,2209.09L1034.44,2209.8C1037.5,2209.8 1039.42,2211.44 1039.42,2214.07L1039.42,2246.09C1039.42,2248.72 1037.5,2250.35 1034.44,2250.35L1034.44,2251.07L1067.09,2251.07L1067.09,2239.68L1066.38,2239.68C1065.17,2244.24 1064.67,2245.59 1063.67,2246.8C1061.75,2249.22 1059.41,2249.57 1044.96,2249.57L1044.96,2230.29ZM757.779,2230.29L765.676,2230.29C767.881,2230.29 769.375,2232.07 769.944,2235.27L770.655,2235.27L770.655,2223.82L769.944,2223.82C769.446,2227.02 767.881,2228.8 765.676,2228.8L757.779,2228.8L757.779,2210.59C770.442,2210.59 772.861,2210.8 774.924,2212.15C776.489,2213.15 777.058,2214.29 778.481,2219.05L779.192,2219.05L779.192,2209.09L747.251,2209.09L747.251,2209.8C750.31,2209.8 752.231,2211.44 752.231,2214.07L752.231,2246.09C752.231,2248.72 750.31,2250.35 747.251,2250.35L747.251,2251.07L779.903,2251.07L779.903,2239.68L779.192,2239.68C777.983,2244.24 777.485,2245.59 776.489,2246.8C774.568,2249.22 772.221,2249.57 757.779,2249.57L757.779,2230.29ZM873.521,2209.09L873.521,2209.8C876.58,2209.8 878.501,2211.44 878.501,2214.07L878.501,2246.09C878.501,2248.72 876.58,2250.35 873.521,2250.35L873.521,2251.07L892.302,2251.07C904.324,2251.07 912.719,2242.46 912.719,2230.08C912.719,2217.7 904.324,2209.09 892.302,2209.09L873.521,2209.09ZM597.861,2234.92L612.729,2234.92L617.353,2246.09C617.566,2246.58 617.637,2247.01 617.637,2247.51C617.637,2249.14 616.214,2250.35 613.725,2250.35L613.725,2251.07L628.166,2251.07L628.166,2250.35C625.96,2250.35 624.466,2248.86 623.328,2246.09L607.891,2208.38L607.18,2208.38L591.601,2246.09C590.462,2248.86 589.04,2250.35 586.905,2250.35L586.905,2251.07L597.078,2251.07L597.078,2250.35C594.446,2250.35 592.952,2249.07 592.952,2247.29C592.952,2246.94 593.023,2246.51 593.237,2246.09L597.861,2234.92ZM987.841,2230.08C987.841,2243.74 981.225,2250.28 974.253,2250.28C967.282,2250.28 960.666,2243.74 960.666,2230.08C960.666,2216.42 967.282,2209.88 974.253,2209.88C981.225,2209.88 987.841,2216.42 987.841,2230.08ZM906.458,2230.15C906.458,2241.89 900.91,2249.57 892.373,2249.57L889.03,2249.57C885.971,2249.57 884.05,2247.93 884.05,2245.3L884.05,2210.59L892.373,2210.59C900.838,2210.59 906.458,2218.41 906.458,2230.15ZM598.43,2233.42L605.33,2216.78L612.159,2233.42L598.43,2233.42ZM671.198,736.204C670.431,735.246 669.521,734.766 668.322,734.766L663.577,734.766L663.577,735.246C665.638,735.246 666.932,736.348 666.932,738.121L666.932,759.69C666.932,761.463 665.638,762.566 663.577,762.566L663.577,763.045L671.294,763.045L671.294,762.566C669.233,762.566 667.939,761.463 667.939,759.69L667.939,738.121L688.022,763.524L688.501,763.524L688.501,738.121C688.501,736.348 689.795,735.246 691.856,735.246L691.856,734.766L684.283,734.766C684.139,734.766 684.139,735.246 684.139,735.246C686.2,735.246 687.494,736.348 687.494,738.121L687.494,756.814L671.198,736.204ZM944.352,734.766L944.352,735.246C946.413,735.246 947.707,736.348 947.707,738.121L947.707,759.69C947.707,761.463 946.413,762.566 944.352,762.566L944.352,763.045L957.005,763.045C965.105,763.045 970.761,757.245 970.761,748.906C970.761,740.566 965.105,734.766 957.005,734.766L944.352,734.766ZM1058.57,735.773C1062.21,735.773 1065.18,738.697 1065.18,742.243C1065.18,746.03 1062.36,749.145 1056.8,749.145L1056.8,749.625C1060.82,749.625 1062.98,756.287 1065.13,760.073C1066.38,762.086 1067.44,763.045 1068.49,763.045L1072.61,763.045L1072.61,762.566C1067.39,761.799 1067.48,751.158 1061.44,749.433C1065.62,749.433 1068.78,746.03 1068.78,742.195C1068.78,738.073 1065.47,734.766 1061.4,734.766L1048.17,734.766L1048.17,735.246C1050.23,735.246 1051.52,736.348 1051.52,738.121L1051.52,759.69C1051.52,761.463 1050.23,762.566 1048.17,762.566L1048.17,763.045L1058.62,763.045L1058.62,762.566C1056.56,762.566 1055.26,761.463 1055.26,759.69L1055.26,735.773L1058.57,735.773ZM633.094,738.121C633.094,736.348 634.388,735.246 636.449,735.246L636.449,734.766L626,734.766L626,735.246C628.061,735.246 629.355,736.348 629.355,738.121L629.355,759.69C629.355,761.463 628.061,762.566 626,762.566L626,763.045L636.449,763.045L636.449,762.566C634.388,762.566 633.094,761.463 633.094,759.69L633.094,738.121ZM777.315,734.766L753.925,734.766L753.925,741.476L754.405,741.476C755.267,738.457 755.747,737.594 756.657,736.875C757.664,736.012 759.15,735.773 763.751,735.773L763.751,759.69C763.751,761.463 762.457,762.566 760.396,762.566L760.396,763.045L770.845,763.045L770.845,762.566C768.784,762.566 767.49,761.463 767.49,759.69L767.49,735.773C772.091,735.773 773.577,736.012 774.583,736.875C775.494,737.594 775.973,738.457 776.836,741.476L777.315,741.476L777.315,734.766ZM866.369,749.049L871.69,749.049C873.175,749.049 874.182,750.248 874.565,752.405L875.045,752.405L875.045,744.688L874.565,744.688C874.23,746.845 873.175,748.043 871.69,748.043L866.369,748.043L866.369,735.773C874.901,735.773 876.53,735.917 877.92,736.827C878.975,737.498 879.358,738.265 880.317,741.476L880.796,741.476L880.796,734.766L859.276,734.766L859.276,735.246C861.337,735.246 862.631,736.348 862.631,738.121L862.631,759.69C862.631,761.463 861.337,762.566 859.276,762.566L859.276,763.045L881.276,763.045L881.276,755.376L880.796,755.376C879.981,758.444 879.646,759.354 878.975,760.169C877.681,761.799 876.099,762.038 866.369,762.038L866.369,749.049ZM810.77,749.049L825.054,749.049L825.054,759.69C825.054,761.463 823.759,762.566 821.698,762.566L821.698,763.045L832.147,763.045L832.147,762.566C830.086,762.566 828.792,761.463 828.792,759.69L828.792,738.121C828.792,736.348 830.086,735.246 832.147,735.246L832.147,734.766L821.698,734.766L821.698,735.246C823.759,735.246 825.054,736.348 825.054,738.121L825.054,748.043L810.77,748.043L810.77,738.121C810.77,736.348 812.065,735.246 814.126,735.246L814.126,734.766L803.677,734.766L803.677,735.246C805.738,735.246 807.032,736.348 807.032,738.121L807.032,759.69C807.032,761.463 805.738,762.566 803.677,762.566L803.677,763.045L814.126,763.045L814.126,762.566C812.065,762.566 810.77,761.463 810.77,759.69L810.77,749.049ZM1002.68,752.165L1012.7,752.165L1015.82,759.69C1015.96,760.025 1016.01,760.313 1016.01,760.648C1016.01,761.751 1015.05,762.566 1013.37,762.566L1013.37,763.045L1023.1,763.045L1023.1,762.566C1021.62,762.566 1020.61,761.559 1019.84,759.69L1009.44,734.287L1008.96,734.287L998.465,759.69C997.698,761.559 996.739,762.566 995.301,762.566L995.301,763.045L1002.15,763.045L1002.15,762.566C1000.38,762.566 999.375,761.703 999.375,760.505C999.375,760.265 999.423,759.977 999.567,759.69L1002.68,752.165ZM1105.25,738.121C1105.25,736.348 1106.55,735.246 1108.61,735.246L1108.61,734.766L1098.16,734.766L1098.16,735.246C1100.22,735.246 1101.51,736.348 1101.51,738.121L1101.51,759.69C1101.51,761.463 1100.22,762.566 1098.16,762.566L1098.16,763.045L1108.61,763.045L1108.61,762.566C1106.55,762.566 1105.25,761.463 1105.25,759.69L1105.25,738.121ZM1115.89,738.121L1106.31,748.139L1116.09,759.69C1116.66,760.313 1116.9,760.888 1116.9,761.367C1116.9,762.086 1116.52,762.566 1115.27,762.566L1115.27,763.045L1125,763.045L1125,762.566C1123.32,762.326 1122.51,761.511 1120.97,759.69L1109.57,746.222L1117.28,738.121C1119.01,736.348 1120.3,735.485 1121.4,735.246L1121.4,734.766L1114.31,734.766L1114.31,735.246C1115.85,735.246 1116.56,735.917 1116.56,736.779C1116.56,737.163 1116.37,737.642 1115.89,738.121ZM966.543,748.954C966.543,756.862 962.805,762.038 957.053,762.038L954.8,762.038C952.739,762.038 951.445,760.936 951.445,759.163L951.445,735.773L957.053,735.773C962.757,735.773 966.543,741.045 966.543,748.954ZM1003.07,751.158L1007.72,739.943L1012.32,751.158L1003.07,751.158ZM983.589,494.213L1130,494.213C1130,445.945 1094.07,412.695 1041.51,412.695C979.835,412.695 939.612,456.672 939.612,525.318C939.612,595.038 979.835,637.942 1044.73,637.942C1083.34,637.942 1110.16,619.172 1125.71,582.703L1120.88,580.558C1103.18,607.373 1080.66,621.317 1055.99,621.317C1012.01,621.317 981.98,580.021 981.98,519.419C981.98,510.838 982.517,502.257 983.589,494.213ZM651.617,595.038C651.617,612.736 637.137,627.216 619.439,627.216L619.439,632.579L721.337,632.579L721.337,627.216C703.639,627.216 689.158,612.736 689.158,595.038L689.158,407.332C669.851,413.767 641.964,418.058 619.439,418.058L539.719,418.058L539.719,381.589C539.719,333.858 556.345,304.361 583.16,304.361C598.713,304.361 611.048,317.769 611.048,333.322C611.048,346.729 605.149,357.455 593.35,364.427C598.177,366.573 602.467,367.109 608.366,367.109C629.282,367.109 643.226,354.238 643.226,336.003C643.226,311.87 620.165,294.708 586.914,294.708C536.502,294.708 502.178,335.467 502.178,396.606L502.178,418.058L472.682,418.058L472.682,427.711L502.178,427.711L502.178,595.038C502.178,613.272 488.234,627.216 470,627.216L470,632.579L571.898,632.579L571.898,627.216C553.663,627.216 539.719,613.272 539.719,595.038L539.719,427.711L619.439,427.711C641.427,427.711 651.617,441.119 651.617,470.079L651.617,595.038ZM778.721,477.051L778.721,595.038C778.721,612.736 764.241,627.216 746.543,627.216L746.543,632.579L848.441,632.579L848.441,627.216C830.743,627.216 816.262,612.736 816.262,595.038L816.262,509.229C816.262,465.252 837.715,437.365 861.312,437.365C877.937,437.365 888.663,450.236 888.663,470.615C888.663,473.297 888.663,476.515 888.127,479.733C906.361,470.079 913.333,458.817 913.333,444.337C913.333,426.639 898.853,412.695 879.546,412.695C853.804,412.695 828.597,434.147 816.262,466.325L816.262,407.332C796.955,418.594 769.068,428.784 746.543,428.784L746.543,434.147C767.995,434.147 778.721,448.627 778.721,477.051ZM985.198,484.559C993.779,445.945 1015.23,422.348 1041.51,422.348C1069.93,422.348 1090.31,448.627 1090.31,484.559L985.198,484.559Z" style="fill:#edcea7;fill-rule:nonzero;"/></g><g id="path23828-9-4-67" transform="matrix(3.33938,0,0,3.68533,-3242.64,-2996.24)"><path d="M1200.75,1186.74C1144,1255.72 1314.95,1268.73 1212.25,1367.15C1261.77,1272.16 1117.45,1254.69 1200.75,1186.74Z" style="fill:#fc6b2d;fill-opacity:0.99;fill-rule:nonzero;"/></g></svg>