<svg xmlns="http://www.w3.org/2000/svg" xml:space="preserve" style="fill-rule:evenodd;clip-rule:evenodd;stroke-linejoin:round;stroke-miterlimit:2" viewBox="0 0 500 700"><path d="M0 0h1600v2560H0z" style="fill:#252525" transform="matrix(.3125 0 0 .27344 0 0)"/><path d="M1248.51 1159.76c49.04 89.63-137.36 76.55-36.29 207.44-32.71-121.26 134.58-94.92 36.29-207.44Z" style="fill:#4f3425;fill-opacity:.99;fill-rule:nonzero" transform="matrix(.92876 0 0 1.02498 -885.41 -833.329)"/><path d="M688.782 1045.96c-131.354 201.47 18.804 304.88 141.302 430.76 122.498 125.88 217.336 274.24-24.658 565.63 217.884-544.66-513.057-589.6-116.644-996.39ZM517.494 721.412c15.174 0 27.494 12.319 27.494 27.494 0 15.174-12.32 27.494-27.494 27.494S490 764.08 490 748.906c0-15.175 12.32-27.494 27.494-27.494Z" style="fill:#ff4525;fill-opacity:.99;fill-rule:nonzero" transform="matrix(.27813 0 0 .27813 16.449 0)"/><path d="M1200.75 1186.74c-56.75 68.98 114.2 81.99 11.5 180.41 49.52-94.99-94.8-112.46-11.5-180.41Z" style="fill:#fc6b2d;fill-opacity:.99;fill-rule:nonzero" transform="matrix(.92876 0 0 1.02498 -885.41 -833.329)"/><text x="23.768" y="49.268" style="font-family:&quot;Verdana&quot;,sans-serif;font-size:11.562px;fill:#595959" transform="matrix(.86486 0 0 .86486 183.277 637.356)">© 2025 Astrid Schäfer</text><path d="M1612 3113C846 2877 295 2168 295 1321.33h104c0 971 792 1771 1771 1771s1771-800 1771-1770.83h104c0 847-551 1556-1317 1791.67h946v70.833H2389c-119 14-239 16-358 7-27-2-54-4-80-7.491H666v-71" style="fill:#89838d" transform="matrix(.00439 0 0 .00439 182.07 667.085)"/><circle cx="3821" cy="3146" r="175" style="fill:#c83154" transform="matrix(.00439 0 0 .00439 182.07 667.085)"/><circle cx="521" cy="3146" r="175" style="fill:#c83154" transform="matrix(.00439 0 0 .00439 182.07 667.085)"/><path d="M167 1041.67h333v333H167v-333Zm3667 0h333v333h-333v-333ZM2001 2958.34h333v333h-333v-333Z" style="fill:#fff" transform="matrix(.00439 0 0 .00439 182.07 667.085)"/><path d="m350.622 620.685-2.522-6.134c-.099-.247-.149-.47-.149-.668 0-.519.347-.816.99-.816v-.247h-4.328v.247c.643 0 1.261.643 1.607 1.484l2.82 6.851c.197.495.321 1.088.321 1.682 0 1.805-1.088 3.066-2.251 3.066-.717 0-1.261-.37-1.582-1.014-.223.446-.297.718-.297 1.039 0 .915.544 1.484 1.385 1.484 2.152 0 3.833-5.268 4.254-6.381l2.646-6.727c.371-.964.841-1.484 1.484-1.484v-.247h-2.968v.247c.618 0 1.138.297 1.138.915 0 .173-.05.347-.124.569l-2.424 6.134Zm-33.413-5.639v-2.721c-.89.52-2.176.99-3.215.99v.247c.99 0 1.484.643 1.484 1.978v10.141c0 .816-.668 1.484-1.484 1.484v.247h4.699v-.247c-.816 0-1.484-.668-1.484-1.484v-3.71c.742.643 1.732.989 2.82.989 2.77 0 4.6-2.176 4.6-5.441 0-2.968-1.533-4.946-3.833-4.946-1.583 0-3.018.989-3.587 2.473Zm-61.434-.495v4.007c0 2.028-1.311 3.66-2.918 3.66-1.089 0-1.781-.742-1.781-1.954v-7.444h-3.215v.247c.816 0 1.484.668 1.484 1.484v5.466c0 1.781 1.113 2.943 2.819 2.943 1.583 0 3.042-.989 3.611-2.473v.742c0 .519.099 1.212.247 1.731l2.968-.42v-.248c-1.113-.198-1.484-.742-1.484-2.3v-7.172h-3.215v.247c.816 0 1.484.668 1.484 1.484Zm-56.463 7.296-.174-.148c-.37.371-.989.618-1.558.618-1.014 0-1.582-.816-1.582-2.275v-6.777h2.844v-.445h-2.844v-3.191h-.248c-.123.742-.42 1.435-.841 2.028-.544.742-1.261 1.237-2.003 1.435v.173h1.36v7.073c0 1.806.767 2.622 2.523 2.622 1.187 0 2.053-.371 2.523-1.113Zm141.071-.222c0 .791.643 1.335 1.583 1.335.891 0 1.731-.47 2.102-1.212l-.197-.148c-.272.371-.767.618-1.138.618-.396 0-.618-.272-.618-.767v-6.009c0-1.831-1.262-2.869-3.463-2.869-1.88 0-3.66.816-3.66 2.522 0 .841.593 1.311 1.558 1.311.272 0 .544-.049.717-.124-.495-.371-.742-.915-.742-1.484 0-.89.618-1.78 1.855-1.78s2.003.89 2.003 2.127c0 3.165-5.886 1.558-5.886 5.367 0 1.36 1.286 2.448 2.918 2.448 1.113 0 2.35-.742 2.968-1.756v.421Zm-101.253-5.293h6.752c0-2.226-1.657-3.759-4.081-3.759-2.844 0-4.699 2.028-4.699 5.193 0 3.215 1.855 5.194 4.848 5.194 1.78 0 3.017-.866 3.734-2.547l-.222-.099c-.816 1.236-1.855 1.879-2.993 1.879-2.028 0-3.413-1.904-3.413-4.699 0-.395.025-.791.074-1.162Zm-80.428-.915c0-5.046-3.389-7.544-6.851-7.544-3.463 0-6.851 2.498-6.851 7.544 0 5.045 3.388 7.543 6.851 7.543 3.462 0 6.851-2.498 6.851-7.543Zm28.713 6.208c0 .791.644 1.335 1.583 1.335.891 0 1.732-.47 2.103-1.212l-.198-.148c-.272.371-.767.618-1.138.618-.396 0-.618-.272-.618-.767v-6.009c0-1.831-1.262-2.869-3.463-2.869-1.879 0-3.66.816-3.66 2.522 0 .841.593 1.311 1.558 1.311.272 0 .544-.049.717-.124-.494-.371-.742-.915-.742-1.484 0-.89.619-1.78 1.855-1.78 1.237 0 2.003.89 2.003 2.127 0 3.165-5.886 1.558-5.886 5.367 0 1.36 1.286 2.448 2.919 2.448 1.113 0 2.349-.742 2.967-1.756v.421Zm76.373-5.293h6.752c0-2.226-1.657-3.759-4.081-3.759-2.844 0-4.699 2.028-4.699 5.193 0 3.215 1.855 5.194 4.848 5.194 1.78 0 3.017-.866 3.734-2.547l-.222-.099c-.817 1.236-1.855 1.879-2.993 1.879-2.028 0-3.413-1.904-3.413-4.699 0-.395.025-.791.074-1.162Zm-39.72-7.469c-.395-.495-.865-.742-1.483-.742h-2.449v.247c1.064 0 1.731.569 1.731 1.484v11.129c0 .916-.667 1.484-1.731 1.484v.248h3.982v-.248c-1.064 0-1.731-.568-1.731-1.484v-11.129l10.362 13.108h.248v-13.108c0-.915.667-1.484 1.731-1.484v-.247h-3.908c-.074 0-.074.247-.074.247 1.064 0 1.731.569 1.731 1.484v9.646l-8.409-10.635ZM207.3 621.625c0 .791.643 1.335 1.583 1.335.89 0 1.731-.47 2.102-1.212l-.198-.148c-.272.371-.766.618-1.137.618-.396 0-.619-.272-.619-.767v-6.009c0-1.831-1.261-2.869-3.462-2.869-1.88 0-3.661.816-3.661 2.522 0 .841.594 1.311 1.559 1.311.272 0 .544-.049.717-.124-.495-.371-.742-.915-.742-1.484 0-.89.618-1.78 1.855-1.78 1.236 0 2.003.89 2.003 2.127 0 3.165-5.886 1.558-5.886 5.367 0 1.36 1.286 2.448 2.918 2.448 1.113 0 2.35-.742 2.968-1.756v.421Zm-44.79-11.278v12.613h.248c.247-.519.667-.89 1.286-1.162.766.742 1.83 1.162 2.992 1.162 2.77 0 4.625-2.152 4.625-5.392 0-3.042-1.508-4.995-3.833-4.995-1.583 0-3.018.989-3.586 2.473v-7.914c-.891.519-2.177.989-3.216.989v.247c.99 0 1.484.643 1.484 1.979Zm142.234 12.366h.248c.123-.371.272-.495.47-.495.519 0 1.162.742 2.498.742 1.756 0 3.215-1.434 3.215-3.166 0-3.091-5.144-3.017-5.144-5.317 0-.791.766-1.459 1.657-1.459 1.063 0 2.028.915 2.621 2.522h.247v-2.72h-.247c-.124.371-.247.519-.42.519-.47 0-.965-.766-2.177-.766-1.583 0-2.893 1.261-2.893 2.819 0 3.092 5.169 3.017 5.169 5.367 0 .94-.915 1.756-2.004 1.756-1.335 0-2.423-1.113-2.992-3.017h-.248v3.215Zm-24.361-14.592v.247c1.064 0 1.732.569 1.732 1.484v11.129c0 .916-.668 1.484-1.732 1.484v.248h6.53c4.179 0 7.098-2.993 7.098-7.296 0-4.304-2.919-7.296-7.098-7.296h-6.53Zm-102.86 12.86v-13.849c-.891.519-2.177.989-3.215.989v.247c.989 0 1.483.643 1.483 1.979v10.634c0 .817-.667 1.484-1.483 1.484v.248h4.699v-.248c-.817 0-1.484-.667-1.484-1.484Zm152.968 0v-13.849c-.891.519-2.177.989-3.216.989v.247c.99 0 1.484.643 1.484 1.979v10.634c0 .817-.667 1.484-1.484 1.484v.248h4.699v-.248c-.816 0-1.483-.667-1.483-1.484Zm-30.297 0v-8.656c-.891.52-2.177.99-3.215.99v.247c.816 0 1.483.42 1.483 1.978v5.441c0 .817-.667 1.484-1.483 1.484v.248h4.699v-.248c-.816 0-1.484-.667-1.484-1.484Zm-143.619-5.564c0 4.748-2.3 7.024-4.724 7.024-2.424 0-4.724-2.276-4.724-7.024 0-4.749 2.3-7.024 4.724-7.024 2.424 0 4.724 2.275 4.724 7.024Zm160.634 6.01v-4.452c0-2.028 1.311-3.66 2.919-3.66 1.632 0 2.646 1.657 2.646 4.377 0 2.943-1.187 4.699-3.166 4.699-.915 0-1.83-.371-2.399-.964Zm-152.967 0v-4.452c0-2.028 1.31-3.66 2.918-3.66 1.632 0 2.646 1.657 2.646 4.377 0 2.943-1.187 4.699-3.165 4.699-.916 0-1.831-.371-2.399-.964Zm19.019-1.014c0-2.152 2.695-2.375 4.154-3.76v3.908c-.667 1.088-1.508 1.731-2.423 1.731-1.039 0-1.731-.766-1.731-1.879Zm152.967 0c0-2.152 2.696-2.375 4.155-3.76v3.908c-.667 1.088-1.508 1.731-2.423 1.731-1.039 0-1.732-.766-1.732-1.879Zm-133.083 0c0-2.152 2.696-2.375 4.155-3.76v3.908c-.668 1.088-1.509 1.731-2.424 1.731-1.038 0-1.731-.766-1.731-1.879Zm88.689-4.971c0 4.08-1.929 6.751-4.897 6.751h-1.162c-1.064 0-1.731-.568-1.731-1.484V608.64h2.893c2.943 0 4.897 2.721 4.897 6.802Zm-27.972.445c.396-1.781 1.385-2.869 2.597-2.869 1.311 0 2.251 1.212 2.251 2.869h-4.848Zm-24.658 0c.396-1.781 1.385-2.869 2.597-2.869 1.311 0 2.251 1.212 2.251 2.869h-4.848Zm59.951-7.519c-.618 0-1.113.495-1.113 1.113s.495 1.113 1.113 1.113 1.113-.495 1.113-1.113-.495-1.113-1.113-1.113Zm9.442-463.449H355c0-15.298-11.388-25.837-28.046-25.837-19.547 0-32.295 13.938-32.295 35.695 0 22.097 12.748 35.695 33.315 35.695 12.238 0 20.737-5.949 25.666-17.507l-1.53-.68c-5.609 8.499-12.748 12.918-20.567 12.918-13.938 0-23.456-13.088-23.456-32.296 0-2.719.17-5.439.51-7.988Zm-105.216 31.955c0 5.609-4.589 10.199-10.198 10.199v1.699h32.295v-1.699c-5.609 0-10.198-4.59-10.198-10.199v-59.491c-6.119 2.039-14.958 3.399-22.097 3.399h-26.086v-11.558c0-15.128 5.269-24.477 13.768-24.477 4.929 0 8.839 4.25 8.839 9.179 0 4.249-1.87 7.649-5.61 9.858 1.53.68 2.89.85 4.76.85 6.629 0 11.048-4.079 11.048-9.858 0-7.649-7.309-13.088-17.847-13.088-15.978 0-26.856 12.918-26.856 32.295v6.799h-9.349v3.06h9.349v53.032c0 5.779-4.42 10.199-10.199 10.199v1.699h32.295v-1.699c-5.779 0-10.198-4.42-10.198-10.199v-53.032h26.086c6.969 0 10.198 4.249 10.198 13.428v39.604Zm40.965-37.395v37.395c0 5.609-4.59 10.199-10.199 10.199v1.699h32.295v-1.699c-5.609 0-10.198-4.59-10.198-10.199v-27.196c0-13.938 6.799-22.777 14.278-22.777 5.269 0 8.669 4.08 8.669 10.539 0 .85 0 1.869-.17 2.889 5.779-3.059 7.989-6.629 7.989-11.218 0-5.609-4.59-10.029-10.709-10.029-8.159 0-16.148 6.799-20.057 16.998v-18.697c-6.119 3.569-14.958 6.799-22.097 6.799v1.699c6.799 0 10.199 4.59 10.199 13.598Zm64.76 2.38c2.72-12.238 9.519-19.717 17.848-19.717 9.009 0 15.468 8.329 15.468 19.717h-33.316Z" style="fill:#edcea7;fill-rule:nonzero" transform="translate(0 -4.67334)"/><path d="M198.04 203.446c-.328-.41-.718-.615-1.231-.615h-2.03v.205c.882 0 1.436.472 1.436 1.231v9.228c0 .759-.554 1.23-1.436 1.23v.205h3.302v-.205c-.882 0-1.436-.471-1.436-1.23v-9.228l8.593 10.869h.205v-10.869c0-.759.553-1.231 1.435-1.231v-.205h-3.24c-.061 0-.061.205-.061.205.881 0 1.435.472 1.435 1.231v7.998l-6.972-8.819Zm-12.202.821c0-.759.554-1.231 1.435-1.231v-.205h-4.47v.205c.882 0 1.435.472 1.435 1.231v9.228c0 .759-.553 1.23-1.435 1.23v.205h4.47v-.205c-.881 0-1.435-.471-1.435-1.23v-9.228Zm79.301 4.675h2.276c.636 0 1.067.513 1.231 1.436h.205v-3.302h-.205c-.144.923-.595 1.436-1.231 1.436h-2.276v-5.25c3.65 0 4.347.061 4.942.451.451.287.615.615 1.025 1.989h.206v-2.871h-9.208v.205c.882 0 1.435.472 1.435 1.231v9.228c0 .759-.553 1.23-1.435 1.23v.205h9.413v-3.281h-.205c-.349 1.313-.493 1.702-.78 2.051-.553.697-1.23.8-5.393.8v-5.558Zm-29.899-6.111h-10.008v2.871h.205c.369-1.292.574-1.661.964-1.968.431-.37 1.066-.472 3.035-.472v10.233c0 .759-.554 1.23-1.435 1.23v.205h4.47v-.205c-.882 0-1.435-.471-1.435-1.23v-10.233c1.968 0 2.604.102 3.035.472.389.307.594.676.963 1.968h.206v-2.871Zm95.727.431c1.558 0 2.83 1.251 2.83 2.768 0 1.62-1.21 2.953-3.589 2.953v.205c1.723 0 2.645 2.851 3.568 4.471.533.861.985 1.271 1.436 1.271h1.763v-.205c-2.235-.328-2.194-4.88-4.778-5.619 1.784 0 3.138-1.456 3.138-3.096 0-1.764-1.415-3.179-3.158-3.179h-5.66v.205c.881 0 1.435.472 1.435 1.231v9.228c0 .759-.554 1.23-1.435 1.23v.205h4.47v-.205c-.882 0-1.435-.471-1.435-1.23v-10.233h1.415Zm-40.666-.431v.205c.882 0 1.436.472 1.436 1.231v9.228c0 .759-.554 1.23-1.436 1.23v.205h5.414c3.466 0 5.886-2.481 5.886-6.049 0-3.568-2.42-6.05-5.886-6.05h-5.414Zm61.091 1.436-4.102 4.286 4.184 4.942c.246.267.348.513.348.718 0 .307-.164.512-.697.512v.205h4.163v-.205c-.718-.102-1.066-.451-1.722-1.23l-4.881-5.763 3.301-3.465c.739-.759 1.292-1.128 1.764-1.231v-.205h-3.035v.205c.656 0 .964.287.964.657 0 .164-.082.369-.287.574Zm-4.553 0c0-.759.554-1.231 1.436-1.231v-.205h-4.471v.205c.882 0 1.436.472 1.436 1.231v9.228c0 .759-.554 1.23-1.436 1.23v.205h4.471v-.205c-.882 0-1.436-.471-1.436-1.23v-9.228Zm-35.682 6.008h4.286l1.333 3.22c.061.144.082.267.082.41 0 .472-.41.82-1.128.82v.205h4.163v-.205c-.636 0-1.067-.43-1.395-1.23l-4.45-10.869h-.205l-4.491 10.869c-.328.8-.738 1.23-1.353 1.23v.205h2.932v-.205c-.759 0-1.189-.369-1.189-.881 0-.103.02-.226.082-.349l1.333-3.22Zm-65.705-1.333h6.111v4.553c0 .759-.554 1.23-1.435 1.23v.205h4.47v-.205c-.882 0-1.435-.471-1.435-1.23v-9.228c0-.759.553-1.231 1.435-1.231v-.205h-4.47v.205c.881 0 1.435.472 1.435 1.231v4.245h-6.111v-4.245c0-.759.554-1.231 1.436-1.231v-.205h-4.471v.205c.882 0 1.436.472 1.436 1.231v9.228c0 .759-.554 1.23-1.436 1.23v.205h4.471v-.205c-.882 0-1.436-.471-1.436-1.23v-4.553Zm54.344-.041c0 3.384-1.6 5.599-4.061 5.599h-.963c-.882 0-1.436-.472-1.436-1.231v-10.007h2.399c2.441 0 4.061 2.256 4.061 5.639Zm11.525.944 1.989-4.799 1.969 4.799h-3.958Z" style="fill:#595959;fill-rule:nonzero"/></svg>