<svg xmlns="http://www.w3.org/2000/svg" xml:space="preserve" style="fill-rule:evenodd;clip-rule:evenodd;stroke-linejoin:round;stroke-miterlimit:2" viewBox="0 0 1600 2560"><path d="M-7.365-36.245h1619.73v2604.49H-7.365z" style="fill:#252525"/><path d="M872.562 1649.49c93.841 189.299-262.872 161.659-69.445 438.102-62.61-256.094 257.537-200.471 69.445-438.102Z" style="fill:#4f3425;fill-opacity:.99;fill-rule:nonzero"/><path d="M736.264 1516.58c-150.552 230.922 344.208 237.028 66.846 571.005 124.863-312.13-294.022-337.882-66.846-571.005Z" style="fill:#ff4525;fill-opacity:.99;fill-rule:nonzero"/><path d="M781.153 1706.47c-108.608 145.674 218.551 173.158 22.019 381.018 94.769-200.629-181.417-237.518-22.019-381.018Z" style="fill:#fc6b2d;fill-opacity:.99;fill-rule:nonzero"/><circle cx="527.494" cy="952.15" r="27.494" style="fill:#fd4525"/><path d="M648.934 2306.53v-39.111c0-2.783 2.031-4.513 5.265-4.513v-.752h-16.397v.752c3.235 0 5.265 1.73 5.265 4.513v40.615c0 7.221-2.106 11.057-6.994 12.862l.15.677c7.446 0 12.711-6.243 12.711-15.043Zm71.453-42.119c-1.204-1.505-2.633-2.257-4.513-2.257h-7.446v.752c3.234 0 5.265 1.73 5.265 4.513v33.846c0 2.783-2.031 4.513-5.265 4.513v.752h12.109v-.752c-3.234 0-5.265-1.73-5.265-4.513v-33.846l31.514 39.863h.753v-39.863c0-2.783 2.03-4.513 5.264-4.513v-.752H740.92c-.226 0-.226.752-.226.752 3.234 0 5.265 1.73 5.265 4.513v29.333l-25.572-32.341Zm200.067 19.931c0-15.343-10.304-22.94-20.834-22.94s-20.834 7.597-20.834 22.94c0 15.344 10.304 22.94 20.834 22.94s20.834-7.596 20.834-22.94Zm-148.17.226h8.348c2.332 0 3.911 1.88 4.513 5.265h.752v-12.11h-.752c-.526 3.385-2.181 5.265-4.513 5.265h-8.348v-19.254c13.388 0 15.945.225 18.126 1.654 1.655 1.053 2.256 2.257 3.761 7.296h.752v-10.53h-33.771v.752c3.234 0 5.265 1.73 5.265 4.513v33.846c0 2.783-2.031 4.513-5.265 4.513v.752h34.523v-12.034h-.752c-1.279 4.813-1.805 6.243-2.858 7.521-2.031 2.557-4.513 2.933-19.781 2.933v-20.382Zm168.252 0h8.348c2.332 0 3.911 1.88 4.513 5.265h.752v-12.11h-.752c-.526 3.385-2.181 5.265-4.513 5.265h-8.348v-19.254c13.388 0 15.945.225 18.126 1.654 1.655 1.053 2.256 2.257 3.761 7.296h.752v-10.53h-33.771v.752c3.234 0 5.265 1.73 5.265 4.513v33.846c0 2.783-2.031 4.513-5.265 4.513v.752h34.523v-12.034h-.752c-1.279 4.813-1.805 6.243-2.858 7.521-2.031 2.557-4.513 2.933-19.781 2.933v-20.382Zm-113.572-22.414v.752c3.234 0 5.265 1.73 5.265 4.513v33.846c0 2.783-2.031 4.513-5.265 4.513v.752h19.856c12.711 0 21.586-9.101 21.586-22.188 0-13.087-8.875-22.188-21.586-22.188h-19.856Zm-156.068 27.303h15.72l4.889 11.808c.225.527.301.978.301 1.504 0 1.73-1.505 3.009-4.137 3.009v.752h15.268v-.752c-2.331 0-3.911-1.58-5.114-4.513l-16.322-39.863h-.752l-16.471 39.863c-1.204 2.933-2.708 4.513-4.965 4.513v.752h10.756v-.752c-2.783 0-4.362-1.354-4.362-3.234 0-.376.075-.828.3-1.279l4.889-11.808Zm243.089-5.115c0 14.441-6.994 21.361-14.365 21.361s-14.366-6.92-14.366-21.361 6.995-21.361 14.366-21.361c7.371 0 14.365 6.92 14.365 21.361Zm-52.198.075c0 12.41-5.866 20.533-14.892 20.533h-3.535c-3.234 0-5.265-1.729-5.265-4.512v-36.704h8.8c8.951 0 14.892 8.273 14.892 20.683Zm-190.289 3.46 7.296-17.6 7.22 17.6h-14.516Zm-30.083-1349.97c-.86-1.075-1.881-1.612-3.224-1.612h-5.319v.537c2.31 0 3.761 1.236 3.761 3.224v24.18c0 1.988-1.451 3.224-3.761 3.224v.537h8.65v-.537c-2.31 0-3.761-1.236-3.761-3.224v-24.18l22.514 28.478h.537v-28.478c0-1.988 1.451-3.224 3.761-3.224v-.537h-8.489c-.161 0-.161.537-.161.537 2.31 0 3.761 1.236 3.761 3.224v20.956l-18.269-23.105Zm83.929 14.4h16.012v11.929c0 1.988-1.451 3.224-3.761 3.224v.537h11.713v-.537c-2.31 0-3.761-1.236-3.761-3.224v-24.18c0-1.988 1.451-3.224 3.761-3.224v-.537h-11.713v.537c2.31 0 3.761 1.236 3.761 3.224v11.123h-16.012v-11.123c0-1.988 1.451-3.224 3.761-3.224v-.537h-11.713v.537c2.31 0 3.761 1.236 3.761 3.224v24.18c0 1.988-1.451 3.224-3.761 3.224v.537h11.713v-.537c-2.31 0-3.761-1.236-3.761-3.224v-11.929Zm-13.325-16.012h-26.222v7.523h.538c.967-3.386 1.504-4.353 2.525-5.159 1.128-.967 2.794-1.236 7.952-1.236v26.813c0 1.988-1.45 3.224-3.761 3.224v.537h11.714v-.537c-2.311 0-3.762-1.236-3.762-3.224v-26.813c5.159 0 6.824.269 7.953 1.236 1.021.806 1.558 1.773 2.525 5.159h.538v-7.523Zm170.222 1.128c4.083 0 7.415 3.278 7.415 7.254 0 4.245-3.17 7.738-9.403 7.738v.537c4.513 0 6.931 7.469 9.349 11.714 1.397 2.256 2.579 3.331 3.761 3.331h4.621v-.537c-5.857-.86-5.749-12.789-12.519-14.723 4.674 0 8.221-3.815 8.221-8.113 0-4.621-3.708-8.329-8.275-8.329h-14.83v.537c2.311 0 3.761 1.236 3.761 3.224v24.18c0 1.988-1.45 3.224-3.761 3.224v.537h11.714v-.537c-2.311 0-3.762-1.236-3.762-3.224v-26.813h3.708Zm28.155 2.633c0-1.988 1.451-3.224 3.762-3.224v-.537h-11.714v.537c2.31 0 3.761 1.236 3.761 3.224v24.18c0 1.988-1.451 3.224-3.761 3.224v.537h11.714v-.537c-2.311 0-3.762-1.236-3.762-3.224v-24.18Zm-107.839-3.761v.537c2.31 0 3.761 1.236 3.761 3.224v24.18c0 1.988-1.451 3.224-3.761 3.224v.537h14.185c9.08 0 15.421-6.502 15.421-15.851s-6.341-15.851-15.421-15.851h-14.185Zm-179.68 3.761c0-1.988 1.451-3.224 3.762-3.224v-.537h-11.714v.537c2.311 0 3.761 1.236 3.761 3.224v24.18c0 1.988-1.45 3.224-3.761 3.224v.537h11.714v-.537c-2.311 0-3.762-1.236-3.762-3.224v-24.18Zm299.448 0-10.747 11.23 10.962 12.95c.644.698.913 1.343.913 1.88 0 .806-.43 1.344-1.827 1.344v.537h10.908v-.537c-1.881-.269-2.794-1.183-4.514-3.224l-12.788-15.099 8.651-9.081c1.934-1.988 3.385-2.955 4.621-3.224v-.537h-7.952v.537c1.719 0 2.525.753 2.525 1.72 0 .43-.215.967-.752 1.504ZM843.769 955.8h11.23l3.492 8.436c.162.376.215.698.215 1.074 0 1.236-1.074 2.15-2.955 2.15v.537h10.908v-.537c-1.666 0-2.794-1.129-3.654-3.224l-11.66-28.478h-.537l-11.768 28.478c-.859 2.095-1.934 3.224-3.546 3.224v.537h7.684v-.537c-1.988 0-3.117-.968-3.117-2.311 0-.269.054-.591.215-.913l3.493-8.436Zm-80.275-3.493h5.964c1.665 0 2.794 1.343 3.224 3.761h.537v-8.65h-.537c-.376 2.418-1.559 3.761-3.224 3.761h-5.964v-13.756c9.564 0 11.391.162 12.949 1.183 1.182.752 1.612 1.612 2.687 5.212h.537v-7.523h-24.126v.537c2.311 0 3.761 1.236 3.761 3.224v24.18c0 1.988-1.45 3.224-3.761 3.224v.537h24.663V959.4h-.537c-.914 3.439-1.29 4.46-2.042 5.373-1.451 1.827-3.224 2.096-14.131 2.096v-14.562Zm63.94-.107c0 8.865-4.191 14.669-10.638 14.669h-2.526c-2.31 0-3.761-1.236-3.761-3.224v-26.222h6.287c6.394 0 10.638 5.911 10.638 14.777Zm16.765 2.471 5.212-12.573 5.158 12.573h-10.37Zm134.39-257.218H1125c0-48.268-35.932-81.519-88.49-81.519-61.675 0-101.898 43.977-101.898 112.624 0 69.72 40.223 112.624 105.116 112.624 38.614 0 65.429-18.771 80.982-55.239l-4.827-2.145c-17.698 26.815-40.223 40.759-64.893 40.759-43.977 0-74.01-41.296-74.01-101.898 0-8.581.536-17.162 1.609-25.206ZM646.617 798.278c0 17.698-14.48 32.178-32.178 32.178v5.363h101.897v-5.363c-17.698 0-32.178-14.48-32.178-32.178V610.571c-19.307 6.436-47.195 10.726-69.719 10.726h-69.72v-36.468c0-47.731 16.625-77.228 43.441-77.228 15.553 0 27.888 13.408 27.888 28.96 0 13.408-5.9 24.134-17.699 31.106 4.827 2.145 9.118 2.682 15.017 2.682 20.916 0 34.86-12.872 34.86-31.106 0-24.134-23.061-41.296-56.312-41.296-50.413 0-84.736 40.76-84.736 101.898v21.452h-29.497v9.654h29.497v167.327c0 18.234-13.944 32.178-32.178 32.178v5.363h101.897v-5.363c-18.234 0-32.178-13.944-32.178-32.178V630.951h69.72c21.988 0 32.178 13.407 32.178 42.368v124.959Zm127.104-117.987v117.987c0 17.698-14.48 32.178-32.178 32.178v5.363H843.44v-5.363c-17.698 0-32.178-14.48-32.178-32.178v-85.809c0-43.977 21.452-71.865 45.05-71.865 16.625 0 27.351 12.872 27.351 33.251 0 2.682 0 5.9-.536 9.117 18.234-9.653 25.206-20.915 25.206-35.396 0-17.698-14.48-31.642-33.787-31.642-25.743 0-50.949 21.453-63.284 53.631v-58.994c-19.307 11.263-47.195 21.452-69.719 21.452v5.364c21.452 0 32.178 14.48 32.178 42.904Zm206.477 7.508c8.581-38.614 30.033-62.211 56.312-62.211 28.424 0 48.804 26.279 48.804 62.211H980.198Z" style="fill:#edcea7;fill-rule:nonzero"/></svg>