<svg xmlns="http://www.w3.org/2000/svg" xml:space="preserve" style="fill-rule:evenodd;clip-rule:evenodd;stroke-linejoin:round;stroke-miterlimit:2" viewBox="0 0 500 700"><path d="M0 0h1600v2560H0z" style="fill:#252525" transform="matrix(.3125 0 0 .27344 0 0)"/><path d="M0 5115.51c142.961-28.33 290.703-43.18 441.885-43.18 1249.445 0 2263.835 1014.39 2263.835 2263.83S1691.34 9600 441.885 9600c-151.182 0-298.924-14.85-441.885-43.19v-102.05c142.635 29.65 290.454 45.24 441.885 45.24 1194.245 0 2163.835-969.58 2163.835-2163.84 0-1194.25-969.58-2163.83-2163.835-2163.83-151.431 0-299.25 15.59-441.885 45.24v-102.06Zm0 450.89c141.44-35.26 289.492-54 441.885-54 1006.555 0 1823.755 817.2 1823.755 1823.76 0 1006.57-817.19 1823.77-1823.755 1823.77-152.393 0-300.445-18.74-441.885-54v-103.27c141.107 37.37 289.191 57.27 441.885 57.27 951.365 0 1723.755-772.39 1723.755-1723.77 0-951.36-772.38-1723.76-1723.755-1723.76-152.694 0-300.778 19.9-441.885 57.27V5566.4Zm6667-1514.65v444.39c-675.04 260.65-1154.5 916.18-1154.5 1682.81 0 766.64 479.46 1422.17 1154.5 1682.81v444.39c-911.09-277.81-1574.78-1125.61-1574.78-2127.2 0-1001.59 663.69-1849.39 1574.78-2127.2Zm-5602.2-1113.4H3112v70.84H1064.8v-70.84Z" style="fill:#fd321c" transform="matrix(.075 0 0 .075 0 -68.123)"/><path d="M302.133 611.542c0 2.16-1.386 3.729-3.322 3.729-1.895 0-3.22-1.528-3.22-3.729v-6.522c0-.754.55-1.222 1.427-1.222v-.204h-4.443v.204c.876 0 1.427.468 1.427 1.222v6.522c0 2.67 1.61 4.279 4.259 4.279 2.69 0 4.3-1.609 4.3-4.279v-6.522c0-.754.55-1.222 1.427-1.222v-.204h-3.282v.204c.877 0 1.427.468 1.427 1.222v6.522Zm-129.105-1.936c0-4.158-2.792-6.216-5.645-6.216-2.853 0-5.645 2.058-5.645 6.216 0 4.157 2.792 6.215 5.645 6.215 2.853 0 5.645-2.058 5.645-6.215Zm90.934-5.401c-.326-.407-.713-.611-1.223-.611h-2.017v.204c.876 0 1.426.468 1.426 1.222v9.171c0 .754-.55 1.223-1.426 1.223v.204h3.281v-.204c-.877 0-1.427-.469-1.427-1.223v-9.171l8.539 10.801h.204V605.02c0-.754.55-1.222 1.427-1.222v-.204h-3.22c-.062 0-.062.204-.062.204.877 0 1.427.468 1.427 1.222v7.948l-6.929-8.763Zm96.11 11.413h.204c0-.408.184-.51.51-.51.55 0 1.711.713 3.057.713 2.302 0 3.77-1.487 3.77-3.79 0-3.342-6.155-3.281-6.155-6.623 0-.856.999-1.59 2.181-1.59 1.447 0 2.527.897 3.159 2.608h.203v-2.832h-.203c0 .407-.184.57-.51.57-.591 0-.998-.774-2.649-.774-2.018 0-3.363 1.365-3.363 3.383 0 3.363 6.155 3.22 6.155 6.623 0 1.08-1.162 1.998-2.588 1.998-1.712 0-3.2-1.101-3.567-3.057h-.204v3.281Zm-78.991-5.951h2.262c.632 0 1.06.509 1.223 1.426h.204v-3.281h-.204c-.143.917-.591 1.427-1.223 1.427h-2.262v-5.217c3.627 0 4.32.061 4.911.448.449.285.612.611 1.019 1.977h.204v-2.853h-9.15v.204c.876 0 1.426.468 1.426 1.222v9.171c0 .754-.55 1.223-1.426 1.223v.204h9.354v-3.261h-.204c-.346 1.304-.489 1.691-.774 2.038-.551.693-1.223.795-5.36.795v-5.523Zm31.038 0h2.262c.632 0 1.06.509 1.223 1.426h.204v-3.281h-.204c-.143.917-.591 1.427-1.223 1.427h-2.262v-5.217c3.628 0 4.32.061 4.912.448.448.285.611.611 1.018 1.977h.204v-2.853h-9.15v.204c.876 0 1.426.468 1.426 1.222v9.171c0 .754-.55 1.223-1.426 1.223v.204h9.354v-3.261h-.204c-.346 1.304-.489 1.691-.774 2.038-.55.693-1.223.795-5.36.795v-5.523Zm-73.795 1.325h4.26l1.324 3.199c.061.143.082.265.082.408 0 .468-.408.815-1.121.815v.204h4.137v-.204c-.632 0-1.06-.428-1.386-1.223l-4.422-10.801h-.204l-4.463 10.801c-.326.795-.734 1.223-1.345 1.223v.204h2.914v-.204c-.754 0-1.182-.367-1.182-.876 0-.102.021-.225.082-.347l1.324-3.199Zm165.32 0h4.259l1.325 3.199c.061.143.082.265.082.408 0 .468-.408.815-1.121.815v.204h4.137v-.204c-.632 0-1.06-.428-1.386-1.223l-4.422-10.801h-.204l-4.463 10.801c-.326.795-.734 1.223-1.345 1.223v.204h2.914v-.204c-.754 0-1.182-.367-1.182-.876 0-.102.02-.225.081-.347l1.325-3.199Zm-50.868-5.972c0-.754.551-1.222 1.427-1.222v-.204h-4.443v.204c.877 0 1.427.468 1.427 1.222v9.171c0 .754-.55 1.223-1.427 1.223v.204h4.443v-.204c-.876 0-1.427-.469-1.427-1.223v-9.171Zm-143.248 5.972h4.259l1.325 3.199c.061.143.081.265.081.408 0 .468-.407.815-1.12.815v.204h4.137v-.204c-.632 0-1.06-.428-1.386-1.223l-4.423-10.801h-.203l-4.464 10.801c-.326.795-.733 1.223-1.345 1.223v.204h2.915v-.204c-.754 0-1.182-.367-1.182-.876 0-.102.02-.225.081-.347l1.325-3.199Zm209.075-2.12c.57.999.856 2.058.856 3.2v2.119c0 .754-.551 1.223-1.427 1.223v.204h4.443v-.204c-.877 0-1.427-.469-1.427-1.223v-3.913c0-.244.082-.55.204-.774l2.914-4.484c.469-.733 1.06-1.222 1.671-1.222v-.204h-2.914v.204c.632 0 .978.224.978.591 0 .183-.081.387-.244.631l-2.853 4.402-2.65-4.402c-.142-.224-.224-.448-.224-.611 0-.387.367-.611 1.039-.611v-.204h-4.137v.204c.53 0 1.04.529 1.468 1.222l2.303 3.852Zm-45.386-5.278v.204c.877 0 1.427.468 1.427 1.222v9.171c0 .754-.55 1.223-1.427 1.223v.204h4.443v-.204c-.876 0-1.427-.469-1.427-1.223v-10.169h1.142c1.63 0 3.016 1.365 3.016 2.955 0 1.977-1.692 3.036-2.914 3.036-.225 0-.408-.04-.591-.102v.204c.55.286 1.1.408 1.65.408 1.814 0 3.444-1.468 3.444-3.465 0-1.915-1.548-3.464-3.464-3.464h-5.299ZM193.02 615.618h8.927v-3.261h-.204c-.428 1.61-.632 2.038-1.141 2.364-.612.387-1.345.469-4.565.469v-10.17c0-.754.55-1.222 1.426-1.222v-.204h-4.443v.204c.877 0 1.427.468 1.427 1.222v9.171c0 .754-.55 1.223-1.427 1.223v.204Zm194.116 0h8.927v-3.261h-.204c-.428 1.61-.632 2.038-1.141 2.364-.612.387-1.345.469-4.565.469v-10.17c0-.754.55-1.222 1.426-1.222v-.204h-4.443v.204c.877 0 1.427.468 1.427 1.222v9.171c0 .754-.55 1.223-1.427 1.223v.204Zm-208.626 0h5.808c1.753 0 3.159-1.406 3.159-3.159 0-1.651-1.304-2.935-3.179-3.159 1.406-.224 2.445-1.427 2.445-2.853 0-1.569-1.304-2.853-2.853-2.853h-5.38v.204c.876 0 1.427.468 1.427 1.222v9.171c0 .754-.551 1.223-1.427 1.223v.204Zm154.539-12.024v.204c.876 0 1.426.468 1.426 1.222v9.171c0 .754-.55 1.223-1.426 1.223v.204h5.38c3.444 0 5.849-2.466 5.849-6.012 0-3.546-2.405-6.012-5.849-6.012h-5.38Zm-100.676 0h-9.945v2.853h.204c.367-1.284.571-1.651.958-1.957.428-.366 1.06-.468 3.016-.468v10.169c0 .754-.55 1.223-1.427 1.223v.204h4.443v-.204c-.876 0-1.426-.469-1.426-1.223v-10.169c1.956 0 2.588.102 3.016.468.387.306.591.673.958 1.957h.203v-2.853Zm-61.098 6.012c0 3.913-1.895 5.788-3.892 5.788-1.997 0-3.893-1.875-3.893-5.788 0-3.913 1.896-5.788 3.893-5.788 1.997 0 3.892 1.875 3.892 5.788Zm10.903-.306v.204h.897c1.59 0 2.874 1.284 2.874 2.873 0 1.549-1.284 2.813-2.874 2.813h-1.549v-11.168h1.019c1.468 0 2.67 1.182 2.67 2.608 0 1.488-1.202 2.67-2.67 2.67h-.367Zm160.307.326c0 3.363-1.59 5.564-4.035 5.564h-.958c-.877 0-1.427-.469-1.427-1.223v-9.945h2.385c2.425 0 4.035 2.241 4.035 5.604Zm-103.998.938 1.977-4.769 1.957 4.769h-3.934Zm165.32 0 1.977-4.769 1.956 4.769h-3.933Zm-194.116 0 1.977-4.769 1.956 4.769h-3.933Zm22.153-130.181h95.253l29.624 71.554c1.367 3.19 1.823 5.924 1.823 9.115 0 10.482-9.115 18.23-25.066 18.23v4.557h92.518v-4.557c-14.128 0-23.699-9.571-30.991-27.345l-98.899-241.551h-4.558l-99.81 241.551c-7.292 17.774-16.407 27.345-30.08 27.345v4.557h65.173v-4.557c-16.863 0-26.434-8.204-26.434-19.598 0-2.278.456-5.013 1.823-7.747l29.624-71.554ZM111.575 199.916h-.216c-45.119 0-75.199 30.535-75.199 75.655 0 75.2 137.638 72.01 137.638 148.121 0 24.155-25.978 44.664-57.881 44.664-38.283 0-71.553-24.611-79.757-68.363h-4.557v73.376h4.557c0-9.115 4.102-11.394 11.394-11.394 12.306 0 38.284 15.952 68.364 15.952 51.5 0 84.314-33.27 84.314-84.771 0-74.744-137.638-73.376-137.638-148.12 0-19.142 22.332-35.549 48.765-35.549 32.359 0 56.514 20.053 70.642 58.336h4.558v-63.35h-4.558c0 9.115-4.101 12.762-11.393 12.762-13.191 0-22.296-17.25-59.033-17.319Zm123.916 270.896 44.208-106.647 43.752 106.647h-87.96Zm93.495-378.76c0-29.565-19.855-44.203-40.145-44.203-20.289 0-40.144 14.638-40.144 44.203 0 29.565 19.855 44.203 40.144 44.203 20.29 0 40.145-14.638 40.145-44.203Zm-93.042 0c0-29.565-19.855-44.203-40.145-44.203-20.29 0-40.145 14.638-40.145 44.203 0 29.565 19.855 44.203 40.145 44.203 20.29 0 40.145-14.638 40.145-44.203ZM79.858 134.806h41.304c12.464 0 22.464-10 22.464-22.464 0-11.739-9.276-20.869-22.609-22.464 10-1.594 17.391-10.144 17.391-20.289 0-11.16-9.275-20.29-20.289-20.29H79.858v1.449c6.232 0 10.145 3.334 10.145 8.696v65.217c0 5.362-3.913 8.695-10.145 8.695v1.45ZM392.61 59.443l-28.986 30.29 29.565 34.927c1.739 1.885 2.464 3.624 2.464 5.073 0 2.174-1.159 3.623-4.927 3.623v1.449h29.42v-1.449c-5.073-.725-7.537-3.188-12.174-8.696l-34.493-40.724 23.333-24.493c5.218-5.362 9.131-7.971 12.464-8.695v-1.449h-21.449v1.449c4.638 0 6.812 2.029 6.812 4.637 0 1.16-.58 2.609-2.029 4.058Zm-32.174 0c0-5.362 3.913-8.695 10.145-8.695v-1.449h-31.594v1.449c6.232 0 10.145 3.333 10.145 8.695v65.217c0 5.363-3.913 8.696-10.145 8.696v1.449h31.594v-1.449c-6.232 0-10.145-3.333-10.145-8.696V59.443ZM223.481 92.052c0 27.826-13.478 41.159-27.681 41.159-14.203 0-27.681-13.333-27.681-41.159s13.478-41.159 27.681-41.159c14.203 0 27.681 13.333 27.681 41.159Zm93.043 0c0 27.826-13.479 41.159-27.681 41.159-14.203 0-27.681-13.333-27.681-41.159s13.478-41.159 27.681-41.159c14.202 0 27.681 13.333 27.681 41.159Zm-210.579-2.174v1.45h6.377c11.304 0 20.435 9.13 20.435 20.434 0 11.015-9.131 20-20.435 20h-11.014V52.343h7.246c10.435 0 18.985 8.405 18.985 18.55 0 10.58-8.55 18.986-18.985 18.986l-2.609-.001Z" style="fill:#fffbf9;fill-rule:nonzero"/><text x="23.768" y="49.268" style="font-family:&quot;Verdana&quot;,sans-serif;font-size:11.562px;fill:#7a757d" transform="matrix(.86486 0 0 .86486 183.277 637.356)">© 2025 Astrid Schäfer</text><path d="M1612 3113C846 2877 295 2168 295 1321.33h104c0 971 792 1771 1771 1771s1771-800 1771-1770.83h104c0 847-551 1556-1317 1791.67h946V3184H2389c-119 14-239 16-358 7-27-2-54-4-80-7.49H666v-71" style="fill:#89838d" transform="matrix(.00439 0 0 .00439 182.07 667.085)"/><circle cx="3821" cy="3146" r="175" style="fill:#c83154" transform="matrix(.00439 0 0 .00439 182.07 667.085)"/><circle cx="521" cy="3146" r="175" style="fill:#c83154" transform="matrix(.00439 0 0 .00439 182.07 667.085)"/><path d="M167 1041.67h333v333H167v-333Zm3667 0h333v333h-333v-333ZM2001 2958.34h333v333h-333v-333Z" style="fill:#fff" transform="matrix(.00439 0 0 .00439 182.07 667.085)"/></svg>