<svg xmlns="http://www.w3.org/2000/svg" xml:space="preserve" style="fill-rule:evenodd;clip-rule:evenodd;stroke-linecap:round;stroke-miterlimit:1.4" viewBox="0 0 6667 10667"><path d="M-50-53.059h6767v10773.1H-50z" style="fill:#242424;stroke:#fff;stroke-width:6.63px"/><path d="M0 5115.51c142.961-28.331 290.703-43.183 441.885-43.183 1249.44 0 2263.84 1014.39 2263.84 2263.83s-1014.39 2263.84-2263.84 2263.84c-151.182 0-298.924-14.852-441.885-43.183v-102.055c142.635 29.649 290.454 45.238 441.885 45.238 1194.25 0 2163.84-969.582 2163.84-2163.84 0-1194.25-969.582-2163.83-2163.84-2163.83-151.431 0-299.25 15.589-441.885 45.238V5115.51Zm0 450.888c141.44-35.261 289.492-53.993 441.885-53.993 1006.56 0 1823.76 817.198 1823.76 1823.76 0 1006.56-817.198 1823.76-1823.76 1823.76-152.393 0-300.445-18.732-441.885-53.993v-103.268c141.107 37.364 289.191 57.261 441.885 57.261 951.368 0 1723.76-772.389 1723.76-1723.76 0-951.367-772.389-1723.76-1723.76-1723.76-152.694 0-300.778 19.897-441.885 57.261v-103.268Zm6667-1514.65v444.396c-675.042 260.642-1154.5 916.176-1154.5 1682.81 0 766.634 479.457 1422.17 1154.5 1682.81v444.384c-911.091-277.807-1574.78-1125.61-1574.78-2127.2 0-1001.59 663.69-1849.39 1574.78-2127.2Zm-5602.2-1700.09H3112v70.833H1064.8v-70.833Z" style="fill:#fd321c"/><path d="M2354.91 9517.5c0 43.727-28.051 75.491-67.24 75.491-38.364 0-65.178-30.939-65.178-75.491v-132.005c0-15.264 11.138-24.752 28.876-24.752v-4.125h-89.929v4.125c17.739 0 28.877 9.488 28.877 24.752V9517.5c0 54.04 32.589 86.629 86.216 86.629 54.452 0 87.041-32.589 87.041-86.629v-132.005c0-15.264 11.138-24.752 28.877-24.752v-4.125h-66.416v4.125c17.738 0 28.876 9.488 28.876 24.752V9517.5Zm2874.84 82.504h4.125c0-8.25 3.713-10.313 10.313-10.313 11.138 0 34.652 14.438 61.878 14.438 46.614 0 76.316-30.114 76.316-76.728 0-67.653-124.581-66.416-124.581-134.069 0-17.325 20.214-32.176 44.14-32.176 29.288 0 51.152 18.151 63.94 52.802h4.125v-57.34h-4.125c0 8.251-3.713 11.551-10.313 11.551-11.963 0-20.213-15.676-53.627-15.676-40.84 0-68.066 27.639-68.066 68.478 0 68.066 124.581 65.178 124.581 134.069 0 21.863-23.514 40.426-52.39 40.426-34.652 0-64.766-22.276-72.191-61.877h-4.125v66.415Zm-815.549-231.01c-6.6-8.251-14.438-12.376-24.751-12.376h-40.839v4.125c17.738 0 28.876 9.488 28.876 24.752v185.633c0 15.263-11.138 24.751-28.876 24.751v4.125h66.415v-4.125c-17.738 0-28.876-9.488-28.876-24.751v-185.633l172.845 218.634h4.125v-218.634c0-15.264 11.138-24.752 28.877-24.752v-4.125h-65.178c-1.238 0-1.238 4.125-1.238 4.125 17.739 0 28.877 9.488 28.877 24.752v160.882l-140.257-177.383Zm-1025.52 0c-6.6-8.251-14.438-12.376-24.751-12.376h-40.839v4.125c17.738 0 28.876 9.488 28.876 24.752v185.633c0 15.263-11.138 24.751-28.876 24.751v4.125h66.415v-4.125c-17.738 0-28.876-9.488-28.876-24.751v-185.633l172.845 218.634h4.125v-218.634c0-15.264 11.138-24.752 28.876-24.752v-4.125h-65.177c-1.238 0-1.238 4.125-1.238 4.125 17.738 0 28.876 9.488 28.876 24.752v160.882l-140.256-177.383Zm2145.1 94.466c11.55 20.214 17.326 41.665 17.326 64.766v42.902c0 15.263-11.138 24.751-28.877 24.751v4.125h89.929v-4.125c-17.738 0-28.876-9.488-28.876-24.751v-79.204c0-4.95 1.65-11.138 4.125-15.675l58.99-90.754c9.488-14.851 21.451-24.752 33.827-24.752v-4.125h-58.99v4.125c12.788 0 19.801 4.538 19.801 11.963 0 3.713-1.651 7.838-4.951 12.789l-57.752 89.103-53.628-89.103c-2.887-4.538-4.537-9.076-4.537-12.376 0-7.838 7.425-12.376 21.038-12.376v-4.125h-83.741v4.125c10.725 0 21.038 10.726 29.701 24.752l46.615 77.965Zm-660.029-106.842h-201.309v57.753h4.125c7.425-25.989 11.55-33.414 19.388-39.602 8.663-7.425 21.451-9.488 61.053-9.488v205.847c0 15.263-11.138 24.751-28.876 24.751v4.125h89.929v-4.125c-17.739 0-28.877-9.488-28.877-24.751v-205.847c39.602 0 52.39 2.063 61.053 9.488 7.838 6.188 11.963 13.613 19.389 39.602h4.125v-57.753Zm99.829 149.744h86.216l26.814 64.766c1.238 2.887 1.65 5.362 1.65 8.25 0 9.488-8.25 16.501-22.688 16.501v4.125h83.741v-4.125c-12.788 0-21.451-8.663-28.051-24.751l-89.517-218.635h-4.125l-90.342 218.635c-6.6 16.088-14.85 24.751-27.226 24.751v4.125h58.99v-4.125c-15.263 0-23.926-7.426-23.926-17.738 0-2.063.413-4.538 1.65-7.013l26.814-64.766Zm-872.063 0h86.216l26.814 64.766c1.237 2.887 1.65 5.362 1.65 8.25 0 9.488-8.251 16.501-22.689 16.501v4.125h83.741v-4.125c-12.788 0-21.451-8.663-28.051-24.751l-89.516-218.635h-4.126l-90.341 218.635c-6.6 16.088-14.851 24.751-27.226 24.751v4.125h58.99v-4.125c-15.263 0-23.926-7.426-23.926-17.738 0-2.063.412-4.538 1.65-7.013l26.814-64.766Zm-221.935-38.776v-102.305c72.603 0 86.629 1.238 98.179 9.488 8.25 5.775 11.551 12.376 19.801 39.602h4.125v-57.753H3818.53v4.125c17.738 0 28.876 9.488 28.876 24.752v185.633c0 15.263-11.138 24.751-28.876 24.751v4.125h89.929v-4.125c-17.738 0-28.876-9.488-28.876-24.751v-94.879h50.327c12.788 0 21.038 9.487 24.751 28.876h4.125v-65.178c0-1.238-4.125-1.238-4.125-1.238-3.3 18.976-11.963 28.877-24.751 28.877h-50.327Zm-803.586 38.776h86.217l26.813 64.766c1.238 2.887 1.65 5.362 1.65 8.25 0 9.488-8.25 16.501-22.688 16.501v4.125h83.741v-4.125c-12.788 0-21.451-8.663-28.051-24.751l-89.517-218.635h-4.125l-90.341 218.635c-6.601 16.088-14.851 24.751-27.227 24.751v4.125h58.991v-4.125c-15.264 0-23.926-7.426-23.926-17.738 0-2.063.412-4.538 1.65-7.013l26.813-64.766Zm-314.751 93.642h117.568c35.476 0 63.94-28.464 63.94-63.94 0-33.414-26.401-59.403-64.353-63.941 28.464-4.537 49.502-28.876 49.502-57.752 0-31.764-26.401-57.753-57.752-57.753h-108.905v4.125c17.738 0 28.876 9.488 28.876 24.752v185.633c0 15.263-11.138 24.751-28.876 24.751v4.125Zm-196.359-234.723c31.352 0 56.928 25.164 56.928 55.69 0 32.589-24.339 59.403-72.191 59.403v4.125c34.652 0 53.215 57.34 71.778 89.929 10.726 17.326 19.801 25.576 28.877 25.576h35.476v-4.125c-44.964-6.6-44.139-98.18-96.117-113.03 35.889 0 63.116-29.289 63.116-62.29 0-35.477-28.464-63.941-63.528-63.941h-113.855v4.125c17.738 0 28.876 9.488 28.876 24.752v185.633c0 15.263-11.138 24.751-28.876 24.751v4.125h89.929v-4.125c-17.739 0-28.877-9.488-28.877-24.751v-205.847h28.464Zm270.612 106.842v4.126h18.151c32.176 0 58.165 25.988 58.165 58.165 0 31.351-25.989 56.927-58.165 56.927h-31.351v-226.06h20.626c29.701 0 54.039 23.926 54.039 52.802 0 30.114-24.338 54.04-54.039 54.04h-7.426Zm1269.32 25.576 40.014-96.529 39.602 96.529h-79.616Zm872.063 0 40.015-96.529 39.601 96.529h-79.616Zm-1897.58 0 40.015-96.529 39.601 96.529h-79.616Zm12.109-2183.92h1270.1l395.008 954.095c18.231 42.539 24.308 79.002 24.308 121.541 0 139.772-121.541 243.082-334.237 243.082v60.77h1233.64v-60.77c-188.388 0-316.006-127.618-413.239-364.623l-1318.72-3220.83h-60.77l-1330.87 3220.83c-97.232 237.005-218.773 364.623-401.084 364.623v60.77h869.016v-60.77c-224.85 0-352.468-109.387-352.468-261.313 0-30.385 6.077-66.848 24.308-103.31l395.008-954.095Zm-2670.02-93.522h60.771c0-121.541 54.693-151.926 151.926-151.926 164.08 0 510.471 212.696 911.556 212.696 686.705 0 1124.25-443.624 1124.25-1130.33 0-996.635-1835.27-978.403-1835.27-1975.04 0-255.236 297.775-474.009 650.243-474.009 431.47 0 753.553 267.39 941.941 777.861h60.771V3634.8h-60.771c0 121.541-54.693 170.158-151.926 170.158-176.234 0-297.775-230.928-790.015-230.928-601.627 0-1002.71 407.162-1002.71 1008.79 0 1002.71 1835.27 960.172 1835.27 1975.04 0 322.083-346.392 595.55-771.784 595.55-510.472 0-954.096-328.161-1063.48-911.556h-60.771v978.403Zm2718.64-34.096 589.473-1422.03 583.396 1422.03H3140.03Zm1246.67-5557.08c0-394.221-264.746-589.398-535.29-589.398-270.543 0-535.289 195.177-535.289 589.398 0 394.22 264.746 589.398 535.289 589.398 270.544 0 535.29-195.178 535.29-589.398Zm-1240.63 0c0-394.221-264.746-589.398-535.289-589.398-270.544 0-535.29 195.177-535.29 589.398 0 394.22 264.746 589.398 535.29 589.398 270.543 0 535.289-195.178 535.289-589.398Zm1659.98-434.802c0-71.501 52.177-115.947 135.272-115.947v-19.325h-421.275v19.325c83.096 0 135.272 44.446 135.272 115.947v869.604c0 71.501-52.176 115.947-135.272 115.947v19.324h421.275v-19.324c-83.095 0-135.272-44.446-135.272-115.947v-869.604Zm429.005 0-386.491 403.883 394.221 465.721c23.189 25.122 32.851 48.311 32.851 67.636 0 28.986-15.459 48.311-65.703 48.311v19.324h392.288v-19.324c-67.636-9.662-100.488-42.514-162.326-115.947l-459.924-543.02 311.125-326.584c69.568-71.501 121.745-106.285 166.191-115.947v-19.325h-286.003v19.325c61.838 0 90.825 27.054 90.825 61.838 0 15.46-7.73 34.784-27.054 54.109Zm-4170.23 1004.88h550.749c166.191 0 299.53-133.339 299.53-299.53 0-156.528-123.677-278.273-301.462-299.53 133.339-21.257 231.894-135.272 231.894-270.543 0-148.799-123.677-270.544-270.543-270.544h-510.168v19.325c83.095 0 135.272 44.446 135.272 115.947v869.604c0 71.501-52.177 115.947-135.272 115.947v19.324Zm3155.7-570.073c0 371.031-179.718 548.816-369.099 548.816-189.38 0-369.098-177.785-369.098-548.816 0-371.031 179.718-548.817 369.098-548.817 189.381 0 369.099 177.786 369.099 548.817Zm-1240.63 0c0 371.031-179.718 548.816-369.098 548.816-189.381 0-369.099-177.785-369.099-548.816 0-371.031 179.718-548.817 369.099-548.817 189.38 0 369.098 177.786 369.098 548.817Zm-1567.22-28.987v19.325h85.028c150.731 0 272.475 121.744 272.475 272.475 0 146.867-121.744 266.679-272.475 266.679h-146.867v-1058.98h96.623c139.136 0 253.151 112.082 253.151 247.354 0 141.069-114.015 253.151-253.151 253.151h-34.784Z" style="fill:#fffbf9;fill-rule:nonzero"/></svg>