<svg xmlns="http://www.w3.org/2000/svg" xml:space="preserve" style="fill-rule:evenodd;clip-rule:evenodd;stroke-linecap:round;stroke-miterlimit:1.4" viewBox="0 0 6667 10667"><path d="M-149.835-116.425h6966.67v10899.9h-6966.67z" style="fill:#252525;stroke:#403f41;stroke-width:12.92px"/><path d="M3167.71 8684.38c0-75.412-50.644-112.748-102.396-112.748-51.753 0-102.397 37.336-102.397 112.748 0 75.411 50.644 112.747 102.397 112.747 51.752 0 102.396-37.336 102.396-112.747Zm581.85-97.961c-5.915-7.393-12.939-11.09-22.18-11.09h-36.597v3.697c15.896 0 25.877 8.502 25.877 22.179v166.349c0 13.677-9.981 22.18-25.877 22.18v3.696h59.516v-3.696c-15.896 0-25.876-8.503-25.876-22.18v-166.349l154.888 195.922h3.697v-195.922c0-13.677 9.981-22.179 25.876-22.179v-3.697h-58.406c-1.109 0-1.109 3.697-1.109 3.697 15.895 0 25.876 8.502 25.876 22.179v144.169l-125.685-158.955Zm-344.896 14.786v166.349c0 13.677-9.981 22.18-25.876 22.18v3.696h80.586v-3.696c-15.895 0-25.876-8.503-25.876-22.18v-166.349c0-13.677 9.981-22.179 25.876-22.179v-3.697h-32.9c-11.09 0-21.81 6.284-25.507 14.787l-70.605 165.239-77.999-165.239c-3.697-8.503-14.417-14.787-24.767-14.787h-34.379v3.697c15.895 0 25.876 8.502 25.876 22.549v165.979c0 13.677-9.981 22.18-25.876 22.18v3.696h59.516v-3.696c-15.896 0-25.877-8.503-25.877-22.18v-165.979l90.937 195.552h3.327l83.544-195.922Zm-566.324-18.113c28.095 0 51.014 22.549 51.014 49.904 0 29.204-21.81 53.232-64.691 53.232v3.697c31.052 0 47.686 51.383 64.321 80.586 9.612 15.526 17.744 22.919 25.877 22.919h31.791v-3.696c-40.294-5.915-39.554-87.98-86.132-101.288 32.161 0 56.559-26.246 56.559-55.819 0-31.791-25.507-57.298-56.928-57.298h-102.027v3.697c15.895 0 25.876 8.502 25.876 22.179v166.349c0 13.677-9.981 22.18-25.876 22.18v3.696h80.586v-3.696c-15.895 0-25.876-8.503-25.876-22.18v-184.462h25.506Zm686.465 126.425h77.259l24.028 58.037c1.109 2.587 1.479 4.805 1.479 7.393 0 8.502-7.393 14.787-20.332 14.787v3.696h75.042v-3.696c-11.46 0-19.222-7.763-25.137-22.18l-80.217-195.922h-3.697l-80.956 195.922c-5.914 14.417-13.308 22.18-24.398 22.18v3.696h52.862v-3.696c-13.677 0-21.44-6.654-21.44-15.896 0-1.848.369-4.066 1.478-6.284l24.029-58.037Zm-388.886-25.137c0 70.975-34.379 104.984-70.605 104.984-36.227 0-70.606-34.009-70.606-104.984 0-70.976 34.379-104.985 70.606-104.985 36.226 0 70.605 34.009 70.605 104.985Zm391.843 17.374 35.857-86.501 35.488 86.501h-71.345Z" style="fill:#808285;fill-rule:nonzero"/><path d="M4324.54 4210.31v805.859c0 356.077 157.959 535.454 473.877 535.454 235.6 0 431.041-101.736 543.486-283.791l-24.095-13.386c-101.737 144.573-265.05 230.245-447.105 230.245-238.277 0-358.754-149.927-358.754-452.459v-795.15c0-192.763-123.155-318.595-307.887-318.595-171.345 0-326.627 107.091-388.204 267.727v-856.727c-96.382 56.223-235.6 107.091-348.046 107.091v26.772c107.091 0 160.637 69.61 160.637 214.182v1151.23c0 88.35-72.287 160.636-160.637 160.636v26.773h508.682v-26.773c-88.35 0-160.636-72.286-160.636-160.636v-433.719c0-219.536 141.895-396.236 315.918-396.236 117.8 0 192.764 80.318 192.764 211.505Zm-2184.66 618.45v-937.046c-96.382 56.223-235.6 107.091-348.045 107.091v26.773c88.35 0 160.636 45.513 160.636 214.182v589c0 88.35-72.286 160.636-160.636 160.636v26.773h508.681v-26.773c-88.35 0-160.636-72.286-160.636-160.636Zm-112.445-1365.41c-66.932 0-120.478 53.546-120.478 120.478 0 66.932 53.546 120.477 120.478 120.477 66.931 0 120.477-53.545 120.477-120.477s-53.546-120.478-120.477-120.478ZM1548.45 2074.85c60.329 0 108.855 41.969 108.855 94.429 0 13.115-2.623 24.919-9.18 34.1 11.803 3.934 22.296 6.557 30.165 6.557 31.476 0 52.46-18.361 52.46-47.214 0-62.953-80.002-111.479-182.3-111.479-150.824 0-249.188 107.544-249.188 275.418 0 170.497 98.364 275.418 257.057 275.418 94.429 0 160.005-45.903 198.038-135.086l-11.803-5.246c-43.28 65.575-98.364 99.675-158.693 99.675-107.544 0-180.989-100.987-180.989-249.188 0-137.709 60.329-237.384 145.578-237.384Zm2327.93 175.743h358.043c0-118.036-87.871-199.35-216.399-199.35-150.824 0-249.188 107.544-249.188 275.418 0 170.497 98.364 275.418 257.057 275.418 94.429 0 160.004-45.903 198.038-135.086l-11.803-5.246c-43.28 65.575-98.364 99.675-158.694 99.675-107.544 0-180.988-100.987-180.988-249.188 0-20.984 1.311-41.968 3.934-61.641Zm-1113.47 280.664c0 41.968 34.099 70.822 83.937 70.822 47.215 0 91.806-24.919 111.479-64.264l-10.492-7.87c-14.427 19.673-40.657 32.788-60.33 32.788-20.984 0-32.788-14.426-32.788-40.657v-318.697c0-97.052-66.887-152.136-183.612-152.136-99.675 0-194.104 43.28-194.104 133.774 0 44.592 31.476 69.511 82.626 69.511 14.426 0 28.853-2.623 38.033-6.558-26.23-19.673-39.345-48.526-39.345-78.691 0-47.214 32.788-94.429 98.364-94.429 65.575 0 106.232 47.215 106.232 112.79 0 167.874-312.14 82.626-312.14 284.599 0 72.133 68.199 129.84 154.758 129.84 59.019 0 124.594-39.346 157.382-93.118v22.296Zm-220.334-64.264c0-114.102 142.955-125.906 220.334-199.35v207.219c-35.411 57.706-80.002 91.806-128.528 91.806-55.084 0-91.806-40.657-91.806-99.675Zm1337.74-240.007c20.984-94.429 73.444-152.136 137.709-152.136 69.51 0 119.347 64.264 119.347 152.136h-257.056Z" style="fill:#fff;fill-rule:nonzero"/><path d="M4852.26 2570.89c146.528-149.606 352.196-242.695 577.991-242.695 444.427 0 808.537 361.432 808.537 808.536 0 441.75-353.4 808.537-792.473 808.537h-307.886v-345.369h-26.773c-13.387 77.641-42.837 152.605-91.027 219.537-58.9 80.318-131.187 131.186-216.86 155.282v18.74h147.25v765.7c0 99.06 21.419 168.669 66.932 214.182 42.837 45.514 112.446 69.609 206.15 69.609 131.187 0 222.214-40.159 273.082-120.477l-18.741-16.064c-45.513 45.514-101.736 66.932-168.668 66.932-115.123 0-171.345-82.995-171.345-246.309v-733.573h307.886c465.845 0 840.663-390.881 840.663-856.727 0-473.877-385.527-856.727-856.727-856.727-241.136 0-459.179 100.074-616.455 260.039-8.086-12.354-12.798-27.095-12.798-42.883v-289.845c0-94.429-60.33-156.07-150.824-156.07-83.937 0-160.005 52.46-190.169 131.151V2038.13c-47.215 27.542-115.414 52.46-170.497 52.46v13.115c52.46 0 78.691 34.1 78.691 104.922v288.533c0 43.28-35.411 78.69-78.691 78.69v13.116h249.187v-13.116c-43.28 0-78.69-35.41-78.69-78.69v-212.466c0-107.544 69.51-194.104 154.758-194.104 57.707 0 94.429 39.346 94.429 103.61v302.96c0 43.28-35.411 78.69-78.691 78.69v13.116c-.013.021 133.635 71.899 221.759-18.076ZM1508.05 4828.77V3329.5c-96.381 56.223-235.6 107.091-348.045 107.091v26.772c107.091 0 160.636 69.61 160.636 214.182v1151.23c0 88.35-72.286 160.636-160.636 160.636v26.773h508.682v-26.773c-88.35 0-160.637-72.286-160.637-160.636Zm3852.3-1695.36c-65.284 38.518-90.092 69.201-90.092 110.983 0 58.103 48.963 98.58 119.47 98.58 48.963 0 86.175-19.586 114.248-60.715 65.937 54.186 65.937 54.186 77.688 54.186h68.549v-7.181c-39.171-15.668-80.3-43.741-123.388-84.87 10.446-24.808 12.404-31.989 24.155-89.439 6.529-32.643 24.809-47.005 58.756-47.005v-6.529h-104.455v6.529c26.114 0 35.907 9.14 35.907 33.295 0 21.544-9.793 61.367-23.503 95.968-42.434-35.906-83.564-77.688-114.247-115.553 56.144-29.378 88.787-69.202 88.787-107.72 0-40.476-37.213-69.201-88.787-69.201-54.839 0-94.01 31.989-94.01 76.383 0 29.378 16.974 66.59 50.922 112.289Zm8.487 11.098c34.601 41.782 84.87 93.357 127.305 129.263-24.809 32.642-59.409 51.575-93.357 51.575-47.005 0-79.647-35.906-79.647-88.134 0-37.865 16.974-72.466 45.699-92.704Zm26.114-34.601c-28.073-37.212-43.088-71.812-43.088-100.538 0-32.642 20.238-54.838 48.963-54.838 29.378 0 48.964 23.502 48.964 58.755 0 36.56-20.891 73.119-54.839 96.621ZM713.021 2588.97h13.115c0-26.231 11.804-32.788 32.788-32.788 35.411 0 110.167 45.903 196.727 45.903 148.201 0 242.63-95.741 242.63-243.942 0-215.088-396.077-211.154-396.077-426.242 0-55.083 64.264-102.298 140.332-102.298 93.118 0 162.628 57.707 203.285 167.874h13.115v-182.301h-13.115c0 26.231-11.804 36.723-32.788 36.723-38.034 0-64.264-49.838-170.497-49.838-129.84 0-216.4 87.872-216.4 217.712 0 216.399 396.078 207.219 396.078 426.242 0 69.51-74.757 128.528-166.563 128.528-110.167 0-205.907-70.822-229.515-196.727h-13.115v211.154Zm2615.14-45.903-9.18-7.87c-19.673 19.673-52.461 32.788-82.626 32.788-53.772 0-83.937-43.28-83.937-120.659v-359.355h150.824v-23.607h-150.824v-169.185h-13.115c-6.557 39.345-22.296 76.068-44.591 107.544-28.854 39.345-66.887 65.576-106.233 76.068v9.18h72.133v375.093c0 95.741 40.657 139.021 133.775 139.021 62.952 0 108.855-19.673 133.774-59.018Zm390.831 0-9.18-7.87c-19.673 19.673-52.461 32.788-82.626 32.788-53.772 0-83.937-43.28-83.937-120.659v-359.355h150.824v-23.607h-150.824v-169.185h-13.115c-6.557 39.345-22.295 76.068-44.591 107.544-28.853 39.345-66.887 65.576-106.233 76.068v9.18h72.133v375.093c0 95.741 40.657 139.021 133.775 139.021 62.953 0 108.855-19.673 133.774-59.018Zm-1500.37-348.863v302.96c0 43.28-35.411 78.69-78.691 78.69v13.116h249.187v-13.116c-43.28 0-78.69-35.41-78.69-78.69v-289.845c0-94.429-60.33-156.07-150.825-156.07-83.936 0-160.004 52.46-190.169 131.151v-419.684c-47.214 27.542-115.413 52.46-170.497 52.46v13.116c52.461 0 78.691 34.099 78.691 104.921v563.951c0 43.28-35.411 78.69-78.691 78.69v13.116h249.188v-13.116c-43.28 0-78.691-35.41-78.691-78.69v-212.466c0-107.544 69.51-194.104 154.759-194.104 57.706 0 94.429 39.346 94.429 103.61Z" style="fill:#96989a;fill-rule:nonzero"/><path d="M2956.45 3966.68c123.155 0 222.214 85.672 222.214 192.763 0 26.773-5.355 50.869-18.741 69.609 24.095 8.032 45.514 13.387 61.577 13.387 64.255 0 107.091-37.482 107.091-96.382 0-128.509-163.313-227.568-372.141-227.568-307.886 0-508.681 219.536-508.681 562.227 0 348.046 200.795 562.227 524.745 562.227 192.764 0 326.627-93.704 404.268-275.759l-24.095-10.709c-88.35 133.864-200.796 203.473-323.95 203.473-219.537 0-369.464-206.15-369.464-508.682 0-281.114 123.155-484.586 297.177-484.586ZM4411.48 677.42c144.569 105.707 176.12 308.9 70.413 453.469-105.707 144.57-308.9 176.121-453.469 70.414 118.694 43.838 277.221-5.587 369.509-131.804 92.289-126.217 91.314-292.268 13.547-392.079Z" style="fill:#ff8ac6;fill-rule:nonzero"/></svg>