<svg xmlns="http://www.w3.org/2000/svg" xml:space="preserve" style="fill-rule:evenodd;clip-rule:evenodd;stroke-linejoin:round;stroke-miterlimit:2" viewBox="0 0 500 700"><path d="M0 0h1600v2560H0z" style="fill:#252525" transform="matrix(.3125 0 0 .27344 0 0)"/><text x="23.768" y="49.268" style="font-family:&quot;Verdana&quot;,sans-serif;font-size:11.562px;fill:#808285" transform="matrix(.86486 0 0 .86486 183.277 637.356)">© 2025 Astrid Schäfer</text><path d="M1612 3113C846 2877 295 2168 295 1321.33h104c0 971 792 1771 1771 1771s1771-800 1771-1770.83h104c0 847-551 1556-1317 1791.67h946V3184H2389c-119 14-239 16-358 7-27-2-54-4-80-7.49H666v-71" style="fill:#89838d" transform="matrix(.00439 0 0 .00439 182.07 667.085)"/><circle cx="3821" cy="3146" r="175" style="fill:#c83154" transform="matrix(.00439 0 0 .00439 182.07 667.085)"/><circle cx="521" cy="3146" r="175" style="fill:#c83154" transform="matrix(.00439 0 0 .00439 182.07 667.085)"/><path d="M167 1041.67h333v333H167v-333Zm3667 0h333v333h-333v-333ZM2001 2958.34h333v333h-333v-333Z" style="fill:#fff" transform="matrix(.00439 0 0 .00439 182.07 667.085)"/><path d="M209.775 274.192c8.362 0 15.088 5.817 15.088 13.089 0 1.818-.364 3.454-1.273 4.726 1.636.546 3.091.909 4.181.909 4.363 0 7.272-2.545 7.272-6.544 0-8.726-11.089-15.452-25.268-15.452-20.906 0-34.54 14.907-34.54 38.175 0 23.632 13.634 38.175 35.63 38.175 13.089 0 22.178-6.362 27.45-18.724l-1.636-.727c-5.999 9.09-13.634 13.816-21.996 13.816-14.907 0-25.087-13.998-25.087-34.539 0-19.088 8.363-32.904 20.179-32.904ZM314.517 55.343c9.675 7.074 11.787 20.673 4.712 30.349-7.075 9.675-20.673 11.787-30.349 4.712 7.944 2.934 18.553-.374 24.73-8.821 6.176-8.447 6.111-19.56.907-26.24Z" style="fill:#ff8ac6;fill-rule:nonzero"/><path d="M302.667 290.735v54.718c0 24.177 10.726 36.357 32.177 36.357 15.997 0 29.267-6.908 36.902-19.27l-1.636-.909c-6.908 9.817-17.997 15.634-30.358 15.634-16.179 0-24.359-10.18-24.359-30.722v-53.99c0-13.089-8.363-21.633-20.906-21.633-11.634 0-22.178 7.272-26.359 18.179v-58.172c-6.544 3.818-15.997 7.272-23.632 7.272v1.817c7.271 0 10.907 4.727 10.907 14.543v78.168c0 5.999-4.908 10.908-10.907 10.908v1.818h34.539v-1.818c-5.999 0-10.907-4.909-10.907-10.908v-29.449c0-14.906 9.635-26.904 21.451-26.904 7.998 0 13.088 5.453 13.088 14.361ZM154.33 332.727v-63.625c-6.545 3.818-15.997 7.272-23.632 7.272v1.818c5.999 0 10.907 3.09 10.907 14.542v39.993c0 5.999-4.908 10.908-10.907 10.908v1.818h34.539v-1.818c-5.999 0-10.907-4.909-10.907-10.908Zm-7.635-92.711c-4.545 0-8.181 3.636-8.181 8.181 0 4.544 3.636 8.18 8.181 8.18 4.544 0 8.18-3.636 8.18-8.18 0-4.545-3.636-8.181-8.18-8.181Zm-27.78-93.286c3.96 0 7.144 2.755 7.144 6.198 0 .861-.172 1.635-.602 2.238.775.258 1.463.43 1.98.43 2.066 0 3.443-1.205 3.443-3.098 0-4.132-5.251-7.317-11.965-7.317-9.899 0-16.355 7.058-16.355 18.076 0 11.19 6.456 18.077 16.871 18.077 6.198 0 10.502-3.013 12.998-8.866l-.775-.345c-2.84 4.304-6.455 6.542-10.415 6.542-7.058 0-11.879-6.628-11.879-16.355 0-9.038 3.96-15.58 9.555-15.58Zm79.708 29.955c0 2.755 2.238 4.649 5.509 4.649 3.099 0 6.026-1.636 7.317-4.218l-.689-.517c-.947 1.292-2.668 2.152-3.959 2.152-1.378 0-2.152-.947-2.152-2.668v-20.917c0-6.37-4.39-9.985-12.051-9.985-6.542 0-12.74 2.84-12.74 8.78 0 2.926 2.066 4.562 5.423 4.562.947 0 1.894-.172 2.496-.43-1.721-1.292-2.582-3.185-2.582-5.165 0-3.099 2.152-6.198 6.456-6.198s6.972 3.099 6.972 7.403c0 11.018-20.486 5.423-20.486 18.679 0 4.734 4.476 8.522 10.157 8.522 3.873 0 8.177-2.583 10.329-6.112v1.463Zm73.081-18.42h23.499c0-7.747-5.767-13.084-14.203-13.084-9.899 0-16.355 7.058-16.355 18.076 0 11.19 6.456 18.077 16.872 18.077 6.197 0 10.501-3.013 12.997-8.866l-.774-.345c-2.841 4.304-6.456 6.542-10.416 6.542-7.058 0-11.879-6.628-11.879-16.355 0-1.377.086-2.754.259-4.045Zm-87.542 14.203c0-7.489 9.383-8.264 14.461-13.084v13.6c-2.324 3.788-5.25 6.026-8.435 6.026-3.616 0-6.026-2.669-6.026-6.542Zm87.8-15.753c1.377-6.197 4.82-9.985 9.038-9.985 4.562 0 7.833 4.218 7.833 9.985h-16.871Z" style="fill:#fff;fill-rule:nonzero"/><path d="M334.699 178.746c-1.39-.928-2.31-2.511-2.31-4.299v-19.023c0-6.197-3.96-10.243-9.899-10.243-5.509 0-10.502 3.443-12.482 8.608v-9.469c-3.098 1.808-7.575 3.443-11.19 3.443v.861c3.443 0 5.165 2.238 5.165 6.886v18.937c0 2.841-2.324 5.165-5.165 5.165v.861h16.355v-.861c-2.841 0-5.165-2.324-5.165-5.165v-13.944c0-7.059 4.563-12.74 10.158-12.74 3.787 0 6.197 2.583 6.197 6.8v19.884c0 2.841-2.324 5.165-5.164 5.165v.861h16.354v-.1l.017.017c9.999-10.725 24.36-17.451 40.175-17.451 30.177 0 54.9 24.541 54.9 54.899 0 29.995-23.996 54.9-53.809 54.9h-20.905v-23.45h-1.818c-.909 5.271-2.909 10.361-6.181 14.906-3.999 5.454-8.908 8.908-14.725 10.544v1.272h9.998v51.991c0 6.726 1.455 11.453 4.545 14.543 2.909 3.09 7.635 4.726 13.998 4.726 8.907 0 15.088-2.726 18.542-8.18l-1.273-1.091c-3.09 3.091-6.908 4.545-11.452 4.545-7.817 0-11.634-5.635-11.634-16.724v-49.81h20.905c31.631 0 57.081-26.541 57.081-58.172 0-32.176-26.177-58.171-58.172-58.171-16.436 0-32.304 8.113-43.046 19.079ZM111.428 332.727v-101.8c-6.544 3.818-15.997 7.272-23.632 7.272v1.817c7.271 0 10.907 4.727 10.907 14.543v78.168c0 5.999-4.908 10.908-10.907 10.908v1.818h34.539v-1.818c-5.999 0-10.907-4.909-10.907-10.908Zm262.554-113.304c-4.7 2.773-6.485 4.982-6.485 7.989 0 4.183 3.524 7.097 8.599 7.097 3.525 0 6.204-1.41 8.224-4.371 4.747 3.901 4.747 3.901 5.593 3.901h4.934v-.517c-2.82-1.128-5.78-3.149-8.882-6.11.752-1.785.893-2.302 1.739-6.438.47-2.349 1.786-3.383 4.229-3.383v-.47h-7.519v.47c1.88 0 2.585.658 2.585 2.396 0 1.551-.705 4.418-1.692 6.908-3.054-2.584-6.015-5.592-8.224-8.317 4.042-2.115 6.392-4.982 6.392-7.754 0-2.914-2.679-4.982-6.392-4.982-3.947 0-6.767 2.303-6.767 5.498 0 2.115 1.222 4.794 3.666 8.083Zm.611.799c2.49 3.008 6.109 6.72 9.164 9.305-1.786 2.35-4.277 3.713-6.721 3.713-3.383 0-5.733-2.585-5.733-6.345 0-2.725 1.222-5.216 3.29-6.673Zm1.879-2.49c-2.02-2.679-3.101-5.17-3.101-7.237 0-2.35 1.457-3.948 3.524-3.948 2.115 0 3.525 1.692 3.525 4.23 0 2.631-1.504 5.263-3.948 6.955ZM64.083 180.473h.861c0-1.722.775-2.152 2.152-2.152 2.324 0 7.23 3.013 12.912 3.013 9.726 0 15.924-6.284 15.924-16.011 0-14.117-25.996-13.858-25.996-27.975 0-3.616 4.218-6.714 9.211-6.714 6.111 0 10.674 3.787 13.342 11.018h.861v-11.965h-.861c0 1.721-.775 2.41-2.152 2.41-2.496 0-4.218-3.271-11.19-3.271-8.522 0-14.203 5.767-14.203 14.289 0 14.203 25.996 13.6 25.996 27.975 0 4.563-4.907 8.436-10.932 8.436-7.231 0-13.515-4.648-15.064-12.912h-.861v13.859Zm171.64-3.013-.603-.516c-1.291 1.291-3.443 2.152-5.423 2.152-3.529 0-5.509-2.841-5.509-7.92v-23.585h9.899v-1.549h-9.899v-11.104h-.86c-.431 2.582-1.464 4.992-2.927 7.058-1.894 2.582-4.39 4.304-6.972 4.993v.602h4.734v24.618c0 6.284 2.668 9.125 8.78 9.125 4.132 0 7.144-1.291 8.78-3.874Zm25.651 0-.602-.516c-1.291 1.291-3.443 2.152-5.423 2.152-3.529 0-5.509-2.841-5.509-7.92v-23.585h9.899v-1.549h-9.899v-11.104h-.861c-.43 2.582-1.463 4.992-2.927 7.058-1.893 2.582-4.39 4.304-6.972 4.993v.602h4.734v24.618c0 6.284 2.669 9.125 8.78 9.125 4.132 0 7.145-1.291 8.78-3.874Zm-98.473-22.897v19.884c0 2.841-2.324 5.165-5.165 5.165v.861h16.355v-.861c-2.841 0-5.165-2.324-5.165-5.165v-19.023c0-6.197-3.959-10.243-9.899-10.243-5.509 0-10.501 3.443-12.481 8.608v-27.545c-3.099 1.807-7.575 3.443-11.19 3.443v.861c3.443 0 5.165 2.238 5.165 6.886v37.013c0 2.841-2.325 5.165-5.165 5.165v.861h16.355v-.861c-2.841 0-5.165-2.324-5.165-5.165v-13.944c0-7.059 4.562-12.74 10.157-12.74 3.788 0 6.198 2.583 6.198 6.8Z" style="fill:#96989a;fill-rule:nonzero"/><path d="m343.576 612.299-2.346-5.704c-.093-.23-.138-.437-.138-.621 0-.483.322-.759.919-.759v-.23h-4.024v.23c.598 0 1.173.598 1.495 1.38l2.622 6.371c.184.46.299 1.012.299 1.564 0 1.679-1.013 2.852-2.094 2.852-.666 0-1.173-.345-1.472-.943-.206.414-.275.667-.275.966 0 .851.506 1.38 1.288 1.38 2.001 0 3.564-4.899 3.956-5.934l2.46-6.256c.346-.897.783-1.38 1.38-1.38v-.23h-2.76v.23c.576 0 1.059.276 1.059.851 0 .161-.046.322-.116.529l-2.253 5.704Zm-31.074-5.244v-2.53c-.828.483-2.023.92-2.989.92v.23c.92 0 1.38.598 1.38 1.84v9.43c0 .759-.622 1.38-1.38 1.38v.23h4.37v-.23c-.759 0-1.381-.621-1.381-1.38v-3.45c.691.598 1.61.92 2.623.92 2.576 0 4.278-2.024 4.278-5.06 0-2.76-1.426-4.6-3.566-4.6-1.471 0-2.806.92-3.335 2.3Zm-11.591 7.13h.229c.116-.345.254-.46.438-.46.483 0 1.081.69 2.322.69 1.634 0 2.99-1.334 2.99-2.944 0-2.875-4.783-2.806-4.783-4.945 0-.736.713-1.357 1.541-1.357.988 0 1.886.851 2.438 2.346h.23v-2.53h-.23c-.115.345-.23.483-.392.483-.436 0-.896-.713-2.023-.713-1.473 0-2.691 1.173-2.691 2.622 0 2.875 4.807 2.806 4.807 4.991 0 .874-.851 1.633-1.863 1.633-1.242 0-2.255-1.035-2.784-2.806h-.229v2.99Zm33.143-1.012c0 .736.597 1.242 1.471 1.242.829 0 1.611-.437 1.956-1.127l-.184-.138c-.253.345-.714.575-1.059.575-.367 0-.574-.253-.574-.713v-5.589c0-1.702-1.173-2.668-3.221-2.668-1.747 0-3.404.759-3.404 2.346 0 .782.553 1.219 1.45 1.219.252 0 .506-.046.666-.115-.459-.345-.689-.851-.689-1.38 0-.828.575-1.656 1.725-1.656 1.15 0 1.863.828 1.863 1.978 0 2.944-5.474 1.449-5.474 4.991 0 1.265 1.195 2.277 2.714 2.277 1.034 0 2.185-.69 2.76-1.633v.391ZM165.096 607.4c0-4.692-3.151-7.015-6.371-7.015-3.22 0-6.371 2.323-6.371 7.015s3.151 7.015 6.371 7.015c3.22 0 6.371-2.323 6.371-7.015Zm97.727.851h6.279c0-2.07-1.541-3.496-3.795-3.496-2.645 0-4.37 1.886-4.37 4.83 0 2.99 1.725 4.83 4.508 4.83 1.656 0 2.806-.805 3.473-2.369l-.207-.092c-.759 1.15-1.725 1.748-2.783 1.748-1.886 0-3.174-1.771-3.174-4.37 0-.368.023-.736.069-1.081Zm-22.931 0h6.279c0-2.07-1.541-3.496-3.795-3.496-2.645 0-4.37 1.886-4.37 4.83 0 2.99 1.725 4.83 4.508 4.83 1.656 0 2.806-.805 3.473-2.369l-.207-.092c-.759 1.15-1.725 1.748-2.783 1.748-1.886 0-3.174-1.771-3.174-4.37 0-.368.023-.736.069-1.081Zm-48.093 4.922c0 .736.598 1.242 1.472 1.242.828 0 1.61-.437 1.955-1.127l-.184-.138c-.253.345-.713.575-1.058.575-.368 0-.575-.253-.575-.713v-5.589c0-1.702-1.173-2.668-3.22-2.668-1.748 0-3.404.759-3.404 2.346 0 .782.552 1.219 1.449 1.219.253 0 .506-.046.667-.115-.46-.345-.69-.851-.69-1.38 0-.828.575-1.656 1.725-1.656 1.15 0 1.863.828 1.863 1.978 0 2.944-5.474 1.449-5.474 4.991 0 1.265 1.196 2.277 2.714 2.277 1.035 0 2.185-.69 2.76-1.633v.391Zm34.086-11.868c-.368-.46-.805-.69-1.38-.69h-2.277v.23c.989 0 1.61.529 1.61 1.38v10.35c0 .851-.621 1.38-1.61 1.38v.23h3.703v-.23c-.989 0-1.61-.529-1.61-1.38v-10.35l9.637 12.19h.23v-12.19c0-.851.621-1.38 1.609-1.38v-.23h-3.633c-.069 0-.069.23-.069.23.988 0 1.61.529 1.61 1.38v8.97l-7.82-9.89Zm-23.023 12.075-.161-.138c-.345.345-.92.575-1.449.575-.943 0-1.472-.759-1.472-2.116v-6.302h2.645v-.414h-2.645v-2.967h-.23c-.115.69-.391 1.334-.782 1.886-.506.69-1.173 1.15-1.863 1.334v.161h1.265v6.578c0 1.679.713 2.438 2.346 2.438 1.104 0 1.909-.345 2.346-1.035Zm7.429-.207c0 .736.598 1.242 1.472 1.242.828 0 1.61-.437 1.955-1.127l-.184-.138c-.253.345-.713.575-1.058.575-.368 0-.575-.253-.575-.713v-5.589c0-1.702-1.173-2.668-3.22-2.668-1.748 0-3.404.759-3.404 2.346 0 .782.552 1.219 1.449 1.219.253 0 .506-.046.667-.115-.46-.345-.69-.851-.69-1.38 0-.828.575-1.656 1.725-1.656 1.15 0 1.863.828 1.863 1.978 0 2.944-5.474 1.449-5.474 4.991 0 1.265 1.196 2.277 2.714 2.277 1.035 0 2.185-.69 2.76-1.633v.391Zm45.08-6.578v3.726c0 1.886-1.219 3.404-2.714 3.404-1.012 0-1.656-.69-1.656-1.817v-6.923h-2.99v.23c.759 0 1.38.621 1.38 1.38v5.083c0 1.656 1.035 2.737 2.622 2.737 1.472 0 2.829-.92 3.358-2.3v.69c0 .483.092 1.127.23 1.61l2.76-.391v-.23c-1.035-.184-1.38-.69-1.38-2.139v-6.67h-2.99v.23c.759 0 1.38.621 1.38 1.38Zm-86.733-3.91v11.73h.23c.23-.483.621-.828 1.196-1.081.713.69 1.702 1.081 2.783 1.081 2.576 0 4.301-2.001 4.301-5.014 0-2.829-1.403-4.646-3.565-4.646-1.472 0-2.806.92-3.335 2.3v-7.36c-.828.483-2.024.92-2.99.92v.23c.92 0 1.38.598 1.38 1.84Zm128.041 9.89v-8.05c-.828.483-2.024.92-2.991.92v.23c.76 0 1.38.391 1.38 1.84v5.06c0 .759-.62 1.38-1.38 1.38v.23h4.371v-.23c-.76 0-1.38-.621-1.38-1.38Zm-18.423-11.96v.23c.989 0 1.61.529 1.61 1.38v10.35c0 .851-.621 1.38-1.61 1.38v.23h6.072c3.887 0 6.601-2.783 6.601-6.785 0-4.002-2.714-6.785-6.601-6.785h-6.072Zm-95.657 11.96v-12.88c-.828.483-2.024.92-2.99.92v.23c.92 0 1.38.598 1.38 1.84v9.89c0 .759-.621 1.38-1.38 1.38v.23h4.37v-.23c-.759 0-1.38-.621-1.38-1.38Zm142.254 0v-12.88c-.828.483-2.023.92-2.989.92v.23c.92 0 1.38.598 1.38 1.84v9.89c0 .759-.621 1.38-1.38 1.38v.23h4.37v-.23c-.759 0-1.381-.621-1.381-1.38ZM163.118 607.4c0 4.416-2.139 6.532-4.393 6.532s-4.393-2.116-4.393-6.532 2.139-6.532 4.393-6.532 4.393 2.116 4.393 6.532Zm149.384 5.589v-4.14c0-1.886 1.22-3.404 2.715-3.404 1.518 0 2.461 1.541 2.461 4.071 0 2.737-1.105 4.37-2.944 4.37-.851 0-1.703-.345-2.232-.897Zm-142.254 0v-4.14c0-1.886 1.219-3.404 2.714-3.404 1.518 0 2.461 1.541 2.461 4.071 0 2.737-1.104 4.37-2.944 4.37-.851 0-1.702-.345-2.231-.897Zm159.942-.943c0-2.001 2.507-2.208 3.864-3.496v3.634c-.621 1.012-1.404 1.61-2.255 1.61-.966 0-1.609-.713-1.609-1.748Zm-123.763 0c0-2.001 2.507-2.208 3.864-3.496v3.634c-.621 1.012-1.403 1.61-2.254 1.61-.966 0-1.61-.713-1.61-1.748Zm-18.492 0c0-2.001 2.507-2.208 3.864-3.496v3.634c-.621 1.012-1.403 1.61-2.254 1.61-.966 0-1.61-.713-1.61-1.748Zm100.97-4.623c0 3.795-1.794 6.279-4.554 6.279h-1.081c-.99 0-1.61-.529-1.61-1.38v-11.224h2.691c2.737 0 4.554 2.53 4.554 6.325Zm-48.944.414c.368-1.656 1.288-2.668 2.415-2.668 1.219 0 2.093 1.127 2.093 2.668h-4.508Zm22.93 0c.369-1.656 1.288-2.668 2.416-2.668 1.218 0 2.093 1.127 2.093 2.668h-4.509Zm32.822-6.992c-.575 0-1.035.46-1.035 1.035s.46 1.035 1.035 1.035 1.034-.46 1.034-1.035-.459-1.035-1.034-1.035ZM435 574.847H65v1h370v-1Z" style="fill:#808285;fill-rule:nonzero"/></svg>