<svg xmlns="http://www.w3.org/2000/svg" xml:space="preserve" style="fill-rule:evenodd;clip-rule:evenodd;stroke-linejoin:round;stroke-miterlimit:2" viewBox="0 0 6667 10667"><path d="M-217.293-217.293h7101.25v11101.3h-7101.25z" style="fill:#f2d4ae"/><path d="M6542.95 305.988c0-103.485-84.02-187.5-187.5-187.5H311.22c-103.484 0-187.5 84.015-187.5 187.5V10360.7c0 103.5 84.016 187.5 187.5 187.5h6044.23c103.48 0 187.5-84 187.5-187.5V305.988Z" style="fill:#283a3c"/><path d="M677.78 8217.11c.009-7.9 1.709-15.74 5.051-23.54L2526.62-400.681c441.21 145.941 917.52 151.459 1433.07 0L5982.53 8190.14c4.22 8.92 6.36 17.93 6.36 27.02 0 212.88-1177.54 385.46-2630.08 385.46-1452.56 0-2681.026-172.58-2681.026-385.46h-.01l.01-.05h-.004Z" style="fill:#478c94;fill-rule:nonzero"/><path d="M5396.85 8147.36c0 124.66-923.79 225.73-2063.37 225.73-1139.56 0-2063.33-101.07-2063.33-225.73 0-124.67 923.78-225.75 2063.33-225.75 1139.57 0 2063.37 101.08 2063.37 225.75" style="fill:#40757b;fill-rule:nonzero"/><path d="M3055.4 5400.46c55.07 0 99.77 44.71 99.77 99.77 0 55.07-44.7 99.77-99.77 99.77-55.07 0-99.77-44.7-99.77-99.77 0-55.06 44.7-99.77 99.77-99.77Zm556.21 0c55.06 0 99.77 44.71 99.77 99.77 0 55.07-44.71 99.77-99.77 99.77-55.07 0-99.77-44.7-99.77-99.77 0-55.06 44.7-99.77 99.77-99.77Z" style="fill:#650707"/><path d="M3424.32 7601.75c29.72-33.02 61.09-47.88 90.82-47.88 49.53 0 87.51 41.28 95.77 104.02 23.11-13.21 36.32-46.23 36.32-79.26 0-52.83-34.67-85.86-89.16-85.86-51.19 0-107.33 33.03-150.26 87.51-41.28-56.13-110.63-87.51-194.84-87.51-138.7 0-239.42 92.47-239.42 222.91 0 80.91 41.28 150.26 108.97 189.89-56.14 36.33-79.25 90.82-79.25 148.61 0 62.74 46.23 110.63 128.79 132.09-104.03 18.16-178.33 77.61-178.33 150.26 0 95.77 118.89 163.47 285.66 163.47 194.84 0 313.72-97.42 313.72-255.94 0-259.23-500.31-94.11-500.31-241.07 0-34.67 28.07-69.35 57.8-84.21 33.02 13.21 64.39 19.81 102.37 19.81 140.35 0 239.42-90.81 239.42-222.91 0-42.93-9.91-82.56-28.07-113.93Zm-260.89 584.52h4.96c247.68 0 331.89 59.45 331.89 122.19 0 87.51-113.94 161.82-254.29 161.82-115.58 0-189.88-56.14-189.88-140.36 0-59.44 44.58-118.88 107.32-143.65Zm1770.08-74.3-11.56-9.91c-24.77 24.77-66.05 41.28-104.02 41.28-67.7 0-105.68-54.49-105.68-151.91v-452.42h189.89v-29.73h-189.89v-213h-16.51c-8.26 49.54-28.07 95.77-56.14 135.4-36.33 49.53-84.21 82.56-133.75 95.77v11.56h90.82v472.24c0 120.53 51.18 175.02 168.42 175.02 79.25 0 137.05-24.77 168.42-74.3Zm-2671.63-439.22v381.43c0 54.49-44.58 99.07-99.07 99.07v16.51h313.73v-16.51c-54.49 0-99.07-44.58-99.07-99.07v-364.92c0-118.88-75.96-196.49-189.89-196.49-105.68 0-201.45 66.05-239.42 165.12v-181.63c-59.45 34.68-145.31 66.05-214.66 66.05v16.51c66.05 0 99.07 42.93 99.07 132.09v363.27c0 54.49-44.58 99.07-99.07 99.07v16.51h313.73v-16.51c-54.49 0-99.07-44.58-99.07-99.07v-267.5c0-135.39 87.51-244.37 194.84-244.37 72.65 0 118.88 49.53 118.88 130.44Zm497.01 381.43v-577.92c-59.44 34.68-145.3 66.05-214.65 66.05v16.51c54.49 0 99.07 28.07 99.07 132.09v363.27c0 54.49-44.58 99.07-99.07 99.07v16.51h313.72v-16.51c-54.49 0-99.07-44.58-99.07-99.07Zm1448.09-381.43v381.43c0 54.49-44.58 99.07-99.07 99.07v16.51h313.73v-16.51c-54.49 0-99.07-44.58-99.07-99.07v-364.92c0-118.88-75.96-196.49-189.89-196.49-105.67 0-201.44 66.05-239.42 165.12v-528.38c-59.44 34.68-145.31 66.05-214.66 66.05v16.51c66.05 0 99.08 42.93 99.08 132.09v710.02c0 54.49-44.59 99.07-99.08 99.07v16.51h313.73v-16.51c-54.49 0-99.07-44.58-99.07-99.07v-267.5c0-135.39 87.51-244.37 194.84-244.37 72.65 0 118.88 49.53 118.88 130.44Zm-994.01-150.26c80.91 0 130.44 74.31 130.44 193.19 0 118.89-49.53 191.54-130.44 191.54s-130.45-74.3-130.45-191.54c0-118.88 51.19-193.19 130.45-193.19Zm-523.43-310.42c-41.28 0-74.3 33.02-74.3 74.3 0 41.28 33.02 74.31 74.3 74.31 41.28 0 74.31-33.03 74.31-74.31s-33.03-74.3-74.31-74.3Z" style="fill-rule:nonzero"/></svg>