<svg xmlns="http://www.w3.org/2000/svg" xml:space="preserve" style="fill-rule:evenodd;clip-rule:evenodd;stroke-linejoin:round;stroke-miterlimit:2" viewBox="0 0 6667 10667"><path d="M-217.293-217.293h7101.25v11101.3h-7101.25z" style="fill:#f2d4ae"/><path d="M6542.95 305.988c0-103.485-84.016-187.5-187.5-187.5H311.22c-103.484 0-187.5 84.015-187.5 187.5v10054.7c0 103.484 84.016 187.5 187.5 187.5h6044.23c103.484 0 187.5-84.016 187.5-187.5V305.988Z" style="fill:#283a3c"/><path d="M677.78 8217.11c.009-7.898 1.709-15.739 5.051-23.541l1843.79-8594.25c441.204 145.941 917.514 151.459 1433.07 0l2022.84 8590.82c4.216 8.916 6.363 17.932 6.363 27.022 0 212.881-1177.54 385.458-2630.08 385.458-1452.56 0-2681.03-172.577-2681.03-385.458h-.01l.01-.047Z" style="fill:#478c94;fill-rule:nonzero"/><path d="M5396.85 8147.36c0 124.658-923.794 225.733-2063.37 225.733-1139.56 0-2063.33-101.075-2063.33-225.733 0-124.674 923.776-225.749 2063.33-225.749 1139.57 0 2063.37 101.075 2063.37 225.749" style="fill:#40757b;fill-rule:nonzero"/><path d="M3055.4 5400.46c55.065 0 99.771 44.707 99.771 99.772 0 55.066-44.706 99.772-99.772 99.772s-99.772-44.706-99.772-99.772c0-55.065 44.706-99.772 99.772-99.772Zm556.209 0c55.065 0 99.772 44.707 99.772 99.772 0 55.066-44.707 99.772-99.772 99.772-55.066 0-99.772-44.706-99.772-99.772 0-55.065 44.706-99.772 99.772-99.772Z" style="fill:#650707"/><text x="1688.92" y="8169.76" style="font-family:&quot;OblataNeue-Regular&quot;,&quot;Oblata Neue&quot;;font-size:1651.19px">night</text></svg>