<svg xmlns="http://www.w3.org/2000/svg" xml:space="preserve" style="fill-rule:evenodd;clip-rule:evenodd;stroke-linejoin:round;stroke-miterlimit:2" viewBox="0 0 500 700"><path d="M-217.293-217.293h7101.25v11101.3h-7101.25z" style="fill:#f2d4ae" transform="matrix(.07041 0 0 .06306 15.2996 13.7016)"/><path d="M6542.95 305.988c0-103.485-84.02-187.5-187.5-187.5H311.22c-103.484 0-187.5 84.015-187.5 187.5V10360.7c0 103.5 84.016 187.5 187.5 187.5h6044.23c103.48 0 187.5-84 187.5-187.5V305.988Z" style="fill:#283a3c" transform="matrix(.07185 0 0 .06388 10.4936 9.30256)"/><text x="23.768" y="49.268" style="font-family:&quot;Verdana&quot;,sans-serif;font-size:11.562px" transform="matrix(.86486 0 0 .86486 183.277 652.231)">© 2025 Astrid Schäfer</text><path d="M1612 3113C846 2877 295 2168 295 1321.33h104c0 971 792 1771 1771 1771s1771-800 1771-1770.83h104c0 847-551 1556-1317 1791.67h946V3184H2389c-119 14-239 16-358 7-27-2-54-4-80-7.49H666v-71" style="fill:#89838d" transform="matrix(.00439 0 0 .00439 182.07 681.961)"/><circle cx="3821" cy="3146" r="175" style="fill:#c83154" transform="matrix(.00439 0 0 .00439 182.07 681.961)"/><circle cx="521" cy="3146" r="175" style="fill:#c83154" transform="matrix(.00439 0 0 .00439 182.07 681.961)"/><path d="M167 1041.67h333v333H167v-333Zm3667 0h333v333h-333v-333ZM2001 2958.34h333v333h-333v-333Z" style="fill:#fff" transform="matrix(.00439 0 0 .00439 182.07 681.961)"/><path d="M110.721 611.283c0-.414.089-.825.265-1.235l111.703-450.754c23.141 7.654 28.123 7.944 55.162 0l111.095 450.575c.221.467.334.94.334 1.417 0 11.165-61.76 20.216-137.944 20.216s-140.615-9.051-140.615-20.216v-.003ZM382.518 88.567l-3.736-9.083c-.146-.366-.219-.696-.219-.989 0-.769.512-1.208 1.465-1.208v-.366h-6.409v.366c.952 0 1.867.952 2.38 2.197l4.175 10.145c.293.732.476 1.611.476 2.49 0 2.673-1.611 4.541-3.333 4.541-1.062 0-1.867-.549-2.343-1.501-.33.659-.44 1.062-.44 1.538 0 1.355.806 2.197 2.051 2.197 3.186 0 5.676-7.8 6.299-9.448l3.919-9.962c.549-1.428 1.245-2.197 2.197-2.197v-.366h-4.395v.366c.916 0 1.685.439 1.685 1.355 0 .256-.073.513-.183.842l-3.589 9.083Zm-43.984-8.35v-4.029c-1.318.769-3.222 1.465-4.76 1.465v.366c1.464 0 2.197.953 2.197 2.93v15.015c0 1.209-.989 2.198-2.197 2.198v.366h6.958v-.366c-1.209 0-2.198-.989-2.198-2.198v-5.493c1.099.952 2.564 1.465 4.175 1.465 4.102 0 6.812-3.223 6.812-8.057 0-4.395-2.27-7.325-5.676-7.325-2.344 0-4.468 1.465-5.311 3.663Zm-123.27-9.156c-.586-.732-1.282-1.099-2.198-1.099h-3.625v.367c1.575 0 2.563.842 2.563 2.197v16.48c0 1.355-.988 2.197-2.563 2.197v.367h5.896v-.367c-1.575 0-2.564-.842-2.564-2.197v-16.48l15.345 19.41h.366v-19.41c0-1.355.989-2.197 2.564-2.197v-.367h-5.786c-.11 0-.11.367-.11.367 1.575 0 2.563.842 2.563 2.197v14.283l-12.451-15.748Zm-46.95 18.897c0 1.172.952 1.978 2.344 1.978 1.318 0 2.563-.696 3.113-1.795l-.293-.219c-.403.549-1.136.915-1.685.915-.586 0-.916-.403-.916-1.135v-8.899c0-2.71-1.867-4.249-5.127-4.249-2.783 0-5.42 1.209-5.42 3.736 0 1.245.879 1.941 2.307 1.941.403 0 .806-.073 1.063-.183-.733-.55-1.099-1.355-1.099-2.198 0-1.318.915-2.636 2.747-2.636 1.831 0 2.966 1.318 2.966 3.149 0 4.688-8.716 2.307-8.716 7.947 0 2.014 1.904 3.626 4.321 3.626 1.648 0 3.479-1.099 4.395-2.6v.622Zm200.873 0c0 1.172.953 1.978 2.344 1.978 1.319 0 2.564-.696 3.113-1.795l-.293-.219c-.403.549-1.135.915-1.685.915-.586 0-.915-.403-.915-1.135v-8.899c0-2.71-1.868-4.249-5.127-4.249-2.784 0-5.42 1.209-5.42 3.736 0 1.245.879 1.941 2.307 1.941.403 0 .806-.073 1.062-.183-.733-.55-1.099-1.355-1.099-2.198 0-1.318.916-2.636 2.747-2.636s2.966 1.318 2.966 3.149c0 4.688-8.716 2.307-8.716 7.947 0 2.014 1.905 3.626 4.322 3.626 1.648 0 3.479-1.099 4.394-2.6v.622Zm-47.279 1.612h.366c.183-.55.403-.733.696-.733.769 0 1.721 1.099 3.699 1.099 2.6 0 4.761-2.124 4.761-4.688 0-4.578-7.618-4.468-7.618-7.874 0-1.172 1.136-2.16 2.454-2.16 1.575 0 3.003 1.355 3.882 3.735h.366v-4.028h-.366c-.183.549-.366.769-.623.769-.695 0-1.428-1.136-3.222-1.136-2.344 0-4.285 1.868-4.285 4.175 0 4.578 7.654 4.468 7.654 7.947 0 1.392-1.355 2.601-2.967 2.601-1.977 0-3.589-1.648-4.431-4.468h-.366v4.761Zm-127.812-1.612c0 1.172.952 1.978 2.344 1.978 1.318 0 2.563-.696 3.113-1.795l-.293-.219c-.403.549-1.136.915-1.685.915-.586 0-.915-.403-.915-1.135v-8.899c0-2.71-1.868-4.249-5.128-4.249-2.783 0-5.42 1.209-5.42 3.736 0 1.245.879 1.941 2.308 1.941.402 0 .805-.073 1.062-.183-.733-.55-1.099-1.355-1.099-2.198 0-1.318.916-2.636 2.747-2.636s2.966 1.318 2.966 3.149c0 4.688-8.716 2.307-8.716 7.947 0 2.014 1.904 3.626 4.321 3.626 1.648 0 3.479-1.099 4.395-2.6v.622Zm-62.807-9.192c0-7.471-5.017-11.17-10.145-11.17-5.127 0-10.144 3.699-10.144 11.17s5.017 11.17 10.144 11.17c5.128 0 10.145-3.699 10.145-11.17Zm3.808-7.508v18.678h.367c.366-.769.989-1.319 1.904-1.721 1.135 1.098 2.71 1.721 4.431 1.721 4.102 0 6.849-3.186 6.849-7.984 0-4.504-2.234-7.398-5.677-7.398-2.344 0-4.468 1.465-5.31 3.663V68.498c-1.318.769-3.223 1.464-4.761 1.464v.367c1.465 0 2.197.952 2.197 2.929Zm123.454 6.226v5.933c0 3.003-1.941 5.42-4.321 5.42-1.612 0-2.637-1.099-2.637-2.893V76.921h-4.761v.366c1.209 0 2.198.989 2.198 2.197v8.094c0 2.637 1.648 4.358 4.174 4.358 2.344 0 4.505-1.465 5.347-3.662v1.098c0 .769.147 1.795.367 2.564l4.394-.623v-.366c-1.648-.293-2.197-1.099-2.197-3.406v-10.62h-4.761v.366c1.209 0 2.197.989 2.197 2.197Zm-74.453 10.804-.256-.22c-.55.549-1.465.916-2.307.916-1.502 0-2.344-1.209-2.344-3.37V77.58h4.211v-.659h-4.211v-4.725h-.366c-.184 1.099-.623 2.124-1.246 3.003-.805 1.099-1.867 1.832-2.966 2.125v.256h2.014v10.474c0 2.673 1.135 3.882 3.736 3.882 1.758 0 3.039-.55 3.735-1.648Zm51.638-8.167h9.998c0-3.296-2.454-5.567-6.043-5.567-4.212 0-6.958 3.003-6.958 7.691 0 4.761 2.746 7.691 7.178 7.691 2.636 0 4.467-1.282 5.53-3.772l-.33-.147c-1.209 1.831-2.747 2.784-4.431 2.784-3.003 0-5.054-2.82-5.054-6.959 0-.586.036-1.172.11-1.721Zm32.85 0h9.998c0-3.296-2.454-5.567-6.043-5.567-4.212 0-6.958 3.003-6.958 7.691 0 4.761 2.746 7.691 7.178 7.691 2.637 0 4.468-1.282 5.53-3.772l-.33-.147c-1.208 1.831-2.747 2.784-4.431 2.784-3.003 0-5.054-2.82-5.054-6.959 0-.586.037-1.172.11-1.721Zm48.415 6.885V76.188c-1.319.769-3.223 1.465-4.761 1.465v.366c1.208 0 2.197.623 2.197 2.93v8.057c0 1.209-.989 2.197-2.197 2.197v.367h6.958v-.367c-1.209 0-2.197-.988-2.197-2.197Zm-161.505 0V68.498c-1.318.769-3.223 1.464-4.761 1.464v.367c1.465 0 2.198.952 2.198 2.929v15.748c0 1.209-.989 2.197-2.198 2.197v.367h6.958v-.367c-1.208 0-2.197-.988-2.197-2.197Zm200.874 0V68.498c-1.319.769-3.223 1.464-4.761 1.464v.367c1.465 0 2.197.952 2.197 2.929v15.748c0 1.209-.989 2.197-2.197 2.197v.367h6.958v-.367c-1.209 0-2.197-.988-2.197-2.197Zm-66.873-19.044v.367c1.575 0 2.564.842 2.564 2.197v16.48c0 1.355-.989 2.197-2.564 2.197v.367h9.668c6.19 0 10.511-4.432 10.511-10.804s-4.321-10.804-10.511-10.804h-9.668ZM128.139 80.766c0 7.032-3.406 10.401-6.995 10.401s-6.994-3.369-6.994-10.401c0-7.031 3.405-10.401 6.994-10.401s6.995 3.37 6.995 10.401Zm210.395 8.899v-6.592c0-3.003 1.941-5.42 4.322-5.42 2.417 0 3.918 2.454 3.918 6.482 0 4.358-1.757 6.959-4.687 6.959-1.355 0-2.71-.55-3.553-1.429Zm-200.873 0v-6.592c0-3.003 1.941-5.42 4.321-5.42 2.418 0 3.919 2.454 3.919 6.482 0 4.358-1.758 6.959-4.688 6.959-1.355 0-2.71-.55-3.552-1.429Zm225.374-1.501c0-3.186 3.992-3.516 6.152-5.567v5.786c-.988 1.612-2.234 2.564-3.589 2.564-1.538 0-2.563-1.135-2.563-2.783Zm-200.874 0c0-3.186 3.992-3.516 6.153-5.567v5.786c-.989 1.612-2.234 2.564-3.589 2.564-1.538 0-2.564-1.135-2.564-2.783Zm25.782 0c0-3.186 3.992-3.516 6.153-5.567v5.786c-.989 1.612-2.234 2.564-3.589 2.564-1.538 0-2.564-1.135-2.564-2.783Zm118.51-7.361c0 6.042-2.856 9.998-7.251 9.998h-1.721c-1.575 0-2.564-.843-2.564-2.198V70.732h4.285c4.358 0 7.251 4.028 7.251 10.071Zm-37.757.659c.586-2.637 2.051-4.248 3.845-4.248 1.941 0 3.333 1.794 3.333 4.248h-7.178Zm-32.851 0c.586-2.637 2.051-4.248 3.846-4.248 1.941 0 3.332 1.794 3.332 4.248h-7.178Zm79.617-11.133c-.915 0-1.648.732-1.648 1.648 0 .915.733 1.648 1.648 1.648.916 0 1.648-.733 1.648-1.648 0-.916-.732-1.648-1.648-1.648Z" style="fill:#478c94;fill-rule:nonzero"/><circle cx="387.091" cy="162.044" r="42.721" style="fill:#f2d4ae" transform="translate(-32.5422 56.7227) scale(.72991)"/><path d="M98.262 62.692c2.481 0 4.495 2.014 4.495 4.494 0 2.481-2.014 4.495-4.495 4.495-2.481 0-4.495-2.014-4.495-4.495 0-2.48 2.014-4.494 4.495-4.494Zm25.058 0c2.481 0 4.495 2.014 4.495 4.494 0 2.481-2.014 4.495-4.495 4.495-2.481 0-4.495-2.014-4.495-4.495 0-2.48 2.014-4.494 4.495-4.494Z" style="fill:#650707" transform="translate(139.209 432.681)"/><path d="M5396.85 8147.36c0 124.66-923.79 225.73-2063.37 225.73-1139.56 0-2063.33-101.07-2063.33-225.73 0-124.67 923.78-225.75 2063.33-225.75 1139.57 0 2063.37 101.08 2063.37 225.75" style="fill:#40757b;fill-rule:nonzero" transform="matrix(.05245 0 0 .05245 75.1722 180.309)"/><path d="M254.541 532.849c1.486-1.651 3.054-2.394 4.541-2.394 2.476 0 4.375 2.064 4.788 5.201 1.156-.66 1.816-2.311 1.816-3.963 0-2.642-1.733-4.293-4.458-4.293-2.559 0-5.366 1.651-7.513 4.376-2.064-2.807-5.531-4.376-9.742-4.376-6.935 0-11.971 4.624-11.971 11.146 0 4.045 2.064 7.513 5.449 9.494-2.807 1.816-3.963 4.541-3.963 7.43 0 3.138 2.312 5.532 6.44 6.605-5.201.908-8.917 3.88-8.917 7.513 0 4.789 5.945 8.173 14.283 8.173 9.742 0 15.686-4.871 15.686-12.796 0-12.962-25.015-4.706-25.015-12.054 0-1.734 1.403-3.467 2.889-4.21 1.652.66 3.22.99 5.119.99 7.018 0 11.971-4.54 11.971-11.145 0-2.147-.495-4.128-1.403-5.697Zm-13.045 29.226h.248c12.384 0 16.594 2.972 16.594 6.11 0 4.375-5.696 8.09-12.714 8.09-5.779 0-9.494-2.807-9.494-7.017 0-2.972 2.229-5.944 5.366-7.183ZM330 558.36l-.578-.495c-1.238 1.238-3.302 2.064-5.201 2.064-3.385 0-5.284-2.725-5.284-7.596v-22.621h9.494v-1.486h-9.494v-10.65h-.826c-.412 2.476-1.403 4.788-2.807 6.77-1.816 2.476-4.21 4.128-6.687 4.788v.578h4.541v23.612c0 6.027 2.559 8.751 8.421 8.751 3.963 0 6.852-1.238 8.421-3.715Zm-133.581-21.961v19.071c0 2.725-2.229 4.954-4.954 4.954v.826h15.687v-.826c-2.725 0-4.954-2.229-4.954-4.954v-18.245c0-5.944-3.798-9.825-9.494-9.825-5.284 0-10.072 3.303-11.971 8.256v-9.081c-2.972 1.733-7.266 3.302-10.733 3.302v.826c3.302 0 4.954 2.146 4.954 6.604v18.163c0 2.725-2.23 4.954-4.954 4.954v.826h15.686v-.826c-2.724 0-4.953-2.229-4.953-4.954v-13.374c0-6.77 4.375-12.219 9.742-12.219 3.632 0 5.944 2.477 5.944 6.522Zm24.85 19.071v-28.895c-2.972 1.733-7.265 3.302-10.732 3.302v.826c2.724 0 4.953 1.403 4.953 6.604v18.163c0 2.725-2.229 4.954-4.953 4.954v.826h15.686v-.826c-2.725 0-4.954-2.229-4.954-4.954Zm72.405-19.071v19.071c0 2.725-2.229 4.954-4.954 4.954v.826h15.687v-.826c-2.725 0-4.954-2.229-4.954-4.954v-18.245c0-5.944-3.798-9.825-9.494-9.825-5.284 0-10.073 3.303-11.971 8.256v-26.419c-2.973 1.734-7.266 3.303-10.733 3.303v.825c3.302 0 4.953 2.147 4.953 6.605v35.5c0 2.725-2.229 4.954-4.953 4.954v.826h15.686v-.826c-2.724 0-4.953-2.229-4.953-4.954v-13.374c0-6.77 4.375-12.219 9.742-12.219 3.632 0 5.944 2.477 5.944 6.522Zm-49.701-7.513c4.046 0 6.522 3.716 6.522 9.66s-2.476 9.577-6.522 9.577c-4.045 0-6.522-3.716-6.522-9.577 0-5.944 2.559-9.66 6.522-9.66Zm-26.171-15.521c-2.064 0-3.715 1.651-3.715 3.715s1.651 3.716 3.715 3.716 3.715-1.652 3.715-3.716-1.651-3.715-3.715-3.715Z" style="fill-rule:nonzero" transform="translate(0 47.2324)"/></svg>