<svg xmlns="http://www.w3.org/2000/svg" xml:space="preserve" style="fill-rule:evenodd;clip-rule:evenodd;stroke-linejoin:round;stroke-miterlimit:2" viewBox="0 0 6667 10667"><path d="M0 0h6666.67v10666.7H0z" style="fill:#403f41"/><path d="M1884.29 4326.18s-115.706 180.679-115.706 258.113c0 63.86 51.847 115.707 115.706 115.707 63.86 0 115.707-51.847 115.707-115.707 0-77.434-115.707-258.113-115.707-258.113Zm2088.07-2259.82h559.446v-204.363h-12.773c-26.823 100.904-39.596 127.727-71.527 148.163-38.319 24.268-84.3 29.377-286.109 29.377v-637.358c0-47.259 34.486-76.637 89.409-76.637v-12.772H3972.36v12.772c54.923 0 89.409 29.378 89.409 76.637v574.772c0 47.259-34.486 76.636-89.409 76.636v12.773Z" style="fill:#f06060"/><path d="M2326.86 3563.85c0 110.191 68.869 188.243 167.582 188.243 41.322 0 89.531-9.182 126.261-22.956l-6.887-22.957c-13.774 4.592-20.661 4.592-27.548 4.592-48.208 0-80.348-45.913-80.348-119.374v-316.8c0-84.939 43.618-137.739 114.783-137.739v-22.957h-454.539v22.957c101.009 0 160.696 52.8 160.696 137.739v222.678c-57.392 91.826-190.54 160.696-309.914 160.696-273.182 0-463.721-243.339-463.721-599.166 0-436.173 211.2-658.852 436.174-658.852 176.765 0 330.574 133.148 397.147 342.052h22.957v-367.304h-22.957c0 48.209-22.956 64.278-48.208 64.278-59.687 0-172.174-87.234-348.939-87.234-321.392 0-635.896 231.86-635.896 700.174 0 468.313 314.504 700.173 635.896 700.173 133.147 0 247.93-55.095 337.461-188.243Z" style="fill:#f3b562;fill-rule:nonzero"/><path d="M3367.3 9498.58v-263.685c0-18.762 13.691-30.425 35.496-30.425v-5.071h-110.545v5.071c21.805 0 35.496 11.663 35.496 30.425v273.827c0 48.681-14.198 74.542-47.159 86.712l1.014 4.564c50.202 0 85.698-42.088 85.698-101.418Zm1678.46-149.59c0-103.446-69.471-154.662-140.464-154.662-70.992 0-140.463 51.216-140.463 154.662s69.471 154.661 140.463 154.661c70.993 0 140.464-51.215 140.464-154.661Zm-1247.44-134.379c-8.113-10.141-17.748-15.212-30.425-15.212h-50.202v5.071c21.805 0 35.496 11.663 35.496 30.425v228.189c0 18.763-13.691 30.426-35.496 30.426v5.07h81.641v-5.07c-21.804 0-35.496-11.663-35.496-30.426v-228.189l212.47 268.756h5.071v-268.756c0-18.762 13.691-30.425 35.496-30.425v-5.071h-80.12c-1.521 0-1.521 5.071-1.521 5.071 21.805 0 35.496 11.663 35.496 30.425v197.764l-172.41-218.048Zm324.536 135.9h56.287c15.72 0 26.369 12.677 30.425 35.496h5.071v-81.641h-5.071c-3.549 22.819-14.705 35.496-30.425 35.496h-56.287v-129.814c90.262 0 107.503 1.521 122.208 11.156 11.156 7.099 15.213 15.212 25.355 49.187h5.071v-70.992h-227.683v5.071c21.805 0 35.497 11.663 35.497 30.425v228.189c0 18.763-13.692 30.426-35.497 30.426v5.07h232.754v-81.134h-5.071c-8.621 32.454-12.17 42.089-19.27 50.709-13.691 17.241-30.425 19.777-133.364 19.777v-137.421Zm1032.94 0h56.286c15.72 0 26.369 12.677 30.426 35.496h5.071v-81.641h-5.071c-3.55 22.819-14.706 35.496-30.426 35.496h-56.286v-129.814c90.261 0 107.502 1.521 122.208 11.156 11.156 7.099 15.212 15.212 25.354 49.187h5.071v-70.992h-227.682v5.071c21.805 0 35.496 11.663 35.496 30.425v228.189c0 18.763-13.691 30.426-35.496 30.426v5.07H5313.5v-81.134h-5.071c-8.62 32.454-12.17 42.089-19.269 50.709-13.692 17.241-30.425 19.777-133.364 19.777v-137.421Zm-714.994-151.112v5.071c21.805 0 35.496 11.663 35.496 30.425v228.189c0 18.763-13.691 30.426-35.496 30.426v5.07h133.871c85.698 0 145.535-61.357 145.535-149.59 0-88.234-59.837-149.591-145.535-149.591h-133.871Zm-950.789 184.073h105.981l32.961 79.612c1.521 3.55 2.028 6.592 2.028 10.142 0 11.663-10.141 20.284-27.889 20.284v5.07h102.938v-5.07c-15.719 0-26.368-10.649-34.482-30.426l-110.038-268.756h-5.071l-111.052 268.756c-8.113 19.777-18.255 30.426-33.467 30.426v5.07h72.513v-5.07c-18.762 0-29.411-9.128-29.411-21.805 0-2.536.507-5.578 2.028-8.621l32.961-79.612Zm1512.13-34.482c0 97.36-47.159 144.013-96.854 144.013-49.694 0-96.853-46.653-96.853-144.013 0-97.361 47.159-144.013 96.853-144.013 49.695 0 96.854 46.652 96.854 144.013Zm-326.564.507c0 83.669-39.553 138.435-100.404 138.435h-23.833c-21.804 0-35.496-11.663-35.496-30.426v-247.458h59.329c60.344 0 100.404 55.779 100.404 139.449Zm-1181.51 23.326 49.187-118.659 48.681 118.659h-97.868Zm-400.466-6314.02h254.818c71.165 0 119.374 57.392 137.739 160.696h22.956v-369.6h-22.956c-16.07 103.304-66.574 160.696-137.739 160.696h-254.818v-587.687c408.626 0 486.679 6.887 553.253 50.504 50.504 32.139 68.869 68.87 114.782 222.678h22.957v-321.391h-1030.75v22.957c98.713 0 160.695 52.8 160.695 137.739v1033.04c0 84.939-61.982 137.739-160.695 137.739v22.957h1053.7v-367.304h-22.956c-39.026 146.921-55.096 190.539-87.235 229.565-61.983 78.052-137.739 89.53-603.757 89.53V3058.8Zm790.629-1369.24c0-260.564-174.987-389.568-353.805-389.568s-353.804 129.004-353.804 389.568c0 260.563 174.986 389.568 353.804 389.568 178.818 0 353.805-129.005 353.805-389.568Zm725.49-376.795v12.772c54.923 0 89.409 29.378 89.409 76.637v574.772c0 47.259-34.486 76.636-89.409 76.636v12.773h337.2c215.859 0 366.577-154.55 366.577-376.795s-150.718-376.795-366.577-376.795h-337.2Zm-835.336 376.795c0 245.236-118.786 362.745-243.959 362.745-125.172 0-243.959-117.509-243.959-362.745s118.787-362.745 243.959-362.745c125.173 0 243.959 117.509 243.959 362.745Zm1426.71 1.277c0 210.75-99.627 348.695-252.9 348.695h-60.032c-54.922 0-89.409-29.377-89.409-76.636V1339.59h149.441c151.996 0 252.9 140.5 252.9 351.25Z" style="fill:#f2ebbf;fill-rule:nonzero"/><path d="M3514.72 6212.29c-28.095-107.722-63.572-212.434-95.951-315.026-121.893-386.21 23.682-626.529 360.035-762.787-71.592 50.01-130.825 108.516-172.36 179.199h559.616v35.149h-578.301c-18.79 39.327-32.434 82.195-40.146 129.125h659.313v35.149h-663.898c-3.914 40.117-3.721 83.057 1.008 129.124h613.851v35.15h-609.445c5.993 40.653 15.368 83.632 28.392 129.124h515.668v35.149h-505.035c2.647 8.313 5.399 16.669 8.268 25.107 123.701 363.706 114.373 567.685-30.511 760.101.904-17.048 1.372-34.009 1.437-50.867h-593.893c7.278 43.553 16.48 86.578 26.966 129.124h287.646l-22.415 35.149h-256.259c27.835 105.573 62.58 208.256 94.344 308.898 121.893 386.211-23.682 626.529-360.035 762.787 206.378-144.16 310.047-358.933 183.069-732.275-104.268-306.568-114.021-499.653-27.76-667.957h-8.775l28.382-35.149c11.595-19.21 24.48-38.158 38.664-56.996-1.013 19.104-1.479 38.099-1.443 56.996h594.91c-7.088-43.555-16.126-86.583-26.477-129.125h-609.517v-35.149h600.652Zm-108.264 527.97 13.273-31.033-21.36-4.116h199.156v35.149h-107.559l-2.148-17.83-41.216 17.83h-40.146Zm-450.665-328.547c1.493 43.587 5.537 86.616 11.549 129.124h598.881c-1.251-43.578-5.073-86.599-10.89-129.124h-599.54Z" style="fill:#231f20"/><path d="M3250.74 6771.61c-99.525 33.085-201.222 56.291-286.411 78.454-579.478 150.759-709.801 305.883-651.727 732.277 17.617-261.164 103.987-422.637 717.632-556.531 139.041-30.338 262.444-69.309 364.216-121.386l-15.52-16.04-63.95 2.239 38.739-71.621-132.645-.871 29.666-46.521Zm185.596 496.706 130.932 26.432-6.029-18.186c-5.02-6.313-12.366-15.876-16.103-22.294-7.527-12.927-23.387-41.294-40.205-71.581l-119.586-6.85 50.991 92.479Zm210.035-81.572 67.06 16.471-9.417-18.9 81.397 2.199-30.893-56.039 8.672-25.066c-1.613-1.348-3.243-2.687-4.887-4.011l-111.932 85.346Zm-30.662-340.054c-42.892 37.729-81.285 89.174-115.852 152.268l70.119-9.125 17.511 41.691 76.278-62.447-7.178 56.475.695-.061 22.688-49.219-64.261-129.582Zm-220.562-132.768 24.362 4.694-22.388 52.343 90.477-39.139 5.409 44.895 68.781 10.277c121.88-120.528 169.471-287.416 112.85-522.75 23.503 235.179-108.602 366.655-279.491 449.68Zm-552.447-51.589c-58.074-426.394 72.248-581.518 651.727-732.277 284.439-74.001 752.902-159.619 710.309-585.822 111.109 461.801-179.073 660.036-644.404 761.568-613.645 133.894-700.015 295.367-717.632 556.531Zm1481.38-4218.76c-36.731-45.913-80.348-68.87-137.739-68.87h-227.27v22.957c98.713 0 160.696 52.8 160.696 137.739v1033.04c0 84.939-61.983 137.739-160.696 137.739v22.957h369.6v-22.957c-98.713 0-160.695-52.8-160.695-137.739v-1033.04l961.878 1216.69h22.956v-1216.69c0-84.939 61.983-137.739 160.696-137.739v-22.957h-362.713c-6.887 0-6.887 22.957-6.887 22.957 98.713 0 160.696 52.8 160.696 137.739v895.304l-780.522-987.13Zm-1231.75-600.73h-12.773c-52.368 108.568-159.659 181.372-269.504 181.372-127.727 0-246.514-100.904-246.514-334.645 0-242.682 117.509-362.745 242.682-362.745 108.568 0 189.036 88.131 220.968 190.313h12.773v-204.363h-12.773c0 26.822-12.773 35.763-26.823 35.763-33.209 0-84.3-48.536-194.145-48.536-178.818 0-353.804 129.004-353.804 389.568 0 260.563 174.986 389.568 353.804 389.568 135.391 0 250.345-94.518 286.109-236.295Zm-1485.88-69.522h-252.947v72.566h5.183c9.33-32.655 14.514-41.985 24.362-49.76 10.885-9.33 26.953-11.921 76.714-11.921v258.649c0 19.178-13.995 31.1-36.284 31.1v5.183h112.997v-5.183c-22.288 0-36.283-11.922-36.283-31.1v-258.649c49.76 0 65.828 2.591 76.713 11.921 9.848 7.775 15.032 17.105 24.362 49.76h5.183v-72.566Zm444.731 154.463h57.535c16.069 0 26.954 12.959 31.1 36.284H2145v-83.452h-5.184c-3.628 23.325-15.031 36.283-31.1 36.283h-57.535v-132.693c92.264 0 109.887 1.555 124.919 11.403 11.403 7.257 15.55 15.55 25.916 50.278h5.184v-72.566h-232.732v5.183c22.288 0 36.283 11.922 36.283 31.1v233.251c0 19.178-13.995 31.1-36.283 31.1v5.183h237.915v-82.934h-5.183c-8.812 33.174-12.44 43.022-19.697 51.834-13.995 17.623-31.1 20.215-136.322 20.215v-140.469Zm-342.101 0h154.464v115.071c0 19.178-13.995 31.1-36.283 31.1v5.183h112.996v-5.183c-22.288 0-36.283-11.922-36.283-31.1v-233.251c0-19.178 13.995-31.1 36.283-31.1v-5.183h-112.996v5.183c22.288 0 36.283 11.922 36.283 31.1v107.295H1709.08v-107.295c0-19.178 13.995-31.1 36.284-31.1v-5.183h-112.997v5.183c22.288 0 36.283 11.922 36.283 31.1v233.251c0 19.178-13.995 31.1-36.283 31.1v5.183h112.997v-5.183c-22.289 0-36.284-11.922-36.284-31.1v-115.071Z" style="fill:#8cbeb2;fill-rule:nonzero"/></svg>