<svg xmlns="http://www.w3.org/2000/svg" xml:space="preserve" style="fill-rule:evenodd;clip-rule:evenodd;stroke-linejoin:round;stroke-miterlimit:2" viewBox="0 0 500 700"><path d="M34 368h171v196H34z" style="fill:#403f41" transform="matrix(2.92398 0 0 3.57143 -99.4152 -1314.29)"/><text x="23.768" y="49.268" style="font-family:&quot;Verdana&quot;,sans-serif;font-size:11.562px" transform="matrix(.86486 0 0 .86486 183.277 637.356)">© 2025 Astrid Schäfer</text><path d="M1612 3113C846 2877 295 2168 295 1321.33h104c0 971 792 1771 1771 1771s1771-800 1771-1770.83h104c0 847-551 1556-1317 1791.67h946V3184H2389c-119 14-239 16-358 7-27-2-54-4-80-7.49H666v-71" style="fill:#89838d" transform="matrix(.00439 0 0 .00439 182.07 667.085)"/><circle cx="3821" cy="3146" r="175" style="fill:#c83154" transform="matrix(.00439 0 0 .00439 182.07 667.085)"/><circle cx="521" cy="3146" r="175" style="fill:#c83154" transform="matrix(.00439 0 0 .00439 182.07 667.085)"/><path d="M167 1041.67h333v333H167v-333Zm3667 0h333v333h-333v-333ZM2001 2958.34h333v333h-333v-333Z" style="fill:#fff" transform="matrix(.00439 0 0 .00439 182.07 667.085)"/><path d="M1884.29 4326.18s-115.71 180.68-115.71 258.11c0 63.86 51.85 115.71 115.71 115.71 63.86 0 115.71-51.85 115.71-115.71 0-77.43-115.71-258.11-115.71-258.11Zm2088.07-2259.82h559.45V1862h-12.78c-26.82 100.9-39.59 127.72-71.52 148.16-38.32 24.27-84.3 29.38-286.11 29.38v-637.36c0-47.26 34.48-76.64 89.41-76.64v-12.77h-278.45v12.77c54.92 0 89.41 29.38 89.41 76.64v574.77c0 47.26-34.49 76.64-89.41 76.64v12.77Z" style="fill:#f06060" transform="matrix(.0707 0 0 .0707 14.2978 9.54518)"/><path d="M2326.86 3563.85c0 110.19 68.87 188.24 167.58 188.24 41.32 0 89.53-9.18 126.26-22.95l-6.88-22.96c-13.78 4.59-20.66 4.59-27.55 4.59-48.21 0-80.35-45.91-80.35-119.37v-316.8c0-84.94 43.62-137.74 114.78-137.74v-22.96h-454.54v22.96c101.01 0 160.7 52.8 160.7 137.74v222.68c-57.39 91.82-190.54 160.69-309.91 160.69-273.19 0-463.72-243.34-463.72-599.16 0-436.18 211.19-658.86 436.17-658.86 176.76 0 330.57 133.15 397.15 342.06h22.95V2374.7h-22.95c0 48.21-22.96 64.28-48.21 64.28-59.69 0-172.18-87.23-348.94-87.23-321.39 0-635.9 231.86-635.9 700.17 0 468.31 314.51 700.17 635.9 700.17 133.15 0 247.93-55.09 337.46-188.24Z" style="fill:#f3b562;fill-rule:nonzero" transform="matrix(.0707 0 0 .0707 14.2978 9.54518)"/><path d="M3093.6 3058.8h254.82c71.17 0 119.38 57.4 137.74 160.7h22.96v-369.6h-22.96c-16.07 103.3-66.57 160.7-137.74 160.7H3093.6v-587.69c408.63 0 486.68 6.89 553.26 50.5 50.5 32.14 68.86 68.87 114.78 222.68h22.96V2374.7H2753.85v22.96c98.71 0 160.69 52.8 160.69 137.73v1033.04c0 84.94-61.98 137.74-160.69 137.74v22.96h1053.7v-367.3h-22.96c-39.03 146.92-55.1 190.54-87.24 229.56-61.98 78.05-137.73 89.53-603.75 89.53V3058.8Zm790.63-1369.24c0-260.56-174.99-389.56-353.8-389.56-178.82 0-353.81 129-353.81 389.56 0 260.57 174.99 389.57 353.81 389.57 178.81 0 353.8-129 353.8-389.57Zm725.49-376.79v12.77c54.93 0 89.41 29.38 89.41 76.64v574.77c0 47.26-34.48 76.64-89.41 76.64v12.77h337.2c215.86 0 366.58-154.55 366.58-376.8 0-222.24-150.72-376.79-366.58-376.79h-337.2Zm-835.33 376.79c0 245.24-118.79 362.75-243.96 362.75s-243.96-117.51-243.96-362.75c0-245.23 118.79-362.74 243.96-362.74s243.96 117.51 243.96 362.74Zm1426.71 1.28c0 210.75-99.63 348.7-252.9 348.7h-60.04c-54.92 0-89.4-29.38-89.4-76.64v-623.31h149.44c151.99 0 252.9 140.5 252.9 351.25Z" style="fill:#f2ebbf;fill-rule:nonzero" transform="matrix(.0707 0 0 .0707 14.2978 9.54518)"/><path d="m383.471 637.45-3.762-9.148c-.148-.369-.221-.7-.221-.996 0-.774.516-1.217 1.475-1.217v-.369h-6.455v.369c.959 0 1.881.959 2.398 2.213l4.205 10.218c.295.737.479 1.623.479 2.508 0 2.693-1.623 4.574-3.357 4.574-1.069 0-1.881-.553-2.36-1.513-.332.664-.443 1.07-.443 1.55 0 1.364.812 2.213 2.066 2.213 3.209 0 5.717-7.857 6.344-9.517l3.947-10.033c.553-1.438 1.254-2.213 2.213-2.213v-.369h-4.426v.369c.922 0 1.696.443 1.696 1.365 0 .258-.073.516-.184.848l-3.615 9.148Zm-44.3-8.41v-4.057c-1.328.774-3.246 1.475-4.795 1.475v.369c1.476 0 2.213.959 2.213 2.951v15.123c0 1.217-.996 2.213-2.213 2.213v.369h7.009v-.369c-1.218 0-2.214-.996-2.214-2.213v-5.533c1.107.959 2.582 1.476 4.205 1.476 4.132 0 6.861-3.246 6.861-8.115 0-4.427-2.287-7.378-5.717-7.378-2.361 0-4.5 1.476-5.349 3.689Zm-16.746 11.435h.369c.185-.554.406-.738.701-.738.775 0 1.734 1.107 3.725 1.107 2.619 0 4.796-2.14 4.796-4.722 0-4.611-7.673-4.5-7.673-7.93 0-1.181 1.144-2.177 2.472-2.177 1.586 0 3.024 1.365 3.91 3.763h.368v-4.058h-.368c-.185.554-.369.775-.628.775-.7 0-1.438-1.144-3.245-1.144-2.361 0-4.316 1.882-4.316 4.205 0 4.611 7.709 4.501 7.709 8.005 0 1.401-1.365 2.619-2.988 2.619-1.992 0-3.615-1.66-4.463-4.5h-.369v4.795Zm47.62-1.623c0 1.18.959 1.992 2.36 1.992 1.328 0 2.582-.701 3.136-1.808l-.295-.221c-.406.553-1.144.922-1.697.922-.59 0-.922-.406-.922-1.144v-8.963c0-2.729-1.881-4.279-5.164-4.279-2.804 0-5.459 1.218-5.459 3.763 0 1.254.885 1.955 2.323 1.955.406 0 .812-.074 1.07-.185-.738-.553-1.106-1.364-1.106-2.213 0-1.328.922-2.656 2.766-2.656 1.844 0 2.988 1.328 2.988 3.173 0 4.721-8.779 2.323-8.779 8.004 0 2.029 1.918 3.652 4.352 3.652 1.66 0 3.505-1.107 4.427-2.619v.627Zm-239.61-9.259c0-7.524-5.054-11.25-10.218-11.25S110 622.069 110 629.593c0 7.525 5.053 11.251 10.217 11.251 5.164 0 10.218-3.726 10.218-11.251Zm37.291 9.259c0 1.18.959 1.992 2.361 1.992 1.328 0 2.582-.701 3.135-1.808l-.295-.221c-.406.553-1.143.922-1.697.922-.59 0-.922-.406-.922-1.144v-8.963c0-2.729-1.881-4.279-5.164-4.279-2.803 0-5.459 1.218-5.459 3.763 0 1.254.885 1.955 2.324 1.955.406 0 .811-.074 1.07-.185-.738-.553-1.107-1.364-1.107-2.213 0-1.328.922-2.656 2.767-2.656 1.844 0 2.987 1.328 2.987 3.173 0 4.721-8.779 2.323-8.779 8.004 0 2.029 1.918 3.652 4.353 3.652 1.66 0 3.504-1.107 4.426-2.619v.627Zm100.994-7.894h10.069c0-3.32-2.471-5.607-6.086-5.607-4.242 0-7.008 3.025-7.008 7.747 0 4.795 2.766 7.746 7.23 7.746 2.655 0 4.5-1.291 5.569-3.8l-.332-.147c-1.217 1.844-2.766 2.803-4.463 2.803-3.025 0-5.09-2.84-5.09-7.008 0-.59.037-1.181.111-1.734Zm-134.449-8.926v18.812h.369c.369-.775.996-1.328 1.918-1.734 1.143 1.106 2.729 1.734 4.463 1.734 4.131 0 6.898-3.21 6.898-8.042 0-4.537-2.25-7.451-5.718-7.451-2.36 0-4.5 1.476-5.348 3.689v-11.803c-1.328.774-3.246 1.475-4.795 1.475v.369c1.475 0 2.213.959 2.213 2.951Zm59.423 16.82c0 1.18.959 1.992 2.361 1.992 1.327 0 2.582-.701 3.135-1.808l-.295-.221c-.406.553-1.144.922-1.697.922-.59 0-.922-.406-.922-1.144v-8.963c0-2.729-1.881-4.279-5.164-4.279-2.803 0-5.459 1.218-5.459 3.763 0 1.254.885 1.955 2.324 1.955.405 0 .811-.074 1.069-.185-.737-.553-1.106-1.364-1.106-2.213 0-1.328.922-2.656 2.766-2.656 1.844 0 2.988 1.328 2.988 3.173 0 4.721-8.779 2.323-8.779 8.004 0 2.029 1.918 3.652 4.353 3.652 1.659 0 3.504-1.107 4.426-2.619v.627Zm64.919-10.55v5.976c0 3.024-1.955 5.459-4.353 5.459-1.623 0-2.655-1.107-2.655-2.914V625.72h-4.796v.369c1.218 0 2.214.996 2.214 2.213v8.152c0 2.656 1.659 4.39 4.205 4.39 2.36 0 4.536-1.476 5.385-3.689v1.107c0 .774.147 1.807.369 2.582l4.426-.628v-.368c-1.66-.295-2.213-1.107-2.213-3.431V625.72H256.4v.369c1.217 0 2.213.996 2.213 2.213Zm-74.989 10.882-.258-.222c-.553.554-1.476.922-2.324.922-1.512 0-2.361-1.217-2.361-3.393v-10.107h4.242v-.664h-4.242v-4.758h-.369c-.184 1.107-.627 2.139-1.254 3.025-.811 1.106-1.881 1.844-2.987 2.139v.258h2.028v10.55c0 2.692 1.144 3.91 3.763 3.91 1.77 0 3.061-.554 3.762-1.66Zm52.009-8.226h10.07c0-3.32-2.472-5.607-6.086-5.607-4.242 0-7.009 3.025-7.009 7.747 0 4.795 2.767 7.746 7.23 7.746 2.656 0 4.5-1.291 5.57-3.8l-.332-.147c-1.217 1.844-2.767 2.803-4.463 2.803-3.025 0-5.091-2.84-5.091-7.008 0-.59.037-1.181.111-1.734Zm-20.619-11.139c-.59-.738-1.291-1.107-2.213-1.107h-3.652v.369c1.586 0 2.582.848 2.582 2.213v16.599c0 1.364-.996 2.213-2.582 2.213v.369h5.939v-.369c-1.586 0-2.582-.849-2.582-2.213v-16.599l15.455 19.55h.369v-19.55c0-1.365.996-2.213 2.582-2.213v-.369h-5.828c-.111 0-.111.369-.111.369 1.586 0 2.582.848 2.582 2.213v14.386l-12.541-15.861Zm102.469 18.074v-12.91c-1.328.774-3.246 1.475-4.796 1.475v.369c1.218 0 2.214.627 2.214 2.951v8.115c0 1.217-.996 2.213-2.214 2.213v.369h7.009v-.369c-1.218 0-2.213-.996-2.213-2.213Zm-162.667 0v-20.656c-1.328.774-3.246 1.475-4.795 1.475v.369c1.476 0 2.213.959 2.213 2.951v15.861c0 1.217-.996 2.213-2.213 2.213v.369h7.008v-.369c-1.217 0-2.213-.996-2.213-2.213Zm202.319 0v-20.656c-1.328.774-3.246 1.475-4.795 1.475v.369c1.475 0 2.213.959 2.213 2.951v15.861c0 1.217-.996 2.213-2.213 2.213v.369h7.008v-.369c-1.217 0-2.213-.996-2.213-2.213Zm-67.354-19.181v.369c1.586 0 2.582.848 2.582 2.213v16.599c0 1.364-.996 2.213-2.582 2.213v.369h9.738c6.234 0 10.586-4.464 10.586-10.882 0-6.418-4.352-10.881-10.586-10.881h-9.738Zm-162.518 10.881c0 7.082-3.431 10.476-7.046 10.476-3.614 0-7.045-3.394-7.045-10.476 0-7.082 3.431-10.475 7.045-10.475 3.615 0 7.046 3.393 7.046 10.475Zm9.59 8.964v-6.64c0-3.024 1.955-5.459 4.352-5.459 2.435 0 3.947 2.471 3.947 6.529 0 4.389-1.77 7.008-4.721 7.008-1.365 0-2.73-.553-3.578-1.438Zm202.318 0v-6.64c0-3.024 1.955-5.459 4.353-5.459 2.434 0 3.947 2.471 3.947 6.529 0 4.389-1.771 7.008-4.722 7.008-1.364 0-2.729-.553-3.578-1.438Zm-151.674-1.513c0-3.209 4.021-3.541 6.197-5.606v5.828c-.996 1.623-2.25 2.582-3.615 2.582-1.549 0-2.582-1.144-2.582-2.804Zm-25.968 0c0-3.209 4.021-3.541 6.197-5.606v5.828c-.996 1.623-2.25 2.582-3.615 2.582-1.549 0-2.582-1.144-2.582-2.804Zm202.319 0c0-3.209 4.021-3.541 6.197-5.606v5.828c-.996 1.623-2.25 2.582-3.615 2.582-1.549 0-2.582-1.144-2.582-2.804Zm-56.989-7.414c0 6.086-2.877 10.07-7.303 10.07h-1.734c-1.586 0-2.582-.848-2.582-2.213v-18h4.316c4.389 0 7.303 4.057 7.303 10.143Zm-38.029.664c.59-2.656 2.066-4.279 3.873-4.279 1.955 0 3.357 1.808 3.357 4.279h-7.23Zm-33.086 0c.59-2.656 2.065-4.279 3.873-4.279 1.955 0 3.356 1.808 3.356 4.279h-7.229Zm80.189-11.213c-.922 0-1.66.738-1.66 1.66 0 .922.738 1.66 1.66 1.66.922 0 1.66-.738 1.66-1.66 0-.922-.738-1.66-1.66-1.66Zm-53.12-166.968c-1.986-7.616-4.495-15.02-6.784-22.274-8.619-27.308 1.674-44.3 25.457-53.934-5.062 3.536-9.25 7.672-12.187 12.67h39.569v2.485h-40.89c-1.329 2.781-2.294 5.812-2.839 9.13h46.618v2.486h-46.942c-.277 2.836-.263 5.872.071 9.13h43.404v2.485h-43.092c.423 2.875 1.086 5.913 2.007 9.13h36.461v2.485h-35.709c.187.588.382 1.179.585 1.776 8.746 25.716 8.087 40.139-2.158 53.744.064-1.205.097-2.405.102-3.597h-41.993c.515 3.08 1.166 6.122 1.907 9.13h20.339l-1.585 2.486h-18.12c1.969 7.464 4.425 14.725 6.671 21.841 8.619 27.308-1.674 44.3-25.457 53.934 14.593-10.193 21.923-25.379 12.945-51.777-7.373-21.676-8.063-35.329-1.963-47.229h-.621l2.007-2.485c.82-1.359 1.731-2.698 2.734-4.03-.072 1.351-.105 2.694-.102 4.03h42.064c-.501-3.08-1.14-6.122-1.872-9.13h-43.097v-2.486h42.47Zm-7.655 37.332.939-2.195-1.511-.291h14.082v2.486h-7.605l-.152-1.261-2.914 1.261h-2.839Zm-31.865-23.231c.106 3.082.392 6.124.817 9.13h42.345c-.089-3.081-.359-6.123-.77-9.13h-42.392Z" style="fill:#231f20" transform="translate(0 -33.3158)"/><path d="M3250.74 6347.32c-99.52 33.09-201.22 56.29-286.41 78.46-579.48 150.76-709.8 305.88-651.73 732.28 17.62-261.17 103.99-422.64 717.63-556.54 139.05-30.33 262.45-69.3 364.22-121.38l-15.52-16.04-63.95 2.24 38.74-71.62-132.65-.87 29.67-46.53Zm185.6 496.71 130.93 26.43-6.03-18.18c-5.02-6.32-12.37-15.88-16.1-22.3-7.53-12.92-23.39-41.29-40.21-71.58l-119.58-6.85 50.99 92.48Zm210.03-81.57 67.06 16.47-9.42-18.9 81.4 2.2-30.89-56.04 8.67-25.07c-1.61-1.34-3.24-2.68-4.89-4.01l-111.93 85.35Zm-30.66-340.06c-42.89 37.73-81.29 89.18-115.85 152.27l70.12-9.12 17.51 41.69 76.27-62.45-7.17 56.48.69-.07 22.69-49.21-64.26-129.59Zm-220.56-132.76 24.36 4.69-22.39 52.34 90.48-39.14 5.41 44.9 68.78 10.28c121.88-120.53 169.47-287.42 112.85-522.75 23.5 235.18-108.6 366.65-279.49 449.68Zm-552.45-51.59c-58.07-426.4 72.25-581.52 651.73-732.28 284.44-74 752.9-159.62 710.31-585.82 111.11 461.8-179.08 660.03-644.41 761.57-613.64 133.89-700.01 295.36-717.63 556.53Zm1481.38-3794.48c-36.73-45.91-80.35-68.87-137.74-68.87h-227.27v22.96c98.71 0 160.7 52.8 160.7 137.74v1033.04c0 84.94-61.99 137.74-160.7 137.74v22.96h369.6v-22.96c-98.71 0-160.69-52.8-160.69-137.74V2535.4l961.87 1216.69h22.96V2535.4c0-84.94 61.98-137.74 160.7-137.74v-22.96h-362.72c-6.88 0-6.88 22.96-6.88 22.96 98.71 0 160.69 52.8 160.69 137.74v895.3l-780.52-987.13Zm-1231.75-600.73h-12.77c-52.37 108.57-159.66 181.38-269.51 181.38-127.72 0-246.51-100.91-246.51-334.65 0-242.68 117.51-362.74 242.68-362.74 108.57 0 189.04 88.13 220.97 190.31h12.77v-204.36h-12.77c0 26.82-12.77 35.76-26.82 35.76-33.21 0-84.3-48.54-194.15-48.54-178.82 0-353.8 129.01-353.8 389.57s174.98 389.57 353.8 389.57c135.39 0 250.35-94.52 286.11-236.3Zm-1485.88-69.52H1353.5v72.57h5.19c9.33-32.66 14.51-41.99 24.36-49.76 10.88-9.33 26.95-11.92 76.71-11.92v258.65c0 19.17-13.99 31.09-36.28 31.09v5.19h113v-5.19c-22.29 0-36.29-11.92-36.29-31.09v-258.65c49.76 0 65.83 2.59 76.71 11.92 9.85 7.77 15.04 17.1 24.37 49.76h5.18v-72.57Zm444.73 154.46h57.54c16.06 0 26.95 12.96 31.1 36.29h5.18v-83.45h-5.18c-3.63 23.32-15.04 36.28-31.1 36.28h-57.54v-132.69c92.27 0 109.89 1.55 124.92 11.4 11.4 7.26 15.55 15.55 25.92 50.28h5.18v-72.57h-232.73v5.18c22.29 0 36.28 11.93 36.28 31.1v233.26c0 19.17-13.99 31.09-36.28 31.09v5.19h237.91v-82.94h-5.18c-8.81 33.18-12.44 43.03-19.7 51.84-13.99 17.62-31.1 20.21-136.32 20.21v-140.47Zm-342.1 0h154.46v115.08c0 19.17-13.99 31.09-36.28 31.09v5.19h113v-5.19c-22.29 0-36.29-11.92-36.29-31.09V1809.6c0-19.17 14-31.1 36.29-31.1v-5.18h-113v5.18c22.29 0 36.28 11.93 36.28 31.1v107.3h-154.46v-107.3c0-19.17 14-31.1 36.28-31.1v-5.18h-112.99v5.18c22.28 0 36.28 11.93 36.28 31.1v233.26c0 19.17-14 31.09-36.28 31.09v5.19h112.99v-5.19c-22.28 0-36.28-11.92-36.28-31.09v-115.08Z" style="fill:#8cbeb2;fill-rule:nonzero" transform="matrix(.0707 0 0 .0707 14.2978 9.54518)"/></svg>