<?xml version="1.0" encoding="UTF-8" standalone="no"?><!DOCTYPE svg PUBLIC "-//W3C//DTD SVG 1.1//EN" "http://www.w3.org/Graphics/SVG/1.1/DTD/svg11.dtd"><svg width="100%" height="100%" viewBox="0 0 27780 44446" version="1.1" xmlns="http://www.w3.org/2000/svg" xmlns:xlink="http://www.w3.org/1999/xlink" xml:space="preserve" xmlns:serif="http://www.serif.com/" style="fill-rule:evenodd;clip-rule:evenodd;stroke-linejoin:round;stroke-miterlimit:2;"><rect x="-128.75" y="-177" width="28037.5" height="44800" style="fill:#9db1b7;"/><path d="M13062,35845.6c-342,-0 -570,252 -570,630c-0,378 228,630 570,630c342,-0 570,-252 570,-630c0,-378 -228,-630 -570,-630Zm2226,456l819,-0c0,-270 -201,-456 -495,-456c-345,-0 -570,246 -570,630c-0,390 225,630 588,630c216,-0 366,-105 453,-309l-27,-12c-99,150 -225,228 -363,228c-246,-0 -414,-231 -414,-570c0,-48 3,-96 9,-141Zm-873,504l-294,-720c-9,-21 -12,-42 -12,-63c-0,-69 45,-117 123,-117l-0,-30l-525,-0l-0,30c75,-0 144,78 186,180l417,1020l30,-0l417,-1020c42,-99 123,-180 210,-180l0,-30l-420,-0l0,30c108,-0 174,48 174,120c-0,18 -6,39 -15,60l-291,720Zm2193,60l0,-1680c-108,63 -264,120 -390,120l0,30c120,-0 180,78 180,240l0,1290c0,99 -81,180 -180,180l0,30l570,-0l0,-30c-99,-0 -180,-81 -180,-180Zm-4656,-693l0,693c0,99 -81,180 -180,180l0,30l570,-0l0,-30c-99,-0 -180,-81 -180,-180l0,-663c0,-216 -138,-357 -345,-357c-192,-0 -366,120 -435,300l-0,-330c-108,63 -264,120 -390,120l0,30c120,-0 180,78 180,240l-0,660c-0,99 -81,180 -180,180l0,30l570,-0l-0,-30c-99,-0 -180,-81 -180,-180l-0,-486c-0,-246 159,-444 354,-444c132,-0 216,90 216,237Zm1110,-273c204,-0 336,225 336,576c0,351 -132,576 -336,576c-204,-0 -336,-225 -336,-576c-0,-351 132,-576 336,-576Zm2235,348c48,-216 168,-348 315,-348c159,-0 273,147 273,348l-588,-0Zm5394.23,-6302.97c-49.4,-13.925 -98.058,-30.787 -145.925,-50.808c-159.75,-22.383 -307.912,-4.225 -446.629,47.013c-86.5,31.949 -1015.92,-293.959 -1454.94,-671.709l-4.812,-67.4c-316.792,-74.079 -592.342,-189.317 -814.858,-364.687c-62.175,-82.246 -74.6,-172.779 -42.125,-270.8c67.287,-75.95 141.904,-109.771 222.654,-108.317c-1610.35,-1190.7 -4247.96,-1535.31 -6004.67,-1383.04c-7.833,0.679 -22.029,2.692 -23.812,3.209c-1072.05,310.85 -2130.81,349.279 -3170.77,2.191c-627.359,-18.308 -3019.73,409.438 -5066.17,2259.65c-156.412,72.755 -266.196,-12.591 -255.858,-154.225c2098.04,-2521.7 5046.62,-2969.58 5046.62,-2969.58c-395.063,18.471 -903.313,-194.992 -963.15,-344.258c-46.279,-115.446 -23.154,-217.542 66.196,-306.905c-36.73,-66.108 -98.455,-114.037 -192.567,-138.408l-378,76.754c-150.458,78.284 -269.292,40.617 -361.063,-96.283c-96.083,-128.825 -157.158,-262.679 -170.716,-433.279c-10.717,-134.879 62.179,-756.367 74.012,-824.721c-28.791,-51.267 -105.525,-207.667 -112.691,-240.658c-17.58,-80.93 -2.763,-153.021 37.612,-218.146c63.308,-36.15 106.717,-83.354 127.875,-142.921c50.571,-63.646 108.392,-100.704 173.013,-112.833c25.491,6.691 52.645,10.045 82.741,7.525c19.1,16.225 28.592,33.933 30.092,52.654c7.879,-7.342 19.733,-12.7 37.608,-15.046c96.971,39.096 160.342,104.792 173.013,210.621l45.133,142.925c33.583,91.283 23.638,174.508 -37.612,248.229c-9.117,42.675 -25.98,80.7 -52.655,112.833c-17.158,163.984 -11.7,311.921 -7.525,443.809c100.792,140.537 224.88,192.558 383.634,112.833l741.404,-352.6c1113.2,-523.179 2268.43,-240.233 2943.87,160.379c864.371,301.45 1748.75,202.767 2649.56,-224.533c1012.95,-394.017 1971.51,-449.067 2815.95,-305.021c329.192,56.154 704.196,314.6 913.454,491c241.738,203.775 453.284,72.217 868.429,197.742c362.075,109.479 743.025,502.854 955.863,730.704c813.583,49.646 1541.53,287.687 2226.72,619.808l1553.6,1319.56c203.741,286.296 327.083,594.517 366.654,925.584l647.287,804.629c32.171,47.775 49.896,101.746 47.013,164.546c144.917,170.466 90.404,348.937 -94.029,423.125c-59.921,146.566 -164.496,203.821 -317.342,164.546l-211.558,94.029c-218.117,29.325 -345.175,-151.571 -282.084,-340.85c-172.954,1.537 -286.612,-84.625 -281.829,-288.192c0.046,-1.871 -0.175,-3.754 -0.254,-5.646c10,-203.308 -42.525,-394 -141.037,-575.916c-293.684,-306.509 -547.217,-653.167 -766.275,-1034.3c-343.421,-126.309 -651.146,-312.109 -905.013,-587.671l-23.508,105.783l105.779,141.042c161.717,259.516 275.987,534.85 317.346,834.491c-44.954,154.063 -39.584,313.717 31.004,480.621c47.975,79.484 85.729,162.729 113.283,249.709c248.254,-118.096 509.004,-195.35 790.534,-233.559c-271.059,76.996 -527.421,179.184 -770.667,303.921c8.725,35.079 15.867,70.746 21.429,107.004c202.3,-64.391 409.763,-87.566 623.129,-63.475c-213.162,23.142 -416.896,74.559 -613.046,148.838c4.021,48.054 5.396,97.05 4.138,147.021c-13.663,65.566 -7.788,144.575 -55.096,183.008c-137.471,111.667 -260.008,250.775 -382.792,400.387c-37.262,45.405 -111.883,43.617 -175.112,58.359c-75.025,4.087 -148.988,3.912 -221.75,-1.15c-96.696,99.837 -185.371,204.879 -269.046,313.5c53.792,-112.546 112.813,-221.654 187.933,-321.271c-45.279,-5.558 -90.05,-13.154 -134.258,-22.946c-111.087,115.688 -219.542,228.404 -317.717,345.588c72.792,-128.921 158.05,-247.784 244.396,-364.009l-0.029,-0l0.012,-0.007Zm-12699.6,-16541.4l-90,0c-369,765 -1125,1278 -1899,1278c-900,0 -1737,-711 -1737,-2358c0,-1710 828,-2556 1710,-2556c765,0 1332,621 1557,1341l90,0l0,-1440l-90,0c0,189 -90,252 -189,252c-234,0 -594,-342 -1368,-342c-1260,0 -2493,909 -2493,2745c0,1836 1233,2745 2493,2745c954,0 1764,-666 2016,-1665Zm1494,-468l1881,0l585,1413c27,63 36,117 36,180c0,207 -180,360 -495,360l0,90l1827,0l0,-90c-279,0 -468,-189 -612,-540l-1953,-4770l-90,0l-1971,4770c-144,351 -324,540 -594,540l0,90l1287,0l0,-90c-333,0 -522,-162 -522,-387c0,-45 9,-99 36,-153l585,-1413Zm8289,-3267l-4392,0l0,1260l90,0c162,-567 252,-729 423,-864c189,-162 468,-207 1332,-207l0,4491c0,333 -243,540 -630,540l0,90l1962,0l0,-90c-387,0 -630,-207 -630,-540l0,-4491c864,0 1143,45 1332,207c171,135 261,297 423,864l90,0l0,-1260Zm-8217,3078l873,-2106l864,2106l-1737,0Zm-5715,-6769.19l0,3060l60,0c60,-126 162,-216 312,-282c186,180 444,282 726,282c672,0 1122,-522 1122,-1308c0,-738 -366,-1212 -930,-1212c-384,0 -732,240 -870,600l0,-1920c-216,126 -528,240 -780,240l0,60c240,0 360,156 360,480Zm7608,648c276,0 498,192 498,432c0,60 -12,114 -42,156c54,18 102,30 138,30c144,0 240,-84 240,-216c0,-288 -366,-510 -834,-510c-690,0 -1140,492 -1140,1260c0,780 450,1260 1176,1260c432,0 732,-210 906,-618l-54,-24c-198,300 -450,456 -726,456c-492,0 -828,-462 -828,-1140c0,-630 276,-1086 666,-1086Zm-2166,2088c0,192 156,324 384,324c216,0 420,-114 510,-294l-48,-36c-66,90 -186,150 -276,150c-96,0 -150,-66 -150,-186l0,-1458c0,-444 -306,-696 -840,-696c-456,0 -888,198 -888,612c0,204 144,318 378,318c66,0 132,-12 174,-30c-120,-90 -180,-222 -180,-360c0,-216 150,-432 450,-432c300,0 486,216 486,516c0,768 -1428,378 -1428,1302c0,330 312,594 708,594c270,0 570,-180 720,-426l0,102Zm4092,-156l0,-3360c-216,126 -528,240 -780,240l0,60c198,0 360,102 360,480l0,2580c0,198 -162,360 -360,360l0,60l1140,0l0,-60c-198,0 -360,-162 -360,-360Zm792,-1920c120,0 192,66 192,150c0,66 -36,138 -126,210l-738,600l690,960c84,114 108,156 108,216c0,72 -42,144 -168,144l0,60l1110,0l0,-60c-186,0 -390,-150 -552,-360l-798,-1140l516,-420c228,-186 528,-360 714,-360l0,-60l-948,0l0,60Zm-6984,1920l0,-3360c-216,126 -528,240 -780,240l0,60c240,0 360,156 360,480l0,2580c0,198 -162,360 -360,360l0,60l1140,0l0,-60c-198,0 -360,-162 -360,-360Zm-2922,108l0,-1080c0,-492 318,-888 708,-888c396,0 642,402 642,1062c0,714 -288,1140 -768,1140c-222,0 -444,-90 -582,-234Zm4014,-246c0,-522 654,-576 1008,-912l0,948c-162,264 -366,420 -588,420c-252,0 -420,-186 -420,-456Z" style="fill:#231f20;fill-rule:nonzero;"/><path d="M8389.5,40251l0,-1560c0,-111 81,-180 210,-180l0,-30l-654,0l0,30c129,0 210,69 210,180l0,1620c0,288 -84,441 -279,513l6,27c297,0 507,-249 507,-600Zm9930,-885c0,-612 -411,-915 -831,-915c-420,0 -831,303 -831,915c0,612 411,915 831,915c420,0 831,-303 831,-915Zm-7380,-795c-48,-60 -105,-90 -180,-90l-297,0l-0,30c129,0 210,69 210,180l-0,1350c-0,111 -81,180 -210,180l-0,30l483,0l0,-30c-129,0 -210,-69 -210,-180l-0,-1350l1257,1590l30,0l0,-1590c0,-111 81,-180 210,-180l0,-30l-474,0c-9,0 -9,30 -9,30c129,0 210,69 210,180l0,1170l-1020,-1290Zm8031,804l333,0c93,0 156,75 180,210l30,0l0,-483l-30,0c-21,135 -87,210 -180,210l-333,0l0,-768c534,0 636,9 723,66c66,42 90,90 150,291l30,0l0,-420l-1347,0l0,30c129,0 210,69 210,180l0,1350c0,111 -81,180 -210,180l0,30l1377,0l0,-480l-30,0c-51,192 -72,249 -114,300c-81,102 -180,117 -789,117l0,-813Zm-6111,0l333,0c93,0 156,75 180,210l30,0l0,-483l-30,0c-21,135 -87,210 -180,210l-333,0l0,-768c534,0 636,9 723,66c66,42 90,90 150,291l30,0l0,-420l-1347,0l0,30c129,0 210,69 210,180l0,1350c0,111 -81,180 -210,180l0,30l1377,0l0,-480l-30,0c-51,192 -72,249 -114,300c-81,102 -180,117 -789,117l0,-813Zm1881,-894l0,30c129,0 210,69 210,180l0,1350c0,111 -81,180 -210,180l0,30l792,0c507,0 861,-363 861,-885c0,-522 -354,-885 -861,-885l-792,0Zm-5625,1089l627,0l195,471c9,21 12,39 12,60c-0,69 -60,120 -165,120l-0,30l609,0l-0,-30c-93,0 -156,-63 -204,-180l-651,-1590l-30,0l-657,1590c-48,117 -108,180 -198,180l0,30l429,0l0,-30c-111,0 -174,-54 -174,-129c-0,-15 3,-33 12,-51l195,-471Zm8946,-204c0,576 -279,852 -573,852c-294,0 -573,-276 -573,-852c0,-576 279,-852 573,-852c294,0 573,276 573,852Zm-1932,3c0,495 -234,819 -594,819l-141,0c-129,0 -210,-69 -210,-180l0,-1464l351,0c357,0 594,330 594,825Zm-6990,138l291,-702l288,702l-579,0Z" style="fill:#fff;fill-rule:nonzero;"/><path d="M20006.2,29615c-7.325,-0.063 0.579,20.033 7.887,20.508c205.867,13.408 272.121,-3.154 384.913,-186.146c3.629,-5.887 -16.096,-8.479 -20.509,-3.154c-130.145,156.962 -188.512,170.371 -372.291,168.792Zm759.2,-935.2c5.584,9.784 45.625,30.275 71.721,31.663c125.888,6.683 235.388,-188.413 195.225,-325.288c-7.75,-26.404 -45.487,-57.054 -58.371,-58.366c-12.883,-1.317 -18.716,39.637 -18.929,50.479c-0.15,7.629 12.259,9.179 17.659,14.571c76.945,76.837 -21.346,300.808 -165.942,278.841c-6.325,-0.958 3.121,-20.158 -3.154,-18.929c-6.896,1.35 -43.796,17.25 -38.209,27.029Zm-11637.9,-23299.8l-21,-18c-45,45 -120,75 -189,75c-123,-0 -192,-99 -192,-276l-0,-822l345,-0l-0,-54l-345,-0l-0,-387l-30,-0c-15,90 -51,174 -102,246c-66,90 -153,150 -243,174l-0,21l165,-0l-0,858c-0,219 93,318 306,318c144,-0 249,-45 306,-135Zm1836,-669l819,-0c-0,-270 -201,-456 -495,-456c-345,-0 -570,246 -570,630c-0,390 225,630 588,630c216,-0 366,-105 453,-309l-27,-12c-99,150 -225,228 -363,228c-246,-0 -414,-231 -414,-570c-0,-48 3,-96 9,-141Zm-786,-129l-0,693c-0,99 -81,180 -180,180l-0,30l570,-0l-0,-30c-99,-0 -180,-81 -180,-180l-0,-663c-0,-216 -138,-357 -345,-357c-192,-0 -366,120 -435,300l-0,-960c-108,63 -264,120 -390,120l-0,30c120,-0 180,78 180,240l-0,1290c-0,99 -81,180 -180,180l-0,30l570,-0l-0,-30c-99,-0 -180,-81 -180,-180l-0,-486c-0,-246 159,-444 354,-444c132,-0 216,90 216,237Zm795,75c48,-216 168,-348 315,-348c159,-0 273,147 273,348l-588,-0Z" style="fill:#f25e0d;fill-rule:nonzero;"/></svg>