<svg xmlns="http://www.w3.org/2000/svg" xml:space="preserve" style="fill-rule:evenodd;clip-rule:evenodd;stroke-linejoin:round;stroke-miterlimit:2" viewBox="0 0 27780 44446"><path d="M-128.75-177h28037.5v44800H-128.75z" style="fill:#77a998"/><path d="M9425.76 40060.3v-1579.86c0-112.413 82.032-182.292 212.674-182.292v-30.382h-662.327v30.382c130.642 0 212.674 69.879 212.674 182.292v1640.63c0 291.667-85.07 446.615-282.553 519.532l6.076 27.344c300.782 0 513.456-252.171 513.456-607.64Zm8616.33-783.856h829.428c0-273.438-203.559-461.806-501.303-461.806-349.393 0-577.258 249.132-577.258 638.022 0 394.966 227.865 638.022 595.487 638.022 218.751 0 370.661-106.337 458.769-312.935l-27.344-12.152c-100.261 151.91-227.865 230.903-367.622 230.903-249.133 0-419.272-233.942-419.272-577.258 0-48.611 3.038-97.223 9.115-142.796Zm-5265.2 0h829.429c0-273.438-203.56-461.806-501.303-461.806-349.393 0-577.258 249.132-577.258 638.022 0 394.966 227.865 638.022 595.487 638.022 218.75 0 370.66-106.337 458.768-312.935l-27.344-12.152c-100.26 151.91-227.865 230.903-367.622 230.903-249.132 0-419.272-233.942-419.272-577.258 0-48.611 3.039-97.223 9.115-142.796Zm4226.14-461.806c-346.355 0-577.258 255.209-577.258 638.022 0 382.813 230.903 638.022 577.258 638.022s577.258-255.209 577.258-638.022c0-382.813-230.903-638.022-577.258-638.022Zm-6489.6 1111.98c0 97.223 78.993 164.063 194.445 164.063 109.375 0 212.674-57.726 258.247-148.872l-24.306-18.229c-33.42 45.573-94.184 75.955-139.757 75.955-48.611 0-75.955-33.42-75.955-94.184v-738.283c0-224.827-154.948-352.431-425.348-352.431-230.903 0-449.654 100.261-449.654 309.896 0 103.299 72.917 161.025 191.407 161.025 33.42 0 66.84-6.076 88.108-15.191-60.764-45.573-91.146-112.413-91.146-182.292 0-109.375 75.955-218.75 227.865-218.75 151.91 0 246.094 109.375 246.094 261.285 0 388.889-723.092 191.406-723.092 659.289 0 167.101 157.987 300.782 358.508 300.782 136.719 0 288.629-91.146 364.584-215.712v51.649Zm1467.45-780.817v701.824c0 100.261-82.032 182.292-182.292 182.292v30.382h577.258v-30.382c-100.261 0-182.292-82.031-182.292-182.292v-671.442c0-218.751-139.758-361.546-349.393-361.546-194.445 0-370.661 121.528-440.539 303.82v-334.202c-109.376 63.802-267.362 121.528-394.966 121.528v30.382c121.528 0 182.292 78.993 182.292 243.056v668.404c0 100.261-82.032 182.292-182.292 182.292v30.382h577.258v-30.382c-100.261 0-182.292-82.031-182.292-182.292v-492.188c0-249.133 161.024-449.654 358.507-449.654 133.681 0 218.751 91.146 218.751 240.018Zm2530.82-878.04v30.382c130.643 0 212.674 69.879 212.674 182.292v1367.19c0 112.413-82.031 182.292-212.674 182.292v30.382h802.085c513.456 0 871.963-367.622 871.963-896.269 0-528.647-358.507-896.269-871.963-896.269H14511.7Zm2491.32 601.564c206.598 0 340.279 227.865 340.279 583.334 0 355.469-133.681 583.334-340.279 583.334-206.597 0-340.278-227.865-340.278-583.334 0-355.469 133.681-583.334 340.278-583.334Zm-7000.01 908.421c0-264.323 331.164-291.667 510.418-461.806v480.036c-82.031 133.68-185.33 212.674-297.744 212.674-127.604 0-212.674-94.185-212.674-230.904Zm5915.38-610.678c0 501.303-236.98 829.429-601.564 829.429h-142.795c-130.643 0-212.674-69.879-212.674-182.292v-1482.64h355.469c361.546 0 601.564 334.202 601.564 835.505Zm2132.82 54.688c48.611-218.751 170.139-352.431 319.011-352.431 161.025 0 276.476 148.871 276.476 352.431h-595.487Zm-5265.2 0c48.611-218.751 170.139-352.431 319.011-352.431 161.024 0 276.476 148.871 276.476 352.431h-595.487Z" style="fill:#fff;fill-rule:nonzero"/><path d="M15304.7 36364.4h829.428c0-273.438-203.559-461.806-501.303-461.806-349.393 0-577.258 249.132-577.258 638.022 0 394.966 227.865 638.022 595.488 638.022 218.75 0 370.66-106.337 458.768-312.935l-27.344-12.152c-100.261 151.91-227.865 230.903-367.622 230.903-249.133 0-419.272-233.942-419.272-577.258 0-48.611 3.038-97.223 9.115-142.796Zm-2254.35-461.806c-346.354 0-577.258 255.209-577.258 638.022 0 382.813 230.904 638.022 577.258 638.022 346.355 0 577.258-255.209 577.258-638.022 0-382.813-230.903-638.022-577.258-638.022Zm1370.23 972.224-297.744-729.168c-9.115-21.267-12.153-42.535-12.153-63.802 0-69.879 45.573-118.49 124.566-118.49v-30.382h-531.685v30.382c75.955 0 145.834 78.993 188.369 182.292l422.31 1032.99h30.382l422.309-1032.99c42.535-100.261 124.567-182.292 212.674-182.292v-30.382h-425.348v30.382c109.376 0 176.216 48.611 176.216 121.528 0 18.229-6.076 39.497-15.191 60.764l-294.705 729.168Zm-2494.36-641.06v701.824c0 100.261-82.031 182.292-182.292 182.292v30.382h577.258v-30.382c-100.26 0-182.292-82.031-182.292-182.292v-671.442c0-218.751-139.757-361.546-349.393-361.546-194.444 0-370.66 121.528-440.539 303.82v-334.202c-109.375 63.802-267.361 121.528-394.966 121.528v30.382c121.528 0 182.292 78.993 182.292 243.056v668.404c0 100.261-82.031 182.292-182.292 182.292v30.382h577.258v-30.382c-100.26 0-182.292-82.031-182.292-182.292v-492.188c0-249.133 161.025-449.654 358.508-449.654 133.681 0 218.75 91.146 218.75 240.018Zm4715.29 701.824v-1701.39c-109.375 63.802-267.362 121.528-394.966 121.528v30.382c121.528 0 182.292 78.993 182.292 243.056v1306.43c0 100.261-82.032 182.292-182.292 182.292v30.382h577.258v-30.382c-100.261 0-182.292-82.031-182.292-182.292Zm-3591.15-978.3c206.598 0 340.279 227.865 340.279 583.334 0 355.469-133.681 583.334-340.279 583.334-206.597 0-340.278-227.865-340.278-583.334 0-355.469 133.681-583.334 340.278-583.334Zm2263.46 352.431c48.612-218.751 170.14-352.431 319.011-352.431 161.025 0 276.477 148.871 276.477 352.431h-595.488Zm5376.25-4422.26c-49.4-13.925-98.058-30.787-145.925-50.808-159.75-22.383-307.912-4.225-446.629 47.013-86.5 31.949-1015.92-293.959-1454.94-671.709l-4.812-67.4c-316.792-74.079-592.342-189.317-814.858-364.687-62.175-82.246-74.6-172.779-42.125-270.8 67.287-75.95 141.904-109.771 222.654-108.317-1610.35-1190.7-4247.96-1535.31-6004.67-1383.04-7.833.679-22.029 2.692-23.812 3.209-1072.05 310.85-2130.81 349.279-3170.77 2.191-627.359-18.308-3019.73 409.438-5066.17 2259.65-156.412 72.755-266.196-12.591-255.858-154.225 2098.04-2521.7 5046.62-2969.58 5046.62-2969.58-395.063 18.471-903.313-194.992-963.15-344.258-46.279-115.446-23.154-217.542 66.196-306.905-36.73-66.108-98.455-114.037-192.567-138.408l-378 76.754c-150.458 78.284-269.292 40.617-361.063-96.283-96.083-128.825-157.158-262.679-170.716-433.279-10.717-134.879 62.179-756.367 74.012-824.721-28.791-51.267-105.525-207.667-112.691-240.658-17.58-80.93-2.763-153.021 37.612-218.146 63.308-36.15 106.717-83.354 127.875-142.921 50.571-63.646 108.392-100.704 173.013-112.833 25.491 6.691 52.645 10.045 82.741 7.525 19.1 16.225 28.592 33.933 30.092 52.654 7.879-7.342 19.733-12.7 37.608-15.046 96.971 39.096 160.342 104.792 173.013 210.621l45.133 142.925c33.583 91.283 23.638 174.508-37.612 248.229-9.117 42.675-25.98 80.7-52.655 112.833-17.158 163.984-11.7 311.921-7.525 443.809 100.792 140.537 224.88 192.558 383.634 112.833l741.404-352.6c1113.2-523.179 2268.43-240.233 2943.87 160.379 864.371 301.45 1748.75 202.767 2649.56-224.533 1012.95-394.017 1971.51-449.067 2815.95-305.021 329.192 56.154 704.196 314.6 913.454 491 241.738 203.775 453.284 72.217 868.429 197.742 362.075 109.479 743.025 502.854 955.863 730.704 813.583 49.646 1541.53 287.687 2226.72 619.808l1553.6 1319.56c203.741 286.296 327.083 594.517 366.654 925.584l647.287 804.629c32.171 47.775 49.896 101.746 47.013 164.546 144.917 170.466 90.404 348.937-94.029 423.125-59.921 146.566-164.496 203.821-317.342 164.546l-211.558 94.029c-218.117 29.325-345.175-151.571-282.084-340.85-172.954 1.537-286.612-84.625-281.829-288.192.046-1.871-.175-3.754-.254-5.646 10-203.308-42.525-394-141.037-575.916-293.684-306.509-547.217-653.167-766.275-1034.3-343.421-126.309-651.146-312.109-905.013-587.671l-23.508 105.783 105.779 141.042c161.717 259.516 275.987 534.85 317.346 834.491-44.954 154.063-39.584 313.717 31.004 480.621 47.975 79.484 85.729 162.729 113.283 249.709 248.254-118.096 509.004-195.35 790.534-233.559-271.059 76.996-527.421 179.184-770.667 303.921 8.725 35.079 15.867 70.746 21.429 107.004 202.3-64.391 409.763-87.566 623.129-63.475-213.162 23.142-416.896 74.559-613.046 148.838 4.021 48.054 5.396 97.05 4.138 147.021-13.663 65.566-7.788 144.575-55.096 183.008-137.471 111.667-260.008 250.775-382.792 400.387-37.262 45.405-111.883 43.617-175.112 58.359-75.025 4.087-148.988 3.912-221.75-1.15-96.696 99.837-185.371 204.879-269.046 313.5 53.792-112.546 112.813-221.654 187.933-321.271-45.279-5.558-90.05-13.154-134.258-22.946-111.087 115.688-219.542 228.404-317.717 345.588 72.792-128.921 158.05-247.784 244.396-364.009h-.029l.012-.007Zm-10358.2-14522.7h-121.528c-498.265 1032.99-1519.1 1725.7-2564.24 1725.7-1215.28 0-2345.49-960.072-2345.49-3184.03 0-2309.03 1118.06-3451.39 2309.03-3451.39 1032.99 0 1798.61 838.543 2102.43 1810.77H9833.6v-1944.45h-121.528c0 255.209-121.528 340.278-255.209 340.278-315.972 0-802.084-461.806-1847.23-461.806-1701.39 0-3366.33 1227.43-3366.33 3706.6s1664.93 3706.6 3366.33 3706.6c1288.2 0 2381.95-899.307 2722.23-2248.27Zm2017.37-631.946h2539.93l789.932 1907.99c36.458 85.07 48.611 157.986 48.611 243.056 0 279.514-243.056 486.112-668.404 486.112v121.528h2467.02v-121.528c-376.737 0-631.946-255.209-826.391-729.168l-2637.16-6440.98h-121.528l-2661.46 6440.98c-194.444 473.959-437.5 729.168-802.084 729.168v121.528h1737.85v-121.528c-449.654 0-704.862-218.75-704.862-522.57 0-60.764 12.152-133.681 48.611-206.598l789.932-1907.99Zm11192.7-4411.47h-5930.57v1701.39h121.528c218.751-765.626 340.279-984.377 571.182-1166.67 255.209-218.75 631.945-279.514 1798.61-279.514v6064.25c0 449.654-328.125 729.168-850.696 729.168v121.528h2649.31v-121.528c-522.571 0-850.696-279.514-850.696-729.168v-6064.25c1166.67 0 1543.4 60.764 1798.61 279.514 230.903 182.292 352.431 401.043 571.182 1166.67h121.528v-1701.39Zm-11095.5 4156.26 1178.82-2843.76 1166.67 2843.76h-2345.49Zm-7838.56-7855.4v3098.95h60.764c60.763-127.604 164.062-218.75 315.971-285.59 188.368 182.291 449.652 285.59 735.242 285.59 680.555 0 1136.28-528.645 1136.28-1324.65 0-747.395-370.659-1227.43-941.839-1227.43-388.888 0-741.318 243.055-881.075 607.638v-1944.44c-218.749 127.604-534.721 243.055-789.929 243.055v60.764c243.055 0 364.583 157.985 364.583 486.11Zm7704.85 656.249c279.513 0 504.339 194.444 504.339 437.499 0 60.764-12.153 115.452-42.535 157.986 54.688 18.229 103.299 30.382 139.757 30.382 145.833 0 243.055-85.069 243.055-218.749 0-291.667-370.659-516.493-844.616-516.493-698.784 0-1154.51 498.263-1154.51 1276.04 0 789.929 455.729 1276.04 1190.97 1276.04 437.499 0 741.318-212.673 917.533-625.867l-54.687-24.306c-200.521 303.819-455.729 461.805-735.242 461.805-498.263 0-838.541-467.881-838.541-1154.51 0-638.02 279.514-1099.83 674.479-1099.83Zm-2193.57 2114.58c0 194.444 157.986 328.125 388.889 328.125 218.749 0 425.346-115.451 516.492-297.743l-48.611-36.458c-66.84 91.146-188.368 151.909-279.513 151.909-97.223 0-151.91-66.84-151.91-188.367v-1476.56c0-449.652-309.895-704.86-850.693-704.86-461.805 0-899.304 200.521-899.304 619.791 0 206.597 145.833 322.048 382.812 322.048 66.84 0 133.68-12.153 176.215-30.382-121.528-91.145-182.292-224.826-182.292-364.583 0-218.749 151.91-437.499 455.729-437.499 303.819 0 492.186 218.75 492.186 522.569 0 777.776-1446.18 382.812-1446.18 1318.57 0 334.201 315.972 601.562 717.013 601.562 273.437 0 577.256-182.292 729.165-431.423v103.298Zm-2126.73-157.986V7832.27c-218.749 127.604-534.721 243.055-789.929 243.055v60.764c243.055 0 364.583 157.985 364.583 486.11v2612.84c0 200.521-164.062 364.583-364.583 364.583v60.764h1154.51v-60.764c-200.52 0-364.583-164.062-364.583-364.583Zm7072.91-1944.44c121.527 0 194.444 66.84 194.444 151.909 0 66.84-36.458 139.757-127.604 212.674l-747.395 607.638 698.784 972.22c85.069 115.452 109.375 157.986 109.375 218.75 0 72.917-42.535 145.833-170.139 145.833v60.764h1124.13v-60.764c-188.367 0-394.964-151.909-559.027-364.583l-808.158-1154.51 522.569-425.346c230.902-188.368 534.721-364.583 723.089-364.583v-60.764h-960.068v60.764Zm-802.082 1944.44V7832.27c-218.75 127.604-534.722 243.055-789.93 243.055v60.764c200.521 0 364.583 103.298 364.583 486.11v2612.84c0 200.521-164.062 364.583-364.583 364.583v60.764h1154.51v-60.764c-200.52 0-364.582-164.062-364.582-364.583Zm-9230.02 109.375v-1093.75c0-498.263 322.048-899.304 717.013-899.304 401.041 0 650.173 407.117 650.173 1075.52 0 723.089-291.666 1154.51-777.777 1154.51-224.826 0-449.652-91.146-589.409-236.979Zm4065.1-249.131c0-528.645 662.325-583.333 1020.83-923.61v960.068c-164.062 267.361-370.659 425.347-595.485 425.347-255.208 0-425.346-188.368-425.346-461.805Z" style="fill-rule:nonzero"/><path d="M20005 31557.8c-7.325-.063.579 20.033 7.887 20.508 205.867 13.408 272.121-3.154 384.913-186.146 3.629-5.887-16.096-8.479-20.509-3.154-130.145 156.962-188.512 170.371-372.291 168.792Zm759.2-935.2c5.584 9.784 45.625 30.275 71.721 31.663 125.888 6.683 235.388-188.413 195.225-325.288-7.75-26.404-45.487-57.054-58.371-58.366-12.883-1.317-18.716 39.637-18.929 50.479-.15 7.629 12.259 9.179 17.659 14.571 76.945 76.837-21.346 300.808-165.942 278.841-6.325-.958 3.121-20.158-3.154-18.929-6.896 1.35-43.796 17.25-38.209 27.029ZM5030.2 7216.8l-21.267-18.229c-45.573 45.573-121.528 75.955-191.407 75.955-124.566 0-194.445-100.261-194.445-279.515v-832.466h349.393v-54.688h-349.393v-391.928h-30.382c-15.191 91.146-51.649 176.216-103.299 249.133-66.84 91.146-154.948 151.91-246.094 176.215v21.268h167.101v868.925c0 221.788 94.184 322.049 309.897 322.049 145.833 0 252.17-45.573 309.896-136.719Zm1859.38-677.519h829.429c0-273.438-203.559-461.806-501.303-461.806-349.393 0-577.258 249.132-577.258 638.022 0 394.966 227.865 638.022 595.487 638.022 218.751 0 370.661-106.337 458.768-312.935l-27.343-12.152c-100.261 151.91-227.865 230.903-367.623 230.903-249.132 0-419.271-233.942-419.271-577.258 0-48.611 3.038-97.223 9.114-142.796Zm-796.008-130.642v701.824c0 100.261-82.031 182.292-182.292 182.292v30.382h577.258v-30.382c-100.261 0-182.292-82.031-182.292-182.292v-671.442c0-218.751-139.757-361.546-349.393-361.546-194.445 0-370.66 121.528-440.539 303.82v-972.224c-109.375 63.802-267.362 121.528-394.966 121.528v30.382c121.528 0 182.292 78.993 182.292 243.056v1306.43c0 100.261-82.031 182.292-182.292 182.292v30.382h577.258v-30.382c-100.261 0-182.292-82.031-182.292-182.292v-492.188c0-249.133 161.025-449.654 358.508-449.654 133.68 0 218.75 91.146 218.75 240.018Zm805.123 75.955c48.611-218.751 170.139-352.431 319.011-352.431 161.025 0 276.476 148.871 276.476 352.431h-595.487Z" style="fill:#f25e0d;fill-rule:nonzero"/></svg>