<svg xmlns="http://www.w3.org/2000/svg" xml:space="preserve" style="fill-rule:evenodd;clip-rule:evenodd;stroke-linejoin:round;stroke-miterlimit:2" viewBox="0 0 500 700"><path d="M34 368h171v196H34z" style="fill:#9db1b7" transform="matrix(2.92398 0 0 3.57143 -99.4152 -1314.29)"/><text x="23.768" y="49.268" style="font-family:&quot;Verdana&quot;,sans-serif;font-size:11.562px" transform="matrix(.86486 0 0 .86486 183.277 637.356)">© 2025 Astrid Schäfer</text><path d="M1612 3113C846 2877 295 2168 295 1321.33h104c0 971 792 1771 1771 1771s1771-800 1771-1770.83h104c0 847-551 1556-1317 1791.67h946V3184H2389c-119 14-239 16-358 7-27-2-54-4-80-7.49H666v-71" style="fill:#89838d" transform="matrix(.00439 0 0 .00439 182.07 667.085)"/><circle cx="3821" cy="3146" r="175" style="fill:#c83154" transform="matrix(.00439 0 0 .00439 182.07 667.085)"/><circle cx="521" cy="3146" r="175" style="fill:#c83154" transform="matrix(.00439 0 0 .00439 182.07 667.085)"/><path d="M167 1041.67h333v333H167v-333Zm3667 0h333v333h-333v-333ZM2001 2958.34h333v333h-333v-333Z" style="fill:#fff" transform="matrix(.00439 0 0 .00439 182.07 667.085)"/><path d="m393.005 602.329-4.031-9.801c-.158-.395-.237-.75-.237-1.067 0-.83.553-1.304 1.58-1.304v-.395h-6.916v.395c1.028 0 2.016 1.028 2.569 2.371l4.506 10.948c.316.79.513 1.738.513 2.687 0 2.885-1.739 4.901-3.596 4.901-1.146 0-2.016-.593-2.529-1.621-.356.712-.475 1.146-.475 1.66 0 1.462.87 2.371 2.214 2.371 3.438 0 6.125-8.418 6.797-10.196l4.229-10.75c.593-1.541 1.343-2.371 2.371-2.371v-.395h-4.742v.395c.988 0 1.817.474 1.817 1.462 0 .277-.079.554-.197.909l-3.873 9.801Zm-47.464-9.01v-4.347c-1.423.83-3.478 1.58-5.138 1.58v.396c1.581 0 2.371 1.027 2.371 3.161v16.204c0 1.304-1.067 2.371-2.371 2.371v.395h7.509v-.395c-1.304 0-2.371-1.067-2.371-2.371v-5.928c1.185 1.027 2.766 1.58 4.505 1.58 4.426 0 7.351-3.477 7.351-8.694 0-4.743-2.45-7.904-6.126-7.904-2.529 0-4.821 1.581-5.73 3.952Zm33.078 10.512c0 1.265 1.028 2.134 2.53 2.134 1.422 0 2.766-.751 3.359-1.936l-.316-.237c-.435.593-1.225.988-1.818.988-.632 0-.988-.435-.988-1.225v-9.604c0-2.924-2.016-4.584-5.533-4.584-3.004 0-5.849 1.304-5.849 4.031 0 1.344.948 2.094 2.49 2.094.434 0 .869-.079 1.146-.197-.791-.593-1.186-1.462-1.186-2.371 0-1.423.988-2.846 2.964-2.846s3.201 1.423 3.201 3.399c0 5.059-9.405 2.49-9.405 8.576 0 2.173 2.055 3.912 4.663 3.912 1.778 0 3.754-1.185 4.742-2.806v.672Zm-216.769 0c0 1.265 1.027 2.134 2.529 2.134 1.423 0 2.766-.751 3.359-1.936l-.316-.237c-.435.593-1.225.988-1.818.988-.632 0-.988-.435-.988-1.225v-9.604c0-2.924-2.016-4.584-5.533-4.584-3.003 0-5.849 1.304-5.849 4.031 0 1.344.949 2.094 2.49 2.094.435 0 .869-.079 1.146-.197-.79-.593-1.186-1.462-1.186-2.371 0-1.423.988-2.846 2.964-2.846s3.202 1.423 3.202 3.399c0 5.059-9.406 2.49-9.406 8.576 0 2.173 2.055 3.912 4.663 3.912 1.779 0 3.755-1.185 4.743-2.806v.672Zm108.207-8.457h10.789c0-3.557-2.648-6.007-6.521-6.007-4.545 0-7.509 3.24-7.509 8.299 0 5.138 2.964 8.299 7.746 8.299 2.845 0 4.821-1.383 5.968-4.07l-.356-.158c-1.304 1.976-2.964 3.003-4.782 3.003-3.241 0-5.454-3.043-5.454-7.509 0-.632.04-1.264.119-1.857Zm57.541 10.196h.396c.197-.593.434-.79.751-.79.829 0 1.857 1.185 3.991 1.185 2.806 0 5.138-2.292 5.138-5.058 0-4.94-8.22-4.822-8.22-8.497 0-1.265 1.225-2.332 2.647-2.332 1.7 0 3.241 1.462 4.19 4.031h.395v-4.347h-.395c-.198.593-.396.83-.672.83-.751 0-1.542-1.225-3.478-1.225-2.529 0-4.624 2.015-4.624 4.505 0 4.94 8.26 4.822 8.26 8.576 0 1.502-1.462 2.806-3.201 2.806-2.134 0-3.873-1.778-4.782-4.821h-.396v5.137Zm-201.594-19.76v20.155h.396c.395-.83 1.067-1.422 2.055-1.857 1.225 1.186 2.924 1.857 4.782 1.857 4.426 0 7.39-3.438 7.39-8.615 0-4.861-2.411-7.983-6.126-7.983-2.529 0-4.821 1.581-5.73 3.952v-12.647c-1.423.83-3.478 1.581-5.138 1.581v.395c1.581 0 2.371 1.028 2.371 3.162Zm133.224 6.718v6.403c0 3.24-2.095 5.849-4.663 5.849-1.739 0-2.846-1.186-2.846-3.122v-11.896h-5.138v.395c1.305 0 2.372 1.067 2.372 2.371v8.734c0 2.846 1.778 4.703 4.505 4.703 2.529 0 4.861-1.58 5.77-3.952v1.186c0 .83.158 1.936.395 2.766l4.743-.671v-.396c-1.779-.316-2.372-1.185-2.372-3.675v-11.461h-5.137v.395c1.304 0 2.371 1.067 2.371 2.371Zm-24.621 2.846h10.789c0-3.557-2.648-6.007-6.521-6.007-4.545 0-7.509 3.24-7.509 8.299 0 5.138 2.964 8.299 7.746 8.299 2.846 0 4.822-1.383 5.968-4.07l-.356-.158c-1.304 1.976-2.964 3.003-4.782 3.003-3.241 0-5.454-3.043-5.454-7.509 0-.632.04-1.264.119-1.857Zm-44.935 8.457c0 1.265 1.028 2.134 2.529 2.134 1.423 0 2.767-.751 3.36-1.936l-.317-.237c-.434.593-1.225.988-1.818.988-.632 0-.988-.435-.988-1.225v-9.604c0-2.924-2.015-4.584-5.532-4.584-3.004 0-5.849 1.304-5.849 4.031 0 1.344.948 2.094 2.489 2.094.435 0 .87-.079 1.146-.197-.79-.593-1.185-1.462-1.185-2.371 0-1.423.988-2.846 2.964-2.846s3.201 1.423 3.201 3.399c0 5.059-9.406 2.49-9.406 8.576 0 2.173 2.055 3.912 4.664 3.912 1.778 0 3.754-1.185 4.742-2.806v.672Zm-10.789.356-.277-.237c-.593.593-1.581.988-2.49.988-1.62 0-2.529-1.304-2.529-3.636v-10.829h4.545v-.711h-4.545v-5.098h-.395c-.198 1.185-.672 2.292-1.344 3.241-.869 1.185-2.015 1.976-3.201 2.292v.276h2.174v11.303c0 2.885 1.225 4.189 4.031 4.189 1.897 0 3.28-.592 4.031-1.778Zm33.632-20.748c-.633-.791-1.383-1.186-2.371-1.186h-3.913v.395c1.699 0 2.766.909 2.766 2.372v17.784c0 1.462-1.067 2.371-2.766 2.371v.395h6.363v-.395c-1.7 0-2.767-.909-2.767-2.371V585.02l16.56 20.945h.395V585.02c0-1.463 1.067-2.372 2.766-2.372v-.395h-6.244c-.119 0-.119.395-.119.395 1.7 0 2.767.909 2.767 2.372v15.413l-13.437-16.994Zm-90.621 10.473c0-8.063-5.414-12.054-10.947-12.054-5.533 0-10.947 3.991-10.947 12.054 0 8.062 5.414 12.053 10.947 12.053 5.533 0 10.947-3.991 10.947-12.053Zm170.729-11.659v.395c1.699 0 2.766.909 2.766 2.372v17.784c0 1.462-1.067 2.371-2.766 2.371v.395h10.433c6.679 0 11.343-4.782 11.343-11.658 0-6.877-4.664-11.659-11.343-11.659h-10.433Zm29.68 20.551v-13.832c-1.423.83-3.478 1.58-5.138 1.58v.396c1.304 0 2.371.671 2.371 3.161v8.695c0 1.304-1.067 2.371-2.371 2.371v.395h7.509v-.395c-1.304 0-2.371-1.067-2.371-2.371Zm-174.286 0v-22.132c-1.422.83-3.477 1.581-5.137 1.581v.395c1.581 0 2.371 1.028 2.371 3.162v16.994c0 1.304-1.067 2.371-2.371 2.371v.395h7.509v-.395c-1.305 0-2.372-1.067-2.372-2.371Zm216.77 0v-22.132c-1.422.83-3.478 1.581-5.137 1.581v.395c1.58 0 2.371 1.028 2.371 3.162v16.994c0 1.304-1.067 2.371-2.371 2.371v.395h7.508v-.395c-1.304 0-2.371-1.067-2.371-2.371Zm-246.291-8.892c0 7.588-3.676 11.223-7.549 11.223s-7.548-3.635-7.548-11.223c0-7.588 3.675-11.224 7.548-11.224s7.549 3.636 7.549 11.224Zm10.275 9.603v-7.114c0-3.24 2.094-5.849 4.663-5.849 2.609 0 4.229 2.648 4.229 6.996 0 4.702-1.897 7.508-5.059 7.508-1.462 0-2.924-.592-3.833-1.541Zm216.77 0v-7.114c0-3.24 2.094-5.849 4.663-5.849 2.609 0 4.229 2.648 4.229 6.996 0 4.702-1.897 7.508-5.059 7.508-1.462 0-2.924-.592-3.833-1.541Zm26.439-1.62c0-3.439 4.308-3.794 6.639-6.007v6.244c-1.067 1.739-2.41 2.766-3.873 2.766-1.659 0-2.766-1.225-2.766-3.003Zm-216.77 0c0-3.439 4.308-3.794 6.64-6.007v6.244c-1.067 1.739-2.411 2.766-3.873 2.766-1.66 0-2.767-1.225-2.767-3.003Zm27.823 0c0-3.439 4.307-3.794 6.639-6.007v6.244c-1.067 1.739-2.411 2.766-3.873 2.766-1.66 0-2.766-1.225-2.766-3.003Zm127.888-7.944c0 6.521-3.083 10.789-7.825 10.789h-1.858c-1.699 0-2.766-.909-2.766-2.371v-19.286h4.624c4.703 0 7.825 4.347 7.825 10.868Zm-76.196.712c.633-2.846 2.213-4.585 4.15-4.585 2.095 0 3.596 1.937 3.596 4.585h-7.746Zm35.45 0c.633-2.846 2.213-4.585 4.15-4.585 2.094 0 3.596 1.937 3.596 4.585h-7.746Zm50.468-12.015c-.988 0-1.779.791-1.779 1.779 0 .988.791 1.778 1.779 1.778.988 0 1.778-.79 1.778-1.778s-.79-1.779-1.778-1.779ZM400 565.753H100v1h300v-1Zm-56.078-141.118c-.712-.201-1.413-.444-2.103-.732-2.302-.323-4.438-.061-6.437.677-1.247.461-14.642-4.236-20.97-9.681l-.069-.971c-4.566-1.068-8.538-2.729-11.745-5.256-.896-1.186-1.075-2.491-.607-3.903.97-1.095 2.045-1.583 3.209-1.562-23.21-17.161-61.225-22.128-86.544-19.933-.113.01-.318.039-.343.046-15.452 4.48-30.712 5.034-45.7.032-9.042-.264-43.523 5.901-73.018 32.568-2.255 1.048-3.837-.182-3.688-2.223 30.239-36.345 72.736-42.8 72.736-42.8-5.694.266-13.019-2.811-13.882-4.962-.667-1.664-.333-3.135.955-4.423-.53-.953-1.419-1.644-2.776-1.995l-5.448 1.106c-2.169 1.128-3.881.585-5.204-1.388-1.385-1.857-2.265-3.786-2.46-6.245-.155-1.944.896-10.901 1.066-11.886-.415-.739-1.521-2.993-1.624-3.469-.253-1.166-.04-2.205.542-3.144.913-.521 1.538-1.201 1.843-2.06.729-.917 1.562-1.451 2.494-1.626.367.096.759.145 1.192.108.276.234.412.49.434.759.114-.105.284-.183.542-.216 1.398.563 2.311 1.51 2.494 3.035l.65 2.06c.484 1.316.341 2.515-.542 3.578-.131.615-.374 1.163-.759 1.626-.247 2.364-.168 4.496-.108 6.397 1.452 2.025 3.241 2.775 5.529 1.626l10.686-5.082c16.044-7.541 32.694-3.463 42.429 2.311 12.458 4.345 25.205 2.923 38.188-3.236 14.6-5.679 28.415-6.472 40.586-4.396 4.745.809 10.15 4.534 13.166 7.077 3.484 2.937 6.533 1.041 12.516 2.85 5.219 1.578 10.709 7.247 13.777 10.531 11.726.716 22.218 4.147 32.093 8.934l22.392 19.018c2.937 4.126 4.714 8.569 5.285 13.34l9.329 11.597c.464.689.719 1.467.677 2.372 2.089 2.457 1.303 5.029-1.355 6.099-.863 2.112-2.371 2.937-4.574 2.371l-3.049 1.355c-3.143.423-4.975-2.184-4.065-4.912-2.493.022-4.131-1.22-4.062-4.154 0-.027-.003-.054-.004-.081.144-2.931-.613-5.679-2.033-8.301-4.233-4.418-7.887-9.414-11.044-14.907-4.95-1.821-9.385-4.499-13.044-8.47l-.339 1.524 1.525 2.033c2.331 3.741 3.978 7.709 4.574 12.028-.648 2.22-.571 4.521.447 6.927.691 1.145 1.235 2.345 1.632 3.599 3.578-1.702 7.337-2.816 11.394-3.366-3.906 1.109-7.601 2.582-11.107 4.38.126.506.228 1.02.309 1.542 2.915-.928 5.905-1.262 8.981-.915-3.073.334-6.009 1.075-8.836 2.145.058.693.078 1.399.06 2.119-.197.945-.113 2.084-.795 2.638-1.981 1.61-3.747 3.615-5.517 5.771-.537.654-1.612.629-2.524.841-1.081.059-2.147.056-3.196-.017-1.393 1.439-2.671 2.953-3.877 4.519.775-1.622 1.626-3.195 2.708-4.631-.652-.08-1.298-.189-1.935-.33-1.601 1.667-3.164 3.292-4.579 4.981 1.049-1.859 2.278-3.572 3.523-5.247h-.001ZM160.885 186.226h-1.297c-5.319 11.026-16.215 18.42-27.371 18.42-12.971 0-25.035-10.248-25.035-33.986 0-24.646 11.934-36.839 24.646-36.839 11.026 0 19.198 8.95 22.441 19.328h1.297v-20.755h-1.297c0 2.724-1.297 3.632-2.724 3.632-3.372 0-8.561-4.929-19.717-4.929-18.16 0-35.931 13.101-35.931 39.563 0 26.462 17.771 39.564 35.931 39.564 13.75 0 25.425-9.599 29.057-23.998Zm21.533-6.745h27.11l8.432 20.365c.389.908.518 1.687.518 2.595 0 2.983-2.594 5.188-7.134 5.188v1.297h26.332v-1.297c-4.021 0-6.745-2.724-8.82-7.783l-28.149-68.749h-1.297l-28.407 68.749c-2.076 5.059-4.67 7.783-8.562 7.783v1.297h18.55v-1.297c-4.8 0-7.524-2.335-7.524-5.578 0-.648.13-1.426.519-2.205l8.432-20.365Zm119.468-47.087h-63.302v18.16h1.298c2.334-8.172 3.632-10.507 6.096-12.452 2.724-2.335 6.745-2.984 19.198-2.984v64.728c0 4.8-3.502 7.783-9.08 7.783v1.297h28.278v-1.297c-5.578 0-9.08-2.983-9.08-7.783v-64.728c12.453 0 16.474.649 19.198 2.984 2.465 1.945 3.762 4.28 6.097 12.452h1.297v-18.16Zm-118.431 44.363 12.583-30.354 12.452 30.354h-25.035Zm-82.369-97.564v44.104h.864c.865-1.816 2.335-3.113 4.497-4.065 2.681 2.595 6.4 4.065 10.464 4.065 9.685 0 16.171-7.524 16.171-18.852 0-10.637-5.275-17.469-13.404-17.469-5.534 0-10.55 3.459-12.539 8.648V67.951c-3.113 1.816-7.61 3.459-11.242 3.459v.865c3.459 0 5.189 2.249 5.189 6.918Zm78.435 39.434c0 2.767 2.248 4.67 5.534 4.67 3.113 0 6.053-1.643 7.351-4.238l-.692-.518c-.951 1.297-2.681 2.161-3.978 2.161-1.384 0-2.162-.951-2.162-2.68V97.008c0-6.4-4.41-10.032-12.107-10.032-6.572 0-12.799 2.854-12.799 8.821 0 2.94 2.076 4.583 5.449 4.583.951 0 1.902-.173 2.507-.432-1.729-1.297-2.594-3.2-2.594-5.189 0-3.113 2.162-6.226 6.486-6.226s7.005 3.113 7.005 7.437c0 11.069-20.582 5.448-20.582 18.766 0 4.756 4.497 8.561 10.204 8.561 3.892 0 8.216-2.595 10.378-6.14v1.47Zm31.218-30.094c3.978 0 7.177 2.767 7.177 6.226 0 .865-.173 1.643-.605 2.249.778.259 1.47.432 1.989.432 2.075 0 3.459-1.211 3.459-3.113 0-4.151-5.275-7.351-12.02-7.351-9.945 0-16.431 7.091-16.431 18.161 0 11.242 6.486 18.16 16.95 18.16 6.226 0 10.55-3.027 13.058-8.907l-.779-.346c-2.853 4.324-6.485 6.572-10.463 6.572-7.091 0-11.934-6.659-11.934-16.431 0-9.08 3.978-15.652 9.599-15.652Zm27.759 27.846V67.951c-3.113 1.816-7.61 3.459-11.242 3.459v.865c2.854 0 5.189 1.47 5.189 6.918v37.186c0 2.853-2.335 5.188-5.189 5.188v.865h16.431v-.865c-2.854 0-5.189-2.335-5.189-5.188Zm-89.245 0V67.951c-3.113 1.816-7.609 3.459-11.242 3.459v.865c3.46 0 5.189 2.249 5.189 6.918v37.186c0 2.853-2.335 5.188-5.189 5.188v.865h16.431v-.865c-2.854 0-5.189-2.335-5.189-5.188Zm100.66-27.673c1.729 0 2.767.951 2.767 2.162 0 .951-.519 1.989-1.816 3.027l-10.636 8.647 9.944 13.837c1.211 1.643 1.557 2.248 1.557 3.113 0 1.038-.605 2.075-2.421 2.075v.865h15.998v-.865c-2.681 0-5.621-2.162-7.956-5.188l-11.501-16.431 7.437-6.053c3.286-2.681 7.61-5.189 10.29-5.189v-.865h-13.663v.865Zm-142.774 29.229v-15.566c0-7.091 4.583-12.798 10.204-12.798 5.708 0 9.253 5.794 9.253 15.306 0 10.291-4.15 16.431-11.069 16.431-3.199 0-6.399-1.297-8.388-3.373Zm57.853-3.545c0-7.524 9.426-8.302 14.529-13.145v13.664c-2.335 3.804-5.276 6.053-8.475 6.053-3.632 0-6.054-2.681-6.054-6.572Z" style="fill-rule:nonzero"/><path d="M20006.2 29615c-7.3-.1.6 20 7.9 20.5 205.9 13.4 272.1-3.1 384.9-186.1 3.6-5.9-16.1-8.5-20.5-3.2-130.2 157-188.5 170.4-372.3 168.8Zm759.2-935.2c5.6 9.8 45.6 30.3 71.7 31.7 125.9 6.6 235.4-188.5 195.2-325.3-7.7-26.4-45.4-57.1-58.3-58.4-12.9-1.3-18.7 39.6-19 50.5-.1 7.6 12.3 9.2 17.7 14.6 77 76.8-21.3 300.8-165.9 278.8-6.4-1 3.1-20.2-3.2-18.9-6.9 1.3-43.8 17.2-38.2 27ZM9127.5 5380l-21-18c-45 45-120 75-189 75-123 0-192-99-192-276v-822h345v-54h-345v-387h-30c-15 90-51 174-102 246-66 90-153 150-243 174v21h165v858c0 219 93 318 306 318 144 0 249-45 306-135Zm1836-669h819c0-270-201-456-495-456-345 0-570 246-570 630 0 390 225 630 588 630 216 0 366-105 453-309l-27-12c-99 150-225 228-363 228-246 0-414-231-414-570 0-48 3-96 9-141Zm-786-129v693c0 99-81 180-180 180v30h570v-30c-99 0-180-81-180-180v-663c0-216-138-357-345-357-192 0-366 120-435 300v-960c-108 63-264 120-390 120v30c120 0 180 78 180 240v1290c0 99-81 180-180 180v30h570v-30c-99 0-180-81-180-180v-486c0-246 159-444 354-444 132 0 216 90 216 237Zm795 75c48-216 168-348 315-348 159 0 273 147 273 348h-588Z" style="fill:#f25e0d;fill-rule:nonzero" transform="matrix(.01441 0 0 .01441 45.7024 -6.95286)"/></svg>