<svg xmlns="http://www.w3.org/2000/svg" xml:space="preserve" style="fill-rule:evenodd;clip-rule:evenodd;stroke-linejoin:round;stroke-miterlimit:2" viewBox="0 0 500 700"><path d="M.042 0h11597.8v18833.5H.042z" style="fill:#bf3535" transform="matrix(.043 0 0 .03716 .0402 -.06547)"/><path d="M20.5 14775.7h11575.7v4061.83H20.5z" style="fill:#eab97f" transform="matrix(.043 0 0 .03716 .0402 -.06547)"/><path d="M11402.1 15564.3v-1782.5c-45.8 9.5-91.1 19.1-135.8 27.8-225.3 44.2-453.3 180.2-670.6 172-217.4-8.2-415.5-202.4-633.36-221.1-239.06-20.5-1343.58 642.6-1611.63 635-288.72-8.1-493.58-2.4-805.9-22.8-313.54-20.5-1515.45-532.7-1794.97-516.4-223.96 13.2-688.71-13.7-913.02-18.2-230.73-4.6-378.47 120.7-571.88 95.6-156.42-20.3-559.2-78.8-715.97-92.8-183.16-16.4-986.28 24.5-1155.03 24.5-183.16 0-400.52 90.1-596.01 73.7-195.66-16.4-397.39-184.2-577.43-171.9-178.64 12.1-349.104 232.4-526.017 265.4-99.825 18.6-21.135 3192.1-.021 3392.5 37.75 358.4 308.508 867.4 684.378 823.5 427.25-49.7 1027.08-329.9 1368.92-259.2 221.7 46 448.96 220.1 655.56 204.5 206.77-15.8 385.58-267.4 584.19-298.8 198.79-31.4 406.95 159.5 608.16 110.1 202.61-49.9 390.11-322.3 607.99-408.9 250.35-99.5 659.72-102.1 894.1-188.5 183.16-67.6 365.97-170.7 512.67-330.2 146.88-159.8 213.02-461.2 368.75-628 193.58-206.9 527.95-496.4 791.84-614.1 250.87-111.9 529.69-40.1 791.67-92.1 283.33-56.3 607.12-153.4 908.16-245.7 333.68-102.3 1537.35 52.3 1744.95 94.1 63.4 12.7 125.2-1.5 186.3-27.5Z" style="fill:#233238" transform="matrix(.043 0 0 .03716 .0402 -.06547)"/><path d="M11247 14075.2c-92.5 66.5-189.1 120.4-282.1 151.7-428.7 144-1308.18-109.5-1804.36-18.8-496.36 90.8-609.03 554.1-1172.92 563.5-563.89 9.4-1503.65-453.9-2210.25-507.1-682.12-51.4-1526.21 247.3-2030.03 187.8-503.65-59.5-460.94-490-992.36-544.6-478.65-49.3-1678.47 102-2367.713 149.3v-1088.9c556.425-85.8 1754.173 79 2180.383 92.2 455.73 14.1 732.81 471.8 1256.42 477 523.44 5.1 1311.8-455.2 1884.55-446.2 572.74 9 1034.72 502.6 1552.08 500 517.36-2.6 1099.31-507.7 1552.08-515.4 452.6-7.7 677.43 424.5 1163.89 469.2 307.83 28.3 862.33-104.9 1270.33-177.9v708.2Z" style="fill:#a37954" transform="matrix(.043 0 0 .03716 .0402 -.06547)"/><path d="m694.483 13716.6 10209.017-53.5v5170.3h722.1V-.068h-722.1v.004H694.483v-.004H.042V18833.4h694.441v-5116.8ZM10903.5 11114V694.43H694.483V11880.6c491.297-811.5 1435.987-1704 2009.997-1728.7 659.72-28.4 1193.05 1789.5 1761.28 1912.6 568.06 123.1 1140.45-1214.6 1708.51-1233.6 568.23-18.9 990.11 1347.2 1700.17 1120 710.25-227.3 2075.18-2184.64 2633.86-1749.1 164.2 128 293.9 479.6 395.2 912.3v-.1Z" style="fill:#eab97f" transform="matrix(.043 0 0 .03716 .0402 -.06547)"/><path d="M1436.83 16277.5c276.04 211.1 660.77 295.5 1147.23 261.1l11.28-45.1c-490.97-8.5-855.55-122.4-1136.11-306.3-24.82-6.2-50.17 9-56.25 33.9-6.25 25 8.86 50.1 33.86 56.4h-.01Zm478.56-608.7c323.96 179.8 796.88 285 1401.39 324.6l11.29-45.1c-531.43-55.2-999.14-174.3-1390.28-369.8-24.83-6.3-50.17 9-56.25 33.8-6.25 25 8.85 50.2 33.85 56.5Zm620.73-581.8c448.08 231.4 1057.29 348.1 1750.87 404.2 1.56.3 3.12.5 4.69.5h2.25c9.9-.5 18.58-7.5 21.18-17.7 2.95-12.5-4.68-25-17.18-28.1-697.23-99.5-1288.02-244.5-1739.76-449.2-24.83-6.1-50 9.2-56.25 34.1-6.08 25 9.2 50.1 34.2 56.2Z" style="fill:#a37954" transform="matrix(.043 0 0 .03716 .0402 -.06547)"/><path d="M10402.1 10163.8c91.8 65.4-514.76 547.5-834.9 1172.2-278.99 544.8-261.8 1233.7-386.11 1389-133.85 167.4-142.53-622.4-458.5-851.4-306.25-222.1-875.87 200.9-755.39 31.7 266.67-374.3 2087.3-1988.98 2434.9-1741.5Zm-4178.54 678.4c123.26 18.3-160.24 405.8-350.35 887-140.97 356.8-165.1 813.5-278.64 955.4-137.68 172.1-159.73-224.3-379-412.3-200.69-172-611.28-122-494.27-286.4 266.5-374.2 1073.27-1207.4 1502.26-1143.7Zm-3465.11-693.6c123.61 5.9-221.7 489.4-471.53 1040.6-175.7 387.8-236.28 861.4-346.35 999-153.47 191.7-353.13-137.5-665.97-259.3-225-87.6-618.233 86.7-580.041-85.8 62.5-283.1 305.383-496.9 737.671-993.4 280.21-321.7 892.89-721.4 1326.22-701v-.1Z" style="fill:#233238" transform="matrix(.043 0 0 .03716 .0402 -.06547)"/><text x="23.768" y="49.268" style="font-family:&quot;Verdana&quot;,sans-serif;font-size:11.562px" transform="matrix(.86876 0 0 .86876 335.066 633.691)">© 2025 Astrid Schäfer</text><path d="M1612 3113C846 2877 295 2168 295 1321.33h104c0 971 792 1771 1771 1771s1771-800 1771-1770.83h104c0 847-551 1556-1317 1791.67h946V3184H2389c-119 14-239 16-358 7-27-2-54-4-80-7.49H666v-71" style="fill:#89838d" transform="matrix(.0044 0 0 .0044 333.854 663.555)"/><circle cx="3821" cy="3146" r="175" style="fill:#c83154" transform="matrix(.0044 0 0 .0044 333.854 663.555)"/><circle cx="521" cy="3146" r="175" style="fill:#c83154" transform="matrix(.0044 0 0 .0044 333.854 663.555)"/><path d="M167 1041.67h333v333H167v-333Zm3667 0h333v333h-333v-333ZM2001 2958.34h333v333h-333v-333Z" style="fill:#fff" transform="matrix(.0044 0 0 .0044 333.854 663.555)"/><circle cx="365.295" cy="226.647" r="30.705" style="fill:#c9934a" transform="translate(9.40974 -124.916)"/><path d="M341.372 649.018v-20.623c0-1.467 1.071-2.38 2.776-2.38v-.396h-8.646v.396c1.706 0 2.777.913 2.777 2.38v21.416c0 3.807-1.111 5.83-3.689 6.782l.08.357c3.926 0 6.702-3.292 6.702-7.932Zm117.391-10.232h10.827c0-3.57-2.657-6.029-6.544-6.029-4.56 0-7.535 3.253-7.535 8.329 0 5.156 2.975 8.328 7.773 8.328 2.856 0 4.839-1.388 5.989-4.085l-.357-.158c-1.309 1.983-2.974 3.014-4.799 3.014-3.252 0-5.473-3.054-5.473-7.535 0-.635.04-1.269.119-1.864Zm-13.563-6.029c-4.521 0-7.535 3.332-7.535 8.329 0 4.997 3.014 8.328 7.535 8.328 4.521 0 7.535-3.331 7.535-8.328s-3.014-8.329-7.535-8.329Zm-91.692 0c-4.521 0-7.536 3.332-7.536 8.329 0 4.997 3.015 8.328 7.536 8.328 4.521 0 7.535-3.331 7.535-8.328s-3.014-8.329-7.535-8.329Zm59.171-7.138v.396c1.706 0 2.776.913 2.776 2.38v17.847c0 1.467-1.07 2.379-2.776 2.379v.397h10.47c6.703 0 11.383-4.799 11.383-11.7 0-6.9-4.68-11.699-11.383-11.699h-10.47Zm-16.974 11.461v9.162c0 1.308-1.071 2.379-2.379 2.379v.397h7.535v-.397c-1.309 0-2.38-1.071-2.38-2.379v-8.765c0-2.856-1.824-4.72-4.561-4.72-2.538 0-4.838 1.587-5.75 3.966v-4.362c-1.428.833-3.49 1.586-5.156 1.586v.397c1.587 0 2.38 1.031 2.38 3.173v8.725c0 1.308-1.071 2.379-2.38 2.379v.397h7.535v-.397c-1.308 0-2.379-1.071-2.379-2.379v-6.425c0-3.252 2.102-5.87 4.68-5.87 1.745 0 2.855 1.19 2.855 3.133Zm-19.512 0v9.162c0 1.308-1.071 2.379-2.38 2.379v.397h7.535v-.397c-1.308 0-2.379-1.071-2.379-2.379v-8.765c0-2.856-1.824-4.72-4.561-4.72-2.538 0-4.838 1.587-5.75 3.966v-12.691c-1.428.833-3.49 1.587-5.156 1.587v.396c1.586 0 2.379 1.032 2.379 3.173v17.054c0 1.308-1.07 2.379-2.379 2.379v.397h7.535v-.397c-1.309 0-2.379-1.071-2.379-2.379v-6.425c0-3.252 2.101-5.87 4.679-5.87 1.745 0 2.856 1.19 2.856 3.133Zm69.007-3.609c2.697 0 4.442 2.975 4.442 7.615 0 4.64-1.745 7.614-4.442 7.614s-4.442-2.974-4.442-7.614 1.745-7.615 4.442-7.615Zm-91.692 0c2.697 0 4.442 2.975 4.442 7.615 0 4.64-1.745 7.614-4.442 7.614s-4.442-2.974-4.442-7.614 1.745-7.615 4.442-7.615Zm77.533 3.887c0 6.544-3.093 10.827-7.852 10.827h-1.864c-1.705 0-2.776-.912-2.776-2.38v-19.353h4.64c4.719 0 7.852 4.362 7.852 10.906Zm27.841.714c.635-2.856 2.221-4.601 4.164-4.601 2.102 0 3.609 1.944 3.609 4.601h-7.773Zm7.363-30.565-1.928-4.687c-.075-.189-.113-.359-.113-.51 0-.397.264-.624.756-.624v-.189h-3.308v.189c.492 0 .964.491 1.229 1.134l2.154 5.235c.152.378.246.832.246 1.285 0 1.38-.831 2.344-1.72 2.344-.548 0-.964-.284-1.209-.775-.17.34-.227.548-.227.794 0 .699.416 1.134 1.058 1.134 1.645 0 2.93-4.026 3.251-4.876l2.022-5.141c.284-.737.643-1.134 1.134-1.134v-.189h-2.268v.189c.473 0 .87.227.87.699 0 .133-.038.265-.095.435l-1.852 4.687Zm-22.698-4.309v-2.079c-.681.397-1.664.756-2.457.756v.189c.756 0 1.134.491 1.134 1.512v7.749c0 .623-.511 1.134-1.134 1.134v.189h3.591v-.189c-.624 0-1.134-.511-1.134-1.134v-2.835c.567.491 1.323.756 2.154.756 2.117 0 3.515-1.663 3.515-4.158 0-2.268-1.171-3.78-2.929-3.78-1.21 0-2.306.756-2.74 1.89Zm-105.366-1.89c-2.154 0-3.591 1.588-3.591 3.969s1.437 3.969 3.591 3.969c2.155 0 3.591-1.588 3.591-3.969s-1.436-3.969-3.591-3.969Zm22.774 6.917c0 .605.492 1.021 1.21 1.021.68 0 1.323-.359 1.606-.926l-.151-.114c-.208.284-.586.473-.869.473-.303 0-.473-.208-.473-.586V603.5c0-1.398-.964-2.192-2.646-2.192-1.436 0-2.797.624-2.797 1.928 0 .642.454 1.001 1.191 1.001.208 0 .416-.037.548-.094-.378-.284-.567-.699-.567-1.134 0-.68.472-1.361 1.417-1.361.945 0 1.531.681 1.531 1.626 0 2.419-4.498 1.19-4.498 4.101 0 1.039.983 1.871 2.23 1.871.851 0 1.796-.567 2.268-1.342v.321Zm98.411 0c0 .605.491 1.021 1.209 1.021.681 0 1.323-.359 1.607-.926l-.152-.114c-.207.284-.585.473-.869.473-.302 0-.472-.208-.472-.586V603.5c0-1.398-.964-2.192-2.646-2.192-1.437 0-2.798.624-2.798 1.928 0 .642.454 1.001 1.191 1.001.208 0 .416-.037.548-.094-.378-.284-.567-.699-.567-1.134 0-.68.473-1.361 1.418-1.361s1.531.681 1.531 1.626c0 2.419-4.499 1.19-4.499 4.101 0 1.039.983 1.871 2.231 1.871.85 0 1.795-.567 2.268-1.342v.321Zm-85.105 0c0 .605.491 1.021 1.209 1.021.681 0 1.323-.359 1.607-.926l-.152-.114c-.207.284-.585.473-.869.473-.302 0-.472-.208-.472-.586V603.5c0-1.398-.964-2.192-2.646-2.192-1.437 0-2.798.624-2.798 1.928 0 .642.454 1.001 1.191 1.001.208 0 .416-.037.548-.094-.378-.284-.567-.699-.567-1.134 0-.68.473-1.361 1.418-1.361s1.531.681 1.531 1.626c0 2.419-4.499 1.19-4.499 4.101 0 1.039.983 1.871 2.231 1.871.85 0 1.795-.567 2.268-1.342v.321Zm30.579-5.405v3.062c0 1.549-1.002 2.797-2.23 2.797-.832 0-1.361-.567-1.361-1.493v-5.689h-2.457v.189c.624 0 1.134.51 1.134 1.134v4.177c0 1.361.851 2.249 2.155 2.249 1.209 0 2.324-.756 2.759-1.89v.567c0 .397.076.926.189 1.323l2.268-.322v-.189c-.85-.151-1.134-.566-1.134-1.757v-5.481h-2.457v.189c.624 0 1.134.51 1.134 1.134Zm5.179 1.361h5.159c0-1.701-1.266-2.873-3.118-2.873-2.174 0-3.591 1.55-3.591 3.969 0 2.457 1.417 3.969 3.704 3.969 1.361 0 2.306-.662 2.854-1.947l-.17-.075c-.624.945-1.418 1.436-2.287 1.436-1.55 0-2.608-1.455-2.608-3.591 0-.302.019-.605.057-.888Zm-66.206-4.574v9.639h.189c.189-.397.511-.681.983-.888.586.566 1.399.888 2.287.888 2.117 0 3.534-1.644 3.534-4.12 0-2.325-1.153-3.818-2.929-3.818-1.21 0-2.306.756-2.741 1.89v-6.048c-.68.397-1.663.756-2.457.756v.189c.756 0 1.134.491 1.134 1.512Zm84.028 7.371v-9.828c-.68.397-1.663.756-2.457.756v.189c.756 0 1.134.491 1.134 1.512v2.457c-.567-.491-1.323-.756-2.155-.756-2.116 0-3.515 1.663-3.515 4.158 0 2.268 1.153 3.78 2.911 3.78 1.209 0 2.324-.756 2.759-1.89v.567c0 .397.076.926.189 1.323l2.268-.322v-.189c-.851-.151-1.134-.566-1.134-1.757Zm-34.775-2.797h5.159c0-1.701-1.266-2.873-3.118-2.873-2.174 0-3.591 1.55-3.591 3.969 0 2.457 1.417 3.969 3.704 3.969 1.361 0 2.306-.662 2.854-1.947l-.17-.075c-.624.945-1.417 1.436-2.287 1.436-1.55 0-2.608-1.455-2.608-3.591 0-.302.019-.605.057-.888Zm41.9 4.876h.189c.095-.284.208-.378.359-.378.397 0 .889.567 1.909.567 1.342 0 2.457-1.096 2.457-2.419 0-2.363-3.931-2.306-3.931-4.064 0-.605.586-1.115 1.266-1.115.813 0 1.55.699 2.004 1.928h.189v-2.079h-.189c-.095.283-.189.397-.322.397-.359 0-.737-.586-1.663-.586-1.209 0-2.211.964-2.211 2.154 0 2.363 3.95 2.306 3.95 4.102 0 .718-.699 1.342-1.531 1.342-1.021 0-1.852-.851-2.287-2.306h-.189v2.457Zm-65.865-.662-.132-.113c-.284.283-.756.472-1.191.472-.775 0-1.21-.623-1.21-1.738v-5.179h2.174v-.34h-2.174v-2.438h-.189c-.094.567-.321 1.096-.642 1.55-.416.567-.964.945-1.531 1.096v.132h1.039v5.405c0 1.38.586 2.004 1.928 2.004.907 0 1.569-.284 1.928-.851Zm-14.761-.661V597.15c-.68.397-1.663.756-2.457.756v.189c.756 0 1.134.491 1.134 1.512v8.127c0 .624-.51 1.134-1.134 1.134v.189h3.591v-.189c-.623 0-1.134-.51-1.134-1.134Zm33.774-4.366v4.366c0 .624-.51 1.134-1.134 1.134v.189h3.591v-.189c-.624 0-1.134-.51-1.134-1.134v-4.177c0-1.361-.869-2.249-2.173-2.249-1.21 0-2.306.756-2.741 1.89v-2.079c-.68.397-1.663.756-2.457.756v.189c.756 0 1.134.491 1.134 1.512v4.158c0 .624-.51 1.134-1.134 1.134v.189h3.591v-.189c-.624 0-1.134-.51-1.134-1.134v-3.062c0-1.55 1.002-2.797 2.23-2.797.832 0 1.361.567 1.361 1.493Zm44.32 4.366v-6.615c-.681.397-1.664.756-2.457.756v.189c.623 0 1.134.321 1.134 1.512v4.158c0 .624-.511 1.134-1.134 1.134v.189h3.591v-.189c-.624 0-1.134-.51-1.134-1.134Zm20.317 0V597.15c-.681.397-1.663.756-2.457.756v.189c.756 0 1.134.491 1.134 1.512v8.127c0 .624-.511 1.134-1.134 1.134v.189h3.591v-.189c-.624 0-1.134-.51-1.134-1.134Zm-114.57-6.086c1.285 0 2.117 1.418 2.117 3.629 0 2.211-.832 3.629-2.117 3.629-1.285 0-2.117-1.418-2.117-3.629 0-2.211.832-3.629 2.117-3.629Zm6.955 6.426v-3.402c0-1.55 1.002-2.797 2.23-2.797 1.248 0 2.023 1.266 2.023 3.345 0 2.249-.908 3.591-2.419 3.591-.7 0-1.399-.283-1.834-.737Zm98.411 0v-3.402c0-1.55 1.001-2.797 2.23-2.797 1.247 0 2.022 1.266 2.022 3.345 0 2.249-.907 3.591-2.419 3.591-.699 0-1.399-.283-1.833-.737Zm12.643-.775c0-1.644 2.06-1.814 3.176-2.873v2.987c-.511.831-1.153 1.322-1.853 1.322-.793 0-1.323-.585-1.323-1.436Zm-98.41 0c0-1.644 2.06-1.814 3.175-2.873v2.987c-.51.831-1.153 1.322-1.852 1.322-.794 0-1.323-.585-1.323-1.436Zm13.305 0c0-1.644 2.06-1.814 3.176-2.873v2.987c-.511.831-1.153 1.322-1.853 1.322-.793 0-1.323-.585-1.323-1.436Zm55.433-4.819v3.402c0 1.549-1.039 2.797-2.249 2.797-1.247 0-2.003-1.266-2.003-3.345 0-2.249.907-3.591 2.419-3.591.699 0 1.398.283 1.833.737Zm-33.396 1.36c.303-1.36 1.059-2.192 1.985-2.192 1.002 0 1.72.926 1.72 2.192h-3.705Zm16.953 0c.303-1.36 1.059-2.192 1.985-2.192 1.001 0 1.72.926 1.72 2.192h-3.705Zm21.565-5.745c-.473 0-.851.378-.851.85 0 .473.378.851.851.851.472 0 .85-.378.85-.851 0-.472-.378-.85-.85-.85ZM243.882 268.06h9.044c2.525 0 4.236 2.037 4.888 5.703h.814v-13.117h-.814c-.571 3.666-2.363 5.703-4.888 5.703h-9.044v-20.856c14.502 0 17.272.244 19.635 1.792 1.792 1.141 2.444 2.444 4.073 7.903h.815v-11.406h-36.58v.815c3.503 0 5.703 1.873 5.703 4.888v36.662c0 3.014-2.2 4.888-5.703 4.888v.814h37.395v-13.035h-.815c-1.385 5.214-1.955 6.762-3.096 8.147-2.2 2.77-4.888 3.178-21.427 3.178V268.06Zm-42.69-22.567c6.192 0 11.243 4.97 11.243 10.998 0 6.436-4.807 11.732-14.258 11.732v.815c6.844 0 10.51 11.324 14.176 17.76 2.118 3.422 3.911 5.051 5.703 5.051h7.007v-.814c-8.881-1.304-8.718-19.39-18.983-22.323 7.088 0 12.465-5.785 12.465-12.302 0-7.007-5.621-12.628-12.546-12.628h-22.486v.815c3.503 0 5.703 1.873 5.703 4.888v36.662c0 3.014-2.2 4.888-5.703 4.888v.814h17.76v-.814c-3.503 0-5.703-1.874-5.703-4.888v-40.654h5.622Zm-52.467 22.567h9.043c2.526 0 4.237 2.037 4.888 5.703h.815v-13.117h-.815c-.57 3.666-2.362 5.703-4.888 5.703h-9.043v-20.856c14.502 0 17.272.244 19.634 1.792 1.793 1.141 2.444 2.444 4.074 7.903h.814v-11.406h-36.58v.815c3.503 0 5.703 1.873 5.703 4.888v36.662c0 3.014-2.2 4.888-5.703 4.888v.814h37.395v-13.035h-.815c-1.385 5.214-1.955 6.762-3.095 8.147-2.2 2.77-4.889 3.178-21.427 3.178V268.06Zm-57.844 0h24.278v18.087c0 3.014-2.2 4.888-5.703 4.888v.814h17.761v-.814c-3.504 0-5.703-1.874-5.703-4.888v-36.662c0-3.015 2.199-4.888 5.703-4.888v-.815h-17.761v.815c3.503 0 5.703 1.873 5.703 4.888v16.864H90.881v-16.864c0-3.015 2.2-4.888 5.703-4.888v-.815H78.823v.815c3.503 0 5.703 1.873 5.703 4.888v36.662c0 3.014-2.2 4.888-5.703 4.888v.814h17.761v-.814c-3.503 0-5.703-1.874-5.703-4.888V268.06Zm26.396-105.748H77.52v11.405h.814c1.467-5.132 2.282-6.599 3.829-7.821 1.711-1.466 4.237-1.874 12.058-1.874v40.654c0 3.015-2.2 4.888-5.703 4.888v.815h17.761v-.815c-3.503 0-5.703-1.873-5.703-4.888v-40.654c7.821 0 10.347.408 12.057 1.874 1.548 1.222 2.363 2.689 3.83 7.821h.814v-11.405Zm143.958 0h-39.757v11.405h.815c1.466-5.132 2.281-6.599 3.829-7.821 1.711-1.466 4.236-1.874 12.057-1.874v40.654c0 3.015-2.199 4.888-5.703 4.888v.815h17.761v-.815c-3.503 0-5.703-1.873-5.703-4.888v-40.654c7.821 0 10.347.408 12.058 1.874 1.548 1.222 2.362 2.689 3.829 7.821h.814v-11.405Zm-66.072 19.389-9.206-13.768c-.652-.896-.896-1.711-.896-2.281 0-1.711 1.303-2.526 4.155-2.526v-.814h-17.191v.814c1.793 0 4.807 2.526 6.274 4.807l11.813 17.598-14.828 19.227c-2.444 3.095-4.073 4.806-6.517 4.806v.815h12.383v-.815c-3.014 0-4.562-.733-4.562-2.281 0-.652.407-1.466 1.14-2.525l13.361-17.761 11.814 17.761c.57.896.896 1.71.896 2.362 0 1.63-1.304 2.444-4.237 2.444v.815h17.272v-.815c-2.2 0-4.236-1.711-6.273-4.806l-14.339-21.509 11.813-15.316c2.363-3.096 3.911-4.807 6.355-4.807v-.814h-11.65v.814c2.607 0 4.481.815 4.481 2.363 0 .733-.652 1.466-1.385 2.362l-10.673 13.85Zm-57.681 4.889h9.043c2.526 0 4.237 2.036 4.888 5.703h.815v-13.117h-.815c-.57 3.666-2.362 5.703-4.888 5.703h-9.043v-20.857c14.502 0 17.272.245 19.634 1.793 1.793 1.14 2.444 2.444 4.074 7.902h.815v-11.405h-36.581v.814c3.504 0 5.703 1.874 5.703 4.888v36.662c0 3.015-2.199 4.888-5.703 4.888v.815h37.395v-13.035h-.814c-1.385 5.214-1.956 6.762-3.096 8.147-2.2 2.77-4.889 3.177-21.427 3.177V186.59Zm80.656-73.975c0 8.635-5.54 14.909-13.28 14.909-7.577 0-12.872-6.111-12.872-14.909V86.544c0-3.014 2.199-4.888 5.703-4.888v-.815h-17.761v.815c3.503 0 5.703 1.874 5.703 4.888v26.071c0 10.672 6.436 17.108 17.027 17.108 10.754 0 17.191-6.436 17.191-17.108V86.544c0-3.014 2.199-4.888 5.702-4.888v-.815h-13.116v.815c3.503 0 5.703 1.874 5.703 4.888v26.071Zm-46.846-7.74c0-16.62-11.161-24.849-22.567-24.849s-22.567 8.229-22.567 24.849 11.161 24.848 22.567 24.848 22.567-8.228 22.567-24.848Zm80.167-22.323c6.192 0 11.243 4.97 11.243 10.998 0 6.437-4.807 11.732-14.257 11.732v.815c6.843 0 10.509 11.324 14.175 17.76 2.119 3.422 3.911 5.052 5.703 5.052h7.007v-.815c-8.88-1.304-8.717-19.39-18.983-22.323 7.088 0 12.465-5.784 12.465-12.302 0-7.006-5.621-12.628-12.546-12.628H233.78v.815c3.503 0 5.703 1.874 5.703 4.888v36.662c0 3.014-2.2 4.888-5.703 4.888v.815h17.761v-.815c-3.504 0-5.703-1.874-5.703-4.888V82.552h5.621Zm-161.067 19.39c2.281 3.992 3.422 8.228 3.422 12.791v8.473c0 3.014-2.2 4.888-5.703 4.888v.815h17.76v-.815c-3.503 0-5.703-1.874-5.703-4.888v-15.643c0-.977.326-2.199.815-3.095l11.65-17.924c1.874-2.933 4.237-4.888 6.681-4.888v-.815h-11.65v.815c2.525 0 3.91.896 3.91 2.362 0 .734-.326 1.548-.977 2.526l-11.406 17.598L88.6 86.544c-.571-.896-.897-1.792-.897-2.444 0-1.548 1.467-2.444 4.155-2.444v-.815H75.32v.815c2.118 0 4.155 2.118 5.866 4.888l9.206 15.398Zm73.894 2.933c0 15.642-7.577 23.137-15.561 23.137s-15.561-7.495-15.561-23.137 7.577-23.138 15.561-23.138 15.561 7.496 15.561 23.138Z" style="fill-rule:nonzero"/></svg>