<svg xmlns="http://www.w3.org/2000/svg" xml:space="preserve" style="fill-rule:evenodd;clip-rule:evenodd;stroke-linejoin:round;stroke-miterlimit:2" viewBox="0 0 11617 18838"><path d="M.042 0h11597.8v18833.5H.042z" style="fill:#bf3535"/><circle cx="9246.74" cy="3353.26" r="646.738" style="fill:#3f2d1d"/><path d="M20.5 14775.7h11575.7v4061.83H20.5z" style="fill:#eab97f"/><path d="M11402.1 15564.3v-1782.54c-45.833 9.566-91.146 19.117-135.762 27.867-225.35 44.145-453.3 180.154-670.663 171.962-217.358-8.196-415.45-202.433-633.333-221.096-239.062-20.466-1343.58 642.654-1611.63 635.05-288.717-8.191-493.579-2.462-805.904-22.862-313.542-20.467-1515.45-532.709-1794.97-516.338-223.958 13.142-688.712-13.75-913.021-18.229-230.729-4.6-378.471 120.642-571.875 95.558-156.421-20.262-559.2-78.804-715.971-92.812-183.158-16.392-986.283 24.562-1155.03 24.562-183.162 0-400.521 90.071-596.008 73.7-195.659-16.387-397.396-184.254-577.429-171.962-178.646 12.171-326.042 212.658-502.955 245.658-99.825 18.579-305.208-15.104-485.241-11.925l462.154 3424.24c0-.005 308.504 867.358 684.375 823.437 427.254-49.654 1027.08-329.862 1368.92-259.204 221.704 46.008 448.958 220.142 655.558 204.512 206.771-15.795 385.588-267.358 584.2-298.783 198.783-31.425 406.946 159.55 608.158 110.071 202.605-49.829 390.105-322.225 607.988-408.854 250.346-99.479 659.721-102.084 894.096-188.542 183.162-67.533 365.975-170.658 512.675-330.208 146.875-159.725 213.021-461.113 368.75-627.954 193.575-206.942 527.95-496.388 791.841-614.096 250.867-111.946 529.688-40.071 791.667-92.133 283.333-56.288 607.117-153.355 908.158-245.663 333.68-102.342 1537.33 52.275 1744.97 94.046 63.367 12.762 125.171-1.425 186.283-27.467v.004l-.001.001Z" style="fill:#233238"/><path d="M11247 14075.2c-92.538 66.492-189.063 120.45-282.121 151.738-428.646 143.975-1308.16-109.567-1804.34-18.788-496.354 90.767-609.029 554.03-1172.92 563.421-563.892 9.392-1503.65-453.871-2210.25-507.083-682.117-51.354-1526.21 247.275-2030.03 187.812-503.645-59.479-460.937-489.983-992.362-544.633-478.646-49.237-1678.47 102.063-2367.71 149.304v-1088.92c556.425-85.729 1754.17 79.063 2180.38 92.258 455.729 14.096 732.813 471.805 1256.42 476.946 523.438 5.121 1311.8-455.158 1884.55-446.183 572.746 8.979 1034.72 502.588 1552.08 500.021 517.363-2.554 1099.31-507.713 1552.08-515.4 452.604-7.692 677.433 424.496 1163.89 469.25 307.813 28.3 862.325-104.963 1270.31-177.983v708.245l.023-.005Z" style="fill:#a37954"/><path d="m694.483 13716.6 10209-53.458v5170.29h722.121V-.068h-722.121v.004h-10209v-.004H.042v18833.5h694.441v-5116.83Zm10209-2602.57V694.43h-10209v11186.2c491.296-811.571 1435.99-1703.98 2010-1728.7 659.721-28.404 1193.05 1789.46 1761.28 1912.55 568.055 123.104 1140.45-1214.6 1708.51-1233.55 568.229-18.937 990.104 1347.17 1700.17 1119.93 710.245-227.259 2075.18-2184.6 2633.85-1749.03 164.196 128.013 293.916 479.609 395.216 912.221l.013.029-.039-.05Z" style="fill:#eab97f"/><path d="M1436.83 16277.5c276.042 211.113 660.767 295.488 1147.23 261.113l11.283-45.142c-490.97-8.504-855.554-122.396-1136.11-306.25-24.825-6.25-50.171 9.029-56.25 33.854-6.25 25 8.854 50.175 33.854 56.425h-.007Zm478.563-608.733c323.958 179.863 796.875 285.071 1401.39 324.654l11.284-45.137c-531.425-55.213-999.134-174.309-1390.28-369.792-24.825-6.254-50.17 9.025-56.25 33.85-6.25 25.004 8.855 50.175 33.855 56.425h.001Zm620.725-581.762c448.087 231.425 1057.29 348.091 1750.87 404.166 1.563.346 3.125.521 4.688.521h2.258c9.896-.521 18.575-7.467 21.179-17.708 2.95-12.5-4.687-25-17.187-28.125-697.221-99.479-1288.02-244.446-1739.76-449.134-24.825-6.075-50 9.205-56.25 34.03-6.075 25 9.204 50.175 34.204 56.25h-.002Z" style="fill:#a37954"/><path d="m2472.65 5760.72-15.255-13.076c-32.689 32.69-87.172 54.483-137.296 54.483-89.352 0-139.476-71.917-139.476-200.496V5004.5h250.621v-39.228h-250.621v-281.131h-21.793c-10.897 65.379-37.048 126.4-74.097 178.703-47.945 65.38-111.145 108.966-176.524 126.4v15.256h119.862v623.282c0 159.09 67.559 231.007 222.29 231.007 104.607 0 180.883-32.69 222.289-98.069Zm1333.74-485.986h594.952c0-196.138-146.014-331.255-359.586-331.255-250.621 0-414.069 178.703-414.069 457.655 0 283.31 163.448 457.655 427.145 457.655 156.91 0 265.875-76.276 329.075-224.469l-19.613-8.717c-71.918 108.965-163.449 165.627-263.697 165.627-178.703 0-300.745-167.806-300.745-414.068 0-34.869 2.18-69.738 6.538-102.428Zm4046.98 0h594.951c0-196.138-146.013-331.255-359.586-331.255-250.62 0-414.069 178.703-414.069 457.655 0 283.31 163.449 457.655 427.145 457.655 156.91 0 265.876-76.276 329.076-224.469l-19.614-8.717c-71.917 108.965-163.448 165.627-263.696 165.627-178.704 0-300.745-167.806-300.745-414.068 0-34.869 2.179-69.738 6.538-102.428Zm-597.131-156.91v353.048c0 178.703-115.504 322.538-257.159 322.538-95.889 0-156.91-65.379-156.91-172.166v-655.972h-283.31v21.793c71.917 0 130.758 58.841 130.758 130.759v481.627c0 156.911 98.069 259.338 248.442 259.338 139.475 0 268.055-87.172 318.179-217.931v65.379c0 45.766 8.717 106.787 21.793 152.552l261.517-37.048v-21.793c-98.069-17.435-130.758-65.38-130.758-202.676v-632H7125.48v21.793c71.918 0 130.759 58.841 130.759 130.759Zm-2118.29-370.483v1111.45h21.793c21.793-45.765 58.841-78.455 113.324-102.427 67.558 65.379 161.269 102.427 263.696 102.427 244.083 0 407.531-189.6 407.531-475.089 0-268.056-132.938-440.221-337.793-440.221-139.476 0-265.876 87.172-316 217.931v-697.379c-78.455 45.765-191.779 87.172-283.31 87.172v21.793c87.172 0 130.759 56.662 130.759 174.345Zm1213.88 937.103v-1220.41c-78.455 45.765-191.779 87.172-283.31 87.172v21.793c87.172 0 130.759 56.662 130.759 174.345v937.103c0 71.918-58.842 130.759-130.759 130.759v21.793h414.069v-21.793c-71.917 0-130.759-58.841-130.759-130.759Zm-3116.41-503.42v503.42c0 71.918-58.841 130.759-130.759 130.759v21.793h414.069v-21.793c-71.917 0-130.758-58.841-130.758-130.759v-481.627c0-156.911-100.249-259.338-250.621-259.338-139.476 0-265.876 87.172-316 217.931v-697.379c-78.455 45.765-191.779 87.172-283.31 87.172v21.793c87.172 0 130.758 56.662 130.758 174.345v937.103c0 71.918-58.841 130.759-130.758 130.759v21.793h414.069v-21.793c-71.918 0-130.759-58.841-130.759-130.759v-353.048c0-178.703 115.503-322.538 257.159-322.538 95.889 0 156.91 65.38 156.91 172.166Zm2055.09 542.648v-392.276c0-178.703 115.504-322.538 257.159-322.538 143.834 0 233.186 146.014 233.186 385.738 0 259.338-104.607 414.069-278.952 414.069-80.634 0-161.269-32.69-211.393-84.993Zm-1477.57-488.166c34.869-156.91 122.041-252.8 228.828-252.8 115.503 0 198.317 106.787 198.317 252.8h-427.145Zm4046.98 0c34.869-156.91 122.041-252.8 228.827-252.8 115.504 0 198.318 106.787 198.318 252.8h-427.145Z" style="fill:#eab97f;fill-rule:nonzero"/><path d="M7437.53 17450.5v-530.421c0-37.741 27.541-61.202 71.403-61.202v-10.201h-222.369v10.201c43.862 0 71.403 23.461 71.403 61.202v550.822c0 97.924-28.561 149.946-94.864 174.427l2.04 9.18c100.984 0 172.387-84.663 172.387-204.008Zm312.152-418.216c-116.285 0-193.808 85.683-193.808 214.208 0 128.525 77.523 214.208 193.808 214.208s193.808-85.683 193.808-214.208c0-128.525-77.523-214.208-193.808-214.208Zm2358.33 0c-116.284 0-193.807 85.683-193.807 214.208 0 128.525 77.523 214.208 193.807 214.208 116.285 0 193.808-85.683 193.808-214.208 0-128.525-77.523-214.208-193.808-214.208Zm348.854 155.046h278.471c0-91.804-68.343-155.046-168.307-155.046-117.304 0-193.807 83.643-193.807 214.208 0 132.605 76.503 214.208 199.928 214.208 73.443 0 124.445-35.701 154.026-105.064l-9.181-4.08c-33.661 51.002-76.503 77.523-123.424 77.523-83.644 0-140.766-78.543-140.766-193.807 0-16.321 1.02-32.642 3.06-47.942Zm-1185.29-338.654v10.201c43.861 0 71.402 23.461 71.402 61.202v459.018c0 37.742-27.541 61.203-71.402 61.203v10.2h269.29c172.387 0 292.752-123.425 292.752-300.912 0-177.487-120.365-300.912-292.752-300.912h-269.29Zm-938.437 294.792v235.629c0 33.662-27.541 61.203-61.203 61.203v10.2h193.808v-10.2c-33.661 0-61.202-27.541-61.202-61.203v-225.429c0-73.443-46.922-121.384-117.305-121.384-65.282 0-124.445 40.801-147.906 102.004v-326.413c-36.721 21.421-89.763 40.801-132.605 40.801v10.201c40.802 0 61.202 26.521 61.202 81.603v438.617c0 33.662-27.541 61.203-61.202 61.203v10.2h193.808v-10.2c-33.662 0-61.203-27.541-61.203-61.203v-165.246c0-83.644 54.062-150.966 120.365-150.966 44.882 0 73.443 30.601 73.443 80.583Zm501.86 0v235.629c0 33.662-27.542 61.203-61.203 61.203v10.2h193.808v-10.2c-33.662 0-61.203-27.541-61.203-61.203v-225.429c0-73.443-46.921-121.384-117.304-121.384-65.283 0-124.445 40.801-147.906 102.004v-112.205c-36.721 21.421-89.764 40.802-132.605 40.802v10.2c40.801 0 61.202 26.521 61.202 81.603v224.409c0 33.662-27.541 61.203-61.202 61.203v10.2h193.807v-10.2c-33.661 0-61.202-27.541-61.202-61.203v-165.246c0-83.644 54.062-150.966 120.365-150.966 44.881 0 73.443 30.601 73.443 80.583Zm1273.01-92.824c69.363 0 114.245 76.503 114.245 195.848 0 119.345-44.882 195.848-114.245 195.848-69.362 0-114.244-76.503-114.244-195.848 0-119.345 44.882-195.848 114.244-195.848Zm-2358.33 0c69.363 0 114.244 76.503 114.244 195.848 0 119.345-44.881 195.848-114.244 195.848s-114.244-76.503-114.244-195.848c0-119.345 44.881-195.848 114.244-195.848Zm1994.18 99.964c0 168.307-79.563 278.471-201.968 278.471h-47.942c-43.861 0-71.402-23.461-71.402-61.202v-497.78h119.344c121.385 0 201.968 112.205 201.968 280.511Zm716.068 18.361c16.321-73.443 57.123-118.325 107.104-118.325 54.063 0 92.824 49.982 92.824 118.325h-199.928Zm-8551.72-8318.51h61.673c30.837-92.511 67.842-123.348 117.181-123.348 129.515 0 289.866 185.022 622.905 185.022 437.884 0 801.759-357.708 801.759-789.425 0-770.922-1282.82-752.42-1282.82-1325.99 0-197.356 191.189-363.875 413.215-363.875 265.197 0 505.725 228.193 653.742 629.073h61.674v-678.412h-61.674c-30.837 92.511-61.674 129.515-104.845 129.515-117.181 0-240.528-191.189-542.73-191.189-394.712 0-721.583 314.537-721.583 703.082 0 770.922 1288.98 752.42 1288.98 1338.32 0 234.36-228.193 437.884-499.558 437.884-333.038 0-604.403-277.532-746.253-752.42H1908.2v801.759Zm2584.13-1591.18h1683.69c0-555.064-413.214-937.442-1017.62-937.442-709.249 0-1171.8 505.725-1171.8 1295.15 0 801.759 462.553 1295.15 1208.81 1295.15 444.051 0 752.42-215.859 931.274-635.24l-55.506-24.67c-203.524 308.369-462.553 468.721-746.253 468.721-505.725 0-851.098-474.888-851.098-1171.8 0-98.678 6.167-197.356 18.502-289.867Zm3441.4 1319.82c0 197.356 160.352 333.039 394.712 333.039 222.026 0 431.717-117.18 524.227-302.202l-49.339-37.004c-67.841 92.511-191.188 154.184-283.699 154.184-98.678 0-154.185-67.841-154.185-191.188v-1498.67c0-456.386-314.536-715.416-863.433-715.416-468.721 0-912.772 203.524-912.772 629.073 0 209.691 148.017 326.871 388.545 326.871 67.841 0 135.682-12.335 178.854-30.837-123.348-92.511-185.021-228.193-185.021-370.043 0-222.025 154.184-444.051 462.553-444.051s499.558 222.026 499.558 530.395c0 789.424-1467.84 388.545-1467.84 1338.32 0 339.206 320.704 610.571 727.751 610.571 277.532 0 585.901-185.022 740.086-437.884v104.845Zm-1036.12-302.201c0-536.562 672.244-592.069 1036.12-937.442v974.446c-166.519 271.365-376.21 431.717-604.403 431.717-259.03 0-431.717-191.189-431.717-468.721Zm-2386.78-1128.63c98.678-444.051 345.373-715.416 647.575-715.416 326.871 0 561.231 302.202 561.231 715.416h-1208.81Zm-180.903-3261.81-112.266-274.937c-3.437-8.019-4.582-16.038-4.582-24.057 0-26.348 17.183-44.677 46.968-44.677v-11.456h-200.475v11.456c28.64 0 54.988 29.785 71.026 68.734l159.234 389.494h11.456l159.234-389.494c16.038-37.804 46.968-68.734 80.19-68.734v-11.456h-160.38v11.456c41.241 0 66.443 18.329 66.443 45.822 0 6.874-2.291 14.893-5.728 22.912l-111.12 274.937Zm333.361-192.456h312.74c0-103.101-76.753-174.127-189.019-174.127-131.74 0-217.658 93.937-217.658 240.57 0 148.924 85.918 240.57 224.532 240.57 82.481 0 139.759-40.095 172.981-117.994l-10.31-4.582c-37.804 57.278-85.918 87.063-138.614 87.063-93.937 0-158.089-88.209-158.089-217.658 0-18.329 1.146-36.659 3.437-53.842Zm-1295.64-153.506c52.696 0 95.082 36.658 95.082 82.481 0 11.455-2.291 21.765-8.019 29.784 10.311 3.437 19.475 5.728 26.349 5.728 27.493 0 45.822-16.038 45.822-41.24 0-54.988-69.879-97.374-159.234-97.374-131.74 0-217.658 93.937-217.658 240.57 0 148.924 85.918 240.57 224.532 240.57 82.481 0 139.759-40.095 172.981-117.994l-10.311-4.582c-37.803 57.278-85.917 87.063-138.613 87.063-93.937 0-158.089-88.209-158.089-217.658 0-120.285 52.696-207.348 127.158-207.348Zm445.627-20.621c-130.595 0-217.658 96.228-217.658 240.57 0 144.342 87.063 240.57 217.658 240.57 130.595 0 217.658-96.228 217.658-240.57 0-144.342-87.063-240.57-217.658-240.57Zm-1049.34 469.684h11.455c5.728-17.184 12.602-22.911 21.766-22.911 24.057 0 53.842 34.367 115.703 34.367 81.335 0 148.924-66.443 148.924-146.633 0-143.197-238.279-139.76-238.279-246.298 0-36.658 35.513-67.588 76.754-67.588 49.259 0 93.936 42.386 121.43 116.848h11.456v-126.013h-11.456c-5.728 17.184-11.456 24.057-19.475 24.057-21.766 0-44.677-35.513-100.81-35.513-73.316 0-134.032 58.424-134.032 130.595 0 143.197 239.425 139.76 239.425 248.589 0 43.532-42.387 81.335-92.792 81.335-61.86 0-112.265-51.55-138.614-139.759h-11.455v148.924Zm-431.88-126.013V3267.85c-41.241 24.057-100.81 45.823-148.924 45.823v11.455c45.823 0 68.734 29.785 68.734 91.646v148.924c-34.367-29.785-80.19-45.823-130.595-45.823-128.304 0-213.076 100.81-213.076 252.026 0 137.468 69.88 229.114 176.418 229.114 73.316 0 140.905-45.823 167.253-114.557v34.367c0 24.057 4.582 56.133 11.456 80.19l137.468-19.475v-11.456c-51.551-9.164-68.734-34.367-68.734-106.538Zm278.373 45.823V3508.42c-41.24 24.057-100.81 45.822-148.924 45.822v11.456c37.804 0 68.734 19.475 68.734 91.646v252.025c0 37.804-30.93 68.734-68.734 68.734v11.456h217.659v-11.456c-37.804 0-68.735-30.93-68.735-68.734Zm2482.45-252.025v252.025c0 37.804-30.931 68.734-68.735 68.734v11.456h217.659v-11.456c-37.804 0-68.735-30.93-68.735-68.734v-183.291c0-93.937 45.823-153.506 96.228-153.506 35.513 0 58.424 27.493 58.424 71.025 0 5.728 0 12.601-1.145 19.475 38.949-20.621 53.842-44.678 53.842-75.608 0-37.804-30.931-67.589-72.171-67.589-54.988 0-108.829 45.823-135.178 114.557V3508.42c-41.24 24.057-100.81 45.822-148.924 45.822v11.456c45.823 0 68.735 30.93 68.735 91.646Zm-1279.6-116.848c77.899 0 128.304 85.917 128.304 219.949s-50.405 219.949-128.304 219.949-128.304-85.917-128.304-219.949 50.405-219.949 128.304-219.949Zm-1561.41 50.405v206.202c0 93.937-63.006 169.545-136.323 169.545-75.607 0-121.43-76.754-121.43-202.766 0-136.323 54.987-217.659 146.633-217.659 42.386 0 84.772 17.184 111.12 44.678Zm2414.86 82.481c18.329-82.481 64.151-132.886 120.284-132.886 60.716 0 104.247 56.132 104.247 132.886h-224.531Zm-2104.41-348.254c-28.639 0-51.55 22.912-51.55 51.551 0 28.639 22.911 51.551 51.55 51.551 28.64 0 51.551-22.912 51.551-51.551 0-28.639-22.911-51.551-51.551-51.551Z" style="fill-rule:nonzero"/><path d="M10402.1 10163.8c91.842 65.4-514.758 547.5-834.896 1172.2-278.991 544.775-261.804 1233.73-386.112 1388.99-133.854 167.396-142.533-622.341-458.504-851.421-306.25-222.05-875.871 200.971-755.383 31.734 266.666-374.271 2087.32-1988.98 2434.89-1741.51l.005.007Zm-4178.54 678.434c123.262 18.312-160.242 405.746-350.346 886.941-140.975 356.809-165.104 813.542-278.646 955.455-137.675 172.083-159.725-224.375-378.996-412.292-200.691-172.05-611.283-122.05-494.271-286.392 266.496-374.287 1073.27-1207.48 1502.26-1143.71l-.001-.002Zm-3465.11-693.584c123.609 5.817-221.704 489.325-471.529 1040.58-175.696 387.779-236.283 861.338-346.354 998.975-153.471 191.684-353.125-137.5-665.971-259.271-225-87.654-618.229 86.667-580.037-85.833 62.5-283.141 305.383-496.858 737.675-993.383 280.208-321.738 892.883-721.442 1326.22-701.063l-.004-.005Z" style="fill:#233238"/></svg>