<svg xmlns="http://www.w3.org/2000/svg" xml:space="preserve" style="fill-rule:evenodd;clip-rule:evenodd;stroke-linejoin:round;stroke-miterlimit:2" viewBox="0 0 500 700"><path d="M55 363.943h127.5V496H55z" style="fill:#b7b1bc" transform="matrix(3.92157 0 0 5.30074 -215.686 -1929.17)"/><text x="23.768" y="49.268" style="font-family:&quot;Verdana&quot;,sans-serif;font-size:11.562px" transform="matrix(.86876 0 0 .86876 182.976 633.691)">© 2025 Astrid Schäfer</text><path d="M1612 3113C846 2877 295 2168 295 1321.33h104c0 971 792 1771 1771 1771s1771-800 1771-1770.83h104c0 847-551 1556-1317 1791.67h946V3184H2389c-119 14-239 16-358 7-27-2-54-4-80-7.49H666v-71" style="fill:#89838d" transform="matrix(.0044 0 0 .0044 181.764 663.555)"/><circle cx="3821" cy="3146" r="175" style="fill:#c83154" transform="matrix(.0044 0 0 .0044 181.764 663.555)"/><circle cx="521" cy="3146" r="175" style="fill:#c83154" transform="matrix(.0044 0 0 .0044 181.764 663.555)"/><path d="M167 1041.67h333v333H167v-333Zm3667 0h333v333h-333v-333ZM2001 2958.34h333v333h-333v-333Z" style="fill:#fff" transform="matrix(.0044 0 0 .0044 181.764 663.555)"/><path d="M190.231 188.195c-1.663-1.179-2.49-3.679-2.034-7.078.375-2.801 1.785-6.077 3.803-10.154 2.018 4.077 3.428 7.353 3.803 10.154.456 3.399-.371 5.899-2.034 7.078.174-.538.218-1.199.107-1.961-.185-1.262-.881-2.739-1.876-4.577-.995 1.838-1.691 3.315-1.876 4.577-.111.762-.067 1.423.107 1.961Z" style="fill:#c83154" transform="translate(47.0718 -1.0394) scale(1.05692)"/><path d="m393.005 602.329-4.031-9.801c-.158-.395-.237-.75-.237-1.067 0-.83.553-1.304 1.58-1.304v-.395h-6.916v.395c1.028 0 2.016 1.028 2.569 2.371l4.506 10.948c.316.79.513 1.738.513 2.687 0 2.885-1.739 4.901-3.596 4.901-1.146 0-2.016-.593-2.529-1.621-.356.712-.475 1.146-.475 1.66 0 1.462.87 2.371 2.214 2.371 3.438 0 6.125-8.418 6.797-10.196l4.229-10.75c.593-1.541 1.343-2.371 2.371-2.371v-.395h-4.742v.395c.988 0 1.817.474 1.817 1.462 0 .277-.079.554-.197.909l-3.873 9.801Zm-47.464-9.01v-4.347c-1.423.83-3.478 1.58-5.138 1.58v.396c1.581 0 2.371 1.027 2.371 3.161v16.204c0 1.304-1.067 2.371-2.371 2.371v.395h7.509v-.395c-1.304 0-2.371-1.067-2.371-2.371v-5.928c1.185 1.027 2.766 1.58 4.505 1.58 4.426 0 7.351-3.477 7.351-8.694 0-4.743-2.45-7.904-6.126-7.904-2.529 0-4.821 1.581-5.73 3.952Zm-133.026-9.88c-.633-.791-1.383-1.186-2.371-1.186h-3.913v.395c1.699 0 2.766.909 2.766 2.372v17.784c0 1.462-1.067 2.371-2.766 2.371v.395h6.363v-.395c-1.7 0-2.767-.909-2.767-2.371V585.02l16.56 20.945h.395V585.02c0-1.463 1.067-2.372 2.766-2.372v-.395h-6.244c-.119 0-.119.395-.119.395 1.7 0 2.767.909 2.767 2.372v15.413l-13.437-16.994Zm-86.511 2.371v20.155h.396c.395-.83 1.067-1.422 2.055-1.857 1.225 1.186 2.924 1.857 4.782 1.857 4.426 0 7.39-3.438 7.39-8.615 0-4.861-2.411-7.983-6.126-7.983-2.529 0-4.821 1.581-5.73 3.952v-12.647c-1.423.83-3.478 1.581-5.138 1.581v.395c1.581 0 2.371 1.028 2.371 3.162Zm-4.11 8.102c0-8.063-5.414-12.054-10.947-12.054-5.533 0-10.947 3.991-10.947 12.054 0 8.062 5.414 12.053 10.947 12.053 5.533 0 10.947-3.991 10.947-12.053Zm39.956 9.919c0 1.265 1.027 2.134 2.529 2.134 1.423 0 2.766-.751 3.359-1.936l-.316-.237c-.435.593-1.225.988-1.818.988-.632 0-.988-.435-.988-1.225v-9.604c0-2.924-2.016-4.584-5.533-4.584-3.003 0-5.849 1.304-5.849 4.031 0 1.344.949 2.094 2.49 2.094.435 0 .869-.079 1.146-.197-.79-.593-1.186-1.462-1.186-2.371 0-1.423.988-2.846 2.964-2.846s3.202 1.423 3.202 3.399c0 5.059-9.406 2.49-9.406 8.576 0 2.173 2.055 3.912 4.663 3.912 1.779 0 3.755-1.185 4.743-2.806v.672Zm97.378-11.303v6.403c0 3.24-2.095 5.849-4.663 5.849-1.739 0-2.846-1.186-2.846-3.122v-11.896h-5.138v.395c1.305 0 2.372 1.067 2.372 2.371v8.734c0 2.846 1.778 4.703 4.505 4.703 2.529 0 4.861-1.58 5.77-3.952v1.186c0 .83.158 1.936.395 2.766l4.743-.671v-.396c-1.779-.316-2.372-1.185-2.372-3.675v-11.461h-5.137v.395c1.304 0 2.371 1.067 2.371 2.371Zm10.829 2.846h10.789c0-3.557-2.648-6.007-6.521-6.007-4.545 0-7.509 3.24-7.509 8.299 0 5.138 2.964 8.299 7.746 8.299 2.845 0 4.821-1.383 5.968-4.07l-.356-.158c-1.304 1.976-2.964 3.003-4.782 3.003-3.241 0-5.454-3.043-5.454-7.509 0-.632.04-1.264.119-1.857Zm-91.174 8.813-.277-.237c-.593.593-1.581.988-2.49.988-1.62 0-2.529-1.304-2.529-3.636v-10.829h4.545v-.711h-4.545v-5.098h-.395c-.198 1.185-.672 2.292-1.344 3.241-.869 1.185-2.015 1.976-3.201 2.292v.276h2.174v11.303c0 2.885 1.225 4.189 4.031 4.189 1.897 0 3.28-.592 4.031-1.778Zm199.736-.356c0 1.265 1.028 2.134 2.53 2.134 1.422 0 2.766-.751 3.359-1.936l-.316-.237c-.435.593-1.225.988-1.818.988-.632 0-.988-.435-.988-1.225v-9.604c0-2.924-2.016-4.584-5.533-4.584-3.004 0-5.849 1.304-5.849 4.031 0 1.344.948 2.094 2.49 2.094.434 0 .869-.079 1.146-.197-.791-.593-1.186-1.462-1.186-2.371 0-1.423.988-2.846 2.964-2.846s3.201 1.423 3.201 3.399c0 5.059-9.405 2.49-9.405 8.576 0 2.173 2.055 3.912 4.663 3.912 1.778 0 3.754-1.185 4.742-2.806v.672Zm-188.947 0c0 1.265 1.028 2.134 2.529 2.134 1.423 0 2.767-.751 3.36-1.936l-.317-.237c-.434.593-1.225.988-1.818.988-.632 0-.988-.435-.988-1.225v-9.604c0-2.924-2.015-4.584-5.532-4.584-3.004 0-5.849 1.304-5.849 4.031 0 1.344.948 2.094 2.489 2.094.435 0 .87-.079 1.146-.197-.79-.593-1.185-1.462-1.185-2.371 0-1.423.988-2.846 2.964-2.846s3.201 1.423 3.201 3.399c0 5.059-9.406 2.49-9.406 8.576 0 2.173 2.055 3.912 4.664 3.912 1.778 0 3.754-1.185 4.742-2.806v.672Zm44.935-8.457h10.789c0-3.557-2.648-6.007-6.521-6.007-4.545 0-7.509 3.24-7.509 8.299 0 5.138 2.964 8.299 7.746 8.299 2.846 0 4.822-1.383 5.968-4.07l-.356-.158c-1.304 1.976-2.964 3.003-4.782 3.003-3.241 0-5.454-3.043-5.454-7.509 0-.632.04-1.264.119-1.857Zm92.991 10.196h.396c.197-.593.434-.79.751-.79.829 0 1.857 1.185 3.991 1.185 2.806 0 5.138-2.292 5.138-5.058 0-4.94-8.22-4.822-8.22-8.497 0-1.265 1.225-2.332 2.647-2.332 1.7 0 3.241 1.462 4.19 4.031h.395v-4.347h-.395c-.198.593-.396.83-.672.83-.751 0-1.542-1.225-3.478-1.225-2.529 0-4.624 2.015-4.624 4.505 0 4.94 8.26 4.822 8.26 8.576 0 1.502-1.462 2.806-3.201 2.806-2.134 0-3.873-1.778-4.782-4.821h-.396v5.137Zm-179.581-2.766v-22.132c-1.422.83-3.477 1.581-5.137 1.581v.395c1.581 0 2.371 1.028 2.371 3.162v16.994c0 1.304-1.067 2.371-2.371 2.371v.395h7.509v-.395c-1.305 0-2.372-1.067-2.372-2.371Zm174.286 0v-13.832c-1.423.83-3.478 1.58-5.138 1.58v.396c1.304 0 2.371.671 2.371 3.161v8.695c0 1.304-1.067 2.371-2.371 2.371v.395h7.509v-.395c-1.304 0-2.371-1.067-2.371-2.371Zm-29.68-20.551v.395c1.699 0 2.766.909 2.766 2.372v17.784c0 1.462-1.067 2.371-2.766 2.371v.395h10.433c6.679 0 11.343-4.782 11.343-11.658 0-6.877-4.664-11.659-11.343-11.659h-10.433Zm72.164 20.551v-22.132c-1.422.83-3.478 1.581-5.137 1.581v.395c1.58 0 2.371 1.028 2.371 3.162v16.994c0 1.304-1.067 2.371-2.371 2.371v.395h7.508v-.395c-1.304 0-2.371-1.067-2.371-2.371Zm-246.291-8.892c0 7.588-3.676 11.223-7.549 11.223s-7.548-3.635-7.548-11.223c0-7.588 3.675-11.224 7.548-11.224s7.549 3.636 7.549 11.224Zm227.045 9.603v-7.114c0-3.24 2.094-5.849 4.663-5.849 2.609 0 4.229 2.648 4.229 6.996 0 4.702-1.897 7.508-5.059 7.508-1.462 0-2.924-.592-3.833-1.541Zm-216.77 0v-7.114c0-3.24 2.094-5.849 4.663-5.849 2.609 0 4.229 2.648 4.229 6.996 0 4.702-1.897 7.508-5.059 7.508-1.462 0-2.924-.592-3.833-1.541Zm243.209-1.62c0-3.439 4.308-3.794 6.639-6.007v6.244c-1.067 1.739-2.41 2.766-3.873 2.766-1.659 0-2.766-1.225-2.766-3.003Zm-216.77 0c0-3.439 4.308-3.794 6.64-6.007v6.244c-1.067 1.739-2.411 2.766-3.873 2.766-1.66 0-2.767-1.225-2.767-3.003Zm27.823 0c0-3.439 4.307-3.794 6.639-6.007v6.244c-1.067 1.739-2.411 2.766-3.873 2.766-1.66 0-2.766-1.225-2.766-3.003Zm127.888-7.944c0 6.521-3.083 10.789-7.825 10.789h-1.858c-1.699 0-2.766-.909-2.766-2.371v-19.286h4.624c4.703 0 7.825 4.347 7.825 10.868Zm-76.196.712c.633-2.846 2.213-4.585 4.15-4.585 2.095 0 3.596 1.937 3.596 4.585h-7.746Zm35.45 0c.633-2.846 2.213-4.585 4.15-4.585 2.094 0 3.596 1.937 3.596 4.585h-7.746Zm50.468-12.015c-.988 0-1.779.791-1.779 1.779 0 .988.791 1.778 1.779 1.778.988 0 1.778-.79 1.778-1.778s-.79-1.779-1.778-1.779ZM400 565.753H100v1h300v-1Zm-88.054-254.218c1.734-1.927 3.565-2.794 5.299-2.794 2.89 0 5.106 2.408 5.587 6.069 1.349-.771 2.12-2.697 2.12-4.624 0-3.083-2.023-5.01-5.202-5.01-2.987 0-6.263 1.927-8.767 5.106-2.409-3.275-6.455-5.106-11.368-5.106-8.093 0-13.97 5.395-13.97 13.006 0 4.721 2.409 8.767 6.359 11.079-3.276 2.119-4.624 5.299-4.624 8.67 0 3.661 2.697 6.455 7.514 7.708-6.069 1.059-10.405 4.528-10.405 8.766 0 5.588 6.937 9.538 16.667 9.538 11.368 0 18.305-5.684 18.305-14.933 0-15.125-29.191-5.491-29.191-14.065 0-2.023 1.638-4.046 3.372-4.913 1.926.77 3.757 1.156 5.973 1.156 8.188 0 13.969-5.299 13.969-13.006 0-2.505-.578-4.817-1.638-6.647Zm-15.222 34.104h.289c14.451 0 19.365 3.468 19.365 7.129 0 5.106-6.648 9.441-14.837 9.441-6.743 0-11.079-3.276-11.079-8.189 0-3.468 2.602-6.936 6.262-8.381ZM183.911 319.82h26.301c0-8.671-6.455-14.644-15.896-14.644-11.079 0-18.304 7.9-18.304 20.231 0 12.524 7.225 20.232 18.882 20.232 6.936 0 11.753-3.372 14.547-9.923l-.867-.386c-3.179 4.817-7.225 7.322-11.657 7.322-7.9 0-13.295-7.418-13.295-18.304 0-1.542.097-3.083.289-4.528ZM400 341.303l-.674-.578c-1.445 1.445-3.854 2.409-6.07 2.409-3.95 0-6.165-3.179-6.165-8.863v-26.397h11.079v-1.734h-11.079v-12.428h-.964c-.482 2.89-1.638 5.588-3.275 7.9-2.12 2.89-4.914 4.817-7.804 5.587v.675h5.299v27.553c0 7.032 2.986 10.212 9.826 10.212 4.625 0 7.997-1.445 9.827-4.336Zm-275.048 0-.675-.578c-1.445 1.445-3.853 2.409-6.069 2.409-3.95 0-6.166-3.179-6.166-8.863v-26.397h11.079v-1.734h-11.079v-12.428h-.963c-.482 2.89-1.638 5.588-3.276 7.9-2.119 2.89-4.913 4.817-7.803 5.587v.675h5.299v27.553c0 7.032 2.986 10.212 9.826 10.212 4.625 0 7.996-1.445 9.827-4.336Zm232.659-25.626v22.254c0 3.18-2.601 5.781-5.781 5.781v.963h18.305v-.963c-3.179 0-5.78-2.601-5.78-5.781v-21.29c0-6.937-4.432-11.465-11.079-11.465-6.166 0-11.754 3.854-13.97 9.634v-30.828c-3.468 2.023-8.477 3.853-12.524 3.853v.964c3.854 0 5.781 2.504 5.781 7.707v41.425c0 3.18-2.602 5.781-5.781 5.781v.963h18.305v-.963c-3.179 0-5.781-2.601-5.781-5.781v-15.606c0-7.9 5.106-14.259 11.368-14.259 4.239 0 6.937 2.891 6.937 7.611Zm-198.94 0v22.254c0 3.18-2.602 5.781-5.781 5.781v.963h18.305v-.963c-3.18 0-5.781-2.601-5.781-5.781v-21.29c0-6.937-4.431-11.465-11.079-11.465-6.165 0-11.753 3.854-13.969 9.634v-30.828c-3.468 2.023-8.478 3.853-12.524 3.853v.964c3.854 0 5.78 2.504 5.78 7.707v41.425c0 3.18-2.601 5.781-5.78 5.781v.963h18.304v-.963c-3.179 0-5.78-2.601-5.78-5.781v-15.606c0-7.9 5.106-14.259 11.368-14.259 4.239 0 6.937 2.891 6.937 7.611Zm91.714 22.254v-53.949c-3.468 2.023-8.477 3.853-12.524 3.853v.964c3.854 0 5.781 2.504 5.781 7.707v41.425c0 3.18-2.602 5.781-5.781 5.781v.963h18.305v-.963c-3.179 0-5.781-2.601-5.781-5.781Zm22.736 0v-33.718c-3.468 2.023-8.477 3.853-12.524 3.853v.964c3.179 0 5.781 1.638 5.781 7.707v21.194c0 3.18-2.602 5.781-5.781 5.781v.963h18.305v-.963c-3.179 0-5.781-2.601-5.781-5.781Zm26.494-31.021c4.72 0 7.61 4.336 7.61 11.272s-2.89 11.175-7.61 11.175c-4.721 0-7.611-4.335-7.611-11.175 0-6.936 2.986-11.272 7.611-11.272ZM184.2 318.086c1.542-6.937 5.395-11.176 10.116-11.176 5.106 0 8.767 4.721 8.767 11.176H184.2Zm84.875-29.287c-2.408 0-4.335 1.926-4.335 4.335 0 2.408 1.927 4.335 4.335 4.335 2.409 0 4.335-1.927 4.335-4.335 0-2.409-1.926-4.335-4.335-4.335Zm42.851-117.467c-7.767.501-15.337 1.739-22.709 3.715-7.372 1.975-14.546 4.688-21.524 8.138 15.535-1.002 30.279-4.953 44.233-11.853Zm-123.851 0c6.977 3.45 14.151 6.163 21.524 8.138 7.372 1.975 14.941 3.214 22.709 3.715-13.955-6.9-28.699-10.851-44.233-11.853Zm107.259-28.739c-6.476 4.317-12.413 9.174-17.81 14.571-5.396 5.397-10.253 11.333-14.571 17.809 12.951-8.635 23.746-19.428 32.381-32.38Zm-90.667 0c4.318 6.476 9.175 12.412 14.572 17.809 5.397 5.397 11.333 10.254 17.809 14.571-8.635-12.952-19.428-23.745-32.381-32.38ZM233.408 126c.501 7.767 1.739 15.336 3.714 22.709 1.975 7.372 4.687 14.546 8.137 21.523-1.001-15.534-4.952-30.279-11.851-44.232Zm33.185 0c-3.45 6.977-6.162 14.151-8.138 21.523-1.975 7.373-3.213 14.942-3.713 22.709 6.899-13.953 10.849-28.698 11.851-44.232Z" style="fill:#403f41"/></svg>