<svg xmlns="http://www.w3.org/2000/svg" xml:space="preserve" style="fill-rule:evenodd;clip-rule:evenodd;stroke-linejoin:round;stroke-miterlimit:2" viewBox="0 0 384 615"><path d="M-13.048-8.699h410.096v631.797H-13.048z" style="fill:#141921"/><path d="M190.231 188.195c-1.663-1.179-2.49-3.679-2.034-7.078.375-2.801 1.785-6.077 3.803-10.154 2.018 4.077 3.428 7.353 3.803 10.154.456 3.399-.371 5.899-2.034 7.078.174-.538.218-1.199.107-1.961-.185-1.262-.881-2.739-1.876-4.577-.995 1.838-1.691 3.315-1.876 4.577-.111.762-.067 1.423.107 1.961Z" style="fill:#ae1c31"/><path d="M250.61 295.741c1.641-1.823 3.373-2.643 5.013-2.643 2.735 0 4.831 2.278 5.287 5.742 1.276-.729 2.005-2.552 2.005-4.375 0-2.917-1.914-4.74-4.922-4.74-2.825 0-5.924 1.823-8.294 4.831-2.279-3.099-6.108-4.831-10.756-4.831-7.657 0-13.217 5.105-13.217 12.305 0 4.467 2.279 8.295 6.016 10.483-3.099 2.005-4.375 5.013-4.375 8.203 0 3.464 2.552 6.108 7.109 7.293-5.742 1.002-9.844 4.284-9.844 8.294 0 5.287 6.563 9.024 15.769 9.024 10.756 0 17.319-5.378 17.319-14.128 0-14.311-27.619-5.196-27.619-13.308 0-1.914 1.55-3.829 3.19-4.649 1.823.729 3.555 1.094 5.652 1.094 7.748 0 13.217-5.013 13.217-12.306 0-2.369-.547-4.557-1.55-6.289Zm-14.402 32.268h.274c13.672 0 18.321 3.281 18.321 6.745 0 4.831-6.289 8.932-14.037 8.932-6.381 0-10.483-3.099-10.483-7.747 0-3.282 2.461-6.563 5.925-7.93Zm-162.522-4.102-.638-.547c-1.367 1.367-3.646 2.279-5.743 2.279-3.737 0-5.833-3.008-5.833-8.386v-24.976h10.482v-1.64H61.472v-11.759h-.912c-.455 2.735-1.549 5.287-3.099 7.475-2.005 2.734-4.649 4.557-7.383 5.286v.638h5.013v26.07c0 6.654 2.826 9.662 9.298 9.662 4.375 0 7.565-1.368 9.297-4.102Zm260.236 0-.638-.547c-1.367 1.367-3.646 2.279-5.742 2.279-3.738 0-5.834-3.008-5.834-8.386v-24.976h10.482v-1.64h-10.482v-11.759h-.912c-.455 2.735-1.549 5.287-3.099 7.475-2.005 2.734-4.648 4.557-7.383 5.286v.638h5.013v26.07c0 6.654 2.826 9.662 9.298 9.662 4.375 0 7.565-1.368 9.297-4.102ZM129.47 303.58h24.885c0-8.204-6.107-13.855-15.04-13.855-10.483 0-17.319 7.474-17.319 19.142 0 11.849 6.836 19.142 17.866 19.142 6.562 0 11.12-3.191 13.763-9.389l-.82-.365c-3.008 4.558-6.836 6.928-11.029 6.928-7.475 0-12.579-7.019-12.579-17.319 0-1.458.091-2.917.273-4.284Zm84.406 17.136v-31.902c-3.281 1.914-8.021 3.646-11.849 3.646v.911c3.008 0 5.469 1.55 5.469 7.292v20.053c0 3.008-2.461 5.469-5.469 5.469v.912h17.318v-.912c-3.008 0-5.469-2.461-5.469-5.469Zm-21.511 0v-51.044c-3.282 1.914-8.022 3.646-11.85 3.646v.911c3.646 0 5.469 2.37 5.469 7.293v39.194c0 3.008-2.461 5.469-5.469 5.469v.912h17.319v-.912c-3.008 0-5.469-2.461-5.469-5.469Zm-86.776-21.055v21.055c0 3.008-2.461 5.469-5.469 5.469v.912h17.318v-.912c-3.008 0-5.469-2.461-5.469-5.469v-20.144c0-6.563-4.193-10.847-10.482-10.847-5.834 0-11.12 3.646-13.217 9.115v-29.168c-3.281 1.914-8.021 3.646-11.849 3.646v.911c3.646 0 5.469 2.37 5.469 7.293v39.194c0 3.008-2.461 5.469-5.469 5.469v.912h17.318v-.912c-3.008 0-5.469-2.461-5.469-5.469V305.95c0-7.474 4.831-13.49 10.756-13.49 4.011 0 6.563 2.734 6.563 7.201Zm188.227 0v21.055c0 3.008-2.461 5.469-5.469 5.469v.912h17.318v-.912c-3.008 0-5.469-2.461-5.469-5.469v-20.144c0-6.563-4.193-10.847-10.482-10.847-5.834 0-11.121 3.646-13.217 9.115v-29.168c-3.281 1.914-8.021 3.646-11.85 3.646v.911c3.646 0 5.469 2.37 5.469 7.292v39.195c0 3.008-2.461 5.469-5.469 5.469v.912h17.319v-.912c-3.008 0-5.469-2.461-5.469-5.469V305.95c0-7.474 4.831-13.49 10.756-13.49 4.01 0 6.563 2.734 6.563 7.201Zm-54.873-8.295c4.466 0 7.201 4.102 7.201 10.664 0 6.563-2.735 10.574-7.201 10.574-4.467 0-7.201-4.102-7.201-10.574 0-6.562 2.826-10.664 7.201-10.664Zm-109.199 10.573c1.458-6.563 5.104-10.573 9.571-10.573 4.831 0 8.294 4.466 8.294 10.573h-17.865Zm80.304-27.71c-2.279 0-4.102 1.823-4.102 4.102 0 2.279 1.823 4.102 4.102 4.102 2.279 0 4.102-1.823 4.102-4.102 0-2.279-1.823-4.102-4.102-4.102Zm-76.639-111.14c6.602 3.264 13.39 5.831 20.365 7.7 6.975 1.869 14.137 3.04 21.486 3.514-13.203-6.528-27.153-10.266-41.851-11.214Zm117.182 0c-7.349.474-14.511 1.645-21.486 3.514-6.975 1.869-13.763 4.436-20.365 7.7 14.698-.948 28.648-4.686 41.851-11.214Zm-101.483-27.192c4.085 6.127 8.681 11.744 13.787 16.85 5.107 5.107 10.723 9.702 16.85 13.787-8.17-12.255-18.382-22.467-30.637-30.637Zm85.784 0c-6.127 4.085-11.744 8.68-16.85 13.787-5.106 5.106-9.702 10.722-13.787 16.85 12.254-8.17 22.467-18.382 30.637-30.637Zm-27.193-15.699c-3.264 6.601-5.83 13.389-7.699 20.364-1.869 6.976-3.04 14.138-3.514 21.486 6.528-13.202 10.265-27.153 11.213-41.85Zm-31.398 0c.474 7.349 1.646 14.511 3.514 21.486 1.869 6.975 4.435 13.763 7.699 20.364-.947-14.697-4.685-28.648-11.213-41.85Z" style="fill:#7a879b"/></svg>