<svg xmlns="http://www.w3.org/2000/svg" xml:space="preserve" style="fill-rule:evenodd;clip-rule:evenodd;stroke-linejoin:round;stroke-miterlimit:2" viewBox="0 0 6667 10667"><path d="M0 0h6642.28v10666.7H0z" style="fill:#bfbfbf"/><path d="M3750.01 8963.2c14.846-16.496 30.517-23.919 45.363-23.919 24.743 0 43.713 20.62 47.837 51.962 11.547-6.599 18.145-23.094 18.145-39.59 0-26.393-17.32-42.888-44.538-42.888-25.568 0-53.61 16.495-75.055 43.713-20.619-28.043-55.26-43.713-97.324-43.713-69.281 0-119.592 46.187-119.592 111.345 0 40.414 20.619 75.055 54.435 94.849-28.043 18.145-39.589 45.363-39.589 74.23 0 31.342 23.093 55.261 64.332 65.983-51.961 9.072-89.076 38.764-89.076 75.055 0 47.837 59.384 81.653 142.687 81.653 97.324 0 156.708-48.662 156.708-127.841 0-129.49-249.908-47.012-249.908-120.418 0-17.32 14.021-34.64 28.867-42.063 16.496 6.598 32.167 9.897 51.136 9.897 70.107 0 119.593-45.363 119.593-111.345 0-21.444-4.948-41.239-14.021-56.91Zm-1204.18 28.043v-90.726c-29.692 17.32-72.581 32.991-107.221 32.991v8.248c32.991 0 49.486 21.444 49.486 65.982v338.159c0 27.218-22.269 49.487-49.486 49.487v8.248h156.708v-8.248c-27.218 0-49.487-22.269-49.487-49.487v-123.716c24.743 21.444 57.734 32.991 94.025 32.991 92.375 0 153.409-72.581 153.409-181.452 0-98.973-51.137-164.955-127.841-164.955-52.786 0-100.623 32.991-119.593 82.478Zm1073.86 263.929h2.474c123.717 0 165.781 29.692 165.781 61.033 0 43.714-56.91 80.829-127.016 80.829-57.734 0-94.85-28.043-94.85-70.106 0-29.692 22.27-59.385 53.611-71.756Zm903.958-8.248h8.248c4.124-12.372 9.072-16.496 15.67-16.496 17.321 0 38.765 24.744 83.303 24.744 58.559 0 107.221-47.837 107.221-105.572 0-103.097-171.554-100.623-171.554-177.327 0-26.393 25.569-48.662 55.261-48.662 35.465 0 67.631 30.516 87.426 84.127h8.248v-90.726h-8.248c-4.124 12.372-8.248 17.321-14.021 17.321-15.671 0-32.166-25.568-72.581-25.568-52.785 0-96.499 42.063-96.499 94.024 0 103.098 172.379 100.623 172.379 178.977 0 31.342-30.517 58.56-66.807 58.56-44.538 0-80.828-37.115-99.798-100.623h-8.248v107.221Zm-1225.62-338.159c-94.024 0-156.708 69.281-156.708 173.203s62.684 173.204 156.708 173.204c94.025 0 156.708-69.282 156.708-173.204 0-103.922-62.683-173.203-156.708-173.203Zm1519.24 338.159h8.248c4.124-12.372 9.073-16.496 15.671-16.496 17.32 0 38.764 24.744 83.302 24.744 58.56 0 107.222-47.837 107.222-105.572 0-103.097-171.554-100.623-171.554-177.327 0-26.393 25.568-48.662 55.26-48.662 35.465 0 67.632 30.516 87.427 84.127h8.247v-90.726h-8.247c-4.124 12.372-8.248 17.321-14.022 17.321-15.671 0-32.166-25.568-72.58-25.568-52.786 0-96.499 42.063-96.499 94.024 0 103.098 172.378 100.623 172.378 178.977 0 31.342-30.516 58.56-66.807 58.56-44.538 0-80.828-37.115-99.798-100.623h-8.248v107.221Zm-575.696-212.793h225.165c0-74.23-55.26-125.366-136.088-125.366-94.85 0-156.708 67.631-156.708 173.203 0 107.221 61.858 173.204 161.656 173.204 59.384 0 100.623-28.867 124.542-84.952l-7.423-3.3c-27.218 41.239-61.859 62.684-99.798 62.684-67.632 0-113.82-63.508-113.82-156.708 0-13.197.825-26.393 2.474-38.765Zm-315.065-26.393v181.451c0 27.218-22.269 49.487-49.487 49.487v8.248h156.708v-8.248c-27.218 0-49.487-22.269-49.487-49.487v-131.964c0-67.632 32.992-110.521 69.282-110.521 25.568 0 42.064 19.795 42.064 51.137 0 4.124 0 9.072-.825 14.021 28.042-14.846 38.764-32.166 38.764-54.435 0-27.218-22.269-48.662-51.961-48.662-39.589 0-78.354 32.991-97.324 82.478v-90.726c-29.692 17.32-72.58 32.991-107.221 32.991v8.248c32.991 0 49.487 22.269 49.487 65.982Zm-1831.83-9.072v190.523c0 27.218-22.269 49.487-49.487 49.487v8.248h156.708v-8.248c-27.218 0-49.487-22.269-49.487-49.487v-182.276c0-59.384-37.94-98.148-94.849-98.148-52.786 0-100.623 32.991-119.593 82.478v-90.726c-29.692 17.32-72.581 32.991-107.222 32.991v8.248c32.992 0 49.487 21.444 49.487 65.982v181.451c0 27.218-22.269 49.487-49.487 49.487v8.248h156.708v-8.248c-27.217 0-49.486-22.269-49.486-49.487v-133.614c0-67.632 43.713-122.067 97.324-122.067 36.29 0 59.384 24.743 59.384 65.158Zm799.211 9.072v181.451c0 27.218-22.269 49.487-49.487 49.487v8.248h156.708v-8.248c-27.218 0-49.487-22.269-49.487-49.487v-131.964c0-67.632 32.991-110.521 69.282-110.521 25.568 0 42.063 19.795 42.063 51.137 0 4.124 0 9.072-.824 14.021 28.042-14.846 38.764-32.166 38.764-54.435 0-27.218-22.269-48.662-51.961-48.662-39.589 0-78.354 32.991-97.324 82.478v-90.726c-29.692 17.32-72.58 32.991-107.221 32.991v8.248c32.991 0 49.487 22.269 49.487 65.982Zm-1151.39 181.451v-288.672c-29.692 17.32-72.58 32.991-107.221 32.991v8.248c27.218 0 49.487 14.021 49.487 65.982v181.451c0 27.218-22.269 49.487-49.487 49.487v8.248h156.708v-8.248c-27.218 0-49.487-22.269-49.487-49.487Zm1555.53-265.578c56.085 0 92.376 61.858 92.376 158.357s-36.291 158.358-92.376 158.358c-56.085 0-92.375-61.859-92.375-158.358s36.29-158.357 92.375-158.357Zm-752.198 280.424v-148.46c0-67.632 43.713-122.067 97.324-122.067 54.435 0 88.251 55.26 88.251 145.986 0 98.149-39.589 156.708-105.572 156.708-30.516 0-61.033-12.372-80.003-32.167Zm1098.61-280.424c40.415 0 65.158 37.115 65.158 96.499 0 59.384-24.743 95.674-65.158 95.674-40.414 0-65.157-37.115-65.157-95.674 0-59.384 25.568-96.499 65.157-96.499Zm599.615 95.674c13.196-59.384 46.187-95.674 86.602-95.674 43.713 0 75.055 40.414 75.055 95.674h-161.657Zm-2536.2-250.733c-20.619 0-37.115 16.496-37.115 37.115 0 20.62 16.496 37.115 37.115 37.115 20.62 0 37.115-16.495 37.115-37.115 0-20.619-16.495-37.115-37.115-37.115Zm3172.62-3412.03c95.605 242.064 143.408 513.624 143.408 814.678 0 301.055-47.803 572.614-143.408 814.678-95.605 242.064-223.757 437.343-384.455 585.836-160.698 148.493-339.703 262.405-537.016 341.737-197.313 79.332-405.813 118.998-625.502 118.998-219.688 0-428.189-39.666-625.501-118.998-197.313-79.332-376.318-193.244-537.016-341.737-160.698-148.493-288.85-343.772-384.455-585.836-95.605-242.064-143.408-513.623-143.408-814.678 0-301.054 47.803-572.614 143.408-814.678 95.605-242.064 223.757-437.342 384.455-585.835 160.698-148.494 339.703-262.406 537.016-341.738 197.312-79.332 405.813-118.998 625.501-118.998 219.689 0 428.189 39.666 625.502 118.998 197.313 79.332 376.318 193.244 537.016 341.738 160.698 148.493 288.85 343.771 384.455 585.835Zm-723.141 2096.19c227.825-301.055 341.737-728.227 341.737-1281.52 0-553.289-113.912-980.461-341.737-1281.52-227.825-301.054-502.436-451.581-823.832-451.581s-596.006 150.527-823.831 451.581c-227.825 301.055-341.738 728.227-341.738 1281.52 0 553.289 113.913 980.461 341.738 1281.52 227.825 301.054 502.435 451.582 823.831 451.582s596.007-150.528 823.832-451.582Zm-475.475-5180.93c-36.549-45.687-79.951-68.531-137.06-68.531h-226.15v22.844c98.227 0 159.904 52.54 159.904 137.06v1027.95c0 84.521-61.677 137.061-159.904 137.061v22.843h367.779v-22.843c-98.227 0-159.904-52.54-159.904-137.061v-1027.95l957.139 1210.7h22.843v-1210.7c0-84.52 61.677-137.06 159.904-137.06v-22.844h-360.926c-6.853 0-6.853 22.844-6.853 22.844 98.227 0 159.904 52.54 159.904 137.06v890.893l-776.676-982.266Zm-520.829 605.35c0-466.006-312.955-696.724-632.762-696.724-319.808 0-632.762 230.718-632.762 696.724 0 466.005 312.954 696.723 632.762 696.723 319.807 0 632.762-230.718 632.762-696.723Zm2722.93-673.881H4769.2v319.808h22.844c41.118-143.913 63.961-185.032 107.364-219.297 47.971-41.118 118.785-52.539 338.082-52.539v1139.88c0 84.521-61.677 137.061-159.904 137.061v22.843h497.986v-22.843c-98.226 0-159.904-52.54-159.904-137.061v-1139.88c219.297 0 290.112 11.421 338.083 52.539 43.402 34.265 66.246 75.384 107.364 219.297h22.843v-319.808Zm-4762.85 614.488v-566.516c402.044 0 479.712 6.853 543.673 52.539 45.687 31.981 63.962 68.531 109.648 219.297h22.844v-319.808H783.025v22.844c98.226 0 159.904 52.54 159.904 137.06v1027.95c0 84.521-61.678 137.061-159.904 137.061v22.843h497.986v-22.843c-98.227 0-159.904-52.54-159.904-137.061v-525.398h278.69c70.814 0 116.501 52.54 137.06 159.904h22.843v-360.926c0-6.853-22.843-6.853-22.843-6.853-18.275 105.08-66.246 159.904-137.06 159.904h-278.69Zm1843.46 59.393c0 438.593-212.444 648.752-436.309 648.752-223.866 0-436.309-210.159-436.309-648.752 0-438.594 212.443-648.753 436.309-648.753 223.865 0 436.309 210.159 436.309 648.753Z" style="fill:#242228;fill-rule:nonzero"/><path d="m4348.33 8028.74-38.688-38.687 3.585-3.585 41.222 41.222 41.222-41.222 3.585 3.585-41.222 41.222 41.222 41.222-3.585 3.585-41.222-41.222-41.222 41.222-3.585-3.585 38.689-38.688h-2029.99l38.688 38.688-3.584 3.585-41.223-41.222-41.222 41.222-3.584-3.585 41.222-41.222-41.222-41.222 3.584-3.585 41.222 41.222 41.223-41.222 3.584 3.585-38.687 38.687h2029.99Zm-413.68-129.7-38.687-38.687 3.584-3.585 41.222 41.222 41.223-41.222 3.584 3.585-41.222 41.222 41.222 41.222-3.584 3.584-41.223-41.222-41.222 41.222-3.584-3.584 38.688-38.688h-1202.2l38.688 38.688-3.585 3.584-41.222-41.222-41.222 41.222-3.585-3.584 41.223-41.222-41.223-41.222 3.585-3.585 41.222 41.222 41.222-41.222 3.585 3.585-38.687 38.687h1202.2Zm-2288.48-2858.8 40.176-40.176 3.585 3.584-41.223 41.222 41.223 41.223-3.585 3.584-38.688-38.688v2240.42l38.688-38.688 3.585 3.585-41.223 41.222 41.223 41.222-3.585 3.585-40.166-40.167h-2.112l-40.166 40.167-3.585-3.585 41.222-41.222-41.222-41.222 3.585-3.585 38.687 38.687v-2240.42l-38.687 38.687-3.585-3.584 41.222-41.223-41.222-41.222 3.585-3.584 40.176 40.176h2.092Zm3376.42 0h-2.092l-40.176-40.176-3.585 3.584 41.222 41.222-41.222 41.223 3.585 3.584 38.686-38.686v2240.42l-38.686-38.686-3.585 3.585 41.222 41.222-41.222 41.222 3.585 3.585 40.166-40.167h2.112l40.166 40.167 3.585-3.585-41.223-41.222 41.223-41.222-3.585-3.585-38.688 38.688v-2240.42l38.688 38.688 3.585-3.584-41.223-41.223 41.223-41.222-3.585-3.584-40.176 40.176Zm-2857.18 90.369-38.688 38.688-3.584-3.585 41.222-41.222-41.222-41.222 3.584-3.585 41.223 41.222 41.222-41.222 3.584 3.585-41.222 41.222 41.222 41.222-3.584 3.585-38.688-38.689v2081.19l38.688-38.688 3.584 3.584-41.222 41.222 41.222 41.223-3.584 3.584-41.222-41.222-41.223 41.222-3.584-3.584 41.222-41.223-41.222-41.222 3.584-3.584 38.688 38.687v-2081.19Zm2335.85-9.379v2099.95h-5.07V5121.23h5.07Zm-566.61-682.94h-1202.2l38.686-38.687-3.585-3.584-41.222 41.222-41.222-41.222-3.585 3.584 41.223 41.223-41.223 41.222 3.585 3.584 41.222-41.222 41.222 41.222 3.585-3.584-38.689-38.689h1202.2l-38.689 38.689 3.584 3.584 41.222-41.222 41.223 41.222 3.584-3.584-41.222-41.222 41.222-41.223-3.584-3.584-41.223 41.222-41.222-41.222-3.584 3.584 38.686 38.687Zm413.681-129.7h-2029.99l38.687-38.687-3.584-3.584-41.223 41.222-41.222-41.222-3.584 3.584 41.222 41.222-41.222 41.222 3.584 3.585 41.222-41.222 41.223 41.222 3.584-3.585-38.688-38.688h2029.99l-38.689 38.688 3.585 3.585 41.222-41.222 41.222 41.222 3.585-3.585-41.222-41.222 41.222-41.222-3.585-3.584-41.222 41.222-41.222-41.222-3.585 3.584 38.688 38.687Z" style="fill:#1537f5"/><path d="m4502.31 7217.92 41.222-41.222-3.585-3.584-41.222 41.222-41.222-41.222-3.585 3.584 41.222 41.222-41.222 41.223 3.585 3.584 41.222-41.222 41.222 41.222 3.585-3.584-41.222-41.223Zm0-2093.43 41.222-41.222-3.585-3.585-41.222 41.222-41.222-41.222-3.585 3.585 41.222 41.222-41.222 41.222 3.585 3.585 41.222-41.223 41.222 41.223 3.585-3.585-41.222-41.222Z" style="fill:#537ba7"/><path d="M3333.33 7981.94c27.227 0 49.332 22.105 49.332 49.332s-22.105 49.332-49.332 49.332-49.332-22.105-49.332-49.332 22.105-49.332 49.332-49.332Zm0 17.695c17.461 0 31.637 14.176 31.637 31.637s-14.176 31.637-31.637 31.637-31.636-14.176-31.636-31.637 14.175-31.637 31.636-31.637Zm.22-147.395c27.227 0 49.332 22.105 49.332 49.332s-22.105 49.332-49.332 49.332-49.332-22.105-49.332-49.332 22.105-49.332 49.332-49.332Zm0 17.695c17.461 0 31.637 14.176 31.637 31.637s-14.176 31.637-31.637 31.637-31.637-14.176-31.637-31.637 14.176-31.637 31.637-31.637Zm1688-1748.07c-27.227 0-49.332 22.105-49.332 49.332s22.105 49.332 49.332 49.332 49.332-22.105 49.332-49.332-22.105-49.332-49.332-49.332Zm-3376.43 0c27.227 0 49.332 22.105 49.332 49.332s-22.105 49.332-49.332 49.332-49.332-22.105-49.332-49.332 22.105-49.332 49.332-49.332Zm522.83 0c27.227 0 49.332 22.105 49.332 49.332s-22.105 49.332-49.332 49.332-49.332-22.105-49.332-49.332 22.105-49.332 49.332-49.332Zm2330.77 0c-27.227 0-49.332 22.105-49.332 49.332s22.105 49.332 49.332 49.332 49.332-22.105 49.332-49.332-22.105-49.332-49.332-49.332Zm522.83 17.695c-17.461 0-31.637 14.176-31.637 31.637s14.176 31.637 31.637 31.637 31.637-14.176 31.637-31.637-14.176-31.637-31.637-31.637Zm-3376.43 0c17.461 0 31.637 14.176 31.637 31.637s-14.176 31.637-31.637 31.637-31.637-14.176-31.637-31.637 14.176-31.637 31.637-31.637Zm522.83 0c17.46 0 31.636 14.176 31.636 31.637s-14.176 31.637-31.636 31.637c-17.461 0-31.637-14.176-31.637-31.637s14.176-31.637 31.637-31.637Zm2330.77 0c-17.461 0-31.637 14.176-31.637 31.637s14.176 31.637 31.637 31.637 31.637-14.176 31.637-31.637-14.176-31.637-31.637-31.637Zm-1165.17-1649.4c27.227 0 49.332-22.105 49.332-49.332 0-27.228-22.105-49.332-49.332-49.332s-49.332 22.104-49.332 49.332c0 27.227 22.105 49.332 49.332 49.332Zm0-17.696c17.461 0 31.637-14.176 31.637-31.636 0-17.461-14.176-31.637-31.637-31.637s-31.637 14.176-31.637 31.637c0 17.46 14.176 31.636 31.637 31.636Zm-.22-112.004c27.227 0 49.332-22.105 49.332-49.332s-22.105-49.332-49.332-49.332-49.332 22.105-49.332 49.332 22.105 49.332 49.332 49.332Zm0-17.695c17.461 0 31.637-14.176 31.637-31.637s-14.176-31.637-31.637-31.637-31.636 14.176-31.636 31.637 14.175 31.637 31.636 31.637Z" style="fill:#f0d946"/></svg>