<svg xmlns="http://www.w3.org/2000/svg" xml:space="preserve" style="fill-rule:evenodd;clip-rule:evenodd;stroke-linejoin:round;stroke-miterlimit:2" viewBox="0 0 500 700"><path d="M55 363.943h127.5V496H55z" style="fill:#aac0d0" transform="matrix(3.92157 0 0 5.30074 -215.686 -1929.17)"/><text x="23.768" y="49.268" style="font-family:&quot;Verdana&quot;,sans-serif;font-size:11.562px" transform="matrix(.86876 0 0 .86876 182.976 633.691)">© 2025 Astrid Schäfer</text><path d="M1612 3113C846 2877 295 2168 295 1321.33h104c0 971 792 1771 1771 1771s1771-800 1771-1770.83h104c0 847-551 1556-1317 1791.67h946V3184H2389c-119 14-239 16-358 7-27-2-54-4-80-7.49H666v-71" style="fill:#89838d" transform="matrix(.0044 0 0 .0044 181.764 663.555)"/><circle cx="3821" cy="3146" r="175" style="fill:#c83154" transform="matrix(.0044 0 0 .0044 181.764 663.555)"/><circle cx="521" cy="3146" r="175" style="fill:#c83154" transform="matrix(.0044 0 0 .0044 181.764 663.555)"/><path d="M167 1041.67h333v333H167v-333Zm3667 0h333v333h-333v-333ZM2001 2958.34h333v333h-333v-333Z" style="fill:#fff" transform="matrix(.0044 0 0 .0044 181.764 663.555)"/><path d="M3749.85 8963.2c14.84-16.5 30.51-23.92 45.36-23.92 24.74 0 43.71 20.62 47.84 51.96 11.55-6.6 18.14-23.09 18.14-39.59 0-26.39-17.32-42.89-44.53-42.89-25.57 0-53.62 16.5-75.06 43.71-20.62-28.04-55.26-43.71-97.32-43.71-69.29 0-119.6 46.19-119.6 111.35 0 40.41 20.62 75.05 54.44 94.84-28.04 18.15-39.59 45.37-39.59 74.23 0 31.35 23.09 55.27 64.33 65.99-51.96 9.07-89.07 38.76-89.07 75.05 0 47.84 59.38 81.66 142.68 81.66 97.33 0 156.71-48.67 156.71-127.85 0-129.48-249.91-47.01-249.91-120.41 0-17.32 14.02-34.64 28.87-42.07 16.5 6.6 32.17 9.9 51.14 9.9 70.1 0 119.59-45.36 119.59-111.34 0-21.45-4.95-41.24-14.02-56.91Zm-1204.18 28.04v-90.73c-29.69 17.32-72.58 32.99-107.22 32.99v8.25c32.99 0 49.49 21.45 49.49 65.98v338.16c0 27.22-22.27 49.49-49.49 49.49v8.25h156.71v-8.25c-27.22 0-49.49-22.27-49.49-49.49v-123.71c24.74 21.44 57.74 32.99 94.03 32.99 92.37 0 153.4-72.58 153.4-181.45 0-98.98-51.13-164.96-127.84-164.96-52.78 0-100.62 32.99-119.59 82.48Zm1073.86 263.93h2.48c123.71 0 165.78 29.69 165.78 61.03 0 43.72-56.91 80.83-127.02 80.83-57.73 0-94.85-28.04-94.85-70.11 0-29.69 22.27-59.38 53.61-71.75Zm903.96-8.25h8.25c4.12-12.37 9.07-16.5 15.67-16.5 17.32 0 38.76 24.75 83.3 24.75 58.56 0 107.22-47.84 107.22-105.57 0-103.1-171.55-100.63-171.55-177.33 0-26.39 25.57-48.66 55.26-48.66 35.47 0 67.63 30.51 87.43 84.12h8.24v-90.72h-8.24c-4.13 12.37-8.25 17.32-14.03 17.32-15.67 0-32.16-25.57-72.58-25.57-52.78 0-96.49 42.06-96.49 94.02 0 103.1 172.37 100.63 172.37 178.98 0 31.34-30.51 58.56-66.8 58.56-44.54 0-80.83-37.11-99.8-100.62h-8.25v107.22Zm-1225.62-338.16c-94.03 0-156.71 69.28-156.71 173.2 0 103.93 62.68 173.21 156.71 173.21 94.02 0 156.71-69.28 156.71-173.21 0-103.92-62.69-173.2-156.71-173.2Zm1519.24 338.16h8.25c4.12-12.37 9.07-16.5 15.67-16.5 17.32 0 38.77 24.75 83.3 24.75 58.56 0 107.22-47.84 107.22-105.57 0-103.1-171.55-100.63-171.55-177.33 0-26.39 25.57-48.66 55.26-48.66 35.47 0 67.63 30.51 87.43 84.12h8.25v-90.72h-8.25c-4.13 12.37-8.25 17.32-14.02 17.32-15.68 0-32.17-25.57-72.58-25.57-52.79 0-96.5 42.06-96.5 94.02 0 103.1 172.38 100.63 172.38 178.98 0 31.34-30.52 58.56-66.81 58.56-44.54 0-80.83-37.11-99.8-100.62h-8.25v107.22Zm-575.69-212.79h225.16c0-74.23-55.26-125.37-136.09-125.37-94.85 0-156.71 67.63-156.71 173.2 0 107.22 61.86 173.21 161.66 173.21 59.38 0 100.62-28.87 124.54-84.95l-7.42-3.3c-27.22 41.24-61.86 62.68-99.8 62.68-67.63 0-113.82-63.51-113.82-156.71 0-13.2.83-26.39 2.48-38.76Zm-315.07-26.4v181.45c0 27.22-22.27 49.49-49.49 49.49v8.25h156.71v-8.25c-27.22 0-49.48-22.27-49.48-49.49v-131.96c0-67.63 32.99-110.52 69.28-110.52 25.56 0 42.06 19.8 42.06 51.14 0 4.12 0 9.07-.82 14.02 28.04-14.85 38.76-32.17 38.76-54.44 0-27.22-22.27-48.66-51.96-48.66-39.59 0-78.35 32.99-97.32 82.48v-90.73c-29.7 17.32-72.59 32.99-107.23 32.99v8.25c33 0 49.49 22.27 49.49 65.98Zm-1831.83-9.07v190.52c0 27.22-22.27 49.49-49.49 49.49v8.25h156.71v-8.25c-27.22 0-49.49-22.27-49.49-49.49v-182.27c0-59.39-37.94-98.15-94.85-98.15-52.78 0-100.62 32.99-119.59 82.48v-90.73c-29.69 17.32-72.58 32.99-107.22 32.99v8.25c32.99 0 49.48 21.45 49.48 65.98v181.45c0 27.22-22.26 49.49-49.48 49.49v8.25h156.71v-8.25c-27.22 0-49.49-22.27-49.49-49.49v-133.61c0-67.63 43.71-122.07 97.32-122.07 36.29 0 59.39 24.75 59.39 65.16Zm799.21 9.07v181.45c0 27.22-22.27 49.49-49.49 49.49v8.25h156.71v-8.25c-27.22 0-49.49-22.27-49.49-49.49v-131.96c0-67.63 32.99-110.52 69.28-110.52 25.57 0 42.07 19.8 42.07 51.14 0 4.12 0 9.07-.83 14.02 28.04-14.85 38.77-32.17 38.77-54.44 0-27.22-22.27-48.66-51.97-48.66-39.58 0-78.35 32.99-97.32 82.48v-90.73c-29.69 17.32-72.58 32.99-107.22 32.99v8.25c32.99 0 49.49 22.27 49.49 65.98Zm-1151.39 181.45v-288.67c-29.7 17.32-72.58 32.99-107.23 32.99v8.25c27.22 0 49.49 14.02 49.49 65.98v181.45c0 27.22-22.27 49.49-49.49 49.49v8.25h156.71v-8.25c-27.21 0-49.48-22.27-49.48-49.49Zm1555.53-265.57c56.08 0 92.37 61.86 92.37 158.35 0 96.5-36.29 158.36-92.37 158.36-56.09 0-92.38-61.86-92.38-158.36 0-96.49 36.29-158.35 92.38-158.35Zm-752.2 280.42v-148.46c0-67.63 43.71-122.07 97.32-122.07 54.44 0 88.26 55.26 88.26 145.99 0 98.15-39.59 156.71-105.58 156.71-30.51 0-61.03-12.37-80-32.17Zm1098.61-280.42c40.41 0 65.15 37.11 65.15 96.5 0 59.38-24.74 95.67-65.15 95.67-40.42 0-65.16-37.11-65.16-95.67 0-59.39 25.57-96.5 65.16-96.5Zm599.61 95.67c13.2-59.38 46.19-95.67 86.6-95.67 43.71 0 75.06 40.41 75.06 95.67h-161.66Zm-2536.2-250.73c-20.61 0-37.11 16.49-37.11 37.11s16.5 37.12 37.11 37.12c20.62 0 37.12-16.5 37.12-37.12 0-20.62-16.5-37.11-37.12-37.11Zm3172.62-3412.03c95.6 242.06 143.41 513.62 143.41 814.68 0 301.05-47.81 572.61-143.41 814.68-95.61 242.06-223.76 437.34-384.45 585.83-160.7 148.49-339.71 262.41-537.02 341.74-197.31 79.33-405.81 119-625.5 119s-428.19-39.67-625.5-119c-197.32-79.33-376.32-193.25-537.02-341.74s-288.85-343.77-384.45-585.83c-95.61-242.07-143.41-513.63-143.41-814.68 0-301.06 47.8-572.62 143.41-814.68 95.6-242.06 223.75-437.34 384.45-585.83 160.7-148.5 339.7-262.41 537.02-341.74 197.31-79.34 405.81-119 625.5-119s428.19 39.66 625.5 119c197.31 79.33 376.32 193.24 537.02 341.74 160.69 148.49 288.84 343.77 384.45 585.83Zm-723.14 2096.19c227.82-301.06 341.74-728.23 341.74-1281.52s-113.92-980.46-341.74-1281.52c-227.83-301.05-502.44-451.58-823.83-451.58-321.4 0-596.01 150.53-823.83 451.58-227.83 301.06-341.74 728.23-341.74 1281.52s113.91 980.46 341.74 1281.52c227.82 301.05 502.43 451.58 823.83 451.58 321.39 0 596-150.53 823.83-451.58ZM3681.7 2271.78c-36.56-45.69-79.96-68.53-137.07-68.53h-226.14v22.84c98.22 0 159.9 52.54 159.9 137.06v1027.96c0 84.52-61.68 137.06-159.9 137.06v22.84h367.77v-22.84c-98.22 0-159.9-52.54-159.9-137.06V2363.15l957.14 1210.7h22.84v-1210.7c0-84.52 61.68-137.06 159.9-137.06v-22.84h-360.92c-6.85 0-6.85 22.84-6.85 22.84 98.22 0 159.9 52.54 159.9 137.06v890.9l-776.67-982.27Zm-520.83 605.35c0-466.01-312.96-696.72-632.77-696.72-319.8 0-632.76 230.71-632.76 696.72s312.96 696.72 632.76 696.72c319.81 0 632.77-230.71 632.77-696.72Zm2722.93-673.88H4769.04v319.81h22.84c41.12-143.92 63.97-185.03 107.37-219.3 47.97-41.12 118.78-52.54 338.08-52.54v1139.89c0 84.52-61.68 137.06-159.9 137.06v22.84h497.98v-22.84c-98.22 0-159.9-52.54-159.9-137.06V2251.22c219.3 0 290.11 11.42 338.08 52.54 43.4 34.27 66.25 75.38 107.36 219.3h22.85v-319.81Zm-4762.85 614.49v-566.52c402.04 0 479.71 6.85 543.67 52.54 45.69 31.98 63.97 68.53 109.65 219.3h22.85v-319.81H782.868v22.84c98.227 0 159.904 52.54 159.904 137.06v1027.96c0 84.52-61.677 137.06-159.904 137.06v22.84h497.982v-22.84c-98.22 0-159.9-52.54-159.9-137.06v-525.4h278.69c70.81 0 116.5 52.54 137.06 159.9h22.84v-360.92c0-6.86-22.84-6.86-22.84-6.86-18.27 105.08-66.25 159.91-137.06 159.91h-278.69Zm1843.46 59.39c0 438.59-212.44 648.75-436.31 648.75-223.86 0-436.31-210.16-436.31-648.75 0-438.59 212.45-648.75 436.31-648.75 223.87 0 436.31 210.16 436.31 648.75Z" style="fill:#242228;fill-rule:nonzero" transform="matrix(.07842 0 0 .07842 -11.3902 -104.516)"/><path d="m329.58 525.074-3.034-3.034.281-.281 3.233 3.233 3.232-3.233.282.281-3.233 3.233 3.233 3.232-.282.281-3.232-3.232-3.233 3.232-.281-.281 3.034-3.034H170.394l3.034 3.034-.281.281-3.233-3.232-3.232 3.232-.281-.281 3.232-3.232-3.232-3.233.281-.281 3.232 3.233 3.233-3.233.281.281-3.034 3.034H329.58Zm-32.44-10.171-3.033-3.034.281-.281 3.232 3.233 3.233-3.233.281.281-3.233 3.233 3.233 3.232-.281.282-3.233-3.233-3.232 3.233-.281-.282 3.034-3.033h-94.274l3.034 3.033-.281.282-3.232-3.233-3.233 3.233-.281-.282 3.232-3.232-3.232-3.233.281-.281 3.233 3.233 3.232-3.233.281.281-3.034 3.034h94.273ZM117.685 290.724l3.15-3.15.281.281-3.232 3.233 3.232 3.232-.281.281-3.034-3.034v175.688l3.034-3.034.281.281-3.232 3.233 3.232 3.232-.281.281-3.15-3.15h-.165l-3.15 3.15-.281-.281 3.232-3.232-3.232-3.233.281-.281 3.034 3.034V291.567l-3.034 3.034-.281-.281 3.232-3.232-3.232-3.233.281-.281 3.151 3.15h.164Zm264.769 0h-.164l-3.151-3.15-.281.281 3.232 3.233-3.232 3.232.281.281 3.034-3.033v175.687l-3.034-3.034-.281.281 3.232 3.233-3.232 3.232.281.281 3.15-3.15h.165l3.15 3.15.281-.281-3.232-3.232 3.232-3.233-.281-.281-3.034 3.034V291.567l3.034 3.034.281-.281-3.232-3.232 3.232-3.233-.281-.281-3.15 3.15Zm-224.052 7.087-3.034 3.034-.281-.281 3.232-3.233-3.232-3.232.281-.282 3.233 3.233 3.232-3.233.281.282-3.232 3.232 3.232 3.233-.281.281-3.034-3.034v163.201l3.034-3.034.281.281-3.232 3.233 3.232 3.232-.281.281-3.232-3.232-3.233 3.232-.281-.281 3.232-3.232-3.232-3.233.281-.281 3.034 3.034V297.811Zm182.773 0v163.201l-3.034-3.034-.281.281 3.232 3.233-3.232 3.232.281.281 3.233-3.232 3.232 3.232.281-.281-3.232-3.232 3.232-3.233-.281-.281-3.034 3.034V297.811l3.034 3.034.281-.281-3.232-3.233 3.232-3.232-.281-.282-3.232 3.233-3.233-3.233-.281.282 3.232 3.232-3.232 3.233.281.281 3.034-3.034Zm-44.035-54.29h-94.273l3.034-3.033-.281-.281-3.232 3.232-3.233-3.232-.281.281 3.232 3.232-3.232 3.233.281.281 3.233-3.233 3.232 3.233.281-.281-3.034-3.034h94.274l-3.034 3.034.281.281 3.232-3.233 3.233 3.233.281-.281-3.233-3.233 3.233-3.232-.281-.281-3.233 3.232-3.232-3.232-.281.281 3.033 3.033Zm32.44-10.17H170.394l3.034-3.034-.281-.281-3.233 3.232-3.232-3.232-.281.281 3.232 3.232-3.232 3.233.281.281 3.232-3.232 3.233 3.232.281-.281-3.034-3.034H329.58l-3.034 3.034.281.281 3.233-3.232 3.232 3.232.282-.281-3.233-3.233 3.233-3.232-.282-.281-3.232 3.232-3.233-3.232-.281.281 3.034 3.034Z" style="fill:#0a6bd5" transform="translate(.0129)"/><path d="M3333.33 7981.94c27.23 0 49.33 22.11 49.33 49.33 0 27.23-22.1 49.33-49.33 49.33-27.23 0-49.33-22.1-49.33-49.33 0-27.22 22.1-49.33 49.33-49.33Zm0 17.7c17.46 0 31.64 14.17 31.64 31.63s-14.18 31.64-31.64 31.64-31.64-14.18-31.64-31.64 14.18-31.63 31.64-31.63Zm.22-147.4c27.23 0 49.33 22.11 49.33 49.33 0 27.23-22.1 49.33-49.33 49.33-27.23 0-49.33-22.1-49.33-49.33 0-27.22 22.1-49.33 49.33-49.33Zm0 17.7c17.46 0 31.64 14.17 31.64 31.63s-14.18 31.64-31.64 31.64-31.64-14.18-31.64-31.64 14.18-31.63 31.64-31.63Zm1688-1748.07c-27.23 0-49.33 22.11-49.33 49.33 0 27.23 22.1 49.33 49.33 49.33 27.23 0 49.33-22.1 49.33-49.33 0-27.22-22.1-49.33-49.33-49.33Zm-3376.43 0c27.23 0 49.33 22.11 49.33 49.33 0 27.23-22.1 49.33-49.33 49.33-27.23 0-49.33-22.1-49.33-49.33 0-27.22 22.1-49.33 49.33-49.33Zm522.83 0c27.23 0 49.33 22.11 49.33 49.33 0 27.23-22.1 49.33-49.33 49.33-27.23 0-49.33-22.1-49.33-49.33 0-27.22 22.1-49.33 49.33-49.33Zm2330.77 0c-27.23 0-49.33 22.11-49.33 49.33 0 27.23 22.1 49.33 49.33 49.33 27.23 0 49.33-22.1 49.33-49.33 0-27.22-22.1-49.33-49.33-49.33Zm522.83 17.7c-17.46 0-31.64 14.17-31.64 31.63s14.18 31.64 31.64 31.64 31.64-14.18 31.64-31.64-14.18-31.63-31.64-31.63Zm-3376.43 0c17.46 0 31.64 14.17 31.64 31.63s-14.18 31.64-31.64 31.64-31.64-14.18-31.64-31.64 14.18-31.63 31.64-31.63Zm522.83 0c17.46 0 31.64 14.17 31.64 31.63s-14.18 31.64-31.64 31.64-31.64-14.18-31.64-31.64 14.18-31.63 31.64-31.63Zm2330.77 0c-17.46 0-31.64 14.17-31.64 31.63s14.18 31.64 31.64 31.64 31.64-14.18 31.64-31.64-14.18-31.63-31.64-31.63ZM3333.55 4490.16c27.23 0 49.33-22.1 49.33-49.33 0-27.23-22.1-49.33-49.33-49.33-27.23 0-49.33 22.1-49.33 49.33 0 27.23 22.1 49.33 49.33 49.33Zm0-17.7c17.46 0 31.64-14.17 31.64-31.63s-14.18-31.64-31.64-31.64-31.64 14.18-31.64 31.64 14.18 31.63 31.64 31.63Zm-.22-112c27.23 0 49.33-22.1 49.33-49.33 0-27.23-22.1-49.33-49.33-49.33-27.23 0-49.33 22.1-49.33 49.33 0 27.23 22.1 49.33 49.33 49.33Zm0-17.69c17.46 0 31.64-14.18 31.64-31.64s-14.18-31.64-31.64-31.64-31.64 14.18-31.64 31.64 14.18 31.64 31.64 31.64Z" style="fill:#f0d946" transform="matrix(.07842 0 0 .07842 -11.3904 -104.516)"/></svg>