<svg xmlns="http://www.w3.org/2000/svg" xml:space="preserve" style="fill-rule:evenodd;clip-rule:evenodd;stroke-linejoin:round;stroke-miterlimit:2" viewBox="0 0 38 32"><path d="M7.663 1c5.357.051 7.937 6.621 7.937 12 0 8.075-5.82 15.696-13.364 17.896l-.743-1.335c3.567-1.985 7.745-7.541 7.745-11.624 0-3.1-1.98-4.121-4.021-5.076l-.396-.185C2.78 11.721.8 10.7.8 7.6.8 4 4 1 7.6 1h.063Zm15.49 28.561c3.567-1.985 7.745-7.541 7.745-11.624 0-6.4-8.438-3.937-8.438-10.337 0-3.6 3.2-6.6 6.8-6.6 5.4 0 8 6.6 8 12 0 8.075-5.82 15.696-13.364 17.896l-.743-1.335Z" style="fill:#89838D;fill-rule:nonzero" transform="translate(-.03 .052)"/></svg>