<svg xmlns="http://www.w3.org/2000/svg" xml:space="preserve" style="fill-rule:evenodd;clip-rule:evenodd;stroke-linejoin:round;stroke-miterlimit:2" viewBox="0 0 70 70"><path d="M0,36L4,36L4,40L0,40L0,36ZM18,36L22,36L22,40L18,40L18,36ZM44,36L48,36L48,40L44,40L44,36ZM62,36L66,36L66,40L62,40L62,36ZM53,36L57,36L57,40L53,40L53,36ZM35,36L39,36L39,40L35,40L35,36ZM27,36L31,36L31,40L27,40L27,36ZM9,36L13,36L13,40L9,40L9,36ZM0,0L4,0L4,4L0,4L0,0ZM0,27L4,27L4,31L0,31L0,27ZM0,9L4,9L4,13L0,13L0,9ZM0,18L4,18L4,22L0,22L0,18Z" style="fill:#75cae7;"/></svg>