<svg xmlns="http://www.w3.org/2000/svg" xml:space="preserve" style="fill-rule:evenodd;clip-rule:evenodd;stroke-linejoin:round;stroke-miterlimit:2" viewBox="0 0 333 211"><path d="m251.634 163.83 53.273-129.108c.835-1.671 1.253-3.447 1.253-5.327 0-3.969-1.619-7.207-4.857-9.714-3.238-2.507-7.678-3.761-13.318-3.761v-3.133h44.811v3.133c-8.565 0-15.459 6.268-20.682 18.802l-68.627 166.085h-3.134L172.352 34.722c-5.223-12.534-12.326-18.802-21.309-18.802v-3.133h63.614v3.133c-5.432 0-9.662 1.149-12.692 3.447-3.029 2.298-4.543 5.328-4.543 9.088 0 2.298.417 4.387 1.253 6.267l52.959 129.108ZM48.259 126.539 27.89 175.738c-.836 1.671-1.254 3.447-1.254 5.327 0 3.969 1.619 7.207 4.857 9.714 3.239 2.507 7.678 3.761 13.319 3.761v3.133H0v-3.133c8.565 0 15.459-6.268 20.682-18.802L89.31 9.653h3.133l68.001 166.085c5.223 12.534 12.326 18.802 21.309 18.802v3.133H118.14v-3.133c5.431 0 9.662-1.149 12.691-3.447s4.544-5.327 4.544-9.088c0-2.298-.418-4.387-1.254-6.267l-20.369-49.199H48.259Zm2.507-6.581h60.48L81.162 46.63l-30.396 73.328Z" style="fill:#75cae7;fill-rule:nonzero"/><path d="M166.398 1.803v206.854" style="fill:none;stroke:#75cae7;stroke-width:2px;stroke-dasharray:4,4,0,0"/></svg>