<svg xmlns="http://www.w3.org/2000/svg" xml:space="preserve" style="fill-rule:evenodd;clip-rule:evenodd;stroke-linejoin:round;stroke-miterlimit:2" viewBox="0 0 500 300"><path d="M-5.814-10.412H513.89v323.467H-5.814z" style="fill:#ebebeb"/><path d="M280.311 274.284v-2.662c-.871.508-2.13.968-3.146.968v.242c.968 0 1.452.629 1.452 1.936v9.922c0 .799-.653 1.452-1.452 1.452v.242h4.598v-.242c-.799 0-1.452-.653-1.452-1.452v-3.63c.726.629 1.694.968 2.759.968 2.71 0 4.501-2.13 4.501-5.324 0-2.904-1.5-4.84-3.751-4.84-1.549 0-2.952.968-3.509 2.42Zm127.8 0v-2.662c-.871.508-2.129.968-3.146.968v.242c.968 0 1.452.629 1.452 1.936v9.922c0 .799-.653 1.452-1.452 1.452v.242h4.598v-.242c-.798 0-1.452-.653-1.452-1.452v-3.63c.726.629 1.694.968 2.759.968 2.71 0 4.501-2.13 4.501-5.324 0-2.904-1.5-4.84-3.751-4.84-1.549 0-2.952.968-3.509 2.42Zm-275.639 0v-2.662c-.871.508-2.129.968-3.146.968v.242c.968 0 1.452.629 1.452 1.936v9.922c0 .799-.653 1.452-1.452 1.452v.242h4.598v-.242c-.798 0-1.452-.653-1.452-1.452v-3.63c.726.629 1.694.968 2.759.968 2.71 0 4.501-2.13 4.501-5.324 0-2.904-1.5-4.84-3.751-4.84-1.549 0-2.952.968-3.509 2.42Zm-57.378 6.752c2.952 0 5.227-2.541 5.227-5.857 0-3.799-3.146-6.485-7.623-6.485-5.13 0-8.76 3.412-8.76 8.252 0 4.55 3.848 8.083 8.76 8.083 3.049 0 5.494-1.476 6.534-3.993h-.484c-1.307 2.057-3.46 3.243-5.88 3.243-4.042 0-7.018-3.122-7.018-7.381 0-4.405 2.831-7.527 6.848-7.527 3.461 0 5.905 2.396 5.905 5.808 0 2.832-1.404 5.203-3.049 5.203-.484 0-.678-.193-.678-.605 0-.774.678-3.678 1.597-6.897h-1.355l-.363 1.065c-.145-.774-.653-1.21-1.476-1.21-2.251 0-4.743 3.17-4.743 6.05 0 1.452.629 2.251 1.742 2.251s2.227-.823 3.316-2.42c-.121.629-.146.847-.146 1.065 0 .968.484 1.355 1.646 1.355Zm231.716-14.012h-1.21l-4.598 15.246h1.21l4.598-15.246Zm-6.292 0h-1.21l-4.598 15.246h1.21l4.598-15.246Zm59.338 8.518h6.607c0-2.178-1.621-3.678-3.993-3.678-2.783 0-4.598 1.984-4.598 5.082 0 3.146 1.815 5.082 4.743 5.082 1.743 0 2.953-.847 3.654-2.493l-.217-.096c-.799 1.21-1.815 1.839-2.929 1.839-1.984 0-3.339-1.864-3.339-4.598 0-.387.024-.775.072-1.138ZM167.49 272.3c1.113 0 2.008.774 2.008 1.742 0 .242-.048.46-.169.629.218.073.411.121.556.121.581 0 .968-.339.968-.871 0-1.162-1.476-2.057-3.363-2.057-2.783 0-4.598 1.984-4.598 5.082 0 3.146 1.815 5.082 4.743 5.082 1.742 0 2.952-.847 3.654-2.493l-.218-.096c-.798 1.21-1.815 1.839-2.928 1.839-1.984 0-3.34-1.864-3.34-4.598 0-2.541 1.114-4.38 2.687-4.38Zm-8.47 7.55c-.605 0-1.089.484-1.089 1.089s.484 1.089 1.089 1.089 1.089-.484 1.089-1.089-.484-1.089-1.089-1.089Zm275.639 0c-.605 0-1.089.484-1.089 1.089s.484 1.089 1.089 1.089 1.089-.484 1.089-1.089-.484-1.089-1.089-1.089Zm-80.659 0c-.605 0-1.089.484-1.089 1.089s.484 1.089 1.089 1.089 1.089-.484 1.089-1.089-.484-1.089-1.089-1.089Zm-62.557 0c-.605 0-1.089.484-1.089 1.089s.484 1.089 1.089 1.089 1.089-.484 1.089-1.089-.484-1.089-1.089-1.089Zm-114.54-7.986c-2.758 0-4.598 2.033-4.598 5.082s1.84 5.082 4.598 5.082c2.759 0 4.598-2.033 4.598-5.082s-1.839-5.082-4.598-5.082Zm-128.647 8.857c0 .775.629 1.307 1.549 1.307.871 0 1.694-.46 2.057-1.186l-.194-.145c-.266.363-.75.605-1.113.605-.387 0-.605-.266-.605-.75v-5.881c0-1.791-1.234-2.807-3.388-2.807-1.839 0-3.581.799-3.581 2.468 0 .823.58 1.283 1.524 1.283.266 0 .533-.048.702-.121-.484-.363-.726-.895-.726-1.452 0-.871.605-1.742 1.815-1.742s1.96.871 1.96 2.081c0 3.097-5.759 1.524-5.759 5.251 0 1.331 1.258 2.396 2.855 2.396 1.089 0 2.299-.726 2.904-1.718v.411Zm404.286-8.857c-2.758 0-4.598 2.033-4.598 5.082s1.84 5.082 4.598 5.082c2.759 0 4.598-2.033 4.598-5.082s-1.839-5.082-4.598-5.082Zm-9.413.436c1.113 0 2.008.774 2.008 1.742 0 .242-.048.46-.169.629.218.073.411.121.556.121.581 0 .968-.339.968-.871 0-1.162-1.476-2.057-3.363-2.057-2.783 0-4.598 1.984-4.598 5.082 0 3.146 1.815 5.082 4.743 5.082 1.742 0 2.952-.847 3.654-2.493l-.218-.096c-.798 1.21-1.815 1.839-2.928 1.839-1.984 0-3.34-1.864-3.34-4.598 0-2.541 1.114-4.38 2.687-4.38Zm-59.363 8.421c0 .775.629 1.307 1.549 1.307.871 0 1.694-.46 2.057-1.186l-.194-.145c-.266.363-.75.605-1.113.605-.387 0-.605-.266-.605-.75v-5.881c0-1.791-1.234-2.807-3.388-2.807-1.839 0-3.582.799-3.582 2.468 0 .823.581 1.283 1.525 1.283.266 0 .532-.048.702-.121-.484-.363-.726-.895-.726-1.452 0-.871.605-1.742 1.815-1.742s1.96.871 1.96 2.081c0 3.097-5.76 1.524-5.76 5.251 0 1.331 1.259 2.396 2.856 2.396 1.089 0 2.299-.726 2.904-1.718v.411Zm-234.741-5.179h6.607c0-2.178-1.622-3.678-3.993-3.678-2.783 0-4.598 1.984-4.598 5.082 0 3.146 1.815 5.082 4.743 5.082 1.742 0 2.952-.847 3.654-2.493l-.218-.096c-.798 1.21-1.815 1.839-2.928 1.839-1.984 0-3.34-1.864-3.34-4.598 0-.387.025-.775.073-1.138Zm-64.808 0h6.607c0-2.178-1.621-3.678-3.993-3.678-2.783 0-4.598 1.984-4.598 5.082 0 3.146 1.815 5.082 4.743 5.082 1.743 0 2.953-.847 3.654-2.493l-.217-.096c-.799 1.21-1.815 1.839-2.929 1.839-1.984 0-3.339-1.864-3.339-4.598 0-.387.024-.775.072-1.138Zm185.131 5.397-.169-.145c-.363.363-.968.605-1.525.605-.992 0-1.548-.799-1.548-2.227v-6.63h2.783v-.436h-2.783v-3.122h-.242c-.121.726-.412 1.404-.823 1.985-.533.726-1.234 1.21-1.96 1.403v.17h1.331v6.921c0 1.766.75 2.565 2.468 2.565 1.162 0 2.009-.363 2.468-1.089Zm-161.221-.218c0 .775.629 1.307 1.549 1.307.871 0 1.694-.46 2.057-1.186l-.194-.145c-.266.363-.75.605-1.113.605-.387 0-.605-.266-.605-.75v-5.881c0-1.791-1.234-2.807-3.388-2.807-1.839 0-3.582.799-3.582 2.468 0 .823.581 1.283 1.525 1.283.266 0 .532-.048.702-.121-.484-.363-.726-.895-.726-1.452 0-.871.605-1.742 1.815-1.742s1.96.871 1.96 2.081c0 3.097-5.76 1.524-5.76 5.251 0 1.331 1.259 2.396 2.856 2.396 1.089 0 2.299-.726 2.904-1.718v.411Zm316.537-5.179h6.607c0-2.178-1.622-3.678-3.993-3.678-2.783 0-4.598 1.984-4.598 5.082 0 3.146 1.815 5.082 4.743 5.082 1.742 0 2.952-.847 3.654-2.493l-.218-.096c-.798 1.21-1.815 1.839-2.928 1.839-1.984 0-3.34-1.864-3.34-4.598 0-.387.025-.775.073-1.138Zm-148.104 5.397-.169-.145c-.363.363-.968.605-1.525.605-.992 0-1.549-.799-1.549-2.227v-6.63h2.783v-.436h-2.783v-3.122h-.242c-.121.726-.411 1.404-.823 1.985-.532.726-1.234 1.21-1.96 1.403v.17h1.331v6.921c0 1.766.75 2.565 2.469 2.565 1.161 0 2.008-.363 2.468-1.089Zm49.126-8.833h-6.8v.242c.968 0 1.379.363 1.379.895 0 .17-.048.363-.121.557l-1.984 5.493-2.106-5.493c-.072-.194-.121-.363-.121-.532 0-.557.436-.92 1.283-.92v-.242h-4.453v.242c.775 0 1.259.532 1.259 1.113 0 .121 0 .218-.049.339l-1.96 5.493-2.13-5.493c-.072-.169-.096-.339-.096-.484 0-.581.435-.968 1.258-.968v-.242h-4.235v.242c.678 0 .92.605 1.258 1.452l3.171 8.228h.242l2.855-7.938 3.074 7.938h.242l2.952-8.228c.247-.679.738-1.253 1.133-1.41.469.152.686.694.972 1.41l3.171 8.228h.242l2.855-7.938 3.074 7.938h.242l2.952-8.228c.247-.679.738-1.253 1.133-1.41.469.152.686.694.972 1.41l3.171 8.228h.242l2.855-7.938 3.074 7.938h.242l2.952-8.228c.29-.799.92-1.452 1.331-1.452v-.242h-3.049v.242c.968 0 1.379.363 1.379.895 0 .17-.048.363-.121.557l-1.984 5.493-2.106-5.493c-.072-.194-.121-.363-.121-.532 0-.557.436-.92 1.283-.92v-.242h-4.453v.242c.775 0 1.259.532 1.259 1.113 0 .121 0 .218-.049.339l-1.96 5.493-2.13-5.493c-.072-.169-.096-.339-.096-.484 0-.581.435-.968 1.258-.968v-.242h-6.8v.242c.968 0 1.379.363 1.379.895 0 .17-.048.363-.121.557l-1.984 5.493-2.106-5.493c-.072-.194-.121-.363-.121-.532 0-.557.436-.92 1.283-.92v-.242h-4.453v.242c.775 0 1.259.532 1.259 1.113 0 .121 0 .218-.049.339l-1.96 5.493-2.13-5.493c-.072-.169-.096-.339-.096-.484 0-.581.435-.968 1.258-.968v-.242Zm-291.659 4.066c0-1.936 1.306-3.582 2.807-3.582.919 0 1.379.702 1.379 1.912v5.59c0 .799-.653 1.452-1.452 1.452v.242h4.598v-.242c-.798 0-1.452-.653-1.452-1.452v-5.348c0-1.791-.919-2.88-2.444-2.88-1.476 0-2.977 1.041-3.461 2.468 0-1.524-1.064-2.468-2.444-2.468-1.403 0-2.88.968-3.412 2.42v-2.662c-.871.508-2.13.968-3.146.968v.242c.968 0 1.452.629 1.452 1.936v5.324c0 .799-.653 1.452-1.452 1.452v.242h4.598v-.242c-.799 0-1.452-.653-1.452-1.452v-3.92c0-1.961 1.307-3.582 2.807-3.582.92 0 1.38.702 1.38 1.912v5.59c0 .799-.654 1.452-1.452 1.452v.242h4.598v-.242c-.799 0-1.452-.653-1.452-1.452v-3.92Zm362.71 0c0-1.936 1.307-3.582 2.807-3.582.92 0 1.38.702 1.38 1.912v5.59c0 .799-.654 1.452-1.452 1.452v.242h4.598v-.242c-.799 0-1.452-.653-1.452-1.452v-5.348c0-1.791-.92-2.88-2.444-2.88-1.477 0-2.977 1.041-3.461 2.468 0-1.524-1.065-2.468-2.444-2.468-1.404 0-2.88.968-3.412 2.42v-2.662c-.872.508-2.13.968-3.146.968v.242c.968 0 1.452.629 1.452 1.936v5.324c0 .799-.654 1.452-1.452 1.452v.242h4.598v-.242c-.799 0-1.452-.653-1.452-1.452v-3.92c0-1.961 1.306-3.582 2.807-3.582.919 0 1.379.702 1.379 1.912v5.59c0 .799-.653 1.452-1.452 1.452v.242h4.598v-.242c-.798 0-1.452-.653-1.452-1.452v-3.92Zm-252.479 3.92V266.54c-.872.508-2.13.968-3.146.968v.242c.968 0 1.452.629 1.452 1.936v10.406c0 .799-.654 1.452-1.452 1.452v.242h4.598v-.242c-.799 0-1.452-.653-1.452-1.452Zm323.409-3.92c0-1.936 1.307-3.582 2.808-3.582.919 0 1.379.702 1.379 1.912v5.59c0 .799-.653 1.452-1.452 1.452v.242H475v-.242c-.799 0-1.452-.653-1.452-1.452v-5.348c0-1.791-.92-2.88-2.444-2.88-1.476 0-2.977 1.041-3.461 2.468 0-1.524-1.065-2.468-2.444-2.468-1.404 0-2.88.968-3.412 2.42v-2.662c-.871.508-2.13.968-3.146.968v.242c.968 0 1.452.629 1.452 1.936v5.324c0 .799-.654 1.452-1.452 1.452v.242h4.598v-.242c-.799 0-1.452-.653-1.452-1.452v-3.92c0-1.961 1.307-3.582 2.807-3.582.92 0 1.379.702 1.379 1.912v5.59c0 .799-.653 1.452-1.452 1.452v.242h4.598v-.242c-.798 0-1.452-.653-1.452-1.452v-3.92Zm-412.344 3.92v-8.47c-.872.508-2.13.968-3.146.968v.242c.798 0 1.452.411 1.452 1.936v5.324c0 .799-.654 1.452-1.452 1.452v.242h4.598v-.242c-.799 0-1.452-.653-1.452-1.452Zm40.462-2.856-2.299 2.856c-.678.847-1.67 1.452-2.42 1.452v.242h3.146v-.242c-.508 0-.605-.29-.605-.581 0-.242.194-.532.46-.871l1.984-2.493 1.718 2.493c.242.339.363.629.363.871 0 .291-.266.581-.774.581v.242h4.598v-.242c-.75 0-1.549-.605-2.13-1.452l-2.589-3.727 2.057-2.565c.678-.847 1.67-1.452 2.42-1.452v-.242h-3.146v.242c.508 0 .605.29.605.581 0 .242-.194.532-.46.871l-1.718 2.178-1.5-2.178c-.242-.339-.363-.581-.363-.871 0-.242.266-.581.774-.581v-.242h-4.598v.242c.75 0 1.549.605 2.13 1.452l2.347 3.436Zm162.915-2.734v5.59c0 .799-.653 1.452-1.452 1.452v.242h4.598v-.242c-.798 0-1.452-.653-1.452-1.452v-5.348c0-1.743-1.113-2.88-2.783-2.88-1.548 0-2.952.968-3.509 2.42v-7.744c-.871.508-2.129.968-3.146.968v.242c.968 0 1.452.629 1.452 1.936v10.406c0 .799-.653 1.452-1.452 1.452v.242h4.598v-.242c-.798 0-1.452-.653-1.452-1.452v-3.92c0-1.985 1.283-3.582 2.856-3.582 1.065 0 1.742.726 1.742 1.912Zm112.724 2.734-2.299 2.856c-.678.847-1.67 1.452-2.42 1.452v.242h3.146v-.242c-.508 0-.605-.29-.605-.581 0-.242.194-.532.46-.871l1.984-2.493 1.718 2.493c.242.339.363.629.363.871 0 .291-.266.581-.774.581v.242h4.598v-.242c-.75 0-1.549-.605-2.13-1.452l-2.589-3.727 2.057-2.565c.678-.847 1.67-1.452 2.42-1.452v-.242h-3.146v.242c.508 0 .605.29.605.581 0 .242-.194.532-.46.871l-1.718 2.178-1.5-2.178c-.242-.339-.363-.581-.363-.871 0-.242.266-.581.774-.581v-.242h-4.598v.242c.75 0 1.549.605 2.13 1.452l2.347 3.436Zm-250.326-1.064c0-1.936 1.307-3.582 2.807-3.582.92 0 1.38.702 1.38 1.912v5.59c0 .799-.654 1.452-1.452 1.452v.242h4.598v-.242c-.799 0-1.452-.653-1.452-1.452v-5.348c0-1.791-.92-2.88-2.444-2.88-1.477 0-2.977 1.041-3.461 2.468 0-1.524-1.065-2.468-2.444-2.468-1.404 0-2.88.968-3.412 2.42v-2.662c-.872.508-2.13.968-3.146.968v.242c.968 0 1.452.629 1.452 1.936v5.324c0 .799-.654 1.452-1.452 1.452v.242h4.598v-.242c-.799 0-1.452-.653-1.452-1.452v-3.92c0-1.961 1.306-3.582 2.807-3.582.919 0 1.379.702 1.379 1.912v5.59c0 .799-.653 1.452-1.452 1.452v.242h4.598v-.242c-.798 0-1.452-.653-1.452-1.452v-3.92Zm70.93 0c0-1.936 1.307-3.582 2.808-3.582.919 0 1.379.702 1.379 1.912v5.59c0 .799-.653 1.452-1.452 1.452v.242h4.598v-.242c-.799 0-1.452-.653-1.452-1.452v-5.348c0-1.791-.92-2.88-2.444-2.88-1.476 0-2.977 1.041-3.461 2.468 0-1.524-1.065-2.468-2.444-2.468-1.404 0-2.88.968-3.412 2.42v-2.662c-.871.508-2.13.968-3.146.968v.242c.968 0 1.452.629 1.452 1.936v5.324c0 .799-.654 1.452-1.452 1.452v.242h4.598v-.242c-.799 0-1.452-.653-1.452-1.452v-3.92c0-1.961 1.307-3.582 2.807-3.582.92 0 1.379.702 1.379 1.912v5.59c0 .799-.653 1.452-1.452 1.452v.242h4.598v-.242c-.798 0-1.452-.653-1.452-1.452v-3.92Zm-131.091 3.92V266.54c-.871.508-2.13.968-3.146.968v.242c.968 0 1.452.629 1.452 1.936v10.406c0 .799-.653 1.452-1.452 1.452v.242h4.598v-.242c-.799 0-1.452-.653-1.452-1.452Zm358.96 0V266.54c-.872.508-2.13.968-3.146.968v.242c.968 0 1.452.629 1.452 1.936v10.406c0 .799-.654 1.452-1.452 1.452v.242h4.598v-.242c-.799 0-1.452-.653-1.452-1.452ZM176.903 272.3c1.646 0 2.711 1.815 2.711 4.646s-1.065 4.646-2.711 4.646c-1.645 0-2.71-1.815-2.71-4.646s1.065-4.646 2.71-4.646Zm275.639 0c1.646 0 2.711 1.815 2.711 4.646s-1.065 4.646-2.711 4.646c-1.645 0-2.71-1.815-2.71-4.646s1.065-4.646 2.71-4.646Zm-320.07 8.228v-4.356c0-1.985 1.283-3.582 2.856-3.582 1.597 0 2.589 1.621 2.589 4.283 0 2.88-1.161 4.598-3.097 4.598-.896 0-1.791-.363-2.348-.943Zm275.639 0v-4.356c0-1.985 1.283-3.582 2.856-3.582 1.597 0 2.589 1.621 2.589 4.283 0 2.88-1.161 4.598-3.097 4.598-.896 0-1.791-.363-2.348-.943Zm-127.8 0v-4.356c0-1.985 1.283-3.582 2.856-3.582 1.597 0 2.589 1.621 2.589 4.283 0 2.88-1.162 4.598-3.098 4.598-.895 0-1.79-.363-2.347-.943Zm99.389-.993c0-2.105 2.638-2.323 4.066-3.678v3.824c-.653 1.064-1.476 1.694-2.372 1.694-1.016 0-1.694-.751-1.694-1.84Zm-275.639 0c0-2.105 2.638-2.323 4.066-3.678v3.824c-.653 1.064-1.476 1.694-2.372 1.694-1.016 0-1.694-.751-1.694-1.84Zm-59.87 0c0-2.105 2.637-2.323 4.065-3.678v3.824c-.653 1.064-1.476 1.694-2.371 1.694-1.017 0-1.694-.751-1.694-1.84Zm25.724-1.282c0-2.299 1.936-4.961 3.606-4.961.629 0 .944.387.944 1.234 0 2.202-2.081 5.542-3.461 5.542-.653 0-1.089-.726-1.089-1.815Zm79.183-3.146c.387-1.743 1.355-2.807 2.541-2.807 1.282 0 2.202 1.185 2.202 2.807h-4.743Zm275.639 0c.387-1.743 1.355-2.807 2.541-2.807 1.282 0 2.202 1.185 2.202 2.807h-4.743Zm-340.447 0c.387-1.743 1.355-2.807 2.541-2.807 1.283 0 2.202 1.185 2.202 2.807H84.29Zm275.639 0c.387-1.743 1.355-2.807 2.541-2.807 1.283 0 2.202 1.185 2.202 2.807h-4.743Zm-68.486-3.243c-.605 0-1.089.484-1.089 1.089s.484 1.089 1.089 1.089 1.089-.484 1.089-1.089-.484-1.089-1.089-1.089ZM54.306 267.75c-.605 0-1.089.484-1.089 1.089s.484 1.089 1.089 1.089 1.089-.484 1.089-1.089-.484-1.089-1.089-1.089Zm230.493-22.237-2.473-6.012c-.097-.243-.145-.461-.145-.655 0-.509.339-.8.97-.8v-.242h-4.243v.242c.631 0 1.237.631 1.576 1.455l2.764 6.715c.194.485.315 1.066.315 1.648 0 1.77-1.067 3.006-2.206 3.006-.703 0-1.237-.363-1.552-.994-.218.437-.291.703-.291 1.018 0 .897.534 1.455 1.358 1.455 2.109 0 3.757-5.164 4.169-6.254l2.594-6.594c.364-.946.825-1.455 1.455-1.455v-.242h-2.909v.242c.606 0 1.115.291 1.115.897 0 .17-.049.34-.121.558l-2.376 6.012Zm-127.827-6.352c.437-.484.897-.703 1.334-.703.727 0 1.284.606 1.406 1.528.339-.194.533-.679.533-1.164 0-.776-.509-1.26-1.309-1.26-.752 0-1.576.484-2.206 1.284-.606-.824-1.624-1.284-2.861-1.284-2.036 0-3.515 1.357-3.515 3.272 0 1.188.606 2.206 1.6 2.788-.824.533-1.163 1.333-1.163 2.182 0 .921.678 1.624 1.89 1.939-1.527.267-2.618 1.139-2.618 2.206 0 1.406 1.746 2.4 4.194 2.4 2.861 0 4.606-1.43 4.606-3.757 0-3.806-7.345-1.382-7.345-3.54 0-.509.412-1.018.848-1.236.485.194.946.291 1.503.291 2.061 0 3.515-1.334 3.515-3.273 0-.63-.145-1.212-.412-1.673Zm250.127.825v-2.667c-.873.509-2.133.97-3.152.97v.242c.97 0 1.455.63 1.455 1.94v9.939c0 .8-.655 1.454-1.455 1.454v.243h4.606v-.243c-.8 0-1.454-.654-1.454-1.454v-3.637c.727.631 1.697.97 2.763.97 2.715 0 4.509-2.133 4.509-5.333 0-2.909-1.503-4.848-3.757-4.848-1.552 0-2.958.969-3.515 2.424Zm-253.957 7.757h.073c3.636 0 4.872.873 4.872 1.794 0 1.285-1.672 2.376-3.733 2.376-1.697 0-2.788-.825-2.788-2.061 0-.873.655-1.745 1.576-2.109Zm149.038-1.091-.169-.145c-.364.363-.97.606-1.528.606-.993 0-1.551-.8-1.551-2.23v-6.643h2.788v-.436h-2.788v-3.127h-.242c-.122.727-.413 1.406-.825 1.988-.533.727-1.236 1.212-1.963 1.406v.169h1.333v6.933c0 1.77.752 2.57 2.473 2.57 1.163 0 2.012-.364 2.472-1.091Zm118.494-9.09c-2.763 0-4.606 2.036-4.606 5.09 0 3.055 1.843 5.091 4.606 5.091 2.764 0 4.606-2.036 4.606-5.091 0-3.054-1.842-5.09-4.606-5.09Zm-46.52 9.09-.169-.145c-.364.363-.97.606-1.528.606-.994 0-1.551-.8-1.551-2.23v-6.643h2.788v-.436h-2.788v-3.127h-.243c-.121.727-.412 1.406-.824 1.988-.533.727-1.236 1.212-1.963 1.406v.169h1.333v6.933c0 1.77.751 2.57 2.473 2.57 1.163 0 2.012-.364 2.472-1.091Zm96.652 0-.17-.145c-.363.363-.969.606-1.527.606-.994 0-1.551-.8-1.551-2.23v-6.643h2.788v-.436h-2.788v-3.127h-.243c-.121.727-.412 1.406-.824 1.988-.533.727-1.236 1.212-1.963 1.406v.169h1.333v6.933c0 1.77.751 2.57 2.473 2.57 1.163 0 2.012-.364 2.472-1.091Zm-153.79-5.406h6.618c0-2.182-1.624-3.684-4-3.684-2.787 0-4.605 1.987-4.605 5.09 0 3.152 1.818 5.091 4.751 5.091 1.745 0 2.957-.848 3.66-2.497l-.218-.097c-.8 1.212-1.818 1.843-2.933 1.843-1.988 0-3.345-1.867-3.345-4.606 0-.388.024-.776.072-1.14Zm35.902-3.684c-2.763 0-4.605 2.036-4.605 5.09 0 3.055 1.842 5.091 4.605 5.091 2.764 0 4.606-2.036 4.606-5.091 0-3.054-1.842-5.09-4.606-5.09Zm-269.374 9.09-.17-.145c-.363.363-.969.606-1.527.606-.994 0-1.552-.8-1.552-2.23v-6.643h2.788v-.436h-2.788v-3.127h-.242c-.121.727-.412 1.406-.824 1.988-.533.727-1.236 1.212-1.964 1.406v.169h1.334v6.933c0 1.77.751 2.57 2.472 2.57 1.164 0 2.012-.364 2.473-1.091Zm276.138.849h.242c.122-.364.267-.485.461-.485.509 0 1.139.727 2.448.727 1.721 0 3.152-1.406 3.152-3.103 0-3.03-5.043-2.957-5.043-5.212 0-.776.752-1.43 1.625-1.43 1.042 0 1.987.897 2.569 2.473h.243v-2.667h-.243c-.121.364-.242.509-.412.509-.46 0-.945-.751-2.133-.751-1.552 0-2.836 1.236-2.836 2.763 0 3.03 5.066 2.958 5.066 5.261 0 .921-.897 1.721-1.963 1.721-1.309 0-2.376-1.091-2.934-2.958h-.242v3.152Zm82.131-.849-.17-.145c-.363.363-.969.606-1.527.606-.994 0-1.551-.8-1.551-2.23v-6.643h2.787v-.436h-2.787v-3.127h-.243c-.121.727-.412 1.406-.824 1.988-.533.727-1.236 1.212-1.964 1.406v.169h1.334v6.933c0 1.77.751 2.57 2.472 2.57 1.164 0 2.012-.364 2.473-1.091Zm-342.512-5.406h6.618c0-2.182-1.624-3.684-4-3.684-2.788 0-4.606 1.987-4.606 5.09 0 3.152 1.818 5.091 4.752 5.091 1.745 0 2.957-.848 3.66-2.497l-.218-.097c-.8 1.212-1.818 1.843-2.933 1.843-1.988 0-3.346-1.867-3.346-4.606 0-.388.025-.776.073-1.14Zm349.13 5.188c0 .776.63 1.309 1.551 1.309.873 0 1.697-.461 2.061-1.188l-.194-.145c-.267.363-.751.606-1.115.606-.388 0-.606-.267-.606-.752v-5.89c0-1.794-1.236-2.812-3.394-2.812-1.842 0-3.588.799-3.588 2.472 0 .824.582 1.285 1.528 1.285.266 0 .533-.048.703-.121-.485-.364-.728-.897-.728-1.455 0-.872.606-1.745 1.818-1.745 1.213 0 1.964.873 1.964 2.085 0 3.103-5.77 1.527-5.77 5.26 0 1.333 1.261 2.4 2.861 2.4 1.091 0 2.303-.727 2.909-1.721v.412Zm25.478-.873c-.606 0-1.091.485-1.091 1.091s.485 1.091 1.091 1.091 1.091-.485 1.091-1.091-.485-1.091-1.091-1.091Zm-312.549 1.94h.242c.122-.364.267-.485.461-.485.509 0 1.139.727 2.448.727 1.722 0 3.152-1.406 3.152-3.103 0-3.03-5.042-2.957-5.042-5.212 0-.776.751-1.43 1.624-1.43 1.042 0 1.988.897 2.569 2.473h.243v-2.667h-.243c-.121.364-.242.509-.412.509-.46 0-.945-.751-2.133-.751-1.551 0-2.836 1.236-2.836 2.763 0 3.03 5.066 2.958 5.066 5.261 0 .921-.897 1.721-1.963 1.721-1.309 0-2.376-1.091-2.934-2.958h-.242v3.152Zm19.927-1.067c0 .776.63 1.309 1.551 1.309.873 0 1.697-.461 2.061-1.188l-.194-.145c-.267.363-.752.606-1.115.606-.388 0-.606-.267-.606-.752v-5.89c0-1.794-1.237-2.812-3.394-2.812-1.843 0-3.588.799-3.588 2.472 0 .824.582 1.285 1.527 1.285.267 0 .534-.048.703-.121-.485-.364-.727-.897-.727-1.455 0-.872.606-1.745 1.818-1.745 1.212 0 1.964.873 1.964 2.085 0 3.103-5.77 1.527-5.77 5.26 0 1.333 1.261 2.4 2.861 2.4 1.091 0 2.303-.727 2.909-1.721v.412Zm14.666-5.188h6.618c0-2.182-1.624-3.684-4-3.684-2.788 0-4.606 1.987-4.606 5.09 0 3.152 1.818 5.091 4.752 5.091 1.745 0 2.957-.848 3.66-2.497l-.218-.097c-.8 1.212-1.818 1.843-2.933 1.843-1.988 0-3.346-1.867-3.346-4.606 0-.388.024-.776.073-1.14Zm70.713 0h6.618c0-2.182-1.624-3.684-4-3.684-2.787 0-4.606 1.987-4.606 5.09 0 3.152 1.819 5.091 4.752 5.091 1.745 0 2.957-.848 3.66-2.497l-.218-.097c-.8 1.212-1.818 1.843-2.933 1.843-1.988 0-3.346-1.867-3.346-4.606 0-.388.025-.776.073-1.14Zm-147.172 5.406-.169-.145c-.364.363-.97.606-1.527.606-.994 0-1.552-.8-1.552-2.23v-6.643h2.788v-.436h-2.788v-3.127h-.242c-.122.727-.413 1.406-.825 1.988-.533.727-1.236 1.212-1.963 1.406v.169h1.333v6.933c0 1.77.752 2.57 2.473 2.57 1.163 0 2.012-.364 2.472-1.091Zm-28.726 0-.17-.145c-.363.363-.969.606-1.527.606-.994 0-1.551-.8-1.551-2.23v-6.643h2.787v-.436H87.52v-3.127h-.243c-.121.727-.412 1.406-.824 1.988-.533.727-1.236 1.212-1.964 1.406v.169h1.334v6.933c0 1.77.751 2.57 2.472 2.57 1.164 0 2.012-.364 2.473-1.091Zm172.989 0-.169-.145c-.364.363-.97.606-1.528.606-.994 0-1.551-.8-1.551-2.23v-6.643h2.788v-.436h-2.788v-3.127h-.243c-.121.727-.412 1.406-.824 1.988-.533.727-1.236 1.212-1.963 1.406v.169h1.333v6.933c0 1.77.751 2.57 2.473 2.57 1.163 0 2.012-.364 2.472-1.091Zm-211.752-5.406h6.618c0-2.182-1.624-3.684-4-3.684-2.787 0-4.605 1.987-4.605 5.09 0 3.152 1.818 5.091 4.751 5.091 1.745 0 2.957-.848 3.66-2.497l-.218-.097c-.8 1.212-1.818 1.843-2.933 1.843-1.988 0-3.345-1.867-3.345-4.606 0-.388.024-.776.072-1.14Zm287.75.631c0-1.94 1.309-3.588 2.812-3.588.921 0 1.382.703 1.382 1.915v5.6c0 .8-.655 1.454-1.455 1.454v.243h4.606v-.243c-.8 0-1.454-.654-1.454-1.454v-5.358c0-1.794-.921-2.884-2.449-2.884-1.478 0-2.981 1.042-3.466 2.472 0-1.527-1.067-2.472-2.449-2.472-1.406 0-2.884.969-3.418 2.424v-2.667c-.872.509-2.133.97-3.151.97v.242c.97 0 1.454.63 1.454 1.94v5.333c0 .8-.654 1.454-1.454 1.454v.243h4.606v-.243c-.8 0-1.455-.654-1.455-1.454v-3.927c0-1.964 1.309-3.588 2.812-3.588.922 0 1.382.703 1.382 1.915v5.6c0 .8-.654 1.454-1.454 1.454v.243h4.606v-.243c-.8 0-1.455-.654-1.455-1.454v-3.927Zm-211.776-1.673v5.6c0 .8-.654 1.454-1.454 1.454v.243h4.605v-.243c-.8 0-1.454-.654-1.454-1.454v-5.358c0-1.745-1.115-2.884-2.788-2.884-1.551 0-2.957.969-3.515 2.424v-7.758c-.873.509-2.133.97-3.151.97v.242c.969 0 1.454.631 1.454 1.94v10.424c0 .8-.654 1.454-1.454 1.454v.243h4.606v-.243c-.8 0-1.455-.654-1.455-1.454v-3.927c0-1.988 1.285-3.588 2.861-3.588 1.066 0 1.745.727 1.745 1.915Zm182.686 0v5.6c0 .8-.654 1.454-1.454 1.454v.243h4.605v-.243c-.8 0-1.454-.654-1.454-1.454v-5.358c0-1.745-1.115-2.884-2.788-2.884-1.551 0-2.957.969-3.515 2.424v-7.758c-.873.509-2.133.97-3.151.97v.242c.969 0 1.454.631 1.454 1.94v10.424c0 .8-.654 1.454-1.454 1.454v.243h4.606v-.243c-.8 0-1.455-.654-1.455-1.454v-3.927c0-1.988 1.285-3.588 2.861-3.588 1.066 0 1.745.727 1.745 1.915Zm-55.998 5.6v-8.485c-.873.509-2.134.97-3.152.97v.242c.8 0 1.455.412 1.455 1.94v5.333c0 .8-.655 1.454-1.455 1.454v.243h4.606v-.243c-.8 0-1.454-.654-1.454-1.454Zm-41.89 0v-8.485c-.873.509-2.134.97-3.152.97v.242c.8 0 1.455.412 1.455 1.94v5.333c0 .8-.655 1.454-1.455 1.454v.243h4.606v-.243c-.8 0-1.454-.654-1.454-1.454Zm-144.045 0v-13.576c-.873.509-2.133.97-3.151.97v.242c.969 0 1.454.631 1.454 1.94v10.424c0 .8-.654 1.454-1.454 1.454v.243h4.606v-.243c-.8 0-1.455-.654-1.455-1.454Zm208.601 0v-13.576c-.873.509-2.134.97-3.152.97v.242c.97 0 1.455.631 1.455 1.94v10.424c0 .8-.655 1.454-1.455 1.454v.243h4.606v-.243c-.8 0-1.454-.654-1.454-1.454Zm-182.808 0v-13.576c-.872.509-2.133.97-3.151.97v.242c.97 0 1.454.631 1.454 1.94v10.424c0 .8-.654 1.454-1.454 1.454v.243h4.606v-.243c-.8 0-1.455-.654-1.455-1.454Zm92.168-5.333v5.333c0 .8-.655 1.454-1.455 1.454v.243h4.606v-.243c-.8 0-1.454-.654-1.454-1.454v-3.879c0-1.988.969-3.248 2.036-3.248.751 0 1.236.581 1.236 1.503 0 .121 0 .266-.024.412.824-.437 1.139-.946 1.139-1.6 0-.8-.654-1.43-1.527-1.43-1.164 0-2.303.969-2.86 2.424v-2.667c-.873.509-2.134.97-3.152.97v.242c.97 0 1.455.655 1.455 1.94Zm48.629 5.333c0 .8-.655 1.454-1.455 1.454v.243h4.606v-.243c-.8 0-1.454-.654-1.454-1.454v-8.485c-.873.291-2.134.485-3.152.485h-3.151v-1.649c0-2.157.751-3.49 1.963-3.49.703 0 1.261.606 1.261 1.309 0 .606-.267 1.091-.8 1.406.218.097.412.121.679.121.945 0 1.575-.582 1.575-1.406 0-1.091-1.042-1.867-2.545-1.867-2.279 0-3.83 1.843-3.83 4.606v.97h-1.334v.436h1.334v7.564c0 .824-.631 1.454-1.455 1.454v.243h4.606v-.243c-.824 0-1.454-.63-1.454-1.454v-7.564h3.151c.994 0 1.455.606 1.455 1.915v5.649Zm160.383-3.927c0-1.94 1.309-3.588 2.812-3.588.921 0 1.382.703 1.382 1.915v5.6c0 .8-.655 1.454-1.455 1.454v.243h4.606v-.243c-.8 0-1.454-.654-1.454-1.454v-5.358c0-1.794-.921-2.884-2.449-2.884-1.478 0-2.981 1.042-3.466 2.472 0-1.527-1.067-2.472-2.448-2.472-1.407 0-2.885.969-3.419 2.424v-2.667c-.872.509-2.133.97-3.151.97v.242c.97 0 1.454.63 1.454 1.94v5.333c0 .8-.654 1.454-1.454 1.454v.243h4.606v-.243c-.8 0-1.455-.654-1.455-1.454v-3.927c0-1.964 1.309-3.588 2.812-3.588.922 0 1.382.703 1.382 1.915v5.6c0 .8-.654 1.454-1.454 1.454v.243h4.606v-.243c-.8 0-1.455-.654-1.455-1.454v-3.927Zm-148.335-1.673v5.6c0 .8-.655 1.454-1.455 1.454v.243h4.606v-.243c-.8 0-1.454-.654-1.454-1.454v-5.358c0-1.745-1.115-2.884-2.788-2.884-1.552 0-2.958.969-3.515 2.424v-2.667c-.873.509-2.133.97-3.152.97v.242c.97 0 1.455.63 1.455 1.94v5.333c0 .8-.655 1.454-1.455 1.454v.243h4.606v-.243c-.8 0-1.454-.654-1.454-1.454v-3.927c0-1.988 1.285-3.588 2.86-3.588 1.067 0 1.746.727 1.746 1.915Zm136.699 5.6v-8.485c-.873.509-2.133.97-3.151.97v.242c.8 0 1.454.412 1.454 1.94v5.333c0 .8-.654 1.454-1.454 1.454v.243h4.606v-.243c-.8 0-1.455-.654-1.455-1.454Zm-309.616 0v-8.485c-.872.509-2.133.97-3.151.97v.242c.8 0 1.454.412 1.454 1.94v5.333c0 .8-.654 1.454-1.454 1.454v.243h4.606v-.243c-.8 0-1.455-.654-1.455-1.454Zm-28.799-5.6v5.6c0 .8-.655 1.454-1.455 1.454v.243h4.606v-.243c-.8 0-1.454-.654-1.454-1.454v-5.358c0-1.745-1.115-2.884-2.788-2.884-1.551 0-2.957.969-3.515 2.424v-7.758c-.873.509-2.133.97-3.151.97v.242c.969 0 1.454.631 1.454 1.94v10.424c0 .8-.654 1.454-1.454 1.454v.243h4.606v-.243c-.8 0-1.455-.654-1.455-1.454v-3.927c0-1.988 1.285-3.588 2.861-3.588 1.066 0 1.745.727 1.745 1.915Zm382.584.267v5.333c0 .8-.655 1.454-1.455 1.454v.243h4.606v-.243c-.8 0-1.454-.654-1.454-1.454v-3.879c0-1.988.969-3.248 2.036-3.248.751 0 1.236.581 1.236 1.503 0 .121 0 .266-.024.412.824-.437 1.139-.946 1.139-1.6 0-.8-.654-1.43-1.527-1.43-1.164 0-2.303.969-2.86 2.424v-2.667c-.873.509-2.134.97-3.152.97v.242c.97 0 1.455.655 1.455 1.94Zm-292.962 5.333v-8.485c-.873.509-2.133.97-3.152.97v.242c.8 0 1.455.412 1.455 1.94v5.333c0 .8-.655 1.454-1.455 1.454v.243h4.606v-.243c-.8 0-1.454-.654-1.454-1.454ZM36.83 233.198H25v3.394h.242c.437-1.527.679-1.964 1.14-2.327.509-.437 1.26-.558 3.588-.558v12.097c0 .897-.655 1.454-1.697 1.454v.243h5.284v-.243c-1.042 0-1.697-.557-1.697-1.454v-12.097c2.328 0 3.079.121 3.588.558.461.363.703.8 1.14 2.327h.242v-3.394Zm108.797 7.006v5.6c0 .8-.654 1.454-1.454 1.454v.243h4.605v-.243c-.799 0-1.454-.654-1.454-1.454v-5.358c0-1.745-1.115-2.884-2.788-2.884-1.551 0-2.957.969-3.515 2.424v-2.667c-.873.509-2.133.97-3.151.97v.242c.969 0 1.454.63 1.454 1.94v5.333c0 .8-.654 1.454-1.454 1.454v.243h4.606v-.243c-.8 0-1.455-.654-1.455-1.454v-3.927c0-1.988 1.285-3.588 2.861-3.588 1.066 0 1.745.727 1.745 1.915Zm77.501 0v5.6c0 .8-.655 1.454-1.455 1.454v.243h4.606v-.243c-.8 0-1.454-.654-1.454-1.454v-5.358c0-1.745-1.115-2.884-2.788-2.884-1.551 0-2.957.969-3.515 2.424v-2.667c-.873.509-2.133.97-3.151.97v.242c.969 0 1.454.63 1.454 1.94v5.333c0 .8-.654 1.454-1.454 1.454v.243h4.606v-.243c-.8 0-1.455-.654-1.455-1.454v-3.927c0-1.988 1.285-3.588 2.861-3.588 1.066 0 1.745.727 1.745 1.915Zm237.012 0v5.6c0 .8-.655 1.454-1.455 1.454v.243h4.606v-.243c-.8 0-1.454-.654-1.454-1.454v-5.358c0-1.745-1.115-2.884-2.788-2.884-1.552 0-2.958.969-3.515 2.424v-2.667c-.873.509-2.133.97-3.152.97v.242c.97 0 1.455.63 1.455 1.94v5.333c0 .8-.655 1.454-1.455 1.454v.243h4.606v-.243c-.8 0-1.454-.654-1.454-1.454v-3.927c0-1.988 1.285-3.588 2.86-3.588 1.067 0 1.746.727 1.746 1.915Zm-107.222-2.206c1.649 0 2.716 1.818 2.716 4.654 0 2.837-1.067 4.655-2.716 4.655-1.648 0-2.715-1.818-2.715-4.655 0-2.836 1.067-4.654 2.715-4.654Zm67.756 0c1.649 0 2.715 1.818 2.715 4.654 0 2.837-1.066 4.655-2.715 4.655-1.648 0-2.715-1.818-2.715-4.655 0-2.836 1.067-4.654 2.715-4.654Zm-13.575 8.242v-4.363c0-1.988 1.285-3.588 2.86-3.588 1.6 0 2.594 1.624 2.594 4.291 0 2.884-1.163 4.605-3.103 4.605-.897 0-1.794-.363-2.351-.945Zm-229.885-.994c0-2.109 2.642-2.327 4.073-3.685v3.831c-.655 1.066-1.479 1.697-2.376 1.697-1.018 0-1.697-.752-1.697-1.843Zm267.144 0c0-2.109 2.643-2.327 4.073-3.685v3.831c-.655 1.066-1.479 1.697-2.376 1.697-1.018 0-1.697-.752-1.697-1.843Zm-290.489-7.248c1.188 0 1.915 1.091 1.915 2.836 0 1.746-.727 2.812-1.915 2.812-1.188 0-1.915-1.091-1.915-2.812 0-1.745.752-2.836 1.915-2.836ZM52.078 240.81c.388-1.746 1.358-2.812 2.545-2.812 1.285 0 2.206 1.188 2.206 2.812h-4.751Zm214.661 0c.388-1.746 1.357-2.812 2.545-2.812 1.285 0 2.206 1.188 2.206 2.812h-4.751Zm50.35 0c.388-1.746 1.358-2.812 2.545-2.812 1.285 0 2.206 1.188 2.206 2.812h-4.751Zm-217.715 0c.388-1.746 1.357-2.812 2.545-2.812 1.285 0 2.206 1.188 2.206 2.812h-4.751Zm96.652 0c.388-1.746 1.357-2.812 2.545-2.812 1.285 0 2.206 1.188 2.206 2.812h-4.751Zm187.025-7.37c-.606 0-1.091.485-1.091 1.091s.485 1.091 1.091 1.091 1.091-.485 1.091-1.091-.485-1.091-1.091-1.091Zm-171.292 0c-.606 0-1.091.485-1.091 1.091s.485 1.091 1.091 1.091 1.09-.485 1.09-1.091-.484-1.091-1.09-1.091Zm-77.501 0c-.606 0-1.091.485-1.091 1.091s.485 1.091 1.091 1.091 1.091-.485 1.091-1.091-.485-1.091-1.091-1.091Zm119.39 0c-.606 0-1.09.485-1.09 1.091s.484 1.091 1.09 1.091c.606 0 1.091-.485 1.091-1.091s-.485-1.091-1.091-1.091Zm-180.213 0c-.606 0-1.091.485-1.091 1.091s.485 1.091 1.091 1.091 1.091-.485 1.091-1.091-.485-1.091-1.091-1.091Zm184.453-27.018-4.202-10.215c-.164-.412-.247-.783-.247-1.112 0-.865.577-1.36 1.648-1.36v-.412h-7.208v.412c1.071 0 2.1 1.071 2.677 2.472l4.696 11.409c.329.824.535 1.813.535 2.801 0 3.007-1.812 5.108-3.748 5.108-1.195 0-2.101-.618-2.636-1.689-.371.741-.495 1.194-.495 1.73 0 1.524.907 2.471 2.307 2.471 3.584 0 6.385-8.773 7.085-10.627l4.407-11.203c.618-1.607 1.401-2.472 2.471-2.472v-.412h-4.942v.412c1.029 0 1.894.495 1.894 1.524 0 .289-.082.577-.206.948l-4.036 10.215Zm-66.645 0-4.202-10.215c-.165-.412-.247-.783-.247-1.112 0-.865.577-1.36 1.648-1.36v-.412h-7.209v.412c1.071 0 2.101 1.071 2.678 2.472l4.695 11.409c.33.824.536 1.813.536 2.801 0 3.007-1.812 5.108-3.748 5.108-1.195 0-2.101-.618-2.637-1.689-.37.741-.494 1.194-.494 1.73 0 1.524.906 2.471 2.307 2.471 3.583 0 6.384-8.773 7.084-10.627l4.408-11.203c.618-1.607 1.4-2.472 2.471-2.472v-.412h-4.943v.412c1.03 0 1.895.495 1.895 1.524 0 .289-.082.577-.206.948l-4.036 10.215Zm10.379 7.949.206.371c2.307-.824 3.707-2.718 3.707-4.943 0-1.936-.947-3.295-2.265-3.295-1.03 0-1.854.824-1.854 1.854 0 .865.66 1.153 1.277 1.441.536.289 1.071.577 1.071 1.36 0 .988-.865 2.306-2.142 3.212Zm90.33-9.103V183.85c-1.483.865-3.625 1.647-5.355 1.647v.412c1.648 0 2.472 1.071 2.472 3.295v5.355c-1.236-1.071-2.884-1.648-4.696-1.648-4.613 0-7.661 3.625-7.661 9.062 0 4.943 2.512 8.238 6.343 8.238 2.636 0 5.066-1.647 6.014-4.119v1.236c0 .865.164 2.018.412 2.883l4.942-.7v-.412c-1.853-.329-2.471-1.236-2.471-3.831Zm-141.776 3.09-.288-.247c-.618.617-1.648 1.029-2.595 1.029-1.689 0-2.636-1.359-2.636-3.789v-11.286h4.737v-.742h-4.737v-5.313h-.412c-.206 1.236-.7 2.389-1.401 3.377-.906 1.236-2.1 2.06-3.336 2.389v.289h2.265v11.78c0 3.007 1.277 4.366 4.202 4.366 1.977 0 3.419-.618 4.201-1.853Zm246.481-.371c0 1.318 1.071 2.224 2.636 2.224 1.483 0 2.883-.782 3.501-2.018l-.329-.247c-.454.618-1.277 1.03-1.895 1.03-.659 0-1.03-.454-1.03-1.277V197.69c0-3.049-2.101-4.779-5.767-4.779-3.13 0-6.096 1.36-6.096 4.202 0 1.4.989 2.183 2.595 2.183.453 0 .906-.082 1.195-.206-.824-.618-1.236-1.524-1.236-2.471 0-1.483 1.03-2.966 3.089-2.966 2.06 0 3.337 1.483 3.337 3.542 0 5.273-9.803 2.595-9.803 8.938 0 2.266 2.141 4.078 4.86 4.078 1.854 0 3.913-1.235 4.943-2.924v.7Zm-96.302-8.815H311.6c0-3.707-2.76-6.261-6.797-6.261-4.737 0-7.826 3.378-7.826 8.65 0 5.355 3.089 8.65 8.073 8.65 2.966 0 5.026-1.441 6.22-4.242l-.371-.165c-1.359 2.059-3.089 3.13-4.984 3.13-3.377 0-5.684-3.171-5.684-7.826 0-.659.041-1.318.124-1.936Zm-194.458 0h11.245c0-3.707-2.76-6.261-6.796-6.261-4.737 0-7.827 3.378-7.827 8.65 0 5.355 3.09 8.65 8.074 8.65 2.965 0 5.025-1.441 6.219-4.242l-.37-.165c-1.36 2.059-3.09 3.13-4.984 3.13-3.378 0-5.685-3.171-5.685-7.826 0-.659.042-1.318.124-1.936Zm264.769-7.908 6.508 18.947h.412l7.538-21.83c.453-1.36 1.73-2.472 2.883-2.472v-.412h-5.89v.412c1.194 0 2.183.865 2.183 1.895 0 .206 0 .371-.083.577l-5.601 16.146-5.561-16.146c-.082-.206-.082-.371-.082-.577 0-1.03.988-1.895 2.183-1.895v-.412h-8.98v.412c1.277 0 2.801 1.071 3.501 2.472.206.453.33.906.33 1.4 0 .618-.124 1.071-.577 2.389l-4.284 12.357-5.56-16.146c-.083-.206-.083-.371-.083-.577 0-1.03.989-1.895 2.183-1.895v-.412h-8.361v.412c1.194 0 2.43 1.153 2.883 2.472l7.497 21.83h.412l6.549-18.947Zm-47.327 16.723c0 1.318 1.071 2.224 2.636 2.224 1.483 0 2.883-.782 3.501-2.018l-.33-.247c-.453.618-1.276 1.03-1.894 1.03-.659 0-1.03-.454-1.03-1.277V197.69c0-3.049-2.101-4.779-5.767-4.779-3.13 0-6.096 1.36-6.096 4.202 0 1.4.989 2.183 2.595 2.183.453 0 .906-.082 1.195-.206-.824-.618-1.236-1.524-1.236-2.471 0-1.483 1.03-2.966 3.089-2.966 2.06 0 3.337 1.483 3.337 3.542 0 5.273-9.804 2.595-9.804 8.938 0 2.266 2.142 4.078 4.861 4.078 1.853 0 3.913-1.235 4.943-2.924v.7Zm91.071.371-.289-.247c-.618.617-1.647 1.029-2.595 1.029-1.688 0-2.636-1.359-2.636-3.789v-11.286h4.737v-.742h-4.737v-5.313h-.412c-.206 1.236-.7 2.389-1.4 3.377-.906 1.236-2.101 2.06-3.337 2.389v.289h2.266v11.78c0 3.007 1.277 4.366 4.201 4.366 1.977 0 3.419-.618 4.202-1.853Zm58.736-1.854c-1.029 0-1.853.824-1.853 1.854 0 1.029.824 1.853 1.853 1.853 1.03 0 1.854-.824 1.854-1.853 0-1.03-.824-1.854-1.854-1.854Zm-413.505-7.332h11.245c0-3.707-2.76-6.261-6.797-6.261-4.737 0-7.826 3.378-7.826 8.65 0 5.355 3.089 8.65 8.073 8.65 2.966 0 5.026-1.441 6.22-4.242l-.371-.165c-1.359 2.059-3.089 3.13-4.984 3.13-3.377 0-5.684-3.171-5.684-7.826 0-.659.041-1.318.124-1.936Zm101.78 8.815c0 1.318 1.071 2.224 2.636 2.224 1.483 0 2.884-.782 3.501-2.018l-.329-.247c-.453.618-1.277 1.03-1.895 1.03-.659 0-1.03-.454-1.03-1.277V197.69c0-3.049-2.1-4.779-5.766-4.779-3.131 0-6.096 1.36-6.096 4.202 0 1.4.988 2.183 2.595 2.183.453 0 .906-.082 1.194-.206-.824-.618-1.236-1.524-1.236-2.471 0-1.483 1.03-2.966 3.09-2.966 2.059 0 3.336 1.483 3.336 3.542 0 5.273-9.803 2.595-9.803 8.938 0 2.266 2.142 4.078 4.86 4.078 1.854 0 3.913-1.235 4.943-2.924v.7Zm255.336 1.812h.412c.206-.618.453-.823.783-.823.865 0 1.936 1.235 4.16 1.235 2.925 0 5.355-2.389 5.355-5.272 0-5.149-8.568-5.025-8.568-8.856 0-1.318 1.277-2.43 2.76-2.43 1.771 0 3.378 1.524 4.366 4.201h.412v-4.531h-.412c-.206.618-.412.865-.7.865-.783 0-1.606-1.277-3.625-1.277-2.636 0-4.819 2.101-4.819 4.696 0 5.149 8.609 5.025 8.609 8.938 0 1.566-1.524 2.925-3.337 2.925-2.224 0-4.036-1.854-4.984-5.025h-.412v5.354Zm21.708-16.888c-4.696 0-7.827 3.46-7.827 8.65s3.131 8.65 7.827 8.65c4.695 0 7.826-3.46 7.826-8.65s-3.131-8.65-7.826-8.65Zm23.56 4.49v9.515c0 1.359-1.112 2.471-2.471 2.471v.412h7.826v-.412c-1.359 0-2.472-1.112-2.472-2.471v-9.103c0-2.966-1.894-4.902-4.736-4.902-2.637 0-5.026 1.648-5.973 4.119v-4.53c-1.483.865-3.625 1.647-5.355 1.647v.412c1.648 0 2.472 1.071 2.472 3.295v9.062c0 1.359-1.112 2.471-2.472 2.471v.412h7.826v-.412c-1.359 0-2.471-1.112-2.471-2.471v-6.673c0-3.377 2.183-6.096 4.86-6.096 1.813 0 2.966 1.236 2.966 3.254Zm-329.972 0v9.515c0 1.359-1.112 2.471-2.472 2.471v.412h7.826v-.412c-1.359 0-2.471-1.112-2.471-2.471v-9.103c0-2.966-1.895-4.902-4.737-4.902-2.636 0-5.025 1.648-5.972 4.119v-4.53c-1.483.865-3.625 1.647-5.355 1.647v.412c1.647 0 2.471 1.071 2.471 3.295v9.062c0 1.359-1.112 2.471-2.471 2.471v.412h7.826v-.412c-1.359 0-2.471-1.112-2.471-2.471v-6.673c0-3.377 2.183-6.096 4.86-6.096 1.812 0 2.966 1.236 2.966 3.254Zm-44.074 2.842c0-3.295 2.225-6.096 4.778-6.096 1.566 0 2.348 1.195 2.348 3.254v9.515c0 1.359-1.112 2.471-2.471 2.471v.412h7.826v-.412c-1.359 0-2.471-1.112-2.471-2.471v-9.103c0-3.048-1.566-4.902-4.161-4.902-2.512 0-5.066 1.772-5.89 4.202 0-2.595-1.812-4.202-4.16-4.202-2.389 0-4.902 1.648-5.808 4.119v-4.53c-1.483.865-3.624 1.647-5.354 1.647v.412c1.647 0 2.471 1.071 2.471 3.295v9.062c0 1.359-1.112 2.471-2.471 2.471v.412h7.826v-.412c-1.36 0-2.472-1.112-2.472-2.471v-6.673c0-3.336 2.225-6.096 4.778-6.096 1.566 0 2.348 1.195 2.348 3.254v9.515c0 1.359-1.112 2.471-2.471 2.471v.412h7.826v-.412c-1.359 0-2.472-1.112-2.472-2.471v-6.673Zm-36.453 6.673V183.85c-1.483.865-3.624 1.647-5.354 1.647v.412c1.647 0 2.471 1.071 2.471 3.295v17.712c0 1.359-1.112 2.471-2.471 2.471v.412h7.826v-.412c-1.36 0-2.472-1.112-2.472-2.471Zm280.998-9.062v9.062c0 1.359-1.112 2.471-2.471 2.471v.412h7.826v-.412c-1.36 0-2.472-1.112-2.472-2.471v-6.59c0-3.378 1.648-5.52 3.46-5.52 1.277 0 2.101.989 2.101 2.554 0 .206 0 .453-.041.7 1.4-.741 1.936-1.606 1.936-2.718 0-1.36-1.112-2.431-2.595-2.431-1.977 0-3.913 1.648-4.861 4.119v-4.53c-1.483.865-3.624 1.647-5.354 1.647v.412c1.647 0 2.471 1.112 2.471 3.295Zm-301.428-.082h4.572c1.277 0 2.142 1.03 2.472 2.883h.411v-6.631h-.411c-.289 1.853-1.195 2.883-2.472 2.883h-4.572v-10.545c7.332 0 8.732.124 9.927.906.906.577 1.236 1.236 2.059 3.996h.412v-5.767H25v.412c1.771 0 2.883.948 2.883 2.472v18.535c0 1.524-1.112 2.471-2.883 2.471v.412h18.906v-6.59h-.412c-.7 2.636-.988 3.419-1.565 4.119-1.112 1.4-2.471 1.606-10.833 1.606v-11.162Zm204.302 2.471c0-3.295 2.224-6.096 4.778-6.096 1.565 0 2.348 1.195 2.348 3.254v9.515c0 1.359-1.112 2.471-2.471 2.471v.412h7.826v-.412c-1.36 0-2.472-1.112-2.472-2.471v-9.103c0-3.048-1.565-4.902-4.16-4.902-2.512 0-5.066 1.772-5.89 4.202 0-2.595-1.812-4.202-4.16-4.202-2.389 0-4.902 1.648-5.808 4.119v-4.53c-1.483.865-3.625 1.647-5.355 1.647v.412c1.648 0 2.472 1.071 2.472 3.295v9.062c0 1.359-1.112 2.471-2.472 2.471v.412h7.826v-.412c-1.359 0-2.471-1.112-2.471-2.471v-6.673c0-3.336 2.224-6.096 4.778-6.096 1.565 0 2.348 1.195 2.348 3.254v9.515c0 1.359-1.112 2.471-2.472 2.471v.412h7.827v-.412c-1.36 0-2.472-1.112-2.472-2.471v-6.673Zm-64.792-2.389v9.062c0 1.359-1.112 2.471-2.471 2.471v.412h7.826v-.412c-1.359 0-2.471-1.112-2.471-2.471v-6.59c0-3.378 1.647-5.52 3.46-5.52 1.277 0 2.1.989 2.1 2.554 0 .206 0 .453-.041.7 1.401-.741 1.936-1.606 1.936-2.718 0-1.36-1.112-2.431-2.595-2.431-1.977 0-3.913 1.648-4.86 4.119v-4.53c-1.483.865-3.625 1.647-5.355 1.647v.412c1.648 0 2.471 1.112 2.471 3.295Zm267.859-4.201c2.8 0 4.613 3.089 4.613 7.908 0 4.82-1.813 7.909-4.613 7.909-2.801 0-4.614-3.089-4.614-7.909 0-4.819 1.813-7.908 4.614-7.908Zm-122.046 12.316c0-3.584 4.489-3.955 6.92-6.261v6.508c-1.112 1.812-2.513 2.883-4.037 2.883-1.73 0-2.883-1.277-2.883-3.13Zm-161.918 0c0-3.584 4.49-3.955 6.92-6.261v6.508c-1.112 1.812-2.513 2.883-4.037 2.883-1.73 0-2.883-1.277-2.883-3.13Zm235.236 0c0-3.584 4.49-3.955 6.92-6.261v6.508c-1.112 1.812-2.513 2.883-4.037 2.883-1.73 0-2.883-1.277-2.883-3.13Zm-100.668-10.504v7.414c0 3.378-2.266 6.097-4.902 6.097-2.718 0-4.366-2.76-4.366-7.291 0-4.902 1.977-7.826 5.272-7.826 1.524 0 3.048.618 3.996 1.606Zm-183.048 2.966c.659-2.966 2.306-4.778 4.325-4.778 2.183 0 3.748 2.018 3.748 4.778h-8.073Zm194.457 0c.659-2.966 2.307-4.778 4.325-4.778 2.183 0 3.748 2.018 3.748 4.778h-8.073Zm-240.714 0c.659-2.966 2.307-4.778 4.325-4.778 2.183 0 3.749 2.018 3.749 4.778h-8.074Zm100.587-70.197 14.229 41.425h.9l16.48-47.729c.991-2.972 3.782-5.403 6.304-5.403v-.901h-12.878v.901c2.612 0 4.773 1.891 4.773 4.142 0 .451 0 .811-.18 1.261l-12.247 35.301-12.158-35.301c-.18-.45-.18-.81-.18-1.261 0-2.251 2.162-4.142 4.773-4.142v-.901h-19.632v.901c2.792 0 6.124 2.341 7.655 5.403.45.991.72 1.981.72 3.062 0 1.351-.27 2.341-1.26 5.223l-9.366 27.016-12.157-35.301c-.18-.45-.18-.81-.18-1.261 0-2.251 2.161-4.142 4.772-4.142v-.901h-18.281v.901c2.612 0 5.314 2.521 6.304 5.403l16.39 47.729h.901l14.318-41.425Zm-40.974 13.958c0-18.371-12.338-27.466-24.945-27.466-12.608 0-24.945 9.095-24.945 27.466 0 18.371 12.337 27.467 24.945 27.467 12.607 0 24.945-9.096 24.945-27.467Zm177.136-26.566v.901c3.872 0 6.304 2.071 6.304 5.403v40.524c0 3.332-2.432 5.404-6.304 5.404v.9h19.632v-.9c-3.873 0-6.304-2.072-6.304-5.404v-44.937h5.043c7.204 0 13.328 6.034 13.328 13.058 0 8.735-7.475 13.418-12.878 13.418-.99 0-1.801-.18-2.611-.45v.901c2.431 1.26 4.863 1.801 7.294 1.801 8.015 0 15.219-6.484 15.219-15.31 0-8.465-6.844-15.309-15.309-15.309h-23.414Zm43.496 53.132h39.444V154.35h-.901c-1.891 7.114-2.792 9.005-5.043 10.446-2.702 1.711-5.943 2.071-20.172 2.071V121.93c0-3.332 2.431-5.403 6.304-5.403v-.901h-19.632v.901c3.872 0 6.304 2.071 6.304 5.403v40.524c0 3.332-2.432 5.404-6.304 5.404v.9ZM25 115.626v.901c3.872 0 6.304 2.071 6.304 5.403v40.524c0 3.332-2.432 5.404-6.304 5.404v.9h19.632v-.9c-3.873 0-6.304-2.072-6.304-5.404v-44.937h5.043c7.204 0 13.328 6.034 13.328 13.058 0 8.735-7.474 13.418-12.878 13.418-.99 0-1.801-.18-2.611-.45v.901c2.431 1.26 4.863 1.801 7.294 1.801 8.015 0 15.219-6.484 15.219-15.31 0-8.465-6.844-15.309-15.309-15.309H25Zm188.663 26.836h9.996c2.792 0 4.683 2.252 5.403 6.304h.901v-14.499h-.901c-.63 4.053-2.611 6.304-5.403 6.304h-9.996v-23.054c16.03 0 19.092.271 21.703 1.982 1.981 1.26 2.702 2.701 4.503 8.735h.9v-12.608h-40.434v.901c3.873 0 6.304 2.071 6.304 5.403v40.524c0 3.332-2.431 5.404-6.304 5.404v.9h41.335V154.35h-.901c-1.53 5.763-2.161 7.474-3.422 9.005-2.431 3.062-5.403 3.512-23.684 3.512v-24.405Zm53.492-24.945c6.844 0 12.428 5.494 12.428 12.158 0 7.114-5.313 12.967-15.76 12.967v.901c7.565 0 11.617 12.518 15.67 19.632 2.341 3.782 4.322 5.583 6.303 5.583h7.745v-.9c-9.816-1.441-9.636-21.433-20.982-24.675 7.834 0 13.778-6.394 13.778-13.598 0-7.745-6.214-13.959-13.869-13.959h-24.854v.901c3.872 0 6.303 2.071 6.303 5.403v40.524c0 3.332-2.431 5.404-6.303 5.404v.9h19.631v-.9c-3.872 0-6.303-2.072-6.303-5.404v-44.937h6.213Zm175.876 21.433c2.521 4.413 3.782 9.096 3.782 14.139v9.365c0 3.332-2.431 5.404-6.304 5.404v.9h19.632v-.9c-3.872 0-6.304-2.072-6.304-5.404v-17.29c0-1.081.361-2.431.901-3.422l12.878-19.812c2.071-3.242 4.682-5.403 7.384-5.403v-.901h-12.878v.901c2.792 0 4.323.99 4.323 2.611 0 .811-.36 1.711-1.081 2.792l-12.607 19.452-11.707-19.452c-.631-.991-.991-1.981-.991-2.702 0-1.711 1.621-2.701 4.593-2.701v-.901h-18.281v.901c2.341 0 4.593 2.341 6.484 5.403l10.176 17.02Zm-48.089 9.366h18.821l5.854 14.138c.27.631.36 1.171.36 1.801 0 2.072-1.801 3.603-4.953 3.603v.9h18.281v-.9c-2.792 0-4.683-1.892-6.124-5.404l-19.541-47.728h-.901l-19.722 47.728c-1.441 3.512-3.242 5.404-5.943 5.404v.9h12.877v-.9c-3.332 0-5.223-1.621-5.223-3.873 0-.45.09-.99.36-1.531l5.854-14.138Zm-283.31-6.124c0 17.291-8.375 25.576-17.2 25.576-8.826 0-17.201-8.285-17.201-25.576 0-17.29 8.375-25.575 17.201-25.575 8.825 0 17.2 8.285 17.2 25.575Zm284.03 4.233 8.736-21.073 8.645 21.073h-17.381Zm-.17-54.451-3.097-7.529c-.121-.304-.182-.577-.182-.82 0-.637.425-1.002 1.214-1.002v-.303h-5.312v.303c.789 0 1.548.79 1.973 1.822l3.461 8.409c.243.607.395 1.336.395 2.064 0 2.217-1.336 3.765-2.763 3.765-.88 0-1.548-.455-1.943-1.245-.273.547-.364.881-.364 1.275 0 1.123.668 1.822 1.7 1.822 2.641 0 4.705-6.467 5.221-7.833l3.249-8.257c.455-1.184 1.032-1.822 1.821-1.822v-.303h-3.643v.303c.759 0 1.397.365 1.397 1.124 0 .212-.061.425-.152.698l-2.975 7.529Zm-161.354 5.859.152.273c1.7-.607 2.732-2.004 2.732-3.643 0-1.427-.698-2.429-1.67-2.429-.759 0-1.366.608-1.366 1.367 0 .637.486.85.941 1.062.395.213.789.425.789 1.002 0 .729-.637 1.7-1.578 2.368Zm78.263-15.817c-3.461 0-5.768 2.55-5.768 6.375 0 3.826 2.307 6.376 5.768 6.376s5.768-2.55 5.768-6.376c0-3.825-2.307-6.375-5.768-6.375Zm-43.533 0c-3.461 0-5.768 2.55-5.768 6.375 0 3.826 2.307 6.376 5.768 6.376 3.46 0 5.768-2.55 5.768-6.376 0-3.825-2.308-6.375-5.768-6.375Zm104.644 11.111c0 .972.79 1.64 1.943 1.64 1.093 0 2.125-.577 2.581-1.488l-.243-.182c-.334.455-.941.759-1.397.759-.485 0-.758-.334-.758-.941v-7.377c0-2.247-1.549-3.522-4.251-3.522-2.307 0-4.493 1.002-4.493 3.097 0 1.032.729 1.609 1.913 1.609.334 0 .668-.061.88-.152-.607-.455-.91-1.123-.91-1.822 0-1.092.759-2.185 2.276-2.185 1.518 0 2.459 1.093 2.459 2.61 0 3.886-7.225 1.913-7.225 6.588 0 1.67 1.579 3.006 3.582 3.006 1.367 0 2.884-.911 3.643-2.156v.516Zm67.881-11.111c-3.46 0-5.768 2.55-5.768 6.375 0 3.826 2.308 6.376 5.768 6.376 3.461 0 5.769-2.55 5.769-6.376 0-3.825-2.308-6.375-5.769-6.375Zm-325.5 11.111c0 .972.789 1.64 1.942 1.64 1.093 0 2.126-.577 2.581-1.488l-.243-.182c-.334.455-.941.759-1.396.759-.486 0-.759-.334-.759-.941v-7.377c0-2.247-1.549-3.522-4.251-3.522-2.307 0-4.493 1.002-4.493 3.097 0 1.032.729 1.609 1.913 1.609.334 0 .668-.061.88-.152-.607-.455-.91-1.123-.91-1.822 0-1.092.759-2.185 2.277-2.185 1.517 0 2.459 1.093 2.459 2.61 0 3.886-7.226 1.913-7.226 6.588 0 1.67 1.579 3.006 3.583 3.006 1.366 0 2.884-.911 3.643-2.156v.516Zm21.25-6.496h8.288c0-2.733-2.034-4.615-5.009-4.615-3.491 0-5.768 2.49-5.768 6.375 0 3.947 2.277 6.376 5.95 6.376 2.186 0 3.704-1.063 4.584-3.127l-.273-.122c-1.002 1.518-2.277 2.308-3.673 2.308-2.49 0-4.19-2.338-4.19-5.768 0-.486.031-.972.091-1.427Zm285.125-7.347v15.483h.303c.304-.638.82-1.093 1.579-1.427.941.911 2.246 1.427 3.673 1.427 3.4 0 5.677-2.641 5.677-6.618 0-3.734-1.852-6.133-4.705-6.133-1.943 0-3.704 1.215-4.402 3.036v-9.715c-1.093.638-2.672 1.215-3.947 1.215v.303c1.215 0 1.822.79 1.822 2.429Zm44.444 7.347H475c0-2.733-2.034-4.615-5.009-4.615-3.491 0-5.768 2.49-5.768 6.375 0 3.947 2.277 6.376 5.95 6.376 2.186 0 3.704-1.063 4.584-3.127l-.273-.122c-1.002 1.518-2.277 2.308-3.673 2.308-2.49 0-4.19-2.338-4.19-5.768 0-.486.03-.972.091-1.427Zm-279.417 6.77-.212-.183c-.456.456-1.215.759-1.913.759-1.245 0-1.943-1.001-1.943-2.793v-8.318h3.491v-.546h-3.491v-3.916h-.304c-.151.91-.516 1.76-1.032 2.489-.668.911-1.548 1.518-2.459 1.761v.212h1.67v8.683c0 2.216.941 3.218 3.097 3.218 1.457 0 2.519-.456 3.096-1.366Zm115.635-2.277V75.337c-1.093.638-2.672 1.215-3.947 1.215v.303c1.214 0 1.821.79 1.821 2.429v3.947c-.91-.79-2.125-1.215-3.46-1.215-3.4 0-5.647 2.672-5.647 6.679 0 3.643 1.852 6.072 4.675 6.072 1.943 0 3.734-1.215 4.432-3.036v.911c0 .637.122 1.487.304 2.125l3.643-.516v-.304c-1.366-.243-1.821-.911-1.821-2.823Zm-89.011-4.493h8.288c0-2.733-2.034-4.615-5.009-4.615-3.491 0-5.768 2.49-5.768 6.375 0 3.947 2.277 6.376 5.95 6.376 2.186 0 3.704-1.063 4.584-3.127l-.273-.122c-1.002 1.518-2.277 2.308-3.673 2.308-2.49 0-4.19-2.338-4.19-5.768 0-.486.031-.972.091-1.427Zm17.699 6.77-.212-.183c-.456.456-1.215.759-1.913.759-1.245 0-1.943-1.001-1.943-2.793v-8.318h3.491v-.546h-3.491v-3.916h-.303c-.152.91-.517 1.76-1.033 2.489-.668.911-1.548 1.518-2.459 1.761v.212h1.67v8.683c0 2.216.941 3.218 3.097 3.218 1.457 0 2.519-.456 3.096-1.366Zm179.69-6.77h8.288c0-2.733-2.034-4.615-5.009-4.615-3.491 0-5.768 2.49-5.768 6.375 0 3.947 2.277 6.376 5.95 6.376 2.186 0 3.704-1.063 4.584-3.127l-.273-.122c-1.002 1.518-2.277 2.308-3.673 2.308-2.49 0-4.19-2.338-4.19-5.768 0-.486.031-.972.091-1.427Zm-245.476 7.832h.303c0-.607.274-.759.759-.759.82 0 2.55 1.063 4.554 1.063 3.431 0 5.616-2.216 5.616-5.647 0-4.979-9.168-4.888-9.168-9.866 0-1.275 1.488-2.368 3.249-2.368 2.155 0 3.764 1.335 4.705 3.886h.304v-4.22h-.304c0 .607-.273.85-.759.85-.88 0-1.487-1.154-3.946-1.154-3.006 0-5.01 2.034-5.01 5.04 0 5.009 9.169 4.796 9.169 9.866 0 1.609-1.731 2.975-3.856 2.975-2.55 0-4.766-1.639-5.313-4.554h-.303v4.888Zm194.292-15.786v13.661c0 1.123-.819 1.822-2.125 1.822v.303h6.618v-.303c-1.305 0-2.125-.699-2.125-1.822V78.677c0-1.123.82-1.822 2.125-1.822v-.303h-2.701c-.911 0-1.792.516-2.095 1.214l-5.799 13.57-6.405-13.57c-.304-.698-1.184-1.214-2.034-1.214h-2.823v.303c1.305 0 2.125.699 2.125 1.852v13.631c0 1.123-.82 1.822-2.125 1.822v.303h4.887v-.303c-1.305 0-2.125-.699-2.125-1.822V78.707l7.468 16.06h.274l6.86-16.09Zm-158.5 7.954h8.288c0-2.733-2.034-4.615-5.009-4.615-3.491 0-5.768 2.49-5.768 6.375 0 3.947 2.277 6.376 5.95 6.376 2.186 0 3.704-1.063 4.584-3.127l-.273-.122c-1.002 1.518-2.277 2.308-3.673 2.308-2.49 0-4.19-2.338-4.19-5.768 0-.486.03-.972.091-1.427Zm-53.096-.972v6.679c0 1.002-.82 1.822-1.822 1.822v.303h5.768v-.303c-1.002 0-1.821-.82-1.821-1.822v-4.857c0-2.49 1.214-4.068 2.55-4.068.941 0 1.548.728 1.548 1.882 0 .152 0 .334-.03.516 1.032-.546 1.427-1.184 1.427-2.004 0-1.001-.82-1.791-1.913-1.791-1.457 0-2.884 1.215-3.582 3.036v-3.339c-1.093.637-2.672 1.214-3.947 1.214v.304c1.214 0 1.822.819 1.822 2.428Zm137.705-.334v7.013c0 1.002-.82 1.822-1.822 1.822v.303h5.768v-.303c-1.002 0-1.821-.82-1.821-1.822v-6.709c0-2.186-1.397-3.613-3.492-3.613-1.943 0-3.703 1.215-4.402 3.036v-3.339c-1.092.637-2.671 1.214-3.946 1.214v.304c1.214 0 1.821.789 1.821 2.428v6.679c0 1.002-.819 1.822-1.821 1.822v.303h5.768v-.303c-1.002 0-1.822-.82-1.822-1.822V87.42c0-2.489 1.609-4.493 3.583-4.493 1.336 0 2.186.911 2.186 2.398Zm43.533 0v7.013c0 1.002-.819 1.822-1.821 1.822v.303h5.768v-.303c-1.002 0-1.822-.82-1.822-1.822v-6.709c0-2.186-1.396-3.613-3.491-3.613-1.943 0-3.704 1.215-4.402 3.036v-3.339c-1.093.637-2.671 1.214-3.946 1.214v.304c1.214 0 1.821.789 1.821 2.428v6.679c0 1.002-.82 1.822-1.821 1.822v.303h5.768v-.303c-1.002 0-1.822-.82-1.822-1.822V87.42c0-2.489 1.609-4.493 3.582-4.493 1.336 0 2.186.911 2.186 2.398Zm50.516.334v6.679c0 1.002-.819 1.822-1.821 1.822v.303h5.768v-.303c-1.002 0-1.822-.82-1.822-1.822v-4.857c0-2.49 1.215-4.068 2.55-4.068.942 0 1.549.728 1.549 1.882 0 .152 0 .334-.031.516 1.033-.546 1.427-1.184 1.427-2.004 0-1.001-.819-1.791-1.912-1.791-1.458 0-2.884 1.215-3.583 3.036v-3.339c-1.092.637-2.671 1.214-3.946 1.214v.304c1.214 0 1.821.819 1.821 2.428ZM247.89 94.463h13.297v-4.857h-.304c-.637 2.398-.941 3.036-1.7 3.521-.91.577-2.003.699-6.8.699V78.677c0-1.123.82-1.822 2.125-1.822v-.303h-6.618v.303c1.306 0 2.125.699 2.125 1.822v13.661c0 1.123-.819 1.822-2.125 1.822v.303Zm-154.736 0h8.652c2.611 0 4.706-2.095 4.706-4.705 0-2.459-1.943-4.372-4.736-4.706 2.095-.334 3.643-2.125 3.643-4.25 0-2.338-1.943-4.25-4.25-4.25h-8.015v.303c1.306 0 2.125.699 2.125 1.822v13.661c0 1.123-.819 1.822-2.125 1.822v.303Zm365.604-9.138v7.013c0 1.002-.819 1.822-1.821 1.822v.303h5.768v-.303c-1.002 0-1.822-.82-1.822-1.822v-6.709c0-2.186-1.396-3.613-3.491-3.613-1.943 0-3.703 1.215-4.402 3.036v-3.339c-1.093.637-2.671 1.214-3.946 1.214v.304c1.214 0 1.821.789 1.821 2.428v6.679c0 1.002-.819 1.822-1.821 1.822v.303h5.768v-.303c-1.002 0-1.822-.82-1.822-1.822V87.42c0-2.489 1.609-4.493 3.583-4.493 1.335 0 2.185.911 2.185 2.398Zm-268.731.334v6.679c0 1.002-.819 1.822-1.821 1.822v.303h5.768v-.303c-1.002 0-1.822-.82-1.822-1.822v-4.857c0-2.49 1.215-4.068 2.55-4.068.942 0 1.549.728 1.549 1.882 0 .152 0 .334-.031.516 1.033-.546 1.427-1.184 1.427-2.004 0-1.001-.819-1.791-1.912-1.791-1.458 0-2.884 1.215-3.583 3.036v-3.339c-1.092.637-2.671 1.214-3.946 1.214v.304c1.214 0 1.821.819 1.821 2.428ZM70.021 94.463h8.652c2.611 0 4.706-2.095 4.706-4.705 0-2.459-1.943-4.372-4.736-4.706 2.095-.334 3.643-2.125 3.643-4.25 0-2.338-1.943-4.25-4.25-4.25h-8.015v.303c1.306 0 2.125.699 2.125 1.822v13.661c0 1.123-.819 1.822-2.125 1.822v.303ZM51.29 81.136c0-2.763-2.307-4.888-5.312-4.888-2.793 0-4.645 1.852-4.645 4.675 0 1.336.668 2.216 1.7 2.216.728 0 1.457-.455 1.943-1.183-1.397 0-2.308-.851-2.308-2.186 0-1.64 1.336-2.975 2.976-2.975 1.882 0 3.096 1.7 3.096 4.31 0 5.07-5.343 9.32-8.561 13.055v.303h11.536l.607-4.25h-.303c-.273 1.427-2.277 2.429-4.857 2.429h-4.676c.274-.274.334-.334 1.883-1.7 5.009-4.433 6.921-7.135 6.921-9.806Zm12.326 11.202v-16.09h-.304l-4.766 2.763.152.273c.728-.213 1.275-.304 1.7-.304.759 0 1.093.304 1.093 1.002v12.356c0 1.002-.82 1.822-1.822 1.822v.303h5.768v-.303c-1.002 0-1.821-.82-1.821-1.822Zm341.712 0V75.337c-1.093.638-2.672 1.215-3.947 1.215v.303c1.215 0 1.822.79 1.822 2.429v13.054c0 1.002-.82 1.822-1.822 1.822v.303h5.768v-.303c-1.001 0-1.821-.82-1.821-1.822ZM36.111 81.136c0-2.763-2.307-4.888-5.313-4.888-2.793 0-4.644 1.852-4.644 4.675 0 1.336.667 2.216 1.7 2.216.728 0 1.457-.455 1.943-1.183-1.397 0-2.308-.851-2.308-2.186 0-1.64 1.336-2.975 2.975-2.975 1.883 0 3.097 1.7 3.097 4.31 0 5.07-5.343 9.32-8.561 13.055v.303h11.536l.607-4.25h-.303c-.274 1.427-2.277 2.429-4.858 2.429h-4.675c.273-.274.334-.334 1.882-1.7 5.01-4.433 6.922-7.135 6.922-9.806Zm88.676 11.202V75.337c-1.092.638-2.671 1.215-3.946 1.215v.303c1.002 0 1.821.516 1.821 2.429v13.054c0 1.002-.819 1.822-1.821 1.822v.303h5.768v-.303c-1.002 0-1.822-.82-1.822-1.822Zm4.008-9.715c.607 0 .971.334.971.759 0 .334-.182.699-.637 1.063l-3.734 3.036 3.491 4.857c.425.577.546.789.546 1.093 0 .364-.212.729-.85.729v.303h5.617v-.303c-.942 0-1.974-.759-2.793-1.822l-4.038-5.768 2.611-2.125c1.153-.941 2.671-1.822 3.612-1.822v-.303h-4.796v.303Zm183.606-.06c2.065 0 3.4 2.277 3.4 5.828 0 3.552-1.335 5.829-3.4 5.829-2.064 0-3.4-2.277-3.4-5.829 0-3.551 1.336-5.828 3.4-5.828Zm-43.533 0c2.064 0 3.4 2.277 3.4 5.828 0 3.552-1.336 5.829-3.4 5.829-2.065 0-3.4-2.277-3.4-5.829 0-3.551 1.335-5.828 3.4-5.828Zm172.525 0c2.065 0 3.401 2.277 3.401 5.828 0 3.552-1.336 5.829-3.401 5.829-2.064 0-3.4-2.277-3.4-5.829 0-3.551 1.336-5.828 3.4-5.828Zm-17 10.321V87.42c0-2.489 1.609-4.493 3.582-4.493 2.004 0 3.248 2.034 3.248 5.373 0 3.613-1.457 5.768-3.885 5.768-1.124 0-2.247-.455-2.945-1.184Zm-55.981-1.244c0-2.641 3.309-2.915 5.1-4.615v4.797c-.819 1.336-1.851 2.125-2.975 2.125-1.275 0-2.125-.941-2.125-2.307Zm-257.62 0c0-2.641 3.309-2.915 5.101-4.615v4.797c-.82 1.336-1.852 2.125-2.976 2.125-1.275 0-2.125-.941-2.125-2.307Zm190.012-7.742v5.465c0 2.489-1.669 4.493-3.612 4.493-2.004 0-3.218-2.034-3.218-5.373 0-3.613 1.457-5.769 3.886-5.769 1.123 0 2.246.456 2.944 1.184ZM75.486 85.052v.304h1.335c2.368 0 4.281 1.912 4.281 4.28 0 2.307-1.913 4.19-4.281 4.19h-2.307V77.189h1.518c2.186 0 3.977 1.761 3.977 3.886 0 2.216-1.791 3.977-3.977 3.977h-.546Zm23.133 0v.304h1.335c2.368 0 4.281 1.912 4.281 4.28 0 2.307-1.913 4.19-4.281 4.19h-2.307V77.189h1.518c2.186 0 3.977 1.761 3.977 3.886 0 2.216-1.791 3.977-3.977 3.977h-.546ZM411.4 86.084c.485-2.186 1.7-3.521 3.187-3.521 1.609 0 2.763 1.487 2.763 3.521h-5.95Zm-197.39 0c.486-2.186 1.7-3.521 3.188-3.521 1.609 0 2.763 1.487 2.763 3.521h-5.951Zm-12.295 0c.486-2.186 1.7-3.521 3.188-3.521 1.609 0 2.762 1.487 2.762 3.521h-5.95Zm-64.481 0c.486-2.186 1.7-3.521 3.188-3.521 1.609 0 2.763 1.487 2.763 3.521h-5.951Zm329.569 0c.486-2.186 1.7-3.521 3.188-3.521 1.609 0 2.762 1.487 2.762 3.521h-5.95ZM456.102 60.42h.726c.364-1.091.8-1.454 1.381-1.454 1.527 0 3.417 2.18 7.342 2.18 5.161 0 9.449-4.215 9.449-9.303 0-9.086-15.119-8.868-15.119-15.628 0-2.326 2.254-4.288 4.87-4.288 3.126 0 5.961 2.689 7.705 7.414h.727v-7.996h-.727c-.363 1.09-.727 1.527-1.236 1.527-1.381 0-2.834-2.254-6.396-2.254-4.652 0-8.504 3.707-8.504 8.286 0 9.086 15.191 8.868 15.191 15.773 0 2.762-2.689 5.161-5.888 5.161-3.925 0-7.123-3.271-8.795-8.868h-.726v9.45Zm-118.77-29.802c-8.286 0-13.81 6.106-13.81 15.264 0 9.159 5.524 15.264 13.81 15.264 8.287 0 13.811-6.105 13.811-15.264 0-9.158-5.524-15.264-13.811-15.264ZM37.789 16.808h-.069c-7.196 0-11.993 4.87-11.993 12.066 0 11.993 21.951 11.484 21.951 23.623 0 3.852-4.143 7.123-9.231 7.123-6.106 0-11.412-3.925-12.72-10.903H25V60.42h.727c0-1.454.654-1.818 1.817-1.818 1.963 0 6.106 2.544 10.903 2.544 8.213 0 13.447-5.306 13.447-13.519 0-5.775-5.151-8.701-10.461-11.537l-1.029-.549c-5.311-2.837-10.461-5.763-10.461-11.537 0-3.053 3.561-5.67 7.777-5.67 5.161 0 9.013 3.198 11.266 9.304h.727V17.535h-.727c0 1.453-.654 2.035-1.817 2.035-2.099 0-3.55-2.741-9.38-2.762Zm61.424 24.859h19.843c0-6.542-4.87-11.049-11.993-11.049-8.359 0-13.811 5.96-13.811 15.264 0 9.45 5.452 15.264 14.247 15.264 5.233 0 8.867-2.544 10.975-7.486l-.654-.291c-2.398 3.634-5.451 5.524-8.795 5.524-5.96 0-10.03-5.597-10.03-13.81 0-1.163.072-2.326.218-3.416Zm79.736-11.049c-8.286 0-13.81 6.106-13.81 15.264 0 9.159 5.524 15.264 13.81 15.264 8.287 0 13.811-6.105 13.811-15.264 0-9.158-5.524-15.264-13.811-15.264Zm252.294 11.049h19.843c0-6.542-4.87-11.049-11.993-11.049-8.359 0-13.81 5.96-13.81 15.264 0 9.45 5.451 15.264 14.246 15.264 5.234 0 8.868-2.544 10.976-7.486l-.654-.291c-2.399 3.634-5.452 5.524-8.795 5.524-5.961 0-10.031-5.597-10.031-13.81 0-1.163.073-2.326.218-3.416Zm-219.585-9.74c3.344 0 6.033 2.326 6.033 5.233 0 .727-.145 1.381-.509 1.89.654.218 1.236.363 1.672.363 1.744 0 2.907-1.017 2.907-2.616 0-3.489-4.433-6.179-10.103-6.179-8.359 0-13.81 5.96-13.81 15.264 0 9.45 5.451 15.264 14.246 15.264 5.234 0 8.868-2.544 10.976-7.486l-.654-.291c-2.399 3.634-5.452 5.524-8.795 5.524-5.961 0-10.031-5.597-10.031-13.81 0-7.632 3.343-13.156 8.068-13.156Zm23.332 23.405V14.627c-2.616 1.527-6.396 2.908-9.449 2.908v.727c2.399 0 4.361 1.235 4.361 5.814v31.256c0 2.398-1.962 4.361-4.361 4.361v.727h13.81v-.727c-2.398 0-4.361-1.963-4.361-4.361Zm9.595-23.26c1.454 0 2.326.8 2.326 1.817 0 .8-.436 1.672-1.527 2.544l-8.94 7.269 8.359 11.63c1.018 1.381 1.308 1.889 1.308 2.616 0 .872-.509 1.745-2.035 1.745v.727h13.447v-.727c-2.253 0-4.725-1.817-6.687-4.361l-9.667-13.811 6.251-5.088c2.762-2.253 6.396-4.361 8.649-4.361v-.727h-11.484v.727ZM80.169 38.541v16.791c0 2.398-1.963 4.361-4.361 4.361v.727h13.81v-.727c-2.399 0-4.361-1.963-4.361-4.361V39.268c0-5.234-3.344-8.65-8.359-8.65-4.652 0-8.868 2.908-10.54 7.269v-23.26c-2.616 1.527-6.396 2.908-9.449 2.908v.727c2.908 0 4.361 1.889 4.361 5.814v31.256c0 2.398-1.962 4.361-4.361 4.361v.727H70.72v-.727c-2.399 0-4.362-1.963-4.362-4.361V43.556c0-5.96 3.853-10.757 8.577-10.757 3.199 0 5.234 2.18 5.234 5.742Zm319.455 5.015c0-5.815 3.926-10.757 8.432-10.757 2.762 0 4.143 2.108 4.143 5.742v16.791c0 2.398-1.962 4.361-4.361 4.361v.727h13.81v-.727c-2.398 0-4.361-1.963-4.361-4.361V39.268c0-5.379-2.762-8.65-7.341-8.65-4.434 0-8.941 3.126-10.394 7.414 0-4.579-3.198-7.414-7.342-7.414-4.215 0-8.649 2.908-10.248 7.269v-7.996c-2.617 1.527-6.397 2.908-9.449 2.908v.727c2.907 0 4.361 1.89 4.361 5.815v15.991c0 2.398-1.963 4.361-4.361 4.361v.727h13.81v-.727c-2.399 0-4.361-1.963-4.361-4.361V43.556c0-5.887 3.925-10.757 8.431-10.757 2.762 0 4.143 2.108 4.143 5.742v16.791c0 2.398-1.962 4.361-4.361 4.361v.727h13.811v-.727c-2.399 0-4.362-1.963-4.362-4.361V43.556ZM156.78 55.332V14.627c-2.617 1.527-6.396 2.908-9.449 2.908v.727c2.907 0 4.361 1.889 4.361 5.814v31.256c0 2.398-1.963 4.361-4.361 4.361v.727h13.81v-.727c-2.398 0-4.361-1.963-4.361-4.361Zm207.955 0V14.627c-2.617 1.527-6.396 2.908-9.449 2.908v.727c2.907 0 4.361 1.889 4.361 5.814v31.256c0 2.398-1.962 4.361-4.361 4.361v.727h13.81v-.727c-2.398 0-4.361-1.963-4.361-4.361ZM126.47 39.341v15.991c0 2.398-1.963 4.361-4.361 4.361v.727h13.81v-.727c-2.399 0-4.361-1.963-4.361-4.361v-11.63c0-5.961 2.907-9.74 6.106-9.74 2.253 0 3.707 1.744 3.707 4.506 0 .364 0 .8-.073 1.236 2.471-1.308 3.416-2.835 3.416-4.797 0-2.399-1.962-4.289-4.579-4.289-3.489 0-6.905 2.908-8.577 7.269v-7.996c-2.617 1.527-6.396 2.908-9.449 2.908v.727c2.907 0 4.361 1.962 4.361 5.815Zm160.927-.146h21.661v16.137c0 2.689-1.963 4.361-5.089 4.361v.727h15.846v-.727c-3.125 0-5.088-1.672-5.088-4.361V22.623c0-2.69 1.963-4.361 5.088-4.361v-.727h-15.846v.727c3.126 0 5.089 1.671 5.089 4.361v15.046h-21.661V22.623c0-2.69 1.963-4.361 5.088-4.361v-.727h-15.846v.727c3.126 0 5.089 1.671 5.089 4.361v32.709c0 2.689-1.963 4.361-5.089 4.361v.727h15.846v-.727c-3.125 0-5.088-1.672-5.088-4.361V39.195Zm49.935-7.268c4.943 0 8.141 5.451 8.141 13.955 0 8.505-3.198 13.956-8.141 13.956-4.942 0-8.14-5.451-8.14-13.956 0-8.504 3.198-13.955 8.14-13.955Zm-158.383 0c4.943 0 8.141 5.451 8.141 13.955 0 8.505-3.198 13.956-8.141 13.956-4.942 0-8.141-5.451-8.141-13.956 0-8.504 3.199-13.955 8.141-13.955Zm252.512 8.431c1.163-5.233 4.07-8.431 7.632-8.431 3.852 0 6.614 3.561 6.614 8.431h-14.246Zm-332.03 0c1.163-5.233 4.07-8.431 7.632-8.431 3.852 0 6.614 3.561 6.614 8.431H99.431Z" style="fill-rule:nonzero"/></svg>