<svg xmlns="http://www.w3.org/2000/svg" xml:space="preserve" style="fill-rule:evenodd;clip-rule:evenodd;stroke-linejoin:round;stroke-miterlimit:2" viewBox="0 0 700 400"><path d="M351 199h83v66.471h-83z" style="fill:#89838d" transform="matrix(8.43373 0 0 6.01766 -2960.24 -1197.51)"/><path d="M.1-.08C.1-.03.06 0 .06 0h.42l.04-.16H.51s-.06.13-.2.13H.185v-.55c0-.05.04-.08.04-.08H.06s.04.03.04.08v.5Z" style="fill:#231f20;fill-rule:nonzero" transform="matrix(16 0 0 16 407.333 180)"/><path d="M.28-.49c-.138 0-.24.1-.24.25s.102.25.24.25.24-.1.24-.25S.418-.49.28-.49Zm-.02.03c.083 0 .17.11.17.24s-.047.2-.13.2S.13-.13.13-.26s.047-.2.13-.2Z" style="fill:#231f20;fill-rule:nonzero" transform="matrix(16 0 0 16 416.293 180)"/><path d="M.18-.42v-.06H.06S.1-.45.1-.4v.32C.1-.03.06 0 .06 0h.16S.18-.03.18-.08v-.24c0-.082.032-.13.062-.13.02 0 .04.022.048.07l.09-.05a.105.105 0 0 0-.095-.06.113.113 0 0 0-.105.07Z" style="fill:#231f20;fill-rule:nonzero" transform="matrix(16 0 0 16 425.253 180)"/><path d="M.13-.193.39-.28c.036-.012.051-.038.051-.067C.441-.41.371-.49.265-.49c-.129 0-.225.1-.225.25s.096.25.225.25A.218.218 0 0 0 .48-.16H.47a.167.167 0 0 1-.158.115.193.193 0 0 1-.182-.148ZM.123-.225A.315.315 0 0 1 .12-.269c0-.125.075-.191.143-.191.063 0 .094.046.094.091a.086.086 0 0 1-.056.084c-.166.058-.177.06-.178.06Z" style="fill:#231f20;fill-rule:nonzero" transform="matrix(16 0 0 16 431.013 180)"/><path d="M.18-.383V-.48H.06S.1-.45.1-.4v.32C.1-.03.06 0 .06 0h.16S.18-.03.18-.08v-.2c0-.11.07-.17.135-.17.055 0 .105.03.105.13v.24C.42-.03.38 0 .38 0h.16S.5-.03.5-.08v-.2c0-.11.07-.17.135-.17.055 0 .105.03.105.13v.24C.74-.03.7 0 .7 0h.16S.82-.03.82-.08v-.24c0-.12-.07-.17-.15-.17a.19.19 0 0 0-.175.119A.14.14 0 0 0 .35-.49a.19.19 0 0 0-.17.107Z" style="fill:#231f20;fill-rule:nonzero" transform="matrix(16 0 0 16 438.693 180)"/><path d="M.18-.48H.06S.1-.45.1-.4v.32C.1-.03.06 0 .06 0h.16S.18-.03.18-.08v-.4Zm-.1-.175c0 .03.025.055.055.055S.19-.625.19-.655A.055.055 0 0 0 .135-.71a.055.055 0 0 0-.055.055Z" style="fill:#231f20;fill-rule:nonzero" transform="matrix(16 0 0 16 457.413 180)"/><path d="M.18-.38v-.1H.06S.1-.45.1-.4v.5C.1.15.06.18.06.18h.16S.18.15.18.1v-.175A.174.174 0 0 0 .33.01c.112 0 .21-.119.21-.26 0-.141-.078-.24-.19-.24-.068 0-.131.044-.17.11Zm0 .255v-.2C.205-.388.252-.43.305-.43c.08 0 .145.086.145.205S.385-.02.305-.02c-.053 0-.1-.042-.125-.105Z" style="fill:#231f20;fill-rule:nonzero" transform="matrix(16 0 0 16 461.893 180)"/><path d="M.06-.33c0 .14.26.12.26.24 0 .045-.048.07-.103.07C.151-.02.073-.056.05-.14H.04l.022.12c.056.021.106.03.147.03C.322.01.38-.073.38-.15c0-.14-.26-.12-.26-.24 0-.045.039-.07.084-.07.053 0 .115.034.136.11h.01v-.11a.277.277 0 0 0-.13-.03c-.076 0-.16.049-.16.16Z" style="fill:#231f20;fill-rule:nonzero" transform="matrix(16 0 0 16 471.173 180)"/><path d="M.42-.097v.027c0 .06.07.08.12.08C.54.01.5-.02.5-.07v-.41H.38s.04.03.04.08v.2c0 .11-.07.17-.135.17C.23-.03.18-.06.18-.16v-.32H.06S.1-.45.1-.4v.24c0 .12.07.17.15.17a.19.19 0 0 0 .17-.107Z" style="fill:#231f20;fill-rule:nonzero" transform="matrix(16 0 0 16 477.893 180)"/><path d="M.18-.383V-.48H.06S.1-.45.1-.4v.32C.1-.03.06 0 .06 0h.16S.18-.03.18-.08v-.2c0-.11.07-.17.135-.17.055 0 .105.03.105.13v.24C.42-.03.38 0 .38 0h.16S.5-.03.5-.08v-.2c0-.11.07-.17.135-.17.055 0 .105.03.105.13v.24C.74-.03.7 0 .7 0h.16S.82-.03.82-.08v-.24c0-.12-.07-.17-.15-.17a.19.19 0 0 0-.175.119A.14.14 0 0 0 .35-.49a.19.19 0 0 0-.17.107Z" style="fill:#231f20;fill-rule:nonzero" transform="matrix(16 0 0 16 487.493 180)"/><path d="M.4-.405A.174.174 0 0 0 .25-.49c-.112 0-.21.119-.21.26 0 .141.078.24.19.24C.298.01.361-.034.4-.1v.03c0 .06.07.08.12.08 0 0-.04-.03-.04-.08V-.7H.36s.04.03.04.08v.215Zm0 .05v.2C.375-.092.328-.05.275-.05.195-.05.13-.136.13-.255S.195-.46.275-.46c.053 0 .1.042.125.105Z" style="fill:#231f20;fill-rule:nonzero" transform="matrix(16 0 0 16 506.213 180)"/><path d="M.28-.49c-.138 0-.24.1-.24.25s.102.25.24.25.24-.1.24-.25S.418-.49.28-.49Zm-.02.03c.083 0 .17.11.17.24s-.047.2-.13.2S.13-.13.13-.26s.047-.2.13-.2Z" style="fill:#231f20;fill-rule:nonzero" transform="matrix(16 0 0 16 515.493 180)"/><path d="M.18-.7H.06s.04.03.04.08v.54C.1-.03.06 0 .06 0h.16S.18-.03.18-.08V-.7Z" style="fill:#231f20;fill-rule:nonzero" transform="matrix(16 0 0 16 524.453 180)"/><path d="M.28-.49c-.138 0-.24.1-.24.25s.102.25.24.25.24-.1.24-.25S.418-.49.28-.49Zm-.02.03c.083 0 .17.11.17.24s-.047.2-.13.2S.13-.13.13-.26s.047-.2.13-.2Z" style="fill:#231f20;fill-rule:nonzero" transform="matrix(16 0 0 16 528.933 180)"/><path d="M.18-.42v-.06H.06S.1-.45.1-.4v.32C.1-.03.06 0 .06 0h.16S.18-.03.18-.08v-.24c0-.082.032-.13.062-.13.02 0 .04.022.048.07l.09-.05a.105.105 0 0 0-.095-.06.113.113 0 0 0-.105.07Z" style="fill:#231f20;fill-rule:nonzero" transform="matrix(16 0 0 16 537.893 180)"/><path d="M.06-.33c0 .14.26.12.26.24 0 .045-.048.07-.103.07C.151-.02.073-.056.05-.14H.04l.022.12c.056.021.106.03.147.03C.322.01.38-.073.38-.15c0-.14-.26-.12-.26-.24 0-.045.039-.07.084-.07.053 0 .115.034.136.11h.01v-.11a.277.277 0 0 0-.13-.03c-.076 0-.16.049-.16.16Z" style="fill:#231f20;fill-rule:nonzero" transform="matrix(16 0 0 16 547.653 180)"/><path d="M.18-.48H.06S.1-.45.1-.4v.32C.1-.03.06 0 .06 0h.16S.18-.03.18-.08v-.4Zm-.1-.175c0 .03.025.055.055.055S.19-.625.19-.655A.055.055 0 0 0 .135-.71a.055.055 0 0 0-.055.055Z" style="fill:#231f20;fill-rule:nonzero" transform="matrix(16 0 0 16 554.373 180)"/><path d="M.08-.09c0 .073.043.1.09.1.053 0 .1-.038.11-.08H.27c-.008.022-.04.045-.067.045C.18-.025.16-.042.16-.09v-.36h.1v-.03h-.1V-.6l-.08.08v.04H.04v.03h.04v.36Z" style="fill:#231f20;fill-rule:nonzero" transform="matrix(16 0 0 16 558.853 180)"/><path d="M.34-.093v.038c0 .036.036.065.08.065A.08.08 0 0 0 .5-.06H.49c-.008.025-.026.038-.041.038C.433-.022.42-.035.42-.06v-.26c0-.119-.07-.17-.15-.17-.088 0-.177.05-.19.12l.09.05a.172.172 0 0 1-.008-.048c0-.058.04-.092.082-.092.047 0 .096.042.096.14v.05c-.08.01-.3-.001-.3.15 0 .087.062.13.149.13A.17.17 0 0 0 .34-.093Zm0-.147v.04c0 .102-.068.18-.12.18-.04 0-.09-.03-.09-.1 0-.11.13-.11.21-.12Z" style="fill:#231f20;fill-rule:nonzero" transform="matrix(16 0 0 16 567.653 180)"/><path d="M.18-.383V-.48H.06S.1-.45.1-.4v.32C.1-.03.06 0 .06 0h.16S.18-.03.18-.08v-.2c0-.11.07-.17.135-.17.055 0 .105.03.105.13v.24C.42-.03.38 0 .38 0h.16S.5-.03.5-.08v-.2c0-.11.07-.17.135-.17.055 0 .105.03.105.13v.24C.74-.03.7 0 .7 0h.16S.82-.03.82-.08v-.24c0-.12-.07-.17-.15-.17a.19.19 0 0 0-.175.119A.14.14 0 0 0 .35-.49a.19.19 0 0 0-.17.107Z" style="fill:#231f20;fill-rule:nonzero" transform="matrix(16 0 0 16 575.653 180)"/><path d="M.13-.193.39-.28c.036-.012.051-.038.051-.067C.441-.41.371-.49.265-.49c-.129 0-.225.1-.225.25s.096.25.225.25A.218.218 0 0 0 .48-.16H.47a.167.167 0 0 1-.158.115.193.193 0 0 1-.182-.148ZM.123-.225A.315.315 0 0 1 .12-.269c0-.125.075-.191.143-.191.063 0 .094.046.094.091a.086.086 0 0 1-.056.084c-.166.058-.177.06-.178.06Z" style="fill:#231f20;fill-rule:nonzero" transform="matrix(16 0 0 16 590.373 180)"/><path d="M.08-.09c0 .073.043.1.09.1.053 0 .1-.038.11-.08H.27c-.008.022-.04.045-.067.045C.18-.025.16-.042.16-.09v-.36h.1v-.03h-.1V-.6l-.08.08v.04H.04v.03h.04v.36Z" style="fill:#231f20;fill-rule:nonzero" transform="matrix(16 0 0 16 598.053 180)"/><path d="M.065.15h.01s.11-.075.11-.17C.185-.074.151-.1.12-.1a.055.055 0 0 0-.055.055c0 .043.051.049.051.092C.116.069.065.15.065.15Z" style="fill:#231f20;fill-rule:nonzero" transform="matrix(16 0 0 16 602.853 180)"/><path d="M.46-.369A.217.217 0 0 0 .265-.49c-.129 0-.225.1-.225.25s.096.25.225.25A.218.218 0 0 0 .48-.16H.47a.167.167 0 0 1-.158.115C.218-.045.12-.125.12-.269c0-.125.075-.191.143-.191.056 0 .107.045.107.141l.09-.05Z" style="fill:#231f20;fill-rule:nonzero" transform="matrix(16 0 0 16 407.333 200)"/><path d="M.28-.49c-.138 0-.24.1-.24.25s.102.25.24.25.24-.1.24-.25S.418-.49.28-.49Zm-.02.03c.083 0 .17.11.17.24s-.047.2-.13.2S.13-.13.13-.26s.047-.2.13-.2Z" style="fill:#231f20;fill-rule:nonzero" transform="matrix(16 0 0 16 415.013 200)"/><path d="M.18-.383V-.48H.06S.1-.45.1-.4v.32C.1-.03.06 0 .06 0h.16S.18-.03.18-.08v-.2c0-.11.07-.17.135-.17.055 0 .105.03.105.13v.24C.42-.03.38 0 .38 0h.16S.5-.03.5-.08v-.24C.5-.44.43-.49.35-.49a.19.19 0 0 0-.17.107Z" style="fill:#231f20;fill-rule:nonzero" transform="matrix(16 0 0 16 423.973 200)"/><path d="M.06-.33c0 .14.26.12.26.24 0 .045-.048.07-.103.07C.151-.02.073-.056.05-.14H.04l.022.12c.056.021.106.03.147.03C.322.01.38-.073.38-.15c0-.14-.26-.12-.26-.24 0-.045.039-.07.084-.07.053 0 .115.034.136.11h.01v-.11a.277.277 0 0 0-.13-.03c-.076 0-.16.049-.16.16Z" style="fill:#231f20;fill-rule:nonzero" transform="matrix(16 0 0 16 433.573 200)"/><path d="M.13-.193.39-.28c.036-.012.051-.038.051-.067C.441-.41.371-.49.265-.49c-.129 0-.225.1-.225.25s.096.25.225.25A.218.218 0 0 0 .48-.16H.47a.167.167 0 0 1-.158.115.193.193 0 0 1-.182-.148ZM.123-.225A.315.315 0 0 1 .12-.269c0-.125.075-.191.143-.191.063 0 .094.046.094.091a.086.086 0 0 1-.056.084c-.166.058-.177.06-.178.06Z" style="fill:#231f20;fill-rule:nonzero" transform="matrix(16 0 0 16 440.293 200)"/><path d="M.08-.09c0 .073.043.1.09.1.053 0 .1-.038.11-.08H.27c-.008.022-.04.045-.067.045C.18-.025.16-.042.16-.09v-.36h.1v-.03h-.1V-.6l-.08.08v.04H.04v.03h.04v.36Z" style="fill:#231f20;fill-rule:nonzero" transform="matrix(16 0 0 16 447.973 200)"/><path d="M.13-.193.39-.28c.036-.012.051-.038.051-.067C.441-.41.371-.49.265-.49c-.129 0-.225.1-.225.25s.096.25.225.25A.218.218 0 0 0 .48-.16H.47a.167.167 0 0 1-.158.115.193.193 0 0 1-.182-.148ZM.123-.225A.315.315 0 0 1 .12-.269c0-.125.075-.191.143-.191.063 0 .094.046.094.091a.086.086 0 0 1-.056.084c-.166.058-.177.06-.178.06Z" style="fill:#231f20;fill-rule:nonzero" transform="matrix(16 0 0 16 452.773 200)"/><path d="M.08-.09c0 .073.043.1.09.1.053 0 .1-.038.11-.08H.27c-.008.022-.04.045-.067.045C.18-.025.16-.042.16-.09v-.36h.1v-.03h-.1V-.6l-.08.08v.04H.04v.03h.04v.36Z" style="fill:#231f20;fill-rule:nonzero" transform="matrix(16 0 0 16 460.453 200)"/><path d="M.42-.097v.027c0 .06.07.08.12.08C.54.01.5-.02.5-.07v-.41H.38s.04.03.04.08v.2c0 .11-.07.17-.135.17C.23-.03.18-.06.18-.16v-.32H.06S.1-.45.1-.4v.24c0 .12.07.17.15.17a.19.19 0 0 0 .17-.107Z" style="fill:#231f20;fill-rule:nonzero" transform="matrix(16 0 0 16 465.253 200)"/><path d="M.18-.42v-.06H.06S.1-.45.1-.4v.32C.1-.03.06 0 .06 0h.16S.18-.03.18-.08v-.24c0-.082.032-.13.062-.13.02 0 .04.022.048.07l.09-.05a.105.105 0 0 0-.095-.06.113.113 0 0 0-.105.07Z" style="fill:#231f20;fill-rule:nonzero" transform="matrix(16 0 0 16 474.853 200)"/><path d="M.06-.33c0 .14.26.12.26.24 0 .045-.048.07-.103.07C.151-.02.073-.056.05-.14H.04l.022.12c.056.021.106.03.147.03C.322.01.38-.073.38-.15c0-.14-.26-.12-.26-.24 0-.045.039-.07.084-.07.053 0 .115.034.136.11h.01v-.11a.277.277 0 0 0-.13-.03c-.076 0-.16.049-.16.16Z" style="fill:#231f20;fill-rule:nonzero" transform="matrix(16 0 0 16 484.613 200)"/><path d="M.34-.093v.038c0 .036.036.065.08.065A.08.08 0 0 0 .5-.06H.49c-.008.025-.026.038-.041.038C.433-.022.42-.035.42-.06v-.26c0-.119-.07-.17-.15-.17-.088 0-.177.05-.19.12l.09.05a.172.172 0 0 1-.008-.048c0-.058.04-.092.082-.092.047 0 .096.042.096.14v.05c-.08.01-.3-.001-.3.15 0 .087.062.13.149.13A.17.17 0 0 0 .34-.093Zm0-.147v.04c0 .102-.068.18-.12.18-.04 0-.09-.03-.09-.1 0-.11.13-.11.21-.12Z" style="fill:#231f20;fill-rule:nonzero" transform="matrix(16 0 0 16 491.333 200)"/><path d="M.4-.405A.174.174 0 0 0 .25-.49c-.112 0-.21.119-.21.26 0 .141.078.24.19.24C.298.01.361-.034.4-.1v.03c0 .06.07.08.12.08 0 0-.04-.03-.04-.08V-.7H.36s.04.03.04.08v.215Zm0 .05v.2C.375-.092.328-.05.275-.05.195-.05.13-.136.13-.255S.195-.46.275-.46c.053 0 .1.042.125.105Z" style="fill:#231f20;fill-rule:nonzero" transform="matrix(16 0 0 16 499.333 200)"/><path d="M.18-.48H.06S.1-.45.1-.4v.32C.1-.03.06 0 .06 0h.16S.18-.03.18-.08v-.4Zm-.1-.175c0 .03.025.055.055.055S.19-.625.19-.655A.055.055 0 0 0 .135-.71a.055.055 0 0 0-.055.055Z" style="fill:#231f20;fill-rule:nonzero" transform="matrix(16 0 0 16 508.613 200)"/><path d="M.18-.38v-.1H.06S.1-.45.1-.4v.5C.1.15.06.18.06.18h.16S.18.15.18.1v-.175A.174.174 0 0 0 .33.01c.112 0 .21-.119.21-.26 0-.141-.078-.24-.19-.24-.068 0-.131.044-.17.11Zm0 .255v-.2C.205-.388.252-.43.305-.43c.08 0 .145.086.145.205S.385-.02.305-.02c-.053 0-.1-.042-.125-.105Z" style="fill:#231f20;fill-rule:nonzero" transform="matrix(16 0 0 16 513.093 200)"/><path d="M.06-.33c0 .14.26.12.26.24 0 .045-.048.07-.103.07C.151-.02.073-.056.05-.14H.04l.022.12c.056.021.106.03.147.03C.322.01.38-.073.38-.15c0-.14-.26-.12-.26-.24 0-.045.039-.07.084-.07.053 0 .115.034.136.11h.01v-.11a.277.277 0 0 0-.13-.03c-.076 0-.16.049-.16.16Z" style="fill:#231f20;fill-rule:nonzero" transform="matrix(16 0 0 16 522.373 200)"/><path d="M.46-.369A.217.217 0 0 0 .265-.49c-.129 0-.225.1-.225.25s.096.25.225.25A.218.218 0 0 0 .48-.16H.47a.167.167 0 0 1-.158.115C.218-.045.12-.125.12-.269c0-.125.075-.191.143-.191.056 0 .107.045.107.141l.09-.05Z" style="fill:#231f20;fill-rule:nonzero" transform="matrix(16 0 0 16 529.093 200)"/><path d="M.18-.48H.06S.1-.45.1-.4v.32C.1-.03.06 0 .06 0h.16S.18-.03.18-.08v-.4Zm-.1-.175c0 .03.025.055.055.055S.19-.625.19-.655A.055.055 0 0 0 .135-.71a.055.055 0 0 0-.055.055Z" style="fill:#231f20;fill-rule:nonzero" transform="matrix(16 0 0 16 536.773 200)"/><path d="M.18-.383V-.48H.06S.1-.45.1-.4v.32C.1-.03.06 0 .06 0h.16S.18-.03.18-.08v-.2c0-.11.07-.17.135-.17.055 0 .105.03.105.13v.24C.42-.03.38 0 .38 0h.16S.5-.03.5-.08v-.24C.5-.44.43-.49.35-.49a.19.19 0 0 0-.17.107Z" style="fill:#231f20;fill-rule:nonzero" transform="matrix(16 0 0 16 541.253 200)"/><path d="M.163-.18c-.036 0-.075.038-.075.06 0 .171.355.05.355.17 0 .056-.075.086-.152.086C.215.136.137.105.137.039.137.03.139.02.142.01L.045.06c0 .082.1.13.204.13C.354.19.475.139.475.02c0-.171-.323-.05-.323-.17 0-.01.01-.018.023-.025.026.01.055.016.085.016.116 0 .194-.066.194-.166A.158.158 0 0 0 .336-.48c.019-.019.032-.025.041-.025.017 0 .028.017.045.017L.43-.489a.03.03 0 0 0 .024-.029c0-.003 0-.005-.002-.008C.449-.539.434-.55.413-.55l-.018.002a.105.105 0 0 0-.069.068.269.269 0 0 0-.066-.01c-.116 0-.194.066-.194.165 0 .067.039.119.097.145Zm.085-.29c.07 0 .12.069.12.155s-.027.137-.097.137-.119-.07-.119-.156S.179-.47.248-.47Z" style="fill:#231f20;fill-rule:nonzero" transform="matrix(16 0 0 16 550.853 200)"/><path d="M.13-.193.39-.28c.036-.012.051-.038.051-.067C.441-.41.371-.49.265-.49c-.129 0-.225.1-.225.25s.096.25.225.25A.218.218 0 0 0 .48-.16H.47a.167.167 0 0 1-.158.115.193.193 0 0 1-.182-.148ZM.123-.225A.315.315 0 0 1 .12-.269c0-.125.075-.191.143-.191.063 0 .094.046.094.091a.086.086 0 0 1-.056.084c-.166.058-.177.06-.178.06Z" style="fill:#231f20;fill-rule:nonzero" transform="matrix(16 0 0 16 563.173 200)"/><path d="M.18-.7H.06s.04.03.04.08v.54C.1-.03.06 0 .06 0h.16S.18-.03.18-.08V-.7Z" style="fill:#231f20;fill-rule:nonzero" transform="matrix(16 0 0 16 570.853 200)"/><path d="M.18-.48H.06S.1-.45.1-.4v.32C.1-.03.06 0 .06 0h.16S.18-.03.18-.08v-.4Zm-.1-.175c0 .03.025.055.055.055S.19-.625.19-.655A.055.055 0 0 0 .135-.71a.055.055 0 0 0-.055.055Z" style="fill:#231f20;fill-rule:nonzero" transform="matrix(16 0 0 16 575.333 200)"/><path d="M.08-.09c0 .073.043.1.09.1.053 0 .1-.038.11-.08H.27c-.008.022-.04.045-.067.045C.18-.025.16-.042.16-.09v-.36h.1v-.03h-.1V-.6l-.08.08v.04H.04v.03h.04v.36Z" style="fill:#231f20;fill-rule:nonzero" transform="matrix(16 0 0 16 579.813 200)"/><path d="M.18-.42v-.06H.06S.1-.45.1-.4v.32C.1-.03.06 0 .06 0h.16S.18-.03.18-.08v-.24c0-.082.032-.13.062-.13.02 0 .04.022.048.07l.09-.05a.105.105 0 0 0-.095-.06.113.113 0 0 0-.105.07Z" style="fill:#231f20;fill-rule:nonzero" transform="matrix(16 0 0 16 584.613 200)"/><path d="M.065.15h.01s.11-.075.11-.17C.185-.074.151-.1.12-.1a.055.055 0 0 0-.055.055c0 .043.051.049.051.092C.116.069.065.15.065.15Z" style="fill:#231f20;fill-rule:nonzero" transform="matrix(16 0 0 16 590.373 200)"/><path d="M.06-.33c0 .14.26.12.26.24 0 .045-.048.07-.103.07C.151-.02.073-.056.05-.14H.04l.022.12c.056.021.106.03.147.03C.322.01.38-.073.38-.15c0-.14-.26-.12-.26-.24 0-.045.039-.07.084-.07.053 0 .115.034.136.11h.01v-.11a.277.277 0 0 0-.13-.03c-.076 0-.16.049-.16.16Z" style="fill:#231f20;fill-rule:nonzero" transform="matrix(16 0 0 16 598.373 200)"/><path d="M.13-.193.39-.28c.036-.012.051-.038.051-.067C.441-.41.371-.49.265-.49c-.129 0-.225.1-.225.25s.096.25.225.25A.218.218 0 0 0 .48-.16H.47a.167.167 0 0 1-.158.115.193.193 0 0 1-.182-.148ZM.123-.225A.315.315 0 0 1 .12-.269c0-.125.075-.191.143-.191.063 0 .094.046.094.091a.086.086 0 0 1-.056.084c-.166.058-.177.06-.178.06Z" style="fill:#231f20;fill-rule:nonzero" transform="matrix(16 0 0 16 605.093 200)"/><path d="M.4-.405A.174.174 0 0 0 .25-.49c-.112 0-.21.119-.21.26 0 .141.078.24.19.24C.298.01.361-.034.4-.1v.03c0 .06.07.08.12.08 0 0-.04-.03-.04-.08V-.7H.36s.04.03.04.08v.215Zm0 .05v.2C.375-.092.328-.05.275-.05.195-.05.13-.136.13-.255S.195-.46.275-.46c.053 0 .1.042.125.105Z" style="fill:#231f20;fill-rule:nonzero" transform="matrix(16 0 0 16 612.773 200)"/><path d="M.4-.405A.174.174 0 0 0 .25-.49c-.112 0-.21.119-.21.26 0 .141.078.24.19.24C.298.01.361-.034.4-.1v.03c0 .06.07.08.12.08 0 0-.04-.03-.04-.08V-.7H.36s.04.03.04.08v.215Zm0 .05v.2C.375-.092.328-.05.275-.05.195-.05.13-.136.13-.255S.195-.46.275-.46c.053 0 .1.042.125.105Z" style="fill:#231f20;fill-rule:nonzero" transform="matrix(16 0 0 16 626.053 200)"/><path d="M.18-.48H.06S.1-.45.1-.4v.32C.1-.03.06 0 .06 0h.16S.18-.03.18-.08v-.4Zm-.1-.175c0 .03.025.055.055.055S.19-.625.19-.655A.055.055 0 0 0 .135-.71a.055.055 0 0 0-.055.055Z" style="fill:#231f20;fill-rule:nonzero" transform="matrix(16 0 0 16 635.333 200)"/><path d="M.34-.093v.038c0 .036.036.065.08.065A.08.08 0 0 0 .5-.06H.49c-.008.025-.026.038-.041.038C.433-.022.42-.035.42-.06v-.26c0-.119-.07-.17-.15-.17-.088 0-.177.05-.19.12l.09.05a.172.172 0 0 1-.008-.048c0-.058.04-.092.082-.092.047 0 .096.042.096.14v.05c-.08.01-.3-.001-.3.15 0 .087.062.13.149.13A.17.17 0 0 0 .34-.093Zm0-.147v.04c0 .102-.068.18-.12.18-.04 0-.09-.03-.09-.1 0-.11.13-.11.21-.12Z" style="fill:#231f20;fill-rule:nonzero" transform="matrix(16 0 0 16 639.813 200)"/><path d="M.18-.383V-.48H.06S.1-.45.1-.4v.32C.1-.03.06 0 .06 0h.16S.18-.03.18-.08v-.2c0-.11.07-.17.135-.17.055 0 .105.03.105.13v.24C.42-.03.38 0 .38 0h.16S.5-.03.5-.08v-.2c0-.11.07-.17.135-.17.055 0 .105.03.105.13v.24C.74-.03.7 0 .7 0h.16S.82-.03.82-.08v-.24c0-.12-.07-.17-.15-.17a.19.19 0 0 0-.175.119A.14.14 0 0 0 .35-.49a.19.19 0 0 0-.17.107Z" style="fill:#231f20;fill-rule:nonzero" transform="matrix(16 0 0 16 647.813 200)"/><path d="M.18-.383V-.48H.06S.1-.45.1-.4v.32C.1-.03.06 0 .06 0h.16S.18-.03.18-.08v-.2c0-.11.07-.17.135-.17.055 0 .105.03.105.13v.24C.42-.03.38 0 .38 0h.16S.5-.03.5-.08v-.24C.5-.44.43-.49.35-.49a.19.19 0 0 0-.17.107Z" style="fill:#231f20;fill-rule:nonzero" transform="matrix(16 0 0 16 407.333 220)"/><path d="M.28-.49c-.138 0-.24.1-.24.25s.102.25.24.25.24-.1.24-.25S.418-.49.28-.49Zm-.02.03c.083 0 .17.11.17.24s-.047.2-.13.2S.13-.13.13-.26s.047-.2.13-.2Z" style="fill:#231f20;fill-rule:nonzero" transform="matrix(16 0 0 16 416.933 220)"/><path d="M.18-.383V-.48H.06S.1-.45.1-.4v.32C.1-.03.06 0 .06 0h.16S.18-.03.18-.08v-.2c0-.11.07-.17.135-.17.055 0 .105.03.105.13v.24C.42-.03.38 0 .38 0h.16S.5-.03.5-.08v-.24C.5-.44.43-.49.35-.49a.19.19 0 0 0-.17.107Z" style="fill:#231f20;fill-rule:nonzero" transform="matrix(16 0 0 16 425.893 220)"/><path d="M.42-.097v.027c0 .06.07.08.12.08C.54.01.5-.02.5-.07v-.41H.38s.04.03.04.08v.2c0 .11-.07.17-.135.17C.23-.03.18-.06.18-.16v-.32H.06S.1-.45.1-.4v.24c0 .12.07.17.15.17a.19.19 0 0 0 .17-.107Z" style="fill:#231f20;fill-rule:nonzero" transform="matrix(16 0 0 16 435.493 220)"/><path d="M.18-.383V-.48H.06S.1-.45.1-.4v.32C.1-.03.06 0 .06 0h.16S.18-.03.18-.08v-.2c0-.11.07-.17.135-.17.055 0 .105.03.105.13v.24C.42-.03.38 0 .38 0h.16S.5-.03.5-.08v-.2c0-.11.07-.17.135-.17.055 0 .105.03.105.13v.24C.74-.03.7 0 .7 0h.16S.82-.03.82-.08v-.24c0-.12-.07-.17-.15-.17a.19.19 0 0 0-.175.119A.14.14 0 0 0 .35-.49a.19.19 0 0 0-.17.107Z" style="fill:#231f20;fill-rule:nonzero" transform="matrix(16 0 0 16 445.093 220)"/><path d="M.263-.13.146-.42a.05.05 0 0 1-.003-.015c0-.03.037-.045.037-.045H0s.045.02.06.06l.159.404-.052.122C.153.14.127.157.108.157.094.157.083.148.083.13A.08.08 0 0 1 .09.1L0 .14c.005.028.042.05.084.05S.174.167.2.106L.423-.42C.44-.46.48-.48.48-.48H.37s.026.013.026.038A.049.049 0 0 1 .39-.42l-.127.29Z" style="fill:#231f20;fill-rule:nonzero" transform="matrix(16 0 0 16 459.813 220)"/><path d="M.13-.193.39-.28c.036-.012.051-.038.051-.067C.441-.41.371-.49.265-.49c-.129 0-.225.1-.225.25s.096.25.225.25A.218.218 0 0 0 .48-.16H.47a.167.167 0 0 1-.158.115.193.193 0 0 1-.182-.148ZM.123-.225A.315.315 0 0 1 .12-.269c0-.125.075-.191.143-.191.063 0 .094.046.094.091a.086.086 0 0 1-.056.084c-.166.058-.177.06-.178.06Z" style="fill:#231f20;fill-rule:nonzero" transform="matrix(16 0 0 16 471.493 220)"/><path d="M.18-.48H.06S.1-.45.1-.4v.32C.1-.03.06 0 .06 0h.16S.18-.03.18-.08v-.4Zm-.1-.175c0 .03.025.055.055.055S.19-.625.19-.655A.055.055 0 0 0 .135-.71a.055.055 0 0 0-.055.055Z" style="fill:#231f20;fill-rule:nonzero" transform="matrix(16 0 0 16 479.173 220)"/><path d="M.18-.42v-.06H.06S.1-.45.1-.4v.32C.1-.03.06 0 .06 0h.16S.18-.03.18-.08v-.24c0-.082.032-.13.062-.13.02 0 .04.022.048.07l.09-.05a.105.105 0 0 0-.095-.06.113.113 0 0 0-.105.07Z" style="fill:#231f20;fill-rule:nonzero" transform="matrix(16 0 0 16 483.653 220)"/><path d="M.18-.383V-.48H.06S.1-.45.1-.4v.32C.1-.03.06 0 .06 0h.16S.18-.03.18-.08v-.2c0-.11.07-.17.135-.17.055 0 .105.03.105.13v.24C.42-.03.38 0 .38 0h.16S.5-.03.5-.08v-.2c0-.11.07-.17.135-.17.055 0 .105.03.105.13v.24C.74-.03.7 0 .7 0h.16S.82-.03.82-.08v-.24c0-.12-.07-.17-.15-.17a.19.19 0 0 0-.175.119A.14.14 0 0 0 .35-.49a.19.19 0 0 0-.17.107Z" style="fill:#231f20;fill-rule:nonzero" transform="matrix(16 0 0 16 489.413 220)"/><path d="M.28-.49c-.138 0-.24.1-.24.25s.102.25.24.25.24-.1.24-.25S.418-.49.28-.49Zm-.02.03c.083 0 .17.11.17.24s-.047.2-.13.2S.13-.13.13-.26s.047-.2.13-.2Z" style="fill:#231f20;fill-rule:nonzero" transform="matrix(16 0 0 16 504.133 220)"/><path d="M.4-.405A.174.174 0 0 0 .25-.49c-.112 0-.21.119-.21.26 0 .141.078.24.19.24C.298.01.361-.034.4-.1v.03c0 .06.07.08.12.08 0 0-.04-.03-.04-.08V-.7H.36s.04.03.04.08v.215Zm0 .05v.2C.375-.092.328-.05.275-.05.195-.05.13-.136.13-.255S.195-.46.275-.46c.053 0 .1.042.125.105Z" style="fill:#231f20;fill-rule:nonzero" transform="matrix(16 0 0 16 513.093 220)"/><path d="M.08-.09c0 .073.043.1.09.1.053 0 .1-.038.11-.08H.27c-.008.022-.04.045-.067.045C.18-.025.16-.042.16-.09v-.36h.1v-.03h-.1V-.6l-.08.08v.04H.04v.03h.04v.36Z" style="fill:#231f20;fill-rule:nonzero" transform="matrix(16 0 0 16 526.373 220)"/><path d="M.13-.193.39-.28c.036-.012.051-.038.051-.067C.441-.41.371-.49.265-.49c-.129 0-.225.1-.225.25s.096.25.225.25A.218.218 0 0 0 .48-.16H.47a.167.167 0 0 1-.158.115.193.193 0 0 1-.182-.148ZM.123-.225A.315.315 0 0 1 .12-.269c0-.125.075-.191.143-.191.063 0 .094.046.094.091a.086.086 0 0 1-.056.084c-.166.058-.177.06-.178.06Z" style="fill:#231f20;fill-rule:nonzero" transform="matrix(16 0 0 16 531.173 220)"/><path d="M.18-.383V-.48H.06S.1-.45.1-.4v.32C.1-.03.06 0 .06 0h.16S.18-.03.18-.08v-.2c0-.11.07-.17.135-.17.055 0 .105.03.105.13v.24C.42-.03.38 0 .38 0h.16S.5-.03.5-.08v-.2c0-.11.07-.17.135-.17.055 0 .105.03.105.13v.24C.74-.03.7 0 .7 0h.16S.82-.03.82-.08v-.24c0-.12-.07-.17-.15-.17a.19.19 0 0 0-.175.119A.14.14 0 0 0 .35-.49a.19.19 0 0 0-.17.107Z" style="fill:#231f20;fill-rule:nonzero" transform="matrix(16 0 0 16 538.853 220)"/><path d="M.18-.38v-.1H.06S.1-.45.1-.4v.5C.1.15.06.18.06.18h.16S.18.15.18.1v-.175A.174.174 0 0 0 .33.01c.112 0 .21-.119.21-.26 0-.141-.078-.24-.19-.24-.068 0-.131.044-.17.11Zm0 .255v-.2C.205-.388.252-.43.305-.43c.08 0 .145.086.145.205S.385-.02.305-.02c-.053 0-.1-.042-.125-.105Z" style="fill:#231f20;fill-rule:nonzero" transform="matrix(16 0 0 16 553.573 220)"/><path d="M.28-.49c-.138 0-.24.1-.24.25s.102.25.24.25.24-.1.24-.25S.418-.49.28-.49Zm-.02.03c.083 0 .17.11.17.24s-.047.2-.13.2S.13-.13.13-.26s.047-.2.13-.2Z" style="fill:#231f20;fill-rule:nonzero" transform="matrix(16 0 0 16 562.853 220)"/><path d="M.18-.42v-.06H.06S.1-.45.1-.4v.32C.1-.03.06 0 .06 0h.16S.18-.03.18-.08v-.24c0-.082.032-.13.062-.13.02 0 .04.022.048.07l.09-.05a.105.105 0 0 0-.095-.06.113.113 0 0 0-.105.07Z" style="fill:#231f20;fill-rule:nonzero" transform="matrix(16 0 0 16 571.813 220)"/><path d="M.18-.48H.06S.1-.45.1-.4v.32C.1-.03.06 0 .06 0h.16S.18-.03.18-.08v-.4Zm-.1-.175c0 .03.025.055.055.055S.19-.625.19-.655A.055.055 0 0 0 .135-.71a.055.055 0 0 0-.055.055Z" style="fill:#231f20;fill-rule:nonzero" transform="matrix(16 0 0 16 581.573 220)"/><path d="M.18-.383V-.48H.06S.1-.45.1-.4v.32C.1-.03.06 0 .06 0h.16S.18-.03.18-.08v-.2c0-.11.07-.17.135-.17.055 0 .105.03.105.13v.24C.42-.03.38 0 .38 0h.16S.5-.03.5-.08v-.24C.5-.44.43-.49.35-.49a.19.19 0 0 0-.17.107Z" style="fill:#231f20;fill-rule:nonzero" transform="matrix(16 0 0 16 586.053 220)"/><path d="M.23.01h.01l.185-.43C.442-.46.48-.48.48-.48H.37s.026.013.026.04a.05.05 0 0 1-.004.02l-.129.29-.111-.29a.06.06 0 0 1-.004-.017C.148-.465.18-.48.18-.48H0s.051.02.066.06L.23.01Z" style="fill:#231f20;fill-rule:nonzero" transform="matrix(16 0 0 16 595.653 220)"/><path d="M.18-.48H.06S.1-.45.1-.4v.32C.1-.03.06 0 .06 0h.16S.18-.03.18-.08v-.4Zm-.1-.175c0 .03.025.055.055.055S.19-.625.19-.655A.055.055 0 0 0 .135-.71a.055.055 0 0 0-.055.055Z" style="fill:#231f20;fill-rule:nonzero" transform="matrix(16 0 0 16 603.333 220)"/><path d="M.4-.405A.174.174 0 0 0 .25-.49c-.112 0-.21.119-.21.26 0 .141.078.24.19.24C.298.01.361-.034.4-.1v.03c0 .06.07.08.12.08 0 0-.04-.03-.04-.08V-.7H.36s.04.03.04.08v.215Zm0 .05v.2C.375-.092.328-.05.275-.05.195-.05.13-.136.13-.255S.195-.46.275-.46c.053 0 .1.042.125.105Z" style="fill:#231f20;fill-rule:nonzero" transform="matrix(16 0 0 16 607.813 220)"/><path d="M.42-.097v.027c0 .06.07.08.12.08C.54.01.5-.02.5-.07v-.41H.38s.04.03.04.08v.2c0 .11-.07.17-.135.17C.23-.03.18-.06.18-.16v-.32H.06S.1-.45.1-.4v.24c0 .12.07.17.15.17a.19.19 0 0 0 .17-.107Z" style="fill:#231f20;fill-rule:nonzero" transform="matrix(16 0 0 16 617.093 220)"/><path d="M.18-.383V-.48H.06S.1-.45.1-.4v.32C.1-.03.06 0 .06 0h.16S.18-.03.18-.08v-.2c0-.11.07-.17.135-.17.055 0 .105.03.105.13v.24C.42-.03.38 0 .38 0h.16S.5-.03.5-.08v-.24C.5-.44.43-.49.35-.49a.19.19 0 0 0-.17.107Z" style="fill:#231f20;fill-rule:nonzero" transform="matrix(16 0 0 16 626.693 220)"/><path d="M.08-.09c0 .073.043.1.09.1.053 0 .1-.038.11-.08H.27c-.008.022-.04.045-.067.045C.18-.025.16-.042.16-.09v-.36h.1v-.03h-.1V-.6l-.08.08v.04H.04v.03h.04v.36Z" style="fill:#231f20;fill-rule:nonzero" transform="matrix(16 0 0 16 636.293 220)"/><path d="M.42-.097v.027c0 .06.07.08.12.08C.54.01.5-.02.5-.07v-.41H.38s.04.03.04.08v.2c0 .11-.07.17-.135.17C.23-.03.18-.06.18-.16v-.32H.06S.1-.45.1-.4v.24c0 .12.07.17.15.17a.19.19 0 0 0 .17-.107Z" style="fill:#231f20;fill-rule:nonzero" transform="matrix(16 0 0 16 645.093 220)"/><path d="M.08-.09c0 .073.043.1.09.1.053 0 .1-.038.11-.08H.27c-.008.022-.04.045-.067.045C.18-.025.16-.042.16-.09v-.36h.1v-.03h-.1V-.6l-.08.08v.04H.04v.03h.04v.36Z" style="fill:#231f20;fill-rule:nonzero" transform="matrix(16 0 0 16 654.693 220)"/><path d="M.18-.7H.06s.04.03.04.08v.54C.1-.03.06 0 .06 0h.16S.18-.03.18-.08V-.7Z" style="fill:#231f20;fill-rule:nonzero" transform="matrix(16 0 0 16 407.333 240)"/><path d="M.34-.093v.038c0 .036.036.065.08.065A.08.08 0 0 0 .5-.06H.49c-.008.025-.026.038-.041.038C.433-.022.42-.035.42-.06v-.26c0-.119-.07-.17-.15-.17-.088 0-.177.05-.19.12l.09.05a.172.172 0 0 1-.008-.048c0-.058.04-.092.082-.092.047 0 .096.042.096.14v.05c-.08.01-.3-.001-.3.15 0 .087.062.13.149.13A.17.17 0 0 0 .34-.093Zm0-.147v.04c0 .102-.068.18-.12.18-.04 0-.09-.03-.09-.1 0-.11.13-.11.21-.12Z" style="fill:#231f20;fill-rule:nonzero" transform="matrix(16 0 0 16 411.813 240)"/><path d="M.18-.38V-.7H.06s.04.03.04.08v.54C.1-.03.06 0 .06 0h.12v-.075A.174.174 0 0 0 .33.01c.112 0 .21-.119.21-.26 0-.141-.078-.24-.19-.24-.068 0-.131.044-.17.11Zm0 .255v-.2C.205-.388.252-.43.305-.43c.08 0 .145.086.145.205S.385-.02.305-.02c-.053 0-.1-.042-.125-.105Z" style="fill:#231f20;fill-rule:nonzero" transform="matrix(16 0 0 16 419.813 240)"/><path d="M.28-.49c-.138 0-.24.1-.24.25s.102.25.24.25.24-.1.24-.25S.418-.49.28-.49Zm-.02.03c.083 0 .17.11.17.24s-.047.2-.13.2S.13-.13.13-.26s.047-.2.13-.2Z" style="fill:#231f20;fill-rule:nonzero" transform="matrix(16 0 0 16 429.093 240)"/><path d="M.18-.42v-.06H.06S.1-.45.1-.4v.32C.1-.03.06 0 .06 0h.16S.18-.03.18-.08v-.24c0-.082.032-.13.062-.13.02 0 .04.022.048.07l.09-.05a.105.105 0 0 0-.095-.06.113.113 0 0 0-.105.07Z" style="fill:#231f20;fill-rule:nonzero" transform="matrix(16 0 0 16 438.053 240)"/><path d="M.13-.193.39-.28c.036-.012.051-.038.051-.067C.441-.41.371-.49.265-.49c-.129 0-.225.1-.225.25s.096.25.225.25A.218.218 0 0 0 .48-.16H.47a.167.167 0 0 1-.158.115.193.193 0 0 1-.182-.148ZM.123-.225A.315.315 0 0 1 .12-.269c0-.125.075-.191.143-.191.063 0 .094.046.094.091a.086.086 0 0 1-.056.084c-.166.058-.177.06-.178.06Z" style="fill:#231f20;fill-rule:nonzero" transform="matrix(16 0 0 16 443.813 240)"/><path d="M.13-.193.39-.28c.036-.012.051-.038.051-.067C.441-.41.371-.49.265-.49c-.129 0-.225.1-.225.25s.096.25.225.25A.218.218 0 0 0 .48-.16H.47a.167.167 0 0 1-.158.115.193.193 0 0 1-.182-.148ZM.123-.225A.315.315 0 0 1 .12-.269c0-.125.075-.191.143-.191.063 0 .094.046.094.091a.086.086 0 0 1-.056.084c-.166.058-.177.06-.178.06Z" style="fill:#231f20;fill-rule:nonzero" transform="matrix(16 0 0 16 455.493 240)"/><path d="M.08-.09c0 .073.043.1.09.1.053 0 .1-.038.11-.08H.27c-.008.022-.04.045-.067.045C.18-.025.16-.042.16-.09v-.36h.1v-.03h-.1V-.6l-.08.08v.04H.04v.03h.04v.36Z" style="fill:#231f20;fill-rule:nonzero" transform="matrix(16 0 0 16 463.173 240)"/><path d="M.4-.405A.174.174 0 0 0 .25-.49c-.112 0-.21.119-.21.26 0 .141.078.24.19.24C.298.01.361-.034.4-.1v.03c0 .06.07.08.12.08 0 0-.04-.03-.04-.08V-.7H.36s.04.03.04.08v.215Zm0 .05v.2C.375-.092.328-.05.275-.05.195-.05.13-.136.13-.255S.195-.46.275-.46c.053 0 .1.042.125.105Z" style="fill:#231f20;fill-rule:nonzero" transform="matrix(16 0 0 16 471.973 240)"/><path d="M.28-.49c-.138 0-.24.1-.24.25s.102.25.24.25.24-.1.24-.25S.418-.49.28-.49Zm-.02.03c.083 0 .17.11.17.24s-.047.2-.13.2S.13-.13.13-.26s.047-.2.13-.2Z" style="fill:#231f20;fill-rule:nonzero" transform="matrix(16 0 0 16 481.253 240)"/><path d="M.18-.7H.06s.04.03.04.08v.54C.1-.03.06 0 .06 0h.16S.18-.03.18-.08V-.7Z" style="fill:#231f20;fill-rule:nonzero" transform="matrix(16 0 0 16 490.213 240)"/><path d="M.28-.49c-.138 0-.24.1-.24.25s.102.25.24.25.24-.1.24-.25S.418-.49.28-.49Zm-.02.03c.083 0 .17.11.17.24s-.047.2-.13.2S.13-.13.13-.26s.047-.2.13-.2Z" style="fill:#231f20;fill-rule:nonzero" transform="matrix(16 0 0 16 494.693 240)"/><path d="M.18-.42v-.06H.06S.1-.45.1-.4v.32C.1-.03.06 0 .06 0h.16S.18-.03.18-.08v-.24c0-.082.032-.13.062-.13.02 0 .04.022.048.07l.09-.05a.105.105 0 0 0-.095-.06.113.113 0 0 0-.105.07Z" style="fill:#231f20;fill-rule:nonzero" transform="matrix(16 0 0 16 503.653 240)"/><path d="M.13-.193.39-.28c.036-.012.051-.038.051-.067C.441-.41.371-.49.265-.49c-.129 0-.225.1-.225.25s.096.25.225.25A.218.218 0 0 0 .48-.16H.47a.167.167 0 0 1-.158.115.193.193 0 0 1-.182-.148ZM.123-.225A.315.315 0 0 1 .12-.269c0-.125.075-.191.143-.191.063 0 .094.046.094.091a.086.086 0 0 1-.056.084c-.166.058-.177.06-.178.06Z" style="fill:#231f20;fill-rule:nonzero" transform="matrix(16 0 0 16 509.413 240)"/><path d="M.18-.383V-.48H.06S.1-.45.1-.4v.32C.1-.03.06 0 .06 0h.16S.18-.03.18-.08v-.2c0-.11.07-.17.135-.17.055 0 .105.03.105.13v.24C.42-.03.38 0 .38 0h.16S.5-.03.5-.08v-.2c0-.11.07-.17.135-.17.055 0 .105.03.105.13v.24C.74-.03.7 0 .7 0h.16S.82-.03.82-.08v-.24c0-.12-.07-.17-.15-.17a.19.19 0 0 0-.175.119A.14.14 0 0 0 .35-.49a.19.19 0 0 0-.17.107Z" style="fill:#231f20;fill-rule:nonzero" transform="matrix(16 0 0 16 521.093 240)"/><path d="M.34-.093v.038c0 .036.036.065.08.065A.08.08 0 0 0 .5-.06H.49c-.008.025-.026.038-.041.038C.433-.022.42-.035.42-.06v-.26c0-.119-.07-.17-.15-.17-.088 0-.177.05-.19.12l.09.05a.172.172 0 0 1-.008-.048c0-.058.04-.092.082-.092.047 0 .096.042.096.14v.05c-.08.01-.3-.001-.3.15 0 .087.062.13.149.13A.17.17 0 0 0 .34-.093Zm0-.147v.04c0 .102-.068.18-.12.18-.04 0-.09-.03-.09-.1 0-.11.13-.11.21-.12Z" style="fill:#231f20;fill-rule:nonzero" transform="matrix(16 0 0 16 535.813 240)"/><path d="M.163-.18c-.036 0-.075.038-.075.06 0 .171.355.05.355.17 0 .056-.075.086-.152.086C.215.136.137.105.137.039.137.03.139.02.142.01L.045.06c0 .082.1.13.204.13C.354.19.475.139.475.02c0-.171-.323-.05-.323-.17 0-.01.01-.018.023-.025.026.01.055.016.085.016.116 0 .194-.066.194-.166A.158.158 0 0 0 .336-.48c.019-.019.032-.025.041-.025.017 0 .028.017.045.017L.43-.489a.03.03 0 0 0 .024-.029c0-.003 0-.005-.002-.008C.449-.539.434-.55.413-.55l-.018.002a.105.105 0 0 0-.069.068.269.269 0 0 0-.066-.01c-.116 0-.194.066-.194.165 0 .067.039.119.097.145Zm.085-.29c.07 0 .12.069.12.155s-.027.137-.097.137-.119-.07-.119-.156S.179-.47.248-.47Z" style="fill:#231f20;fill-rule:nonzero" transform="matrix(16 0 0 16 543.813 240)"/><path d="M.18-.383V-.48H.06S.1-.45.1-.4v.32C.1-.03.06 0 .06 0h.16S.18-.03.18-.08v-.2c0-.11.07-.17.135-.17.055 0 .105.03.105.13v.24C.42-.03.38 0 .38 0h.16S.5-.03.5-.08v-.24C.5-.44.43-.49.35-.49a.19.19 0 0 0-.17.107Z" style="fill:#231f20;fill-rule:nonzero" transform="matrix(16 0 0 16 552.133 240)"/><path d="M.34-.093v.038c0 .036.036.065.08.065A.08.08 0 0 0 .5-.06H.49c-.008.025-.026.038-.041.038C.433-.022.42-.035.42-.06v-.26c0-.119-.07-.17-.15-.17-.088 0-.177.05-.19.12l.09.05a.172.172 0 0 1-.008-.048c0-.058.04-.092.082-.092.047 0 .096.042.096.14v.05c-.08.01-.3-.001-.3.15 0 .087.062.13.149.13A.17.17 0 0 0 .34-.093Zm0-.147v.04c0 .102-.068.18-.12.18-.04 0-.09-.03-.09-.1 0-.11.13-.11.21-.12Z" style="fill:#231f20;fill-rule:nonzero" transform="matrix(16 0 0 16 561.733 240)"/><path d="M.34-.093v.038c0 .036.036.065.08.065A.08.08 0 0 0 .5-.06H.49c-.008.025-.026.038-.041.038C.433-.022.42-.035.42-.06v-.26c0-.119-.07-.17-.15-.17-.088 0-.177.05-.19.12l.09.05a.172.172 0 0 1-.008-.048c0-.058.04-.092.082-.092.047 0 .096.042.096.14v.05c-.08.01-.3-.001-.3.15 0 .087.062.13.149.13A.17.17 0 0 0 .34-.093Zm0-.147v.04c0 .102-.068.18-.12.18-.04 0-.09-.03-.09-.1 0-.11.13-.11.21-.12Z" style="fill:#231f20;fill-rule:nonzero" transform="matrix(16 0 0 16 573.733 240)"/><path d="M.18-.7H.06s.04.03.04.08v.54C.1-.03.06 0 .06 0h.16S.18-.03.18-.08V-.7Z" style="fill:#231f20;fill-rule:nonzero" transform="matrix(16 0 0 16 581.733 240)"/><path d="M.18-.48H.06S.1-.45.1-.4v.32C.1-.03.06 0 .06 0h.16S.18-.03.18-.08v-.4Zm-.1-.175c0 .03.025.055.055.055S.19-.625.19-.655A.055.055 0 0 0 .135-.71a.055.055 0 0 0-.055.055Z" style="fill:#231f20;fill-rule:nonzero" transform="matrix(16 0 0 16 586.213 240)"/><path d="M.4-.405A.174.174 0 0 0 .25-.49c-.112 0-.21.119-.21.26 0 .141.078.24.19.24C.298.01.361-.034.4-.1v.2C.4.15.36.18.36.18h.16S.48.15.48.1v-.51c0-.05.04-.08.04-.08-.05 0-.12.02-.12.085Zm0 .05v.2C.375-.092.328-.05.275-.05.195-.05.13-.136.13-.255S.195-.46.275-.46c.053 0 .1.042.125.105Z" style="fill:#231f20;fill-rule:nonzero" transform="matrix(16 0 0 16 590.693 240)"/><path d="M.42-.097v.027c0 .06.07.08.12.08C.54.01.5-.02.5-.07v-.41H.38s.04.03.04.08v.2c0 .11-.07.17-.135.17C.23-.03.18-.06.18-.16v-.32H.06S.1-.45.1-.4v.24c0 .12.07.17.15.17a.19.19 0 0 0 .17-.107Z" style="fill:#231f20;fill-rule:nonzero" transform="matrix(16 0 0 16 599.973 240)"/><path d="M.263-.13.146-.42a.05.05 0 0 1-.003-.015c0-.03.037-.045.037-.045H0s.045.02.06.06l.159.404-.052.122C.153.14.127.157.108.157.094.157.083.148.083.13A.08.08 0 0 1 .09.1L0 .14c.005.028.042.05.084.05S.174.167.2.106L.423-.42C.44-.46.48-.48.48-.48H.37s.026.013.026.038A.049.049 0 0 1 .39-.42l-.127.29Z" style="fill:#231f20;fill-rule:nonzero" transform="matrix(16 0 0 16 609.573 240)"/><path d="M.34-.093v.038c0 .036.036.065.08.065A.08.08 0 0 0 .5-.06H.49c-.008.025-.026.038-.041.038C.433-.022.42-.035.42-.06v-.26c0-.119-.07-.17-.15-.17-.088 0-.177.05-.19.12l.09.05a.172.172 0 0 1-.008-.048c0-.058.04-.092.082-.092.047 0 .096.042.096.14v.05c-.08.01-.3-.001-.3.15 0 .087.062.13.149.13A.17.17 0 0 0 .34-.093Zm0-.147v.04c0 .102-.068.18-.12.18-.04 0-.09-.03-.09-.1 0-.11.13-.11.21-.12Z" style="fill:#231f20;fill-rule:nonzero" transform="matrix(16 0 0 16 617.253 240)"/><path d="M.18-.383V-.48H.06S.1-.45.1-.4v.32C.1-.03.06 0 .06 0h.16S.18-.03.18-.08v-.2c0-.11.07-.17.135-.17.055 0 .105.03.105.13v.24C.42-.03.38 0 .38 0h.16S.5-.03.5-.08v-.2c0-.11.07-.17.135-.17.055 0 .105.03.105.13v.24C.74-.03.7 0 .7 0h.16S.82-.03.82-.08v-.24c0-.12-.07-.17-.15-.17a.19.19 0 0 0-.175.119A.14.14 0 0 0 .35-.49a.19.19 0 0 0-.17.107Z" style="fill:#231f20;fill-rule:nonzero" transform="matrix(16 0 0 16 625.253 240)"/><path d="M.13-.193.39-.28c.036-.012.051-.038.051-.067C.441-.41.371-.49.265-.49c-.129 0-.225.1-.225.25s.096.25.225.25A.218.218 0 0 0 .48-.16H.47a.167.167 0 0 1-.158.115.193.193 0 0 1-.182-.148ZM.123-.225A.315.315 0 0 1 .12-.269c0-.125.075-.191.143-.191.063 0 .094.046.094.091a.086.086 0 0 1-.056.084c-.166.058-.177.06-.178.06Z" style="fill:#231f20;fill-rule:nonzero" transform="matrix(16 0 0 16 643.973 240)"/><path d="M.18-.42v-.06H.06S.1-.45.1-.4v.32C.1-.03.06 0 .06 0h.16S.18-.03.18-.08v-.24c0-.082.032-.13.062-.13.02 0 .04.022.048.07l.09-.05a.105.105 0 0 0-.095-.06.113.113 0 0 0-.105.07Z" style="fill:#231f20;fill-rule:nonzero" transform="matrix(16 0 0 16 651.653 240)"/><path d="M.34-.093v.038c0 .036.036.065.08.065A.08.08 0 0 0 .5-.06H.49c-.008.025-.026.038-.041.038C.433-.022.42-.035.42-.06v-.26c0-.119-.07-.17-.15-.17-.088 0-.177.05-.19.12l.09.05a.172.172 0 0 1-.008-.048c0-.058.04-.092.082-.092.047 0 .096.042.096.14v.05c-.08.01-.3-.001-.3.15 0 .087.062.13.149.13A.17.17 0 0 0 .34-.093Zm0-.147v.04c0 .102-.068.18-.12.18-.04 0-.09-.03-.09-.1 0-.11.13-.11.21-.12Z" style="fill:#231f20;fill-rule:nonzero" transform="matrix(16 0 0 16 657.413 240)"/><path d="M.08-.09c0 .073.043.1.09.1.053 0 .1-.038.11-.08H.27c-.008.022-.04.045-.067.045C.18-.025.16-.042.16-.09v-.36h.1v-.03h-.1V-.6l-.08.08v.04H.04v.03h.04v.36Z" style="fill:#231f20;fill-rule:nonzero" transform="matrix(16 0 0 16 665.413 240)"/><path d="M.065.15h.01s.11-.075.11-.17C.185-.074.151-.1.12-.1a.055.055 0 0 0-.055.055c0 .043.051.049.051.092C.116.069.065.15.065.15Z" style="fill:#231f20;fill-rule:nonzero" transform="matrix(16 0 0 16 670.213 240)"/><path d="M.06-.33c0 .14.26.12.26.24 0 .045-.048.07-.103.07C.151-.02.073-.056.05-.14H.04l.022.12c.056.021.106.03.147.03C.322.01.38-.073.38-.15c0-.14-.26-.12-.26-.24 0-.045.039-.07.084-.07.053 0 .115.034.136.11h.01v-.11a.277.277 0 0 0-.13-.03c-.076 0-.16.049-.16.16Z" style="fill:#231f20;fill-rule:nonzero" transform="matrix(16 0 0 16 407.333 260)"/><path d="M.13-.193.39-.28c.036-.012.051-.038.051-.067C.441-.41.371-.49.265-.49c-.129 0-.225.1-.225.25s.096.25.225.25A.218.218 0 0 0 .48-.16H.47a.167.167 0 0 1-.158.115.193.193 0 0 1-.182-.148ZM.123-.225A.315.315 0 0 1 .12-.269c0-.125.075-.191.143-.191.063 0 .094.046.094.091a.086.086 0 0 1-.056.084c-.166.058-.177.06-.178.06Z" style="fill:#231f20;fill-rule:nonzero" transform="matrix(16 0 0 16 414.053 260)"/><path d="M.4-.405A.174.174 0 0 0 .25-.49c-.112 0-.21.119-.21.26 0 .141.078.24.19.24C.298.01.361-.034.4-.1v.03c0 .06.07.08.12.08 0 0-.04-.03-.04-.08V-.7H.36s.04.03.04.08v.215Zm0 .05v.2C.375-.092.328-.05.275-.05.195-.05.13-.136.13-.255S.195-.46.275-.46c.053 0 .1.042.125.105Z" style="fill:#231f20;fill-rule:nonzero" transform="matrix(16 0 0 16 421.733 260)"/><path d="M.4-.405A.174.174 0 0 0 .25-.49c-.112 0-.21.119-.21.26 0 .141.078.24.19.24C.298.01.361-.034.4-.1v.03c0 .06.07.08.12.08 0 0-.04-.03-.04-.08V-.7H.36s.04.03.04.08v.215Zm0 .05v.2C.375-.092.328-.05.275-.05.195-.05.13-.136.13-.255S.195-.46.275-.46c.053 0 .1.042.125.105Z" style="fill:#231f20;fill-rule:nonzero" transform="matrix(16 0 0 16 435.013 260)"/><path d="M.18-.48H.06S.1-.45.1-.4v.32C.1-.03.06 0 .06 0h.16S.18-.03.18-.08v-.4Zm-.1-.175c0 .03.025.055.055.055S.19-.625.19-.655A.055.055 0 0 0 .135-.71a.055.055 0 0 0-.055.055Z" style="fill:#231f20;fill-rule:nonzero" transform="matrix(16 0 0 16 444.293 260)"/><path d="M.34-.093v.038c0 .036.036.065.08.065A.08.08 0 0 0 .5-.06H.49c-.008.025-.026.038-.041.038C.433-.022.42-.035.42-.06v-.26c0-.119-.07-.17-.15-.17-.088 0-.177.05-.19.12l.09.05a.172.172 0 0 1-.008-.048c0-.058.04-.092.082-.092.047 0 .096.042.096.14v.05c-.08.01-.3-.001-.3.15 0 .087.062.13.149.13A.17.17 0 0 0 .34-.093Zm0-.147v.04c0 .102-.068.18-.12.18-.04 0-.09-.03-.09-.1 0-.11.13-.11.21-.12Z" style="fill:#231f20;fill-rule:nonzero" transform="matrix(16 0 0 16 448.773 260)"/><path d="M.18-.383V-.48H.06S.1-.45.1-.4v.32C.1-.03.06 0 .06 0h.16S.18-.03.18-.08v-.2c0-.11.07-.17.135-.17.055 0 .105.03.105.13v.24C.42-.03.38 0 .38 0h.16S.5-.03.5-.08v-.2c0-.11.07-.17.135-.17.055 0 .105.03.105.13v.24C.74-.03.7 0 .7 0h.16S.82-.03.82-.08v-.24c0-.12-.07-.17-.15-.17a.19.19 0 0 0-.175.119A.14.14 0 0 0 .35-.49a.19.19 0 0 0-.17.107Z" style="fill:#231f20;fill-rule:nonzero" transform="matrix(16 0 0 16 456.773 260)"/><path d="M.23.01h.01l.185-.43C.442-.46.48-.48.48-.48H.37s.026.013.026.04a.05.05 0 0 1-.004.02l-.129.29-.111-.29a.06.06 0 0 1-.004-.017C.148-.465.18-.48.18-.48H0s.051.02.066.06L.23.01Z" style="fill:#231f20;fill-rule:nonzero" transform="matrix(16 0 0 16 475.493 260)"/><path d="M.28-.49c-.138 0-.24.1-.24.25s.102.25.24.25.24-.1.24-.25S.418-.49.28-.49Zm-.02.03c.083 0 .17.11.17.24s-.047.2-.13.2S.13-.13.13-.26s.047-.2.13-.2Z" style="fill:#231f20;fill-rule:nonzero" transform="matrix(16 0 0 16 483.173 260)"/><path d="M.18-.7H.06s.04.03.04.08v.54C.1-.03.06 0 .06 0h.16S.18-.03.18-.08V-.7Z" style="fill:#231f20;fill-rule:nonzero" transform="matrix(16 0 0 16 492.133 260)"/><path d="M.42-.097v.027c0 .06.07.08.12.08C.54.01.5-.02.5-.07v-.41H.38s.04.03.04.08v.2c0 .11-.07.17-.135.17C.23-.03.18-.06.18-.16v-.32H.06S.1-.45.1-.4v.24c0 .12.07.17.15.17a.19.19 0 0 0 .17-.107Z" style="fill:#231f20;fill-rule:nonzero" transform="matrix(16 0 0 16 496.613 260)"/><path d="M.18-.38v-.1H.06S.1-.45.1-.4v.5C.1.15.06.18.06.18h.16S.18.15.18.1v-.175A.174.174 0 0 0 .33.01c.112 0 .21-.119.21-.26 0-.141-.078-.24-.19-.24-.068 0-.131.044-.17.11Zm0 .255v-.2C.205-.388.252-.43.305-.43c.08 0 .145.086.145.205S.385-.02.305-.02c-.053 0-.1-.042-.125-.105Z" style="fill:#231f20;fill-rule:nonzero" transform="matrix(16 0 0 16 506.213 260)"/><path d="M.08-.09c0 .073.043.1.09.1.053 0 .1-.038.11-.08H.27c-.008.022-.04.045-.067.045C.18-.025.16-.042.16-.09v-.36h.1v-.03h-.1V-.6l-.08.08v.04H.04v.03h.04v.36Z" style="fill:#231f20;fill-rule:nonzero" transform="matrix(16 0 0 16 515.493 260)"/><path d="M.42-.097v.027c0 .06.07.08.12.08C.54.01.5-.02.5-.07v-.41H.38s.04.03.04.08v.2c0 .11-.07.17-.135.17C.23-.03.18-.06.18-.16v-.32H.06S.1-.45.1-.4v.24c0 .12.07.17.15.17a.19.19 0 0 0 .17-.107Z" style="fill:#231f20;fill-rule:nonzero" transform="matrix(16 0 0 16 520.293 260)"/><path d="M.34-.093v.038c0 .036.036.065.08.065A.08.08 0 0 0 .5-.06H.49c-.008.025-.026.038-.041.038C.433-.022.42-.035.42-.06v-.26c0-.119-.07-.17-.15-.17-.088 0-.177.05-.19.12l.09.05a.172.172 0 0 1-.008-.048c0-.058.04-.092.082-.092.047 0 .096.042.096.14v.05c-.08.01-.3-.001-.3.15 0 .087.062.13.149.13A.17.17 0 0 0 .34-.093Zm0-.147v.04c0 .102-.068.18-.12.18-.04 0-.09-.03-.09-.1 0-.11.13-.11.21-.12Z" style="fill:#231f20;fill-rule:nonzero" transform="matrix(16 0 0 16 529.893 260)"/><path d="M.07-.045c0 .03.025.055.055.055S.18-.015.18-.045A.055.055 0 0 0 .125-.1a.055.055 0 0 0-.055.055Z" style="fill:#231f20;fill-rule:nonzero" transform="matrix(16 0 0 16 537.893 260)"/><path d="M.16-.22h.224l.051.14a.066.066 0 0 1 .004.023C.439-.021.408 0 .408 0H.6S.543-.03.525-.08L.31-.67H.3l-.226.59C.055-.03 0 0 0 0h.13S.101-.02.101-.055A.08.08 0 0 1 .106-.08L.16-.22Zm.011-.03.104-.27.098.27H.171Z" style="fill:#231f20;fill-rule:nonzero" transform="matrix(16 0 0 16 407.333 300)"/><path d="M.08-.09c0 .073.043.1.09.1.053 0 .1-.038.11-.08H.27c-.008.022-.04.045-.067.045C.18-.025.16-.042.16-.09v-.36h.1v-.03h-.1V-.6l-.08.08v.04H.04v.03h.04v.36Z" style="fill:#231f20;fill-rule:nonzero" transform="matrix(16 0 0 16 416.933 300)"/><path d="M.23.01h.01l.185-.43C.442-.46.48-.48.48-.48H.37s.026.013.026.04a.05.05 0 0 1-.004.02l-.129.29-.111-.29a.06.06 0 0 1-.004-.017C.148-.465.18-.48.18-.48H0s.051.02.066.06L.23.01Z" style="fill:#231f20;fill-rule:nonzero" transform="matrix(16 0 0 16 425.733 300)"/><path d="M.13-.193.39-.28c.036-.012.051-.038.051-.067C.441-.41.371-.49.265-.49c-.129 0-.225.1-.225.25s.096.25.225.25A.218.218 0 0 0 .48-.16H.47a.167.167 0 0 1-.158.115.193.193 0 0 1-.182-.148ZM.123-.225A.315.315 0 0 1 .12-.269c0-.125.075-.191.143-.191.063 0 .094.046.094.091a.086.086 0 0 1-.056.084c-.166.058-.177.06-.178.06Z" style="fill:#231f20;fill-rule:nonzero" transform="matrix(16 0 0 16 433.413 300)"/><path d="M.18-.42v-.06H.06S.1-.45.1-.4v.32C.1-.03.06 0 .06 0h.16S.18-.03.18-.08v-.24c0-.082.032-.13.062-.13.02 0 .04.022.048.07l.09-.05a.105.105 0 0 0-.095-.06.113.113 0 0 0-.105.07Z" style="fill:#231f20;fill-rule:nonzero" transform="matrix(16 0 0 16 441.093 300)"/><path d="M.28-.49c-.138 0-.24.1-.24.25s.102.25.24.25.24-.1.24-.25S.418-.49.28-.49Zm-.02.03c.083 0 .17.11.17.24s-.047.2-.13.2S.13-.13.13-.26s.047-.2.13-.2Z" style="fill:#231f20;fill-rule:nonzero" transform="matrix(16 0 0 16 446.853 300)"/><path d="M.13-.193.39-.28c.036-.012.051-.038.051-.067C.441-.41.371-.49.265-.49c-.129 0-.225.1-.225.25s.096.25.225.25A.218.218 0 0 0 .48-.16H.47a.167.167 0 0 1-.158.115.193.193 0 0 1-.182-.148ZM.123-.225A.315.315 0 0 1 .12-.269c0-.125.075-.191.143-.191.063 0 .094.046.094.091a.086.086 0 0 1-.056.084c-.166.058-.177.06-.178.06Z" style="fill:#231f20;fill-rule:nonzero" transform="matrix(16 0 0 16 459.813 300)"/><path d="M.28-.49c-.138 0-.24.1-.24.25s.102.25.24.25.24-.1.24-.25S.418-.49.28-.49Zm-.02.03c.083 0 .17.11.17.24s-.047.2-.13.2S.13-.13.13-.26s.047-.2.13-.2Z" style="fill:#231f20;fill-rule:nonzero" transform="matrix(16 0 0 16 467.493 300)"/><path d="M.06-.33c0 .14.26.12.26.24 0 .045-.048.07-.103.07C.151-.02.073-.056.05-.14H.04l.022.12c.056.021.106.03.147.03C.322.01.38-.073.38-.15c0-.14-.26-.12-.26-.24 0-.045.039-.07.084-.07.053 0 .115.034.136.11h.01v-.11a.277.277 0 0 0-.13-.03c-.076 0-.16.049-.16.16Z" style="fill:#231f20;fill-rule:nonzero" transform="matrix(16 0 0 16 476.453 300)"/><path d="M.13-.193.39-.28c.036-.012.051-.038.051-.067C.441-.41.371-.49.265-.49c-.129 0-.225.1-.225.25s.096.25.225.25A.218.218 0 0 0 .48-.16H.47a.167.167 0 0 1-.158.115.193.193 0 0 1-.182-.148ZM.123-.225A.315.315 0 0 1 .12-.269c0-.125.075-.191.143-.191.063 0 .094.046.094.091a.086.086 0 0 1-.056.084c-.166.058-.177.06-.178.06Z" style="fill:#231f20;fill-rule:nonzero" transform="matrix(16 0 0 16 487.173 300)"/><path d="M.08-.09c0 .073.043.1.09.1.053 0 .1-.038.11-.08H.27c-.008.022-.04.045-.067.045C.18-.025.16-.042.16-.09v-.36h.1v-.03h-.1V-.6l-.08.08v.04H.04v.03h.04v.36Z" style="fill:#231f20;fill-rule:nonzero" transform="matrix(16 0 0 16 494.853 300)"/><path d="M.34-.093v.038c0 .036.036.065.08.065A.08.08 0 0 0 .5-.06H.49c-.008.025-.026.038-.041.038C.433-.022.42-.035.42-.06v-.26c0-.119-.07-.17-.15-.17-.088 0-.177.05-.19.12l.09.05a.172.172 0 0 1-.008-.048c0-.058.04-.092.082-.092.047 0 .096.042.096.14v.05c-.08.01-.3-.001-.3.15 0 .087.062.13.149.13A.17.17 0 0 0 .34-.093Zm0-.147v.04c0 .102-.068.18-.12.18-.04 0-.09-.03-.09-.1 0-.11.13-.11.21-.12Z" style="fill:#231f20;fill-rule:nonzero" transform="matrix(16 0 0 16 503.653 300)"/><path d="M.46-.369A.217.217 0 0 0 .265-.49c-.129 0-.225.1-.225.25s.096.25.225.25A.218.218 0 0 0 .48-.16H.47a.167.167 0 0 1-.158.115C.218-.045.12-.125.12-.269c0-.125.075-.191.143-.191.056 0 .107.045.107.141l.09-.05Z" style="fill:#231f20;fill-rule:nonzero" transform="matrix(16 0 0 16 511.653 300)"/><path d="M.46-.369A.217.217 0 0 0 .265-.49c-.129 0-.225.1-.225.25s.096.25.225.25A.218.218 0 0 0 .48-.16H.47a.167.167 0 0 1-.158.115C.218-.045.12-.125.12-.269c0-.125.075-.191.143-.191.056 0 .107.045.107.141l.09-.05Z" style="fill:#231f20;fill-rule:nonzero" transform="matrix(16 0 0 16 519.333 300)"/><path d="M.42-.097v.027c0 .06.07.08.12.08C.54.01.5-.02.5-.07v-.41H.38s.04.03.04.08v.2c0 .11-.07.17-.135.17C.23-.03.18-.06.18-.16v-.32H.06S.1-.45.1-.4v.24c0 .12.07.17.15.17a.19.19 0 0 0 .17-.107Z" style="fill:#231f20;fill-rule:nonzero" transform="matrix(16 0 0 16 527.013 300)"/><path d="M.06-.33c0 .14.26.12.26.24 0 .045-.048.07-.103.07C.151-.02.073-.056.05-.14H.04l.022.12c.056.021.106.03.147.03C.322.01.38-.073.38-.15c0-.14-.26-.12-.26-.24 0-.045.039-.07.084-.07.053 0 .115.034.136.11h.01v-.11a.277.277 0 0 0-.13-.03c-.076 0-.16.049-.16.16Z" style="fill:#231f20;fill-rule:nonzero" transform="matrix(16 0 0 16 536.613 300)"/><path d="M.34-.093v.038c0 .036.036.065.08.065A.08.08 0 0 0 .5-.06H.49c-.008.025-.026.038-.041.038C.433-.022.42-.035.42-.06v-.26c0-.119-.07-.17-.15-.17-.088 0-.177.05-.19.12l.09.05a.172.172 0 0 1-.008-.048c0-.058.04-.092.082-.092.047 0 .096.042.096.14v.05c-.08.01-.3-.001-.3.15 0 .087.062.13.149.13A.17.17 0 0 0 .34-.093Zm0-.147v.04c0 .102-.068.18-.12.18-.04 0-.09-.03-.09-.1 0-.11.13-.11.21-.12Z" style="fill:#231f20;fill-rule:nonzero" transform="matrix(16 0 0 16 543.333 300)"/><path d="M.18-.383V-.48H.06S.1-.45.1-.4v.32C.1-.03.06 0 .06 0h.16S.18-.03.18-.08v-.2c0-.11.07-.17.135-.17.055 0 .105.03.105.13v.24C.42-.03.38 0 .38 0h.16S.5-.03.5-.08v-.2c0-.11.07-.17.135-.17.055 0 .105.03.105.13v.24C.74-.03.7 0 .7 0h.16S.82-.03.82-.08v-.24c0-.12-.07-.17-.15-.17a.19.19 0 0 0-.175.119A.14.14 0 0 0 .35-.49a.19.19 0 0 0-.17.107Z" style="fill:#231f20;fill-rule:nonzero" transform="matrix(16 0 0 16 551.333 300)"/><path d="M.13-.193.39-.28c.036-.012.051-.038.051-.067C.441-.41.371-.49.265-.49c-.129 0-.225.1-.225.25s.096.25.225.25A.218.218 0 0 0 .48-.16H.47a.167.167 0 0 1-.158.115.193.193 0 0 1-.182-.148ZM.123-.225A.315.315 0 0 1 .12-.269c0-.125.075-.191.143-.191.063 0 .094.046.094.091a.086.086 0 0 1-.056.084c-.166.058-.177.06-.178.06Z" style="fill:#231f20;fill-rule:nonzero" transform="matrix(16 0 0 16 570.053 300)"/><path d="M.08-.09c0 .073.043.1.09.1.053 0 .1-.038.11-.08H.27c-.008.022-.04.045-.067.045C.18-.025.16-.042.16-.09v-.36h.1v-.03h-.1V-.6l-.08.08v.04H.04v.03h.04v.36Z" style="fill:#231f20;fill-rule:nonzero" transform="matrix(16 0 0 16 577.733 300)"/><path d="M.18-.05v-.43H.06S.1-.45.1-.4v.35C.1.03.098.098-.02.18l.01.01a.234.234 0 0 0 .19-.24Zm-.1-.605c0 .03.025.055.055.055S.19-.625.19-.655A.055.055 0 0 0 .135-.71a.055.055 0 0 0-.055.055Z" style="fill:#231f20;fill-rule:nonzero" transform="matrix(16 0 0 16 586.533 300)"/><path d="M.42-.097v.027c0 .06.07.08.12.08C.54.01.5-.02.5-.07v-.41H.38s.04.03.04.08v.2c0 .11-.07.17-.135.17C.23-.03.18-.06.18-.16v-.32H.06S.1-.45.1-.4v.24c0 .12.07.17.15.17a.19.19 0 0 0 .17-.107Z" style="fill:#231f20;fill-rule:nonzero" transform="matrix(16 0 0 16 591.013 300)"/><path d="M.06-.33c0 .14.26.12.26.24 0 .045-.048.07-.103.07C.151-.02.073-.056.05-.14H.04l.022.12c.056.021.106.03.147.03C.322.01.38-.073.38-.15c0-.14-.26-.12-.26-.24 0-.045.039-.07.084-.07.053 0 .115.034.136.11h.01v-.11a.277.277 0 0 0-.13-.03c-.076 0-.16.049-.16.16Z" style="fill:#231f20;fill-rule:nonzero" transform="matrix(16 0 0 16 600.613 300)"/><path d="M.08-.09c0 .073.043.1.09.1.053 0 .1-.038.11-.08H.27c-.008.022-.04.045-.067.045C.18-.025.16-.042.16-.09v-.36h.1v-.03h-.1V-.6l-.08.08v.04H.04v.03h.04v.36Z" style="fill:#231f20;fill-rule:nonzero" transform="matrix(16 0 0 16 607.333 300)"/><path d="M.28-.49c-.138 0-.24.1-.24.25s.102.25.24.25.24-.1.24-.25S.418-.49.28-.49Zm-.02.03c.083 0 .17.11.17.24s-.047.2-.13.2S.13-.13.13-.26s.047-.2.13-.2Z" style="fill:#231f20;fill-rule:nonzero" transform="matrix(16 0 0 16 612.133 300)"/><path d="M.4-.405A.174.174 0 0 0 .25-.49c-.112 0-.21.119-.21.26 0 .141.078.24.19.24C.298.01.361-.034.4-.1v.03c0 .06.07.08.12.08 0 0-.04-.03-.04-.08V-.7H.36s.04.03.04.08v.215Zm0 .05v.2C.375-.092.328-.05.275-.05.195-.05.13-.136.13-.255S.195-.46.275-.46c.053 0 .1.042.125.105Z" style="fill:#231f20;fill-rule:nonzero" transform="matrix(16 0 0 16 625.093 300)"/><path d="M.42-.097v.027c0 .06.07.08.12.08C.54.01.5-.02.5-.07v-.41H.38s.04.03.04.08v.2c0 .11-.07.17-.135.17C.23-.03.18-.06.18-.16v-.32H.06S.1-.45.1-.4v.24c0 .12.07.17.15.17a.19.19 0 0 0 .17-.107Z" style="fill:#231f20;fill-rule:nonzero" transform="matrix(16 0 0 16 634.373 300)"/><path d="M.28-.49c-.138 0-.24.1-.24.25s.102.25.24.25.24-.1.24-.25S.418-.49.28-.49Zm-.02.03c.083 0 .17.11.17.24s-.047.2-.13.2S.13-.13.13-.26s.047-.2.13-.2Z" style="fill:#231f20;fill-rule:nonzero" transform="matrix(16 0 0 16 643.973 300)"/><path d="M.4-.405A.174.174 0 0 0 .25-.49c-.112 0-.21.119-.21.26 0 .141.078.24.19.24C.298.01.361-.034.4-.1v.03c0 .06.07.08.12.08 0 0-.04-.03-.04-.08V-.7H.36s.04.03.04.08v.215Zm0 .05v.2C.375-.092.328-.05.275-.05.195-.05.13-.136.13-.255S.195-.46.275-.46c.053 0 .1.042.125.105Z" style="fill:#231f20;fill-rule:nonzero" transform="matrix(16 0 0 16 407.333 320)"/><path d="M.28-.49c-.138 0-.24.1-.24.25s.102.25.24.25.24-.1.24-.25S.418-.49.28-.49Zm-.02.03c.083 0 .17.11.17.24s-.047.2-.13.2S.13-.13.13-.26s.047-.2.13-.2Z" style="fill:#231f20;fill-rule:nonzero" transform="matrix(16 0 0 16 416.613 320)"/><path d="M.18-.7H.06s.04.03.04.08v.54C.1-.03.06 0 .06 0h.16S.18-.03.18-.08V-.7Z" style="fill:#231f20;fill-rule:nonzero" transform="matrix(16 0 0 16 425.573 320)"/><path d="M.28-.49c-.138 0-.24.1-.24.25s.102.25.24.25.24-.1.24-.25S.418-.49.28-.49Zm-.02.03c.083 0 .17.11.17.24s-.047.2-.13.2S.13-.13.13-.26s.047-.2.13-.2Z" style="fill:#231f20;fill-rule:nonzero" transform="matrix(16 0 0 16 430.053 320)"/><path d="M.18-.42v-.06H.06S.1-.45.1-.4v.32C.1-.03.06 0 .06 0h.16S.18-.03.18-.08v-.24c0-.082.032-.13.062-.13.02 0 .04.022.048.07l.09-.05a.105.105 0 0 0-.095-.06.113.113 0 0 0-.105.07Z" style="fill:#231f20;fill-rule:nonzero" transform="matrix(16 0 0 16 439.013 320)"/><path d="M.13-.193.39-.28c.036-.012.051-.038.051-.067C.441-.41.371-.49.265-.49c-.129 0-.225.1-.225.25s.096.25.225.25A.218.218 0 0 0 .48-.16H.47a.167.167 0 0 1-.158.115.193.193 0 0 1-.182-.148ZM.123-.225A.315.315 0 0 1 .12-.269c0-.125.075-.191.143-.191.063 0 .094.046.094.091a.086.086 0 0 1-.056.084c-.166.058-.177.06-.178.06Z" style="fill:#231f20;fill-rule:nonzero" transform="matrix(16 0 0 16 444.773 320)"/><path d="M.06-.33c0 .14.26.12.26.24 0 .045-.048.07-.103.07C.151-.02.073-.056.05-.14H.04l.022.12c.056.021.106.03.147.03C.322.01.38-.073.38-.15c0-.14-.26-.12-.26-.24 0-.045.039-.07.084-.07.053 0 .115.034.136.11h.01v-.11a.277.277 0 0 0-.13-.03c-.076 0-.16.049-.16.16Z" style="fill:#231f20;fill-rule:nonzero" transform="matrix(16 0 0 16 452.453 320)"/><path d="M.13-.193.39-.28c.036-.012.051-.038.051-.067C.441-.41.371-.49.265-.49c-.129 0-.225.1-.225.25s.096.25.225.25A.218.218 0 0 0 .48-.16H.47a.167.167 0 0 1-.158.115.193.193 0 0 1-.182-.148ZM.123-.225A.315.315 0 0 1 .12-.269c0-.125.075-.191.143-.191.063 0 .094.046.094.091a.086.086 0 0 1-.056.084c-.166.058-.177.06-.178.06Z" style="fill:#231f20;fill-rule:nonzero" transform="matrix(16 0 0 16 463.173 320)"/><path d="M.08-.09c0 .073.043.1.09.1.053 0 .1-.038.11-.08H.27c-.008.022-.04.045-.067.045C.18-.025.16-.042.16-.09v-.36h.1v-.03h-.1V-.6l-.08.08v.04H.04v.03h.04v.36Z" style="fill:#231f20;fill-rule:nonzero" transform="matrix(16 0 0 16 470.853 320)"/><path d="M.13-.193.39-.28c.036-.012.051-.038.051-.067C.441-.41.371-.49.265-.49c-.129 0-.225.1-.225.25s.096.25.225.25A.218.218 0 0 0 .48-.16H.47a.167.167 0 0 1-.158.115.193.193 0 0 1-.182-.148ZM.123-.225A.315.315 0 0 1 .12-.269c0-.125.075-.191.143-.191.063 0 .094.046.094.091a.086.086 0 0 1-.056.084c-.166.058-.177.06-.178.06Z" style="fill:#231f20;fill-rule:nonzero" transform="matrix(16 0 0 16 479.653 320)"/><path d="M.34-.093v.038c0 .036.036.065.08.065A.08.08 0 0 0 .5-.06H.49c-.008.025-.026.038-.041.038C.433-.022.42-.035.42-.06v-.26c0-.119-.07-.17-.15-.17-.088 0-.177.05-.19.12l.09.05a.172.172 0 0 1-.008-.048c0-.058.04-.092.082-.092.047 0 .096.042.096.14v.05c-.08.01-.3-.001-.3.15 0 .087.062.13.149.13A.17.17 0 0 0 .34-.093Zm0-.147v.04c0 .102-.068.18-.12.18-.04 0-.09-.03-.09-.1 0-.11.13-.11.21-.12Z" style="fill:#231f20;fill-rule:nonzero" transform="matrix(16 0 0 16 487.333 320)"/><path d="M.18-.42v-.06H.06S.1-.45.1-.4v.32C.1-.03.06 0 .06 0h.16S.18-.03.18-.08v-.24c0-.082.032-.13.062-.13.02 0 .04.022.048.07l.09-.05a.105.105 0 0 0-.095-.06.113.113 0 0 0-.105.07Z" style="fill:#231f20;fill-rule:nonzero" transform="matrix(16 0 0 16 499.333 320)"/><path d="M.13-.193.39-.28c.036-.012.051-.038.051-.067C.441-.41.371-.49.265-.49c-.129 0-.225.1-.225.25s.096.25.225.25A.218.218 0 0 0 .48-.16H.47a.167.167 0 0 1-.158.115.193.193 0 0 1-.182-.148ZM.123-.225A.315.315 0 0 1 .12-.269c0-.125.075-.191.143-.191.063 0 .094.046.094.091a.086.086 0 0 1-.056.084c-.166.058-.177.06-.178.06Z" style="fill:#231f20;fill-rule:nonzero" transform="matrix(16 0 0 16 505.093 320)"/><path d="M.18-.38V-.7H.06s.04.03.04.08v.54C.1-.03.06 0 .06 0h.12v-.075A.174.174 0 0 0 .33.01c.112 0 .21-.119.21-.26 0-.141-.078-.24-.19-.24-.068 0-.131.044-.17.11Zm0 .255v-.2C.205-.388.252-.43.305-.43c.08 0 .145.086.145.205S.385-.02.305-.02c-.053 0-.1-.042-.125-.105Z" style="fill:#231f20;fill-rule:nonzero" transform="matrix(16 0 0 16 512.773 320)"/><path d="M.42-.097v.027c0 .06.07.08.12.08C.54.01.5-.02.5-.07v-.41H.38s.04.03.04.08v.2c0 .11-.07.17-.135.17C.23-.03.18-.06.18-.16v-.32H.06S.1-.45.1-.4v.24c0 .12.07.17.15.17a.19.19 0 0 0 .17-.107Z" style="fill:#231f20;fill-rule:nonzero" transform="matrix(16 0 0 16 522.053 320)"/><path d="M.18-.383V-.48H.06S.1-.45.1-.4v.32C.1-.03.06 0 .06 0h.16S.18-.03.18-.08v-.2c0-.11.07-.17.135-.17.055 0 .105.03.105.13v.24C.42-.03.38 0 .38 0h.16S.5-.03.5-.08v-.2c0-.11.07-.17.135-.17.055 0 .105.03.105.13v.24C.74-.03.7 0 .7 0h.16S.82-.03.82-.08v-.24c0-.12-.07-.17-.15-.17a.19.19 0 0 0-.175.119A.14.14 0 0 0 .35-.49a.19.19 0 0 0-.17.107Z" style="fill:#231f20;fill-rule:nonzero" transform="matrix(16 0 0 16 531.653 320)"/><path d="M.07-.045c0 .03.025.055.055.055S.18-.015.18-.045A.055.055 0 0 0 .125-.1a.055.055 0 0 0-.055.055Z" style="fill:#231f20;fill-rule:nonzero" transform="matrix(16 0 0 16 546.373 320)"/><path d="M562.969 380.084c-.552 0-1.038-.096-1.458-.288-.42-.192-.75-.46-.99-.804a2.111 2.111 0 0 1-.384-1.152h.888c.04.408.22.766.54 1.074.32.308.788.462 1.404.462.568 0 1.018-.146 1.35-.438.332-.292.498-.662.498-1.11 0-.36-.092-.65-.276-.87a1.69 1.69 0 0 0-.684-.492 10.612 10.612 0 0 0-1.128-.354 9.862 9.862 0 0 1-1.332-.444 2.12 2.12 0 0 1-.84-.672c-.232-.304-.348-.716-.348-1.236 0-.432.112-.818.336-1.158.224-.34.54-.606.948-.798.408-.192.876-.288 1.404-.288.776 0 1.402.19 1.878.57.476.38.75.87.822 1.47h-.912c-.056-.344-.244-.65-.564-.918-.32-.268-.752-.402-1.296-.402-.504 0-.924.134-1.26.402-.336.268-.504.634-.504 1.098 0 .352.092.636.276.852.184.216.414.38.69.492.276.112.65.232 1.122.36.544.152.984.302 1.32.45.336.148.62.374.852.678.232.304.348.712.348 1.224 0 .392-.104.764-.312 1.116a2.277 2.277 0 0 1-.924.852c-.408.216-.896.324-1.464.324Zm-34.656 0c-.552 0-1.038-.096-1.458-.288-.42-.192-.75-.46-.99-.804a2.111 2.111 0 0 1-.384-1.152h.888c.04.408.22.766.54 1.074.32.308.788.462 1.404.462.568 0 1.018-.146 1.35-.438.332-.292.498-.662.498-1.11 0-.36-.092-.65-.276-.87a1.69 1.69 0 0 0-.684-.492 10.612 10.612 0 0 0-1.128-.354 9.862 9.862 0 0 1-1.332-.444 2.12 2.12 0 0 1-.84-.672c-.232-.304-.348-.716-.348-1.236 0-.432.112-.818.336-1.158.224-.34.54-.606.948-.798.408-.192.876-.288 1.404-.288.776 0 1.402.19 1.878.57.476.38.75.87.822 1.47h-.912c-.056-.344-.244-.65-.564-.918-.32-.268-.752-.402-1.296-.402-.504 0-.924.134-1.26.402-.336.268-.504.634-.504 1.098 0 .352.092.636.276.852.184.216.414.38.69.492.276.112.65.232 1.122.36.544.152.984.302 1.32.45.336.148.62.374.852.678.232.304.348.712.348 1.224 0 .392-.104.764-.312 1.116a2.277 2.277 0 0 1-.924.852c-.408.216-.896.324-1.464.324Zm38.592-4.284c0-.824.18-1.562.54-2.214a3.92 3.92 0 0 1 1.476-1.524 4.067 4.067 0 0 1 2.088-.546c.936 0 1.738.222 2.406.666.668.444 1.154 1.07 1.458 1.878h-.984a2.886 2.886 0 0 0-1.098-1.332c-.492-.32-1.086-.48-1.782-.48-.616 0-1.17.144-1.662.432a3 3 0 0 0-1.158 1.242c-.28.54-.42 1.166-.42 1.878s.14 1.336.42 1.872c.28.536.666.948 1.158 1.236a3.228 3.228 0 0 0 1.662.432c.696 0 1.29-.158 1.782-.474a2.86 2.86 0 0 0 1.098-1.314h.984c-.304.8-.792 1.42-1.464 1.86-.672.44-1.472.66-2.4.66a4.067 4.067 0 0 1-2.088-.546 3.931 3.931 0 0 1-1.476-1.518c-.36-.648-.54-1.384-.54-2.208Zm-89.796-4.236c.808 0 1.526.18 2.154.54.628.36 1.116.86 1.464 1.5.348.64.522 1.372.522 2.196 0 .824-.174 1.558-.522 2.202a3.763 3.763 0 0 1-1.464 1.506c-.628.36-1.346.54-2.154.54-.808 0-1.526-.18-2.154-.54a3.763 3.763 0 0 1-1.464-1.506c-.348-.644-.522-1.378-.522-2.202 0-.824.174-1.556.522-2.196.348-.64.836-1.14 1.464-1.5.628-.36 1.346-.54 2.154-.54Zm35.388.552h-4.392v3.072c.2-.28.492-.51.876-.69.384-.18.8-.27 1.248-.27.656 0 1.192.134 1.608.402.416.268.716.616.9 1.044.184.428.276.886.276 1.374 0 .56-.106 1.066-.318 1.518-.212.452-.536.81-.972 1.074-.436.264-.978.396-1.626.396-.824 0-1.492-.214-2.004-.642-.512-.428-.824-1.006-.936-1.734h.828c.104.528.344.936.72 1.224.376.288.84.432 1.392.432.696 0 1.222-.206 1.578-.618.356-.412.534-.958.534-1.638 0-.664-.18-1.182-.54-1.554-.36-.372-.876-.558-1.548-.558-.464 0-.872.108-1.224.324a1.967 1.967 0 0 0-.78.876h-.792v-4.764h5.172v.732Zm-19.68 3.504c0-1.376.212-2.444.636-3.204.424-.76 1.184-1.14 2.28-1.14 1.096 0 1.856.38 2.28 1.14.424.76.636 1.828.636 3.204 0 1.4-.212 2.484-.636 3.252-.424.768-1.184 1.152-2.28 1.152-1.104 0-1.866-.384-2.286-1.152-.42-.768-.63-1.852-.63-3.252Zm29.988 2.388h-3.816l-.732 1.992h-.888l3.06-8.28h.948l3.048 8.28h-.888l-.732-1.992Zm59.964-6.396V380h-.84v-3.924h-4.548V380h-.84v-8.388h.84v3.768h4.548v-3.768h.84Zm-45.228 0v.696h-2.328V380h-.84v-7.692h-2.34v-.696h5.508Zm9.216 0V380h-.84v-8.388h.84Zm52.512.684v3.132h3.18v.696h-3.18v3.18h3.54V380h-4.38v-8.4h4.38v.696h-3.54Zm-2.22-.684v.696h-3.696v3.132h3.12v.696h-3.12V380h-.84v-8.388h4.536ZM543.337 380l-2.076-3.504h-1.548V380h-.84v-8.388h2.52c.936 0 1.646.224 2.13.672.484.448.726 1.036.726 1.764 0 .608-.174 1.126-.522 1.554-.348.428-.862.706-1.542.834l2.16 3.564h-1.008Zm65.592 0-2.076-3.504h-1.548V380h-.84v-8.388h2.52c.936 0 1.646.224 2.13.672.484.448.726 1.036.726 1.764 0 .608-.174 1.126-.522 1.554-.348.428-.862.706-1.542.834l2.16 3.564h-1.008Zm-57.78-8.388c.928 0 1.724.168 2.388.504.664.336 1.172.82 1.524 1.452.352.632.528 1.384.528 2.256 0 .864-.176 1.61-.528 2.238a3.493 3.493 0 0 1-1.524 1.44c-.664.332-1.46.498-2.388.498h-2.484v-8.388h2.484Zm38.4 6.396h-3.816l-.732 1.992h-.888l3.06-8.28h.948l3.048 8.28h-.888l-.732-1.992Zm-103.764 1.332c1.472-1.104 2.61-2.094 3.414-2.97.804-.876 1.206-1.734 1.206-2.574 0-.552-.138-.994-.414-1.326-.276-.332-.726-.498-1.35-.498-.608 0-1.078.19-1.41.57-.332.38-.518.886-.558 1.518h-.816c.048-.888.322-1.578.822-2.07.5-.492 1.154-.738 1.962-.738.776 0 1.404.218 1.884.654.48.436.72 1.054.72 1.854 0 .968-.402 1.906-1.206 2.814-.804.908-1.794 1.794-2.97 2.658h4.44v.708h-5.724v-.6Zm14.256 0c1.472-1.104 2.61-2.094 3.414-2.97.804-.876 1.206-1.734 1.206-2.574 0-.552-.138-.994-.414-1.326-.276-.332-.726-.498-1.35-.498-.608 0-1.078.19-1.41.57-.332.38-.518.886-.558 1.518h-.816c.048-.888.322-1.578.822-2.07.5-.492 1.154-.738 1.962-.738.776 0 1.404.218 1.884.654.48.436.72 1.054.72 1.854 0 .968-.402 1.906-1.206 2.814-.804.908-1.794 1.794-2.97 2.658h4.44v.708h-5.724v-.6Zm-22.932-7.38c-.752 0-1.406.162-1.962.486a3.32 3.32 0 0 0-1.29 1.356c-.304.58-.456 1.246-.456 1.998s.152 1.418.456 1.998c.304.58.736 1.032 1.296 1.356.56.324 1.212.486 1.956.486s1.396-.162 1.956-.486c.56-.324.992-.776 1.296-1.356.304-.58.456-1.246.456-1.998s-.152-1.418-.456-1.998a3.32 3.32 0 0 0-1.29-1.356c-.556-.324-1.21-.486-1.962-.486Zm74.04 7.344c1.168 0 2.058-.306 2.67-.918.612-.612.918-1.466.918-2.562 0-1.104-.306-1.966-.918-2.586-.612-.62-1.502-.93-2.67-.93h-1.644v6.996h1.644Zm-53.328-3.684c0-.744-.052-1.372-.156-1.884-.104-.512-.308-.924-.612-1.236-.304-.312-.744-.468-1.32-.468-.576 0-1.016.156-1.32.468-.304.312-.508.724-.612 1.236-.104.512-.156 1.14-.156 1.884 0 .768.052 1.41.156 1.926.104.516.308.93.612 1.242.304.312.744.468 1.32.468.576 0 1.016-.156 1.32-.468.304-.312.508-.726.612-1.242.104-.516.156-1.158.156-1.926Zm-20.712-2.628c-.48 0-.916.112-1.308.336a2.437 2.437 0 0 0-.936.972c-.232.424-.348.92-.348 1.488 0 .576.116 1.076.348 1.5.232.424.544.748.936.972a2.59 2.59 0 0 0 1.308.336c.592 0 1.11-.162 1.554-.486.444-.324.742-.762.894-1.314h-.78c-.128.384-.336.676-.624.876-.288.2-.636.3-1.044.3-.528 0-.966-.19-1.314-.57-.348-.38-.522-.914-.522-1.602 0-.688.174-1.224.522-1.608a1.698 1.698 0 0 1 1.314-.576c.392 0 .738.102 1.038.306.3.204.51.498.63.882h.78c-.152-.576-.448-1.022-.888-1.338-.44-.316-.96-.474-1.56-.474Zm45.444 4.32-1.656-4.536-1.656 4.536h3.312Zm66.744 0-1.656-4.536-1.656 4.536h3.312Zm-49.584-1.5h1.692c.656 0 1.15-.16 1.482-.48.332-.32.498-.748.498-1.284 0-.552-.16-.978-.48-1.278-.32-.3-.824-.45-1.512-.45h-1.68v3.492Zm65.592 0h1.692c.656 0 1.15-.16 1.482-.48.332-.32.498-.748.498-1.284 0-.552-.16-.978-.48-1.278-.32-.3-.824-.45-1.512-.45h-1.68v3.492Zm-18.576-5.016a.532.532 0 0 1-.39-.162.532.532 0 0 1-.162-.39c0-.152.054-.282.162-.39a.532.532 0 0 1 .39-.162c.152 0 .282.054.39.162a.532.532 0 0 1 .162.39.532.532 0 0 1-.162.39.532.532 0 0 1-.39.162Zm1.848 0a.532.532 0 0 1-.39-.162.532.532 0 0 1-.162-.39c0-.152.054-.282.162-.39a.532.532 0 0 1 .39-.162c.152 0 .28.054.384.162a.542.542 0 0 1 .156.39.542.542 0 0 1-.156.39.512.512 0 0 1-.384.162Z" style="fill:#231f20"/><path d="M1612 3113C846 2877 295 2168 295 1321.33h104c0 971 792 1771 1771 1771s1771-800 1771-1770.83h104c0 847-551 1556-1317 1791.67h946v70.833H2389c-119 14-239 16-358 7-27-2-54-4-80-7.491H666v-71" style="fill:#575767" transform="matrix(.01095 0 0 .01095 405.504 343.626)"/><path d="M392.021 377.392a1.918 1.918 0 0 1 0 3.833 1.918 1.918 0 0 1 0-3.833Zm-36.144 0a1.918 1.918 0 0 1 0 3.833 1.917 1.917 0 0 1 0-3.833Z" style="fill:#c83154" transform="translate(55.333 -1.225)"/><path d="M167 1041.67h333v333H167v-333Zm3667 0h333v333h-333v-333ZM2001 2958.34h333v333h-333v-333Z" style="fill:#fff" transform="matrix(.01095 0 0 .01095 405.504 343.626)"/><path d="M.1-.08C.1-.03.06 0 .06 0h.165s-.04-.03-.04-.08v-.24H.23c.09 0 .12.07.12.07v-.17s-.03.07-.12.07H.185v-.28H.26c.17 0 .19.11.19.11h.01v-.14h-.4s.04.03.04.08v.5Z" style="fill:#231f20;fill-rule:nonzero" transform="matrix(92 0 0 92 20 100)"/><path d="M.28-.49c-.138 0-.24.1-.24.25s.102.25.24.25.24-.1.24-.25S.418-.49.28-.49Zm-.02.03c.083 0 .17.11.17.24s-.047.2-.13.2S.13-.13.13-.26s.047-.2.13-.2Z" style="fill:#231f20;fill-rule:nonzero" transform="matrix(92 0 0 92 59.015 100)"/><path d="M.18-.383V-.48H.06S.1-.45.1-.4v.32C.1-.03.06 0 .06 0h.16S.18-.03.18-.08v-.2c0-.11.07-.17.135-.17.055 0 .105.03.105.13v.24C.42-.03.38 0 .38 0h.16S.5-.03.5-.08v-.24C.5-.44.43-.49.35-.49a.19.19 0 0 0-.17.107Z" style="fill:#231f20;fill-rule:nonzero" transform="matrix(92 0 0 92 110.534 100)"/><path d="M.08-.09c0 .073.043.1.09.1.053 0 .1-.038.11-.08H.27c-.008.022-.04.045-.067.045C.18-.025.16-.042.16-.09v-.36h.1v-.03h-.1V-.6l-.08.08v.04H.04v.03h.04v.36Z" style="fill:#231f20;fill-rule:nonzero" transform="matrix(92 0 0 92 165.734 100)"/><path d="M.58.01v-.59c0-.05.04-.08.04-.08H.51s.04.03.04.08v.42L.206-.62C.176-.66.15-.66.11-.66H.06s.04.03.04.08v.5C.1-.03.06 0 .06 0h.11S.13-.03.13-.08v-.5l.44.59h.01Z" style="fill:#231f20;fill-rule:nonzero" transform="matrix(92 0 0 92 216.334 100)"/><path d="M.28-.49c-.138 0-.24.1-.24.25s.102.25.24.25.24-.1.24-.25S.418-.49.28-.49Zm-.02.03c.083 0 .17.11.17.24s-.047.2-.13.2S.13-.13.13-.26s.047-.2.13-.2Z" style="fill:#231f20;fill-rule:nonzero" transform="matrix(92 0 0 92 278.894 100)"/><path d="M.226-.08c0 .05-.04.08-.04.08h.16s-.04-.03-.04-.08v-.58l-.01-.01-.24.13.01.02.08-.03a.15.15 0 0 1 .047-.011c.019 0 .033.01.033.036v.445Z" style="fill:#231f20;fill-rule:nonzero" transform="matrix(92 0 0 92 337.854 100)"/><path d="m659.773 359.072.006-.006L680 379.287l-.713.713-19.514-19.514L640.26 380l-.713-.713 20.221-20.221.005.006Z" style="fill:#231f20"/><path d="M.06-.47c0 .204.37.178.37.33 0 .079-.064.12-.14.12a.265.265 0 0 1-.24-.17H.04l.02.159a.57.57 0 0 0 .2.041c.153 0 .23-.096.23-.2 0-.204-.37-.179-.37-.33 0-.08.056-.12.122-.12.073 0 .157.049.188.15h.01v-.139A.353.353 0 0 0 .27-.67c-.104 0-.21.05-.21.2Z" style="fill:#231f20;fill-rule:nonzero" transform="matrix(24 0 0 24 407.333 100)"/><path d="M.13-.193.39-.28c.036-.012.051-.038.051-.067C.441-.41.371-.49.265-.49c-.129 0-.225.1-.225.25s.096.25.225.25A.218.218 0 0 0 .48-.16H.47a.167.167 0 0 1-.158.115.193.193 0 0 1-.182-.148ZM.123-.225A.315.315 0 0 1 .12-.269c0-.125.075-.191.143-.191.063 0 .094.046.094.091a.086.086 0 0 1-.056.084c-.166.058-.177.06-.178.06Z" style="fill:#231f20;fill-rule:nonzero" transform="matrix(24 0 0 24 420.053 100)"/><path d="M.18-.42v-.06H.06S.1-.45.1-.4v.32C.1-.03.06 0 .06 0h.16S.18-.03.18-.08v-.24c0-.082.032-.13.062-.13.02 0 .04.022.048.07l.09-.05a.105.105 0 0 0-.095-.06.113.113 0 0 0-.105.07Z" style="fill:#231f20;fill-rule:nonzero" transform="matrix(24 0 0 24 431.573 100)"/><path d="M.18-.48H.06S.1-.45.1-.4v.32C.1-.03.06 0 .06 0h.16S.18-.03.18-.08v-.4Zm-.1-.175c0 .03.025.055.055.055S.19-.625.19-.655A.055.055 0 0 0 .135-.71a.055.055 0 0 0-.055.055Z" style="fill:#231f20;fill-rule:nonzero" transform="matrix(24 0 0 24 440.213 100)"/><path d="M.29-.71C.195-.71.1-.64.1-.48H.06v.03H.1v.37C.1-.03.06 0 .06 0h.16S.18-.03.18-.08v-.37h.1v-.03h-.1c0-.17.058-.2.11-.2.033 0 .074.022.074.078 0 .01-.001.02-.004.032l.09-.05a.185.185 0 0 0-.16-.09Z" style="fill:#231f20;fill-rule:nonzero" transform="matrix(24 0 0 24 446.933 100)"/><path d="M.29-.71C.195-.71.1-.64.1-.48H.06v.03H.1v.37C.1-.03.06 0 .06 0h.16S.18-.03.18-.08v-.37h.1v-.03h-.1c0-.17.058-.2.11-.2.033 0 .074.022.074.078 0 .01-.001.02-.004.032l.09-.05a.185.185 0 0 0-.16-.09Z" style="fill:#231f20;fill-rule:nonzero" transform="matrix(24 0 0 24 460.613 100)"/><path d="M.28-.49c-.138 0-.24.1-.24.25s.102.25.24.25.24-.1.24-.25S.418-.49.28-.49Zm-.02.03c.083 0 .17.11.17.24s-.047.2-.13.2S.13-.13.13-.26s.047-.2.13-.2Z" style="fill:#231f20;fill-rule:nonzero" transform="matrix(24 0 0 24 468.293 100)"/><path d="M.18-.383V-.48H.06S.1-.45.1-.4v.32C.1-.03.06 0 .06 0h.16S.18-.03.18-.08v-.2c0-.11.07-.17.135-.17.055 0 .105.03.105.13v.24C.42-.03.38 0 .38 0h.16S.5-.03.5-.08v-.24C.5-.44.43-.49.35-.49a.19.19 0 0 0-.17.107Z" style="fill:#231f20;fill-rule:nonzero" transform="matrix(24 0 0 24 481.733 100)"/><path d="M.08-.09c0 .073.043.1.09.1.053 0 .1-.038.11-.08H.27c-.008.022-.04.045-.067.045C.18-.025.16-.042.16-.09v-.36h.1v-.03h-.1V-.6l-.08.08v.04H.04v.03h.04v.36Z" style="fill:#231f20;fill-rule:nonzero" transform="matrix(24 0 0 24 496.133 100)"/><path d="M.29-.71C.195-.71.1-.64.1-.48H.06v.03H.1v.37C.1-.03.06 0 .06 0h.16S.18-.03.18-.08v-.37h.1v-.03h-.1c0-.17.058-.2.11-.2.033 0 .074.022.074.078 0 .01-.001.02-.004.032l.09-.05a.185.185 0 0 0-.16-.09Z" style="fill:#231f20;fill-rule:nonzero" transform="matrix(24 0 0 24 509.333 100)"/><path d="M.28-.49c-.138 0-.24.1-.24.25s.102.25.24.25.24-.1.24-.25S.418-.49.28-.49Zm-.02.03c.083 0 .17.11.17.24s-.047.2-.13.2S.13-.13.13-.26s.047-.2.13-.2Z" style="fill:#231f20;fill-rule:nonzero" transform="matrix(24 0 0 24 517.013 100)"/><path d="M.18-.42v-.06H.06S.1-.45.1-.4v.32C.1-.03.06 0 .06 0h.16S.18-.03.18-.08v-.24c0-.082.032-.13.062-.13.02 0 .04.022.048.07l.09-.05a.105.105 0 0 0-.095-.06.113.113 0 0 0-.105.07Z" style="fill:#231f20;fill-rule:nonzero" transform="matrix(24 0 0 24 530.453 100)"/><path d="M.18-.38V-.7H.06s.04.03.04.08v.54C.1-.03.06 0 .06 0h.12v-.075A.174.174 0 0 0 .33.01c.112 0 .21-.119.21-.26 0-.141-.078-.24-.19-.24-.068 0-.131.044-.17.11Zm0 .255v-.2C.205-.388.252-.43.305-.43c.08 0 .145.086.145.205S.385-.02.305-.02c-.053 0-.1-.042-.125-.105Z" style="fill:#231f20;fill-rule:nonzero" transform="matrix(24 0 0 24 545.093 100)"/><path d="M.28-.49c-.138 0-.24.1-.24.25s.102.25.24.25.24-.1.24-.25S.418-.49.28-.49Zm-.02.03c.083 0 .17.11.17.24s-.047.2-.13.2S.13-.13.13-.26s.047-.2.13-.2Z" style="fill:#231f20;fill-rule:nonzero" transform="matrix(24 0 0 24 559.013 100)"/><path d="M.28-.49c-.138 0-.24.1-.24.25s.102.25.24.25.24-.1.24-.25S.418-.49.28-.49Zm-.02.03c.083 0 .17.11.17.24s-.047.2-.13.2S.13-.13.13-.26s.047-.2.13-.2Z" style="fill:#231f20;fill-rule:nonzero" transform="matrix(24 0 0 24 572.453 100)"/><path d="m.22-.28.142.2c.014.02.018.036.018.049C.38-.011.37 0 .37 0h.21S.494-.03.459-.08L.297-.31l.09-.09C.438-.45.54-.48.54-.48H.37s.006.008.006.021c0 .014-.006.034-.032.059L.22-.28ZM.18-.7H.06s.04.03.04.08v.54C.1-.03.06 0 .06 0h.16S.18-.03.18-.08V-.7Z" style="fill:#231f20;fill-rule:nonzero" transform="matrix(24 0 0 24 585.893 100)"/><path d="M.46-.369A.217.217 0 0 0 .265-.49c-.129 0-.225.1-.225.25s.096.25.225.25A.218.218 0 0 0 .48-.16H.47a.167.167 0 0 1-.158.115C.218-.045.12-.125.12-.269c0-.125.075-.191.143-.191.056 0 .107.045.107.141l.09-.05Z" style="fill:#231f20;fill-rule:nonzero" transform="matrix(24 0 0 24 605.813 100)"/><path d="M.28-.49c-.138 0-.24.1-.24.25s.102.25.24.25.24-.1.24-.25S.418-.49.28-.49Zm-.02.03c.083 0 .17.11.17.24s-.047.2-.13.2S.13-.13.13-.26s.047-.2.13-.2Z" style="fill:#231f20;fill-rule:nonzero" transform="matrix(24 0 0 24 617.333 100)"/><path d="M.23.01h.01l.185-.43C.442-.46.48-.48.48-.48H.37s.026.013.026.04a.05.05 0 0 1-.004.02l-.129.29-.111-.29a.06.06 0 0 1-.004-.017C.148-.465.18-.48.18-.48H0s.051.02.066.06L.23.01Z" style="fill:#231f20;fill-rule:nonzero" transform="matrix(24 0 0 24 630.773 100)"/><path d="M.13-.193.39-.28c.036-.012.051-.038.051-.067C.441-.41.371-.49.265-.49c-.129 0-.225.1-.225.25s.096.25.225.25A.218.218 0 0 0 .48-.16H.47a.167.167 0 0 1-.158.115.193.193 0 0 1-.182-.148ZM.123-.225A.315.315 0 0 1 .12-.269c0-.125.075-.191.143-.191.063 0 .094.046.094.091a.086.086 0 0 1-.056.084c-.166.058-.177.06-.178.06Z" style="fill:#231f20;fill-rule:nonzero" transform="matrix(24 0 0 24 642.293 100)"/><path d="M.18-.42v-.06H.06S.1-.45.1-.4v.32C.1-.03.06 0 .06 0h.16S.18-.03.18-.08v-.24c0-.082.032-.13.062-.13.02 0 .04.022.048.07l.09-.05a.105.105 0 0 0-.095-.06.113.113 0 0 0-.105.07Z" style="fill:#231f20;fill-rule:nonzero" transform="matrix(24 0 0 24 653.813 100)"/><path d="M.06-.33c0 .14.26.12.26.24 0 .045-.048.07-.103.07C.151-.02.073-.056.05-.14H.04l.022.12c.056.021.106.03.147.03C.322.01.38-.073.38-.15c0-.14-.26-.12-.26-.24 0-.045.039-.07.084-.07.053 0 .115.034.136.11h.01v-.11a.277.277 0 0 0-.13-.03c-.076 0-.16.049-.16.16Z" style="fill:#231f20;fill-rule:nonzero" transform="matrix(24 0 0 24 662.453 100)"/><path d="M.07-.045c0 .03.025.055.055.055S.18-.015.18-.045A.055.055 0 0 0 .125-.1a.055.055 0 0 0-.055.055Z" style="fill:#231f20;fill-rule:nonzero" transform="matrix(24 0 0 24 672.533 100)"/><path d="M239.53 160h135.855l-.165 219.836-135.69.063V160Zm1.503 178.461c2.036 10.71 7.923 20.954 16.275 28.317 8.348 7.358 19.81 12.263 30.161 12.547l2.76.027v-49.934l-50.044-.148.115 3.214c.116 1.779.446 4.469.733 5.977Zm-.846 40.883s41.66-.091 39.541-.536c-16.268-3.42-30.57-15.588-36.586-31.128-1.155-2.983-2.314-6.925-2.723-9.259-.079-.45-.232 40.923-.232 40.923Zm61.691-.101c0 .057 72.837.101 72.837.101s.094-72.299-.007-72.436c-.101-.136-.375 1.107-.61 2.763-.583 4.111-2.631 11.519-4.478 16.198-9.101 23.057-27.172 40.691-50.322 49.105-4.15 1.509-10.79 3.231-14.44 3.747-1.639.231-2.98.466-2.98.522Zm-9.607.097c.862-.001 3.339-.154 5.505-.337 33.897-2.873 62.838-26.043 73.139-58.552 2.168-6.843 3.807-16.68 3.811-22.87l.001-2.047h-41.784c-22.982 0-41.869.085-41.971.187-.103.102-.266 83.623-.266 83.623l1.567-.003-.002-.001Zm-17.212-50.74c.591 0 2.062-.273 3.269-.608 6.177-1.708 11.251-7.426 11.66-13.139l.165-2.295h-16.168V328.6h1.074Zm-34.871 0h33.141v-32.738h-2.147c-5.431 0-12.121 2.417-17.542 6.339-7.627 5.518-13.274 15.899-13.424 24.68l-.028 1.719Zm50.096-.112c.067-.189-.052-10.845-.052-10.845l-1.122 2.275c-1.495 3.031-4.715 6.219-7.622 7.545l-2.133.973s10.75.122 10.929.052Zm0 0v.003l.002-.003h-.002Zm-49.475-8.891c3.136-10.681 11.748-19.634 21.89-22.756 1.244-.383 2.558-.823 2.919-.979.384-.166-25.432-.328-25.432-.328s.05 26.019.622 24.063h.001Zm33.177-7.693s16.042-.073 16.13-.161c.088-.088.043-1.156-.104-2.373-.793-6.651-7.14-12.86-13.707-13.409l-2.319-.194v16.137Zm7.437-15.083c2.873 1.342 6.504 4.956 7.663 7.629.448 1.032.929 1.879 1.069 1.882.14.003.073-10.634.073-10.634s-10.993-.117-10.993-.041c0 .077.984.6 2.187 1.162l.001.002Zm26.085-1.94h67.322l-.217-5.507c-1.122-28.483-11.681-56.374-29.786-78.678-20.734-25.542-49.781-42.61-81.834-48.084-6.751-1.153-10.828-1.581-17.638-1.853l-5.168-.207v134.329h67.321Zm-40.906-132.265c12.032 2.477 22.077 5.882 32.815 11.125 34.412 16.8 60.238 47.592 70.714 84.308 2.031 7.119 4.268 18.428 4.268 21.58 0 .705.077 1.206.171 1.112.094-.093.321-120.087.321-120.087s-119.942.128-116.821.508c1.986.241 5.825.895 8.532 1.452v.002Z" style="fill:#231f20;fill-rule:nonzero"/><path d="M.219-.6H.211l-.026.141-.143-.02-.002.008.127.068-.063.128.007.005.104-.099.104.099.007-.005-.063-.128.127-.068-.002-.008-.143.02L.219-.6Z" style="fill:#231f20;fill-rule:nonzero" transform="matrix(30 0 0 30 157.927 260)"/><path d="M.125-.08a.045.045 0 0 0-.045.045C.08-.01.1.01.125.01.15.01.17-.01.17-.035A.045.045 0 0 0 .125-.08Z" style="fill:#231f20;fill-rule:nonzero" transform="matrix(30 0 0 30 170.827 260)"/><path d="M.054 0h.01c.005-.015.011-.02.019-.02.021 0 .047.03.101.03a.13.13 0 0 0 .13-.128c0-.125-.208-.122-.208-.215 0-.032.031-.059.067-.059.043 0 .082.037.106.102h.01V-.4h-.01c-.005.015-.01.021-.017.021C.243-.379.223-.41.174-.41a.116.116 0 0 0-.117.114c0 .125.209.122.209.217 0 .038-.037.071-.081.071-.054 0-.098-.045-.121-.122h-.01V0Z" style="fill:#231f20;fill-rule:nonzero" transform="matrix(30 0 0 30 178.327 260)"/><path d="M.226-.09.128-.33a.052.052 0 0 1-.004-.021c0-.023.015-.039.041-.039V-.4H-.01v.01c.025 0 .048.026.062.06l.139.34h.01L.34-.33c.014-.033.041-.06.07-.06V-.4H.27v.01c.036 0 .058.016.058.04a.053.053 0 0 1-.005.02l-.097.24Z" style="fill:#231f20;fill-rule:nonzero" transform="matrix(30 0 0 30 189.007 260)"/><path d="M.323-.344c.018-.02.037-.029.055-.029.03 0 .053.025.058.063.014-.008.022-.028.022-.048C.458-.39.437-.41.404-.41c-.031 0-.065.02-.091.053A.141.141 0 0 0 .195-.41C.111-.41.05-.354.05-.275c0 .049.025.091.066.115a.103.103 0 0 0-.048.09c0 .038.028.067.078.08C.083.021.038.057.038.101.038.159.11.2.211.2.329.2.401.141.401.045c0-.157-.303-.057-.303-.146 0-.021.017-.042.035-.051a.16.16 0 0 0 .062.012C.28-.14.34-.195.34-.275a.138.138 0 0 0-.017-.069ZM.165.01h.003c.15 0 .201.036.201.074C.369.137.3.182.215.182.145.182.1.148.1.097.1.061.127.025.165.01Zm.03-.402c.049 0 .079.045.079.117 0 .072-.03.116-.079.116S.116-.204.116-.275c0-.072.031-.117.079-.117Z" style="fill:#231f20;fill-rule:nonzero" transform="matrix(30 0 0 30 201.007 260)"/><path d="M.16-.22h.224l.051.14a.066.066 0 0 1 .004.023C.439-.021.408 0 .408 0H.6S.543-.03.525-.08L.31-.67H.3l-.226.59C.055-.03 0 0 0 0h.13S.101-.02.101-.055A.08.08 0 0 1 .106-.08L.16-.22Zm.011-.03.104-.27.098.27H.171Z" style="fill:#231f20;fill-rule:nonzero" transform="translate(245.884 280) scale(100.016)"/><path d="M.34-.093v.038c0 .036.036.065.08.065A.08.08 0 0 0 .5-.06H.49c-.008.025-.026.038-.041.038C.433-.022.42-.035.42-.06v-.26c0-.119-.07-.17-.15-.17-.088 0-.177.05-.19.12l.09.05a.172.172 0 0 1-.008-.048c0-.058.04-.092.082-.092.047 0 .096.042.096.14v.05c-.08.01-.3-.001-.3.15 0 .087.062.13.149.13A.17.17 0 0 0 .34-.093Zm0-.147v.04c0 .102-.068.18-.12.18-.04 0-.09-.03-.09-.1 0-.11.13-.11.21-.12Z" style="fill:#231f20;fill-rule:nonzero" transform="translate(305.894 280) scale(100.016)"/><path d="M.163-.18c-.036 0-.075.038-.075.06 0 .171.355.05.355.17 0 .056-.075.086-.152.086C.215.136.137.105.137.039.137.03.139.02.142.01L.045.06c0 .082.1.13.204.13C.354.19.475.139.475.02c0-.171-.323-.05-.323-.17 0-.01.01-.018.023-.025.026.01.055.016.085.016.116 0 .194-.066.194-.166A.158.158 0 0 0 .336-.48c.019-.019.032-.025.041-.025.017 0 .028.017.045.017L.43-.489a.03.03 0 0 0 .024-.029c0-.003 0-.005-.002-.008C.449-.539.434-.55.413-.55l-.018.002a.105.105 0 0 0-.069.068.269.269 0 0 0-.066-.01c-.116 0-.194.066-.194.165 0 .067.039.119.097.145Zm.085-.29c.07 0 .12.069.12.155s-.027.137-.097.137-.119-.07-.119-.156S.179-.47.248-.47Z" style="fill:#231f20;fill-rule:nonzero" transform="translate(8.557 320) scale(325.4)"/></svg>