<svg xmlns="http://www.w3.org/2000/svg" xml:space="preserve" style="fill-rule:evenodd;clip-rule:evenodd;stroke-linejoin:round;stroke-miterlimit:2" viewBox="0 0 700 400"><path d="M351 199h83v66.471h-83z" style="fill:#89838d" transform="matrix(8.43373 0 0 6.01766 -2960.24 -1197.51)"/><path d="M.07-.23.04-.2h.03v.17L.04 0h.11L.12-.03V-.2h.03L.12-.23v-.42H.04l.03.03v.39Z" style="fill:#231f20;fill-rule:nonzero" transform="matrix(20 0 0 20 407.333 180)"/><path d="M.05-.23.02-.2h.03v.15L.1 0h.1l.05-.05V-.2h.03L.25-.23v-.12L.2-.4H.1l-.05.05v.12ZM.1-.2h.03L.1-.23v-.11l.02-.02h.06l.02.02v.11L.17-.2H.2v.14l-.02.02H.12L.1-.06V-.2Z" style="fill:#231f20;fill-rule:nonzero" transform="matrix(20 0 0 20 411.132 180)"/><path d="M.12-.03V-.2h.03L.12-.23v-.11l.02-.02H.2l.02.02v.04l.05.028V-.35L.22-.4H.04l.03.03v.14L.04-.2h.03v.17L.04 0h.11L.12-.03Z" style="fill:#231f20;fill-rule:nonzero" transform="matrix(20 0 0 20 417.128 180)"/><path d="M.04-.05.09 0h.1l.05-.05v-.078L.19-.1v.04l-.02.02H.11L.09-.06v-.104L.24-.25v-.1L.19-.4h-.1l-.05.05v.3Zm.15-.229-.1.057V-.34l.02-.02h.06l.02.02v.061Z" style="fill:#231f20;fill-rule:nonzero" transform="matrix(20 0 0 20 422.92 180)"/><path d="M.22-.34v.11L.19-.2h.03v.17L.19 0H.3L.27-.03V-.2H.3L.27-.23v-.11l.02-.02h.06l.02.02v.11L.34-.2h.03v.372L.34.2l.045.022L.42.3v-.5h.03L.42-.23v-.12L.37-.4H.04l.03.03v.14L.04-.2h.03v.17L.04 0h.11L.12-.03V-.2h.03L.12-.23v-.11l.02-.02H.2l.02.02Z" style="fill:#231f20;fill-rule:nonzero" transform="matrix(20 0 0 20 428.515 180)"/><path d="M.07-.23.04-.2h.03v.17L.04 0h.11L.12-.03V-.2h.03L.12-.23V-.4H.04l.03.03v.14ZM.075-.5v.02h.04V-.5h.02v-.04h-.02v-.02h-.04v.02h-.02v.04h.02Z" style="fill:#231f20;fill-rule:nonzero" transform="matrix(20 0 0 20 443.31 180)"/><path d="M.07.172.04.2l.045.022L.12.3V0h.1l.05-.05V-.2H.3L.27-.23v-.12L.22-.4H.04l.03.03v.14L.04-.2h.03v.372ZM.22-.23.19-.2h.03v.14L.2-.04H.14L.12-.06V-.2h.03L.12-.23v-.11l.02-.02H.2l.02.02v.11Z" style="fill:#231f20;fill-rule:nonzero" transform="matrix(20 0 0 20 447.108 180)"/><path d="M.17-.34v.061l.05.029v-.1L.17-.4h-.1l-.05.05v.104l.15.085v.101l-.02.02H.09L.07-.06v-.068L.02-.164v.114L.07 0h.1l.05-.05v-.128L.07-.264V-.34l.02-.02h.06l.02.02Z" style="fill:#231f20;fill-rule:nonzero" transform="matrix(20 0 0 20 453.905 180)"/><path d="M.3 0 .27-.03V-.2H.3L.27-.23V-.4H.19l.03.03v.14L.19-.2h.03v.14L.2-.04H.14L.12-.06V-.2h.03L.12-.23V-.4H.04l.03.03v.14L.04-.2h.03v.15L.12 0H.3Z" style="fill:#231f20;fill-rule:nonzero" transform="matrix(20 0 0 20 458.7 180)"/><path d="M.22-.34v.11L.19-.2h.03v.17L.19 0H.3L.27-.03V-.2H.3L.27-.23v-.11l.02-.02h.06l.02.02v.11L.34-.2h.03v.372L.34.2l.045.022L.42.3v-.5h.03L.42-.23v-.12L.37-.4H.04l.03.03v.14L.04-.2h.03v.17L.04 0h.11L.12-.03V-.2h.03L.12-.23v-.11l.02-.02H.2l.02.02Z" style="fill:#231f20;fill-rule:nonzero" transform="matrix(20 0 0 20 465.497 180)"/><path d="M.22-.4h-.1l-.05.05v.12L.04-.2h.03v.15L.12 0H.3L.27-.03V-.2H.3L.27-.23v-.42H.19l.03.03v.22Zm0 .17L.19-.2h.03v.14L.2-.04H.14L.12-.06V-.2h.03L.12-.23v-.11l.02-.02H.2l.02.02v.11Z" style="fill:#231f20;fill-rule:nonzero" transform="matrix(20 0 0 20 480.292 180)"/><path d="M.05-.23.02-.2h.03v.15L.1 0h.1l.05-.05V-.2h.03L.25-.23v-.12L.2-.4H.1l-.05.05v.12ZM.1-.2h.03L.1-.23v-.11l.02-.02h.06l.02.02v.11L.17-.2H.2v.14l-.02.02H.12L.1-.06V-.2Z" style="fill:#231f20;fill-rule:nonzero" transform="matrix(20 0 0 20 487.09 180)"/><path d="M.07-.23.04-.2h.03v.17L.04 0h.11L.12-.03V-.2h.03L.12-.23v-.42H.04l.03.03v.39Z" style="fill:#231f20;fill-rule:nonzero" transform="matrix(20 0 0 20 493.085 180)"/><path d="M.05-.23.02-.2h.03v.15L.1 0h.1l.05-.05V-.2h.03L.25-.23v-.12L.2-.4H.1l-.05.05v.12ZM.1-.2h.03L.1-.23v-.11l.02-.02h.06l.02.02v.11L.17-.2H.2v.14l-.02.02H.12L.1-.06V-.2Z" style="fill:#231f20;fill-rule:nonzero" transform="matrix(20 0 0 20 496.884 180)"/><path d="M.12-.03V-.2h.03L.12-.23v-.11l.02-.02H.2l.02.02v.04l.05.028V-.35L.22-.4H.04l.03.03v.14L.04-.2h.03v.17L.04 0h.11L.12-.03Z" style="fill:#231f20;fill-rule:nonzero" transform="matrix(20 0 0 20 502.88 180)"/><path d="M.17-.34v.061l.05.029v-.1L.17-.4h-.1l-.05.05v.104l.15.085v.101l-.02.02H.09L.07-.06v-.068L.02-.164v.114L.07 0h.1l.05-.05v-.128L.07-.264V-.34l.02-.02h.06l.02.02Z" style="fill:#231f20;fill-rule:nonzero" transform="matrix(20 0 0 20 513.671 180)"/><path d="M.07-.23.04-.2h.03v.17L.04 0h.11L.12-.03V-.2h.03L.12-.23V-.4H.04l.03.03v.14ZM.075-.5v.02h.04V-.5h.02v-.04h-.02v-.02h-.04v.02h-.02v.04h.02Z" style="fill:#231f20;fill-rule:nonzero" transform="matrix(20 0 0 20 518.466 180)"/><path d="M.07-.4H.006l.039.04H.07v.13L.04-.2h.03v.278L.105 0 .15-.022.12-.05V-.2h.03L.12-.23v-.13h.04L.12-.4v-.25L.07-.6v.2Z" style="fill:#231f20;fill-rule:nonzero" transform="matrix(20 0 0 20 522.265 180)"/><path d="M.09 0h.18L.24-.03v-.32L.19-.4h-.1l-.05.05v.078L.09-.3v-.04l.02-.02h.06l.02.02v.061l-.15.086v.143L.09 0Zm.1-.222v.162l-.02.02H.11L.09-.06v-.104l.1-.058Z" style="fill:#231f20;fill-rule:nonzero" transform="matrix(20 0 0 20 531.063 180)"/><path d="M.22-.34v.11L.19-.2h.03v.17L.19 0H.3L.27-.03V-.2H.3L.27-.23v-.11l.02-.02h.06l.02.02v.11L.34-.2h.03v.372L.34.2l.045.022L.42.3v-.5h.03L.42-.23v-.12L.37-.4H.04l.03.03v.14L.04-.2h.03v.17L.04 0h.11L.12-.03V-.2h.03L.12-.23v-.11l.02-.02H.2l.02.02Z" style="fill:#231f20;fill-rule:nonzero" transform="matrix(20 0 0 20 536.854 180)"/><path d="M.04-.05.09 0h.1l.05-.05v-.078L.19-.1v.04l-.02.02H.11L.09-.06v-.104L.24-.25v-.1L.19-.4h-.1l-.05.05v.3Zm.15-.229-.1.057V-.34l.02-.02h.06l.02.02v.061Z" style="fill:#231f20;fill-rule:nonzero" transform="matrix(20 0 0 20 546.65 180)"/><path d="M.07-.4H.006l.039.04H.07v.13L.04-.2h.03v.278L.105 0 .15-.022.12-.05V-.2h.03L.12-.23v-.13h.04L.12-.4v-.25L.07-.6v.2Z" style="fill:#231f20;fill-rule:nonzero" transform="matrix(20 0 0 20 552.245 180)"/><path d="M.1-.06H.04V0h.024L.04.072h.024L.1 0v-.06Z" style="fill:#231f20;fill-rule:nonzero" transform="matrix(20 0 0 20 556.044 180)"/><path d="M.27-.128.22-.1v.04L.2-.04H.14L.12-.06V-.2h.03L.12-.23v-.11l.02-.02H.2l.02.02v.04l.05.028V-.35L.22-.4h-.1l-.05.05v.12L.04-.2h.03v.15L.12 0h.1l.05-.05v-.078Z" style="fill:#231f20;fill-rule:nonzero" transform="matrix(20 0 0 20 563.837 180)"/><path d="M.05-.23.02-.2h.03v.15L.1 0h.1l.05-.05V-.2h.03L.25-.23v-.12L.2-.4H.1l-.05.05v.12ZM.1-.2h.03L.1-.23v-.11l.02-.02h.06l.02.02v.11L.17-.2H.2v.14l-.02.02H.12L.1-.06V-.2Z" style="fill:#231f20;fill-rule:nonzero" transform="matrix(20 0 0 20 570.028 180)"/><path d="M.22.172.19.2l.045.022L.27.3v-.5H.3L.27-.23v-.12L.22-.4H.04l.03.03v.14L.04-.2h.03v.17L.04 0h.11L.12-.03V-.2h.03L.12-.23v-.11l.02-.02H.2l.02.02v.11L.19-.2h.03v.372Z" style="fill:#231f20;fill-rule:nonzero" transform="matrix(20 0 0 20 576.024 180)"/><path d="M.17-.34v.061l.05.029v-.1L.17-.4h-.1l-.05.05v.104l.15.085v.101l-.02.02H.09L.07-.06v-.068L.02-.164v.114L.07 0h.1l.05-.05v-.128L.07-.264V-.34l.02-.02h.06l.02.02Z" style="fill:#231f20;fill-rule:nonzero" transform="matrix(20 0 0 20 582.821 180)"/><path d="M.04-.05.09 0h.1l.05-.05v-.078L.19-.1v.04l-.02.02H.11L.09-.06v-.104L.24-.25v-.1L.19-.4h-.1l-.05.05v.3Zm.15-.229-.1.057V-.34l.02-.02h.06l.02.02v.061Z" style="fill:#231f20;fill-rule:nonzero" transform="matrix(20 0 0 20 587.616 180)"/><path d="M.07-.4H.006l.039.04H.07v.13L.04-.2h.03v.278L.105 0 .15-.022.12-.05V-.2h.03L.12-.23v-.13h.04L.12-.4v-.25L.07-.6v.2Z" style="fill:#231f20;fill-rule:nonzero" transform="matrix(20 0 0 20 593.212 180)"/><path d="M.04-.05.09 0h.1l.05-.05v-.078L.19-.1v.04l-.02.02H.11L.09-.06v-.104L.24-.25v-.1L.19-.4h-.1l-.05.05v.3Zm.15-.229-.1.057V-.34l.02-.02h.06l.02.02v.061Z" style="fill:#231f20;fill-rule:nonzero" transform="matrix(20 0 0 20 597.011 180)"/><path d="M.07-.4H.006l.039.04H.07v.13L.04-.2h.03v.278L.105 0 .15-.022.12-.05V-.2h.03L.12-.23v-.13h.04L.12-.4v-.25L.07-.6v.2Z" style="fill:#231f20;fill-rule:nonzero" transform="matrix(20 0 0 20 602.606 180)"/><path d="M.3 0 .27-.03V-.2H.3L.27-.23V-.4H.19l.03.03v.14L.19-.2h.03v.14L.2-.04H.14L.12-.06V-.2h.03L.12-.23V-.4H.04l.03.03v.14L.04-.2h.03v.15L.12 0H.3Z" style="fill:#231f20;fill-rule:nonzero" transform="matrix(20 0 0 20 606.405 180)"/><path d="M.12-.03V-.2h.03L.12-.23v-.11l.02-.02H.2l.02.02v.04l.05.028V-.35L.22-.4H.04l.03.03v.14L.04-.2h.03v.17L.04 0h.11L.12-.03Z" style="fill:#231f20;fill-rule:nonzero" transform="matrix(20 0 0 20 613.202 180)"/><path d="M.17-.34v.061l.05.029v-.1L.17-.4h-.1l-.05.05v.104l.15.085v.101l-.02.02H.09L.07-.06v-.068L.02-.164v.114L.07 0h.1l.05-.05v-.128L.07-.264V-.34l.02-.02h.06l.02.02Z" style="fill:#231f20;fill-rule:nonzero" transform="matrix(20 0 0 20 407.333 200)"/><path d="M.09 0h.18L.24-.03v-.32L.19-.4h-.1l-.05.05v.078L.09-.3v-.04l.02-.02h.06l.02.02v.061l-.15.086v.143L.09 0Zm.1-.222v.162l-.02.02H.11L.09-.06v-.104l.1-.058Z" style="fill:#231f20;fill-rule:nonzero" transform="matrix(20 0 0 20 412.128 200)"/><path d="M.22-.4h-.1l-.05.05v.12L.04-.2h.03v.15L.12 0H.3L.27-.03V-.2H.3L.27-.23v-.42H.19l.03.03v.22Zm0 .17L.19-.2h.03v.14L.2-.04H.14L.12-.06V-.2h.03L.12-.23v-.11l.02-.02H.2l.02.02v.11Z" style="fill:#231f20;fill-rule:nonzero" transform="matrix(20 0 0 20 417.92 200)"/><path d="M.07-.23.04-.2h.03v.17L.04 0h.11L.12-.03V-.2h.03L.12-.23V-.4H.04l.03.03v.14ZM.075-.5v.02h.04V-.5h.02v-.04h-.02v-.02h-.04v.02h-.02v.04h.02Z" style="fill:#231f20;fill-rule:nonzero" transform="matrix(20 0 0 20 424.716 200)"/><path d="M.07.172.04.2l.045.022L.12.3V0h.1l.05-.05V-.2H.3L.27-.23v-.12L.22-.4H.04l.03.03v.14L.04-.2h.03v.372ZM.22-.23.19-.2h.03v.14L.2-.04H.14L.12-.06V-.2h.03L.12-.23v-.11l.02-.02H.2l.02.02v.11Z" style="fill:#231f20;fill-rule:nonzero" transform="matrix(20 0 0 20 428.515 200)"/><path d="M.17-.34v.061l.05.029v-.1L.17-.4h-.1l-.05.05v.104l.15.085v.101l-.02.02H.09L.07-.06v-.068L.02-.164v.114L.07 0h.1l.05-.05v-.128L.07-.264V-.34l.02-.02h.06l.02.02Z" style="fill:#231f20;fill-rule:nonzero" transform="matrix(20 0 0 20 435.312 200)"/><path d="M.27-.128.22-.1v.04L.2-.04H.14L.12-.06V-.2h.03L.12-.23v-.11l.02-.02H.2l.02.02v.04l.05.028V-.35L.22-.4h-.1l-.05.05v.12L.04-.2h.03v.15L.12 0h.1l.05-.05v-.078Z" style="fill:#231f20;fill-rule:nonzero" transform="matrix(20 0 0 20 440.106 200)"/><path d="M.07-.23.04-.2h.03v.17L.04 0h.11L.12-.03V-.2h.03L.12-.23V-.4H.04l.03.03v.14ZM.075-.5v.02h.04V-.5h.02v-.04h-.02v-.02h-.04v.02h-.02v.04h.02Z" style="fill:#231f20;fill-rule:nonzero" transform="matrix(20 0 0 20 446.298 200)"/><path d="M.22.172.19.2l.045.022L.27.3v-.5H.3L.27-.23v-.12L.22-.4H.04l.03.03v.14L.04-.2h.03v.17L.04 0h.11L.12-.03V-.2h.03L.12-.23v-.11l.02-.02H.2l.02.02v.11L.19-.2h.03v.372Z" style="fill:#231f20;fill-rule:nonzero" transform="matrix(20 0 0 20 450.097 200)"/><path d="M.22.112.2.132H.09l-.05.04h.18l.05-.05V-.2H.3L.27-.23v-.14L.3-.4H.12l-.05.05v.12L.04-.2h.03v.15L.12 0h.1v.112ZM.12-.23v-.11l.02-.02H.2l.02.02v.11L.19-.2h.03v.14L.2-.04H.14L.12-.06V-.2h.03L.12-.23Z" style="fill:#231f20;fill-rule:nonzero" transform="matrix(20 0 0 20 456.894 200)"/><path d="M.04-.05.09 0h.1l.05-.05v-.078L.19-.1v.04l-.02.02H.11L.09-.06v-.104L.24-.25v-.1L.19-.4h-.1l-.05.05v.3Zm.15-.229-.1.057V-.34l.02-.02h.06l.02.02v.061Z" style="fill:#231f20;fill-rule:nonzero" transform="matrix(20 0 0 20 468.69 200)"/><path d="M.07-.23.04-.2h.03v.17L.04 0h.11L.12-.03V-.2h.03L.12-.23v-.42H.04l.03.03v.39Z" style="fill:#231f20;fill-rule:nonzero" transform="matrix(20 0 0 20 474.286 200)"/><path d="M.07-.23.04-.2h.03v.17L.04 0h.11L.12-.03V-.2h.03L.12-.23V-.4H.04l.03.03v.14ZM.075-.5v.02h.04V-.5h.02v-.04h-.02v-.02h-.04v.02h-.02v.04h.02Z" style="fill:#231f20;fill-rule:nonzero" transform="matrix(20 0 0 20 478.085 200)"/><path d="M.07-.4H.006l.039.04H.07v.13L.04-.2h.03v.278L.105 0 .15-.022.12-.05V-.2h.03L.12-.23v-.13h.04L.12-.4v-.25L.07-.6v.2Z" style="fill:#231f20;fill-rule:nonzero" transform="matrix(20 0 0 20 481.884 200)"/><path d="M.12-.03V-.2h.03L.12-.23v-.11l.02-.02H.2l.02.02v.04l.05.028V-.35L.22-.4H.04l.03.03v.14L.04-.2h.03v.17L.04 0h.11L.12-.03Z" style="fill:#231f20;fill-rule:nonzero" transform="matrix(20 0 0 20 485.683 200)"/><path d="M.1-.06H.04V0h.024L.04.072h.024L.1 0v-.06Z" style="fill:#231f20;fill-rule:nonzero" transform="matrix(20 0 0 20 491.474 200)"/><path d="M.17-.34v.061l.05.029v-.1L.17-.4h-.1l-.05.05v.104l.15.085v.101l-.02.02H.09L.07-.06v-.068L.02-.164v.114L.07 0h.1l.05-.05v-.128L.07-.264V-.34l.02-.02h.06l.02.02Z" style="fill:#231f20;fill-rule:nonzero" transform="matrix(20 0 0 20 499.267 200)"/><path d="M.04-.05.09 0h.1l.05-.05v-.078L.19-.1v.04l-.02.02H.11L.09-.06v-.104L.24-.25v-.1L.19-.4h-.1l-.05.05v.3Zm.15-.229-.1.057V-.34l.02-.02h.06l.02.02v.061Z" style="fill:#231f20;fill-rule:nonzero" transform="matrix(20 0 0 20 504.062 200)"/><path d="M.22-.4h-.1l-.05.05v.12L.04-.2h.03v.15L.12 0H.3L.27-.03V-.2H.3L.27-.23v-.42H.19l.03.03v.22Zm0 .17L.19-.2h.03v.14L.2-.04H.14L.12-.06V-.2h.03L.12-.23v-.11l.02-.02H.2l.02.02v.11Z" style="fill:#231f20;fill-rule:nonzero" transform="matrix(20 0 0 20 509.657 200)"/><path d="M.22-.4h-.1l-.05.05v.12L.04-.2h.03v.15L.12 0H.3L.27-.03V-.2H.3L.27-.23v-.42H.19l.03.03v.22Zm0 .17L.19-.2h.03v.14L.2-.04H.14L.12-.06V-.2h.03L.12-.23v-.11l.02-.02H.2l.02.02v.11Z" style="fill:#231f20;fill-rule:nonzero" transform="matrix(20 0 0 20 521.454 200)"/><path d="M.07-.23.04-.2h.03v.17L.04 0h.11L.12-.03V-.2h.03L.12-.23V-.4H.04l.03.03v.14ZM.075-.5v.02h.04V-.5h.02v-.04h-.02v-.02h-.04v.02h-.02v.04h.02Z" style="fill:#231f20;fill-rule:nonzero" transform="matrix(20 0 0 20 528.251 200)"/><path d="M.09 0h.18L.24-.03v-.32L.19-.4h-.1l-.05.05v.078L.09-.3v-.04l.02-.02h.06l.02.02v.061l-.15.086v.143L.09 0Zm.1-.222v.162l-.02.02H.11L.09-.06v-.104l.1-.058Z" style="fill:#231f20;fill-rule:nonzero" transform="matrix(20 0 0 20 532.05 200)"/><path d="M.22-.34v.11L.19-.2h.03v.17L.19 0H.3L.27-.03V-.2H.3L.27-.23v-.11l.02-.02h.06l.02.02v.11L.34-.2h.03v.372L.34.2l.045.022L.42.3v-.5h.03L.42-.23v-.12L.37-.4H.04l.03.03v.14L.04-.2h.03v.17L.04 0h.11L.12-.03V-.2h.03L.12-.23v-.11l.02-.02H.2l.02.02Z" style="fill:#231f20;fill-rule:nonzero" transform="matrix(20 0 0 20 537.841 200)"/><path d="M.22.172.19.2l.045.022L.27.3v-.5H.3L.27-.23v-.12L.22-.4H.04l.03.03v.14L.04-.2h.03v.17L.04 0h.11L.12-.03V-.2h.03L.12-.23v-.11l.02-.02H.2l.02.02v.11L.19-.2h.03v.372Z" style="fill:#231f20;fill-rule:nonzero" transform="matrix(20 0 0 20 552.636 200)"/><path d="M.05-.23.02-.2h.03v.15L.1 0h.1l.05-.05V-.2h.03L.25-.23v-.12L.2-.4H.1l-.05.05v.12ZM.1-.2h.03L.1-.23v-.11l.02-.02h.06l.02.02v.11L.17-.2H.2v.14l-.02.02H.12L.1-.06V-.2Z" style="fill:#231f20;fill-rule:nonzero" transform="matrix(20 0 0 20 559.433 200)"/><path d="M.22.172.19.2l.045.022L.27.3v-.5H.3L.27-.23v-.12L.22-.4H.04l.03.03v.14L.04-.2h.03v.17L.04 0h.11L.12-.03V-.2h.03L.12-.23v-.11l.02-.02H.2l.02.02v.11L.19-.2h.03v.372Z" style="fill:#231f20;fill-rule:nonzero" transform="matrix(20 0 0 20 565.43 200)"/><path d="M.3 0 .27-.03V-.2H.3L.27-.23V-.4H.19l.03.03v.14L.19-.2h.03v.14L.2-.04H.14L.12-.06V-.2h.03L.12-.23V-.4H.04l.03.03v.14L.04-.2h.03v.15L.12 0H.3Z" style="fill:#231f20;fill-rule:nonzero" transform="matrix(20 0 0 20 572.226 200)"/><path d="M.22-.34v.11L.19-.2h.03v.17L.19 0H.3L.27-.03V-.2H.3L.27-.23v-.11l.02-.02h.06l.02.02v.11L.34-.2h.03v.372L.34.2l.045.022L.42.3v-.5h.03L.42-.23v-.12L.37-.4H.04l.03.03v.14L.04-.2h.03v.17L.04 0h.11L.12-.03V-.2h.03L.12-.23v-.11l.02-.02H.2l.02.02Z" style="fill:#231f20;fill-rule:nonzero" transform="matrix(20 0 0 20 579.022 200)"/><path d="M.22.112.2.132H.09l-.05.04h.18l.05-.05V-.2H.3L.27-.23v-.14L.3-.4H.19l.03.03v.14L.19-.2h.03v.14L.2-.04H.14L.12-.06V-.2h.03L.12-.23v-.14L.14-.4h-.1l.03.03v.14L.04-.2h.03v.15L.12 0h.1v.112Z" style="fill:#231f20;fill-rule:nonzero" transform="matrix(20 0 0 20 588.817 200)"/><path d="M.04-.05.09 0h.1l.05-.05v-.078L.19-.1v.04l-.02.02H.11L.09-.06v-.104L.24-.25v-.1L.19-.4h-.1l-.05.05v.3Zm.15-.229-.1.057V-.34l.02-.02h.06l.02.02v.061Z" style="fill:#231f20;fill-rule:nonzero" transform="matrix(20 0 0 20 600.614 200)"/><path d="M.07-.23.04-.2h.03v.17L.04 0h.11L.12-.03V-.2h.03L.12-.23V-.4H.04l.03.03v.14ZM.075-.5v.02h.04V-.5h.02v-.04h-.02v-.02h-.04v.02h-.02v.04h.02Z" style="fill:#231f20;fill-rule:nonzero" transform="matrix(20 0 0 20 606.21 200)"/><path d="M.12-.03V-.2h.03L.12-.23v-.11l.02-.02H.2l.02.02v.04l.05.028V-.35L.22-.4H.04l.03.03v.14L.04-.2h.03v.17L.04 0h.11L.12-.03Z" style="fill:#231f20;fill-rule:nonzero" transform="matrix(20 0 0 20 610.01 200)"/><path d="M.22-.34v.11L.19-.2h.03v.17L.19 0H.3L.27-.03V-.2H.3L.27-.23v-.11l.02-.02h.06l.02.02v.11L.34-.2h.03v.372L.34.2l.045.022L.42.3v-.5h.03L.42-.23v-.12L.37-.4H.04l.03.03v.14L.04-.2h.03v.17L.04 0h.11L.12-.03V-.2h.03L.12-.23v-.11l.02-.02H.2l.02.02Z" style="fill:#231f20;fill-rule:nonzero" transform="matrix(20 0 0 20 615.8 200)"/><path d="M.05-.23.02-.2h.03v.15L.1 0h.1l.05-.05V-.2h.03L.25-.23v-.12L.2-.4H.1l-.05.05v.12ZM.1-.2h.03L.1-.23v-.11l.02-.02h.06l.02.02v.11L.17-.2H.2v.14l-.02.02H.12L.1-.06V-.2Z" style="fill:#231f20;fill-rule:nonzero" transform="matrix(20 0 0 20 625.595 200)"/><path d="M.22-.4h-.1l-.05.05v.12L.04-.2h.03v.15L.12 0H.3L.27-.03V-.2H.3L.27-.23v-.42H.19l.03.03v.22Zm0 .17L.19-.2h.03v.14L.2-.04H.14L.12-.06V-.2h.03L.12-.23v-.11l.02-.02H.2l.02.02v.11Z" style="fill:#231f20;fill-rule:nonzero" transform="matrix(20 0 0 20 631.591 200)"/><path d="M.07-.4H.006l.039.04H.07v.13L.04-.2h.03v.278L.105 0 .15-.022.12-.05V-.2h.03L.12-.23v-.13h.04L.12-.4v-.25L.07-.6v.2Z" style="fill:#231f20;fill-rule:nonzero" transform="matrix(20 0 0 20 407.333 220)"/><path d="M.04-.05.09 0h.1l.05-.05v-.078L.19-.1v.04l-.02.02H.11L.09-.06v-.104L.24-.25v-.1L.19-.4h-.1l-.05.05v.3Zm.15-.229-.1.057V-.34l.02-.02h.06l.02.02v.061Z" style="fill:#231f20;fill-rule:nonzero" transform="matrix(20 0 0 20 411.132 220)"/><path d="M.22-.34v.11L.19-.2h.03v.17L.19 0H.3L.27-.03V-.2H.3L.27-.23v-.11l.02-.02h.06l.02.02v.11L.34-.2h.03v.372L.34.2l.045.022L.42.3v-.5h.03L.42-.23v-.12L.37-.4H.04l.03.03v.14L.04-.2h.03v.17L.04 0h.11L.12-.03V-.2h.03L.12-.23v-.11l.02-.02H.2l.02.02Z" style="fill:#231f20;fill-rule:nonzero" transform="matrix(20 0 0 20 416.728 220)"/><path d="M.07.172.04.2l.045.022L.12.3V0h.1l.05-.05V-.2H.3L.27-.23v-.12L.22-.4H.04l.03.03v.14L.04-.2h.03v.372ZM.22-.23.19-.2h.03v.14L.2-.04H.14L.12-.06V-.2h.03L.12-.23v-.11l.02-.02H.2l.02.02v.11Z" style="fill:#231f20;fill-rule:nonzero" transform="matrix(20 0 0 20 426.522 220)"/><path d="M.05-.23.02-.2h.03v.15L.1 0h.1l.05-.05V-.2h.03L.25-.23v-.12L.2-.4H.1l-.05.05v.12ZM.1-.2h.03L.1-.23v-.11l.02-.02h.06l.02.02v.11L.17-.2H.2v.14l-.02.02H.12L.1-.06V-.2Z" style="fill:#231f20;fill-rule:nonzero" transform="matrix(20 0 0 20 433.32 220)"/><path d="M.12-.03V-.2h.03L.12-.23v-.11l.02-.02H.2l.02.02v.04l.05.028V-.35L.22-.4H.04l.03.03v.14L.04-.2h.03v.17L.04 0h.11L.12-.03Z" style="fill:#231f20;fill-rule:nonzero" transform="matrix(20 0 0 20 439.315 220)"/><path d="M.07-.23.04-.2h.03v.17L.04 0h.11L.12-.03V-.2h.03L.12-.23V-.4H.04l.03.03v.14ZM.075-.5v.02h.04V-.5h.02v-.04h-.02v-.02h-.04v.02h-.02v.04h.02Z" style="fill:#231f20;fill-rule:nonzero" transform="matrix(20 0 0 20 450.106 220)"/><path d="M.22.172.19.2l.045.022L.27.3v-.5H.3L.27-.23v-.12L.22-.4H.04l.03.03v.14L.04-.2h.03v.17L.04 0h.11L.12-.03V-.2h.03L.12-.23v-.11l.02-.02H.2l.02.02v.11L.19-.2h.03v.372Z" style="fill:#231f20;fill-rule:nonzero" transform="matrix(20 0 0 20 453.905 220)"/><path d="M.07-.03.04 0h.18l.05-.05V-.2H.3L.27-.23v-.14L.3-.4H.19l.03.03v.14L.19-.2h.03v.14L.2-.04H.14L.12-.06V-.2h.03L.12-.23v-.14L.15-.4H.04l.03.03v.14L.04-.2h.03v.17Z" style="fill:#231f20;fill-rule:nonzero" transform="matrix(20 0 0 20 460.702 220)"/><path d="M.07-.23.04-.2h.03v.17L.04 0h.11L.12-.03V-.2h.03L.12-.23V-.4H.04l.03.03v.14ZM.075-.5v.02h.04V-.5h.02v-.04h-.02v-.02h-.04v.02h-.02v.04h.02Z" style="fill:#231f20;fill-rule:nonzero" transform="matrix(20 0 0 20 467.5 220)"/><path d="M.22-.4h-.1l-.05.05v.12L.04-.2h.03v.15L.12 0H.3L.27-.03V-.2H.3L.27-.23v-.42H.19l.03.03v.22Zm0 .17L.19-.2h.03v.14L.2-.04H.14L.12-.06V-.2h.03L.12-.23v-.11l.02-.02H.2l.02.02v.11Z" style="fill:#231f20;fill-rule:nonzero" transform="matrix(20 0 0 20 471.298 220)"/><path d="M.3 0 .27-.03V-.2H.3L.27-.23V-.4H.19l.03.03v.14L.19-.2h.03v.14L.2-.04H.14L.12-.06V-.2h.03L.12-.23V-.4H.04l.03.03v.14L.04-.2h.03v.15L.12 0H.3Z" style="fill:#231f20;fill-rule:nonzero" transform="matrix(20 0 0 20 478.095 220)"/><path d="M.22.172.19.2l.045.022L.27.3v-.5H.3L.27-.23v-.12L.22-.4H.04l.03.03v.14L.04-.2h.03v.17L.04 0h.11L.12-.03V-.2h.03L.12-.23v-.11l.02-.02H.2l.02.02v.11L.19-.2h.03v.372Z" style="fill:#231f20;fill-rule:nonzero" transform="matrix(20 0 0 20 484.892 220)"/><path d="M.07-.4H.006l.039.04H.07v.13L.04-.2h.03v.278L.105 0 .15-.022.12-.05V-.2h.03L.12-.23v-.13h.04L.12-.4v-.25L.07-.6v.2Z" style="fill:#231f20;fill-rule:nonzero" transform="matrix(20 0 0 20 491.688 220)"/><path d="M.3 0 .27-.03V-.2H.3L.27-.23V-.4H.19l.03.03v.14L.19-.2h.03v.14L.2-.04H.14L.12-.06V-.2h.03L.12-.23V-.4H.04l.03.03v.14L.04-.2h.03v.15L.12 0H.3Z" style="fill:#231f20;fill-rule:nonzero" transform="matrix(20 0 0 20 500.487 220)"/><path d="M.07-.4H.006l.039.04H.07v.13L.04-.2h.03v.278L.105 0 .15-.022.12-.05V-.2h.03L.12-.23v-.13h.04L.12-.4v-.25L.07-.6v.2Z" style="fill:#231f20;fill-rule:nonzero" transform="matrix(20 0 0 20 507.284 220)"/><path d="M.07-.23.04-.2h.03v.17L.04 0h.11L.12-.03V-.2h.03L.12-.23v-.42H.04l.03.03v.39Z" style="fill:#231f20;fill-rule:nonzero" transform="matrix(20 0 0 20 516.083 220)"/><path d="M.09 0h.18L.24-.03v-.32L.19-.4h-.1l-.05.05v.078L.09-.3v-.04l.02-.02h.06l.02.02v.061l-.15.086v.143L.09 0Zm.1-.222v.162l-.02.02H.11L.09-.06v-.104l.1-.058Z" style="fill:#231f20;fill-rule:nonzero" transform="matrix(20 0 0 20 519.882 220)"/><path d="m.04-.65.03.03v.39L.04-.2h.03v.17L.04 0h.18l.05-.05V-.2H.3L.27-.23v-.12L.22-.4h-.1v-.25H.04Zm.08.42v-.11l.02-.02H.2l.02.02v.11L.19-.2h.03v.14L.2-.04H.14L.12-.06V-.2h.03L.12-.23Z" style="fill:#231f20;fill-rule:nonzero" transform="matrix(20 0 0 20 525.673 220)"/><path d="M.05-.23.02-.2h.03v.15L.1 0h.1l.05-.05V-.2h.03L.25-.23v-.12L.2-.4H.1l-.05.05v.12ZM.1-.2h.03L.1-.23v-.11l.02-.02h.06l.02.02v.11L.17-.2H.2v.14l-.02.02H.12L.1-.06V-.2Z" style="fill:#231f20;fill-rule:nonzero" transform="matrix(20 0 0 20 532.47 220)"/><path d="M.12-.03V-.2h.03L.12-.23v-.11l.02-.02H.2l.02.02v.04l.05.028V-.35L.22-.4H.04l.03.03v.14L.04-.2h.03v.17L.04 0h.11L.12-.03Z" style="fill:#231f20;fill-rule:nonzero" transform="matrix(20 0 0 20 538.466 220)"/><path d="M.04-.05.09 0h.1l.05-.05v-.078L.19-.1v.04l-.02.02H.11L.09-.06v-.104L.24-.25v-.1L.19-.4h-.1l-.05.05v.3Zm.15-.229-.1.057V-.34l.02-.02h.06l.02.02v.061Z" style="fill:#231f20;fill-rule:nonzero" transform="matrix(20 0 0 20 544.257 220)"/><path d="M.04-.05.09 0h.1l.05-.05v-.078L.19-.1v.04l-.02.02H.11L.09-.06v-.104L.24-.25v-.1L.19-.4h-.1l-.05.05v.3Zm.15-.229-.1.057V-.34l.02-.02h.06l.02.02v.061Z" style="fill:#231f20;fill-rule:nonzero" transform="matrix(20 0 0 20 554.853 220)"/><path d="M.07-.4H.006l.039.04H.07v.13L.04-.2h.03v.278L.105 0 .15-.022.12-.05V-.2h.03L.12-.23v-.13h.04L.12-.4v-.25L.07-.6v.2Z" style="fill:#231f20;fill-rule:nonzero" transform="matrix(20 0 0 20 560.448 220)"/><path d="M.22-.4h-.1l-.05.05v.12L.04-.2h.03v.15L.12 0H.3L.27-.03V-.2H.3L.27-.23v-.42H.19l.03.03v.22Zm0 .17L.19-.2h.03v.14L.2-.04H.14L.12-.06V-.2h.03L.12-.23v-.11l.02-.02H.2l.02.02v.11Z" style="fill:#231f20;fill-rule:nonzero" transform="matrix(20 0 0 20 569.247 220)"/><path d="M.05-.23.02-.2h.03v.15L.1 0h.1l.05-.05V-.2h.03L.25-.23v-.12L.2-.4H.1l-.05.05v.12ZM.1-.2h.03L.1-.23v-.11l.02-.02h.06l.02.02v.11L.17-.2H.2v.14l-.02.02H.12L.1-.06V-.2Z" style="fill:#231f20;fill-rule:nonzero" transform="matrix(20 0 0 20 576.044 220)"/><path d="M.07-.23.04-.2h.03v.17L.04 0h.11L.12-.03V-.2h.03L.12-.23v-.42H.04l.03.03v.39Z" style="fill:#231f20;fill-rule:nonzero" transform="matrix(20 0 0 20 582.04 220)"/><path d="M.05-.23.02-.2h.03v.15L.1 0h.1l.05-.05V-.2h.03L.25-.23v-.12L.2-.4H.1l-.05.05v.12ZM.1-.2h.03L.1-.23v-.11l.02-.02h.06l.02.02v.11L.17-.2H.2v.14l-.02.02H.12L.1-.06V-.2Z" style="fill:#231f20;fill-rule:nonzero" transform="matrix(20 0 0 20 585.84 220)"/><path d="M.12-.03V-.2h.03L.12-.23v-.11l.02-.02H.2l.02.02v.04l.05.028V-.35L.22-.4H.04l.03.03v.14L.04-.2h.03v.17L.04 0h.11L.12-.03Z" style="fill:#231f20;fill-rule:nonzero" transform="matrix(20 0 0 20 591.835 220)"/><path d="M.04-.05.09 0h.1l.05-.05v-.078L.19-.1v.04l-.02.02H.11L.09-.06v-.104L.24-.25v-.1L.19-.4h-.1l-.05.05v.3Zm.15-.229-.1.057V-.34l.02-.02h.06l.02.02v.061Z" style="fill:#231f20;fill-rule:nonzero" transform="matrix(20 0 0 20 597.626 220)"/><path d="M.22-.34v.11L.19-.2h.03v.17L.19 0H.3L.27-.03V-.2H.3L.27-.23v-.11l.02-.02h.06l.02.02v.11L.34-.2h.03v.372L.34.2l.045.022L.42.3v-.5h.03L.42-.23v-.12L.37-.4H.04l.03.03v.14L.04-.2h.03v.17L.04 0h.11L.12-.03V-.2h.03L.12-.23v-.11l.02-.02H.2l.02.02Z" style="fill:#231f20;fill-rule:nonzero" transform="matrix(20 0 0 20 608.222 220)"/><path d="M.09 0h.18L.24-.03v-.32L.19-.4h-.1l-.05.05v.078L.09-.3v-.04l.02-.02h.06l.02.02v.061l-.15.086v.143L.09 0Zm.1-.222v.162l-.02.02H.11L.09-.06v-.104l.1-.058Z" style="fill:#231f20;fill-rule:nonzero" transform="matrix(20 0 0 20 618.017 220)"/><path d="M.22.112.2.132H.09l-.05.04h.18l.05-.05V-.2H.3L.27-.23v-.14L.3-.4H.12l-.05.05v.12L.04-.2h.03v.15L.12 0h.1v.112ZM.12-.23v-.11l.02-.02H.2l.02.02v.11L.19-.2h.03v.14L.2-.04H.14L.12-.06V-.2h.03L.12-.23Z" style="fill:#231f20;fill-rule:nonzero" transform="matrix(20 0 0 20 623.808 220)"/><path d="M.22.172.19.2l.045.022L.27.3v-.5H.3L.27-.23v-.12L.22-.4H.04l.03.03v.14L.04-.2h.03v.17L.04 0h.11L.12-.03V-.2h.03L.12-.23v-.11l.02-.02H.2l.02.02v.11L.19-.2h.03v.372Z" style="fill:#231f20;fill-rule:nonzero" transform="matrix(20 0 0 20 630.604 220)"/><path d="M.09 0h.18L.24-.03v-.32L.19-.4h-.1l-.05.05v.078L.09-.3v-.04l.02-.02h.06l.02.02v.061l-.15.086v.143L.09 0Zm.1-.222v.162l-.02.02H.11L.09-.06v-.104l.1-.058Z" style="fill:#231f20;fill-rule:nonzero" transform="matrix(20 0 0 20 637.401 220)"/><path d="M.09 0h.18L.24-.03v-.32L.19-.4h-.1l-.05.05v.078L.09-.3v-.04l.02-.02h.06l.02.02v.061l-.15.086v.143L.09 0Zm.1-.222v.162l-.02.02H.11L.09-.06v-.104l.1-.058Z" style="fill:#231f20;fill-rule:nonzero" transform="matrix(20 0 0 20 407.333 240)"/><path d="M.07-.23.04-.2h.03v.17L.04 0h.11L.12-.03V-.2h.03L.12-.23v-.42H.04l.03.03v.39Z" style="fill:#231f20;fill-rule:nonzero" transform="matrix(20 0 0 20 413.124 240)"/><path d="M.07-.23.04-.2h.03v.17L.04 0h.11L.12-.03V-.2h.03L.12-.23V-.4H.04l.03.03v.14ZM.075-.5v.02h.04V-.5h.02v-.04h-.02v-.02h-.04v.02h-.02v.04h.02Z" style="fill:#231f20;fill-rule:nonzero" transform="matrix(20 0 0 20 416.923 240)"/><path d="M.22.172.19.2l.045.022L.27.3v-.5H.3L.27-.23v-.14L.3-.4H.12l-.05.05v.12L.04-.2h.03v.15L.12 0h.1v.172ZM.12-.23v-.11l.02-.02H.2l.02.02v.11L.19-.2h.03v.14L.2-.04H.14L.12-.06V-.2h.03L.12-.23Z" style="fill:#231f20;fill-rule:nonzero" transform="matrix(20 0 0 20 420.722 240)"/><path d="M.3 0 .27-.03V-.2H.3L.27-.23V-.4H.19l.03.03v.14L.19-.2h.03v.14L.2-.04H.14L.12-.06V-.2h.03L.12-.23V-.4H.04l.03.03v.14L.04-.2h.03v.15L.12 0H.3Z" style="fill:#231f20;fill-rule:nonzero" transform="matrix(20 0 0 20 427.52 240)"/><path d="M.22.112.2.132H.09l-.05.04h.18l.05-.05V-.2H.3L.27-.23v-.14L.3-.4H.19l.03.03v.14L.19-.2h.03v.14L.2-.04H.14L.12-.06V-.2h.03L.12-.23v-.14L.14-.4h-.1l.03.03v.14L.04-.2h.03v.15L.12 0h.1v.112Z" style="fill:#231f20;fill-rule:nonzero" transform="matrix(20 0 0 20 434.315 240)"/><path d="M.09 0h.18L.24-.03v-.32L.19-.4h-.1l-.05.05v.078L.09-.3v-.04l.02-.02h.06l.02.02v.061l-.15.086v.143L.09 0Zm.1-.222v.162l-.02.02H.11L.09-.06v-.104l.1-.058Z" style="fill:#231f20;fill-rule:nonzero" transform="matrix(20 0 0 20 441.112 240)"/><path d="M.22-.34v.11L.19-.2h.03v.17L.19 0H.3L.27-.03V-.2H.3L.27-.23v-.11l.02-.02h.06l.02.02v.11L.34-.2h.03v.372L.34.2l.045.022L.42.3v-.5h.03L.42-.23v-.12L.37-.4H.04l.03.03v.14L.04-.2h.03v.17L.04 0h.11L.12-.03V-.2h.03L.12-.23v-.11l.02-.02H.2l.02.02Z" style="fill:#231f20;fill-rule:nonzero" transform="matrix(20 0 0 20 446.903 240)"/><path d="M.04-.05.09 0h.1l.05-.05v-.078L.19-.1v.04l-.02.02H.11L.09-.06v-.104L.24-.25v-.1L.19-.4h-.1l-.05.05v.3Zm.15-.229-.1.057V-.34l.02-.02h.06l.02.02v.061Z" style="fill:#231f20;fill-rule:nonzero" transform="matrix(20 0 0 20 461.698 240)"/><path d="M.12-.03V-.2h.03L.12-.23v-.11l.02-.02H.2l.02.02v.04l.05.028V-.35L.22-.4H.04l.03.03v.14L.04-.2h.03v.17L.04 0h.11L.12-.03Z" style="fill:#231f20;fill-rule:nonzero" transform="matrix(20 0 0 20 467.294 240)"/><path d="M.09 0h.18L.24-.03v-.32L.19-.4h-.1l-.05.05v.078L.09-.3v-.04l.02-.02h.06l.02.02v.061l-.15.086v.143L.09 0Zm.1-.222v.162l-.02.02H.11L.09-.06v-.104l.1-.058Z" style="fill:#231f20;fill-rule:nonzero" transform="matrix(20 0 0 20 473.085 240)"/><path d="M.07-.4H.006l.039.04H.07v.13L.04-.2h.03v.278L.105 0 .15-.022.12-.05V-.2h.03L.12-.23v-.13h.04L.12-.4v-.25L.07-.6v.2Z" style="fill:#231f20;fill-rule:nonzero" transform="matrix(20 0 0 20 478.876 240)"/><path d="M.1-.06H.04V0h.024L.04.072h.024L.1 0v-.06Z" style="fill:#231f20;fill-rule:nonzero" transform="matrix(20 0 0 20 482.675 240)"/><path d="M.17-.34v.061l.05.029v-.1L.17-.4h-.1l-.05.05v.104l.15.085v.101l-.02.02H.09L.07-.06v-.068L.02-.164v.114L.07 0h.1l.05-.05v-.128L.07-.264V-.34l.02-.02h.06l.02.02Z" style="fill:#231f20;fill-rule:nonzero" transform="matrix(20 0 0 20 490.468 240)"/><path d="M.04-.05.09 0h.1l.05-.05v-.078L.19-.1v.04l-.02.02H.11L.09-.06v-.104L.24-.25v-.1L.19-.4h-.1l-.05.05v.3Zm.15-.229-.1.057V-.34l.02-.02h.06l.02.02v.061Z" style="fill:#231f20;fill-rule:nonzero" transform="matrix(20 0 0 20 495.263 240)"/><path d="M.22-.4h-.1l-.05.05v.12L.04-.2h.03v.15L.12 0H.3L.27-.03V-.2H.3L.27-.23v-.42H.19l.03.03v.22Zm0 .17L.19-.2h.03v.14L.2-.04H.14L.12-.06V-.2h.03L.12-.23v-.11l.02-.02H.2l.02.02v.11Z" style="fill:#231f20;fill-rule:nonzero" transform="matrix(20 0 0 20 500.858 240)"/><path d="M.22-.4h-.1l-.05.05v.12L.04-.2h.03v.15L.12 0H.3L.27-.03V-.2H.3L.27-.23v-.42H.19l.03.03v.22Zm0 .17L.19-.2h.03v.14L.2-.04H.14L.12-.06V-.2h.03L.12-.23v-.11l.02-.02H.2l.02.02v.11Z" style="fill:#231f20;fill-rule:nonzero" transform="matrix(20 0 0 20 512.655 240)"/><path d="M.07-.23.04-.2h.03v.17L.04 0h.11L.12-.03V-.2h.03L.12-.23V-.4H.04l.03.03v.14ZM.075-.5v.02h.04V-.5h.02v-.04h-.02v-.02h-.04v.02h-.02v.04h.02Z" style="fill:#231f20;fill-rule:nonzero" transform="matrix(20 0 0 20 519.452 240)"/><path d="M.09 0h.18L.24-.03v-.32L.19-.4h-.1l-.05.05v.078L.09-.3v-.04l.02-.02h.06l.02.02v.061l-.15.086v.143L.09 0Zm.1-.222v.162l-.02.02H.11L.09-.06v-.104l.1-.058Z" style="fill:#231f20;fill-rule:nonzero" transform="matrix(20 0 0 20 523.251 240)"/><path d="M.22-.34v.11L.19-.2h.03v.17L.19 0H.3L.27-.03V-.2H.3L.27-.23v-.11l.02-.02h.06l.02.02v.11L.34-.2h.03v.372L.34.2l.045.022L.42.3v-.5h.03L.42-.23v-.12L.37-.4H.04l.03.03v.14L.04-.2h.03v.17L.04 0h.11L.12-.03V-.2h.03L.12-.23v-.11l.02-.02H.2l.02.02Z" style="fill:#231f20;fill-rule:nonzero" transform="matrix(20 0 0 20 529.042 240)"/><path d="M.07-.03.04 0h.18l.05-.05V-.2H.3L.27-.23v-.14L.3-.4H.19l.03.03v.14L.19-.2h.03v.14L.2-.04H.14L.12-.06V-.2h.03L.12-.23v-.14L.15-.4H.04l.03.03v.14L.04-.2h.03v.17Z" style="fill:#231f20;fill-rule:nonzero" transform="matrix(20 0 0 20 543.837 240)"/><path d="M.05-.23.02-.2h.03v.15L.1 0h.1l.05-.05V-.2h.03L.25-.23v-.12L.2-.4H.1l-.05.05v.12ZM.1-.2h.03L.1-.23v-.11l.02-.02h.06l.02.02v.11L.17-.2H.2v.14l-.02.02H.12L.1-.06V-.2Z" style="fill:#231f20;fill-rule:nonzero" transform="matrix(20 0 0 20 550.634 240)"/><path d="M.07-.23.04-.2h.03v.17L.04 0h.11L.12-.03V-.2h.03L.12-.23v-.42H.04l.03.03v.39Z" style="fill:#231f20;fill-rule:nonzero" transform="matrix(20 0 0 20 556.63 240)"/><path d="M.3 0 .27-.03V-.2H.3L.27-.23V-.4H.19l.03.03v.14L.19-.2h.03v.14L.2-.04H.14L.12-.06V-.2h.03L.12-.23V-.4H.04l.03.03v.14L.04-.2h.03v.15L.12 0H.3Z" style="fill:#231f20;fill-rule:nonzero" transform="matrix(20 0 0 20 560.43 240)"/><path d="M.07.172.04.2l.045.022L.12.3V0h.1l.05-.05V-.2H.3L.27-.23v-.12L.22-.4H.04l.03.03v.14L.04-.2h.03v.372ZM.22-.23.19-.2h.03v.14L.2-.04H.14L.12-.06V-.2h.03L.12-.23v-.11l.02-.02H.2l.02.02v.11Z" style="fill:#231f20;fill-rule:nonzero" transform="matrix(20 0 0 20 567.226 240)"/><path d="M.07-.4H.006l.039.04H.07v.13L.04-.2h.03v.278L.105 0 .15-.022.12-.05V-.2h.03L.12-.23v-.13h.04L.12-.4v-.25L.07-.6v.2Z" style="fill:#231f20;fill-rule:nonzero" transform="matrix(20 0 0 20 574.022 240)"/><path d="M.3 0 .27-.03V-.2H.3L.27-.23V-.4H.19l.03.03v.14L.19-.2h.03v.14L.2-.04H.14L.12-.06V-.2h.03L.12-.23V-.4H.04l.03.03v.14L.04-.2h.03v.15L.12 0H.3Z" style="fill:#231f20;fill-rule:nonzero" transform="matrix(20 0 0 20 577.821 240)"/><path d="M.09 0h.18L.24-.03v-.32L.19-.4h-.1l-.05.05v.078L.09-.3v-.04l.02-.02h.06l.02.02v.061l-.15.086v.143L.09 0Zm.1-.222v.162l-.02.02H.11L.09-.06v-.104l.1-.058Z" style="fill:#231f20;fill-rule:nonzero" transform="matrix(20 0 0 20 584.618 240)"/><path d="M.04-.06H.1V0H.04z" style="fill:#231f20;fill-rule:nonzero" transform="matrix(20 0 0 20 590.41 240)"/><path d="M.12-.65.07-.6v.37L.04-.2h.03v.17L.04 0h.11L.12-.03V-.2h.03L.12-.23v-.13h.11v.13L.2-.2h.03v.372L.2.2l.045.022L.28.3v-.5h.03L.28-.23v-.39l.03-.03H.12Zm.11.04v.21H.12v-.19l.02-.02h.09Z" style="fill:#231f20;fill-rule:nonzero" transform="matrix(20 0 0 20 407.333 280)"/><path d="M.07-.4H.006l.039.04H.07v.13L.04-.2h.03v.278L.105 0 .15-.022.12-.05V-.2h.03L.12-.23v-.13h.04L.12-.4v-.25L.07-.6v.2Z" style="fill:#231f20;fill-rule:nonzero" transform="matrix(20 0 0 20 414.325 280)"/><path d="M.07-.03.04 0h.18l.05-.05V-.2H.3L.27-.23v-.14L.3-.4H.19l.03.03v.14L.19-.2h.03v.14L.2-.04H.14L.12-.06V-.2h.03L.12-.23v-.14L.15-.4H.04l.03.03v.14L.04-.2h.03v.17Z" style="fill:#231f20;fill-rule:nonzero" transform="matrix(20 0 0 20 423.124 280)"/><path d="M.04-.05.09 0h.1l.05-.05v-.078L.19-.1v.04l-.02.02H.11L.09-.06v-.104L.24-.25v-.1L.19-.4h-.1l-.05.05v.3Zm.15-.229-.1.057V-.34l.02-.02h.06l.02.02v.061Z" style="fill:#231f20;fill-rule:nonzero" transform="matrix(20 0 0 20 429.921 280)"/><path d="M.12-.03V-.2h.03L.12-.23v-.11l.02-.02H.2l.02.02v.04l.05.028V-.35L.22-.4H.04l.03.03v.14L.04-.2h.03v.17L.04 0h.11L.12-.03Z" style="fill:#231f20;fill-rule:nonzero" transform="matrix(20 0 0 20 435.517 280)"/><path d="M.05-.23.02-.2h.03v.15L.1 0h.1l.05-.05V-.2h.03L.25-.23v-.12L.2-.4H.1l-.05.05v.12ZM.1-.2h.03L.1-.23v-.11l.02-.02h.06l.02.02v.11L.17-.2H.2v.14l-.02.02H.12L.1-.06V-.2Z" style="fill:#231f20;fill-rule:nonzero" transform="matrix(20 0 0 20 441.308 280)"/><path d="M.04-.05.09 0h.1l.05-.05v-.078L.19-.1v.04l-.02.02H.11L.09-.06v-.104L.24-.25v-.1L.19-.4h-.1l-.05.05v.3Zm.15-.229-.1.057V-.34l.02-.02h.06l.02.02v.061Z" style="fill:#231f20;fill-rule:nonzero" transform="matrix(20 0 0 20 452.304 280)"/><path d="M.05-.23.02-.2h.03v.15L.1 0h.1l.05-.05V-.2h.03L.25-.23v-.12L.2-.4H.1l-.05.05v.12ZM.1-.2h.03L.1-.23v-.11l.02-.02h.06l.02.02v.11L.17-.2H.2v.14l-.02.02H.12L.1-.06V-.2Z" style="fill:#231f20;fill-rule:nonzero" transform="matrix(20 0 0 20 457.9 280)"/><path d="M.17-.34v.061l.05.029v-.1L.17-.4h-.1l-.05.05v.104l.15.085v.101l-.02.02H.09L.07-.06v-.068L.02-.164v.114L.07 0h.1l.05-.05v-.128L.07-.264V-.34l.02-.02h.06l.02.02Z" style="fill:#231f20;fill-rule:nonzero" transform="matrix(20 0 0 20 463.895 280)"/><path d="M.04-.05.09 0h.1l.05-.05v-.078L.19-.1v.04l-.02.02H.11L.09-.06v-.104L.24-.25v-.1L.19-.4h-.1l-.05.05v.3Zm.15-.229-.1.057V-.34l.02-.02h.06l.02.02v.061Z" style="fill:#231f20;fill-rule:nonzero" transform="matrix(20 0 0 20 473.69 280)"/><path d="M.07-.4H.006l.039.04H.07v.13L.04-.2h.03v.278L.105 0 .15-.022.12-.05V-.2h.03L.12-.23v-.13h.04L.12-.4v-.25L.07-.6v.2Z" style="fill:#231f20;fill-rule:nonzero" transform="matrix(20 0 0 20 479.286 280)"/><path d="M.09 0h.18L.24-.03v-.32L.19-.4h-.1l-.05.05v.078L.09-.3v-.04l.02-.02h.06l.02.02v.061l-.15.086v.143L.09 0Zm.1-.222v.162l-.02.02H.11L.09-.06v-.104l.1-.058Z" style="fill:#231f20;fill-rule:nonzero" transform="matrix(20 0 0 20 488.085 280)"/><path d="M.27-.128.22-.1v.04L.2-.04H.14L.12-.06V-.2h.03L.12-.23v-.11l.02-.02H.2l.02.02v.04l.05.028V-.35L.22-.4h-.1l-.05.05v.12L.04-.2h.03v.15L.12 0h.1l.05-.05v-.078Z" style="fill:#231f20;fill-rule:nonzero" transform="matrix(20 0 0 20 493.876 280)"/><path d="M.27-.128.22-.1v.04L.2-.04H.14L.12-.06V-.2h.03L.12-.23v-.11l.02-.02H.2l.02.02v.04l.05.028V-.35L.22-.4h-.1l-.05.05v.12L.04-.2h.03v.15L.12 0h.1l.05-.05v-.078Z" style="fill:#231f20;fill-rule:nonzero" transform="matrix(20 0 0 20 500.067 280)"/><path d="M.3 0 .27-.03V-.2H.3L.27-.23V-.4H.19l.03.03v.14L.19-.2h.03v.14L.2-.04H.14L.12-.06V-.2h.03L.12-.23V-.4H.04l.03.03v.14L.04-.2h.03v.15L.12 0H.3Z" style="fill:#231f20;fill-rule:nonzero" transform="matrix(20 0 0 20 506.26 280)"/><path d="M.17-.34v.061l.05.029v-.1L.17-.4h-.1l-.05.05v.104l.15.085v.101l-.02.02H.09L.07-.06v-.068L.02-.164v.114L.07 0h.1l.05-.05v-.128L.07-.264V-.34l.02-.02h.06l.02.02Z" style="fill:#231f20;fill-rule:nonzero" transform="matrix(20 0 0 20 513.056 280)"/><path d="M.09 0h.18L.24-.03v-.32L.19-.4h-.1l-.05.05v.078L.09-.3v-.04l.02-.02h.06l.02.02v.061l-.15.086v.143L.09 0Zm.1-.222v.162l-.02.02H.11L.09-.06v-.104l.1-.058Z" style="fill:#231f20;fill-rule:nonzero" transform="matrix(20 0 0 20 517.851 280)"/><path d="M.22-.34v.11L.19-.2h.03v.17L.19 0H.3L.27-.03V-.2H.3L.27-.23v-.11l.02-.02h.06l.02.02v.11L.34-.2h.03v.372L.34.2l.045.022L.42.3v-.5h.03L.42-.23v-.12L.37-.4H.04l.03.03v.14L.04-.2h.03v.17L.04 0h.11L.12-.03V-.2h.03L.12-.23v-.11l.02-.02H.2l.02.02Z" style="fill:#231f20;fill-rule:nonzero" transform="matrix(20 0 0 20 523.642 280)"/><path d="M.04-.05.09 0h.1l.05-.05v-.078L.19-.1v.04l-.02.02H.11L.09-.06v-.104L.24-.25v-.1L.19-.4h-.1l-.05.05v.3Zm.15-.229-.1.057V-.34l.02-.02h.06l.02.02v.061Z" style="fill:#231f20;fill-rule:nonzero" transform="matrix(20 0 0 20 538.437 280)"/><path d="M.07-.4H.006l.039.04H.07v.13L.04-.2h.03v.278L.105 0 .15-.022.12-.05V-.2h.03L.12-.23v-.13h.04L.12-.4v-.25L.07-.6v.2Z" style="fill:#231f20;fill-rule:nonzero" transform="matrix(20 0 0 20 544.032 280)"/><path d="M.07-.37v.14L.04-.2h.03v.372L.04.2l.045.022L.12.3v-.5h.03L.12-.23V-.4H.04l.03.03ZM.071-.5v.02h.04V-.5h.02v-.04h-.02v-.02h-.04v.02h-.02v.04h.02Z" style="fill:#231f20;fill-rule:nonzero" transform="matrix(20 0 0 20 552.831 280)"/><path d="M.3 0 .27-.03V-.2H.3L.27-.23V-.4H.19l.03.03v.14L.19-.2h.03v.14L.2-.04H.14L.12-.06V-.2h.03L.12-.23V-.4H.04l.03.03v.14L.04-.2h.03v.15L.12 0H.3Z" style="fill:#231f20;fill-rule:nonzero" transform="matrix(20 0 0 20 556.63 280)"/><path d="M.17-.34v.061l.05.029v-.1L.17-.4h-.1l-.05.05v.104l.15.085v.101l-.02.02H.09L.07-.06v-.068L.02-.164v.114L.07 0h.1l.05-.05v-.128L.07-.264V-.34l.02-.02h.06l.02.02Z" style="fill:#231f20;fill-rule:nonzero" transform="matrix(20 0 0 20 563.427 280)"/><path d="M.07-.4H.006l.039.04H.07v.13L.04-.2h.03v.278L.105 0 .15-.022.12-.05V-.2h.03L.12-.23v-.13h.04L.12-.4v-.25L.07-.6v.2Z" style="fill:#231f20;fill-rule:nonzero" transform="matrix(20 0 0 20 568.222 280)"/><path d="M.05-.23.02-.2h.03v.15L.1 0h.1l.05-.05V-.2h.03L.25-.23v-.12L.2-.4H.1l-.05.05v.12ZM.1-.2h.03L.1-.23v-.11l.02-.02h.06l.02.02v.11L.17-.2H.2v.14l-.02.02H.12L.1-.06V-.2Z" style="fill:#231f20;fill-rule:nonzero" transform="matrix(20 0 0 20 572.021 280)"/><path d="M.22-.4h-.1l-.05.05v.12L.04-.2h.03v.15L.12 0H.3L.27-.03V-.2H.3L.27-.23v-.42H.19l.03.03v.22Zm0 .17L.19-.2h.03v.14L.2-.04H.14L.12-.06V-.2h.03L.12-.23v-.11l.02-.02H.2l.02.02v.11Z" style="fill:#231f20;fill-rule:nonzero" transform="matrix(20 0 0 20 583.017 280)"/><path d="M.3 0 .27-.03V-.2H.3L.27-.23V-.4H.19l.03.03v.14L.19-.2h.03v.14L.2-.04H.14L.12-.06V-.2h.03L.12-.23V-.4H.04l.03.03v.14L.04-.2h.03v.15L.12 0H.3Z" style="fill:#231f20;fill-rule:nonzero" transform="matrix(20 0 0 20 589.813 280)"/><path d="M.05-.23.02-.2h.03v.15L.1 0h.1l.05-.05V-.2h.03L.25-.23v-.12L.2-.4H.1l-.05.05v.12ZM.1-.2h.03L.1-.23v-.11l.02-.02h.06l.02.02v.11L.17-.2H.2v.14l-.02.02H.12L.1-.06V-.2Z" style="fill:#231f20;fill-rule:nonzero" transform="matrix(20 0 0 20 596.61 280)"/><path d="M.22-.4h-.1l-.05.05v.12L.04-.2h.03v.15L.12 0H.3L.27-.03V-.2H.3L.27-.23v-.42H.19l.03.03v.22Zm0 .17L.19-.2h.03v.14L.2-.04H.14L.12-.06V-.2h.03L.12-.23v-.11l.02-.02H.2l.02.02v.11Z" style="fill:#231f20;fill-rule:nonzero" transform="matrix(20 0 0 20 607.606 280)"/><path d="M.05-.23.02-.2h.03v.15L.1 0h.1l.05-.05V-.2h.03L.25-.23v-.12L.2-.4H.1l-.05.05v.12ZM.1-.2h.03L.1-.23v-.11l.02-.02h.06l.02.02v.11L.17-.2H.2v.14l-.02.02H.12L.1-.06V-.2Z" style="fill:#231f20;fill-rule:nonzero" transform="matrix(20 0 0 20 614.403 280)"/><path d="M.07-.23.04-.2h.03v.17L.04 0h.11L.12-.03V-.2h.03L.12-.23v-.42H.04l.03.03v.39Z" style="fill:#231f20;fill-rule:nonzero" transform="matrix(20 0 0 20 620.4 280)"/><path d="M.05-.23.02-.2h.03v.15L.1 0h.1l.05-.05V-.2h.03L.25-.23v-.12L.2-.4H.1l-.05.05v.12ZM.1-.2h.03L.1-.23v-.11l.02-.02h.06l.02.02v.11L.17-.2H.2v.14l-.02.02H.12L.1-.06V-.2Z" style="fill:#231f20;fill-rule:nonzero" transform="matrix(20 0 0 20 624.198 280)"/><path d="M.12-.03V-.2h.03L.12-.23v-.11l.02-.02H.2l.02.02v.04l.05.028V-.35L.22-.4H.04l.03.03v.14L.04-.2h.03v.17L.04 0h.11L.12-.03Z" style="fill:#231f20;fill-rule:nonzero" transform="matrix(20 0 0 20 630.194 280)"/><path d="M.04-.05.09 0h.1l.05-.05v-.078L.19-.1v.04l-.02.02H.11L.09-.06v-.104L.24-.25v-.1L.19-.4h-.1l-.05.05v.3Zm.15-.229-.1.057V-.34l.02-.02h.06l.02.02v.061Z" style="fill:#231f20;fill-rule:nonzero" transform="matrix(20 0 0 20 635.985 280)"/><path d="M.17-.34v.061l.05.029v-.1L.17-.4h-.1l-.05.05v.104l.15.085v.101l-.02.02H.09L.07-.06v-.068L.02-.164v.114L.07 0h.1l.05-.05v-.128L.07-.264V-.34l.02-.02h.06l.02.02Z" style="fill:#231f20;fill-rule:nonzero" transform="matrix(20 0 0 20 641.581 280)"/><path d="M.04-.05.09 0h.1l.05-.05v-.078L.19-.1v.04l-.02.02H.11L.09-.06v-.104L.24-.25v-.1L.19-.4h-.1l-.05.05v.3Zm.15-.229-.1.057V-.34l.02-.02h.06l.02.02v.061Z" style="fill:#231f20;fill-rule:nonzero" transform="matrix(20 0 0 20 651.376 280)"/><path d="M.07-.4H.006l.039.04H.07v.13L.04-.2h.03v.278L.105 0 .15-.022.12-.05V-.2h.03L.12-.23v-.13h.04L.12-.4v-.25L.07-.6v.2Z" style="fill:#231f20;fill-rule:nonzero" transform="matrix(20 0 0 20 656.972 280)"/><path d="M.04-.05.09 0h.1l.05-.05v-.078L.19-.1v.04l-.02.02H.11L.09-.06v-.104L.24-.25v-.1L.19-.4h-.1l-.05.05v.3Zm.15-.229-.1.057V-.34l.02-.02h.06l.02.02v.061Z" style="fill:#231f20;fill-rule:nonzero" transform="matrix(20 0 0 20 665.771 280)"/><path d="M.09 0h.18L.24-.03v-.32L.19-.4h-.1l-.05.05v.078L.09-.3v-.04l.02-.02h.06l.02.02v.061l-.15.086v.143L.09 0Zm.1-.222v.162l-.02.02H.11L.09-.06v-.104l.1-.058Z" style="fill:#231f20;fill-rule:nonzero" transform="matrix(20 0 0 20 671.366 280)"/><path d="M.12-.03V-.2h.03L.12-.23v-.11l.02-.02H.2l.02.02v.04l.05.028V-.35L.22-.4H.04l.03.03v.14L.04-.2h.03v.17L.04 0h.11L.12-.03Z" style="fill:#231f20;fill-rule:nonzero" transform="matrix(20 0 0 20 407.333 300)"/><path d="M.04-.05.09 0h.1l.05-.05v-.078L.19-.1v.04l-.02.02H.11L.09-.06v-.104L.24-.25v-.1L.19-.4h-.1l-.05.05v.3Zm.15-.229-.1.057V-.34l.02-.02h.06l.02.02v.061Z" style="fill:#231f20;fill-rule:nonzero" transform="matrix(20 0 0 20 413.124 300)"/><path d="m.04-.65.03.03v.39L.04-.2h.03v.17L.04 0h.18l.05-.05V-.2H.3L.27-.23v-.12L.22-.4h-.1v-.25H.04Zm.08.42v-.11l.02-.02H.2l.02.02v.11L.19-.2h.03v.14L.2-.04H.14L.12-.06V-.2h.03L.12-.23Z" style="fill:#231f20;fill-rule:nonzero" transform="matrix(20 0 0 20 418.72 300)"/><path d="M.3 0 .27-.03V-.2H.3L.27-.23V-.4H.19l.03.03v.14L.19-.2h.03v.14L.2-.04H.14L.12-.06V-.2h.03L.12-.23V-.4H.04l.03.03v.14L.04-.2h.03v.15L.12 0H.3Z" style="fill:#231f20;fill-rule:nonzero" transform="matrix(20 0 0 20 425.517 300)"/><path d="M.22-.34v.11L.19-.2h.03v.17L.19 0H.3L.27-.03V-.2H.3L.27-.23v-.11l.02-.02h.06l.02.02v.11L.34-.2h.03v.372L.34.2l.045.022L.42.3v-.5h.03L.42-.23v-.12L.37-.4H.04l.03.03v.14L.04-.2h.03v.17L.04 0h.11L.12-.03V-.2h.03L.12-.23v-.11l.02-.02H.2l.02.02Z" style="fill:#231f20;fill-rule:nonzero" transform="matrix(20 0 0 20 432.313 300)"/><path d="M.04-.06H.1V0H.04z" style="fill:#231f20;fill-rule:nonzero" transform="matrix(20 0 0 20 442.108 300)"/><path d="M562.969 380.084c-.552 0-1.038-.096-1.458-.288-.42-.192-.75-.46-.99-.804a2.111 2.111 0 0 1-.384-1.152h.888c.04.408.22.766.54 1.074.32.308.788.462 1.404.462.568 0 1.018-.146 1.35-.438.332-.292.498-.662.498-1.11 0-.36-.092-.65-.276-.87a1.69 1.69 0 0 0-.684-.492 10.612 10.612 0 0 0-1.128-.354 9.862 9.862 0 0 1-1.332-.444 2.12 2.12 0 0 1-.84-.672c-.232-.304-.348-.716-.348-1.236 0-.432.112-.818.336-1.158.224-.34.54-.606.948-.798.408-.192.876-.288 1.404-.288.776 0 1.402.19 1.878.57.476.38.75.87.822 1.47h-.912c-.056-.344-.244-.65-.564-.918-.32-.268-.752-.402-1.296-.402-.504 0-.924.134-1.26.402-.336.268-.504.634-.504 1.098 0 .352.092.636.276.852.184.216.414.38.69.492.276.112.65.232 1.122.36.544.152.984.302 1.32.45.336.148.62.374.852.678.232.304.348.712.348 1.224 0 .392-.104.764-.312 1.116a2.277 2.277 0 0 1-.924.852c-.408.216-.896.324-1.464.324Zm-34.656 0c-.552 0-1.038-.096-1.458-.288-.42-.192-.75-.46-.99-.804a2.111 2.111 0 0 1-.384-1.152h.888c.04.408.22.766.54 1.074.32.308.788.462 1.404.462.568 0 1.018-.146 1.35-.438.332-.292.498-.662.498-1.11 0-.36-.092-.65-.276-.87a1.69 1.69 0 0 0-.684-.492 10.612 10.612 0 0 0-1.128-.354 9.862 9.862 0 0 1-1.332-.444 2.12 2.12 0 0 1-.84-.672c-.232-.304-.348-.716-.348-1.236 0-.432.112-.818.336-1.158.224-.34.54-.606.948-.798.408-.192.876-.288 1.404-.288.776 0 1.402.19 1.878.57.476.38.75.87.822 1.47h-.912c-.056-.344-.244-.65-.564-.918-.32-.268-.752-.402-1.296-.402-.504 0-.924.134-1.26.402-.336.268-.504.634-.504 1.098 0 .352.092.636.276.852.184.216.414.38.69.492.276.112.65.232 1.122.36.544.152.984.302 1.32.45.336.148.62.374.852.678.232.304.348.712.348 1.224 0 .392-.104.764-.312 1.116a2.277 2.277 0 0 1-.924.852c-.408.216-.896.324-1.464.324Zm38.592-4.284c0-.824.18-1.562.54-2.214a3.92 3.92 0 0 1 1.476-1.524 4.067 4.067 0 0 1 2.088-.546c.936 0 1.738.222 2.406.666.668.444 1.154 1.07 1.458 1.878h-.984a2.886 2.886 0 0 0-1.098-1.332c-.492-.32-1.086-.48-1.782-.48-.616 0-1.17.144-1.662.432a3 3 0 0 0-1.158 1.242c-.28.54-.42 1.166-.42 1.878s.14 1.336.42 1.872c.28.536.666.948 1.158 1.236a3.228 3.228 0 0 0 1.662.432c.696 0 1.29-.158 1.782-.474a2.86 2.86 0 0 0 1.098-1.314h.984c-.304.8-.792 1.42-1.464 1.86-.672.44-1.472.66-2.4.66a4.067 4.067 0 0 1-2.088-.546 3.931 3.931 0 0 1-1.476-1.518c-.36-.648-.54-1.384-.54-2.208Zm-89.796-4.236c.808 0 1.526.18 2.154.54.628.36 1.116.86 1.464 1.5.348.64.522 1.372.522 2.196 0 .824-.174 1.558-.522 2.202a3.763 3.763 0 0 1-1.464 1.506c-.628.36-1.346.54-2.154.54-.808 0-1.526-.18-2.154-.54a3.763 3.763 0 0 1-1.464-1.506c-.348-.644-.522-1.378-.522-2.202 0-.824.174-1.556.522-2.196.348-.64.836-1.14 1.464-1.5.628-.36 1.346-.54 2.154-.54Zm35.388.552h-4.392v3.072c.2-.28.492-.51.876-.69.384-.18.8-.27 1.248-.27.656 0 1.192.134 1.608.402.416.268.716.616.9 1.044.184.428.276.886.276 1.374 0 .56-.106 1.066-.318 1.518-.212.452-.536.81-.972 1.074-.436.264-.978.396-1.626.396-.824 0-1.492-.214-2.004-.642-.512-.428-.824-1.006-.936-1.734h.828c.104.528.344.936.72 1.224.376.288.84.432 1.392.432.696 0 1.222-.206 1.578-.618.356-.412.534-.958.534-1.638 0-.664-.18-1.182-.54-1.554-.36-.372-.876-.558-1.548-.558-.464 0-.872.108-1.224.324a1.967 1.967 0 0 0-.78.876h-.792v-4.764h5.172v.732Zm-19.68 3.504c0-1.376.212-2.444.636-3.204.424-.76 1.184-1.14 2.28-1.14 1.096 0 1.856.38 2.28 1.14.424.76.636 1.828.636 3.204 0 1.4-.212 2.484-.636 3.252-.424.768-1.184 1.152-2.28 1.152-1.104 0-1.866-.384-2.286-1.152-.42-.768-.63-1.852-.63-3.252Zm29.988 2.388h-3.816l-.732 1.992h-.888l3.06-8.28h.948l3.048 8.28h-.888l-.732-1.992Zm59.964-6.396V380h-.84v-3.924h-4.548V380h-.84v-8.388h.84v3.768h4.548v-3.768h.84Zm-45.228 0v.696h-2.328V380h-.84v-7.692h-2.34v-.696h5.508Zm9.216 0V380h-.84v-8.388h.84Zm52.512.684v3.132h3.18v.696h-3.18v3.18h3.54V380h-4.38v-8.4h4.38v.696h-3.54Zm-2.22-.684v.696h-3.696v3.132h3.12v.696h-3.12V380h-.84v-8.388h4.536ZM543.337 380l-2.076-3.504h-1.548V380h-.84v-8.388h2.52c.936 0 1.646.224 2.13.672.484.448.726 1.036.726 1.764 0 .608-.174 1.126-.522 1.554-.348.428-.862.706-1.542.834l2.16 3.564h-1.008Zm65.592 0-2.076-3.504h-1.548V380h-.84v-8.388h2.52c.936 0 1.646.224 2.13.672.484.448.726 1.036.726 1.764 0 .608-.174 1.126-.522 1.554-.348.428-.862.706-1.542.834l2.16 3.564h-1.008Zm-57.78-8.388c.928 0 1.724.168 2.388.504.664.336 1.172.82 1.524 1.452.352.632.528 1.384.528 2.256 0 .864-.176 1.61-.528 2.238a3.493 3.493 0 0 1-1.524 1.44c-.664.332-1.46.498-2.388.498h-2.484v-8.388h2.484Zm38.4 6.396h-3.816l-.732 1.992h-.888l3.06-8.28h.948l3.048 8.28h-.888l-.732-1.992Zm-103.764 1.332c1.472-1.104 2.61-2.094 3.414-2.97.804-.876 1.206-1.734 1.206-2.574 0-.552-.138-.994-.414-1.326-.276-.332-.726-.498-1.35-.498-.608 0-1.078.19-1.41.57-.332.38-.518.886-.558 1.518h-.816c.048-.888.322-1.578.822-2.07.5-.492 1.154-.738 1.962-.738.776 0 1.404.218 1.884.654.48.436.72 1.054.72 1.854 0 .968-.402 1.906-1.206 2.814-.804.908-1.794 1.794-2.97 2.658h4.44v.708h-5.724v-.6Zm14.256 0c1.472-1.104 2.61-2.094 3.414-2.97.804-.876 1.206-1.734 1.206-2.574 0-.552-.138-.994-.414-1.326-.276-.332-.726-.498-1.35-.498-.608 0-1.078.19-1.41.57-.332.38-.518.886-.558 1.518h-.816c.048-.888.322-1.578.822-2.07.5-.492 1.154-.738 1.962-.738.776 0 1.404.218 1.884.654.48.436.72 1.054.72 1.854 0 .968-.402 1.906-1.206 2.814-.804.908-1.794 1.794-2.97 2.658h4.44v.708h-5.724v-.6Zm-22.932-7.38c-.752 0-1.406.162-1.962.486a3.32 3.32 0 0 0-1.29 1.356c-.304.58-.456 1.246-.456 1.998s.152 1.418.456 1.998c.304.58.736 1.032 1.296 1.356.56.324 1.212.486 1.956.486s1.396-.162 1.956-.486c.56-.324.992-.776 1.296-1.356.304-.58.456-1.246.456-1.998s-.152-1.418-.456-1.998a3.32 3.32 0 0 0-1.29-1.356c-.556-.324-1.21-.486-1.962-.486Zm74.04 7.344c1.168 0 2.058-.306 2.67-.918.612-.612.918-1.466.918-2.562 0-1.104-.306-1.966-.918-2.586-.612-.62-1.502-.93-2.67-.93h-1.644v6.996h1.644Zm-53.328-3.684c0-.744-.052-1.372-.156-1.884-.104-.512-.308-.924-.612-1.236-.304-.312-.744-.468-1.32-.468-.576 0-1.016.156-1.32.468-.304.312-.508.724-.612 1.236-.104.512-.156 1.14-.156 1.884 0 .768.052 1.41.156 1.926.104.516.308.93.612 1.242.304.312.744.468 1.32.468.576 0 1.016-.156 1.32-.468.304-.312.508-.726.612-1.242.104-.516.156-1.158.156-1.926Zm-20.712-2.628c-.48 0-.916.112-1.308.336a2.437 2.437 0 0 0-.936.972c-.232.424-.348.92-.348 1.488 0 .576.116 1.076.348 1.5.232.424.544.748.936.972a2.59 2.59 0 0 0 1.308.336c.592 0 1.11-.162 1.554-.486.444-.324.742-.762.894-1.314h-.78c-.128.384-.336.676-.624.876-.288.2-.636.3-1.044.3-.528 0-.966-.19-1.314-.57-.348-.38-.522-.914-.522-1.602 0-.688.174-1.224.522-1.608a1.698 1.698 0 0 1 1.314-.576c.392 0 .738.102 1.038.306.3.204.51.498.63.882h.78c-.152-.576-.448-1.022-.888-1.338-.44-.316-.96-.474-1.56-.474Zm45.444 4.32-1.656-4.536-1.656 4.536h3.312Zm66.744 0-1.656-4.536-1.656 4.536h3.312Zm-49.584-1.5h1.692c.656 0 1.15-.16 1.482-.48.332-.32.498-.748.498-1.284 0-.552-.16-.978-.48-1.278-.32-.3-.824-.45-1.512-.45h-1.68v3.492Zm65.592 0h1.692c.656 0 1.15-.16 1.482-.48.332-.32.498-.748.498-1.284 0-.552-.16-.978-.48-1.278-.32-.3-.824-.45-1.512-.45h-1.68v3.492Zm-18.576-5.016a.532.532 0 0 1-.39-.162.532.532 0 0 1-.162-.39c0-.152.054-.282.162-.39a.532.532 0 0 1 .39-.162c.152 0 .282.054.39.162a.532.532 0 0 1 .162.39.532.532 0 0 1-.162.39.532.532 0 0 1-.39.162Zm1.848 0a.532.532 0 0 1-.39-.162.532.532 0 0 1-.162-.39c0-.152.054-.282.162-.39a.532.532 0 0 1 .39-.162c.152 0 .28.054.384.162a.542.542 0 0 1 .156.39.542.542 0 0 1-.156.39.512.512 0 0 1-.384.162Z" style="fill:#231f20"/><path d="M1612 3113C846 2877 295 2168 295 1321.33h104c0 971 792 1771 1771 1771s1771-800 1771-1770.83h104c0 847-551 1556-1317 1791.67h946v70.833H2389c-119 14-239 16-358 7-27-2-54-4-80-7.491H666v-71" style="fill:#575767" transform="matrix(.01095 0 0 .01095 405.504 343.626)"/><path d="M392.021 377.392a1.918 1.918 0 0 1 0 3.833 1.918 1.918 0 0 1 0-3.833Zm-36.144 0a1.918 1.918 0 0 1 0 3.833 1.917 1.917 0 0 1 0-3.833Z" style="fill:#c83154" transform="translate(55.333 -1.225)"/><path d="M167 1041.67h333v333H167v-333Zm3667 0h333v333h-333v-333ZM2001 2958.34h333v333h-333v-333Z" style="fill:#fff" transform="matrix(.01095 0 0 .01095 405.504 343.626)"/><path d="M.12-.4v-.21h.13l.03.03v-.07H.04l.03.03v.39L.04-.2h.03v.17L.04 0h.11L.12-.03V-.2h.03L.12-.23v-.13h.05l.029.03v-.099L.17-.4H.12Z" style="fill:#231f20;fill-rule:nonzero" transform="matrix(100 0 0 100 20 120)"/><path d="M.05-.23.02-.2h.03v.15L.1 0h.11l.05-.05V-.2h.03L.26-.23V-.6L.21-.65H.1L.05-.6v.37ZM.1-.2h.03L.1-.23v-.36l.02-.02h.07l.02.02v.36L.18-.2h.03v.14l-.02.02H.12L.1-.06V-.2Z" style="fill:#231f20;fill-rule:nonzero" transform="matrix(100 0 0 100 45.48 120)"/><path d="m.04-.65.03.03v.39L.04-.2h.03v.17L.04 0h.11L.12-.03V-.2h.03L.12-.23v-.36l.02-.02h.07l.02.02v.36L.2-.2h.03v.372L.2.2l.045.022L.28.3v-.5h.03L.28-.23V-.6L.23-.65H.04Z" style="fill:#231f20;fill-rule:nonzero" transform="matrix(100 0 0 100 78.637 120)"/><path d="M.1-.61v.38L.07-.2H.1v.17L.07 0h.11L.15-.03V-.2h.03L.15-.23v-.38H.2l.03.03v-.07H.02v.07l.03-.03H.1Z" style="fill:#231f20;fill-rule:nonzero" transform="matrix(100 0 0 100 118.098 120)"/><path d="m.04-.65.03.03v.39L.04-.2h.03v.17L.04 0h.11L.12-.03V-.2h.03L.12-.23v-.36l.02-.02h.07l.02.02v.36L.2-.2h.03v.372L.2.2l.045.022L.28.3v-.5h.03L.28-.23V-.6L.23-.65H.04Z" style="fill:#231f20;fill-rule:nonzero" transform="matrix(100 0 0 100 168.098 120)"/><path d="M.05-.23.02-.2h.03v.15L.1 0h.11l.05-.05V-.2h.03L.26-.23V-.6L.21-.65H.1L.05-.6v.37ZM.1-.2h.03L.1-.23v-.36l.02-.02h.07l.02.02v.36L.18-.2h.03v.14l-.02.02H.12L.1-.06V-.2Z" style="fill:#231f20;fill-rule:nonzero" transform="matrix(100 0 0 100 203.06 120)"/><path d="M.04-.6v.29h.14l.02.02v.23l-.02.02H.11L.09-.06v-.09H.04v.1L.09 0H.2l.05-.05V-.3L.2-.35H.09v-.2h.16V-.6H.04Z" style="fill:#231f20;fill-rule:nonzero" transform="matrix(100 0 0 100 249.816 120)"/><path d="m659.773 359.072.006-.006L680 379.287l-.713.713-19.514-19.514L640.26 380l-.713-.713 20.221-20.221.005.006Z" style="fill:#231f20"/><path d="M.17-.34v.061l.05.029v-.1L.17-.4h-.1l-.05.05v.104l.15.085v.101l-.02.02H.09L.07-.06v-.068L.02-.164v.114L.07 0h.1l.05-.05v-.128L.07-.264V-.34l.02-.02h.06l.02.02Z" style="fill:#231f20;fill-rule:nonzero" transform="matrix(20 0 0 20 407.333 100)"/><path d="M.04-.05.09 0h.1l.05-.05v-.078L.19-.1v.04l-.02.02H.11L.09-.06v-.104L.24-.25v-.1L.19-.4h-.1l-.05.05v.3Zm.15-.229-.1.057V-.34l.02-.02h.06l.02.02v.061Z" style="fill:#231f20;fill-rule:nonzero" transform="matrix(20 0 0 20 412.128 100)"/><path d="M.12-.03V-.2h.03L.12-.23v-.11l.02-.02H.2l.02.02v.04l.05.028V-.35L.22-.4H.04l.03.03v.14L.04-.2h.03v.17L.04 0h.11L.12-.03Z" style="fill:#231f20;fill-rule:nonzero" transform="matrix(20 0 0 20 417.724 100)"/><path d="M.07-.23.04-.2h.03v.17L.04 0h.11L.12-.03V-.2h.03L.12-.23V-.4H.04l.03.03v.14ZM.075-.5v.02h.04V-.5h.02v-.04h-.02v-.02h-.04v.02h-.02v.04h.02Z" style="fill:#231f20;fill-rule:nonzero" transform="matrix(20 0 0 20 423.515 100)"/><path d="M.16-.36.12-.4v-.19l.02-.02h.055l.04-.04H.12L.07-.6v.2H.005l.04.04H.07v.13L.04-.2h.03v.5L.105.222.15.2.12.173V-.2h.03L.12-.23v-.13h.04Z" style="fill:#231f20;fill-rule:nonzero" transform="matrix(20 0 0 20 427.314 100)"/><path d="M.16-.36.12-.4v-.19l.02-.02h.055l.04-.04H.12L.07-.6v.2H.005l.04.04H.07v.13L.04-.2h.03v.5L.105.222.15.2.12.173V-.2h.03L.12-.23v-.13h.04Z" style="fill:#231f20;fill-rule:nonzero" transform="matrix(20 0 0 20 436.113 100)"/><path d="M.05-.23.02-.2h.03v.15L.1 0h.1l.05-.05V-.2h.03L.25-.23v-.12L.2-.4H.1l-.05.05v.12ZM.1-.2h.03L.1-.23v-.11l.02-.02h.06l.02.02v.11L.17-.2H.2v.14l-.02.02H.12L.1-.06V-.2Z" style="fill:#231f20;fill-rule:nonzero" transform="matrix(20 0 0 20 439.911 100)"/><path d="M.22.172.19.2l.045.022L.27.3v-.5H.3L.27-.23v-.12L.22-.4H.04l.03.03v.14L.04-.2h.03v.17L.04 0h.11L.12-.03V-.2h.03L.12-.23v-.11l.02-.02H.2l.02.02v.11L.19-.2h.03v.372Z" style="fill:#231f20;fill-rule:nonzero" transform="matrix(20 0 0 20 445.908 100)"/><path d="M.07-.4H.006l.039.04H.07v.13L.04-.2h.03v.278L.105 0 .15-.022.12-.05V-.2h.03L.12-.23v-.13h.04L.12-.4v-.25L.07-.6v.2Z" style="fill:#231f20;fill-rule:nonzero" transform="matrix(20 0 0 20 452.704 100)"/><path d="M.16-.36.12-.4v-.19l.02-.02h.055l.04-.04H.12L.07-.6v.2H.005l.04.04H.07v.13L.04-.2h.03v.5L.105.222.15.2.12.173V-.2h.03L.12-.23v-.13h.04Z" style="fill:#231f20;fill-rule:nonzero" transform="matrix(20 0 0 20 461.503 100)"/><path d="M.05-.23.02-.2h.03v.15L.1 0h.1l.05-.05V-.2h.03L.25-.23v-.12L.2-.4H.1l-.05.05v.12ZM.1-.2h.03L.1-.23v-.11l.02-.02h.06l.02.02v.11L.17-.2H.2v.14l-.02.02H.12L.1-.06V-.2Z" style="fill:#231f20;fill-rule:nonzero" transform="matrix(20 0 0 20 465.302 100)"/><path d="M.12-.03V-.2h.03L.12-.23v-.11l.02-.02H.2l.02.02v.04l.05.028V-.35L.22-.4H.04l.03.03v.14L.04-.2h.03v.17L.04 0h.11L.12-.03Z" style="fill:#231f20;fill-rule:nonzero" transform="matrix(20 0 0 20 471.298 100)"/><path d="m.04-.65.03.03v.39L.04-.2h.03v.17L.04 0h.18l.05-.05V-.2H.3L.27-.23v-.12L.22-.4h-.1v-.25H.04Zm.08.42v-.11l.02-.02H.2l.02.02v.11L.19-.2h.03v.14L.2-.04H.14L.12-.06V-.2h.03L.12-.23Z" style="fill:#231f20;fill-rule:nonzero" transform="matrix(20 0 0 20 482.089 100)"/><path d="M.05-.23.02-.2h.03v.15L.1 0h.1l.05-.05V-.2h.03L.25-.23v-.12L.2-.4H.1l-.05.05v.12ZM.1-.2h.03L.1-.23v-.11l.02-.02h.06l.02.02v.11L.17-.2H.2v.14l-.02.02H.12L.1-.06V-.2Z" style="fill:#231f20;fill-rule:nonzero" transform="matrix(20 0 0 20 488.886 100)"/><path d="M.05-.23.02-.2h.03v.15L.1 0h.1l.05-.05V-.2h.03L.25-.23v-.12L.2-.4H.1l-.05.05v.12ZM.1-.2h.03L.1-.23v-.11l.02-.02h.06l.02.02v.11L.17-.2H.2v.14l-.02.02H.12L.1-.06V-.2Z" style="fill:#231f20;fill-rule:nonzero" transform="matrix(20 0 0 20 494.882 100)"/><path d="M.23-.2v.372L.2.2l.045.022L.28.3v-.5h.03L.28-.23v-.12L.24-.39l.02-.02v-.11l.03-.03H.18l.03.03v.1L.19-.4H.12v-.22l.03-.03H.04l.03.03v.39L.04-.2h.03v.17L.04 0h.11L.12-.03V-.2h.03L.12-.23v-.13h.09l.02.02v.11L.2-.2h.03Z" style="fill:#231f20;fill-rule:nonzero" transform="matrix(20 0 0 20 500.878 100)"/><path d="M.27-.128.22-.1v.04L.2-.04H.14L.12-.06V-.2h.03L.12-.23v-.11l.02-.02H.2l.02.02v.04l.05.028V-.35L.22-.4h-.1l-.05.05v.12L.04-.2h.03v.15L.12 0h.1l.05-.05v-.078Z" style="fill:#231f20;fill-rule:nonzero" transform="matrix(20 0 0 20 512.87 100)"/><path d="M.05-.23.02-.2h.03v.15L.1 0h.1l.05-.05V-.2h.03L.25-.23v-.12L.2-.4H.1l-.05.05v.12ZM.1-.2h.03L.1-.23v-.11l.02-.02h.06l.02.02v.11L.17-.2H.2v.14l-.02.02H.12L.1-.06V-.2Z" style="fill:#231f20;fill-rule:nonzero" transform="matrix(20 0 0 20 519.062 100)"/><path d="M.07-.03.04 0h.18l.05-.05V-.2H.3L.27-.23v-.14L.3-.4H.19l.03.03v.14L.19-.2h.03v.14L.2-.04H.14L.12-.06V-.2h.03L.12-.23v-.14L.15-.4H.04l.03.03v.14L.04-.2h.03v.17Z" style="fill:#231f20;fill-rule:nonzero" transform="matrix(20 0 0 20 525.058 100)"/><path d="M.04-.05.09 0h.1l.05-.05v-.078L.19-.1v.04l-.02.02H.11L.09-.06v-.104L.24-.25v-.1L.19-.4h-.1l-.05.05v.3Zm.15-.229-.1.057V-.34l.02-.02h.06l.02.02v.061Z" style="fill:#231f20;fill-rule:nonzero" transform="matrix(20 0 0 20 531.855 100)"/><path d="M.12-.03V-.2h.03L.12-.23v-.11l.02-.02H.2l.02.02v.04l.05.028V-.35L.22-.4H.04l.03.03v.14L.04-.2h.03v.17L.04 0h.11L.12-.03Z" style="fill:#231f20;fill-rule:nonzero" transform="matrix(20 0 0 20 537.451 100)"/><path d="M.17-.34v.061l.05.029v-.1L.17-.4h-.1l-.05.05v.104l.15.085v.101l-.02.02H.09L.07-.06v-.068L.02-.164v.114L.07 0h.1l.05-.05v-.128L.07-.264V-.34l.02-.02h.06l.02.02Z" style="fill:#231f20;fill-rule:nonzero" transform="matrix(20 0 0 20 543.242 100)"/><path d="M.04-.06H.1V0H.04z" style="fill:#231f20;fill-rule:nonzero" transform="matrix(20 0 0 20 548.036 100)"/><path d="M239.53 160h135.855l-.165 219.836-135.69.063V160Zm1.503 178.461c2.036 10.71 7.923 20.954 16.275 28.317 8.348 7.358 19.81 12.263 30.161 12.547l2.76.027v-49.934l-50.044-.148.115 3.214c.116 1.779.446 4.469.733 5.977Zm-.846 40.883s41.66-.091 39.541-.536c-16.268-3.42-30.57-15.588-36.586-31.128-1.155-2.983-2.314-6.925-2.723-9.259-.079-.45-.232 40.923-.232 40.923Zm61.691-.101c0 .057 72.837.101 72.837.101s.094-72.299-.007-72.436c-.101-.136-.375 1.107-.61 2.763-.583 4.111-2.631 11.519-4.478 16.198-9.101 23.057-27.172 40.691-50.322 49.105-4.15 1.509-10.79 3.231-14.44 3.747-1.639.231-2.98.466-2.98.522Zm-9.607.097c.862-.001 3.339-.154 5.505-.337 33.897-2.873 62.838-26.043 73.139-58.552 2.168-6.843 3.807-16.68 3.811-22.87l.001-2.047h-41.784c-22.982 0-41.869.085-41.971.187-.103.102-.266 83.623-.266 83.623l1.567-.003-.002-.001Zm-17.212-50.74c.591 0 2.062-.273 3.269-.608 6.177-1.708 11.251-7.426 11.66-13.139l.165-2.295h-16.168V328.6h1.074Zm-34.871 0h33.141v-32.738h-2.147c-5.431 0-12.121 2.417-17.542 6.339-7.627 5.518-13.274 15.899-13.424 24.68l-.028 1.719Zm50.096-.112c.067-.189-.052-10.845-.052-10.845l-1.122 2.275c-1.495 3.031-4.715 6.219-7.622 7.545l-2.133.973s10.75.122 10.929.052Zm0 0v.003l.002-.003h-.002Zm-49.475-8.891c3.136-10.681 11.748-19.634 21.89-22.756 1.244-.383 2.558-.823 2.919-.979.384-.166-25.432-.328-25.432-.328s.05 26.019.622 24.063h.001Zm33.177-7.693s16.042-.073 16.13-.161c.088-.088.043-1.156-.104-2.373-.793-6.651-7.14-12.86-13.707-13.409l-2.319-.194v16.137Zm7.437-15.083c2.873 1.342 6.504 4.956 7.663 7.629.448 1.032.929 1.879 1.069 1.882.14.003.073-10.634.073-10.634s-10.993-.117-10.993-.041c0 .077.984.6 2.187 1.162l.001.002Zm26.085-1.94h67.322l-.217-5.507c-1.122-28.483-11.681-56.374-29.786-78.678-20.734-25.542-49.781-42.61-81.834-48.084-6.751-1.153-10.828-1.581-17.638-1.853l-5.168-.207v134.329h67.321Zm-40.906-132.265c12.032 2.477 22.077 5.882 32.815 11.125 34.412 16.8 60.238 47.592 70.714 84.308 2.031 7.119 4.268 18.428 4.268 21.58 0 .705.077 1.206.171 1.112.094-.093.321-120.087.321-120.087s-119.942.128-116.821.508c1.986.241 5.825.895 8.532 1.452v.002Z" style="fill:#231f20;fill-rule:nonzero"/><path d="M.22.112.2.132H.09l-.05.04h.18l.05-.05V-.2H.3L.27-.23v-.14L.3-.4H.12l-.05.05v.12L.04-.2h.03v.15L.12 0h.1v.112ZM.12-.23v-.11l.02-.02H.2l.02.02v.11L.19-.2h.03v.14L.2-.04H.14L.12-.06V-.2h.03L.12-.23Z" style="fill:#231f20;fill-rule:nonzero" transform="translate(18.826 320) scale(325.4)"/><path d="M.219-.6H.211l-.026.141-.143-.02-.002.008.127.068-.063.128.007.005.104-.099.104.099.007-.005-.063-.128.127-.068-.002-.008-.143.02L.219-.6Z" style="fill:#231f20;fill-rule:nonzero" transform="matrix(30 0 0 30 144.805 240)"/><path d="M.125-.08a.045.045 0 0 0-.045.045C.08-.01.1.01.125.01.15.01.17-.01.17-.035A.045.045 0 0 0 .125-.08Z" style="fill:#231f20;fill-rule:nonzero" transform="matrix(30 0 0 30 157.705 240)"/><path d="M.054 0h.01c.005-.015.011-.02.019-.02.021 0 .047.03.101.03a.13.13 0 0 0 .13-.128c0-.125-.208-.122-.208-.215 0-.032.031-.059.067-.059.043 0 .082.037.106.102h.01V-.4h-.01c-.005.015-.01.021-.017.021C.243-.379.223-.41.174-.41a.116.116 0 0 0-.117.114c0 .125.209.122.209.217 0 .038-.037.071-.081.071-.054 0-.098-.045-.121-.122h-.01V0Z" style="fill:#231f20;fill-rule:nonzero" transform="matrix(30 0 0 30 165.205 240)"/><path d="M.226-.09.128-.33a.052.052 0 0 1-.004-.021c0-.023.015-.039.041-.039V-.4H-.01v.01c.025 0 .048.026.062.06l.139.34h.01L.34-.33c.014-.033.041-.06.07-.06V-.4H.27v.01c.036 0 .058.016.058.04a.053.053 0 0 1-.005.02l-.097.24Z" style="fill:#231f20;fill-rule:nonzero" transform="matrix(30 0 0 30 175.885 240)"/><path d="M.323-.344c.018-.02.037-.029.055-.029.03 0 .053.025.058.063.014-.008.022-.028.022-.048C.458-.39.437-.41.404-.41c-.031 0-.065.02-.091.053A.141.141 0 0 0 .195-.41C.111-.41.05-.354.05-.275c0 .049.025.091.066.115a.103.103 0 0 0-.048.09c0 .038.028.067.078.08C.083.021.038.057.038.101.038.159.11.2.211.2.329.2.401.141.401.045c0-.157-.303-.057-.303-.146 0-.021.017-.042.035-.051a.16.16 0 0 0 .062.012C.28-.14.34-.195.34-.275a.138.138 0 0 0-.017-.069ZM.165.01h.003c.15 0 .201.036.201.074C.369.137.3.182.215.182.145.182.1.148.1.097.1.061.127.025.165.01Zm.03-.402c.049 0 .079.045.079.117 0 .072-.03.116-.079.116S.116-.204.116-.275c0-.072.031-.117.079-.117Z" style="fill:#231f20;fill-rule:nonzero" transform="matrix(30 0 0 30 187.885 240)"/><path d="M.12-.65.07-.6v.37L.04-.2h.03v.17L.04 0h.11L.12-.03V-.2h.03L.12-.23v-.13h.11v.13L.2-.2h.03v.372L.2.2l.045.022L.28.3v-.5h.03L.28-.23v-.39l.03-.03H.12Zm.11.04v.21H.12v-.19l.02-.02h.09Z" style="fill:#231f20;fill-rule:nonzero" transform="translate(264.14 260) scale(100.016)"/><path d="M.09 0h.18L.24-.03v-.32L.19-.4h-.1l-.05.05v.078L.09-.3v-.04l.02-.02h.06l.02.02v.061l-.15.086v.143L.09 0Zm.1-.222v.162l-.02.02H.11L.09-.06v-.104l.1-.058Z" style="fill:#231f20;fill-rule:nonzero" transform="translate(299.107 260) scale(100.016)"/></svg>