<svg xmlns="http://www.w3.org/2000/svg" xml:space="preserve" style="fill-rule:evenodd;clip-rule:evenodd;stroke-linejoin:round;stroke-miterlimit:2" viewBox="0 0 700 400"><path d="M351 199h83v66.471h-83z" style="fill:#89838d" transform="matrix(8.43373 0 0 6.01766 -2960.24 -1197.51)"/><path d="M.078 0v-.64h.08v.56h.72V0h-.8Z" style="fill:#231f20;fill-rule:nonzero" transform="matrix(16 0 0 16 407.333 180)"/><path d="M.852-.48v.32c0 .04-.017.077-.05.11a.154.154 0 0 1-.11.05h-.48a.154.154 0 0 1-.11-.05.154.154 0 0 1-.05-.11v-.32c0-.04.017-.077.05-.11a.154.154 0 0 1 .11-.05h.48c.04 0 .077.017.11.05s.05.07.05.11Zm-.08.04c0-.08-.04-.12-.12-.12h-.4c-.08 0-.12.04-.12.12v.24c0 .08.04.12.12.12h.4c.08 0 .12-.04.12-.12v-.24Z" style="fill:#231f20;fill-rule:nonzero" transform="matrix(16 0 0 16 422.47 180)"/><path d="M.798-.18a.09.09 0 0 0-.031-.073C.747-.271.717-.28.678-.28h-.52V0h-.08v-.36h.6c.039 0 .069-.009.089-.027A.09.09 0 0 0 .798-.46a.09.09 0 0 0-.031-.073C.747-.551.717-.56.678-.56h-.6v-.08h.64a.15.15 0 0 1 .111.053.18.18 0 0 1 .049.127.18.18 0 0 1-.063.14.18.18 0 0 1 .063.14V0h-.08v-.18Z" style="fill:#231f20;fill-rule:nonzero" transform="matrix(16 0 0 16 437.445 180)"/><path d="M.876-.08V0h-.8v-.08h.8Zm-.08-.28v.08h-.72v-.08h.72Zm.08-.28v.08h-.8v-.08h.8Z" style="fill:#231f20;fill-rule:nonzero" transform="matrix(16 0 0 16 452.677 180)"/><path d="m.798-.512-.28.272h-.08l-.28-.296V0h-.08v-.64h.08l.32.32.32-.32h.08V0h-.08v-.512Z" style="fill:#231f20;fill-rule:nonzero" transform="matrix(16 0 0 16 467.973 180)"/><path d="M.078-.64h.08V0h-.08z" style="fill:#231f20;fill-rule:nonzero" transform="matrix(16 0 0 16 494.533 180)"/><path d="M.076-.36h.6a.134.134 0 0 0 .09-.027.093.093 0 0 0 .03-.073.093.093 0 0 0-.03-.073.134.134 0 0 0-.09-.027h-.6v-.08h.64a.15.15 0 0 1 .111.053.18.18 0 0 1 .049.127.177.177 0 0 1-.049.126.148.148 0 0 1-.111.054h-.56V0h-.08v-.36Z" style="fill:#231f20;fill-rule:nonzero" transform="matrix(16 0 0 16 498.373 180)"/><path d="M.652-.28h-.44a.15.15 0 0 1-.111-.053.18.18 0 0 1-.049-.127.18.18 0 0 1 .049-.127.15.15 0 0 1 .111-.053h.56v.08h-.52a.134.134 0 0 0-.09.027.093.093 0 0 0-.03.073c0 .031.01.055.031.073.02.018.05.027.089.027h.44a.15.15 0 0 1 .111.053.18.18 0 0 1 .049.127.18.18 0 0 1-.049.127A.15.15 0 0 1 .692 0h-.64v-.08h.6a.134.134 0 0 0 .09-.027.093.093 0 0 0 .03-.073.093.093 0 0 0-.03-.073.134.134 0 0 0-.09-.027Z" style="fill:#231f20;fill-rule:nonzero" transform="matrix(16 0 0 16 513.397 180)"/><path d="M.87-.64v.48c0 .04-.017.077-.05.11A.154.154 0 0 1 .71 0H.23a.154.154 0 0 1-.11-.05.154.154 0 0 1-.05-.11v-.48h.08v.44c0 .08.04.12.12.12h.4c.08 0 .12-.04.12-.12v-.44h.08Z" style="fill:#231f20;fill-rule:nonzero" transform="matrix(16 0 0 16 528.261 180)"/><path d="m.798-.512-.28.272h-.08l-.28-.296V0h-.08v-.64h.08l.32.32.32-.32h.08V0h-.08v-.512Z" style="fill:#231f20;fill-rule:nonzero" transform="matrix(16 0 0 16 543.493 180)"/><path d="M.078 0v-.64h.64c.04 0 .077.017.11.05s.05.07.05.11v.32c0 .04-.017.077-.05.11a.154.154 0 0 1-.11.05h-.64Zm.08-.56v.48h.52c.08 0 .12-.04.12-.12v-.24c0-.08-.04-.12-.12-.12h-.52Z" style="fill:#231f20;fill-rule:nonzero" transform="matrix(16 0 0 16 570.053 180)"/><path d="M.852-.48v.32c0 .04-.017.077-.05.11a.154.154 0 0 1-.11.05h-.48a.154.154 0 0 1-.11-.05.154.154 0 0 1-.05-.11v-.32c0-.04.017-.077.05-.11a.154.154 0 0 1 .11-.05h.48c.04 0 .077.017.11.05s.05.07.05.11Zm-.08.04c0-.08-.04-.12-.12-.12h-.4c-.08 0-.12.04-.12.12v.24c0 .08.04.12.12.12h.4c.08 0 .12-.04.12-.12v-.24Z" style="fill:#231f20;fill-rule:nonzero" transform="matrix(16 0 0 16 585.237 180)"/><path d="M.078 0v-.64h.08v.56h.72V0h-.8Z" style="fill:#231f20;fill-rule:nonzero" transform="matrix(16 0 0 16 600.213 180)"/><path d="M.852-.48v.32c0 .04-.017.077-.05.11a.154.154 0 0 1-.11.05h-.48a.154.154 0 0 1-.11-.05.154.154 0 0 1-.05-.11v-.32c0-.04.017-.077.05-.11a.154.154 0 0 1 .11-.05h.48c.04 0 .077.017.11.05s.05.07.05.11Zm-.08.04c0-.08-.04-.12-.12-.12h-.4c-.08 0-.12.04-.12.12v.24c0 .08.04.12.12.12h.4c.08 0 .12-.04.12-.12v-.24Z" style="fill:#231f20;fill-rule:nonzero" transform="matrix(16 0 0 16 615.35 180)"/><path d="M.798-.18a.09.09 0 0 0-.031-.073C.747-.271.717-.28.678-.28h-.52V0h-.08v-.36h.6c.039 0 .069-.009.089-.027A.09.09 0 0 0 .798-.46a.09.09 0 0 0-.031-.073C.747-.551.717-.56.678-.56h-.6v-.08h.64a.15.15 0 0 1 .111.053.18.18 0 0 1 .049.127.18.18 0 0 1-.063.14.18.18 0 0 1 .063.14V0h-.08v-.18Z" style="fill:#231f20;fill-rule:nonzero" transform="matrix(16 0 0 16 630.325 180)"/><path d="M.652-.28h-.44a.15.15 0 0 1-.111-.053.18.18 0 0 1-.049-.127.18.18 0 0 1 .049-.127.15.15 0 0 1 .111-.053h.56v.08h-.52a.134.134 0 0 0-.09.027.093.093 0 0 0-.03.073c0 .031.01.055.031.073.02.018.05.027.089.027h.44a.15.15 0 0 1 .111.053.18.18 0 0 1 .049.127.18.18 0 0 1-.049.127A.15.15 0 0 1 .692 0h-.64v-.08h.6a.134.134 0 0 0 .09-.027.093.093 0 0 0 .03-.073.093.093 0 0 0-.03-.073.134.134 0 0 0-.09-.027Z" style="fill:#231f20;fill-rule:nonzero" transform="matrix(16 0 0 16 407.333 200)"/><path d="M.078-.64h.08V0h-.08z" style="fill:#231f20;fill-rule:nonzero" transform="matrix(16 0 0 16 422.197 200)"/><path d="M.35-.56h-.36v-.08h.8v.08H.43V0H.35v-.56Z" style="fill:#231f20;fill-rule:nonzero" transform="matrix(16 0 0 16 426.037 200)"/><path d="M.419-.64h.093L.885 0H.793L.466-.561.139 0H.046l.373-.64Z" style="fill:#231f20;fill-rule:nonzero" transform="matrix(16 0 0 16 450.357 200)"/><path d="m.798-.512-.28.272h-.08l-.28-.296V0h-.08v-.64h.08l.32.32.32-.32h.08V0h-.08v-.512Z" style="fill:#231f20;fill-rule:nonzero" transform="matrix(16 0 0 16 464.101 200)"/><path d="M.876-.08V0h-.8v-.08h.8Zm-.08-.28v.08h-.72v-.08h.72Zm.08-.28v.08h-.8v-.08h.8Z" style="fill:#231f20;fill-rule:nonzero" transform="matrix(16 0 0 16 479.461 200)"/><path d="M.35-.56h-.36v-.08h.8v.08H.43V0H.35v-.56Z" style="fill:#231f20;fill-rule:nonzero" transform="matrix(16 0 0 16 494.757 200)"/><path d="M.089 0v-.1h.1V0a.178.178 0 0 1-.02.089.126.126 0 0 1-.062.053L.083.104A.081.081 0 0 0 .124.068.149.149 0 0 0 .139 0h-.05Z" style="fill:#231f20;fill-rule:nonzero" transform="matrix(16 0 0 16 507.877 200)"/><path d="M.852-.64v.08h-.6c-.08 0-.12.04-.12.12v.24c0 .08.04.12.12.12h.6V0h-.64a.154.154 0 0 1-.11-.05.154.154 0 0 1-.05-.11v-.32c0-.04.017-.077.05-.11a.154.154 0 0 1 .11-.05h.64Z" style="fill:#231f20;fill-rule:nonzero" transform="matrix(16 0 0 16 523.522 200)"/><path d="M.852-.48v.32c0 .04-.017.077-.05.11a.154.154 0 0 1-.11.05h-.48a.154.154 0 0 1-.11-.05.154.154 0 0 1-.05-.11v-.32c0-.04.017-.077.05-.11a.154.154 0 0 1 .11-.05h.48c.04 0 .077.017.11.05s.05.07.05.11Zm-.08.04c0-.08-.04-.12-.12-.12h-.4c-.08 0-.12.04-.12.12v.24c0 .08.04.12.12.12h.4c.08 0 .12-.04.12-.12v-.24Z" style="fill:#231f20;fill-rule:nonzero" transform="matrix(16 0 0 16 538.61 200)"/><path d="M.426-.44c0-.086-.047-.129-.14-.129-.093 0-.14.043-.14.129V0h-.08v-.48c0-.043.02-.082.061-.117a.233.233 0 0 1 .159-.052c.066 0 .119.017.16.052.04.035.06.074.06.117v.289c0 .041.011.071.033.091.022.019.058.029.107.029.049 0 .085-.01.107-.029.022-.02.033-.05.033-.091V-.64h.08v.489c0 .043-.02.08-.06.112a.248.248 0 0 1-.16.048.248.248 0 0 1-.16-.048c-.04-.032-.06-.069-.06-.112V-.44Z" style="fill:#231f20;fill-rule:nonzero" transform="matrix(16 0 0 16 553.586 200)"/><path d="M.652-.28h-.44a.15.15 0 0 1-.111-.053.18.18 0 0 1-.049-.127.18.18 0 0 1 .049-.127.15.15 0 0 1 .111-.053h.56v.08h-.52a.134.134 0 0 0-.09.027.093.093 0 0 0-.03.073c0 .031.01.055.031.073.02.018.05.027.089.027h.44a.15.15 0 0 1 .111.053.18.18 0 0 1 .049.127.18.18 0 0 1-.049.127A.15.15 0 0 1 .692 0h-.64v-.08h.6a.134.134 0 0 0 .09-.027.093.093 0 0 0 .03-.073.093.093 0 0 0-.03-.073.134.134 0 0 0-.09-.027Z" style="fill:#231f20;fill-rule:nonzero" transform="matrix(16 0 0 16 568.786 200)"/><path d="M.876-.08V0h-.8v-.08h.8Zm-.08-.28v.08h-.72v-.08h.72Zm.08-.28v.08h-.8v-.08h.8Z" style="fill:#231f20;fill-rule:nonzero" transform="matrix(16 0 0 16 583.65 200)"/><path d="M.35-.56h-.36v-.08h.8v.08H.43V0H.35v-.56Z" style="fill:#231f20;fill-rule:nonzero" transform="matrix(16 0 0 16 598.946 200)"/><path d="M.876-.08V0h-.8v-.08h.8Zm-.08-.28v.08h-.72v-.08h.72Zm.08-.28v.08h-.8v-.08h.8Z" style="fill:#231f20;fill-rule:nonzero" transform="matrix(16 0 0 16 612.066 200)"/><path d="M.35-.56h-.36v-.08h.8v.08H.43V0H.35v-.56Z" style="fill:#231f20;fill-rule:nonzero" transform="matrix(16 0 0 16 627.362 200)"/><path d="M.87-.64v.48c0 .04-.017.077-.05.11A.154.154 0 0 1 .71 0H.23a.154.154 0 0 1-.11-.05.154.154 0 0 1-.05-.11v-.48h.08v.44c0 .08.04.12.12.12h.4c.08 0 .12-.04.12-.12v-.44h.08Z" style="fill:#231f20;fill-rule:nonzero" transform="matrix(16 0 0 16 640.482 200)"/><path d="M.798-.18a.09.09 0 0 0-.031-.073C.747-.271.717-.28.678-.28h-.52V0h-.08v-.36h.6c.039 0 .069-.009.089-.027A.09.09 0 0 0 .798-.46a.09.09 0 0 0-.031-.073C.747-.551.717-.56.678-.56h-.6v-.08h.64a.15.15 0 0 1 .111.053.18.18 0 0 1 .049.127.18.18 0 0 1-.063.14.18.18 0 0 1 .063.14V0h-.08v-.18Z" style="fill:#231f20;fill-rule:nonzero" transform="matrix(16 0 0 16 655.714 200)"/><path d="M.652-.28h-.44a.15.15 0 0 1-.111-.053.18.18 0 0 1-.049-.127.18.18 0 0 1 .049-.127.15.15 0 0 1 .111-.053h.56v.08h-.52a.134.134 0 0 0-.09.027.093.093 0 0 0-.03.073c0 .031.01.055.031.073.02.018.05.027.089.027h.44a.15.15 0 0 1 .111.053.18.18 0 0 1 .049.127.18.18 0 0 1-.049.127A.15.15 0 0 1 .692 0h-.64v-.08h.6a.134.134 0 0 0 .09-.027.093.093 0 0 0 .03-.073.093.093 0 0 0-.03-.073.134.134 0 0 0-.09-.027Z" style="fill:#231f20;fill-rule:nonzero" transform="matrix(16 0 0 16 407.333 220)"/><path d="M.419-.64h.093L.885 0H.793L.466-.561.139 0H.046l.373-.64Z" style="fill:#231f20;fill-rule:nonzero" transform="matrix(16 0 0 16 422.197 220)"/><path d="M.078 0v-.64h.64c.04 0 .077.017.11.05s.05.07.05.11v.32c0 .04-.017.077-.05.11a.154.154 0 0 1-.11.05h-.64Zm.08-.56v.48h.52c.08 0 .12-.04.12-.12v-.24c0-.08-.04-.12-.12-.12h-.52Z" style="fill:#231f20;fill-rule:nonzero" transform="matrix(16 0 0 16 435.941 220)"/><path d="M.078-.64h.08V0h-.08z" style="fill:#231f20;fill-rule:nonzero" transform="matrix(16 0 0 16 451.125 220)"/><path d="M.076-.36h.6a.134.134 0 0 0 .09-.027.093.093 0 0 0 .03-.073.093.093 0 0 0-.03-.073.134.134 0 0 0-.09-.027h-.6v-.08h.64a.15.15 0 0 1 .111.053.18.18 0 0 1 .049.127.177.177 0 0 1-.049.126.148.148 0 0 1-.111.054h-.56V0h-.08v-.36Z" style="fill:#231f20;fill-rule:nonzero" transform="matrix(16 0 0 16 454.965 220)"/><path d="M.652-.28h-.44a.15.15 0 0 1-.111-.053.18.18 0 0 1-.049-.127.18.18 0 0 1 .049-.127.15.15 0 0 1 .111-.053h.56v.08h-.52a.134.134 0 0 0-.09.027.093.093 0 0 0-.03.073c0 .031.01.055.031.073.02.018.05.027.089.027h.44a.15.15 0 0 1 .111.053.18.18 0 0 1 .049.127.18.18 0 0 1-.049.127A.15.15 0 0 1 .692 0h-.64v-.08h.6a.134.134 0 0 0 .09-.027.093.093 0 0 0 .03-.073.093.093 0 0 0-.03-.073.134.134 0 0 0-.09-.027Z" style="fill:#231f20;fill-rule:nonzero" transform="matrix(16 0 0 16 469.99 220)"/><path d="M.852-.64v.08h-.6c-.08 0-.12.04-.12.12v.24c0 .08.04.12.12.12h.6V0h-.64a.154.154 0 0 1-.11-.05.154.154 0 0 1-.05-.11v-.32c0-.04.017-.077.05-.11a.154.154 0 0 1 .11-.05h.64Z" style="fill:#231f20;fill-rule:nonzero" transform="matrix(16 0 0 16 484.853 220)"/><path d="M.078-.64h.08V0h-.08z" style="fill:#231f20;fill-rule:nonzero" transform="matrix(16 0 0 16 499.941 220)"/><path d="M.426-.44c0-.086-.047-.129-.14-.129-.093 0-.14.043-.14.129V0h-.08v-.48c0-.043.02-.082.061-.117a.233.233 0 0 1 .159-.052c.066 0 .119.017.16.052.04.035.06.074.06.117v.289c0 .041.011.071.033.091.022.019.058.029.107.029.049 0 .085-.01.107-.029.022-.02.033-.05.033-.091V-.64h.08v.489c0 .043-.02.08-.06.112a.248.248 0 0 1-.16.048.248.248 0 0 1-.16-.048c-.04-.032-.06-.069-.06-.112V-.44Z" style="fill:#231f20;fill-rule:nonzero" transform="matrix(16 0 0 16 503.781 220)"/><path d="M.492-.28v-.08h.36v.2c0 .04-.017.077-.05.11a.154.154 0 0 1-.11.05h-.48a.154.154 0 0 1-.11-.05.154.154 0 0 1-.05-.11v-.32c0-.04.017-.077.05-.11a.154.154 0 0 1 .11-.05h.56v.08h-.52c-.08 0-.12.04-.12.12v.24c0 .08.04.12.12.12h.4c.08 0 .12-.04.12-.12v-.08h-.28Z" style="fill:#231f20;fill-rule:nonzero" transform="matrix(16 0 0 16 518.981 220)"/><path d="M.876-.08V0h-.8v-.08h.8Zm-.08-.28v.08h-.72v-.08h.72Zm.08-.28v.08h-.8v-.08h.8Z" style="fill:#231f20;fill-rule:nonzero" transform="matrix(16 0 0 16 545.141 220)"/><path d="M.078 0v-.64h.08v.56h.72V0h-.8Z" style="fill:#231f20;fill-rule:nonzero" transform="matrix(16 0 0 16 560.437 220)"/><path d="M.078-.64h.08V0h-.08z" style="fill:#231f20;fill-rule:nonzero" transform="matrix(16 0 0 16 575.573 220)"/><path d="M.35-.56h-.36v-.08h.8v.08H.43V0H.35v-.56Z" style="fill:#231f20;fill-rule:nonzero" transform="matrix(16 0 0 16 579.413 220)"/><path d="M.798-.18a.09.09 0 0 0-.031-.073C.747-.271.717-.28.678-.28h-.52V0h-.08v-.36h.6c.039 0 .069-.009.089-.027A.09.09 0 0 0 .798-.46a.09.09 0 0 0-.031-.073C.747-.551.717-.56.678-.56h-.6v-.08h.64a.15.15 0 0 1 .111.053.18.18 0 0 1 .049.127.18.18 0 0 1-.063.14.18.18 0 0 1 .063.14V0h-.08v-.18Z" style="fill:#231f20;fill-rule:nonzero" transform="matrix(16 0 0 16 592.533 220)"/><path d="M.089 0v-.1h.1V0a.178.178 0 0 1-.02.089.126.126 0 0 1-.062.053L.083.104A.081.081 0 0 0 .124.068.149.149 0 0 0 .139 0h-.05Z" style="fill:#231f20;fill-rule:nonzero" transform="matrix(16 0 0 16 607.765 220)"/><path d="M.652-.28h-.44a.15.15 0 0 1-.111-.053.18.18 0 0 1-.049-.127.18.18 0 0 1 .049-.127.15.15 0 0 1 .111-.053h.56v.08h-.52a.134.134 0 0 0-.09.027.093.093 0 0 0-.03.073c0 .031.01.055.031.073.02.018.05.027.089.027h.44a.15.15 0 0 1 .111.053.18.18 0 0 1 .049.127.18.18 0 0 1-.049.127A.15.15 0 0 1 .692 0h-.64v-.08h.6a.134.134 0 0 0 .09-.027.093.093 0 0 0 .03-.073.093.093 0 0 0-.03-.073.134.134 0 0 0-.09-.027Z" style="fill:#231f20;fill-rule:nonzero" transform="matrix(16 0 0 16 623.41 220)"/><path d="M.876-.08V0h-.8v-.08h.8Zm-.08-.28v.08h-.72v-.08h.72Zm.08-.28v.08h-.8v-.08h.8Z" style="fill:#231f20;fill-rule:nonzero" transform="matrix(16 0 0 16 638.274 220)"/><path d="M.078 0v-.64h.64c.04 0 .077.017.11.05s.05.07.05.11v.32c0 .04-.017.077-.05.11a.154.154 0 0 1-.11.05h-.64Zm.08-.56v.48h.52c.08 0 .12-.04.12-.12v-.24c0-.08-.04-.12-.12-.12h-.52Z" style="fill:#231f20;fill-rule:nonzero" transform="matrix(16 0 0 16 653.57 220)"/><path d="M.078 0v-.64h.64c.04 0 .077.017.11.05s.05.07.05.11v.32c0 .04-.017.077-.05.11a.154.154 0 0 1-.11.05h-.64Zm.08-.56v.48h.52c.08 0 .12-.04.12-.12v-.24c0-.08-.04-.12-.12-.12h-.52Z" style="fill:#231f20;fill-rule:nonzero" transform="matrix(16 0 0 16 407.333 240)"/><path d="M.078-.64h.08V0h-.08z" style="fill:#231f20;fill-rule:nonzero" transform="matrix(16 0 0 16 422.517 240)"/><path d="M.419-.64h.093L.885 0H.793L.466-.561.139 0H.046l.373-.64Z" style="fill:#231f20;fill-rule:nonzero" transform="matrix(16 0 0 16 426.357 240)"/><path d="m.798-.512-.28.272h-.08l-.28-.296V0h-.08v-.64h.08l.32.32.32-.32h.08V0h-.08v-.512Z" style="fill:#231f20;fill-rule:nonzero" transform="matrix(16 0 0 16 440.101 240)"/><path d="M.426-.44c0-.086-.047-.129-.14-.129-.093 0-.14.043-.14.129V0h-.08v-.48c0-.043.02-.082.061-.117a.233.233 0 0 1 .159-.052c.066 0 .119.017.16.052.04.035.06.074.06.117v.289c0 .041.011.071.033.091.022.019.058.029.107.029.049 0 .085-.01.107-.029.022-.02.033-.05.033-.091V-.64h.08v.489c0 .043-.02.08-.06.112a.248.248 0 0 1-.16.048.248.248 0 0 1-.16-.048c-.04-.032-.06-.069-.06-.112V-.44Z" style="fill:#231f20;fill-rule:nonzero" transform="matrix(16 0 0 16 466.661 240)"/><path d="M.852-.48v.32c0 .04-.017.077-.05.11a.154.154 0 0 1-.11.05h-.48a.154.154 0 0 1-.11-.05.154.154 0 0 1-.05-.11v-.32c0-.04.017-.077.05-.11a.154.154 0 0 1 .11-.05h.48c.04 0 .077.017.11.05s.05.07.05.11Zm-.08.04c0-.08-.04-.12-.12-.12h-.4c-.08 0-.12.04-.12.12v.24c0 .08.04.12.12.12h.4c.08 0 .12-.04.12-.12v-.24Z" style="fill:#231f20;fill-rule:nonzero" transform="matrix(16 0 0 16 481.861 240)"/><path d="M.426-.44c0-.086-.047-.129-.14-.129-.093 0-.14.043-.14.129V0h-.08v-.48c0-.043.02-.082.061-.117a.233.233 0 0 1 .159-.052c.066 0 .119.017.16.052.04.035.06.074.06.117v.289c0 .041.011.071.033.091.022.019.058.029.107.029.049 0 .085-.01.107-.029.022-.02.033-.05.033-.091V-.64h.08v.489c0 .043-.02.08-.06.112a.248.248 0 0 1-.16.048.248.248 0 0 1-.16-.048c-.04-.032-.06-.069-.06-.112V-.44Z" style="fill:#231f20;fill-rule:nonzero" transform="matrix(16 0 0 16 496.837 240)"/><path d="M.87-.64v.48c0 .04-.017.077-.05.11A.154.154 0 0 1 .71 0H.23a.154.154 0 0 1-.11-.05.154.154 0 0 1-.05-.11v-.48h.08v.44c0 .08.04.12.12.12h.4c.08 0 .12-.04.12-.12v-.44h.08Z" style="fill:#231f20;fill-rule:nonzero" transform="matrix(16 0 0 16 512.037 240)"/><path d="m.798-.512-.28.272h-.08l-.28-.296V0h-.08v-.64h.08l.32.32.32-.32h.08V0h-.08v-.512Z" style="fill:#231f20;fill-rule:nonzero" transform="matrix(16 0 0 16 527.27 240)"/><path d="m.436-.28-.39-.36h.11l.32.28.32-.28h.11l-.39.36V0h-.08v-.28Z" style="fill:#231f20;fill-rule:nonzero" transform="matrix(16 0 0 16 542.63 240)"/><path d="M.876-.08V0h-.8v-.08h.8Zm-.08-.28v.08h-.72v-.08h.72Zm.08-.28v.08h-.8v-.08h.8Z" style="fill:#231f20;fill-rule:nonzero" transform="matrix(16 0 0 16 569.157 240)"/><path d="M.078-.64h.08V0h-.08z" style="fill:#231f20;fill-rule:nonzero" transform="matrix(16 0 0 16 584.453 240)"/><path d="M.798-.18a.09.09 0 0 0-.031-.073C.747-.271.717-.28.678-.28h-.52V0h-.08v-.36h.6c.039 0 .069-.009.089-.027A.09.09 0 0 0 .798-.46a.09.09 0 0 0-.031-.073C.747-.551.717-.56.678-.56h-.6v-.08h.64a.15.15 0 0 1 .111.053.18.18 0 0 1 .049.127.18.18 0 0 1-.063.14.18.18 0 0 1 .063.14V0h-.08v-.18Z" style="fill:#231f20;fill-rule:nonzero" transform="matrix(16 0 0 16 588.293 240)"/><path d="m.798-.512-.28.272h-.08l-.28-.296V0h-.08v-.64h.08l.32.32.32-.32h.08V0h-.08v-.512Z" style="fill:#231f20;fill-rule:nonzero" transform="matrix(16 0 0 16 603.525 240)"/><path d="M.852-.48v.32c0 .04-.017.077-.05.11a.154.154 0 0 1-.11.05h-.48a.154.154 0 0 1-.11-.05.154.154 0 0 1-.05-.11v-.32c0-.04.017-.077.05-.11a.154.154 0 0 1 .11-.05h.48c.04 0 .077.017.11.05s.05.07.05.11Zm-.08.04c0-.08-.04-.12-.12-.12h-.4c-.08 0-.12.04-.12.12v.24c0 .08.04.12.12.12h.4c.08 0 .12-.04.12-.12v-.24Z" style="fill:#231f20;fill-rule:nonzero" transform="matrix(16 0 0 16 618.885 240)"/><path d="M.078 0v-.64h.64c.04 0 .077.017.11.05s.05.07.05.11v.32c0 .04-.017.077-.05.11a.154.154 0 0 1-.11.05h-.64Zm.08-.56v.48h.52c.08 0 .12-.04.12-.12v-.24c0-.08-.04-.12-.12-.12h-.52Z" style="fill:#231f20;fill-rule:nonzero" transform="matrix(16 0 0 16 633.861 240)"/><path d="M.35-.56h-.36v-.08h.8v.08H.43V0H.35v-.56Z" style="fill:#231f20;fill-rule:nonzero" transform="matrix(16 0 0 16 407.333 260)"/><path d="M.876-.08V0h-.8v-.08h.8Zm-.08-.28v.08h-.72v-.08h.72Zm.08-.28v.08h-.8v-.08h.8Z" style="fill:#231f20;fill-rule:nonzero" transform="matrix(16 0 0 16 420.453 260)"/><path d="m.798-.512-.28.272h-.08l-.28-.296V0h-.08v-.64h.08l.32.32.32-.32h.08V0h-.08v-.512Z" style="fill:#231f20;fill-rule:nonzero" transform="matrix(16 0 0 16 435.75 260)"/><path d="M.076-.36h.6a.134.134 0 0 0 .09-.027.093.093 0 0 0 .03-.073.093.093 0 0 0-.03-.073.134.134 0 0 0-.09-.027h-.6v-.08h.64a.15.15 0 0 1 .111.053.18.18 0 0 1 .049.127.177.177 0 0 1-.049.126.148.148 0 0 1-.111.054h-.56V0h-.08v-.36Z" style="fill:#231f20;fill-rule:nonzero" transform="matrix(16 0 0 16 451.11 260)"/><path d="M.852-.48v.32c0 .04-.017.077-.05.11a.154.154 0 0 1-.11.05h-.48a.154.154 0 0 1-.11-.05.154.154 0 0 1-.05-.11v-.32c0-.04.017-.077.05-.11a.154.154 0 0 1 .11-.05h.48c.04 0 .077.017.11.05s.05.07.05.11Zm-.08.04c0-.08-.04-.12-.12-.12h-.4c-.08 0-.12.04-.12.12v.24c0 .08.04.12.12.12h.4c.08 0 .12-.04.12-.12v-.24Z" style="fill:#231f20;fill-rule:nonzero" transform="matrix(16 0 0 16 466.133 260)"/><path d="M.798-.18a.09.09 0 0 0-.031-.073C.747-.271.717-.28.678-.28h-.52V0h-.08v-.36h.6c.039 0 .069-.009.089-.027A.09.09 0 0 0 .798-.46a.09.09 0 0 0-.031-.073C.747-.551.717-.56.678-.56h-.6v-.08h.64a.15.15 0 0 1 .111.053.18.18 0 0 1 .049.127.18.18 0 0 1-.063.14.18.18 0 0 1 .063.14V0h-.08v-.18Z" style="fill:#231f20;fill-rule:nonzero" transform="matrix(16 0 0 16 481.11 260)"/><path d="M.078-.64h.08V0h-.08z" style="fill:#231f20;fill-rule:nonzero" transform="matrix(16 0 0 16 507.541 260)"/><path d="M.426-.44c0-.086-.047-.129-.14-.129-.093 0-.14.043-.14.129V0h-.08v-.48c0-.043.02-.082.061-.117a.233.233 0 0 1 .159-.052c.066 0 .119.017.16.052.04.035.06.074.06.117v.289c0 .041.011.071.033.091.022.019.058.029.107.029.049 0 .085-.01.107-.029.022-.02.033-.05.033-.091V-.64h.08v.489c0 .043-.02.08-.06.112a.248.248 0 0 1-.16.048.248.248 0 0 1-.16-.048c-.04-.032-.06-.069-.06-.112V-.44Z" style="fill:#231f20;fill-rule:nonzero" transform="matrix(16 0 0 16 511.381 260)"/><path d="M.463 0 .09-.64h.093l.327.561.327-.561h.092L.556 0H.463Z" style="fill:#231f20;fill-rule:nonzero" transform="matrix(16 0 0 16 526.581 260)"/><path d="M.078-.64h.08V0h-.08z" style="fill:#231f20;fill-rule:nonzero" transform="matrix(16 0 0 16 541.653 260)"/><path d="M.078 0v-.64h.64c.04 0 .077.017.11.05s.05.07.05.11v.32c0 .04-.017.077-.05.11a.154.154 0 0 1-.11.05h-.64Zm.08-.56v.48h.52c.08 0 .12-.04.12-.12v-.24c0-.08-.04-.12-.12-.12h-.52Z" style="fill:#231f20;fill-rule:nonzero" transform="matrix(16 0 0 16 545.493 260)"/><path d="M.87-.64v.48c0 .04-.017.077-.05.11A.154.154 0 0 1 .71 0H.23a.154.154 0 0 1-.11-.05.154.154 0 0 1-.05-.11v-.48h.08v.44c0 .08.04.12.12.12h.4c.08 0 .12-.04.12-.12v-.44h.08Z" style="fill:#231f20;fill-rule:nonzero" transform="matrix(16 0 0 16 560.677 260)"/><path d="M.426-.44c0-.086-.047-.129-.14-.129-.093 0-.14.043-.14.129V0h-.08v-.48c0-.043.02-.082.061-.117a.233.233 0 0 1 .159-.052c.066 0 .119.017.16.052.04.035.06.074.06.117v.289c0 .041.011.071.033.091.022.019.058.029.107.029.049 0 .085-.01.107-.029.022-.02.033-.05.033-.091V-.64h.08v.489c0 .043-.02.08-.06.112a.248.248 0 0 1-.16.048.248.248 0 0 1-.16-.048c-.04-.032-.06-.069-.06-.112V-.44Z" style="fill:#231f20;fill-rule:nonzero" transform="matrix(16 0 0 16 575.91 260)"/><path d="M.35-.56h-.36v-.08h.8v.08H.43V0H.35v-.56Z" style="fill:#231f20;fill-rule:nonzero" transform="matrix(16 0 0 16 591.11 260)"/><path d="M.87-.64v.48c0 .04-.017.077-.05.11A.154.154 0 0 1 .71 0H.23a.154.154 0 0 1-.11-.05.154.154 0 0 1-.05-.11v-.48h.08v.44c0 .08.04.12.12.12h.4c.08 0 .12-.04.12-.12v-.44h.08Z" style="fill:#231f20;fill-rule:nonzero" transform="matrix(16 0 0 16 615.43 260)"/><path d="M.35-.56h-.36v-.08h.8v.08H.43V0H.35v-.56Z" style="fill:#231f20;fill-rule:nonzero" transform="matrix(16 0 0 16 630.661 260)"/><path d="M.078 0v-.64h.08v.56h.72V0h-.8Z" style="fill:#231f20;fill-rule:nonzero" transform="matrix(16 0 0 16 407.333 280)"/><path d="M.419-.64h.093L.885 0H.793L.466-.561.139 0H.046l.373-.64Z" style="fill:#231f20;fill-rule:nonzero" transform="matrix(16 0 0 16 422.47 280)"/><path d="M.718-.64a.15.15 0 0 1 .111.053.18.18 0 0 1 .049.127.18.18 0 0 1-.063.14.18.18 0 0 1 .063.14.177.177 0 0 1-.049.126A.148.148 0 0 1 .718 0h-.64v-.64h.64Zm-.56.56h.52a.134.134 0 0 0 .09-.027.093.093 0 0 0 .03-.073.093.093 0 0 0-.03-.073.134.134 0 0 0-.09-.027h-.52v.2Zm0-.28h.52a.134.134 0 0 0 .09-.027.093.093 0 0 0 .03-.073.093.093 0 0 0-.03-.073.134.134 0 0 0-.09-.027h-.52v.2Z" style="fill:#231f20;fill-rule:nonzero" transform="matrix(16 0 0 16 436.213 280)"/><path d="M.852-.48v.32c0 .04-.017.077-.05.11a.154.154 0 0 1-.11.05h-.48a.154.154 0 0 1-.11-.05.154.154 0 0 1-.05-.11v-.32c0-.04.017-.077.05-.11a.154.154 0 0 1 .11-.05h.48c.04 0 .077.017.11.05s.05.07.05.11Zm-.08.04c0-.08-.04-.12-.12-.12h-.4c-.08 0-.12.04-.12.12v.24c0 .08.04.12.12.12h.4c.08 0 .12-.04.12-.12v-.24Z" style="fill:#231f20;fill-rule:nonzero" transform="matrix(16 0 0 16 451.35 280)"/><path d="M.798-.18a.09.09 0 0 0-.031-.073C.747-.271.717-.28.678-.28h-.52V0h-.08v-.36h.6c.039 0 .069-.009.089-.027A.09.09 0 0 0 .798-.46a.09.09 0 0 0-.031-.073C.747-.551.717-.56.678-.56h-.6v-.08h.64a.15.15 0 0 1 .111.053.18.18 0 0 1 .049.127.18.18 0 0 1-.063.14.18.18 0 0 1 .063.14V0h-.08v-.18Z" style="fill:#231f20;fill-rule:nonzero" transform="matrix(16 0 0 16 466.325 280)"/><path d="M.876-.08V0h-.8v-.08h.8Zm-.08-.28v.08h-.72v-.08h.72Zm.08-.28v.08h-.8v-.08h.8Z" style="fill:#231f20;fill-rule:nonzero" transform="matrix(16 0 0 16 481.557 280)"/><path d="M.876-.08V0h-.8v-.08h.8Zm-.08-.28v.08h-.72v-.08h.72Zm.08-.28v.08h-.8v-.08h.8Z" style="fill:#231f20;fill-rule:nonzero" transform="matrix(16 0 0 16 508.053 280)"/><path d="M.35-.56h-.36v-.08h.8v.08H.43V0H.35v-.56Z" style="fill:#231f20;fill-rule:nonzero" transform="matrix(16 0 0 16 523.35 280)"/><path d="M.078 0v-.64h.64c.04 0 .077.017.11.05s.05.07.05.11v.32c0 .04-.017.077-.05.11a.154.154 0 0 1-.11.05h-.64Zm.08-.56v.48h.52c.08 0 .12-.04.12-.12v-.24c0-.08-.04-.12-.12-.12h-.52Z" style="fill:#231f20;fill-rule:nonzero" transform="matrix(16 0 0 16 547.67 280)"/><path d="M.852-.48v.32c0 .04-.017.077-.05.11a.154.154 0 0 1-.11.05h-.48a.154.154 0 0 1-.11-.05.154.154 0 0 1-.05-.11v-.32c0-.04.017-.077.05-.11a.154.154 0 0 1 .11-.05h.48c.04 0 .077.017.11.05s.05.07.05.11Zm-.08.04c0-.08-.04-.12-.12-.12h-.4c-.08 0-.12.04-.12.12v.24c0 .08.04.12.12.12h.4c.08 0 .12-.04.12-.12v-.24Z" style="fill:#231f20;fill-rule:nonzero" transform="matrix(16 0 0 16 562.853 280)"/><path d="M.078 0v-.64h.08v.56h.72V0h-.8Z" style="fill:#231f20;fill-rule:nonzero" transform="matrix(16 0 0 16 577.83 280)"/><path d="M.852-.48v.32c0 .04-.017.077-.05.11a.154.154 0 0 1-.11.05h-.48a.154.154 0 0 1-.11-.05.154.154 0 0 1-.05-.11v-.32c0-.04.017-.077.05-.11a.154.154 0 0 1 .11-.05h.48c.04 0 .077.017.11.05s.05.07.05.11Zm-.08.04c0-.08-.04-.12-.12-.12h-.4c-.08 0-.12.04-.12.12v.24c0 .08.04.12.12.12h.4c.08 0 .12-.04.12-.12v-.24Z" style="fill:#231f20;fill-rule:nonzero" transform="matrix(16 0 0 16 592.965 280)"/><path d="M.798-.18a.09.09 0 0 0-.031-.073C.747-.271.717-.28.678-.28h-.52V0h-.08v-.36h.6c.039 0 .069-.009.089-.027A.09.09 0 0 0 .798-.46a.09.09 0 0 0-.031-.073C.747-.551.717-.56.678-.56h-.6v-.08h.64a.15.15 0 0 1 .111.053.18.18 0 0 1 .049.127.18.18 0 0 1-.063.14.18.18 0 0 1 .063.14V0h-.08v-.18Z" style="fill:#231f20;fill-rule:nonzero" transform="matrix(16 0 0 16 607.941 280)"/><path d="M.876-.08V0h-.8v-.08h.8Zm-.08-.28v.08h-.72v-.08h.72Zm.08-.28v.08h-.8v-.08h.8Z" style="fill:#231f20;fill-rule:nonzero" transform="matrix(16 0 0 16 623.173 280)"/><path d="m.798-.512-.28.272h-.08l-.28-.296V0h-.08v-.64h.08l.32.32.32-.32h.08V0h-.08v-.512Z" style="fill:#231f20;fill-rule:nonzero" transform="matrix(16 0 0 16 407.333 300)"/><path d="M.419-.64h.093L.885 0H.793L.466-.561.139 0H.046l.373-.64Z" style="fill:#231f20;fill-rule:nonzero" transform="matrix(16 0 0 16 422.693 300)"/><path d="M.492-.28v-.08h.36v.2c0 .04-.017.077-.05.11a.154.154 0 0 1-.11.05h-.48a.154.154 0 0 1-.11-.05.154.154 0 0 1-.05-.11v-.32c0-.04.017-.077.05-.11a.154.154 0 0 1 .11-.05h.56v.08h-.52c-.08 0-.12.04-.12.12v.24c0 .08.04.12.12.12h.4c.08 0 .12-.04.12-.12v-.08h-.28Z" style="fill:#231f20;fill-rule:nonzero" transform="matrix(16 0 0 16 436.437 300)"/><path d="M.426-.44c0-.086-.047-.129-.14-.129-.093 0-.14.043-.14.129V0h-.08v-.48c0-.043.02-.082.061-.117a.233.233 0 0 1 .159-.052c.066 0 .119.017.16.052.04.035.06.074.06.117v.289c0 .041.011.071.033.091.022.019.058.029.107.029.049 0 .085-.01.107-.029.022-.02.033-.05.033-.091V-.64h.08v.489c0 .043-.02.08-.06.112a.248.248 0 0 1-.16.048.248.248 0 0 1-.16-.048c-.04-.032-.06-.069-.06-.112V-.44Z" style="fill:#231f20;fill-rule:nonzero" transform="matrix(16 0 0 16 451.397 300)"/><path d="M.419-.64h.093L.885 0H.793L.466-.561.139 0H.046l.373-.64Z" style="fill:#231f20;fill-rule:nonzero" transform="matrix(16 0 0 16 466.597 300)"/><path d="M.419-.64h.093L.885 0H.793L.466-.561.139 0H.046l.373-.64Z" style="fill:#231f20;fill-rule:nonzero" transform="matrix(16 0 0 16 491.541 300)"/><path d="M.078 0v-.64h.08v.56h.72V0h-.8Z" style="fill:#231f20;fill-rule:nonzero" transform="matrix(16 0 0 16 505.285 300)"/><path d="M.078-.64h.08V0h-.08z" style="fill:#231f20;fill-rule:nonzero" transform="matrix(16 0 0 16 520.421 300)"/><path d="M.412 0h-.2a.154.154 0 0 1-.11-.05.154.154 0 0 1-.05-.11v-.32c0-.04.017-.077.05-.11a.154.154 0 0 1 .11-.05h.48c.04 0 .077.017.11.05s.05.07.05.11v.32c0 .04-.017.077-.05.11a.154.154 0 0 1-.11.05h-.2v.2h-.08V0Zm.36-.44c0-.08-.04-.12-.12-.12h-.4c-.08 0-.12.04-.12.12v.24c0 .08.04.12.12.12h.4c.08 0 .12-.04.12-.12v-.24Z" style="fill:#231f20;fill-rule:nonzero" transform="matrix(16 0 0 16 524.261 300)"/><path d="M.87-.64v.48c0 .04-.017.077-.05.11A.154.154 0 0 1 .71 0H.23a.154.154 0 0 1-.11-.05.154.154 0 0 1-.05-.11v-.48h.08v.44c0 .08.04.12.12.12h.4c.08 0 .12-.04.12-.12v-.44h.08Z" style="fill:#231f20;fill-rule:nonzero" transform="matrix(16 0 0 16 539.237 300)"/><path d="m.436-.28-.39-.36h.11l.32.28.32-.28h.11l-.39.36V0h-.08v-.28Z" style="fill:#231f20;fill-rule:nonzero" transform="matrix(16 0 0 16 554.47 300)"/><path d="M.419-.64h.093L.885 0H.793L.466-.561.139 0H.046l.373-.64Z" style="fill:#231f20;fill-rule:nonzero" transform="matrix(16 0 0 16 569.797 300)"/><path d="m.798-.512-.28.272h-.08l-.28-.296V0h-.08v-.64h.08l.32.32.32-.32h.08V0h-.08v-.512Z" style="fill:#231f20;fill-rule:nonzero" transform="matrix(16 0 0 16 583.541 300)"/><path d="M.876-.08V0h-.8v-.08h.8Zm-.08-.28v.08h-.72v-.08h.72Zm.08-.28v.08h-.8v-.08h.8Z" style="fill:#231f20;fill-rule:nonzero" transform="matrix(16 0 0 16 610.101 300)"/><path d="M.798-.18a.09.09 0 0 0-.031-.073C.747-.271.717-.28.678-.28h-.52V0h-.08v-.36h.6c.039 0 .069-.009.089-.027A.09.09 0 0 0 .798-.46a.09.09 0 0 0-.031-.073C.747-.551.717-.56.678-.56h-.6v-.08h.64a.15.15 0 0 1 .111.053.18.18 0 0 1 .049.127.18.18 0 0 1-.063.14.18.18 0 0 1 .063.14V0h-.08v-.18Z" style="fill:#231f20;fill-rule:nonzero" transform="matrix(16 0 0 16 625.397 300)"/><path d="M.419-.64h.093L.885 0H.793L.466-.561.139 0H.046l.373-.64Z" style="fill:#231f20;fill-rule:nonzero" transform="matrix(16 0 0 16 640.63 300)"/><path d="M.35-.56h-.36v-.08h.8v.08H.43V0H.35v-.56Z" style="fill:#231f20;fill-rule:nonzero" transform="matrix(16 0 0 16 654.373 300)"/><path d="M.876-.08V0h-.8v-.08h.8Zm-.08-.28v.08h-.72v-.08h.72Zm.08-.28v.08h-.8v-.08h.8Z" style="fill:#231f20;fill-rule:nonzero" transform="matrix(16 0 0 16 407.333 320)"/><path d="M.35-.56h-.36v-.08h.8v.08H.43V0H.35v-.56Z" style="fill:#231f20;fill-rule:nonzero" transform="matrix(16 0 0 16 422.63 320)"/><path d="M.876-.08V0h-.8v-.08h.8Zm-.08-.28v.08h-.72v-.08h.72Zm.08-.28v.08h-.8v-.08h.8Z" style="fill:#231f20;fill-rule:nonzero" transform="matrix(16 0 0 16 446.95 320)"/><path d="M.419-.64h.093L.885 0H.793L.466-.561.139 0H.046l.373-.64Z" style="fill:#231f20;fill-rule:nonzero" transform="matrix(16 0 0 16 462.245 320)"/><path d="M.798-.18a.09.09 0 0 0-.031-.073C.747-.271.717-.28.678-.28h-.52V0h-.08v-.36h.6c.039 0 .069-.009.089-.027A.09.09 0 0 0 .798-.46a.09.09 0 0 0-.031-.073C.747-.551.717-.56.678-.56h-.6v-.08h.64a.15.15 0 0 1 .111.053.18.18 0 0 1 .049.127.18.18 0 0 1-.063.14.18.18 0 0 1 .063.14V0h-.08v-.18Z" style="fill:#231f20;fill-rule:nonzero" transform="matrix(16 0 0 16 487.19 320)"/><path d="M.876-.08V0h-.8v-.08h.8Zm-.08-.28v.08h-.72v-.08h.72Zm.08-.28v.08h-.8v-.08h.8Z" style="fill:#231f20;fill-rule:nonzero" transform="matrix(16 0 0 16 502.421 320)"/><path d="M.718-.64a.15.15 0 0 1 .111.053.18.18 0 0 1 .049.127.18.18 0 0 1-.063.14.18.18 0 0 1 .063.14.177.177 0 0 1-.049.126A.148.148 0 0 1 .718 0h-.64v-.64h.64Zm-.56.56h.52a.134.134 0 0 0 .09-.027.093.093 0 0 0 .03-.073.093.093 0 0 0-.03-.073.134.134 0 0 0-.09-.027h-.52v.2Zm0-.28h.52a.134.134 0 0 0 .09-.027.093.093 0 0 0 .03-.073.093.093 0 0 0-.03-.073.134.134 0 0 0-.09-.027h-.52v.2Z" style="fill:#231f20;fill-rule:nonzero" transform="matrix(16 0 0 16 517.717 320)"/><path d="M.87-.64v.48c0 .04-.017.077-.05.11A.154.154 0 0 1 .71 0H.23a.154.154 0 0 1-.11-.05.154.154 0 0 1-.05-.11v-.48h.08v.44c0 .08.04.12.12.12h.4c.08 0 .12-.04.12-.12v-.44h.08Z" style="fill:#231f20;fill-rule:nonzero" transform="matrix(16 0 0 16 532.853 320)"/><path d="m.798-.512-.28.272h-.08l-.28-.296V0h-.08v-.64h.08l.32.32.32-.32h.08V0h-.08v-.512Z" style="fill:#231f20;fill-rule:nonzero" transform="matrix(16 0 0 16 548.085 320)"/><path d="M.091-.1h.1V0h-.1z" style="fill:#231f20;fill-rule:nonzero" transform="matrix(16 0 0 16 563.445 320)"/><path d="M562.969 380.084c-.552 0-1.038-.096-1.458-.288-.42-.192-.75-.46-.99-.804a2.111 2.111 0 0 1-.384-1.152h.888c.04.408.22.766.54 1.074.32.308.788.462 1.404.462.568 0 1.018-.146 1.35-.438.332-.292.498-.662.498-1.11 0-.36-.092-.65-.276-.87a1.69 1.69 0 0 0-.684-.492 10.612 10.612 0 0 0-1.128-.354 9.862 9.862 0 0 1-1.332-.444 2.12 2.12 0 0 1-.84-.672c-.232-.304-.348-.716-.348-1.236 0-.432.112-.818.336-1.158.224-.34.54-.606.948-.798.408-.192.876-.288 1.404-.288.776 0 1.402.19 1.878.57.476.38.75.87.822 1.47h-.912c-.056-.344-.244-.65-.564-.918-.32-.268-.752-.402-1.296-.402-.504 0-.924.134-1.26.402-.336.268-.504.634-.504 1.098 0 .352.092.636.276.852.184.216.414.38.69.492.276.112.65.232 1.122.36.544.152.984.302 1.32.45.336.148.62.374.852.678.232.304.348.712.348 1.224 0 .392-.104.764-.312 1.116a2.277 2.277 0 0 1-.924.852c-.408.216-.896.324-1.464.324Zm-34.656 0c-.552 0-1.038-.096-1.458-.288-.42-.192-.75-.46-.99-.804a2.111 2.111 0 0 1-.384-1.152h.888c.04.408.22.766.54 1.074.32.308.788.462 1.404.462.568 0 1.018-.146 1.35-.438.332-.292.498-.662.498-1.11 0-.36-.092-.65-.276-.87a1.69 1.69 0 0 0-.684-.492 10.612 10.612 0 0 0-1.128-.354 9.862 9.862 0 0 1-1.332-.444 2.12 2.12 0 0 1-.84-.672c-.232-.304-.348-.716-.348-1.236 0-.432.112-.818.336-1.158.224-.34.54-.606.948-.798.408-.192.876-.288 1.404-.288.776 0 1.402.19 1.878.57.476.38.75.87.822 1.47h-.912c-.056-.344-.244-.65-.564-.918-.32-.268-.752-.402-1.296-.402-.504 0-.924.134-1.26.402-.336.268-.504.634-.504 1.098 0 .352.092.636.276.852.184.216.414.38.69.492.276.112.65.232 1.122.36.544.152.984.302 1.32.45.336.148.62.374.852.678.232.304.348.712.348 1.224 0 .392-.104.764-.312 1.116a2.277 2.277 0 0 1-.924.852c-.408.216-.896.324-1.464.324Zm38.592-4.284c0-.824.18-1.562.54-2.214a3.92 3.92 0 0 1 1.476-1.524 4.067 4.067 0 0 1 2.088-.546c.936 0 1.738.222 2.406.666.668.444 1.154 1.07 1.458 1.878h-.984a2.886 2.886 0 0 0-1.098-1.332c-.492-.32-1.086-.48-1.782-.48-.616 0-1.17.144-1.662.432a3 3 0 0 0-1.158 1.242c-.28.54-.42 1.166-.42 1.878s.14 1.336.42 1.872c.28.536.666.948 1.158 1.236a3.228 3.228 0 0 0 1.662.432c.696 0 1.29-.158 1.782-.474a2.86 2.86 0 0 0 1.098-1.314h.984c-.304.8-.792 1.42-1.464 1.86-.672.44-1.472.66-2.4.66a4.067 4.067 0 0 1-2.088-.546 3.931 3.931 0 0 1-1.476-1.518c-.36-.648-.54-1.384-.54-2.208Zm-89.796-4.236c.808 0 1.526.18 2.154.54.628.36 1.116.86 1.464 1.5.348.64.522 1.372.522 2.196 0 .824-.174 1.558-.522 2.202a3.763 3.763 0 0 1-1.464 1.506c-.628.36-1.346.54-2.154.54-.808 0-1.526-.18-2.154-.54a3.763 3.763 0 0 1-1.464-1.506c-.348-.644-.522-1.378-.522-2.202 0-.824.174-1.556.522-2.196.348-.64.836-1.14 1.464-1.5.628-.36 1.346-.54 2.154-.54Zm35.388.552h-4.392v3.072c.2-.28.492-.51.876-.69.384-.18.8-.27 1.248-.27.656 0 1.192.134 1.608.402.416.268.716.616.9 1.044.184.428.276.886.276 1.374 0 .56-.106 1.066-.318 1.518-.212.452-.536.81-.972 1.074-.436.264-.978.396-1.626.396-.824 0-1.492-.214-2.004-.642-.512-.428-.824-1.006-.936-1.734h.828c.104.528.344.936.72 1.224.376.288.84.432 1.392.432.696 0 1.222-.206 1.578-.618.356-.412.534-.958.534-1.638 0-.664-.18-1.182-.54-1.554-.36-.372-.876-.558-1.548-.558-.464 0-.872.108-1.224.324a1.967 1.967 0 0 0-.78.876h-.792v-4.764h5.172v.732Zm-19.68 3.504c0-1.376.212-2.444.636-3.204.424-.76 1.184-1.14 2.28-1.14 1.096 0 1.856.38 2.28 1.14.424.76.636 1.828.636 3.204 0 1.4-.212 2.484-.636 3.252-.424.768-1.184 1.152-2.28 1.152-1.104 0-1.866-.384-2.286-1.152-.42-.768-.63-1.852-.63-3.252Zm29.988 2.388h-3.816l-.732 1.992h-.888l3.06-8.28h.948l3.048 8.28h-.888l-.732-1.992Zm59.964-6.396V380h-.84v-3.924h-4.548V380h-.84v-8.388h.84v3.768h4.548v-3.768h.84Zm-45.228 0v.696h-2.328V380h-.84v-7.692h-2.34v-.696h5.508Zm9.216 0V380h-.84v-8.388h.84Zm52.512.684v3.132h3.18v.696h-3.18v3.18h3.54V380h-4.38v-8.4h4.38v.696h-3.54Zm-2.22-.684v.696h-3.696v3.132h3.12v.696h-3.12V380h-.84v-8.388h4.536ZM543.337 380l-2.076-3.504h-1.548V380h-.84v-8.388h2.52c.936 0 1.646.224 2.13.672.484.448.726 1.036.726 1.764 0 .608-.174 1.126-.522 1.554-.348.428-.862.706-1.542.834l2.16 3.564h-1.008Zm65.592 0-2.076-3.504h-1.548V380h-.84v-8.388h2.52c.936 0 1.646.224 2.13.672.484.448.726 1.036.726 1.764 0 .608-.174 1.126-.522 1.554-.348.428-.862.706-1.542.834l2.16 3.564h-1.008Zm-57.78-8.388c.928 0 1.724.168 2.388.504.664.336 1.172.82 1.524 1.452.352.632.528 1.384.528 2.256 0 .864-.176 1.61-.528 2.238a3.493 3.493 0 0 1-1.524 1.44c-.664.332-1.46.498-2.388.498h-2.484v-8.388h2.484Zm38.4 6.396h-3.816l-.732 1.992h-.888l3.06-8.28h.948l3.048 8.28h-.888l-.732-1.992Zm-103.764 1.332c1.472-1.104 2.61-2.094 3.414-2.97.804-.876 1.206-1.734 1.206-2.574 0-.552-.138-.994-.414-1.326-.276-.332-.726-.498-1.35-.498-.608 0-1.078.19-1.41.57-.332.38-.518.886-.558 1.518h-.816c.048-.888.322-1.578.822-2.07.5-.492 1.154-.738 1.962-.738.776 0 1.404.218 1.884.654.48.436.72 1.054.72 1.854 0 .968-.402 1.906-1.206 2.814-.804.908-1.794 1.794-2.97 2.658h4.44v.708h-5.724v-.6Zm14.256 0c1.472-1.104 2.61-2.094 3.414-2.97.804-.876 1.206-1.734 1.206-2.574 0-.552-.138-.994-.414-1.326-.276-.332-.726-.498-1.35-.498-.608 0-1.078.19-1.41.57-.332.38-.518.886-.558 1.518h-.816c.048-.888.322-1.578.822-2.07.5-.492 1.154-.738 1.962-.738.776 0 1.404.218 1.884.654.48.436.72 1.054.72 1.854 0 .968-.402 1.906-1.206 2.814-.804.908-1.794 1.794-2.97 2.658h4.44v.708h-5.724v-.6Zm-22.932-7.38c-.752 0-1.406.162-1.962.486a3.32 3.32 0 0 0-1.29 1.356c-.304.58-.456 1.246-.456 1.998s.152 1.418.456 1.998c.304.58.736 1.032 1.296 1.356.56.324 1.212.486 1.956.486s1.396-.162 1.956-.486c.56-.324.992-.776 1.296-1.356.304-.58.456-1.246.456-1.998s-.152-1.418-.456-1.998a3.32 3.32 0 0 0-1.29-1.356c-.556-.324-1.21-.486-1.962-.486Zm74.04 7.344c1.168 0 2.058-.306 2.67-.918.612-.612.918-1.466.918-2.562 0-1.104-.306-1.966-.918-2.586-.612-.62-1.502-.93-2.67-.93h-1.644v6.996h1.644Zm-53.328-3.684c0-.744-.052-1.372-.156-1.884-.104-.512-.308-.924-.612-1.236-.304-.312-.744-.468-1.32-.468-.576 0-1.016.156-1.32.468-.304.312-.508.724-.612 1.236-.104.512-.156 1.14-.156 1.884 0 .768.052 1.41.156 1.926.104.516.308.93.612 1.242.304.312.744.468 1.32.468.576 0 1.016-.156 1.32-.468.304-.312.508-.726.612-1.242.104-.516.156-1.158.156-1.926Zm-20.712-2.628c-.48 0-.916.112-1.308.336a2.437 2.437 0 0 0-.936.972c-.232.424-.348.92-.348 1.488 0 .576.116 1.076.348 1.5.232.424.544.748.936.972a2.59 2.59 0 0 0 1.308.336c.592 0 1.11-.162 1.554-.486.444-.324.742-.762.894-1.314h-.78c-.128.384-.336.676-.624.876-.288.2-.636.3-1.044.3-.528 0-.966-.19-1.314-.57-.348-.38-.522-.914-.522-1.602 0-.688.174-1.224.522-1.608a1.698 1.698 0 0 1 1.314-.576c.392 0 .738.102 1.038.306.3.204.51.498.63.882h.78c-.152-.576-.448-1.022-.888-1.338-.44-.316-.96-.474-1.56-.474Zm45.444 4.32-1.656-4.536-1.656 4.536h3.312Zm66.744 0-1.656-4.536-1.656 4.536h3.312Zm-49.584-1.5h1.692c.656 0 1.15-.16 1.482-.48.332-.32.498-.748.498-1.284 0-.552-.16-.978-.48-1.278-.32-.3-.824-.45-1.512-.45h-1.68v3.492Zm65.592 0h1.692c.656 0 1.15-.16 1.482-.48.332-.32.498-.748.498-1.284 0-.552-.16-.978-.48-1.278-.32-.3-.824-.45-1.512-.45h-1.68v3.492Zm-18.576-5.016a.532.532 0 0 1-.39-.162.532.532 0 0 1-.162-.39c0-.152.054-.282.162-.39a.532.532 0 0 1 .39-.162c.152 0 .282.054.39.162a.532.532 0 0 1 .162.39.532.532 0 0 1-.162.39.532.532 0 0 1-.39.162Zm1.848 0a.532.532 0 0 1-.39-.162.532.532 0 0 1-.162-.39c0-.152.054-.282.162-.39a.532.532 0 0 1 .39-.162c.152 0 .28.054.384.162a.542.542 0 0 1 .156.39.542.542 0 0 1-.156.39.512.512 0 0 1-.384.162Z" style="fill:#231f20"/><path d="M1612 3113C846 2877 295 2168 295 1321.33h104c0 971 792 1771 1771 1771s1771-800 1771-1770.83h104c0 847-551 1556-1317 1791.67h946v70.833H2389c-119 14-239 16-358 7-27-2-54-4-80-7.491H666v-71" style="fill:#575767" transform="matrix(.01095 0 0 .01095 405.504 343.626)"/><path d="M392.021 377.392a1.918 1.918 0 0 1 0 3.833 1.918 1.918 0 0 1 0-3.833Zm-36.144 0a1.918 1.918 0 0 1 0 3.833 1.917 1.917 0 0 1 0-3.833Z" style="fill:#c83154" transform="translate(55.333 -1.225)"/><path d="M167 1041.67h333v333H167v-333Zm3667 0h333v333h-333v-333ZM2001 2958.34h333v333h-333v-333Z" style="fill:#fff" transform="matrix(.01095 0 0 .01095 405.504 343.626)"/><path d="M.079-.64h.8v.08h-.72v.2h.72v.08h-.72V0h-.08v-.64Z" style="fill:#231f20;fill-rule:nonzero" transform="matrix(73 0 0 73 20 80)"/><path d="M.852-.48v.32c0 .04-.017.077-.05.11a.154.154 0 0 1-.11.05h-.48a.154.154 0 0 1-.11-.05.154.154 0 0 1-.05-.11v-.32c0-.04.017-.077.05-.11a.154.154 0 0 1 .11-.05h.48c.04 0 .077.017.11.05s.05.07.05.11Zm-.08.04c0-.08-.04-.12-.12-.12h-.4c-.08 0-.12.04-.12.12v.24c0 .08.04.12.12.12h.4c.08 0 .12-.04.12-.12v-.24Z" style="fill:#231f20;fill-rule:nonzero" transform="matrix(73 0 0 73 86.503 80)"/><path d="M.426-.44c0-.086-.047-.129-.14-.129-.093 0-.14.043-.14.129V0h-.08v-.48c0-.043.02-.082.061-.117a.233.233 0 0 1 .159-.052c.066 0 .119.017.16.052.04.035.06.074.06.117v.289c0 .041.011.071.033.091.022.019.058.029.107.029.049 0 .085-.01.107-.029.022-.02.033-.05.033-.091V-.64h.08v.489c0 .043-.02.08-.06.112a.248.248 0 0 1-.16.048.248.248 0 0 1-.16-.048c-.04-.032-.06-.069-.06-.112V-.44Z" style="fill:#231f20;fill-rule:nonzero" transform="matrix(73 0 0 73 156.437 80)"/><path d="M.35-.56h-.36v-.08h.8v.08H.43V0H.35v-.56Z" style="fill:#231f20;fill-rule:nonzero" transform="matrix(73 0 0 73 229.072 80)"/><path d="M.433-.44c0-.086-.047-.129-.14-.129-.093 0-.14.043-.14.129V0h-.08v-.48c0-.043.02-.082.061-.117a.233.233 0 0 1 .159-.052c.066 0 .119.017.16.052.04.035.06.074.06.117v.289c0 .041.011.071.033.091.022.019.058.029.107.029.049 0 .085-.01.107-.029.022-.02.033-.05.033-.091V-.64h.08v.489c0 .043-.02.08-.06.112a.248.248 0 0 1-.16.048.248.248 0 0 1-.16-.048c-.04-.032-.06-.069-.06-.112V-.44Z" style="fill:#231f20;fill-rule:nonzero" transform="matrix(73 0 0 73 325.432 80)"/><path d="M.852-.48v.32c0 .04-.017.077-.05.11a.154.154 0 0 1-.11.05h-.48a.154.154 0 0 1-.11-.05.154.154 0 0 1-.05-.11v-.32c0-.04.017-.077.05-.11a.154.154 0 0 1 .11-.05h.48c.04 0 .077.017.11.05s.05.07.05.11Zm-.08.04c0-.08-.04-.12-.12-.12h-.4c-.08 0-.12.04-.12.12v.24c0 .08.04.12.12.12h.4c.08 0 .12-.04.12-.12v-.24Z" style="fill:#231f20;fill-rule:nonzero" transform="matrix(73 0 0 73 394.782 80)"/><path d="M.652-.28h-.44a.15.15 0 0 1-.111-.053.18.18 0 0 1-.049-.127.18.18 0 0 1 .049-.127.15.15 0 0 1 .111-.053h.56v.08h-.52a.134.134 0 0 0-.09.027.093.093 0 0 0-.03.073c0 .031.01.055.031.073.02.018.05.027.089.027h.44a.15.15 0 0 1 .111.053.18.18 0 0 1 .049.127.18.18 0 0 1-.049.127A.15.15 0 0 1 .692 0h-.64v-.08h.6a.134.134 0 0 0 .09-.027.093.093 0 0 0 .03-.073.093.093 0 0 0-.03-.073.134.134 0 0 0-.09-.027Z" style="fill:#231f20;fill-rule:nonzero" transform="matrix(73 0 0 73 506.91 80)"/><path d="M.078-.64h.08V0h-.08z" style="fill:#231f20;fill-rule:nonzero" transform="matrix(73 0 0 73 574.727 80)"/><path d="M.502-.377.779-.64h.123l-.338.32.381.32H.822l-.32-.272L.182 0H.059L.44-.32.102-.64h.123l.277.263Z" style="fill:#231f20;fill-rule:nonzero" transform="matrix(73 0 0 73 592.247 80)"/><path d="M.078-.64h.8v.08h-.72v.2h.72v.08h-.72V0h-.08v-.64Z" style="fill:#231f20;fill-rule:nonzero" transform="matrix(16 0 0 16 20 120)"/><path d="M.852-.48v.32c0 .04-.017.077-.05.11a.154.154 0 0 1-.11.05h-.48a.154.154 0 0 1-.11-.05.154.154 0 0 1-.05-.11v-.32c0-.04.017-.077.05-.11a.154.154 0 0 1 .11-.05h.48c.04 0 .077.017.11.05s.05.07.05.11Zm-.08.04c0-.08-.04-.12-.12-.12h-.4c-.08 0-.12.04-.12.12v.24c0 .08.04.12.12.12h.4c.08 0 .12-.04.12-.12v-.24Z" style="fill:#231f20;fill-rule:nonzero" transform="matrix(16 0 0 16 35.296 120)"/><path d="M.426-.44c0-.086-.047-.129-.14-.129-.093 0-.14.043-.14.129V0h-.08v-.48c0-.043.02-.082.061-.117a.233.233 0 0 1 .159-.052c.066 0 .119.017.16.052.04.035.06.074.06.117v.289c0 .041.011.071.033.091.022.019.058.029.107.029.049 0 .085-.01.107-.029.022-.02.033-.05.033-.091V-.64h.08v.489c0 .043-.02.08-.06.112a.248.248 0 0 1-.16.048.248.248 0 0 1-.16-.048c-.04-.032-.06-.069-.06-.112V-.44Z" style="fill:#231f20;fill-rule:nonzero" transform="matrix(16 0 0 16 50.272 120)"/><path d="M.35-.56h-.36v-.08h.8v.08H.43V0H.35v-.56Z" style="fill:#231f20;fill-rule:nonzero" transform="matrix(16 0 0 16 65.472 120)"/><path d="M.078-.64h.8v.08h-.72v.2h.72v.08h-.72V0h-.08v-.64Z" style="fill:#231f20;fill-rule:nonzero" transform="matrix(16 0 0 16 89.792 120)"/><path d="M.852-.48v.32c0 .04-.017.077-.05.11a.154.154 0 0 1-.11.05h-.48a.154.154 0 0 1-.11-.05.154.154 0 0 1-.05-.11v-.32c0-.04.017-.077.05-.11a.154.154 0 0 1 .11-.05h.48c.04 0 .077.017.11.05s.05.07.05.11Zm-.08.04c0-.08-.04-.12-.12-.12h-.4c-.08 0-.12.04-.12.12v.24c0 .08.04.12.12.12h.4c.08 0 .12-.04.12-.12v-.24Z" style="fill:#231f20;fill-rule:nonzero" transform="matrix(16 0 0 16 105.088 120)"/><path d="M.798-.18a.09.09 0 0 0-.031-.073C.747-.271.717-.28.678-.28h-.52V0h-.08v-.36h.6c.039 0 .069-.009.089-.027A.09.09 0 0 0 .798-.46a.09.09 0 0 0-.031-.073C.747-.551.717-.56.678-.56h-.6v-.08h.64a.15.15 0 0 1 .111.053.18.18 0 0 1 .049.127.18.18 0 0 1-.063.14.18.18 0 0 1 .063.14V0h-.08v-.18Z" style="fill:#231f20;fill-rule:nonzero" transform="matrix(16 0 0 16 120.064 120)"/><path d="M.718-.64a.15.15 0 0 1 .111.053.18.18 0 0 1 .049.127.18.18 0 0 1-.063.14.18.18 0 0 1 .063.14.177.177 0 0 1-.049.126A.148.148 0 0 1 .718 0h-.64v-.64h.64Zm-.56.56h.52a.134.134 0 0 0 .09-.027.093.093 0 0 0 .03-.073.093.093 0 0 0-.03-.073.134.134 0 0 0-.09-.027h-.52v.2Zm0-.28h.52a.134.134 0 0 0 .09-.027.093.093 0 0 0 .03-.073.093.093 0 0 0-.03-.073.134.134 0 0 0-.09-.027h-.52v.2Z" style="fill:#231f20;fill-rule:nonzero" transform="matrix(16 0 0 16 146.496 120)"/><path d="M.852-.48v.32c0 .04-.017.077-.05.11a.154.154 0 0 1-.11.05h-.48a.154.154 0 0 1-.11-.05.154.154 0 0 1-.05-.11v-.32c0-.04.017-.077.05-.11a.154.154 0 0 1 .11-.05h.48c.04 0 .077.017.11.05s.05.07.05.11Zm-.08.04c0-.08-.04-.12-.12-.12h-.4c-.08 0-.12.04-.12.12v.24c0 .08.04.12.12.12h.4c.08 0 .12-.04.12-.12v-.24Z" style="fill:#231f20;fill-rule:nonzero" transform="matrix(16 0 0 16 161.632 120)"/><path d="M.852-.48v.32c0 .04-.017.077-.05.11a.154.154 0 0 1-.11.05h-.48a.154.154 0 0 1-.11-.05.154.154 0 0 1-.05-.11v-.32c0-.04.017-.077.05-.11a.154.154 0 0 1 .11-.05h.48c.04 0 .077.017.11.05s.05.07.05.11Zm-.08.04c0-.08-.04-.12-.12-.12h-.4c-.08 0-.12.04-.12.12v.24c0 .08.04.12.12.12h.4c.08 0 .12-.04.12-.12v-.24Z" style="fill:#231f20;fill-rule:nonzero" transform="matrix(16 0 0 16 176.608 120)"/><path d="M.158-.28V0h-.08v-.64h.08v.28h.52c.039 0 .069-.009.089-.027A.09.09 0 0 0 .798-.46v-.18h.08v.18a.18.18 0 0 1-.063.14.18.18 0 0 1 .063.14V0h-.08v-.18a.093.093 0 0 0-.03-.073.134.134 0 0 0-.09-.027h-.52Z" style="fill:#231f20;fill-rule:nonzero" transform="matrix(16 0 0 16 191.584 120)"/><path d="M.852-.64v.08h-.6c-.08 0-.12.04-.12.12v.24c0 .08.04.12.12.12h.6V0h-.64a.154.154 0 0 1-.11-.05.154.154 0 0 1-.05-.11v-.32c0-.04.017-.077.05-.11a.154.154 0 0 1 .11-.05h.64Z" style="fill:#231f20;fill-rule:nonzero" transform="matrix(16 0 0 16 218.112 120)"/><path d="M.852-.48v.32c0 .04-.017.077-.05.11a.154.154 0 0 1-.11.05h-.48a.154.154 0 0 1-.11-.05.154.154 0 0 1-.05-.11v-.32c0-.04.017-.077.05-.11a.154.154 0 0 1 .11-.05h.48c.04 0 .077.017.11.05s.05.07.05.11Zm-.08.04c0-.08-.04-.12-.12-.12h-.4c-.08 0-.12.04-.12.12v.24c0 .08.04.12.12.12h.4c.08 0 .12-.04.12-.12v-.24Z" style="fill:#231f20;fill-rule:nonzero" transform="matrix(16 0 0 16 233.2 120)"/><path d="M.463 0 .09-.64h.093l.327.561.327-.561h.092L.556 0H.463Z" style="fill:#231f20;fill-rule:nonzero" transform="matrix(16 0 0 16 248.176 120)"/><path d="M.876-.08V0h-.8v-.08h.8Zm-.08-.28v.08h-.72v-.08h.72Zm.08-.28v.08h-.8v-.08h.8Z" style="fill:#231f20;fill-rule:nonzero" transform="matrix(16 0 0 16 263.248 120)"/><path d="M.798-.18a.09.09 0 0 0-.031-.073C.747-.271.717-.28.678-.28h-.52V0h-.08v-.36h.6c.039 0 .069-.009.089-.027A.09.09 0 0 0 .798-.46a.09.09 0 0 0-.031-.073C.747-.551.717-.56.678-.56h-.6v-.08h.64a.15.15 0 0 1 .111.053.18.18 0 0 1 .049.127.18.18 0 0 1-.063.14.18.18 0 0 1 .063.14V0h-.08v-.18Z" style="fill:#231f20;fill-rule:nonzero" transform="matrix(16 0 0 16 278.544 120)"/><path d="M.652-.28h-.44a.15.15 0 0 1-.111-.053.18.18 0 0 1-.049-.127.18.18 0 0 1 .049-.127.15.15 0 0 1 .111-.053h.56v.08h-.52a.134.134 0 0 0-.09.027.093.093 0 0 0-.03.073c0 .031.01.055.031.073.02.018.05.027.089.027h.44a.15.15 0 0 1 .111.053.18.18 0 0 1 .049.127.18.18 0 0 1-.049.127A.15.15 0 0 1 .692 0h-.64v-.08h.6a.134.134 0 0 0 .09-.027.093.093 0 0 0 .03-.073.093.093 0 0 0-.03-.073.134.134 0 0 0-.09-.027Z" style="fill:#231f20;fill-rule:nonzero" transform="matrix(16 0 0 16 293.776 120)"/><path d="M.091-.1h.1V0h-.1z" style="fill:#231f20;fill-rule:nonzero" transform="matrix(16 0 0 16 308.64 120)"/><path d="m659.773 359.072.006-.006L680 379.287l-.713.713-19.514-19.514L640.26 380l-.713-.713 20.221-20.221.005.006Z" style="fill:#231f20"/><path d="M239.53 160h135.855l-.165 219.836-135.69.063V160Zm1.503 178.461c2.036 10.71 7.923 20.954 16.275 28.317 8.348 7.358 19.81 12.263 30.161 12.547l2.76.027v-49.934l-50.044-.148.115 3.214c.116 1.779.446 4.469.733 5.977Zm-.846 40.883s41.66-.091 39.541-.536c-16.268-3.42-30.57-15.588-36.586-31.128-1.155-2.983-2.314-6.925-2.723-9.259-.079-.45-.232 40.923-.232 40.923Zm61.691-.101c0 .057 72.837.101 72.837.101s.094-72.299-.007-72.436c-.101-.136-.375 1.107-.61 2.763-.583 4.111-2.631 11.519-4.478 16.198-9.101 23.057-27.172 40.691-50.322 49.105-4.15 1.509-10.79 3.231-14.44 3.747-1.639.231-2.98.466-2.98.522Zm-9.607.097c.862-.001 3.339-.154 5.505-.337 33.897-2.873 62.838-26.043 73.139-58.552 2.168-6.843 3.807-16.68 3.811-22.87l.001-2.047h-41.784c-22.982 0-41.869.085-41.971.187-.103.102-.266 83.623-.266 83.623l1.567-.003-.002-.001Zm-17.212-50.74c.591 0 2.062-.273 3.269-.608 6.177-1.708 11.251-7.426 11.66-13.139l.165-2.295h-16.168V328.6h1.074Zm-34.871 0h33.141v-32.738h-2.147c-5.431 0-12.121 2.417-17.542 6.339-7.627 5.518-13.274 15.899-13.424 24.68l-.028 1.719Zm50.096-.112c.067-.189-.052-10.845-.052-10.845l-1.122 2.275c-1.495 3.031-4.715 6.219-7.622 7.545l-2.133.973s10.75.122 10.929.052Zm0 0v.003l.002-.003h-.002Zm-49.475-8.891c3.136-10.681 11.748-19.634 21.89-22.756 1.244-.383 2.558-.823 2.919-.979.384-.166-25.432-.328-25.432-.328s.05 26.019.622 24.063h.001Zm33.177-7.693s16.042-.073 16.13-.161c.088-.088.043-1.156-.104-2.373-.793-6.651-7.14-12.86-13.707-13.409l-2.319-.194v16.137Zm7.437-15.083c2.873 1.342 6.504 4.956 7.663 7.629.448 1.032.929 1.879 1.069 1.882.14.003.073-10.634.073-10.634s-10.993-.117-10.993-.041c0 .077.984.6 2.187 1.162l.001.002Zm26.085-1.94h67.322l-.217-5.507c-1.122-28.483-11.681-56.374-29.786-78.678-20.734-25.542-49.781-42.61-81.834-48.084-6.751-1.153-10.828-1.581-17.638-1.853l-5.168-.207v134.329h67.321Zm-40.906-132.265c12.032 2.477 22.077 5.882 32.815 11.125 34.412 16.8 60.238 47.592 70.714 84.308 2.031 7.119 4.268 18.428 4.268 21.58 0 .705.077 1.206.171 1.112.094-.093.321-120.087.321-120.087s-119.942.128-116.821.508c1.986.241 5.825.895 8.532 1.452v.002Z" style="fill:#231f20;fill-rule:nonzero"/><path d="M.492-.28v-.08h.36v.2c0 .04-.017.077-.05.11a.154.154 0 0 1-.11.05h-.48a.154.154 0 0 1-.11-.05.154.154 0 0 1-.05-.11v-.32c0-.04.017-.077.05-.11a.154.154 0 0 1 .11-.05h.56v.08h-.52c-.08 0-.12.04-.12.12v.24c0 .08.04.12.12.12h.4c.08 0 .12-.04.12-.12v-.08h-.28Z" style="fill:#231f20;fill-rule:nonzero" transform="matrix(250 0 0 250 6.872 380)"/><path d="M.383-.64h.093L.849 0H.757L.43-.561.103 0H.01l.373-.64Z" style="fill:#231f20;fill-rule:nonzero" transform="matrix(120 0 0 120 252.48 280)"/><path d="M.219-.6H.211l-.026.141-.143-.02-.002.008.127.068-.063.128.007.005.104-.099.104.099.007-.005-.063-.128.127-.068-.002-.008-.143.02L.219-.6Z" style="fill:#231f20;fill-rule:nonzero" transform="matrix(30 0 0 30 100.307 180)"/><path d="M.125-.08a.045.045 0 0 0-.045.045C.08-.01.1.01.125.01.15.01.17-.01.17-.035A.045.045 0 0 0 .125-.08Z" style="fill:#231f20;fill-rule:nonzero" transform="matrix(30 0 0 30 113.207 180)"/><path d="M.054 0h.01c.005-.015.011-.02.019-.02.021 0 .047.03.101.03a.13.13 0 0 0 .13-.128c0-.125-.208-.122-.208-.215 0-.032.031-.059.067-.059.043 0 .082.037.106.102h.01V-.4h-.01c-.005.015-.01.021-.017.021C.243-.379.223-.41.174-.41a.116.116 0 0 0-.117.114c0 .125.209.122.209.217 0 .038-.037.071-.081.071-.054 0-.098-.045-.121-.122h-.01V0Z" style="fill:#231f20;fill-rule:nonzero" transform="matrix(30 0 0 30 120.707 180)"/><path d="M.226-.09.128-.33a.052.052 0 0 1-.004-.021c0-.023.015-.039.041-.039V-.4H-.01v.01c.025 0 .048.026.062.06l.139.34h.01L.34-.33c.014-.033.041-.06.07-.06V-.4H.27v.01c.036 0 .058.016.058.04a.053.053 0 0 1-.005.02l-.097.24Z" style="fill:#231f20;fill-rule:nonzero" transform="matrix(30 0 0 30 131.387 180)"/><path d="M.323-.344c.018-.02.037-.029.055-.029.03 0 .053.025.058.063.014-.008.022-.028.022-.048C.458-.39.437-.41.404-.41c-.031 0-.065.02-.091.053A.141.141 0 0 0 .195-.41C.111-.41.05-.354.05-.275c0 .049.025.091.066.115a.103.103 0 0 0-.048.09c0 .038.028.067.078.08C.083.021.038.057.038.101.038.159.11.2.211.2.329.2.401.141.401.045c0-.157-.303-.057-.303-.146 0-.021.017-.042.035-.051a.16.16 0 0 0 .062.012C.28-.14.34-.195.34-.275a.138.138 0 0 0-.017-.069ZM.165.01h.003c.15 0 .201.036.201.074C.369.137.3.182.215.182.145.182.1.148.1.097.1.061.127.025.165.01Zm.03-.402c.049 0 .079.045.079.117 0 .072-.03.116-.079.116S.116-.204.116-.275c0-.072.031-.117.079-.117Z" style="fill:#231f20;fill-rule:nonzero" transform="matrix(30 0 0 30 143.387 180)"/></svg>