<svg xmlns="http://www.w3.org/2000/svg" xml:space="preserve" style="fill-rule:evenodd;clip-rule:evenodd;stroke-linejoin:round;stroke-miterlimit:2" viewBox="0 0 700 400"><path d="M351 199h83v66.471h-83z" style="fill:#89838d" transform="matrix(8.43373 0 0 6.01766 -2960.24 -1197.51)"/><path d="M.034-.015v-.682l-.018.002.001-.015.162-.015v.71h.015V0H.019v-.015h.015Z" style="fill:#231f20;fill-rule:nonzero" transform="matrix(16 0 0 16 407.333 180)"/><path d="M.369-.431v.262a.167.167 0 0 1-.066.137.172.172 0 0 1-.109.038.167.167 0 0 1-.137-.066.172.172 0 0 1-.038-.109v-.262c0-.056.022-.102.066-.137a.172.172 0 0 1 .109-.038c.056 0 .102.022.137.066a.172.172 0 0 1 .038.109ZM.224-.53c0-.013-.006-.021-.018-.024L.199-.555h-.01c-.013 0-.021.006-.024.018L.164-.53v.46c0 .013.006.021.018.024a.02.02 0 0 0 .007.001h.01c.013 0 .021-.006.024-.018L.224-.07v-.46Z" style="fill:#231f20;fill-rule:nonzero" transform="matrix(16 0 0 16 410.693 180)"/><path d="M.236-.291v-.204a.055.055 0 0 0-.034-.054.062.062 0 0 0-.026-.006v.54h.015V0H.016v-.015h.015v-.57H.016V-.6h.19c.056 0 .102.022.137.066a.172.172 0 0 1 .038.109v.05l-.145.084Z" style="fill:#231f20;fill-rule:nonzero" transform="matrix(16 0 0 16 416.901 180)"/><path d="M.164-.269v.2c0 .013.006.021.018.024a.02.02 0 0 0 .007.001h.01c.013 0 .021-.006.024-.018l.001-.007v-.166l.145-.083v.149a.167.167 0 0 1-.066.137.17.17 0 0 1-.109.038.167.167 0 0 1-.137-.066.172.172 0 0 1-.038-.109v-.262c0-.056.022-.102.066-.137a.172.172 0 0 1 .109-.038c.056 0 .102.022.137.066a.172.172 0 0 1 .038.109v.043l-.205.119Zm.06-.104v-.158c0-.013-.006-.021-.018-.024L.199-.556h-.01c-.013 0-.021.006-.024.018l-.001.007v.192l.06-.034Z" style="fill:#231f20;fill-rule:nonzero" transform="matrix(16 0 0 16 423.253 180)"/><path d="M.396 0H.221v-.015h.015v-.48a.055.055 0 0 0-.034-.054.062.062 0 0 0-.026-.006v.54h.015V0H.016v-.015h.015v-.57H.016V-.6h.395c.056 0 .102.022.137.066a.172.172 0 0 1 .038.109v.41h.015V0H.426v-.015h.015v-.48a.056.056 0 0 0-.033-.054.066.066 0 0 0-.027-.006v.54h.015V0Z" style="fill:#231f20;fill-rule:nonzero" transform="matrix(16 0 0 16 429.461 180)"/><path d="m.097-.596.039-.001.03-.002.01-.001v.585h.015V0H.016v-.015h.015v-.567L.016-.585V-.6l.081.004Zm-.08-.078c0-.02.014-.035.042-.045a.13.13 0 0 1 .044-.007c.037 0 .064.01.079.03a.038.038 0 0 1 .007.022c0 .019-.014.034-.042.044a.163.163 0 0 1-.044.008c-.037 0-.063-.01-.078-.031a.037.037 0 0 1-.008-.021Z" style="fill:#231f20;fill-rule:nonzero" transform="matrix(16 0 0 16 442.47 180)"/><path d="M.015.1V.085H.03v-.67H.015V-.6h.19c.056 0 .102.022.137.066a.172.172 0 0 1 .038.109v.25a.167.167 0 0 1-.066.137.172.172 0 0 1-.139.036v.087H.19V.1H.015Zm.16-.145a.055.055 0 0 0 .054-.034.062.062 0 0 0 .006-.026v-.39a.055.055 0 0 0-.034-.054.062.062 0 0 0-.026-.006v.51Z" style="fill:#231f20;fill-rule:nonzero" transform="matrix(16 0 0 16 445.781 180)"/><path d="m.182-.423.068.075.04.044a.34.34 0 0 1 .067.094.125.125 0 0 1 .009.046.161.161 0 0 1-.065.132.172.172 0 0 1-.151.033.172.172 0 0 1-.134-.17v-.12l.128.128c.01.011.016.025.017.04v.052c0 .013.006.021.018.024a.02.02 0 0 0 .007.001h.01c.013 0 .021-.006.024-.018l.001-.007v-.074A.07.07 0 0 0 .2-.191L.086-.304a.185.185 0 0 1-.062-.119L.023-.442c0-.053.021-.095.063-.128a.173.173 0 0 1 .229.017l.002.002a.17.17 0 0 1 .049.123v.108L.243-.443a.068.068 0 0 1-.022-.048v-.037c0-.013-.006-.021-.018-.024L.196-.553h-.01c-.013 0-.021.006-.024.018l-.001.007v.058a.068.068 0 0 0 .021.047Z" style="fill:#231f20;fill-rule:nonzero" transform="matrix(16 0 0 16 452.15 180)"/><path d="M.016-.6h.16v.495c0 .025.011.043.034.054a.062.062 0 0 0 .026.006v-.54H.221V-.6h.16v.585h.015V0h-.19a.167.167 0 0 1-.137-.066.172.172 0 0 1-.038-.109v-.41H.016V-.6Z" style="fill:#231f20;fill-rule:nonzero" transform="matrix(16 0 0 16 458.261 180)"/><path d="M.396 0H.221v-.015h.015v-.48a.055.055 0 0 0-.034-.054.062.062 0 0 0-.026-.006v.54h.015V0H.016v-.015h.015v-.57H.016V-.6h.395c.056 0 .102.022.137.066a.172.172 0 0 1 .038.109v.41h.015V0H.426v-.015h.015v-.48a.056.056 0 0 0-.033-.054.066.066 0 0 0-.027-.006v.54h.015V0Z" style="fill:#231f20;fill-rule:nonzero" transform="matrix(16 0 0 16 464.853 180)"/><path d="M.368-.725v.71h.015V0h-.19a.167.167 0 0 1-.137-.066.172.172 0 0 1-.038-.109v-.25c0-.056.022-.102.066-.137a.172.172 0 0 1 .139-.036v-.099l-.018.002.001-.015.162-.015Zm-.145.17a.055.055 0 0 0-.054.034.062.062 0 0 0-.006.026v.39c0 .025.011.043.034.054a.062.062 0 0 0 .026.006v-.51Z" style="fill:#231f20;fill-rule:nonzero" transform="matrix(16 0 0 16 477.861 180)"/><path d="M.369-.431v.262a.167.167 0 0 1-.066.137.172.172 0 0 1-.109.038.167.167 0 0 1-.137-.066.172.172 0 0 1-.038-.109v-.262c0-.056.022-.102.066-.137a.172.172 0 0 1 .109-.038c.056 0 .102.022.137.066a.172.172 0 0 1 .038.109ZM.224-.53c0-.013-.006-.021-.018-.024L.199-.555h-.01c-.013 0-.021.006-.024.018L.164-.53v.46c0 .013.006.021.018.024a.02.02 0 0 0 .007.001h.01c.013 0 .021-.006.024-.018L.224-.07v-.46Z" style="fill:#231f20;fill-rule:nonzero" transform="matrix(16 0 0 16 484.23 180)"/><path d="M.034-.015v-.682l-.018.002.001-.015.162-.015v.71h.015V0H.019v-.015h.015Z" style="fill:#231f20;fill-rule:nonzero" transform="matrix(16 0 0 16 490.437 180)"/><path d="M.369-.431v.262a.167.167 0 0 1-.066.137.172.172 0 0 1-.109.038.167.167 0 0 1-.137-.066.172.172 0 0 1-.038-.109v-.262c0-.056.022-.102.066-.137a.172.172 0 0 1 .109-.038c.056 0 .102.022.137.066a.172.172 0 0 1 .038.109ZM.224-.53c0-.013-.006-.021-.018-.024L.199-.555h-.01c-.013 0-.021.006-.024.018L.164-.53v.46c0 .013.006.021.018.024a.02.02 0 0 0 .007.001h.01c.013 0 .021-.006.024-.018L.224-.07v-.46Z" style="fill:#231f20;fill-rule:nonzero" transform="matrix(16 0 0 16 493.797 180)"/><path d="M.236-.291v-.204a.055.055 0 0 0-.034-.054.062.062 0 0 0-.026-.006v.54h.015V0H.016v-.015h.015v-.57H.016V-.6h.19c.056 0 .102.022.137.066a.172.172 0 0 1 .038.109v.05l-.145.084Z" style="fill:#231f20;fill-rule:nonzero" transform="matrix(16 0 0 16 500.005 180)"/><path d="m.182-.423.068.075.04.044a.34.34 0 0 1 .067.094.125.125 0 0 1 .009.046.161.161 0 0 1-.065.132.172.172 0 0 1-.151.033.172.172 0 0 1-.134-.17v-.12l.128.128c.01.011.016.025.017.04v.052c0 .013.006.021.018.024a.02.02 0 0 0 .007.001h.01c.013 0 .021-.006.024-.018l.001-.007v-.074A.07.07 0 0 0 .2-.191L.086-.304a.185.185 0 0 1-.062-.119L.023-.442c0-.053.021-.095.063-.128a.173.173 0 0 1 .229.017l.002.002a.17.17 0 0 1 .049.123v.108L.243-.443a.068.068 0 0 1-.022-.048v-.037c0-.013-.006-.021-.018-.024L.196-.553h-.01c-.013 0-.021.006-.024.018l-.001.007v.058a.068.068 0 0 0 .021.047Z" style="fill:#231f20;fill-rule:nonzero" transform="matrix(16 0 0 16 509.493 180)"/><path d="m.097-.596.039-.001.03-.002.01-.001v.585h.015V0H.016v-.015h.015v-.567L.016-.585V-.6l.081.004Zm-.08-.078c0-.02.014-.035.042-.045a.13.13 0 0 1 .044-.007c.037 0 .064.01.079.03a.038.038 0 0 1 .007.022c0 .019-.014.034-.042.044a.163.163 0 0 1-.044.008c-.037 0-.063-.01-.078-.031a.037.037 0 0 1-.008-.021Z" style="fill:#231f20;fill-rule:nonzero" transform="matrix(16 0 0 16 515.605 180)"/><path d="M.167-.525h.088v.055H.167v.476a.17.17 0 0 1-.12-.082.17.17 0 0 1-.025-.09V-.47h-.035v-.055h.035v-.091L.167-.7v.175Z" style="fill:#231f20;fill-rule:nonzero" transform="matrix(16 0 0 16 518.917 180)"/><path d="M.223-.555a.055.055 0 0 0-.054.034.062.062 0 0 0-.006.026v.39c0 .025.011.043.034.054a.062.062 0 0 0 .026.006v-.51Zm.145.54h.015V0h-.19a.167.167 0 0 1-.137-.066.172.172 0 0 1-.038-.109v-.25c0-.056.022-.102.066-.137A.172.172 0 0 1 .193-.6h.19v.015H.368v.57Z" style="fill:#231f20;fill-rule:nonzero" transform="matrix(16 0 0 16 525.381 180)"/><path d="M.396 0H.221v-.015h.015v-.48a.055.055 0 0 0-.034-.054.062.062 0 0 0-.026-.006v.54h.015V0H.016v-.015h.015v-.57H.016V-.6h.395c.056 0 .102.022.137.066a.172.172 0 0 1 .038.109v.41h.015V0H.426v-.015h.015v-.48a.056.056 0 0 0-.033-.054.066.066 0 0 0-.027-.006v.54h.015V0Z" style="fill:#231f20;fill-rule:nonzero" transform="matrix(16 0 0 16 531.75 180)"/><path d="M.164-.269v.2c0 .013.006.021.018.024a.02.02 0 0 0 .007.001h.01c.013 0 .021-.006.024-.018l.001-.007v-.166l.145-.083v.149a.167.167 0 0 1-.066.137.17.17 0 0 1-.109.038.167.167 0 0 1-.137-.066.172.172 0 0 1-.038-.109v-.262c0-.056.022-.102.066-.137a.172.172 0 0 1 .109-.038c.056 0 .102.022.137.066a.172.172 0 0 1 .038.109v.043l-.205.119Zm.06-.104v-.158c0-.013-.006-.021-.018-.024L.199-.556h-.01c-.013 0-.021.006-.024.018l-.001.007v.192l.06-.034Z" style="fill:#231f20;fill-rule:nonzero" transform="matrix(16 0 0 16 541.621 180)"/><path d="M.167-.525h.088v.055H.167v.476a.17.17 0 0 1-.12-.082.17.17 0 0 1-.025-.09V-.47h-.035v-.055h.035v-.091L.167-.7v.175Z" style="fill:#231f20;fill-rule:nonzero" transform="matrix(16 0 0 16 547.83 180)"/><path d="M.019 0v-.118h.145V0L.121.118h-.09L.074 0H.019Z" style="fill:#231f20;fill-rule:nonzero" transform="matrix(16 0 0 16 551.157 180)"/><path d="M.369-.312v.143a.167.167 0 0 1-.066.137.172.172 0 0 1-.109.038.167.167 0 0 1-.137-.066.172.172 0 0 1-.038-.109v-.262c0-.056.022-.102.066-.137a.172.172 0 0 1 .109-.038c.056 0 .102.022.137.066a.172.172 0 0 1 .038.109v.05l-.145.083v-.233c0-.013-.006-.021-.018-.024L.199-.556h-.01c-.013 0-.021.006-.024.018l-.001.007v.462c0 .013.006.021.018.024a.02.02 0 0 0 .007.001h.01c.013 0 .021-.006.024-.018l.001-.007v-.159l.145-.084Z" style="fill:#231f20;fill-rule:nonzero" transform="matrix(16 0 0 16 557.221 180)"/><path d="M.369-.431v.262a.167.167 0 0 1-.066.137.172.172 0 0 1-.109.038.167.167 0 0 1-.137-.066.172.172 0 0 1-.038-.109v-.262c0-.056.022-.102.066-.137a.172.172 0 0 1 .109-.038c.056 0 .102.022.137.066a.172.172 0 0 1 .038.109ZM.224-.53c0-.013-.006-.021-.018-.024L.199-.555h-.01c-.013 0-.021.006-.024.018L.164-.53v.46c0 .013.006.021.018.024a.02.02 0 0 0 .007.001h.01c.013 0 .021-.006.024-.018L.224-.07v-.46Z" style="fill:#231f20;fill-rule:nonzero" transform="matrix(16 0 0 16 563.43 180)"/><path d="M.396 0H.221v-.015h.015v-.48a.055.055 0 0 0-.034-.054.062.062 0 0 0-.026-.006v.54h.015V0H.016v-.015h.015v-.57H.016V-.6h.19c.056 0 .102.022.137.066a.172.172 0 0 1 .038.109v.41h.015V0Z" style="fill:#231f20;fill-rule:nonzero" transform="matrix(16 0 0 16 569.637 180)"/><path d="m.182-.423.068.075.04.044a.34.34 0 0 1 .067.094.125.125 0 0 1 .009.046.161.161 0 0 1-.065.132.172.172 0 0 1-.151.033.172.172 0 0 1-.134-.17v-.12l.128.128c.01.011.016.025.017.04v.052c0 .013.006.021.018.024a.02.02 0 0 0 .007.001h.01c.013 0 .021-.006.024-.018l.001-.007v-.074A.07.07 0 0 0 .2-.191L.086-.304a.185.185 0 0 1-.062-.119L.023-.442c0-.053.021-.095.063-.128a.173.173 0 0 1 .229.017l.002.002a.17.17 0 0 1 .049.123v.108L.243-.443a.068.068 0 0 1-.022-.048v-.037c0-.013-.006-.021-.018-.024L.196-.553h-.01c-.013 0-.021.006-.024.018l-.001.007v.058a.068.068 0 0 0 .021.047Z" style="fill:#231f20;fill-rule:nonzero" transform="matrix(16 0 0 16 576.23 180)"/><path d="M.164-.269v.2c0 .013.006.021.018.024a.02.02 0 0 0 .007.001h.01c.013 0 .021-.006.024-.018l.001-.007v-.166l.145-.083v.149a.167.167 0 0 1-.066.137.17.17 0 0 1-.109.038.167.167 0 0 1-.137-.066.172.172 0 0 1-.038-.109v-.262c0-.056.022-.102.066-.137a.172.172 0 0 1 .109-.038c.056 0 .102.022.137.066a.172.172 0 0 1 .038.109v.043l-.205.119Zm.06-.104v-.158c0-.013-.006-.021-.018-.024L.199-.556h-.01c-.013 0-.021.006-.024.018l-.001.007v.192l.06-.034Z" style="fill:#231f20;fill-rule:nonzero" transform="matrix(16 0 0 16 582.341 180)"/><path d="M.167-.525h.088v.055H.167v.476a.17.17 0 0 1-.12-.082.17.17 0 0 1-.025-.09V-.47h-.035v-.055h.035v-.091L.167-.7v.175Z" style="fill:#231f20;fill-rule:nonzero" transform="matrix(16 0 0 16 588.55 180)"/><path d="M.164-.269v.2c0 .013.006.021.018.024a.02.02 0 0 0 .007.001h.01c.013 0 .021-.006.024-.018l.001-.007v-.166l.145-.083v.149a.167.167 0 0 1-.066.137.17.17 0 0 1-.109.038.167.167 0 0 1-.137-.066.172.172 0 0 1-.038-.109v-.262c0-.056.022-.102.066-.137a.172.172 0 0 1 .109-.038c.056 0 .102.022.137.066a.172.172 0 0 1 .038.109v.043l-.205.119Zm.06-.104v-.158c0-.013-.006-.021-.018-.024L.199-.556h-.01c-.013 0-.021.006-.024.018l-.001.007v.192l.06-.034Z" style="fill:#231f20;fill-rule:nonzero" transform="matrix(16 0 0 16 591.877 180)"/><path d="M.167-.525h.088v.055H.167v.476a.17.17 0 0 1-.12-.082.17.17 0 0 1-.025-.09V-.47h-.035v-.055h.035v-.091L.167-.7v.175Z" style="fill:#231f20;fill-rule:nonzero" transform="matrix(16 0 0 16 598.085 180)"/><path d="M.016-.6h.16v.495c0 .025.011.043.034.054a.062.062 0 0 0 .026.006v-.54H.221V-.6h.16v.585h.015V0h-.19a.167.167 0 0 1-.137-.066.172.172 0 0 1-.038-.109v-.41H.016V-.6Z" style="fill:#231f20;fill-rule:nonzero" transform="matrix(16 0 0 16 601.413 180)"/><path d="M.236-.291v-.204a.055.055 0 0 0-.034-.054.062.062 0 0 0-.026-.006v.54h.015V0H.016v-.015h.015v-.57H.016V-.6h.19c.056 0 .102.022.137.066a.172.172 0 0 1 .038.109v.05l-.145.084Z" style="fill:#231f20;fill-rule:nonzero" transform="matrix(16 0 0 16 608.005 180)"/><path d="m.182-.423.068.075.04.044a.34.34 0 0 1 .067.094.125.125 0 0 1 .009.046.161.161 0 0 1-.065.132.172.172 0 0 1-.151.033.172.172 0 0 1-.134-.17v-.12l.128.128c.01.011.016.025.017.04v.052c0 .013.006.021.018.024a.02.02 0 0 0 .007.001h.01c.013 0 .021-.006.024-.018l.001-.007v-.074A.07.07 0 0 0 .2-.191L.086-.304a.185.185 0 0 1-.062-.119L.023-.442c0-.053.021-.095.063-.128a.173.173 0 0 1 .229.017l.002.002a.17.17 0 0 1 .049.123v.108L.243-.443a.068.068 0 0 1-.022-.048v-.037c0-.013-.006-.021-.018-.024L.196-.553h-.01c-.013 0-.021.006-.024.018l-.001.007v.058a.068.068 0 0 0 .021.047Z" style="fill:#231f20;fill-rule:nonzero" transform="matrix(16 0 0 16 617.493 180)"/><path d="M.223-.555a.055.055 0 0 0-.054.034.062.062 0 0 0-.006.026v.39c0 .025.011.043.034.054a.062.062 0 0 0 .026.006v-.51Zm.145.54h.015V0h-.19a.167.167 0 0 1-.137-.066.172.172 0 0 1-.038-.109v-.25c0-.056.022-.102.066-.137A.172.172 0 0 1 .193-.6h.19v.015H.368v.57Z" style="fill:#231f20;fill-rule:nonzero" transform="matrix(16 0 0 16 623.605 180)"/><path d="M.368-.725v.71h.015V0h-.19a.167.167 0 0 1-.137-.066.172.172 0 0 1-.038-.109v-.25c0-.056.022-.102.066-.137a.172.172 0 0 1 .139-.036v-.099l-.018.002.001-.015.162-.015Zm-.145.17a.055.055 0 0 0-.054.034.062.062 0 0 0-.006.026v.39c0 .025.011.043.034.054a.062.062 0 0 0 .026.006v-.51Z" style="fill:#231f20;fill-rule:nonzero" transform="matrix(16 0 0 16 629.973 180)"/><path d="m.097-.596.039-.001.03-.002.01-.001v.585h.015V0H.016v-.015h.015v-.567L.016-.585V-.6l.081.004Zm-.08-.078c0-.02.014-.035.042-.045a.13.13 0 0 1 .044-.007c.037 0 .064.01.079.03a.038.038 0 0 1 .007.022c0 .019-.014.034-.042.044a.163.163 0 0 1-.044.008c-.037 0-.063-.01-.078-.031a.037.037 0 0 1-.008-.021Z" style="fill:#231f20;fill-rule:nonzero" transform="matrix(16 0 0 16 636.341 180)"/><path d="M.015.1V.085H.03v-.67H.015V-.6h.19c.056 0 .102.022.137.066a.172.172 0 0 1 .038.109v.25a.167.167 0 0 1-.066.137.172.172 0 0 1-.139.036v.087H.19V.1H.015Zm.16-.145a.055.055 0 0 0 .054-.034.062.062 0 0 0 .006-.026v-.39a.055.055 0 0 0-.034-.054.062.062 0 0 0-.026-.006v.51Z" style="fill:#231f20;fill-rule:nonzero" transform="matrix(16 0 0 16 639.653 180)"/><path d="m.182-.423.068.075.04.044a.34.34 0 0 1 .067.094.125.125 0 0 1 .009.046.161.161 0 0 1-.065.132.172.172 0 0 1-.151.033.172.172 0 0 1-.134-.17v-.12l.128.128c.01.011.016.025.017.04v.052c0 .013.006.021.018.024a.02.02 0 0 0 .007.001h.01c.013 0 .021-.006.024-.018l.001-.007v-.074A.07.07 0 0 0 .2-.191L.086-.304a.185.185 0 0 1-.062-.119L.023-.442c0-.053.021-.095.063-.128a.173.173 0 0 1 .229.017l.002.002a.17.17 0 0 1 .049.123v.108L.243-.443a.068.068 0 0 1-.022-.048v-.037c0-.013-.006-.021-.018-.024L.196-.553h-.01c-.013 0-.021.006-.024.018l-.001.007v.058a.068.068 0 0 0 .021.047Z" style="fill:#231f20;fill-rule:nonzero" transform="matrix(16 0 0 16 646.021 180)"/><path d="M.369-.312v.143a.167.167 0 0 1-.066.137.172.172 0 0 1-.109.038.167.167 0 0 1-.137-.066.172.172 0 0 1-.038-.109v-.262c0-.056.022-.102.066-.137a.172.172 0 0 1 .109-.038c.056 0 .102.022.137.066a.172.172 0 0 1 .038.109v.05l-.145.083v-.233c0-.013-.006-.021-.018-.024L.199-.556h-.01c-.013 0-.021.006-.024.018l-.001.007v.462c0 .013.006.021.018.024a.02.02 0 0 0 .007.001h.01c.013 0 .021-.006.024-.018l.001-.007v-.159l.145-.084Z" style="fill:#231f20;fill-rule:nonzero" transform="matrix(16 0 0 16 652.133 180)"/><path d="m.097-.596.039-.001.03-.002.01-.001v.585h.015V0H.016v-.015h.015v-.567L.016-.585V-.6l.081.004Zm-.08-.078c0-.02.014-.035.042-.045a.13.13 0 0 1 .044-.007c.037 0 .064.01.079.03a.038.038 0 0 1 .007.022c0 .019-.014.034-.042.044a.163.163 0 0 1-.044.008c-.037 0-.063-.01-.078-.031a.037.037 0 0 1-.008-.021Z" style="fill:#231f20;fill-rule:nonzero" transform="matrix(16 0 0 16 658.341 180)"/><path d="M.396 0H.221v-.015h.015v-.48a.055.055 0 0 0-.034-.054.062.062 0 0 0-.026-.006v.54h.015V0H.016v-.015h.015v-.57H.016V-.6h.19c.056 0 .102.022.137.066a.172.172 0 0 1 .038.109v.41h.015V0Z" style="fill:#231f20;fill-rule:nonzero" transform="matrix(16 0 0 16 661.653 180)"/><path d="M.367-.585v.604a.17.17 0 0 1-.065.137.177.177 0 0 1-.11.038H.017l.081-.14h.165A.056.056 0 0 0 .316.021.083.083 0 0 0 .322 0h-.13a.167.167 0 0 1-.137-.066.172.172 0 0 1-.038-.109v-.25c0-.056.022-.102.066-.137A.172.172 0 0 1 .192-.6h.19v.015H.367Zm-.145.03a.055.055 0 0 0-.054.034.062.062 0 0 0-.006.026v.39c0 .025.011.043.034.054a.062.062 0 0 0 .026.006v-.51Z" style="fill:#231f20;fill-rule:nonzero" transform="matrix(16 0 0 16 668.245 180)"/><path d="M.164-.269v.2c0 .013.006.021.018.024a.02.02 0 0 0 .007.001h.01c.013 0 .021-.006.024-.018l.001-.007v-.166l.145-.083v.149a.167.167 0 0 1-.066.137.17.17 0 0 1-.109.038.167.167 0 0 1-.137-.066.172.172 0 0 1-.038-.109v-.262c0-.056.022-.102.066-.137a.172.172 0 0 1 .109-.038c.056 0 .102.022.137.066a.172.172 0 0 1 .038.109v.043l-.205.119Zm.06-.104v-.158c0-.013-.006-.021-.018-.024L.199-.556h-.01c-.013 0-.021.006-.024.018l-.001.007v.192l.06-.034Z" style="fill:#231f20;fill-rule:nonzero" transform="matrix(16 0 0 16 407.333 200)"/><path d="M.034-.015v-.682l-.018.002.001-.015.162-.015v.71h.015V0H.019v-.015h.015Z" style="fill:#231f20;fill-rule:nonzero" transform="matrix(16 0 0 16 413.541 200)"/><path d="m.097-.596.039-.001.03-.002.01-.001v.585h.015V0H.016v-.015h.015v-.567L.016-.585V-.6l.081.004Zm-.08-.078c0-.02.014-.035.042-.045a.13.13 0 0 1 .044-.007c.037 0 .064.01.079.03a.038.038 0 0 1 .007.022c0 .019-.014.034-.042.044a.163.163 0 0 1-.044.008c-.037 0-.063-.01-.078-.031a.037.037 0 0 1-.008-.021Z" style="fill:#231f20;fill-rule:nonzero" transform="matrix(16 0 0 16 416.901 200)"/><path d="M.167-.525h.088v.055H.167v.476a.17.17 0 0 1-.12-.082.17.17 0 0 1-.025-.09V-.47h-.035v-.055h.035v-.091L.167-.7v.175Z" style="fill:#231f20;fill-rule:nonzero" transform="matrix(16 0 0 16 420.213 200)"/><path d="M.236-.291v-.204a.055.055 0 0 0-.034-.054.062.062 0 0 0-.026-.006v.54h.015V0H.016v-.015h.015v-.57H.016V-.6h.19c.056 0 .102.022.137.066a.172.172 0 0 1 .038.109v.05l-.145.084Z" style="fill:#231f20;fill-rule:nonzero" transform="matrix(16 0 0 16 423.541 200)"/><path d="M.019 0v-.118h.145V0L.121.118h-.09L.074 0H.019Z" style="fill:#231f20;fill-rule:nonzero" transform="matrix(16 0 0 16 429.893 200)"/><path d="m.182-.423.068.075.04.044a.34.34 0 0 1 .067.094.125.125 0 0 1 .009.046.161.161 0 0 1-.065.132.172.172 0 0 1-.151.033.172.172 0 0 1-.134-.17v-.12l.128.128c.01.011.016.025.017.04v.052c0 .013.006.021.018.024a.02.02 0 0 0 .007.001h.01c.013 0 .021-.006.024-.018l.001-.007v-.074A.07.07 0 0 0 .2-.191L.086-.304a.185.185 0 0 1-.062-.119L.023-.442c0-.053.021-.095.063-.128a.173.173 0 0 1 .229.017l.002.002a.17.17 0 0 1 .049.123v.108L.243-.443a.068.068 0 0 1-.022-.048v-.037c0-.013-.006-.021-.018-.024L.196-.553h-.01c-.013 0-.021.006-.024.018l-.001.007v.058a.068.068 0 0 0 .021.047Z" style="fill:#231f20;fill-rule:nonzero" transform="matrix(16 0 0 16 435.957 200)"/><path d="M.164-.269v.2c0 .013.006.021.018.024a.02.02 0 0 0 .007.001h.01c.013 0 .021-.006.024-.018l.001-.007v-.166l.145-.083v.149a.167.167 0 0 1-.066.137.17.17 0 0 1-.109.038.167.167 0 0 1-.137-.066.172.172 0 0 1-.038-.109v-.262c0-.056.022-.102.066-.137a.172.172 0 0 1 .109-.038c.056 0 .102.022.137.066a.172.172 0 0 1 .038.109v.043l-.205.119Zm.06-.104v-.158c0-.013-.006-.021-.018-.024L.199-.556h-.01c-.013 0-.021.006-.024.018l-.001.007v.192l.06-.034Z" style="fill:#231f20;fill-rule:nonzero" transform="matrix(16 0 0 16 442.07 200)"/><path d="M.368-.725v.71h.015V0h-.19a.167.167 0 0 1-.137-.066.172.172 0 0 1-.038-.109v-.25c0-.056.022-.102.066-.137a.172.172 0 0 1 .139-.036v-.099l-.018.002.001-.015.162-.015Zm-.145.17a.055.055 0 0 0-.054.034.062.062 0 0 0-.006.026v.39c0 .025.011.043.034.054a.062.062 0 0 0 .026.006v-.51Z" style="fill:#231f20;fill-rule:nonzero" transform="matrix(16 0 0 16 448.277 200)"/><path d="M.368-.725v.71h.015V0h-.19a.167.167 0 0 1-.137-.066.172.172 0 0 1-.038-.109v-.25c0-.056.022-.102.066-.137a.172.172 0 0 1 .139-.036v-.099l-.018.002.001-.015.162-.015Zm-.145.17a.055.055 0 0 0-.054.034.062.062 0 0 0-.006.026v.39c0 .025.011.043.034.054a.062.062 0 0 0 .026.006v-.51Z" style="fill:#231f20;fill-rule:nonzero" transform="matrix(16 0 0 16 457.781 200)"/><path d="m.097-.596.039-.001.03-.002.01-.001v.585h.015V0H.016v-.015h.015v-.567L.016-.585V-.6l.081.004Zm-.08-.078c0-.02.014-.035.042-.045a.13.13 0 0 1 .044-.007c.037 0 .064.01.079.03a.038.038 0 0 1 .007.022c0 .019-.014.034-.042.044a.163.163 0 0 1-.044.008c-.037 0-.063-.01-.078-.031a.037.037 0 0 1-.008-.021Z" style="fill:#231f20;fill-rule:nonzero" transform="matrix(16 0 0 16 464.15 200)"/><path d="M.223-.555a.055.055 0 0 0-.054.034.062.062 0 0 0-.006.026v.39c0 .025.011.043.034.054a.062.062 0 0 0 .026.006v-.51Zm.145.54h.015V0h-.19a.167.167 0 0 1-.137-.066.172.172 0 0 1-.038-.109v-.25c0-.056.022-.102.066-.137A.172.172 0 0 1 .193-.6h.19v.015H.368v.57Z" style="fill:#231f20;fill-rule:nonzero" transform="matrix(16 0 0 16 467.461 200)"/><path d="M.396 0H.221v-.015h.015v-.48a.055.055 0 0 0-.034-.054.062.062 0 0 0-.026-.006v.54h.015V0H.016v-.015h.015v-.57H.016V-.6h.395c.056 0 .102.022.137.066a.172.172 0 0 1 .038.109v.41h.015V0H.426v-.015h.015v-.48a.056.056 0 0 0-.033-.054.066.066 0 0 0-.027-.006v.54h.015V0Z" style="fill:#231f20;fill-rule:nonzero" transform="matrix(16 0 0 16 473.83 200)"/><path d="M.396 0H.221v-.015h.015v-.48a.055.055 0 0 0-.034-.054.062.062 0 0 0-.026-.006v.54h.015V0H.016v-.015h.015v-.57H.016V-.6h.19c.056 0 .102.022.137.066a.172.172 0 0 1 .038.109v.41h.015V0Z" style="fill:#231f20;fill-rule:nonzero" transform="matrix(16 0 0 16 486.837 200)"/><path d="M.369-.431v.262a.167.167 0 0 1-.066.137.172.172 0 0 1-.109.038.167.167 0 0 1-.137-.066.172.172 0 0 1-.038-.109v-.262c0-.056.022-.102.066-.137a.172.172 0 0 1 .109-.038c.056 0 .102.022.137.066a.172.172 0 0 1 .038.109ZM.224-.53c0-.013-.006-.021-.018-.024L.199-.555h-.01c-.013 0-.021.006-.024.018L.164-.53v.46c0 .013.006.021.018.024a.02.02 0 0 0 .007.001h.01c.013 0 .021-.006.024-.018L.224-.07v-.46Z" style="fill:#231f20;fill-rule:nonzero" transform="matrix(16 0 0 16 493.43 200)"/><path d="M.396 0H.221v-.015h.015v-.48a.055.055 0 0 0-.034-.054.062.062 0 0 0-.026-.006v.54h.015V0H.016v-.015h.015v-.57H.016V-.6h.19c.056 0 .102.022.137.066a.172.172 0 0 1 .038.109v.41h.015V0Z" style="fill:#231f20;fill-rule:nonzero" transform="matrix(16 0 0 16 499.637 200)"/><path d="M.016-.6h.16v.495c0 .025.011.043.034.054a.062.062 0 0 0 .026.006v-.54H.221V-.6h.16v.585h.015V0h-.19a.167.167 0 0 1-.137-.066.172.172 0 0 1-.038-.109v-.41H.016V-.6Z" style="fill:#231f20;fill-rule:nonzero" transform="matrix(16 0 0 16 506.23 200)"/><path d="M.396 0H.221v-.015h.015v-.48a.055.055 0 0 0-.034-.054.062.062 0 0 0-.026-.006v.54h.015V0H.016v-.015h.015v-.57H.016V-.6h.395c.056 0 .102.022.137.066a.172.172 0 0 1 .038.109v.41h.015V0H.426v-.015h.015v-.48a.056.056 0 0 0-.033-.054.066.066 0 0 0-.027-.006v.54h.015V0Z" style="fill:#231f20;fill-rule:nonzero" transform="matrix(16 0 0 16 512.821 200)"/><path d="M.112.06h.164A.055.055 0 0 0 .33.026.062.062 0 0 0 .336 0h-.13a.167.167 0 0 1-.137-.066.172.172 0 0 1-.038-.109v-.41H.016V-.6h.175v.015H.176v.48c0 .025.011.043.034.054a.062.062 0 0 0 .026.006v-.54H.221V-.6h.175v.015H.381v.61a.17.17 0 0 1-.065.137.177.177 0 0 1-.11.038H.031L.112.06Z" style="fill:#231f20;fill-rule:nonzero" transform="matrix(16 0 0 16 522.693 200)"/><path d="M.164-.269v.2c0 .013.006.021.018.024a.02.02 0 0 0 .007.001h.01c.013 0 .021-.006.024-.018l.001-.007v-.166l.145-.083v.149a.167.167 0 0 1-.066.137.17.17 0 0 1-.109.038.167.167 0 0 1-.137-.066.172.172 0 0 1-.038-.109v-.262c0-.056.022-.102.066-.137a.172.172 0 0 1 .109-.038c.056 0 .102.022.137.066a.172.172 0 0 1 .038.109v.043l-.205.119Zm.06-.104v-.158c0-.013-.006-.021-.018-.024L.199-.556h-.01c-.013 0-.021.006-.024.018l-.001.007v.192l.06-.034Z" style="fill:#231f20;fill-rule:nonzero" transform="matrix(16 0 0 16 532.421 200)"/><path d="m.097-.596.039-.001.03-.002.01-.001v.585h.015V0H.016v-.015h.015v-.567L.016-.585V-.6l.081.004Zm-.08-.078c0-.02.014-.035.042-.045a.13.13 0 0 1 .044-.007c.037 0 .064.01.079.03a.038.038 0 0 1 .007.022c0 .019-.014.034-.042.044a.163.163 0 0 1-.044.008c-.037 0-.063-.01-.078-.031a.037.037 0 0 1-.008-.021Z" style="fill:#231f20;fill-rule:nonzero" transform="matrix(16 0 0 16 538.63 200)"/><path d="M.236-.291v-.204a.055.055 0 0 0-.034-.054.062.062 0 0 0-.026-.006v.54h.015V0H.016v-.015h.015v-.57H.016V-.6h.19c.056 0 .102.022.137.066a.172.172 0 0 1 .038.109v.05l-.145.084Z" style="fill:#231f20;fill-rule:nonzero" transform="matrix(16 0 0 16 541.941 200)"/><path d="M.396 0H.221v-.015h.015v-.48a.055.055 0 0 0-.034-.054.062.062 0 0 0-.026-.006v.54h.015V0H.016v-.015h.015v-.57H.016V-.6h.395c.056 0 .102.022.137.066a.172.172 0 0 1 .038.109v.41h.015V0H.426v-.015h.015v-.48a.056.056 0 0 0-.033-.054.066.066 0 0 0-.027-.006v.54h.015V0Z" style="fill:#231f20;fill-rule:nonzero" transform="matrix(16 0 0 16 548.293 200)"/><path d="M.369-.431v.262a.167.167 0 0 1-.066.137.172.172 0 0 1-.109.038.167.167 0 0 1-.137-.066.172.172 0 0 1-.038-.109v-.262c0-.056.022-.102.066-.137a.172.172 0 0 1 .109-.038c.056 0 .102.022.137.066a.172.172 0 0 1 .038.109ZM.224-.53c0-.013-.006-.021-.018-.024L.199-.555h-.01c-.013 0-.021.006-.024.018L.164-.53v.46c0 .013.006.021.018.024a.02.02 0 0 0 .007.001h.01c.013 0 .021-.006.024-.018L.224-.07v-.46Z" style="fill:#231f20;fill-rule:nonzero" transform="matrix(16 0 0 16 558.165 200)"/><path d="M.368-.725v.71h.015V0h-.19a.167.167 0 0 1-.137-.066.172.172 0 0 1-.038-.109v-.25c0-.056.022-.102.066-.137a.172.172 0 0 1 .139-.036v-.099l-.018.002.001-.015.162-.015Zm-.145.17a.055.055 0 0 0-.054.034.062.062 0 0 0-.006.026v.39c0 .025.011.043.034.054a.062.062 0 0 0 .026.006v-.51Z" style="fill:#231f20;fill-rule:nonzero" transform="matrix(16 0 0 16 564.373 200)"/><path d="M.167-.525h.088v.055H.167v.476a.17.17 0 0 1-.12-.082.17.17 0 0 1-.025-.09V-.47h-.035v-.055h.035v-.091L.167-.7v.175Z" style="fill:#231f20;fill-rule:nonzero" transform="matrix(16 0 0 16 573.877 200)"/><path d="M.164-.269v.2c0 .013.006.021.018.024a.02.02 0 0 0 .007.001h.01c.013 0 .021-.006.024-.018l.001-.007v-.166l.145-.083v.149a.167.167 0 0 1-.066.137.17.17 0 0 1-.109.038.167.167 0 0 1-.137-.066.172.172 0 0 1-.038-.109v-.262c0-.056.022-.102.066-.137a.172.172 0 0 1 .109-.038c.056 0 .102.022.137.066a.172.172 0 0 1 .038.109v.043l-.205.119Zm.06-.104v-.158c0-.013-.006-.021-.018-.024L.199-.556h-.01c-.013 0-.021.006-.024.018l-.001.007v.192l.06-.034Z" style="fill:#231f20;fill-rule:nonzero" transform="matrix(16 0 0 16 577.205 200)"/><path d="M.396 0H.221v-.015h.015v-.48a.055.055 0 0 0-.034-.054.062.062 0 0 0-.026-.006v.54h.015V0H.016v-.015h.015v-.57H.016V-.6h.395c.056 0 .102.022.137.066a.172.172 0 0 1 .038.109v.41h.015V0H.426v-.015h.015v-.48a.056.056 0 0 0-.033-.054.066.066 0 0 0-.027-.006v.54h.015V0Z" style="fill:#231f20;fill-rule:nonzero" transform="matrix(16 0 0 16 583.413 200)"/><path d="M.015.1V.085H.03v-.67H.015V-.6h.19c.056 0 .102.022.137.066a.172.172 0 0 1 .038.109v.25a.167.167 0 0 1-.066.137.172.172 0 0 1-.139.036v.087H.19V.1H.015Zm.16-.145a.055.055 0 0 0 .054-.034.062.062 0 0 0 .006-.026v-.39a.055.055 0 0 0-.034-.054.062.062 0 0 0-.026-.006v.51Z" style="fill:#231f20;fill-rule:nonzero" transform="matrix(16 0 0 16 593.285 200)"/><path d="M.369-.431v.262a.167.167 0 0 1-.066.137.172.172 0 0 1-.109.038.167.167 0 0 1-.137-.066.172.172 0 0 1-.038-.109v-.262c0-.056.022-.102.066-.137a.172.172 0 0 1 .109-.038c.056 0 .102.022.137.066a.172.172 0 0 1 .038.109ZM.224-.53c0-.013-.006-.021-.018-.024L.199-.555h-.01c-.013 0-.021.006-.024.018L.164-.53v.46c0 .013.006.021.018.024a.02.02 0 0 0 .007.001h.01c.013 0 .021-.006.024-.018L.224-.07v-.46Z" style="fill:#231f20;fill-rule:nonzero" transform="matrix(16 0 0 16 599.653 200)"/><path d="M.236-.291v-.204a.055.055 0 0 0-.034-.054.062.062 0 0 0-.026-.006v.54h.015V0H.016v-.015h.015v-.57H.016V-.6h.19c.056 0 .102.022.137.066a.172.172 0 0 1 .038.109v.05l-.145.084Z" style="fill:#231f20;fill-rule:nonzero" transform="matrix(16 0 0 16 605.861 200)"/><path d="m.097-.596.039-.001.03-.002.01-.001v.585h.015V0H.016v-.015h.015v-.567L.016-.585V-.6l.081.004Zm-.08-.078c0-.02.014-.035.042-.045a.13.13 0 0 1 .044-.007c.037 0 .064.01.079.03a.038.038 0 0 1 .007.022c0 .019-.014.034-.042.044a.163.163 0 0 1-.044.008c-.037 0-.063-.01-.078-.031a.037.037 0 0 1-.008-.021Z" style="fill:#231f20;fill-rule:nonzero" transform="matrix(16 0 0 16 615.35 200)"/><path d="M.396 0H.221v-.015h.015v-.48a.055.055 0 0 0-.034-.054.062.062 0 0 0-.026-.006v.54h.015V0H.016v-.015h.015v-.57H.016V-.6h.19c.056 0 .102.022.137.066a.172.172 0 0 1 .038.109v.41h.015V0Z" style="fill:#231f20;fill-rule:nonzero" transform="matrix(16 0 0 16 618.661 200)"/><path d="M.396-.6v.015H.381v.41a.167.167 0 0 1-.066.137A.172.172 0 0 1 .206 0h-.19v-.015h.015v-.57H.016V-.6h.175v.015H.176v.54A.055.055 0 0 0 .23-.079a.062.062 0 0 0 .006-.026v-.48H.221V-.6h.175Z" style="fill:#231f20;fill-rule:nonzero" transform="matrix(16 0 0 16 625.253 200)"/><path d="m.097-.596.039-.001.03-.002.01-.001v.585h.015V0H.016v-.015h.015v-.567L.016-.585V-.6l.081.004Zm-.08-.078c0-.02.014-.035.042-.045a.13.13 0 0 1 .044-.007c.037 0 .064.01.079.03a.038.038 0 0 1 .007.022c0 .019-.014.034-.042.044a.163.163 0 0 1-.044.008c-.037 0-.063-.01-.078-.031a.037.037 0 0 1-.008-.021Z" style="fill:#231f20;fill-rule:nonzero" transform="matrix(16 0 0 16 631.845 200)"/><path d="M.368-.725v.71h.015V0h-.19a.167.167 0 0 1-.137-.066.172.172 0 0 1-.038-.109v-.25c0-.056.022-.102.066-.137a.172.172 0 0 1 .139-.036v-.099l-.018.002.001-.015.162-.015Zm-.145.17a.055.055 0 0 0-.054.034.062.062 0 0 0-.006.026v.39c0 .025.011.043.034.054a.062.062 0 0 0 .026.006v-.51Z" style="fill:#231f20;fill-rule:nonzero" transform="matrix(16 0 0 16 635.157 200)"/><path d="M.016-.6h.16v.495c0 .025.011.043.034.054a.062.062 0 0 0 .026.006v-.54H.221V-.6h.16v.585h.015V0h-.19a.167.167 0 0 1-.137-.066.172.172 0 0 1-.038-.109v-.41H.016V-.6Z" style="fill:#231f20;fill-rule:nonzero" transform="matrix(16 0 0 16 641.525 200)"/><path d="M.396 0H.221v-.015h.015v-.48a.055.055 0 0 0-.034-.054.062.062 0 0 0-.026-.006v.54h.015V0H.016v-.015h.015v-.57H.016V-.6h.19c.056 0 .102.022.137.066a.172.172 0 0 1 .038.109v.41h.015V0Z" style="fill:#231f20;fill-rule:nonzero" transform="matrix(16 0 0 16 648.117 200)"/><path d="M.167-.525h.088v.055H.167v.476a.17.17 0 0 1-.12-.082.17.17 0 0 1-.025-.09V-.47h-.035v-.055h.035v-.091L.167-.7v.175Z" style="fill:#231f20;fill-rule:nonzero" transform="matrix(16 0 0 16 654.71 200)"/><path d="M.016-.6h.16v.495c0 .025.011.043.034.054a.062.062 0 0 0 .026.006v-.54H.221V-.6h.16v.585h.015V0h-.19a.167.167 0 0 1-.137-.066.172.172 0 0 1-.038-.109v-.41H.016V-.6Z" style="fill:#231f20;fill-rule:nonzero" transform="matrix(16 0 0 16 661.173 200)"/><path d="M.167-.525h.088v.055H.167v.476a.17.17 0 0 1-.12-.082.17.17 0 0 1-.025-.09V-.47h-.035v-.055h.035v-.091L.167-.7v.175Z" style="fill:#231f20;fill-rule:nonzero" transform="matrix(16 0 0 16 667.765 200)"/><path d="M.034-.015v-.682l-.018.002.001-.015.162-.015v.71h.015V0H.019v-.015h.015Z" style="fill:#231f20;fill-rule:nonzero" transform="matrix(16 0 0 16 407.333 220)"/><path d="M.223-.555a.055.055 0 0 0-.054.034.062.062 0 0 0-.006.026v.39c0 .025.011.043.034.054a.062.062 0 0 0 .026.006v-.51Zm.145.54h.015V0h-.19a.167.167 0 0 1-.137-.066.172.172 0 0 1-.038-.109v-.25c0-.056.022-.102.066-.137A.172.172 0 0 1 .193-.6h.19v.015H.368v.57Z" style="fill:#231f20;fill-rule:nonzero" transform="matrix(16 0 0 16 410.693 220)"/><path d="M.18-.71v.112L.209-.6a.17.17 0 0 1 .137.065.177.177 0 0 1 .038.11v.25a.167.167 0 0 1-.065.136.184.184 0 0 1-.11.039h-.19v-.015h.015l.001-.667-.018.002.001-.015L.18-.71Zm-.001.155v.51a.055.055 0 0 0 .054-.034.062.062 0 0 0 .006-.026v-.39a.056.056 0 0 0-.033-.054.066.066 0 0 0-.027-.006Z" style="fill:#231f20;fill-rule:nonzero" transform="matrix(16 0 0 16 417.061 220)"/><path d="M.369-.431v.262a.167.167 0 0 1-.066.137.172.172 0 0 1-.109.038.167.167 0 0 1-.137-.066.172.172 0 0 1-.038-.109v-.262c0-.056.022-.102.066-.137a.172.172 0 0 1 .109-.038c.056 0 .102.022.137.066a.172.172 0 0 1 .038.109ZM.224-.53c0-.013-.006-.021-.018-.024L.199-.555h-.01c-.013 0-.021.006-.024.018L.164-.53v.46c0 .013.006.021.018.024a.02.02 0 0 0 .007.001h.01c.013 0 .021-.006.024-.018L.224-.07v-.46Z" style="fill:#231f20;fill-rule:nonzero" transform="matrix(16 0 0 16 423.477 220)"/><path d="M.236-.291v-.204a.055.055 0 0 0-.034-.054.062.062 0 0 0-.026-.006v.54h.015V0H.016v-.015h.015v-.57H.016V-.6h.19c.056 0 .102.022.137.066a.172.172 0 0 1 .038.109v.05l-.145.084Z" style="fill:#231f20;fill-rule:nonzero" transform="matrix(16 0 0 16 429.685 220)"/><path d="M.164-.269v.2c0 .013.006.021.018.024a.02.02 0 0 0 .007.001h.01c.013 0 .021-.006.024-.018l.001-.007v-.166l.145-.083v.149a.167.167 0 0 1-.066.137.17.17 0 0 1-.109.038.167.167 0 0 1-.137-.066.172.172 0 0 1-.038-.109v-.262c0-.056.022-.102.066-.137a.172.172 0 0 1 .109-.038c.056 0 .102.022.137.066a.172.172 0 0 1 .038.109v.043l-.205.119Zm.06-.104v-.158c0-.013-.006-.021-.018-.024L.199-.556h-.01c-.013 0-.021.006-.024.018l-.001.007v.192l.06-.034Z" style="fill:#231f20;fill-rule:nonzero" transform="matrix(16 0 0 16 436.037 220)"/><path d="M.164-.269v.2c0 .013.006.021.018.024a.02.02 0 0 0 .007.001h.01c.013 0 .021-.006.024-.018l.001-.007v-.166l.145-.083v.149a.167.167 0 0 1-.066.137.17.17 0 0 1-.109.038.167.167 0 0 1-.137-.066.172.172 0 0 1-.038-.109v-.262c0-.056.022-.102.066-.137a.172.172 0 0 1 .109-.038c.056 0 .102.022.137.066a.172.172 0 0 1 .038.109v.043l-.205.119Zm.06-.104v-.158c0-.013-.006-.021-.018-.024L.199-.556h-.01c-.013 0-.021.006-.024.018l-.001.007v.192l.06-.034Z" style="fill:#231f20;fill-rule:nonzero" transform="matrix(16 0 0 16 445.381 220)"/><path d="M.167-.525h.088v.055H.167v.476a.17.17 0 0 1-.12-.082.17.17 0 0 1-.025-.09V-.47h-.035v-.055h.035v-.091L.167-.7v.175Z" style="fill:#231f20;fill-rule:nonzero" transform="matrix(16 0 0 16 451.59 220)"/><path d="M.368-.725v.71h.015V0h-.19a.167.167 0 0 1-.137-.066.172.172 0 0 1-.038-.109v-.25c0-.056.022-.102.066-.137a.172.172 0 0 1 .139-.036v-.099l-.018.002.001-.015.162-.015Zm-.145.17a.055.055 0 0 0-.054.034.062.062 0 0 0-.006.026v.39c0 .025.011.043.034.054a.062.062 0 0 0 .026.006v-.51Z" style="fill:#231f20;fill-rule:nonzero" transform="matrix(16 0 0 16 458.053 220)"/><path d="M.369-.431v.262a.167.167 0 0 1-.066.137.172.172 0 0 1-.109.038.167.167 0 0 1-.137-.066.172.172 0 0 1-.038-.109v-.262c0-.056.022-.102.066-.137a.172.172 0 0 1 .109-.038c.056 0 .102.022.137.066a.172.172 0 0 1 .038.109ZM.224-.53c0-.013-.006-.021-.018-.024L.199-.555h-.01c-.013 0-.021.006-.024.018L.164-.53v.46c0 .013.006.021.018.024a.02.02 0 0 0 .007.001h.01c.013 0 .021-.006.024-.018L.224-.07v-.46Z" style="fill:#231f20;fill-rule:nonzero" transform="matrix(16 0 0 16 464.421 220)"/><path d="M.034-.015v-.682l-.018.002.001-.015.162-.015v.71h.015V0H.019v-.015h.015Z" style="fill:#231f20;fill-rule:nonzero" transform="matrix(16 0 0 16 470.63 220)"/><path d="M.369-.431v.262a.167.167 0 0 1-.066.137.172.172 0 0 1-.109.038.167.167 0 0 1-.137-.066.172.172 0 0 1-.038-.109v-.262c0-.056.022-.102.066-.137a.172.172 0 0 1 .109-.038c.056 0 .102.022.137.066a.172.172 0 0 1 .038.109ZM.224-.53c0-.013-.006-.021-.018-.024L.199-.555h-.01c-.013 0-.021.006-.024.018L.164-.53v.46c0 .013.006.021.018.024a.02.02 0 0 0 .007.001h.01c.013 0 .021-.006.024-.018L.224-.07v-.46Z" style="fill:#231f20;fill-rule:nonzero" transform="matrix(16 0 0 16 473.99 220)"/><path d="M.236-.291v-.204a.055.055 0 0 0-.034-.054.062.062 0 0 0-.026-.006v.54h.015V0H.016v-.015h.015v-.57H.016V-.6h.19c.056 0 .102.022.137.066a.172.172 0 0 1 .038.109v.05l-.145.084Z" style="fill:#231f20;fill-rule:nonzero" transform="matrix(16 0 0 16 480.197 220)"/><path d="M.164-.269v.2c0 .013.006.021.018.024a.02.02 0 0 0 .007.001h.01c.013 0 .021-.006.024-.018l.001-.007v-.166l.145-.083v.149a.167.167 0 0 1-.066.137.17.17 0 0 1-.109.038.167.167 0 0 1-.137-.066.172.172 0 0 1-.038-.109v-.262c0-.056.022-.102.066-.137a.172.172 0 0 1 .109-.038c.056 0 .102.022.137.066a.172.172 0 0 1 .038.109v.043l-.205.119Zm.06-.104v-.158c0-.013-.006-.021-.018-.024L.199-.556h-.01c-.013 0-.021.006-.024.018l-.001.007v.192l.06-.034Z" style="fill:#231f20;fill-rule:nonzero" transform="matrix(16 0 0 16 486.55 220)"/><path d="M.396 0H.221v-.015h.015v-.48a.055.055 0 0 0-.034-.054.062.062 0 0 0-.026-.006v.54h.015V0H.016v-.015h.015v-.57H.016V-.6h.395c.056 0 .102.022.137.066a.172.172 0 0 1 .038.109v.41h.015V0H.426v-.015h.015v-.48a.056.056 0 0 0-.033-.054.066.066 0 0 0-.027-.006v.54h.015V0Z" style="fill:#231f20;fill-rule:nonzero" transform="matrix(16 0 0 16 495.893 220)"/><path d="M.223-.555a.055.055 0 0 0-.054.034.062.062 0 0 0-.006.026v.39c0 .025.011.043.034.054a.062.062 0 0 0 .026.006v-.51Zm.145.54h.015V0h-.19a.167.167 0 0 1-.137-.066.172.172 0 0 1-.038-.109v-.25c0-.056.022-.102.066-.137A.172.172 0 0 1 .193-.6h.19v.015H.368v.57Z" style="fill:#231f20;fill-rule:nonzero" transform="matrix(16 0 0 16 505.765 220)"/><path d="M.367-.585v.604a.17.17 0 0 1-.065.137.177.177 0 0 1-.11.038H.017l.081-.14h.165A.056.056 0 0 0 .316.021.083.083 0 0 0 .322 0h-.13a.167.167 0 0 1-.137-.066.172.172 0 0 1-.038-.109v-.25c0-.056.022-.102.066-.137A.172.172 0 0 1 .192-.6h.19v.015H.367Zm-.145.03a.055.055 0 0 0-.054.034.062.062 0 0 0-.006.026v.39c0 .025.011.043.034.054a.062.062 0 0 0 .026.006v-.51Z" style="fill:#231f20;fill-rule:nonzero" transform="matrix(16 0 0 16 512.133 220)"/><path d="M.396 0H.221v-.015h.015v-.48a.055.055 0 0 0-.034-.054.062.062 0 0 0-.026-.006v.54h.015V0H.016v-.015h.015v-.57H.016V-.6h.19c.056 0 .102.022.137.066a.172.172 0 0 1 .038.109v.41h.015V0Z" style="fill:#231f20;fill-rule:nonzero" transform="matrix(16 0 0 16 518.501 220)"/><path d="M.223-.555a.055.055 0 0 0-.054.034.062.062 0 0 0-.006.026v.39c0 .025.011.043.034.054a.062.062 0 0 0 .026.006v-.51Zm.145.54h.015V0h-.19a.167.167 0 0 1-.137-.066.172.172 0 0 1-.038-.109v-.25c0-.056.022-.102.066-.137A.172.172 0 0 1 .193-.6h.19v.015H.368v.57Z" style="fill:#231f20;fill-rule:nonzero" transform="matrix(16 0 0 16 525.093 220)"/><path d="M.223-.555a.055.055 0 0 0-.054.034.062.062 0 0 0-.006.026v.39c0 .025.011.043.034.054a.062.062 0 0 0 .026.006v-.51Zm.145.54h.015V0h-.19a.167.167 0 0 1-.137-.066.172.172 0 0 1-.038-.109v-.25c0-.056.022-.102.066-.137A.172.172 0 0 1 .193-.6h.19v.015H.368v.57Z" style="fill:#231f20;fill-rule:nonzero" transform="matrix(16 0 0 16 534.597 220)"/><path d="M.034-.015v-.682l-.018.002.001-.015.162-.015v.71h.015V0H.019v-.015h.015Z" style="fill:#231f20;fill-rule:nonzero" transform="matrix(16 0 0 16 540.965 220)"/><path d="m.097-.596.039-.001.03-.002.01-.001v.585h.015V0H.016v-.015h.015v-.567L.016-.585V-.6l.081.004Zm-.08-.078c0-.02.014-.035.042-.045a.13.13 0 0 1 .044-.007c.037 0 .064.01.079.03a.038.038 0 0 1 .007.022c0 .019-.014.034-.042.044a.163.163 0 0 1-.044.008c-.037 0-.063-.01-.078-.031a.037.037 0 0 1-.008-.021Z" style="fill:#231f20;fill-rule:nonzero" transform="matrix(16 0 0 16 544.325 220)"/><path d="M.383.1H.208V.085h.015v-.087A.302.302 0 0 1 .193 0a.17.17 0 0 1-.137-.065.177.177 0 0 1-.038-.11v-.25c0-.056.022-.101.066-.136A.18.18 0 0 1 .193-.6h.19v.015H.368v.67h.015V.1Zm-.16-.145v-.51a.055.055 0 0 0-.054.034.062.062 0 0 0-.006.026v.39c0 .025.011.043.034.054a.062.062 0 0 0 .026.006Z" style="fill:#231f20;fill-rule:nonzero" transform="matrix(16 0 0 16 547.637 220)"/><path d="M.016-.6h.16v.495c0 .025.011.043.034.054a.062.062 0 0 0 .026.006v-.54H.221V-.6h.16v.585h.015V0h-.19a.167.167 0 0 1-.137-.066.172.172 0 0 1-.038-.109v-.41H.016V-.6Z" style="fill:#231f20;fill-rule:nonzero" transform="matrix(16 0 0 16 554.005 220)"/><path d="M.112.06h.164A.055.055 0 0 0 .33.026.062.062 0 0 0 .336 0h-.13a.167.167 0 0 1-.137-.066.172.172 0 0 1-.038-.109v-.41H.016V-.6h.175v.015H.176v.48c0 .025.011.043.034.054a.062.062 0 0 0 .026.006v-.54H.221V-.6h.175v.015H.381v.61a.17.17 0 0 1-.065.137.177.177 0 0 1-.11.038H.031L.112.06Z" style="fill:#231f20;fill-rule:nonzero" transform="matrix(16 0 0 16 560.597 220)"/><path d="M.223-.555a.055.055 0 0 0-.054.034.062.062 0 0 0-.006.026v.39c0 .025.011.043.034.054a.062.062 0 0 0 .026.006v-.51Zm.145.54h.015V0h-.19a.167.167 0 0 1-.137-.066.172.172 0 0 1-.038-.109v-.25c0-.056.022-.102.066-.137A.172.172 0 0 1 .193-.6h.19v.015H.368v.57Z" style="fill:#231f20;fill-rule:nonzero" transform="matrix(16 0 0 16 567.19 220)"/><path d="M.396 0H.221v-.015h.015v-.48a.055.055 0 0 0-.034-.054.062.062 0 0 0-.026-.006v.54h.015V0H.016v-.015h.015v-.57H.016V-.6h.395c.056 0 .102.022.137.066a.172.172 0 0 1 .038.109v.41h.015V0H.426v-.015h.015v-.48a.056.056 0 0 0-.033-.054.066.066 0 0 0-.027-.006v.54h.015V0Z" style="fill:#231f20;fill-rule:nonzero" transform="matrix(16 0 0 16 573.557 220)"/><path d="M.164-.269v.2c0 .013.006.021.018.024a.02.02 0 0 0 .007.001h.01c.013 0 .021-.006.024-.018l.001-.007v-.166l.145-.083v.149a.167.167 0 0 1-.066.137.17.17 0 0 1-.109.038.167.167 0 0 1-.137-.066.172.172 0 0 1-.038-.109v-.262c0-.056.022-.102.066-.137a.172.172 0 0 1 .109-.038c.056 0 .102.022.137.066a.172.172 0 0 1 .038.109v.043l-.205.119Zm.06-.104v-.158c0-.013-.006-.021-.018-.024L.199-.556h-.01c-.013 0-.021.006-.024.018l-.001.007v.192l.06-.034Z" style="fill:#231f20;fill-rule:nonzero" transform="matrix(16 0 0 16 586.565 220)"/><path d="M.236-.291v-.204a.055.055 0 0 0-.034-.054.062.062 0 0 0-.026-.006v.54h.015V0H.016v-.015h.015v-.57H.016V-.6h.19c.056 0 .102.022.137.066a.172.172 0 0 1 .038.109v.05l-.145.084Z" style="fill:#231f20;fill-rule:nonzero" transform="matrix(16 0 0 16 592.773 220)"/><path d="M.223-.555a.055.055 0 0 0-.054.034.062.062 0 0 0-.006.026v.39c0 .025.011.043.034.054a.062.062 0 0 0 .026.006v-.51Zm.145.54h.015V0h-.19a.167.167 0 0 1-.137-.066.172.172 0 0 1-.038-.109v-.25c0-.056.022-.102.066-.137A.172.172 0 0 1 .193-.6h.19v.015H.368v.57Z" style="fill:#231f20;fill-rule:nonzero" transform="matrix(16 0 0 16 599.125 220)"/><path d="M.167-.525h.088v.055H.167v.476a.17.17 0 0 1-.12-.082.17.17 0 0 1-.025-.09V-.47h-.035v-.055h.035v-.091L.167-.7v.175Z" style="fill:#231f20;fill-rule:nonzero" transform="matrix(16 0 0 16 605.493 220)"/><path d="M.019 0v-.118h.145V0L.121.118h-.09L.074 0H.019Z" style="fill:#231f20;fill-rule:nonzero" transform="matrix(16 0 0 16 608.821 220)"/><path d="m.182-.423.068.075.04.044a.34.34 0 0 1 .067.094.125.125 0 0 1 .009.046.161.161 0 0 1-.065.132.172.172 0 0 1-.151.033.172.172 0 0 1-.134-.17v-.12l.128.128c.01.011.016.025.017.04v.052c0 .013.006.021.018.024a.02.02 0 0 0 .007.001h.01c.013 0 .021-.006.024-.018l.001-.007v-.074A.07.07 0 0 0 .2-.191L.086-.304a.185.185 0 0 1-.062-.119L.023-.442c0-.053.021-.095.063-.128a.173.173 0 0 1 .229.017l.002.002a.17.17 0 0 1 .049.123v.108L.243-.443a.068.068 0 0 1-.022-.048v-.037c0-.013-.006-.021-.018-.024L.196-.553h-.01c-.013 0-.021.006-.024.018l-.001.007v.058a.068.068 0 0 0 .021.047Z" style="fill:#231f20;fill-rule:nonzero" transform="matrix(16 0 0 16 614.885 220)"/><path d="M.164-.269v.2c0 .013.006.021.018.024a.02.02 0 0 0 .007.001h.01c.013 0 .021-.006.024-.018l.001-.007v-.166l.145-.083v.149a.167.167 0 0 1-.066.137.17.17 0 0 1-.109.038.167.167 0 0 1-.137-.066.172.172 0 0 1-.038-.109v-.262c0-.056.022-.102.066-.137a.172.172 0 0 1 .109-.038c.056 0 .102.022.137.066a.172.172 0 0 1 .038.109v.043l-.205.119Zm.06-.104v-.158c0-.013-.006-.021-.018-.024L.199-.556h-.01c-.013 0-.021.006-.024.018l-.001.007v.192l.06-.034Z" style="fill:#231f20;fill-rule:nonzero" transform="matrix(16 0 0 16 620.997 220)"/><path d="M.368-.725v.71h.015V0h-.19a.167.167 0 0 1-.137-.066.172.172 0 0 1-.038-.109v-.25c0-.056.022-.102.066-.137a.172.172 0 0 1 .139-.036v-.099l-.018.002.001-.015.162-.015Zm-.145.17a.055.055 0 0 0-.054.034.062.062 0 0 0-.006.026v.39c0 .025.011.043.034.054a.062.062 0 0 0 .026.006v-.51Z" style="fill:#231f20;fill-rule:nonzero" transform="matrix(16 0 0 16 627.205 220)"/><path d="M.368-.725v.71h.015V0h-.19a.167.167 0 0 1-.137-.066.172.172 0 0 1-.038-.109v-.25c0-.056.022-.102.066-.137a.172.172 0 0 1 .139-.036v-.099l-.018.002.001-.015.162-.015Zm-.145.17a.055.055 0 0 0-.054.034.062.062 0 0 0-.006.026v.39c0 .025.011.043.034.054a.062.062 0 0 0 .026.006v-.51Z" style="fill:#231f20;fill-rule:nonzero" transform="matrix(16 0 0 16 636.71 220)"/><path d="m.097-.596.039-.001.03-.002.01-.001v.585h.015V0H.016v-.015h.015v-.567L.016-.585V-.6l.081.004Zm-.08-.078c0-.02.014-.035.042-.045a.13.13 0 0 1 .044-.007c.037 0 .064.01.079.03a.038.038 0 0 1 .007.022c0 .019-.014.034-.042.044a.163.163 0 0 1-.044.008c-.037 0-.063-.01-.078-.031a.037.037 0 0 1-.008-.021Z" style="fill:#231f20;fill-rule:nonzero" transform="matrix(16 0 0 16 643.077 220)"/><path d="M.223-.555a.055.055 0 0 0-.054.034.062.062 0 0 0-.006.026v.39c0 .025.011.043.034.054a.062.062 0 0 0 .026.006v-.51Zm.145.54h.015V0h-.19a.167.167 0 0 1-.137-.066.172.172 0 0 1-.038-.109v-.25c0-.056.022-.102.066-.137A.172.172 0 0 1 .193-.6h.19v.015H.368v.57Z" style="fill:#231f20;fill-rule:nonzero" transform="matrix(16 0 0 16 646.39 220)"/><path d="M.396 0H.221v-.015h.015v-.48a.055.055 0 0 0-.034-.054.062.062 0 0 0-.026-.006v.54h.015V0H.016v-.015h.015v-.57H.016V-.6h.395c.056 0 .102.022.137.066a.172.172 0 0 1 .038.109v.41h.015V0H.426v-.015h.015v-.48a.056.056 0 0 0-.033-.054.066.066 0 0 0-.027-.006v.54h.015V0Z" style="fill:#231f20;fill-rule:nonzero" transform="matrix(16 0 0 16 652.757 220)"/><path d="M.396-.6v.015H.381v.41a.167.167 0 0 1-.066.137A.172.172 0 0 1 .206 0h-.19v-.015h.015v-.57H.016V-.6h.175v.015H.176v.54A.055.055 0 0 0 .23-.079a.062.062 0 0 0 .006-.026v-.48H.221V-.6h.175Z" style="fill:#231f20;fill-rule:nonzero" transform="matrix(16 0 0 16 407.333 240)"/><path d="M.369-.431v.262a.167.167 0 0 1-.066.137.172.172 0 0 1-.109.038.167.167 0 0 1-.137-.066.172.172 0 0 1-.038-.109v-.262c0-.056.022-.102.066-.137a.172.172 0 0 1 .109-.038c.056 0 .102.022.137.066a.172.172 0 0 1 .038.109ZM.224-.53c0-.013-.006-.021-.018-.024L.199-.555h-.01c-.013 0-.021.006-.024.018L.164-.53v.46c0 .013.006.021.018.024a.02.02 0 0 0 .007.001h.01c.013 0 .021-.006.024-.018L.224-.07v-.46Z" style="fill:#231f20;fill-rule:nonzero" transform="matrix(16 0 0 16 413.925 240)"/><path d="M.034-.015v-.682l-.018.002.001-.015.162-.015v.71h.015V0H.019v-.015h.015Z" style="fill:#231f20;fill-rule:nonzero" transform="matrix(16 0 0 16 420.133 240)"/><path d="M.016-.6h.16v.495c0 .025.011.043.034.054a.062.062 0 0 0 .026.006v-.54H.221V-.6h.16v.585h.015V0h-.19a.167.167 0 0 1-.137-.066.172.172 0 0 1-.038-.109v-.41H.016V-.6Z" style="fill:#231f20;fill-rule:nonzero" transform="matrix(16 0 0 16 423.493 240)"/><path d="M.015.1V.085H.03v-.67H.015V-.6h.19c.056 0 .102.022.137.066a.172.172 0 0 1 .038.109v.25a.167.167 0 0 1-.066.137.172.172 0 0 1-.139.036v.087H.19V.1H.015Zm.16-.145a.055.055 0 0 0 .054-.034.062.062 0 0 0 .006-.026v-.39a.055.055 0 0 0-.034-.054.062.062 0 0 0-.026-.006v.51Z" style="fill:#231f20;fill-rule:nonzero" transform="matrix(16 0 0 16 430.085 240)"/><path d="M.167-.525h.088v.055H.167v.476a.17.17 0 0 1-.12-.082.17.17 0 0 1-.025-.09V-.47h-.035v-.055h.035v-.091L.167-.7v.175Z" style="fill:#231f20;fill-rule:nonzero" transform="matrix(16 0 0 16 436.453 240)"/><path d="M.016-.6h.16v.495c0 .025.011.043.034.054a.062.062 0 0 0 .026.006v-.54H.221V-.6h.16v.585h.015V0h-.19a.167.167 0 0 1-.137-.066.172.172 0 0 1-.038-.109v-.41H.016V-.6Z" style="fill:#231f20;fill-rule:nonzero" transform="matrix(16 0 0 16 439.781 240)"/><path d="M.223-.555a.055.055 0 0 0-.054.034.062.062 0 0 0-.006.026v.39c0 .025.011.043.034.054a.062.062 0 0 0 .026.006v-.51Zm.145.54h.015V0h-.19a.167.167 0 0 1-.137-.066.172.172 0 0 1-.038-.109v-.25c0-.056.022-.102.066-.137A.172.172 0 0 1 .193-.6h.19v.015H.368v.57Z" style="fill:#231f20;fill-rule:nonzero" transform="matrix(16 0 0 16 446.373 240)"/><path d="M.02-.118h.145V0H.02z" style="fill:#231f20;fill-rule:nonzero" transform="matrix(16 0 0 16 452.741 240)"/><path d="M.033-.502c0-.063.024-.114.071-.155a.2.2 0 0 1 .133-.049c.062 0 .113.024.154.071a.2.2 0 0 1 .049.133l.002.487h.015V0h-.2v-.015h.015L.271-.288H.202l-.001.273h.015V0h-.2v-.015h.015l.002-.487Zm.238.09v-.206c0-.015-.007-.024-.02-.028L.243-.647H.23c-.014 0-.023.007-.027.021l-.001.008v.206h.069Z" style="fill:#231f20;fill-rule:nonzero" transform="matrix(16 0 0 16 407.333 280)"/><path d="M.167-.525h.088v.055H.167v.476a.17.17 0 0 1-.12-.082.17.17 0 0 1-.025-.09V-.47h-.035v-.055h.035v-.091L.167-.7v.175Z" style="fill:#231f20;fill-rule:nonzero" transform="matrix(16 0 0 16 414.901 280)"/><path d="M.396-.6v.015H.381v.41a.167.167 0 0 1-.066.137A.172.172 0 0 1 .206 0h-.19v-.015h.015v-.57H.016V-.6h.175v.015H.176v.54A.055.055 0 0 0 .23-.079a.062.062 0 0 0 .006-.026v-.48H.221V-.6h.175Z" style="fill:#231f20;fill-rule:nonzero" transform="matrix(16 0 0 16 421.365 280)"/><path d="M.164-.269v.2c0 .013.006.021.018.024a.02.02 0 0 0 .007.001h.01c.013 0 .021-.006.024-.018l.001-.007v-.166l.145-.083v.149a.167.167 0 0 1-.066.137.17.17 0 0 1-.109.038.167.167 0 0 1-.137-.066.172.172 0 0 1-.038-.109v-.262c0-.056.022-.102.066-.137a.172.172 0 0 1 .109-.038c.056 0 .102.022.137.066a.172.172 0 0 1 .038.109v.043l-.205.119Zm.06-.104v-.158c0-.013-.006-.021-.018-.024L.199-.556h-.01c-.013 0-.021.006-.024.018l-.001.007v.192l.06-.034Z" style="fill:#231f20;fill-rule:nonzero" transform="matrix(16 0 0 16 427.957 280)"/><path d="M.236-.291v-.204a.055.055 0 0 0-.034-.054.062.062 0 0 0-.026-.006v.54h.015V0H.016v-.015h.015v-.57H.016V-.6h.19c.056 0 .102.022.137.066a.172.172 0 0 1 .038.109v.05l-.145.084Z" style="fill:#231f20;fill-rule:nonzero" transform="matrix(16 0 0 16 434.165 280)"/><path d="M.369-.431v.262a.167.167 0 0 1-.066.137.172.172 0 0 1-.109.038.167.167 0 0 1-.137-.066.172.172 0 0 1-.038-.109v-.262c0-.056.022-.102.066-.137a.172.172 0 0 1 .109-.038c.056 0 .102.022.137.066a.172.172 0 0 1 .038.109ZM.224-.53c0-.013-.006-.021-.018-.024L.199-.555h-.01c-.013 0-.021.006-.024.018L.164-.53v.46c0 .013.006.021.018.024a.02.02 0 0 0 .007.001h.01c.013 0 .021-.006.024-.018L.224-.07v-.46Z" style="fill:#231f20;fill-rule:nonzero" transform="matrix(16 0 0 16 440.517 280)"/><path d="M.164-.269v.2c0 .013.006.021.018.024a.02.02 0 0 0 .007.001h.01c.013 0 .021-.006.024-.018l.001-.007v-.166l.145-.083v.149a.167.167 0 0 1-.066.137.17.17 0 0 1-.109.038.167.167 0 0 1-.137-.066.172.172 0 0 1-.038-.109v-.262c0-.056.022-.102.066-.137a.172.172 0 0 1 .109-.038c.056 0 .102.022.137.066a.172.172 0 0 1 .038.109v.043l-.205.119Zm.06-.104v-.158c0-.013-.006-.021-.018-.024L.199-.556h-.01c-.013 0-.021.006-.024.018l-.001.007v.192l.06-.034Z" style="fill:#231f20;fill-rule:nonzero" transform="matrix(16 0 0 16 449.861 280)"/><path d="M.369-.431v.262a.167.167 0 0 1-.066.137.172.172 0 0 1-.109.038.167.167 0 0 1-.137-.066.172.172 0 0 1-.038-.109v-.262c0-.056.022-.102.066-.137a.172.172 0 0 1 .109-.038c.056 0 .102.022.137.066a.172.172 0 0 1 .038.109ZM.224-.53c0-.013-.006-.021-.018-.024L.199-.555h-.01c-.013 0-.021.006-.024.018L.164-.53v.46c0 .013.006.021.018.024a.02.02 0 0 0 .007.001h.01c.013 0 .021-.006.024-.018L.224-.07v-.46Z" style="fill:#231f20;fill-rule:nonzero" transform="matrix(16 0 0 16 456.07 280)"/><path d="m.182-.423.068.075.04.044a.34.34 0 0 1 .067.094.125.125 0 0 1 .009.046.161.161 0 0 1-.065.132.172.172 0 0 1-.151.033.172.172 0 0 1-.134-.17v-.12l.128.128c.01.011.016.025.017.04v.052c0 .013.006.021.018.024a.02.02 0 0 0 .007.001h.01c.013 0 .021-.006.024-.018l.001-.007v-.074A.07.07 0 0 0 .2-.191L.086-.304a.185.185 0 0 1-.062-.119L.023-.442c0-.053.021-.095.063-.128a.173.173 0 0 1 .229.017l.002.002a.17.17 0 0 1 .049.123v.108L.243-.443a.068.068 0 0 1-.022-.048v-.037c0-.013-.006-.021-.018-.024L.196-.553h-.01c-.013 0-.021.006-.024.018l-.001.007v.058a.068.068 0 0 0 .021.047Z" style="fill:#231f20;fill-rule:nonzero" transform="matrix(16 0 0 16 462.277 280)"/><path d="M.164-.269v.2c0 .013.006.021.018.024a.02.02 0 0 0 .007.001h.01c.013 0 .021-.006.024-.018l.001-.007v-.166l.145-.083v.149a.167.167 0 0 1-.066.137.17.17 0 0 1-.109.038.167.167 0 0 1-.137-.066.172.172 0 0 1-.038-.109v-.262c0-.056.022-.102.066-.137a.172.172 0 0 1 .109-.038c.056 0 .102.022.137.066a.172.172 0 0 1 .038.109v.043l-.205.119Zm.06-.104v-.158c0-.013-.006-.021-.018-.024L.199-.556h-.01c-.013 0-.021.006-.024.018l-.001.007v.192l.06-.034Z" style="fill:#231f20;fill-rule:nonzero" transform="matrix(16 0 0 16 471.525 280)"/><path d="M.167-.525h.088v.055H.167v.476a.17.17 0 0 1-.12-.082.17.17 0 0 1-.025-.09V-.47h-.035v-.055h.035v-.091L.167-.7v.175Z" style="fill:#231f20;fill-rule:nonzero" transform="matrix(16 0 0 16 477.733 280)"/><path d="M.223-.555a.055.055 0 0 0-.054.034.062.062 0 0 0-.006.026v.39c0 .025.011.043.034.054a.062.062 0 0 0 .026.006v-.51Zm.145.54h.015V0h-.19a.167.167 0 0 1-.137-.066.172.172 0 0 1-.038-.109v-.25c0-.056.022-.102.066-.137A.172.172 0 0 1 .193-.6h.19v.015H.368v.57Z" style="fill:#231f20;fill-rule:nonzero" transform="matrix(16 0 0 16 484.197 280)"/><path d="M.369-.312v.143a.167.167 0 0 1-.066.137.172.172 0 0 1-.109.038.167.167 0 0 1-.137-.066.172.172 0 0 1-.038-.109v-.262c0-.056.022-.102.066-.137a.172.172 0 0 1 .109-.038c.056 0 .102.022.137.066a.172.172 0 0 1 .038.109v.05l-.145.083v-.233c0-.013-.006-.021-.018-.024L.199-.556h-.01c-.013 0-.021.006-.024.018l-.001.007v.462c0 .013.006.021.018.024a.02.02 0 0 0 .007.001h.01c.013 0 .021-.006.024-.018l.001-.007v-.159l.145-.084Z" style="fill:#231f20;fill-rule:nonzero" transform="matrix(16 0 0 16 490.565 280)"/><path d="M.369-.312v.143a.167.167 0 0 1-.066.137.172.172 0 0 1-.109.038.167.167 0 0 1-.137-.066.172.172 0 0 1-.038-.109v-.262c0-.056.022-.102.066-.137a.172.172 0 0 1 .109-.038c.056 0 .102.022.137.066a.172.172 0 0 1 .038.109v.05l-.145.083v-.233c0-.013-.006-.021-.018-.024L.199-.556h-.01c-.013 0-.021.006-.024.018l-.001.007v.462c0 .013.006.021.018.024a.02.02 0 0 0 .007.001h.01c.013 0 .021-.006.024-.018l.001-.007v-.159l.145-.084Z" style="fill:#231f20;fill-rule:nonzero" transform="matrix(16 0 0 16 496.773 280)"/><path d="M.016-.6h.16v.495c0 .025.011.043.034.054a.062.062 0 0 0 .026.006v-.54H.221V-.6h.16v.585h.015V0h-.19a.167.167 0 0 1-.137-.066.172.172 0 0 1-.038-.109v-.41H.016V-.6Z" style="fill:#231f20;fill-rule:nonzero" transform="matrix(16 0 0 16 502.981 280)"/><path d="m.182-.423.068.075.04.044a.34.34 0 0 1 .067.094.125.125 0 0 1 .009.046.161.161 0 0 1-.065.132.172.172 0 0 1-.151.033.172.172 0 0 1-.134-.17v-.12l.128.128c.01.011.016.025.017.04v.052c0 .013.006.021.018.024a.02.02 0 0 0 .007.001h.01c.013 0 .021-.006.024-.018l.001-.007v-.074A.07.07 0 0 0 .2-.191L.086-.304a.185.185 0 0 1-.062-.119L.023-.442c0-.053.021-.095.063-.128a.173.173 0 0 1 .229.017l.002.002a.17.17 0 0 1 .049.123v.108L.243-.443a.068.068 0 0 1-.022-.048v-.037c0-.013-.006-.021-.018-.024L.196-.553h-.01c-.013 0-.021.006-.024.018l-.001.007v.058a.068.068 0 0 0 .021.047Z" style="fill:#231f20;fill-rule:nonzero" transform="matrix(16 0 0 16 509.573 280)"/><path d="M.223-.555a.055.055 0 0 0-.054.034.062.062 0 0 0-.006.026v.39c0 .025.011.043.034.054a.062.062 0 0 0 .026.006v-.51Zm.145.54h.015V0h-.19a.167.167 0 0 1-.137-.066.172.172 0 0 1-.038-.109v-.25c0-.056.022-.102.066-.137A.172.172 0 0 1 .193-.6h.19v.015H.368v.57Z" style="fill:#231f20;fill-rule:nonzero" transform="matrix(16 0 0 16 515.685 280)"/><path d="M.396 0H.221v-.015h.015v-.48a.055.055 0 0 0-.034-.054.062.062 0 0 0-.026-.006v.54h.015V0H.016v-.015h.015v-.57H.016V-.6h.395c.056 0 .102.022.137.066a.172.172 0 0 1 .038.109v.41h.015V0H.426v-.015h.015v-.48a.056.056 0 0 0-.033-.054.066.066 0 0 0-.027-.006v.54h.015V0Z" style="fill:#231f20;fill-rule:nonzero" transform="matrix(16 0 0 16 522.053 280)"/><path d="M.164-.269v.2c0 .013.006.021.018.024a.02.02 0 0 0 .007.001h.01c.013 0 .021-.006.024-.018l.001-.007v-.166l.145-.083v.149a.167.167 0 0 1-.066.137.17.17 0 0 1-.109.038.167.167 0 0 1-.137-.066.172.172 0 0 1-.038-.109v-.262c0-.056.022-.102.066-.137a.172.172 0 0 1 .109-.038c.056 0 .102.022.137.066a.172.172 0 0 1 .038.109v.043l-.205.119Zm.06-.104v-.158c0-.013-.006-.021-.018-.024L.199-.556h-.01c-.013 0-.021.006-.024.018l-.001.007v.192l.06-.034Z" style="fill:#231f20;fill-rule:nonzero" transform="matrix(16 0 0 16 535.061 280)"/><path d="M.167-.525h.088v.055H.167v.476a.17.17 0 0 1-.12-.082.17.17 0 0 1-.025-.09V-.47h-.035v-.055h.035v-.091L.167-.7v.175Z" style="fill:#231f20;fill-rule:nonzero" transform="matrix(16 0 0 16 541.27 280)"/><path d="M-.033.003v.086c0 .017.006.031.018.042a.054.054 0 0 0 .042.018v-.737L.012-.591v-.015l.081.004.039-.001.03-.002.01-.001v.625A.172.172 0 0 1 .12.142a.172.172 0 0 1-.123.052.169.169 0 0 1-.136-.065.194.194 0 0 1-.028-.048l.134-.078ZM.01-.674c0-.02.014-.035.042-.045a.13.13 0 0 1 .044-.007c.037 0 .063.01.078.03a.04.04 0 0 1 .008.022c0 .019-.014.034-.042.044a.163.163 0 0 1-.044.008c-.037 0-.063-.01-.078-.031A.037.037 0 0 1 .01-.674Z" style="fill:#231f20;fill-rule:nonzero" transform="matrix(16 0 0 16 547.733 280)"/><path d="M.016-.6h.16v.495c0 .025.011.043.034.054a.062.062 0 0 0 .026.006v-.54H.221V-.6h.16v.585h.015V0h-.19a.167.167 0 0 1-.137-.066.172.172 0 0 1-.038-.109v-.41H.016V-.6Z" style="fill:#231f20;fill-rule:nonzero" transform="matrix(16 0 0 16 550.837 280)"/><path d="m.182-.423.068.075.04.044a.34.34 0 0 1 .067.094.125.125 0 0 1 .009.046.161.161 0 0 1-.065.132.172.172 0 0 1-.151.033.172.172 0 0 1-.134-.17v-.12l.128.128c.01.011.016.025.017.04v.052c0 .013.006.021.018.024a.02.02 0 0 0 .007.001h.01c.013 0 .021-.006.024-.018l.001-.007v-.074A.07.07 0 0 0 .2-.191L.086-.304a.185.185 0 0 1-.062-.119L.023-.442c0-.053.021-.095.063-.128a.173.173 0 0 1 .229.017l.002.002a.17.17 0 0 1 .049.123v.108L.243-.443a.068.068 0 0 1-.022-.048v-.037c0-.013-.006-.021-.018-.024L.196-.553h-.01c-.013 0-.021.006-.024.018l-.001.007v.058a.068.068 0 0 0 .021.047Z" style="fill:#231f20;fill-rule:nonzero" transform="matrix(16 0 0 16 557.43 280)"/><path d="M.167-.525h.088v.055H.167v.476a.17.17 0 0 1-.12-.082.17.17 0 0 1-.025-.09V-.47h-.035v-.055h.035v-.091L.167-.7v.175Z" style="fill:#231f20;fill-rule:nonzero" transform="matrix(16 0 0 16 563.541 280)"/><path d="M.369-.431v.262a.167.167 0 0 1-.066.137.172.172 0 0 1-.109.038.167.167 0 0 1-.137-.066.172.172 0 0 1-.038-.109v-.262c0-.056.022-.102.066-.137a.172.172 0 0 1 .109-.038c.056 0 .102.022.137.066a.172.172 0 0 1 .038.109ZM.224-.53c0-.013-.006-.021-.018-.024L.199-.555h-.01c-.013 0-.021.006-.024.018L.164-.53v.46c0 .013.006.021.018.024a.02.02 0 0 0 .007.001h.01c.013 0 .021-.006.024-.018L.224-.07v-.46Z" style="fill:#231f20;fill-rule:nonzero" transform="matrix(16 0 0 16 566.87 280)"/><path d="M.368-.725v.71h.015V0h-.19a.167.167 0 0 1-.137-.066.172.172 0 0 1-.038-.109v-.25c0-.056.022-.102.066-.137a.172.172 0 0 1 .139-.036v-.099l-.018.002.001-.015.162-.015Zm-.145.17a.055.055 0 0 0-.054.034.062.062 0 0 0-.006.026v.39c0 .025.011.043.034.054a.062.062 0 0 0 .026.006v-.51Z" style="fill:#231f20;fill-rule:nonzero" transform="matrix(16 0 0 16 576.213 280)"/><path d="M.016-.6h.16v.495c0 .025.011.043.034.054a.062.062 0 0 0 .026.006v-.54H.221V-.6h.16v.585h.015V0h-.19a.167.167 0 0 1-.137-.066.172.172 0 0 1-.038-.109v-.41H.016V-.6Z" style="fill:#231f20;fill-rule:nonzero" transform="matrix(16 0 0 16 582.581 280)"/><path d="M.369-.431v.262a.167.167 0 0 1-.066.137.172.172 0 0 1-.109.038.167.167 0 0 1-.137-.066.172.172 0 0 1-.038-.109v-.262c0-.056.022-.102.066-.137a.172.172 0 0 1 .109-.038c.056 0 .102.022.137.066a.172.172 0 0 1 .038.109ZM.224-.53c0-.013-.006-.021-.018-.024L.199-.555h-.01c-.013 0-.021.006-.024.018L.164-.53v.46c0 .013.006.021.018.024a.02.02 0 0 0 .007.001h.01c.013 0 .021-.006.024-.018L.224-.07v-.46Z" style="fill:#231f20;fill-rule:nonzero" transform="matrix(16 0 0 16 589.173 280)"/><path d="M.368-.725v.71h.015V0h-.19a.167.167 0 0 1-.137-.066.172.172 0 0 1-.038-.109v-.25c0-.056.022-.102.066-.137a.172.172 0 0 1 .139-.036v-.099l-.018.002.001-.015.162-.015Zm-.145.17a.055.055 0 0 0-.054.034.062.062 0 0 0-.006.026v.39c0 .025.011.043.034.054a.062.062 0 0 0 .026.006v-.51Z" style="fill:#231f20;fill-rule:nonzero" transform="matrix(16 0 0 16 598.517 280)"/><path d="M.369-.431v.262a.167.167 0 0 1-.066.137.172.172 0 0 1-.109.038.167.167 0 0 1-.137-.066.172.172 0 0 1-.038-.109v-.262c0-.056.022-.102.066-.137a.172.172 0 0 1 .109-.038c.056 0 .102.022.137.066a.172.172 0 0 1 .038.109ZM.224-.53c0-.013-.006-.021-.018-.024L.199-.555h-.01c-.013 0-.021.006-.024.018L.164-.53v.46c0 .013.006.021.018.024a.02.02 0 0 0 .007.001h.01c.013 0 .021-.006.024-.018L.224-.07v-.46Z" style="fill:#231f20;fill-rule:nonzero" transform="matrix(16 0 0 16 604.885 280)"/><path d="M.034-.015v-.682l-.018.002.001-.015.162-.015v.71h.015V0H.019v-.015h.015Z" style="fill:#231f20;fill-rule:nonzero" transform="matrix(16 0 0 16 611.093 280)"/><path d="M.369-.431v.262a.167.167 0 0 1-.066.137.172.172 0 0 1-.109.038.167.167 0 0 1-.137-.066.172.172 0 0 1-.038-.109v-.262c0-.056.022-.102.066-.137a.172.172 0 0 1 .109-.038c.056 0 .102.022.137.066a.172.172 0 0 1 .038.109ZM.224-.53c0-.013-.006-.021-.018-.024L.199-.555h-.01c-.013 0-.021.006-.024.018L.164-.53v.46c0 .013.006.021.018.024a.02.02 0 0 0 .007.001h.01c.013 0 .021-.006.024-.018L.224-.07v-.46Z" style="fill:#231f20;fill-rule:nonzero" transform="matrix(16 0 0 16 614.453 280)"/><path d="M.236-.291v-.204a.055.055 0 0 0-.034-.054.062.062 0 0 0-.026-.006v.54h.015V0H.016v-.015h.015v-.57H.016V-.6h.19c.056 0 .102.022.137.066a.172.172 0 0 1 .038.109v.05l-.145.084Z" style="fill:#231f20;fill-rule:nonzero" transform="matrix(16 0 0 16 620.661 280)"/><path d="M.164-.269v.2c0 .013.006.021.018.024a.02.02 0 0 0 .007.001h.01c.013 0 .021-.006.024-.018l.001-.007v-.166l.145-.083v.149a.167.167 0 0 1-.066.137.17.17 0 0 1-.109.038.167.167 0 0 1-.137-.066.172.172 0 0 1-.038-.109v-.262c0-.056.022-.102.066-.137a.172.172 0 0 1 .109-.038c.056 0 .102.022.137.066a.172.172 0 0 1 .038.109v.043l-.205.119Zm.06-.104v-.158c0-.013-.006-.021-.018-.024L.199-.556h-.01c-.013 0-.021.006-.024.018l-.001.007v.192l.06-.034Z" style="fill:#231f20;fill-rule:nonzero" transform="matrix(16 0 0 16 627.013 280)"/><path d="m.182-.423.068.075.04.044a.34.34 0 0 1 .067.094.125.125 0 0 1 .009.046.161.161 0 0 1-.065.132.172.172 0 0 1-.151.033.172.172 0 0 1-.134-.17v-.12l.128.128c.01.011.016.025.017.04v.052c0 .013.006.021.018.024a.02.02 0 0 0 .007.001h.01c.013 0 .021-.006.024-.018l.001-.007v-.074A.07.07 0 0 0 .2-.191L.086-.304a.185.185 0 0 1-.062-.119L.023-.442c0-.053.021-.095.063-.128a.173.173 0 0 1 .229.017l.002.002a.17.17 0 0 1 .049.123v.108L.243-.443a.068.068 0 0 1-.022-.048v-.037c0-.013-.006-.021-.018-.024L.196-.553h-.01c-.013 0-.021.006-.024.018l-.001.007v.058a.068.068 0 0 0 .021.047Z" style="fill:#231f20;fill-rule:nonzero" transform="matrix(16 0 0 16 633.221 280)"/><path d="M.164-.269v.2c0 .013.006.021.018.024a.02.02 0 0 0 .007.001h.01c.013 0 .021-.006.024-.018l.001-.007v-.166l.145-.083v.149a.167.167 0 0 1-.066.137.17.17 0 0 1-.109.038.167.167 0 0 1-.137-.066.172.172 0 0 1-.038-.109v-.262c0-.056.022-.102.066-.137a.172.172 0 0 1 .109-.038c.056 0 .102.022.137.066a.172.172 0 0 1 .038.109v.043l-.205.119Zm.06-.104v-.158c0-.013-.006-.021-.018-.024L.199-.556h-.01c-.013 0-.021.006-.024.018l-.001.007v.192l.06-.034Z" style="fill:#231f20;fill-rule:nonzero" transform="matrix(16 0 0 16 642.47 280)"/><path d="M.167-.525h.088v.055H.167v.476a.17.17 0 0 1-.12-.082.17.17 0 0 1-.025-.09V-.47h-.035v-.055h.035v-.091L.167-.7v.175Z" style="fill:#231f20;fill-rule:nonzero" transform="matrix(16 0 0 16 648.677 280)"/><path d="M.164-.269v.2c0 .013.006.021.018.024a.02.02 0 0 0 .007.001h.01c.013 0 .021-.006.024-.018l.001-.007v-.166l.145-.083v.149a.167.167 0 0 1-.066.137.17.17 0 0 1-.109.038.167.167 0 0 1-.137-.066.172.172 0 0 1-.038-.109v-.262c0-.056.022-.102.066-.137a.172.172 0 0 1 .109-.038c.056 0 .102.022.137.066a.172.172 0 0 1 .038.109v.043l-.205.119Zm.06-.104v-.158c0-.013-.006-.021-.018-.024L.199-.556h-.01c-.013 0-.021.006-.024.018l-.001.007v.192l.06-.034Z" style="fill:#231f20;fill-rule:nonzero" transform="matrix(16 0 0 16 655.141 280)"/><path d="M.223-.555a.055.055 0 0 0-.054.034.062.062 0 0 0-.006.026v.39c0 .025.011.043.034.054a.062.062 0 0 0 .026.006v-.51Zm.145.54h.015V0h-.19a.167.167 0 0 1-.137-.066.172.172 0 0 1-.038-.109v-.25c0-.056.022-.102.066-.137A.172.172 0 0 1 .193-.6h.19v.015H.368v.57Z" style="fill:#231f20;fill-rule:nonzero" transform="matrix(16 0 0 16 661.35 280)"/><path d="M.236-.291v-.204a.055.055 0 0 0-.034-.054.062.062 0 0 0-.026-.006v.54h.015V0H.016v-.015h.015v-.57H.016V-.6h.19c.056 0 .102.022.137.066a.172.172 0 0 1 .038.109v.05l-.145.084Z" style="fill:#231f20;fill-rule:nonzero" transform="matrix(16 0 0 16 407.333 300)"/><path d="M.164-.269v.2c0 .013.006.021.018.024a.02.02 0 0 0 .007.001h.01c.013 0 .021-.006.024-.018l.001-.007v-.166l.145-.083v.149a.167.167 0 0 1-.066.137.17.17 0 0 1-.109.038.167.167 0 0 1-.137-.066.172.172 0 0 1-.038-.109v-.262c0-.056.022-.102.066-.137a.172.172 0 0 1 .109-.038c.056 0 .102.022.137.066a.172.172 0 0 1 .038.109v.043l-.205.119Zm.06-.104v-.158c0-.013-.006-.021-.018-.024L.199-.556h-.01c-.013 0-.021.006-.024.018l-.001.007v.192l.06-.034Z" style="fill:#231f20;fill-rule:nonzero" transform="matrix(16 0 0 16 413.685 300)"/><path d="M.18-.71v.112L.209-.6a.17.17 0 0 1 .137.065.177.177 0 0 1 .038.11v.25a.167.167 0 0 1-.065.136.184.184 0 0 1-.11.039h-.19v-.015h.015l.001-.667-.018.002.001-.015L.18-.71Zm-.001.155v.51a.055.055 0 0 0 .054-.034.062.062 0 0 0 .006-.026v-.39a.056.056 0 0 0-.033-.054.066.066 0 0 0-.027-.006Z" style="fill:#231f20;fill-rule:nonzero" transform="matrix(16 0 0 16 419.893 300)"/><path d="M.016-.6h.16v.495c0 .025.011.043.034.054a.062.062 0 0 0 .026.006v-.54H.221V-.6h.16v.585h.015V0h-.19a.167.167 0 0 1-.137-.066.172.172 0 0 1-.038-.109v-.41H.016V-.6Z" style="fill:#231f20;fill-rule:nonzero" transform="matrix(16 0 0 16 426.31 300)"/><path d="M.396 0H.221v-.015h.015v-.48a.055.055 0 0 0-.034-.054.062.062 0 0 0-.026-.006v.54h.015V0H.016v-.015h.015v-.57H.016V-.6h.395c.056 0 .102.022.137.066a.172.172 0 0 1 .038.109v.41h.015V0H.426v-.015h.015v-.48a.056.056 0 0 0-.033-.054.066.066 0 0 0-.027-.006v.54h.015V0Z" style="fill:#231f20;fill-rule:nonzero" transform="matrix(16 0 0 16 432.901 300)"/><path d="M.02-.118h.145V0H.02z" style="fill:#231f20;fill-rule:nonzero" transform="matrix(16 0 0 16 442.773 300)"/><path d="M562.969 380.084c-.552 0-1.038-.096-1.458-.288-.42-.192-.75-.46-.99-.804a2.111 2.111 0 0 1-.384-1.152h.888c.04.408.22.766.54 1.074.32.308.788.462 1.404.462.568 0 1.018-.146 1.35-.438.332-.292.498-.662.498-1.11 0-.36-.092-.65-.276-.87a1.69 1.69 0 0 0-.684-.492 10.612 10.612 0 0 0-1.128-.354 9.862 9.862 0 0 1-1.332-.444 2.12 2.12 0 0 1-.84-.672c-.232-.304-.348-.716-.348-1.236 0-.432.112-.818.336-1.158.224-.34.54-.606.948-.798.408-.192.876-.288 1.404-.288.776 0 1.402.19 1.878.57.476.38.75.87.822 1.47h-.912c-.056-.344-.244-.65-.564-.918-.32-.268-.752-.402-1.296-.402-.504 0-.924.134-1.26.402-.336.268-.504.634-.504 1.098 0 .352.092.636.276.852.184.216.414.38.69.492.276.112.65.232 1.122.36.544.152.984.302 1.32.45.336.148.62.374.852.678.232.304.348.712.348 1.224 0 .392-.104.764-.312 1.116a2.277 2.277 0 0 1-.924.852c-.408.216-.896.324-1.464.324Zm-34.656 0c-.552 0-1.038-.096-1.458-.288-.42-.192-.75-.46-.99-.804a2.111 2.111 0 0 1-.384-1.152h.888c.04.408.22.766.54 1.074.32.308.788.462 1.404.462.568 0 1.018-.146 1.35-.438.332-.292.498-.662.498-1.11 0-.36-.092-.65-.276-.87a1.69 1.69 0 0 0-.684-.492 10.612 10.612 0 0 0-1.128-.354 9.862 9.862 0 0 1-1.332-.444 2.12 2.12 0 0 1-.84-.672c-.232-.304-.348-.716-.348-1.236 0-.432.112-.818.336-1.158.224-.34.54-.606.948-.798.408-.192.876-.288 1.404-.288.776 0 1.402.19 1.878.57.476.38.75.87.822 1.47h-.912c-.056-.344-.244-.65-.564-.918-.32-.268-.752-.402-1.296-.402-.504 0-.924.134-1.26.402-.336.268-.504.634-.504 1.098 0 .352.092.636.276.852.184.216.414.38.69.492.276.112.65.232 1.122.36.544.152.984.302 1.32.45.336.148.62.374.852.678.232.304.348.712.348 1.224 0 .392-.104.764-.312 1.116a2.277 2.277 0 0 1-.924.852c-.408.216-.896.324-1.464.324Zm38.592-4.284c0-.824.18-1.562.54-2.214a3.92 3.92 0 0 1 1.476-1.524 4.067 4.067 0 0 1 2.088-.546c.936 0 1.738.222 2.406.666.668.444 1.154 1.07 1.458 1.878h-.984a2.886 2.886 0 0 0-1.098-1.332c-.492-.32-1.086-.48-1.782-.48-.616 0-1.17.144-1.662.432a3 3 0 0 0-1.158 1.242c-.28.54-.42 1.166-.42 1.878s.14 1.336.42 1.872c.28.536.666.948 1.158 1.236a3.228 3.228 0 0 0 1.662.432c.696 0 1.29-.158 1.782-.474a2.86 2.86 0 0 0 1.098-1.314h.984c-.304.8-.792 1.42-1.464 1.86-.672.44-1.472.66-2.4.66a4.067 4.067 0 0 1-2.088-.546 3.931 3.931 0 0 1-1.476-1.518c-.36-.648-.54-1.384-.54-2.208Zm-89.796-4.236c.808 0 1.526.18 2.154.54.628.36 1.116.86 1.464 1.5.348.64.522 1.372.522 2.196 0 .824-.174 1.558-.522 2.202a3.763 3.763 0 0 1-1.464 1.506c-.628.36-1.346.54-2.154.54-.808 0-1.526-.18-2.154-.54a3.763 3.763 0 0 1-1.464-1.506c-.348-.644-.522-1.378-.522-2.202 0-.824.174-1.556.522-2.196.348-.64.836-1.14 1.464-1.5.628-.36 1.346-.54 2.154-.54Zm35.388.552h-4.392v3.072c.2-.28.492-.51.876-.69.384-.18.8-.27 1.248-.27.656 0 1.192.134 1.608.402.416.268.716.616.9 1.044.184.428.276.886.276 1.374 0 .56-.106 1.066-.318 1.518-.212.452-.536.81-.972 1.074-.436.264-.978.396-1.626.396-.824 0-1.492-.214-2.004-.642-.512-.428-.824-1.006-.936-1.734h.828c.104.528.344.936.72 1.224.376.288.84.432 1.392.432.696 0 1.222-.206 1.578-.618.356-.412.534-.958.534-1.638 0-.664-.18-1.182-.54-1.554-.36-.372-.876-.558-1.548-.558-.464 0-.872.108-1.224.324a1.967 1.967 0 0 0-.78.876h-.792v-4.764h5.172v.732Zm-19.68 3.504c0-1.376.212-2.444.636-3.204.424-.76 1.184-1.14 2.28-1.14 1.096 0 1.856.38 2.28 1.14.424.76.636 1.828.636 3.204 0 1.4-.212 2.484-.636 3.252-.424.768-1.184 1.152-2.28 1.152-1.104 0-1.866-.384-2.286-1.152-.42-.768-.63-1.852-.63-3.252Zm29.988 2.388h-3.816l-.732 1.992h-.888l3.06-8.28h.948l3.048 8.28h-.888l-.732-1.992Zm59.964-6.396V380h-.84v-3.924h-4.548V380h-.84v-8.388h.84v3.768h4.548v-3.768h.84Zm-45.228 0v.696h-2.328V380h-.84v-7.692h-2.34v-.696h5.508Zm9.216 0V380h-.84v-8.388h.84Zm52.512.684v3.132h3.18v.696h-3.18v3.18h3.54V380h-4.38v-8.4h4.38v.696h-3.54Zm-2.22-.684v.696h-3.696v3.132h3.12v.696h-3.12V380h-.84v-8.388h4.536ZM543.337 380l-2.076-3.504h-1.548V380h-.84v-8.388h2.52c.936 0 1.646.224 2.13.672.484.448.726 1.036.726 1.764 0 .608-.174 1.126-.522 1.554-.348.428-.862.706-1.542.834l2.16 3.564h-1.008Zm65.592 0-2.076-3.504h-1.548V380h-.84v-8.388h2.52c.936 0 1.646.224 2.13.672.484.448.726 1.036.726 1.764 0 .608-.174 1.126-.522 1.554-.348.428-.862.706-1.542.834l2.16 3.564h-1.008Zm-57.78-8.388c.928 0 1.724.168 2.388.504.664.336 1.172.82 1.524 1.452.352.632.528 1.384.528 2.256 0 .864-.176 1.61-.528 2.238a3.493 3.493 0 0 1-1.524 1.44c-.664.332-1.46.498-2.388.498h-2.484v-8.388h2.484Zm38.4 6.396h-3.816l-.732 1.992h-.888l3.06-8.28h.948l3.048 8.28h-.888l-.732-1.992Zm-103.764 1.332c1.472-1.104 2.61-2.094 3.414-2.97.804-.876 1.206-1.734 1.206-2.574 0-.552-.138-.994-.414-1.326-.276-.332-.726-.498-1.35-.498-.608 0-1.078.19-1.41.57-.332.38-.518.886-.558 1.518h-.816c.048-.888.322-1.578.822-2.07.5-.492 1.154-.738 1.962-.738.776 0 1.404.218 1.884.654.48.436.72 1.054.72 1.854 0 .968-.402 1.906-1.206 2.814-.804.908-1.794 1.794-2.97 2.658h4.44v.708h-5.724v-.6Zm14.256 0c1.472-1.104 2.61-2.094 3.414-2.97.804-.876 1.206-1.734 1.206-2.574 0-.552-.138-.994-.414-1.326-.276-.332-.726-.498-1.35-.498-.608 0-1.078.19-1.41.57-.332.38-.518.886-.558 1.518h-.816c.048-.888.322-1.578.822-2.07.5-.492 1.154-.738 1.962-.738.776 0 1.404.218 1.884.654.48.436.72 1.054.72 1.854 0 .968-.402 1.906-1.206 2.814-.804.908-1.794 1.794-2.97 2.658h4.44v.708h-5.724v-.6Zm-22.932-7.38c-.752 0-1.406.162-1.962.486a3.32 3.32 0 0 0-1.29 1.356c-.304.58-.456 1.246-.456 1.998s.152 1.418.456 1.998c.304.58.736 1.032 1.296 1.356.56.324 1.212.486 1.956.486s1.396-.162 1.956-.486c.56-.324.992-.776 1.296-1.356.304-.58.456-1.246.456-1.998s-.152-1.418-.456-1.998a3.32 3.32 0 0 0-1.29-1.356c-.556-.324-1.21-.486-1.962-.486Zm74.04 7.344c1.168 0 2.058-.306 2.67-.918.612-.612.918-1.466.918-2.562 0-1.104-.306-1.966-.918-2.586-.612-.62-1.502-.93-2.67-.93h-1.644v6.996h1.644Zm-53.328-3.684c0-.744-.052-1.372-.156-1.884-.104-.512-.308-.924-.612-1.236-.304-.312-.744-.468-1.32-.468-.576 0-1.016.156-1.32.468-.304.312-.508.724-.612 1.236-.104.512-.156 1.14-.156 1.884 0 .768.052 1.41.156 1.926.104.516.308.93.612 1.242.304.312.744.468 1.32.468.576 0 1.016-.156 1.32-.468.304-.312.508-.726.612-1.242.104-.516.156-1.158.156-1.926Zm-20.712-2.628c-.48 0-.916.112-1.308.336a2.437 2.437 0 0 0-.936.972c-.232.424-.348.92-.348 1.488 0 .576.116 1.076.348 1.5.232.424.544.748.936.972a2.59 2.59 0 0 0 1.308.336c.592 0 1.11-.162 1.554-.486.444-.324.742-.762.894-1.314h-.78c-.128.384-.336.676-.624.876-.288.2-.636.3-1.044.3-.528 0-.966-.19-1.314-.57-.348-.38-.522-.914-.522-1.602 0-.688.174-1.224.522-1.608a1.698 1.698 0 0 1 1.314-.576c.392 0 .738.102 1.038.306.3.204.51.498.63.882h.78c-.152-.576-.448-1.022-.888-1.338-.44-.316-.96-.474-1.56-.474Zm45.444 4.32-1.656-4.536-1.656 4.536h3.312Zm66.744 0-1.656-4.536-1.656 4.536h3.312Zm-49.584-1.5h1.692c.656 0 1.15-.16 1.482-.48.332-.32.498-.748.498-1.284 0-.552-.16-.978-.48-1.278-.32-.3-.824-.45-1.512-.45h-1.68v3.492Zm65.592 0h1.692c.656 0 1.15-.16 1.482-.48.332-.32.498-.748.498-1.284 0-.552-.16-.978-.48-1.278-.32-.3-.824-.45-1.512-.45h-1.68v3.492Zm-18.576-5.016a.532.532 0 0 1-.39-.162.532.532 0 0 1-.162-.39c0-.152.054-.282.162-.39a.532.532 0 0 1 .39-.162c.152 0 .282.054.39.162a.532.532 0 0 1 .162.39.532.532 0 0 1-.162.39.532.532 0 0 1-.39.162Zm1.848 0a.532.532 0 0 1-.39-.162.532.532 0 0 1-.162-.39c0-.152.054-.282.162-.39a.532.532 0 0 1 .39-.162c.152 0 .28.054.384.162a.542.542 0 0 1 .156.39.542.542 0 0 1-.156.39.512.512 0 0 1-.384.162Z" style="fill:#231f20"/><path d="M1612 3113C846 2877 295 2168 295 1321.33h104c0 971 792 1771 1771 1771s1771-800 1771-1770.83h104c0 847-551 1556-1317 1791.67h946v70.833H2389c-119 14-239 16-358 7-27-2-54-4-80-7.491H666v-71" style="fill:#575767" transform="matrix(.01095 0 0 .01095 405.504 343.626)"/><path d="M392.021 377.392a1.918 1.918 0 0 1 0 3.833 1.918 1.918 0 0 1 0-3.833Zm-36.144 0a1.918 1.918 0 0 1 0 3.833 1.917 1.917 0 0 1 0-3.833Z" style="fill:#c83154" transform="translate(55.333 -1.225)"/><path d="M167 1041.67h333v333H167v-333Zm3667 0h333v333h-333v-333ZM2001 2958.34h333v333h-333v-333Z" style="fill:#fff" transform="matrix(.01095 0 0 .01095 405.504 343.626)"/><path d="M.015 0v-.015H.03v-.67H.015V-.7h.426v.138H.426v-.016H.2v.167h.125v-.015H.34v.152H.325v-.015H.2v.274h.015V0h-.2Z" style="fill:#231f20;fill-rule:nonzero" transform="matrix(80 0 0 80 20 80)"/><path d="M.426-.502v.304a.196.196 0 0 1-.07.155.2.2 0 0 1-.133.049.196.196 0 0 1-.155-.071.2.2 0 0 1-.049-.133v-.304c0-.063.024-.114.071-.155a.2.2 0 0 1 .133-.049c.062 0 .113.024.154.071a.2.2 0 0 1 .049.133ZM.257-.618c0-.015-.007-.024-.02-.028L.229-.647H.216c-.014 0-.023.007-.027.021l-.001.008v.536c0 .015.007.024.02.028l.008.001h.013c.014 0 .023-.007.027-.021l.001-.008v-.536Z" style="fill:#231f20;fill-rule:nonzero" transform="matrix(80 0 0 80 55.2 80)"/><path d="M.439-.015h.015V0h-.2v-.015H.27v-.567a.066.066 0 0 0-.036-.062A.08.08 0 0 0 .2-.652v.637h.016V0h-.2v-.015h.015v-.67H.016V-.7h.219a.197.197 0 0 1 .204.197v.488Z" style="fill:#231f20;fill-rule:nonzero" transform="matrix(80 0 0 80 92.56 80)"/><path d="M.018-.7h.411v.138H.414v-.016h-.11v.563h.015V0h-.2v-.015h.015v-.563H.033v.015H.018V-.7Z" style="fill:#231f20;fill-rule:nonzero" transform="matrix(80 0 0 80 133.76 80)"/><path d="M.439-.015h.015V0h-.2v-.015H.27v-.567a.066.066 0 0 0-.036-.062A.08.08 0 0 0 .2-.652v.637h.016V0h-.2v-.015h.015v-.67H.016V-.7h.219a.197.197 0 0 1 .204.197v.488Z" style="fill:#231f20;fill-rule:nonzero" transform="matrix(80 0 0 80 179.04 80)"/><path d="M.426-.502v.304a.196.196 0 0 1-.07.155.2.2 0 0 1-.133.049.196.196 0 0 1-.155-.071.2.2 0 0 1-.049-.133v-.304c0-.063.024-.114.071-.155a.2.2 0 0 1 .133-.049c.062 0 .113.024.154.071a.2.2 0 0 1 .049.133ZM.257-.618c0-.015-.007-.024-.02-.028L.229-.647H.216c-.014 0-.023.007-.027.021l-.001.008v.536c0 .015.007.024.02.028l.008.001h.013c.014 0 .023-.007.027-.021l.001-.008v-.536Z" style="fill:#231f20;fill-rule:nonzero" transform="matrix(80 0 0 80 216.64 80)"/><path d="M.439-.015h.015V0h-.2v-.015H.27v-.567a.066.066 0 0 0-.036-.062A.08.08 0 0 0 .2-.652v.637h.016V0h-.2v-.015h.015v-.67H.016V-.7h.219a.197.197 0 0 1 .204.197v.488Z" style="fill:#231f20;fill-rule:nonzero" transform="matrix(80 0 0 80 260.56 80)"/><path d="M.016-.7h.2v.015H.201v.67h.015V0h-.2v-.015h.015v-.67H.016V-.7Z" style="fill:#231f20;fill-rule:nonzero" transform="matrix(80 0 0 80 298.16 80)"/><path d="M.439-.015h.015V0h-.2v-.015H.27v-.567a.066.066 0 0 0-.036-.062A.08.08 0 0 0 .2-.652v.637h.016V0h-.2v-.015h.015v-.67H.016V-.7h.219a.197.197 0 0 1 .204.197v.488Z" style="fill:#231f20;fill-rule:nonzero" transform="matrix(80 0 0 80 316.72 80)"/><path d="M.324-.289H.199v.167h.226v-.015H.44V0H.014v-.015h.015v-.67H.014V-.7H.44v.138H.425v-.015H.199v.166h.125v-.015h.015v.152H.324v-.015Z" style="fill:#231f20;fill-rule:nonzero" transform="matrix(80 0 0 80 354.32 80)"/><path d="M.209-.493a3.271 3.271 0 0 1 .126.139.42.42 0 0 1 .076.103.16.16 0 0 1 .012.06.19.19 0 0 1-.071.15A.202.202 0 0 1 .171 0a.196.196 0 0 1-.128-.097.199.199 0 0 1-.027-.101v-.14l.149.15a.074.074 0 0 1 .02.046v.061c0 .015.007.024.02.028l.008.001h.013c.014 0 .023-.007.027-.021l.001-.008.001-.087A.077.077 0 0 0 .23-.223L.098-.355a.223.223 0 0 1-.072-.133L.024-.515c0-.059.023-.108.069-.146a.197.197 0 0 1 .267.014.21.21 0 0 1 .063.148v.125L.28-.517a.071.071 0 0 1-.025-.055H.254v-.044c0-.014-.007-.023-.02-.027L.226-.644H.213c-.014 0-.023.007-.027.02l-.001.008v.068c0 .022.008.04.024.055Z" style="fill:#231f20;fill-rule:nonzero" transform="matrix(26 0 0 26 20 120)"/><path d="M.164-.269v.2c0 .013.006.021.018.024a.02.02 0 0 0 .007.001h.01c.013 0 .021-.006.024-.018l.001-.007v-.166l.145-.083v.149a.167.167 0 0 1-.066.137.17.17 0 0 1-.109.038.167.167 0 0 1-.137-.066.172.172 0 0 1-.038-.109v-.262c0-.056.022-.102.066-.137a.172.172 0 0 1 .109-.038c.056 0 .102.022.137.066a.172.172 0 0 1 .038.109v.043l-.205.119Zm.06-.104v-.158c0-.013-.006-.021-.018-.024L.199-.556h-.01c-.013 0-.021.006-.024.018l-.001.007v.192l.06-.034Z" style="fill:#231f20;fill-rule:nonzero" transform="matrix(26 0 0 26 31.414 120)"/><path d="M.236-.291v-.204a.055.055 0 0 0-.034-.054.062.062 0 0 0-.026-.006v.54h.015V0H.016v-.015h.015v-.57H.016V-.6h.19c.056 0 .102.022.137.066a.172.172 0 0 1 .038.109v.05l-.145.084Z" style="fill:#231f20;fill-rule:nonzero" transform="matrix(26 0 0 26 41.502 120)"/><path d="m.097-.596.039-.001.03-.002.01-.001v.585h.015V0H.016v-.015h.015v-.567L.016-.585V-.6l.081.004Zm-.08-.078c0-.02.014-.035.042-.045a.13.13 0 0 1 .044-.007c.037 0 .064.01.079.03a.038.038 0 0 1 .007.022c0 .019-.014.034-.042.044a.163.163 0 0 1-.044.008c-.037 0-.063-.01-.078-.031a.037.037 0 0 1-.008-.021Z" style="fill:#231f20;fill-rule:nonzero" transform="matrix(26 0 0 26 51.824 120)"/><path d="M.033-.525v-.006a.17.17 0 0 1 .065-.137.177.177 0 0 1 .23.01l-.09.052a.055.055 0 0 0-.037-.05.06.06 0 0 0-.023-.005v.136h.088v.055H.178v.455h.015V0H.018v-.015h.015V-.47h-.035v-.055h.035Z" style="fill:#231f20;fill-rule:nonzero" transform="matrix(26 0 0 26 57.206 120)"/><path d="M.033-.525v-.006a.17.17 0 0 1 .065-.137.177.177 0 0 1 .23.01l-.09.052a.055.055 0 0 0-.037-.05.06.06 0 0 0-.023-.005v.136h.088v.055H.178v.455h.015V0H.018v-.015h.015V-.47h-.035v-.055h.035Z" style="fill:#231f20;fill-rule:nonzero" transform="matrix(26 0 0 26 67.918 120)"/><path d="M.369-.431v.262a.167.167 0 0 1-.066.137.172.172 0 0 1-.109.038.167.167 0 0 1-.137-.066.172.172 0 0 1-.038-.109v-.262c0-.056.022-.102.066-.137a.172.172 0 0 1 .109-.038c.056 0 .102.022.137.066a.172.172 0 0 1 .038.109ZM.224-.53c0-.013-.006-.021-.018-.024L.199-.555h-.01c-.013 0-.021.006-.024.018L.164-.53v.46c0 .013.006.021.018.024a.02.02 0 0 0 .007.001h.01c.013 0 .021-.006.024-.018L.224-.07v-.46Z" style="fill:#231f20;fill-rule:nonzero" transform="matrix(26 0 0 26 73.534 120)"/><path d="M.396 0H.221v-.015h.015v-.48a.055.055 0 0 0-.034-.054.062.062 0 0 0-.026-.006v.54h.015V0H.016v-.015h.015v-.57H.016V-.6h.19c.056 0 .102.022.137.066a.172.172 0 0 1 .038.109v.41h.015V0Z" style="fill:#231f20;fill-rule:nonzero" transform="matrix(26 0 0 26 83.622 120)"/><path d="M.167-.525h.088v.055H.167v.476a.17.17 0 0 1-.12-.082.17.17 0 0 1-.025-.09V-.47h-.035v-.055h.035v-.091L.167-.7v.175Z" style="fill:#231f20;fill-rule:nonzero" transform="matrix(26 0 0 26 94.334 120)"/><path d="M.033-.525v-.006a.17.17 0 0 1 .065-.137.177.177 0 0 1 .23.01l-.09.052a.055.055 0 0 0-.037-.05.06.06 0 0 0-.023-.005v.136h.088v.055H.178v.455h.015V0H.018v-.015h.015V-.47h-.035v-.055h.035Z" style="fill:#231f20;fill-rule:nonzero" transform="matrix(26 0 0 26 104.838 120)"/><path d="M.369-.431v.262a.167.167 0 0 1-.066.137.172.172 0 0 1-.109.038.167.167 0 0 1-.137-.066.172.172 0 0 1-.038-.109v-.262c0-.056.022-.102.066-.137a.172.172 0 0 1 .109-.038c.056 0 .102.022.137.066a.172.172 0 0 1 .038.109ZM.224-.53c0-.013-.006-.021-.018-.024L.199-.555h-.01c-.013 0-.021.006-.024.018L.164-.53v.46c0 .013.006.021.018.024a.02.02 0 0 0 .007.001h.01c.013 0 .021-.006.024-.018L.224-.07v-.46Z" style="fill:#231f20;fill-rule:nonzero" transform="matrix(26 0 0 26 110.454 120)"/><path d="M.236-.291v-.204a.055.055 0 0 0-.034-.054.062.062 0 0 0-.026-.006v.54h.015V0H.016v-.015h.015v-.57H.016V-.6h.19c.056 0 .102.022.137.066a.172.172 0 0 1 .038.109v.05l-.145.084Z" style="fill:#231f20;fill-rule:nonzero" transform="matrix(26 0 0 26 120.542 120)"/><path d="M.18-.71v.112L.209-.6a.17.17 0 0 1 .137.065.177.177 0 0 1 .038.11v.25a.167.167 0 0 1-.065.136.184.184 0 0 1-.11.039h-.19v-.015h.015l.001-.667-.018.002.001-.015L.18-.71Zm-.001.155v.51a.055.055 0 0 0 .054-.034.062.062 0 0 0 .006-.026v-.39a.056.056 0 0 0-.033-.054.066.066 0 0 0-.027-.006Z" style="fill:#231f20;fill-rule:nonzero" transform="matrix(26 0 0 26 135.96 120)"/><path d="M.369-.431v.262a.167.167 0 0 1-.066.137.172.172 0 0 1-.109.038.167.167 0 0 1-.137-.066.172.172 0 0 1-.038-.109v-.262c0-.056.022-.102.066-.137a.172.172 0 0 1 .109-.038c.056 0 .102.022.137.066a.172.172 0 0 1 .038.109ZM.224-.53c0-.013-.006-.021-.018-.024L.199-.555h-.01c-.013 0-.021.006-.024.018L.164-.53v.46c0 .013.006.021.018.024a.02.02 0 0 0 .007.001h.01c.013 0 .021-.006.024-.018L.224-.07v-.46Z" style="fill:#231f20;fill-rule:nonzero" transform="matrix(26 0 0 26 146.386 120)"/><path d="M.369-.431v.262a.167.167 0 0 1-.066.137.172.172 0 0 1-.109.038.167.167 0 0 1-.137-.066.172.172 0 0 1-.038-.109v-.262c0-.056.022-.102.066-.137a.172.172 0 0 1 .109-.038c.056 0 .102.022.137.066a.172.172 0 0 1 .038.109ZM.224-.53c0-.013-.006-.021-.018-.024L.199-.555h-.01c-.013 0-.021.006-.024.018L.164-.53v.46c0 .013.006.021.018.024a.02.02 0 0 0 .007.001h.01c.013 0 .021-.006.024-.018L.224-.07v-.46Z" style="fill:#231f20;fill-rule:nonzero" transform="matrix(26 0 0 26 156.474 120)"/><path d="M.396-.6v.015H.381v.07a.17.17 0 0 1-.088.152.172.172 0 0 1 .088.152v.196h.015V0H.221v-.015h.015v-.266a.056.056 0 0 0-.033-.054.066.066 0 0 0-.027-.006v.326h.015V0H.016v-.015h.015v-.67H.016V-.7h.175v.015H.176v.3A.056.056 0 0 0 .23-.418a.066.066 0 0 0 .006-.027v-.14H.221V-.6h.175Z" style="fill:#231f20;fill-rule:nonzero" transform="matrix(26 0 0 26 166.562 120)"/><path d="M.369-.312v.143a.167.167 0 0 1-.066.137.172.172 0 0 1-.109.038.167.167 0 0 1-.137-.066.172.172 0 0 1-.038-.109v-.262c0-.056.022-.102.066-.137a.172.172 0 0 1 .109-.038c.056 0 .102.022.137.066a.172.172 0 0 1 .038.109v.05l-.145.083v-.233c0-.013-.006-.021-.018-.024L.199-.556h-.01c-.013 0-.021.006-.024.018l-.001.007v.462c0 .013.006.021.018.024a.02.02 0 0 0 .007.001h.01c.013 0 .021-.006.024-.018l.001-.007v-.159l.145-.084Z" style="fill:#231f20;fill-rule:nonzero" transform="matrix(26 0 0 26 182.37 120)"/><path d="M.369-.431v.262a.167.167 0 0 1-.066.137.172.172 0 0 1-.109.038.167.167 0 0 1-.137-.066.172.172 0 0 1-.038-.109v-.262c0-.056.022-.102.066-.137a.172.172 0 0 1 .109-.038c.056 0 .102.022.137.066a.172.172 0 0 1 .038.109ZM.224-.53c0-.013-.006-.021-.018-.024L.199-.555h-.01c-.013 0-.021.006-.024.018L.164-.53v.46c0 .013.006.021.018.024a.02.02 0 0 0 .007.001h.01c.013 0 .021-.006.024-.018L.224-.07v-.46Z" style="fill:#231f20;fill-rule:nonzero" transform="matrix(26 0 0 26 192.458 120)"/><path d="M.396-.6v.015H.381v.41a.167.167 0 0 1-.066.137A.172.172 0 0 1 .206 0h-.19v-.015h.015v-.57H.016V-.6h.175v.015H.176v.54A.055.055 0 0 0 .23-.079a.062.062 0 0 0 .006-.026v-.48H.221V-.6h.175Z" style="fill:#231f20;fill-rule:nonzero" transform="matrix(26 0 0 26 202.546 120)"/><path d="M.164-.269v.2c0 .013.006.021.018.024a.02.02 0 0 0 .007.001h.01c.013 0 .021-.006.024-.018l.001-.007v-.166l.145-.083v.149a.167.167 0 0 1-.066.137.17.17 0 0 1-.109.038.167.167 0 0 1-.137-.066.172.172 0 0 1-.038-.109v-.262c0-.056.022-.102.066-.137a.172.172 0 0 1 .109-.038c.056 0 .102.022.137.066a.172.172 0 0 1 .038.109v.043l-.205.119Zm.06-.104v-.158c0-.013-.006-.021-.018-.024L.199-.556h-.01c-.013 0-.021.006-.024.018l-.001.007v.192l.06-.034Z" style="fill:#231f20;fill-rule:nonzero" transform="matrix(26 0 0 26 213.258 120)"/><path d="M.236-.291v-.204a.055.055 0 0 0-.034-.054.062.062 0 0 0-.026-.006v.54h.015V0H.016v-.015h.015v-.57H.016V-.6h.19c.056 0 .102.022.137.066a.172.172 0 0 1 .038.109v.05l-.145.084Z" style="fill:#231f20;fill-rule:nonzero" transform="matrix(26 0 0 26 223.346 120)"/><path d="m.182-.423.068.075.04.044a.34.34 0 0 1 .067.094.125.125 0 0 1 .009.046.161.161 0 0 1-.065.132.172.172 0 0 1-.151.033.172.172 0 0 1-.134-.17v-.12l.128.128c.01.011.016.025.017.04v.052c0 .013.006.021.018.024a.02.02 0 0 0 .007.001h.01c.013 0 .021-.006.024-.018l.001-.007v-.074A.07.07 0 0 0 .2-.191L.086-.304a.185.185 0 0 1-.062-.119L.023-.442c0-.053.021-.095.063-.128a.173.173 0 0 1 .229.017l.002.002a.17.17 0 0 1 .049.123v.108L.243-.443a.068.068 0 0 1-.022-.048v-.037c0-.013-.006-.021-.018-.024L.196-.553h-.01c-.013 0-.021.006-.024.018l-.001.007v.058a.068.068 0 0 0 .021.047Z" style="fill:#231f20;fill-rule:nonzero" transform="matrix(26 0 0 26 233.668 120)"/><path d="M.02-.118h.145V0H.02z" style="fill:#231f20;fill-rule:nonzero" transform="matrix(26 0 0 26 243.6 120)"/><path d="m659.773 359.072.006-.006L680 379.287l-.713.713-19.514-19.514L640.26 380l-.713-.713 20.221-20.221.005.006Z" style="fill:#231f20"/><path d="M239.53 160h135.855l-.165 219.836-135.69.063V160Zm1.503 178.461c2.036 10.71 7.923 20.954 16.275 28.317 8.348 7.358 19.81 12.263 30.161 12.547l2.76.027v-49.934l-50.044-.148.115 3.214c.116 1.779.446 4.469.733 5.977Zm-.846 40.883s41.66-.091 39.541-.536c-16.268-3.42-30.57-15.588-36.586-31.128-1.155-2.983-2.314-6.925-2.723-9.259-.079-.45-.232 40.923-.232 40.923Zm61.691-.101c0 .057 72.837.101 72.837.101s.094-72.299-.007-72.436c-.101-.136-.375 1.107-.61 2.763-.583 4.111-2.631 11.519-4.478 16.198-9.101 23.057-27.172 40.691-50.322 49.105-4.15 1.509-10.79 3.231-14.44 3.747-1.639.231-2.98.466-2.98.522Zm-9.607.097c.862-.001 3.339-.154 5.505-.337 33.897-2.873 62.838-26.043 73.139-58.552 2.168-6.843 3.807-16.68 3.811-22.87l.001-2.047h-41.784c-22.982 0-41.869.085-41.971.187-.103.102-.266 83.623-.266 83.623l1.567-.003-.002-.001Zm-17.212-50.74c.591 0 2.062-.273 3.269-.608 6.177-1.708 11.251-7.426 11.66-13.139l.165-2.295h-16.168V328.6h1.074Zm-34.871 0h33.141v-32.738h-2.147c-5.431 0-12.121 2.417-17.542 6.339-7.627 5.518-13.274 15.899-13.424 24.68l-.028 1.719Zm50.096-.112c.067-.189-.052-10.845-.052-10.845l-1.122 2.275c-1.495 3.031-4.715 6.219-7.622 7.545l-2.133.973s10.75.122 10.929.052Zm0 0v.003l.002-.003h-.002Zm-49.475-8.891c3.136-10.681 11.748-19.634 21.89-22.756 1.244-.383 2.558-.823 2.919-.979.384-.166-25.432-.328-25.432-.328s.05 26.019.622 24.063h.001Zm33.177-7.693s16.042-.073 16.13-.161c.088-.088.043-1.156-.104-2.373-.793-6.651-7.14-12.86-13.707-13.409l-2.319-.194v16.137Zm7.437-15.083c2.873 1.342 6.504 4.956 7.663 7.629.448 1.032.929 1.879 1.069 1.882.14.003.073-10.634.073-10.634s-10.993-.117-10.993-.041c0 .077.984.6 2.187 1.162l.001.002Zm26.085-1.94h67.322l-.217-5.507c-1.122-28.483-11.681-56.374-29.786-78.678-20.734-25.542-49.781-42.61-81.834-48.084-6.751-1.153-10.828-1.581-17.638-1.853l-5.168-.207v134.329h67.321Zm-40.906-132.265c12.032 2.477 22.077 5.882 32.815 11.125 34.412 16.8 60.238 47.592 70.714 84.308 2.031 7.119 4.268 18.428 4.268 21.58 0 .705.077 1.206.171 1.112.094-.093.321-120.087.321-120.087s-119.942.128-116.821.508c1.986.241 5.825.895 8.532 1.452v.002Z" style="fill:#231f20;fill-rule:nonzero"/><path d="M.367-.585v.604a.17.17 0 0 1-.065.137.177.177 0 0 1-.11.038H.017l.081-.14h.165A.056.056 0 0 0 .316.021.083.083 0 0 0 .322 0h-.13a.167.167 0 0 1-.137-.066.172.172 0 0 1-.038-.109v-.25c0-.056.022-.102.066-.137A.172.172 0 0 1 .192-.6h.19v.015H.367Zm-.145.03a.055.055 0 0 0-.054.034.062.062 0 0 0-.006.026v.39c0 .025.011.043.034.054a.062.062 0 0 0 .026.006v-.51Z" style="fill:#231f20;fill-rule:nonzero" transform="matrix(250 0 0 250 20 340)"/><path d="M.219-.6H.211l-.026.141-.143-.02-.002.008.127.068-.063.128.007.005.104-.099.104.099.007-.005-.063-.128.127-.068-.002-.008-.143.02L.219-.6Z" style="fill:#231f20;fill-rule:nonzero" transform="matrix(30 0 0 30 146.533 240)"/><path d="M.125-.08a.045.045 0 0 0-.045.045C.08-.01.1.01.125.01.15.01.17-.01.17-.035A.045.045 0 0 0 .125-.08Z" style="fill:#231f20;fill-rule:nonzero" transform="matrix(30 0 0 30 159.433 240)"/><path d="M.054 0h.01c.005-.015.011-.02.019-.02.021 0 .047.03.101.03a.13.13 0 0 0 .13-.128c0-.125-.208-.122-.208-.215 0-.032.031-.059.067-.059.043 0 .082.037.106.102h.01V-.4h-.01c-.005.015-.01.021-.017.021C.243-.379.223-.41.174-.41a.116.116 0 0 0-.117.114c0 .125.209.122.209.217 0 .038-.037.071-.081.071-.054 0-.098-.045-.121-.122h-.01V0Z" style="fill:#231f20;fill-rule:nonzero" transform="matrix(30 0 0 30 166.933 240)"/><path d="M.226-.09.128-.33a.052.052 0 0 1-.004-.021c0-.023.015-.039.041-.039V-.4H-.01v.01c.025 0 .048.026.062.06l.139.34h.01L.34-.33c.014-.033.041-.06.07-.06V-.4H.27v.01c.036 0 .058.016.058.04a.053.053 0 0 1-.005.02l-.097.24Z" style="fill:#231f20;fill-rule:nonzero" transform="matrix(30 0 0 30 177.613 240)"/><path d="M.323-.344c.018-.02.037-.029.055-.029.03 0 .053.025.058.063.014-.008.022-.028.022-.048C.458-.39.437-.41.404-.41c-.031 0-.065.02-.091.053A.141.141 0 0 0 .195-.41C.111-.41.05-.354.05-.275c0 .049.025.091.066.115a.103.103 0 0 0-.048.09c0 .038.028.067.078.08C.083.021.038.057.038.101.038.159.11.2.211.2.329.2.401.141.401.045c0-.157-.303-.057-.303-.146 0-.021.017-.042.035-.051a.16.16 0 0 0 .062.012C.28-.14.34-.195.34-.275a.138.138 0 0 0-.017-.069ZM.165.01h.003c.15 0 .201.036.201.074C.369.137.3.182.215.182.145.182.1.148.1.097.1.061.127.025.165.01Zm.03-.402c.049 0 .079.045.079.117 0 .072-.03.116-.079.116S.116-.204.116-.275c0-.072.031-.117.079-.117Z" style="fill:#231f20;fill-rule:nonzero" transform="matrix(30 0 0 30 189.613 240)"/><path d="M.033-.502c0-.063.024-.114.071-.155a.2.2 0 0 1 .133-.049c.062 0 .113.024.154.071a.2.2 0 0 1 .049.133l.002.487h.015V0h-.2v-.015h.015L.271-.288H.202l-.001.273h.015V0h-.2v-.015h.015l.002-.487Zm.238.09v-.206c0-.015-.007-.024-.02-.028L.243-.647H.23c-.014 0-.023.007-.027.021l-.001.008v.206h.069Z" style="fill:#231f20;fill-rule:nonzero" transform="translate(256.153 280) scale(100.016)"/><path d="M.223-.555a.055.055 0 0 0-.054.034.062.062 0 0 0-.006.026v.39c0 .025.011.043.034.054a.062.062 0 0 0 .026.006v-.51Zm.145.54h.015V0h-.19a.167.167 0 0 1-.137-.066.172.172 0 0 1-.038-.109v-.25c0-.056.022-.102.066-.137A.172.172 0 0 1 .193-.6h.19v.015H.368v.57Z" style="fill:#231f20;fill-rule:nonzero" transform="translate(303.461 280) scale(100.016)"/></svg>