<svg xmlns="http://www.w3.org/2000/svg" xml:space="preserve" style="fill-rule:evenodd;clip-rule:evenodd;stroke-linejoin:round;stroke-miterlimit:2" viewBox="0 0 700 400"><path d="M351 199h83v66.471h-83z" style="fill:#89838d" transform="matrix(8.43373 0 0 6.01766 -2960.24 -1197.51)"/><path d="M.033 0h.438v-.16h-.01C.44-.081.43-.06.405-.044c-.03.019-.066.023-.224.023V-.52c0-.037.027-.06.07-.06v-.01H.033v.01c.043 0 .07.023.07.06v.45c0 .037-.027.06-.07.06V0Z" style="fill:#231f20;fill-rule:nonzero" transform="matrix(20 0 0 20 407.333 180)"/><path d="M.225-.41c-.114 0-.19.084-.19.21s.076.21.19.21.19-.084.19-.21-.076-.21-.19-.21Zm0 .018c.068 0 .112.075.112.192s-.044.192-.112.192S.113-.083.113-.2s.044-.192.112-.192Z" style="fill:#231f20;fill-rule:nonzero" transform="matrix(20 0 0 20 417.313 180)"/><path d="M.091-.29v.22a.06.06 0 0 1-.06.06V0h.19v-.01a.06.06 0 0 1-.06-.06v-.16c0-.082.04-.134.084-.134.031 0 .051.024.051.062l-.001.017c.034-.018.047-.039.047-.066C.342-.384.315-.41.279-.41c-.048 0-.095.04-.118.1v-.11a.287.287 0 0 1-.13.04v.01c.04 0 .06.027.06.08Z" style="fill:#231f20;fill-rule:nonzero" transform="matrix(20 0 0 20 426.313 180)"/><path d="M.117-.258H.39C.39-.348.323-.41.225-.41c-.115 0-.19.082-.19.21 0 .13.075.21.196.21.072 0 .122-.035.151-.103L.373-.097c-.033.05-.075.076-.121.076-.082 0-.138-.077-.138-.19a.36.36 0 0 1 .003-.047ZM.12-.276c.016-.072.056-.116.105-.116.053 0 .091.049.091.116H.12Z" style="fill:#231f20;fill-rule:nonzero" transform="matrix(20 0 0 20 433.353 180)"/><path d="M.4-.232c0-.08.054-.148.116-.148.038 0 .057.029.057.079v.231a.06.06 0 0 1-.06.06V0h.19v-.01a.06.06 0 0 1-.06-.06v-.221C.643-.365.605-.41.542-.41a.157.157 0 0 0-.143.102.097.097 0 0 0-.101-.102.156.156 0 0 0-.141.1v-.11a.287.287 0 0 1-.13.04v.01c.04 0 .06.026.06.08v.22a.06.06 0 0 1-.06.06V0h.19v-.01a.06.06 0 0 1-.06-.06v-.162c0-.081.054-.148.116-.148.038 0 .057.029.057.079v.231a.06.06 0 0 1-.06.06V0h.19v-.01A.06.06 0 0 1 .4-.07v-.162Z" style="fill:#231f20;fill-rule:nonzero" transform="matrix(20 0 0 20 441.453 180)"/><path d="M.114-.58a.045.045 0 0 0-.045.045c0 .025.02.045.045.045.025 0 .045-.02.045-.045A.045.045 0 0 0 .114-.58Zm.042.51v-.35a.287.287 0 0 1-.13.04v.01c.033 0 .06.017.06.08v.22a.06.06 0 0 1-.06.06V0h.19v-.01a.06.06 0 0 1-.06-.06Z" style="fill:#231f20;fill-rule:nonzero" transform="matrix(20 0 0 20 460.813 180)"/><path d="M.152-.31v-.11a.287.287 0 0 1-.13.04v.01c.04 0 .06.026.06.08v.41a.06.06 0 0 1-.06.06v.01h.19V.18a.06.06 0 0 1-.06-.06v-.15c.03.026.07.04.114.04.112 0 .186-.088.186-.22 0-.12-.062-.2-.155-.2a.156.156 0 0 0-.145.1Zm0 .258v-.18c0-.082.053-.148.118-.148.066 0 .107.067.107.177 0 .119-.048.19-.128.19a.138.138 0 0 1-.097-.039Z" style="fill:#231f20;fill-rule:nonzero" transform="matrix(20 0 0 20 465.533 180)"/><path d="M.054 0h.01c.005-.015.011-.02.019-.02.021 0 .047.03.101.03a.13.13 0 0 0 .13-.128c0-.125-.208-.122-.208-.215 0-.032.031-.059.067-.059.043 0 .082.037.106.102h.01V-.4h-.01c-.005.015-.01.021-.017.021C.243-.379.223-.41.174-.41a.116.116 0 0 0-.117.114c0 .125.209.122.209.217 0 .038-.037.071-.081.071-.054 0-.098-.045-.121-.122h-.01V0Z" style="fill:#231f20;fill-rule:nonzero" transform="matrix(20 0 0 20 475.273 180)"/><path d="M.335-.33v.162c0 .082-.053.148-.118.148-.044 0-.072-.03-.072-.079V-.4h-.13v.01a.06.06 0 0 1 .06.06v.221c0 .072.045.119.114.119.064 0 .123-.04.146-.1v.03c0 .021.004.049.01.07l.12-.017v-.01C.42-.025.405-.047.405-.11V-.4h-.13v.01a.06.06 0 0 1 .06.06Z" style="fill:#231f20;fill-rule:nonzero" transform="matrix(20 0 0 20 482.393 180)"/><path d="M.4-.232c0-.08.054-.148.116-.148.038 0 .057.029.057.079v.231a.06.06 0 0 1-.06.06V0h.19v-.01a.06.06 0 0 1-.06-.06v-.221C.643-.365.605-.41.542-.41a.157.157 0 0 0-.143.102.097.097 0 0 0-.101-.102.156.156 0 0 0-.141.1v-.11a.287.287 0 0 1-.13.04v.01c.04 0 .06.026.06.08v.22a.06.06 0 0 1-.06.06V0h.19v-.01a.06.06 0 0 1-.06-.06v-.162c0-.081.054-.148.116-.148.038 0 .057.029.057.079v.231a.06.06 0 0 1-.06.06V0h.19v-.01A.06.06 0 0 1 .4-.07v-.162Z" style="fill:#231f20;fill-rule:nonzero" transform="matrix(20 0 0 20 492.233 180)"/><path d="M.405-.11v-.52a.287.287 0 0 1-.13.04v.01c.04 0 .06.026.06.08v.13a.172.172 0 0 0-.114-.04c-.112 0-.186.088-.186.22 0 .12.061.2.154.2.064 0 .123-.04.146-.1v.03c0 .021.004.049.01.07l.12-.017v-.01C.42-.025.405-.047.405-.11Zm-.07-.238v.18c0 .082-.055.148-.119.148C.15-.02.11-.087.11-.197c0-.119.048-.19.128-.19.037 0 .074.015.097.039Z" style="fill:#231f20;fill-rule:nonzero" transform="matrix(20 0 0 20 511.593 180)"/><path d="M.225-.41c-.114 0-.19.084-.19.21s.076.21.19.21.19-.084.19-.21-.076-.21-.19-.21Zm0 .018c.068 0 .112.075.112.192s-.044.192-.112.192S.113-.083.113-.2s.044-.192.112-.192Z" style="fill:#231f20;fill-rule:nonzero" transform="matrix(20 0 0 20 521.433 180)"/><path d="M.152-.07v-.56a.287.287 0 0 1-.13.04v.01c.04 0 .06.026.06.08v.43a.06.06 0 0 1-.06.06V0h.19v-.01a.06.06 0 0 1-.06-.06Z" style="fill:#231f20;fill-rule:nonzero" transform="matrix(20 0 0 20 530.433 180)"/><path d="M.225-.41c-.114 0-.19.084-.19.21s.076.21.19.21.19-.084.19-.21-.076-.21-.19-.21Zm0 .018c.068 0 .112.075.112.192s-.044.192-.112.192S.113-.083.113-.2s.044-.192.112-.192Z" style="fill:#231f20;fill-rule:nonzero" transform="matrix(20 0 0 20 535.073 180)"/><path d="M.091-.29v.22a.06.06 0 0 1-.06.06V0h.19v-.01a.06.06 0 0 1-.06-.06v-.16c0-.082.04-.134.084-.134.031 0 .051.024.051.062l-.001.017c.034-.018.047-.039.047-.066C.342-.384.315-.41.279-.41c-.048 0-.095.04-.118.1v-.11a.287.287 0 0 1-.13.04v.01c.04 0 .06.027.06.08Z" style="fill:#231f20;fill-rule:nonzero" transform="matrix(20 0 0 20 544.073 180)"/><path d="M.054 0h.01c.005-.015.011-.02.019-.02.021 0 .047.03.101.03a.13.13 0 0 0 .13-.128c0-.125-.208-.122-.208-.215 0-.032.031-.059.067-.059.043 0 .082.037.106.102h.01V-.4h-.01c-.005.015-.01.021-.017.021C.243-.379.223-.41.174-.41a.116.116 0 0 0-.117.114c0 .125.209.122.209.217 0 .038-.037.071-.081.071-.054 0-.098-.045-.121-.122h-.01V0Z" style="fill:#231f20;fill-rule:nonzero" transform="matrix(20 0 0 20 556.113 180)"/><path d="M.114-.58a.045.045 0 0 0-.045.045c0 .025.02.045.045.045.025 0 .045-.02.045-.045A.045.045 0 0 0 .114-.58Zm.042.51v-.35a.287.287 0 0 1-.13.04v.01c.033 0 .06.017.06.08v.22a.06.06 0 0 1-.06.06V0h.19v-.01a.06.06 0 0 1-.06-.06Z" style="fill:#231f20;fill-rule:nonzero" transform="matrix(20 0 0 20 563.233 180)"/><path d="M.295-.035.288-.041a.094.094 0 0 1-.063.025c-.041 0-.064-.033-.064-.092v-.274h.115V-.4H.161v-.129h-.01a.199.199 0 0 1-.034.082.15.15 0 0 1-.081.058v.007h.055v.286c0 .073.031.106.102.106.048 0 .083-.015.102-.045Z" style="fill:#231f20;fill-rule:nonzero" transform="matrix(20 0 0 20 567.953 180)"/><path d="M.27-.044c0 .032.026.054.064.054.036 0 .07-.019.085-.049L.411-.045a.063.063 0 0 1-.046.025C.349-.02.34-.031.34-.051v-.243C.34-.368.289-.41.2-.41c-.076 0-.148.033-.148.102 0 .034.024.053.063.053A.08.08 0 0 0 .144-.26a.074.074 0 0 1-.03-.06.07.07 0 0 1 .075-.072c.05 0 .081.036.081.086 0 .128-.238.063-.238.217 0 .055.052.099.118.099.045 0 .095-.03.12-.071v.017ZM.102-.093c0-.087.109-.096.168-.152v.158c-.027.044-.061.07-.098.07-.042 0-.07-.031-.07-.076Z" style="fill:#231f20;fill-rule:nonzero" transform="matrix(20 0 0 20 578.913 180)"/><path d="M.4-.232c0-.08.054-.148.116-.148.038 0 .057.029.057.079v.231a.06.06 0 0 1-.06.06V0h.19v-.01a.06.06 0 0 1-.06-.06v-.221C.643-.365.605-.41.542-.41a.157.157 0 0 0-.143.102.097.097 0 0 0-.101-.102.156.156 0 0 0-.141.1v-.11a.287.287 0 0 1-.13.04v.01c.04 0 .06.026.06.08v.22a.06.06 0 0 1-.06.06V0h.19v-.01a.06.06 0 0 1-.06-.06v-.162c0-.081.054-.148.116-.148.038 0 .057.029.057.079v.231a.06.06 0 0 1-.06.06V0h.19v-.01A.06.06 0 0 1 .4-.07v-.162Z" style="fill:#231f20;fill-rule:nonzero" transform="matrix(20 0 0 20 587.033 180)"/><path d="M.117-.258H.39C.39-.348.323-.41.225-.41c-.115 0-.19.082-.19.21 0 .13.075.21.196.21.072 0 .122-.035.151-.103L.373-.097c-.033.05-.075.076-.121.076-.082 0-.138-.077-.138-.19a.36.36 0 0 1 .003-.047ZM.12-.276c.016-.072.056-.116.105-.116.053 0 .091.049.091.116H.12Z" style="fill:#231f20;fill-rule:nonzero" transform="matrix(20 0 0 20 601.393 180)"/><path d="M.295-.035.288-.041a.094.094 0 0 1-.063.025c-.041 0-.064-.033-.064-.092v-.274h.115V-.4H.161v-.129h-.01a.199.199 0 0 1-.034.082.15.15 0 0 1-.081.058v.007h.055v.286c0 .073.031.106.102.106.048 0 .083-.015.102-.045Z" style="fill:#231f20;fill-rule:nonzero" transform="matrix(20 0 0 20 609.493 180)"/><path d="M.08.111.085.12A.127.127 0 0 0 .175 0c0-.047-.023-.08-.055-.08a.045.045 0 0 0-.045.045c0 .021.016.028.031.035.013.007.026.014.026.033C.132.057.111.089.08.111Z" style="fill:#231f20;fill-rule:nonzero" transform="matrix(20 0 0 20 615.453 180)"/><path d="M.225-.392c.046 0 .083.032.083.072 0 .01-.002.019-.007.026a.08.08 0 0 0 .023.005c.024 0 .04-.014.04-.036C.364-.373.303-.41.225-.41c-.115 0-.19.082-.19.21 0 .13.075.21.196.21.072 0 .122-.035.151-.103L.373-.097c-.033.05-.075.076-.121.076-.082 0-.138-.077-.138-.19 0-.105.046-.181.111-.181Z" style="fill:#231f20;fill-rule:nonzero" transform="matrix(20 0 0 20 407.333 200)"/><path d="M.225-.41c-.114 0-.19.084-.19.21s.076.21.19.21.19-.084.19-.21-.076-.21-.19-.21Zm0 .018c.068 0 .112.075.112.192s-.044.192-.112.192S.113-.083.113-.2s.044-.192.112-.192Z" style="fill:#231f20;fill-rule:nonzero" transform="matrix(20 0 0 20 415.113 200)"/><path d="M.347-.301v.231a.06.06 0 0 1-.06.06V0h.19v-.01a.06.06 0 0 1-.06-.06v-.221C.417-.363.371-.41.302-.41a.156.156 0 0 0-.145.1v-.11a.287.287 0 0 1-.13.04v.01c.04 0 .06.026.06.08v.22a.06.06 0 0 1-.06.06V0h.19v-.01a.06.06 0 0 1-.06-.06v-.162c0-.082.053-.148.118-.148.044 0 .072.03.072.079Z" style="fill:#231f20;fill-rule:nonzero" transform="matrix(20 0 0 20 424.113 200)"/><path d="M.054 0h.01c.005-.015.011-.02.019-.02.021 0 .047.03.101.03a.13.13 0 0 0 .13-.128c0-.125-.208-.122-.208-.215 0-.032.031-.059.067-.059.043 0 .082.037.106.102h.01V-.4h-.01c-.005.015-.01.021-.017.021C.243-.379.223-.41.174-.41a.116.116 0 0 0-.117.114c0 .125.209.122.209.217 0 .038-.037.071-.081.071-.054 0-.098-.045-.121-.122h-.01V0Z" style="fill:#231f20;fill-rule:nonzero" transform="matrix(20 0 0 20 433.953 200)"/><path d="M.117-.258H.39C.39-.348.323-.41.225-.41c-.115 0-.19.082-.19.21 0 .13.075.21.196.21.072 0 .122-.035.151-.103L.373-.097c-.033.05-.075.076-.121.076-.082 0-.138-.077-.138-.19a.36.36 0 0 1 .003-.047ZM.12-.276c.016-.072.056-.116.105-.116.053 0 .091.049.091.116H.12Z" style="fill:#231f20;fill-rule:nonzero" transform="matrix(20 0 0 20 441.073 200)"/><path d="M.295-.035.288-.041a.094.094 0 0 1-.063.025c-.041 0-.064-.033-.064-.092v-.274h.115V-.4H.161v-.129h-.01a.199.199 0 0 1-.034.082.15.15 0 0 1-.081.058v.007h.055v.286c0 .073.031.106.102.106.048 0 .083-.015.102-.045Z" style="fill:#231f20;fill-rule:nonzero" transform="matrix(20 0 0 20 449.173 200)"/><path d="M.117-.258H.39C.39-.348.323-.41.225-.41c-.115 0-.19.082-.19.21 0 .13.075.21.196.21.072 0 .122-.035.151-.103L.373-.097c-.033.05-.075.076-.121.076-.082 0-.138-.077-.138-.19a.36.36 0 0 1 .003-.047ZM.12-.276c.016-.072.056-.116.105-.116.053 0 .091.049.091.116H.12Z" style="fill:#231f20;fill-rule:nonzero" transform="matrix(20 0 0 20 455.133 200)"/><path d="M.295-.035.288-.041a.094.094 0 0 1-.063.025c-.041 0-.064-.033-.064-.092v-.274h.115V-.4H.161v-.129h-.01a.199.199 0 0 1-.034.082.15.15 0 0 1-.081.058v.007h.055v.286c0 .073.031.106.102.106.048 0 .083-.015.102-.045Z" style="fill:#231f20;fill-rule:nonzero" transform="matrix(20 0 0 20 463.233 200)"/><path d="M.335-.33v.162c0 .082-.053.148-.118.148-.044 0-.072-.03-.072-.079V-.4h-.13v.01a.06.06 0 0 1 .06.06v.221c0 .072.045.119.114.119.064 0 .123-.04.146-.1v.03c0 .021.004.049.01.07l.12-.017v-.01C.42-.025.405-.047.405-.11V-.4h-.13v.01a.06.06 0 0 1 .06.06Z" style="fill:#231f20;fill-rule:nonzero" transform="matrix(20 0 0 20 469.193 200)"/><path d="M.091-.29v.22a.06.06 0 0 1-.06.06V0h.19v-.01a.06.06 0 0 1-.06-.06v-.16c0-.082.04-.134.084-.134.031 0 .051.024.051.062l-.001.017c.034-.018.047-.039.047-.066C.342-.384.315-.41.279-.41c-.048 0-.095.04-.118.1v-.11a.287.287 0 0 1-.13.04v.01c.04 0 .06.027.06.08Z" style="fill:#231f20;fill-rule:nonzero" transform="matrix(20 0 0 20 479.033 200)"/><path d="M.054 0h.01c.005-.015.011-.02.019-.02.021 0 .047.03.101.03a.13.13 0 0 0 .13-.128c0-.125-.208-.122-.208-.215 0-.032.031-.059.067-.059.043 0 .082.037.106.102h.01V-.4h-.01c-.005.015-.01.021-.017.021C.243-.379.223-.41.174-.41a.116.116 0 0 0-.117.114c0 .125.209.122.209.217 0 .038-.037.071-.081.071-.054 0-.098-.045-.121-.122h-.01V0Z" style="fill:#231f20;fill-rule:nonzero" transform="matrix(20 0 0 20 491.073 200)"/><path d="M.27-.044c0 .032.026.054.064.054.036 0 .07-.019.085-.049L.411-.045a.063.063 0 0 1-.046.025C.349-.02.34-.031.34-.051v-.243C.34-.368.289-.41.2-.41c-.076 0-.148.033-.148.102 0 .034.024.053.063.053A.08.08 0 0 0 .144-.26a.074.074 0 0 1-.03-.06.07.07 0 0 1 .075-.072c.05 0 .081.036.081.086 0 .128-.238.063-.238.217 0 .055.052.099.118.099.045 0 .095-.03.12-.071v.017ZM.102-.093c0-.087.109-.096.168-.152v.158c-.027.044-.061.07-.098.07-.042 0-.07-.031-.07-.076Z" style="fill:#231f20;fill-rule:nonzero" transform="matrix(20 0 0 20 498.193 200)"/><path d="M.405-.11v-.52a.287.287 0 0 1-.13.04v.01c.04 0 .06.026.06.08v.13a.172.172 0 0 0-.114-.04c-.112 0-.186.088-.186.22 0 .12.061.2.154.2.064 0 .123-.04.146-.1v.03c0 .021.004.049.01.07l.12-.017v-.01C.42-.025.405-.047.405-.11Zm-.07-.238v.18c0 .082-.055.148-.119.148C.15-.02.11-.087.11-.197c0-.119.048-.19.128-.19.037 0 .074.015.097.039Z" style="fill:#231f20;fill-rule:nonzero" transform="matrix(20 0 0 20 506.313 200)"/><path d="M.114-.58a.045.045 0 0 0-.045.045c0 .025.02.045.045.045.025 0 .045-.02.045-.045A.045.045 0 0 0 .114-.58Zm.042.51v-.35a.287.287 0 0 1-.13.04v.01c.033 0 .06.017.06.08v.22a.06.06 0 0 1-.06.06V0h.19v-.01a.06.06 0 0 1-.06-.06Z" style="fill:#231f20;fill-rule:nonzero" transform="matrix(20 0 0 20 516.153 200)"/><path d="M.152-.31v-.11a.287.287 0 0 1-.13.04v.01c.04 0 .06.026.06.08v.41a.06.06 0 0 1-.06.06v.01h.19V.18a.06.06 0 0 1-.06-.06v-.15c.03.026.07.04.114.04.112 0 .186-.088.186-.22 0-.12-.062-.2-.155-.2a.156.156 0 0 0-.145.1Zm0 .258v-.18c0-.082.053-.148.118-.148.066 0 .107.067.107.177 0 .119-.048.19-.128.19a.138.138 0 0 1-.097-.039Z" style="fill:#231f20;fill-rule:nonzero" transform="matrix(20 0 0 20 520.873 200)"/><path d="M.054 0h.01c.005-.015.011-.02.019-.02.021 0 .047.03.101.03a.13.13 0 0 0 .13-.128c0-.125-.208-.122-.208-.215 0-.032.031-.059.067-.059.043 0 .082.037.106.102h.01V-.4h-.01c-.005.015-.01.021-.017.021C.243-.379.223-.41.174-.41a.116.116 0 0 0-.117.114c0 .125.209.122.209.217 0 .038-.037.071-.081.071-.054 0-.098-.045-.121-.122h-.01V0Z" style="fill:#231f20;fill-rule:nonzero" transform="matrix(20 0 0 20 530.613 200)"/><path d="M.225-.392c.046 0 .083.032.083.072 0 .01-.002.019-.007.026a.08.08 0 0 0 .023.005c.024 0 .04-.014.04-.036C.364-.373.303-.41.225-.41c-.115 0-.19.082-.19.21 0 .13.075.21.196.21.072 0 .122-.035.151-.103L.373-.097c-.033.05-.075.076-.121.076-.082 0-.138-.077-.138-.19 0-.105.046-.181.111-.181Z" style="fill:#231f20;fill-rule:nonzero" transform="matrix(20 0 0 20 537.733 200)"/><path d="M.114-.58a.045.045 0 0 0-.045.045c0 .025.02.045.045.045.025 0 .045-.02.045-.045A.045.045 0 0 0 .114-.58Zm.042.51v-.35a.287.287 0 0 1-.13.04v.01c.033 0 .06.017.06.08v.22a.06.06 0 0 1-.06.06V0h.19v-.01a.06.06 0 0 1-.06-.06Z" style="fill:#231f20;fill-rule:nonzero" transform="matrix(20 0 0 20 545.513 200)"/><path d="M.347-.301v.231a.06.06 0 0 1-.06.06V0h.19v-.01a.06.06 0 0 1-.06-.06v-.221C.417-.363.371-.41.302-.41a.156.156 0 0 0-.145.1v-.11a.287.287 0 0 1-.13.04v.01c.04 0 .06.026.06.08v.22a.06.06 0 0 1-.06.06V0h.19v-.01a.06.06 0 0 1-.06-.06v-.162c0-.082.053-.148.118-.148.044 0 .072.03.072.079Z" style="fill:#231f20;fill-rule:nonzero" transform="matrix(20 0 0 20 550.233 200)"/><path d="M.323-.344c.018-.02.037-.029.055-.029.03 0 .053.025.058.063.014-.008.022-.028.022-.048C.458-.39.437-.41.404-.41c-.031 0-.065.02-.091.053A.141.141 0 0 0 .195-.41C.111-.41.05-.354.05-.275c0 .049.025.091.066.115a.103.103 0 0 0-.048.09c0 .038.028.067.078.08C.083.021.038.057.038.101.038.159.11.2.211.2.329.2.401.141.401.045c0-.157-.303-.057-.303-.146 0-.021.017-.042.035-.051a.16.16 0 0 0 .062.012C.28-.14.34-.195.34-.275a.138.138 0 0 0-.017-.069ZM.165.01h.003c.15 0 .201.036.201.074C.369.137.3.182.215.182.145.182.1.148.1.097.1.061.127.025.165.01Zm.03-.402c.049 0 .079.045.079.117 0 .072-.03.116-.079.116S.116-.204.116-.275c0-.072.031-.117.079-.117Z" style="fill:#231f20;fill-rule:nonzero" transform="matrix(20 0 0 20 560.073 200)"/><path d="M.117-.258H.39C.39-.348.323-.41.225-.41c-.115 0-.19.082-.19.21 0 .13.075.21.196.21.072 0 .122-.035.151-.103L.373-.097c-.033.05-.075.076-.121.076-.082 0-.138-.077-.138-.19a.36.36 0 0 1 .003-.047ZM.12-.276c.016-.072.056-.116.105-.116.053 0 .091.049.091.116H.12Z" style="fill:#231f20;fill-rule:nonzero" transform="matrix(20 0 0 20 574.073 200)"/><path d="M.152-.07v-.56a.287.287 0 0 1-.13.04v.01c.04 0 .06.026.06.08v.43a.06.06 0 0 1-.06.06V0h.19v-.01a.06.06 0 0 1-.06-.06Z" style="fill:#231f20;fill-rule:nonzero" transform="matrix(20 0 0 20 582.173 200)"/><path d="M.114-.58a.045.045 0 0 0-.045.045c0 .025.02.045.045.045.025 0 .045-.02.045-.045A.045.045 0 0 0 .114-.58Zm.042.51v-.35a.287.287 0 0 1-.13.04v.01c.033 0 .06.017.06.08v.22a.06.06 0 0 1-.06.06V0h.19v-.01a.06.06 0 0 1-.06-.06Z" style="fill:#231f20;fill-rule:nonzero" transform="matrix(20 0 0 20 586.813 200)"/><path d="M.295-.035.288-.041a.094.094 0 0 1-.063.025c-.041 0-.064-.033-.064-.092v-.274h.115V-.4H.161v-.129h-.01a.199.199 0 0 1-.034.082.15.15 0 0 1-.081.058v.007h.055v.286c0 .073.031.106.102.106.048 0 .083-.015.102-.045Z" style="fill:#231f20;fill-rule:nonzero" transform="matrix(20 0 0 20 591.533 200)"/><path d="M.091-.29v.22a.06.06 0 0 1-.06.06V0h.19v-.01a.06.06 0 0 1-.06-.06v-.16c0-.082.04-.134.084-.134.031 0 .051.024.051.062l-.001.017c.034-.018.047-.039.047-.066C.342-.384.315-.41.279-.41c-.048 0-.095.04-.118.1v-.11a.287.287 0 0 1-.13.04v.01c.04 0 .06.027.06.08Z" style="fill:#231f20;fill-rule:nonzero" transform="matrix(20 0 0 20 597.493 200)"/><path d="M.08.111.085.12A.127.127 0 0 0 .175 0c0-.047-.023-.08-.055-.08a.045.045 0 0 0-.045.045c0 .021.016.028.031.035.013.007.026.014.026.033C.132.057.111.089.08.111Z" style="fill:#231f20;fill-rule:nonzero" transform="matrix(20 0 0 20 604.533 200)"/><path d="M.054 0h.01c.005-.015.011-.02.019-.02.021 0 .047.03.101.03a.13.13 0 0 0 .13-.128c0-.125-.208-.122-.208-.215 0-.032.031-.059.067-.059.043 0 .082.037.106.102h.01V-.4h-.01c-.005.015-.01.021-.017.021C.243-.379.223-.41.174-.41a.116.116 0 0 0-.117.114c0 .125.209.122.209.217 0 .038-.037.071-.081.071-.054 0-.098-.045-.121-.122h-.01V0Z" style="fill:#231f20;fill-rule:nonzero" transform="matrix(20 0 0 20 614.533 200)"/><path d="M.117-.258H.39C.39-.348.323-.41.225-.41c-.115 0-.19.082-.19.21 0 .13.075.21.196.21.072 0 .122-.035.151-.103L.373-.097c-.033.05-.075.076-.121.076-.082 0-.138-.077-.138-.19a.36.36 0 0 1 .003-.047ZM.12-.276c.016-.072.056-.116.105-.116.053 0 .091.049.091.116H.12Z" style="fill:#231f20;fill-rule:nonzero" transform="matrix(20 0 0 20 621.653 200)"/><path d="M.405-.11v-.52a.287.287 0 0 1-.13.04v.01c.04 0 .06.026.06.08v.13a.172.172 0 0 0-.114-.04c-.112 0-.186.088-.186.22 0 .12.061.2.154.2.064 0 .123-.04.146-.1v.03c0 .021.004.049.01.07l.12-.017v-.01C.42-.025.405-.047.405-.11Zm-.07-.238v.18c0 .082-.055.148-.119.148C.15-.02.11-.087.11-.197c0-.119.048-.19.128-.19.037 0 .074.015.097.039Z" style="fill:#231f20;fill-rule:nonzero" transform="matrix(20 0 0 20 629.753 200)"/><path d="M.405-.11v-.52a.287.287 0 0 1-.13.04v.01c.04 0 .06.026.06.08v.13a.172.172 0 0 0-.114-.04c-.112 0-.186.088-.186.22 0 .12.061.2.154.2.064 0 .123-.04.146-.1v.03c0 .021.004.049.01.07l.12-.017v-.01C.42-.025.405-.047.405-.11Zm-.07-.238v.18c0 .082-.055.148-.119.148C.15-.02.11-.087.11-.197c0-.119.048-.19.128-.19.037 0 .074.015.097.039Z" style="fill:#231f20;fill-rule:nonzero" transform="matrix(20 0 0 20 407.333 220)"/><path d="M.114-.58a.045.045 0 0 0-.045.045c0 .025.02.045.045.045.025 0 .045-.02.045-.045A.045.045 0 0 0 .114-.58Zm.042.51v-.35a.287.287 0 0 1-.13.04v.01c.033 0 .06.017.06.08v.22a.06.06 0 0 1-.06.06V0h.19v-.01a.06.06 0 0 1-.06-.06Z" style="fill:#231f20;fill-rule:nonzero" transform="matrix(20 0 0 20 417.173 220)"/><path d="M.27-.044c0 .032.026.054.064.054.036 0 .07-.019.085-.049L.411-.045a.063.063 0 0 1-.046.025C.349-.02.34-.031.34-.051v-.243C.34-.368.289-.41.2-.41c-.076 0-.148.033-.148.102 0 .034.024.053.063.053A.08.08 0 0 0 .144-.26a.074.074 0 0 1-.03-.06.07.07 0 0 1 .075-.072c.05 0 .081.036.081.086 0 .128-.238.063-.238.217 0 .055.052.099.118.099.045 0 .095-.03.12-.071v.017ZM.102-.093c0-.087.109-.096.168-.152v.158c-.027.044-.061.07-.098.07-.042 0-.07-.031-.07-.076Z" style="fill:#231f20;fill-rule:nonzero" transform="matrix(20 0 0 20 421.893 220)"/><path d="M.4-.232c0-.08.054-.148.116-.148.038 0 .057.029.057.079v.231a.06.06 0 0 1-.06.06V0h.19v-.01a.06.06 0 0 1-.06-.06v-.221C.643-.365.605-.41.542-.41a.157.157 0 0 0-.143.102.097.097 0 0 0-.101-.102.156.156 0 0 0-.141.1v-.11a.287.287 0 0 1-.13.04v.01c.04 0 .06.026.06.08v.22a.06.06 0 0 1-.06.06V0h.19v-.01a.06.06 0 0 1-.06-.06v-.162c0-.081.054-.148.116-.148.038 0 .057.029.057.079v.231a.06.06 0 0 1-.06.06V0h.19v-.01A.06.06 0 0 1 .4-.07v-.162Z" style="fill:#231f20;fill-rule:nonzero" transform="matrix(20 0 0 20 430.013 220)"/><path d="M.347-.301v.231a.06.06 0 0 1-.06.06V0h.19v-.01a.06.06 0 0 1-.06-.06v-.221C.417-.363.371-.41.302-.41a.156.156 0 0 0-.145.1v-.11a.287.287 0 0 1-.13.04v.01c.04 0 .06.026.06.08v.22a.06.06 0 0 1-.06.06V0h.19v-.01a.06.06 0 0 1-.06-.06v-.162c0-.082.053-.148.118-.148.044 0 .072.03.072.079Z" style="fill:#231f20;fill-rule:nonzero" transform="matrix(20 0 0 20 449.373 220)"/><path d="M.225-.41c-.114 0-.19.084-.19.21s.076.21.19.21.19-.084.19-.21-.076-.21-.19-.21Zm0 .018c.068 0 .112.075.112.192s-.044.192-.112.192S.113-.083.113-.2s.044-.192.112-.192Z" style="fill:#231f20;fill-rule:nonzero" transform="matrix(20 0 0 20 459.213 220)"/><path d="M.347-.301v.231a.06.06 0 0 1-.06.06V0h.19v-.01a.06.06 0 0 1-.06-.06v-.221C.417-.363.371-.41.302-.41a.156.156 0 0 0-.145.1v-.11a.287.287 0 0 1-.13.04v.01c.04 0 .06.026.06.08v.22a.06.06 0 0 1-.06.06V0h.19v-.01a.06.06 0 0 1-.06-.06v-.162c0-.082.053-.148.118-.148.044 0 .072.03.072.079Z" style="fill:#231f20;fill-rule:nonzero" transform="matrix(20 0 0 20 468.213 220)"/><path d="M.335-.33v.162c0 .082-.053.148-.118.148-.044 0-.072-.03-.072-.079V-.4h-.13v.01a.06.06 0 0 1 .06.06v.221c0 .072.045.119.114.119.064 0 .123-.04.146-.1v.03c0 .021.004.049.01.07l.12-.017v-.01C.42-.025.405-.047.405-.11V-.4h-.13v.01a.06.06 0 0 1 .06.06Z" style="fill:#231f20;fill-rule:nonzero" transform="matrix(20 0 0 20 478.053 220)"/><path d="M.4-.232c0-.08.054-.148.116-.148.038 0 .057.029.057.079v.231a.06.06 0 0 1-.06.06V0h.19v-.01a.06.06 0 0 1-.06-.06v-.221C.643-.365.605-.41.542-.41a.157.157 0 0 0-.143.102.097.097 0 0 0-.101-.102.156.156 0 0 0-.141.1v-.11a.287.287 0 0 1-.13.04v.01c.04 0 .06.026.06.08v.22a.06.06 0 0 1-.06.06V0h.19v-.01a.06.06 0 0 1-.06-.06v-.162c0-.081.054-.148.116-.148.038 0 .057.029.057.079v.231a.06.06 0 0 1-.06.06V0h.19v-.01A.06.06 0 0 1 .4-.07v-.162Z" style="fill:#231f20;fill-rule:nonzero" transform="matrix(20 0 0 20 487.893 220)"/><path d="M.228-.082.126-.33A.074.074 0 0 1 .12-.357c0-.021.014-.033.04-.033V-.4h-.175v.01c.026 0 .051.026.065.06l.114.277c.008.02.013.044.013.068 0 .073-.044.124-.091.124A.069.069 0 0 1 .022.098.087.087 0 0 0 .01.14C.01.177.032.2.066.2.153.2.221-.013.238-.058L.345-.33c.015-.039.034-.06.06-.06V-.4h-.12v.01c.025 0 .046.012.046.037a.074.074 0 0 1-.005.023l-.098.248Z" style="fill:#231f20;fill-rule:nonzero" transform="matrix(20 0 0 20 502.253 220)"/><path d="M.117-.258H.39C.39-.348.323-.41.225-.41c-.115 0-.19.082-.19.21 0 .13.075.21.196.21.072 0 .122-.035.151-.103L.373-.097c-.033.05-.075.076-.121.076-.082 0-.138-.077-.138-.19a.36.36 0 0 1 .003-.047ZM.12-.276c.016-.072.056-.116.105-.116.053 0 .091.049.091.116H.12Z" style="fill:#231f20;fill-rule:nonzero" transform="matrix(20 0 0 20 515.253 220)"/><path d="M.114-.58a.045.045 0 0 0-.045.045c0 .025.02.045.045.045.025 0 .045-.02.045-.045A.045.045 0 0 0 .114-.58Zm.042.51v-.35a.287.287 0 0 1-.13.04v.01c.033 0 .06.017.06.08v.22a.06.06 0 0 1-.06.06V0h.19v-.01a.06.06 0 0 1-.06-.06Z" style="fill:#231f20;fill-rule:nonzero" transform="matrix(20 0 0 20 523.353 220)"/><path d="M.091-.29v.22a.06.06 0 0 1-.06.06V0h.19v-.01a.06.06 0 0 1-.06-.06v-.16c0-.082.04-.134.084-.134.031 0 .051.024.051.062l-.001.017c.034-.018.047-.039.047-.066C.342-.384.315-.41.279-.41c-.048 0-.095.04-.118.1v-.11a.287.287 0 0 1-.13.04v.01c.04 0 .06.027.06.08Z" style="fill:#231f20;fill-rule:nonzero" transform="matrix(20 0 0 20 528.073 220)"/><path d="M.4-.232c0-.08.054-.148.116-.148.038 0 .057.029.057.079v.231a.06.06 0 0 1-.06.06V0h.19v-.01a.06.06 0 0 1-.06-.06v-.221C.643-.365.605-.41.542-.41a.157.157 0 0 0-.143.102.097.097 0 0 0-.101-.102.156.156 0 0 0-.141.1v-.11a.287.287 0 0 1-.13.04v.01c.04 0 .06.026.06.08v.22a.06.06 0 0 1-.06.06V0h.19v-.01a.06.06 0 0 1-.06-.06v-.162c0-.081.054-.148.116-.148.038 0 .057.029.057.079v.231a.06.06 0 0 1-.06.06V0h.19v-.01A.06.06 0 0 1 .4-.07v-.162Z" style="fill:#231f20;fill-rule:nonzero" transform="matrix(20 0 0 20 535.113 220)"/><path d="M.225-.41c-.114 0-.19.084-.19.21s.076.21.19.21.19-.084.19-.21-.076-.21-.19-.21Zm0 .018c.068 0 .112.075.112.192s-.044.192-.112.192S.113-.083.113-.2s.044-.192.112-.192Z" style="fill:#231f20;fill-rule:nonzero" transform="matrix(20 0 0 20 549.473 220)"/><path d="M.405-.11v-.52a.287.287 0 0 1-.13.04v.01c.04 0 .06.026.06.08v.13a.172.172 0 0 0-.114-.04c-.112 0-.186.088-.186.22 0 .12.061.2.154.2.064 0 .123-.04.146-.1v.03c0 .021.004.049.01.07l.12-.017v-.01C.42-.025.405-.047.405-.11Zm-.07-.238v.18c0 .082-.055.148-.119.148C.15-.02.11-.087.11-.197c0-.119.048-.19.128-.19.037 0 .074.015.097.039Z" style="fill:#231f20;fill-rule:nonzero" transform="matrix(20 0 0 20 558.473 220)"/><path d="M.295-.035.288-.041a.094.094 0 0 1-.063.025c-.041 0-.064-.033-.064-.092v-.274h.115V-.4H.161v-.129h-.01a.199.199 0 0 1-.034.082.15.15 0 0 1-.081.058v.007h.055v.286c0 .073.031.106.102.106.048 0 .083-.015.102-.045Z" style="fill:#231f20;fill-rule:nonzero" transform="matrix(20 0 0 20 573.313 220)"/><path d="M.117-.258H.39C.39-.348.323-.41.225-.41c-.115 0-.19.082-.19.21 0 .13.075.21.196.21.072 0 .122-.035.151-.103L.373-.097c-.033.05-.075.076-.121.076-.082 0-.138-.077-.138-.19a.36.36 0 0 1 .003-.047ZM.12-.276c.016-.072.056-.116.105-.116.053 0 .091.049.091.116H.12Z" style="fill:#231f20;fill-rule:nonzero" transform="matrix(20 0 0 20 579.273 220)"/><path d="M.4-.232c0-.08.054-.148.116-.148.038 0 .057.029.057.079v.231a.06.06 0 0 1-.06.06V0h.19v-.01a.06.06 0 0 1-.06-.06v-.221C.643-.365.605-.41.542-.41a.157.157 0 0 0-.143.102.097.097 0 0 0-.101-.102.156.156 0 0 0-.141.1v-.11a.287.287 0 0 1-.13.04v.01c.04 0 .06.026.06.08v.22a.06.06 0 0 1-.06.06V0h.19v-.01a.06.06 0 0 1-.06-.06v-.162c0-.081.054-.148.116-.148.038 0 .057.029.057.079v.231a.06.06 0 0 1-.06.06V0h.19v-.01A.06.06 0 0 1 .4-.07v-.162Z" style="fill:#231f20;fill-rule:nonzero" transform="matrix(20 0 0 20 587.373 220)"/><path d="M.152-.31v-.11a.287.287 0 0 1-.13.04v.01c.04 0 .06.026.06.08v.41a.06.06 0 0 1-.06.06v.01h.19V.18a.06.06 0 0 1-.06-.06v-.15c.03.026.07.04.114.04.112 0 .186-.088.186-.22 0-.12-.062-.2-.155-.2a.156.156 0 0 0-.145.1Zm0 .258v-.18c0-.082.053-.148.118-.148.066 0 .107.067.107.177 0 .119-.048.19-.128.19a.138.138 0 0 1-.097-.039Z" style="fill:#231f20;fill-rule:nonzero" transform="matrix(20 0 0 20 601.733 220)"/><path d="M.225-.41c-.114 0-.19.084-.19.21s.076.21.19.21.19-.084.19-.21-.076-.21-.19-.21Zm0 .018c.068 0 .112.075.112.192s-.044.192-.112.192S.113-.083.113-.2s.044-.192.112-.192Z" style="fill:#231f20;fill-rule:nonzero" transform="matrix(20 0 0 20 611.473 220)"/><path d="M.091-.29v.22a.06.06 0 0 1-.06.06V0h.19v-.01a.06.06 0 0 1-.06-.06v-.16c0-.082.04-.134.084-.134.031 0 .051.024.051.062l-.001.017c.034-.018.047-.039.047-.066C.342-.384.315-.41.279-.41c-.048 0-.095.04-.118.1v-.11a.287.287 0 0 1-.13.04v.01c.04 0 .06.027.06.08Z" style="fill:#231f20;fill-rule:nonzero" transform="matrix(20 0 0 20 620.473 220)"/><path d="M.114-.58a.045.045 0 0 0-.045.045c0 .025.02.045.045.045.025 0 .045-.02.045-.045A.045.045 0 0 0 .114-.58Zm.042.51v-.35a.287.287 0 0 1-.13.04v.01c.033 0 .06.017.06.08v.22a.06.06 0 0 1-.06.06V0h.19v-.01a.06.06 0 0 1-.06-.06Z" style="fill:#231f20;fill-rule:nonzero" transform="matrix(20 0 0 20 407.333 240)"/><path d="M.347-.301v.231a.06.06 0 0 1-.06.06V0h.19v-.01a.06.06 0 0 1-.06-.06v-.221C.417-.363.371-.41.302-.41a.156.156 0 0 0-.145.1v-.11a.287.287 0 0 1-.13.04v.01c.04 0 .06.026.06.08v.22a.06.06 0 0 1-.06.06V0h.19v-.01a.06.06 0 0 1-.06-.06v-.162c0-.082.053-.148.118-.148.044 0 .072.03.072.079Z" style="fill:#231f20;fill-rule:nonzero" transform="matrix(20 0 0 20 412.053 240)"/><path d="M.226-.09.128-.33a.052.052 0 0 1-.004-.021c0-.023.015-.039.041-.039V-.4H-.01v.01c.025 0 .048.026.062.06l.139.34h.01L.34-.33c.014-.033.041-.06.07-.06V-.4H.27v.01c.036 0 .058.016.058.04a.053.053 0 0 1-.005.02l-.097.24Z" style="fill:#231f20;fill-rule:nonzero" transform="matrix(20 0 0 20 421.893 240)"/><path d="M.114-.58a.045.045 0 0 0-.045.045c0 .025.02.045.045.045.025 0 .045-.02.045-.045A.045.045 0 0 0 .114-.58Zm.042.51v-.35a.287.287 0 0 1-.13.04v.01c.033 0 .06.017.06.08v.22a.06.06 0 0 1-.06.06V0h.19v-.01a.06.06 0 0 1-.06-.06Z" style="fill:#231f20;fill-rule:nonzero" transform="matrix(20 0 0 20 429.893 240)"/><path d="M.405-.11v-.52a.287.287 0 0 1-.13.04v.01c.04 0 .06.026.06.08v.13a.172.172 0 0 0-.114-.04c-.112 0-.186.088-.186.22 0 .12.061.2.154.2.064 0 .123-.04.146-.1v.03c0 .021.004.049.01.07l.12-.017v-.01C.42-.025.405-.047.405-.11Zm-.07-.238v.18c0 .082-.055.148-.119.148C.15-.02.11-.087.11-.197c0-.119.048-.19.128-.19.037 0 .074.015.097.039Z" style="fill:#231f20;fill-rule:nonzero" transform="matrix(20 0 0 20 434.613 240)"/><path d="M.335-.33v.162c0 .082-.053.148-.118.148-.044 0-.072-.03-.072-.079V-.4h-.13v.01a.06.06 0 0 1 .06.06v.221c0 .072.045.119.114.119.064 0 .123-.04.146-.1v.03c0 .021.004.049.01.07l.12-.017v-.01C.42-.025.405-.047.405-.11V-.4h-.13v.01a.06.06 0 0 1 .06.06Z" style="fill:#231f20;fill-rule:nonzero" transform="matrix(20 0 0 20 444.453 240)"/><path d="M.347-.301v.231a.06.06 0 0 1-.06.06V0h.19v-.01a.06.06 0 0 1-.06-.06v-.221C.417-.363.371-.41.302-.41a.156.156 0 0 0-.145.1v-.11a.287.287 0 0 1-.13.04v.01c.04 0 .06.026.06.08v.22a.06.06 0 0 1-.06.06V0h.19v-.01a.06.06 0 0 1-.06-.06v-.162c0-.082.053-.148.118-.148.044 0 .072.03.072.079Z" style="fill:#231f20;fill-rule:nonzero" transform="matrix(20 0 0 20 454.293 240)"/><path d="M.295-.035.288-.041a.094.094 0 0 1-.063.025c-.041 0-.064-.033-.064-.092v-.274h.115V-.4H.161v-.129h-.01a.199.199 0 0 1-.034.082.15.15 0 0 1-.081.058v.007h.055v.286c0 .073.031.106.102.106.048 0 .083-.015.102-.045Z" style="fill:#231f20;fill-rule:nonzero" transform="matrix(20 0 0 20 464.133 240)"/><path d="M.335-.33v.162c0 .082-.053.148-.118.148-.044 0-.072-.03-.072-.079V-.4h-.13v.01a.06.06 0 0 1 .06.06v.221c0 .072.045.119.114.119.064 0 .123-.04.146-.1v.03c0 .021.004.049.01.07l.12-.017v-.01C.42-.025.405-.047.405-.11V-.4h-.13v.01a.06.06 0 0 1 .06.06Z" style="fill:#231f20;fill-rule:nonzero" transform="matrix(20 0 0 20 475.093 240)"/><path d="M.295-.035.288-.041a.094.094 0 0 1-.063.025c-.041 0-.064-.033-.064-.092v-.274h.115V-.4H.161v-.129h-.01a.199.199 0 0 1-.034.082.15.15 0 0 1-.081.058v.007h.055v.286c0 .073.031.106.102.106.048 0 .083-.015.102-.045Z" style="fill:#231f20;fill-rule:nonzero" transform="matrix(20 0 0 20 484.933 240)"/><path d="M.152-.07v-.56a.287.287 0 0 1-.13.04v.01c.04 0 .06.026.06.08v.43a.06.06 0 0 1-.06.06V0h.19v-.01a.06.06 0 0 1-.06-.06Z" style="fill:#231f20;fill-rule:nonzero" transform="matrix(20 0 0 20 495.893 240)"/><path d="M.27-.044c0 .032.026.054.064.054.036 0 .07-.019.085-.049L.411-.045a.063.063 0 0 1-.046.025C.349-.02.34-.031.34-.051v-.243C.34-.368.289-.41.2-.41c-.076 0-.148.033-.148.102 0 .034.024.053.063.053A.08.08 0 0 0 .144-.26a.074.074 0 0 1-.03-.06.07.07 0 0 1 .075-.072c.05 0 .081.036.081.086 0 .128-.238.063-.238.217 0 .055.052.099.118.099.045 0 .095-.03.12-.071v.017ZM.102-.093c0-.087.109-.096.168-.152v.158c-.027.044-.061.07-.098.07-.042 0-.07-.031-.07-.076Z" style="fill:#231f20;fill-rule:nonzero" transform="matrix(20 0 0 20 500.533 240)"/><path d="M.073-.5v.51h.01a.097.097 0 0 1 .052-.047c.031.03.074.047.121.047.112 0 .187-.087.187-.218C.443-.331.382-.41.288-.41a.156.156 0 0 0-.145.1v-.32a.287.287 0 0 1-.13.04v.01c.04 0 .06.026.06.08Zm.07.448v-.18c0-.082.053-.148.118-.148.066 0 .107.067.107.177 0 .119-.048.19-.128.19a.138.138 0 0 1-.097-.039Z" style="fill:#231f20;fill-rule:nonzero" transform="matrix(20 0 0 20 508.653 240)"/><path d="M.225-.41c-.114 0-.19.084-.19.21s.076.21.19.21.19-.084.19-.21-.076-.21-.19-.21Zm0 .018c.068 0 .112.075.112.192s-.044.192-.112.192S.113-.083.113-.2s.044-.192.112-.192Z" style="fill:#231f20;fill-rule:nonzero" transform="matrix(20 0 0 20 518.213 240)"/><path d="M.091-.29v.22a.06.06 0 0 1-.06.06V0h.19v-.01a.06.06 0 0 1-.06-.06v-.16c0-.082.04-.134.084-.134.031 0 .051.024.051.062l-.001.017c.034-.018.047-.039.047-.066C.342-.384.315-.41.279-.41c-.048 0-.095.04-.118.1v-.11a.287.287 0 0 1-.13.04v.01c.04 0 .06.027.06.08Z" style="fill:#231f20;fill-rule:nonzero" transform="matrix(20 0 0 20 527.213 240)"/><path d="M.117-.258H.39C.39-.348.323-.41.225-.41c-.115 0-.19.082-.19.21 0 .13.075.21.196.21.072 0 .122-.035.151-.103L.373-.097c-.033.05-.075.076-.121.076-.082 0-.138-.077-.138-.19a.36.36 0 0 1 .003-.047ZM.12-.276c.016-.072.056-.116.105-.116.053 0 .091.049.091.116H.12Z" style="fill:#231f20;fill-rule:nonzero" transform="matrix(20 0 0 20 534.253 240)"/><path d="M.117-.258H.39C.39-.348.323-.41.225-.41c-.115 0-.19.082-.19.21 0 .13.075.21.196.21.072 0 .122-.035.151-.103L.373-.097c-.033.05-.075.076-.121.076-.082 0-.138-.077-.138-.19a.36.36 0 0 1 .003-.047ZM.12-.276c.016-.072.056-.116.105-.116.053 0 .091.049.091.116H.12Z" style="fill:#231f20;fill-rule:nonzero" transform="matrix(20 0 0 20 547.353 240)"/><path d="M.295-.035.288-.041a.094.094 0 0 1-.063.025c-.041 0-.064-.033-.064-.092v-.274h.115V-.4H.161v-.129h-.01a.199.199 0 0 1-.034.082.15.15 0 0 1-.081.058v.007h.055v.286c0 .073.031.106.102.106.048 0 .083-.015.102-.045Z" style="fill:#231f20;fill-rule:nonzero" transform="matrix(20 0 0 20 555.453 240)"/><path d="M.405-.11v-.52a.287.287 0 0 1-.13.04v.01c.04 0 .06.026.06.08v.13a.172.172 0 0 0-.114-.04c-.112 0-.186.088-.186.22 0 .12.061.2.154.2.064 0 .123-.04.146-.1v.03c0 .021.004.049.01.07l.12-.017v-.01C.42-.025.405-.047.405-.11Zm-.07-.238v.18c0 .082-.055.148-.119.148C.15-.02.11-.087.11-.197c0-.119.048-.19.128-.19.037 0 .074.015.097.039Z" style="fill:#231f20;fill-rule:nonzero" transform="matrix(20 0 0 20 566.413 240)"/><path d="M.225-.41c-.114 0-.19.084-.19.21s.076.21.19.21.19-.084.19-.21-.076-.21-.19-.21Zm0 .018c.068 0 .112.075.112.192s-.044.192-.112.192S.113-.083.113-.2s.044-.192.112-.192Z" style="fill:#231f20;fill-rule:nonzero" transform="matrix(20 0 0 20 576.253 240)"/><path d="M.152-.07v-.56a.287.287 0 0 1-.13.04v.01c.04 0 .06.026.06.08v.43a.06.06 0 0 1-.06.06V0h.19v-.01a.06.06 0 0 1-.06-.06Z" style="fill:#231f20;fill-rule:nonzero" transform="matrix(20 0 0 20 585.253 240)"/><path d="M.225-.41c-.114 0-.19.084-.19.21s.076.21.19.21.19-.084.19-.21-.076-.21-.19-.21Zm0 .018c.068 0 .112.075.112.192s-.044.192-.112.192S.113-.083.113-.2s.044-.192.112-.192Z" style="fill:#231f20;fill-rule:nonzero" transform="matrix(20 0 0 20 589.893 240)"/><path d="M.091-.29v.22a.06.06 0 0 1-.06.06V0h.19v-.01a.06.06 0 0 1-.06-.06v-.16c0-.082.04-.134.084-.134.031 0 .051.024.051.062l-.001.017c.034-.018.047-.039.047-.066C.342-.384.315-.41.279-.41c-.048 0-.095.04-.118.1v-.11a.287.287 0 0 1-.13.04v.01c.04 0 .06.027.06.08Z" style="fill:#231f20;fill-rule:nonzero" transform="matrix(20 0 0 20 598.893 240)"/><path d="M.117-.258H.39C.39-.348.323-.41.225-.41c-.115 0-.19.082-.19.21 0 .13.075.21.196.21.072 0 .122-.035.151-.103L.373-.097c-.033.05-.075.076-.121.076-.082 0-.138-.077-.138-.19a.36.36 0 0 1 .003-.047ZM.12-.276c.016-.072.056-.116.105-.116.053 0 .091.049.091.116H.12Z" style="fill:#231f20;fill-rule:nonzero" transform="matrix(20 0 0 20 605.933 240)"/><path d="M.4-.232c0-.08.054-.148.116-.148.038 0 .057.029.057.079v.231a.06.06 0 0 1-.06.06V0h.19v-.01a.06.06 0 0 1-.06-.06v-.221C.643-.365.605-.41.542-.41a.157.157 0 0 0-.143.102.097.097 0 0 0-.101-.102.156.156 0 0 0-.141.1v-.11a.287.287 0 0 1-.13.04v.01c.04 0 .06.026.06.08v.22a.06.06 0 0 1-.06.06V0h.19v-.01a.06.06 0 0 1-.06-.06v-.162c0-.081.054-.148.116-.148.038 0 .057.029.057.079v.231a.06.06 0 0 1-.06.06V0h.19v-.01A.06.06 0 0 1 .4-.07v-.162Z" style="fill:#231f20;fill-rule:nonzero" transform="matrix(20 0 0 20 619.033 240)"/><path d="M.27-.044c0 .032.026.054.064.054.036 0 .07-.019.085-.049L.411-.045a.063.063 0 0 1-.046.025C.349-.02.34-.031.34-.051v-.243C.34-.368.289-.41.2-.41c-.076 0-.148.033-.148.102 0 .034.024.053.063.053A.08.08 0 0 0 .144-.26a.074.074 0 0 1-.03-.06.07.07 0 0 1 .075-.072c.05 0 .081.036.081.086 0 .128-.238.063-.238.217 0 .055.052.099.118.099.045 0 .095-.03.12-.071v.017ZM.102-.093c0-.087.109-.096.168-.152v.158c-.027.044-.061.07-.098.07-.042 0-.07-.031-.07-.076Z" style="fill:#231f20;fill-rule:nonzero" transform="matrix(20 0 0 20 633.393 240)"/><path d="M.323-.344c.018-.02.037-.029.055-.029.03 0 .053.025.058.063.014-.008.022-.028.022-.048C.458-.39.437-.41.404-.41c-.031 0-.065.02-.091.053A.141.141 0 0 0 .195-.41C.111-.41.05-.354.05-.275c0 .049.025.091.066.115a.103.103 0 0 0-.048.09c0 .038.028.067.078.08C.083.021.038.057.038.101.038.159.11.2.211.2.329.2.401.141.401.045c0-.157-.303-.057-.303-.146 0-.021.017-.042.035-.051a.16.16 0 0 0 .062.012C.28-.14.34-.195.34-.275a.138.138 0 0 0-.017-.069ZM.165.01h.003c.15 0 .201.036.201.074C.369.137.3.182.215.182.145.182.1.148.1.097.1.061.127.025.165.01Zm.03-.402c.049 0 .079.045.079.117 0 .072-.03.116-.079.116S.116-.204.116-.275c0-.072.031-.117.079-.117Z" style="fill:#231f20;fill-rule:nonzero" transform="matrix(20 0 0 20 641.513 240)"/><path d="M.347-.301v.231a.06.06 0 0 1-.06.06V0h.19v-.01a.06.06 0 0 1-.06-.06v-.221C.417-.363.371-.41.302-.41a.156.156 0 0 0-.145.1v-.11a.287.287 0 0 1-.13.04v.01c.04 0 .06.026.06.08v.22a.06.06 0 0 1-.06.06V0h.19v-.01a.06.06 0 0 1-.06-.06v-.162c0-.082.053-.148.118-.148.044 0 .072.03.072.079Z" style="fill:#231f20;fill-rule:nonzero" transform="matrix(20 0 0 20 650.513 240)"/><path d="M.27-.044c0 .032.026.054.064.054.036 0 .07-.019.085-.049L.411-.045a.063.063 0 0 1-.046.025C.349-.02.34-.031.34-.051v-.243C.34-.368.289-.41.2-.41c-.076 0-.148.033-.148.102 0 .034.024.053.063.053A.08.08 0 0 0 .144-.26a.074.074 0 0 1-.03-.06.07.07 0 0 1 .075-.072c.05 0 .081.036.081.086 0 .128-.238.063-.238.217 0 .055.052.099.118.099.045 0 .095-.03.12-.071v.017ZM.102-.093c0-.087.109-.096.168-.152v.158c-.027.044-.061.07-.098.07-.042 0-.07-.031-.07-.076Z" style="fill:#231f20;fill-rule:nonzero" transform="matrix(20 0 0 20 660.353 240)"/><path d="M.27-.044c0 .032.026.054.064.054.036 0 .07-.019.085-.049L.411-.045a.063.063 0 0 1-.046.025C.349-.02.34-.031.34-.051v-.243C.34-.368.289-.41.2-.41c-.076 0-.148.033-.148.102 0 .034.024.053.063.053A.08.08 0 0 0 .144-.26a.074.074 0 0 1-.03-.06.07.07 0 0 1 .075-.072c.05 0 .081.036.081.086 0 .128-.238.063-.238.217 0 .055.052.099.118.099.045 0 .095-.03.12-.071v.017ZM.102-.093c0-.087.109-.096.168-.152v.158c-.027.044-.061.07-.098.07-.042 0-.07-.031-.07-.076Z" style="fill:#231f20;fill-rule:nonzero" transform="matrix(20 0 0 20 407.333 260)"/><path d="M.152-.07v-.56a.287.287 0 0 1-.13.04v.01c.04 0 .06.026.06.08v.43a.06.06 0 0 1-.06.06V0h.19v-.01a.06.06 0 0 1-.06-.06Z" style="fill:#231f20;fill-rule:nonzero" transform="matrix(20 0 0 20 415.453 260)"/><path d="M.114-.58a.045.045 0 0 0-.045.045c0 .025.02.045.045.045.025 0 .045-.02.045-.045A.045.045 0 0 0 .114-.58Zm.042.51v-.35a.287.287 0 0 1-.13.04v.01c.033 0 .06.017.06.08v.22a.06.06 0 0 1-.06.06V0h.19v-.01a.06.06 0 0 1-.06-.06Z" style="fill:#231f20;fill-rule:nonzero" transform="matrix(20 0 0 20 420.093 260)"/><path d="M.405.12v-.53h-.01a.097.097 0 0 1-.052.047.173.173 0 0 0-.121-.047c-.112 0-.187.086-.187.218 0 .123.061.202.155.202.064 0 .122-.04.145-.1v.21a.06.06 0 0 1-.06.06v.01h.19V.18a.06.06 0 0 1-.06-.06Zm-.07-.468v.18c0 .082-.053.148-.118.148C.151-.02.11-.087.11-.197c0-.119.048-.19.128-.19.037 0 .074.015.097.039Z" style="fill:#231f20;fill-rule:nonzero" transform="matrix(20 0 0 20 424.813 260)"/><path d="M.335-.33v.162c0 .082-.053.148-.118.148-.044 0-.072-.03-.072-.079V-.4h-.13v.01a.06.06 0 0 1 .06.06v.221c0 .072.045.119.114.119.064 0 .123-.04.146-.1v.03c0 .021.004.049.01.07l.12-.017v-.01C.42-.025.405-.047.405-.11V-.4h-.13v.01a.06.06 0 0 1 .06.06Z" style="fill:#231f20;fill-rule:nonzero" transform="matrix(20 0 0 20 434.313 260)"/><path d="M.228-.082.126-.33A.074.074 0 0 1 .12-.357c0-.021.014-.033.04-.033V-.4h-.175v.01c.026 0 .051.026.065.06l.114.277c.008.02.013.044.013.068 0 .073-.044.124-.091.124A.069.069 0 0 1 .022.098.087.087 0 0 0 .01.14C.01.177.032.2.066.2.153.2.221-.013.238-.058L.345-.33c.015-.039.034-.06.06-.06V-.4h-.12v.01c.025 0 .046.012.046.037a.074.074 0 0 1-.005.023l-.098.248Z" style="fill:#231f20;fill-rule:nonzero" transform="matrix(20 0 0 20 444.153 260)"/><path d="M.27-.044c0 .032.026.054.064.054.036 0 .07-.019.085-.049L.411-.045a.063.063 0 0 1-.046.025C.349-.02.34-.031.34-.051v-.243C.34-.368.289-.41.2-.41c-.076 0-.148.033-.148.102 0 .034.024.053.063.053A.08.08 0 0 0 .144-.26a.074.074 0 0 1-.03-.06.07.07 0 0 1 .075-.072c.05 0 .081.036.081.086 0 .128-.238.063-.238.217 0 .055.052.099.118.099.045 0 .095-.03.12-.071v.017ZM.102-.093c0-.087.109-.096.168-.152v.158c-.027.044-.061.07-.098.07-.042 0-.07-.031-.07-.076Z" style="fill:#231f20;fill-rule:nonzero" transform="matrix(20 0 0 20 452.153 260)"/><path d="M.4-.232c0-.08.054-.148.116-.148.038 0 .057.029.057.079v.231a.06.06 0 0 1-.06.06V0h.19v-.01a.06.06 0 0 1-.06-.06v-.221C.643-.365.605-.41.542-.41a.157.157 0 0 0-.143.102.097.097 0 0 0-.101-.102.156.156 0 0 0-.141.1v-.11a.287.287 0 0 1-.13.04v.01c.04 0 .06.026.06.08v.22a.06.06 0 0 1-.06.06V0h.19v-.01a.06.06 0 0 1-.06-.06v-.162c0-.081.054-.148.116-.148.038 0 .057.029.057.079v.231a.06.06 0 0 1-.06.06V0h.19v-.01A.06.06 0 0 1 .4-.07v-.162Z" style="fill:#231f20;fill-rule:nonzero" transform="matrix(20 0 0 20 460.273 260)"/><path d="M.117-.258H.39C.39-.348.323-.41.225-.41c-.115 0-.19.082-.19.21 0 .13.075.21.196.21.072 0 .122-.035.151-.103L.373-.097c-.033.05-.075.076-.121.076-.082 0-.138-.077-.138-.19a.36.36 0 0 1 .003-.047ZM.12-.276c.016-.072.056-.116.105-.116.053 0 .091.049.091.116H.12Z" style="fill:#231f20;fill-rule:nonzero" transform="matrix(20 0 0 20 479.633 260)"/><path d="M.091-.29v.22a.06.06 0 0 1-.06.06V0h.19v-.01a.06.06 0 0 1-.06-.06v-.16c0-.082.04-.134.084-.134.031 0 .051.024.051.062l-.001.017c.034-.018.047-.039.047-.066C.342-.384.315-.41.279-.41c-.048 0-.095.04-.118.1v-.11a.287.287 0 0 1-.13.04v.01c.04 0 .06.027.06.08Z" style="fill:#231f20;fill-rule:nonzero" transform="matrix(20 0 0 20 487.733 260)"/><path d="M.27-.044c0 .032.026.054.064.054.036 0 .07-.019.085-.049L.411-.045a.063.063 0 0 1-.046.025C.349-.02.34-.031.34-.051v-.243C.34-.368.289-.41.2-.41c-.076 0-.148.033-.148.102 0 .034.024.053.063.053A.08.08 0 0 0 .144-.26a.074.074 0 0 1-.03-.06.07.07 0 0 1 .075-.072c.05 0 .081.036.081.086 0 .128-.238.063-.238.217 0 .055.052.099.118.099.045 0 .095-.03.12-.071v.017ZM.102-.093c0-.087.109-.096.168-.152v.158c-.027.044-.061.07-.098.07-.042 0-.07-.031-.07-.076Z" style="fill:#231f20;fill-rule:nonzero" transform="matrix(20 0 0 20 494.773 260)"/><path d="M.295-.035.288-.041a.094.094 0 0 1-.063.025c-.041 0-.064-.033-.064-.092v-.274h.115V-.4H.161v-.129h-.01a.199.199 0 0 1-.034.082.15.15 0 0 1-.081.058v.007h.055v.286c0 .073.031.106.102.106.048 0 .083-.015.102-.045Z" style="fill:#231f20;fill-rule:nonzero" transform="matrix(20 0 0 20 502.893 260)"/><path d="M.08.111.085.12A.127.127 0 0 0 .175 0c0-.047-.023-.08-.055-.08a.045.045 0 0 0-.045.045c0 .021.016.028.031.035.013.007.026.014.026.033C.132.057.111.089.08.111Z" style="fill:#231f20;fill-rule:nonzero" transform="matrix(20 0 0 20 508.853 260)"/><path d="M.054 0h.01c.005-.015.011-.02.019-.02.021 0 .047.03.101.03a.13.13 0 0 0 .13-.128c0-.125-.208-.122-.208-.215 0-.032.031-.059.067-.059.043 0 .082.037.106.102h.01V-.4h-.01c-.005.015-.01.021-.017.021C.243-.379.223-.41.174-.41a.116.116 0 0 0-.117.114c0 .125.209.122.209.217 0 .038-.037.071-.081.071-.054 0-.098-.045-.121-.122h-.01V0Z" style="fill:#231f20;fill-rule:nonzero" transform="matrix(20 0 0 20 518.853 260)"/><path d="M.117-.258H.39C.39-.348.323-.41.225-.41c-.115 0-.19.082-.19.21 0 .13.075.21.196.21.072 0 .122-.035.151-.103L.373-.097c-.033.05-.075.076-.121.076-.082 0-.138-.077-.138-.19a.36.36 0 0 1 .003-.047ZM.12-.276c.016-.072.056-.116.105-.116.053 0 .091.049.091.116H.12Z" style="fill:#231f20;fill-rule:nonzero" transform="matrix(20 0 0 20 525.973 260)"/><path d="M.405-.11v-.52a.287.287 0 0 1-.13.04v.01c.04 0 .06.026.06.08v.13a.172.172 0 0 0-.114-.04c-.112 0-.186.088-.186.22 0 .12.061.2.154.2.064 0 .123-.04.146-.1v.03c0 .021.004.049.01.07l.12-.017v-.01C.42-.025.405-.047.405-.11Zm-.07-.238v.18c0 .082-.055.148-.119.148C.15-.02.11-.087.11-.197c0-.119.048-.19.128-.19.037 0 .074.015.097.039Z" style="fill:#231f20;fill-rule:nonzero" transform="matrix(20 0 0 20 534.073 260)"/><path d="M.405-.11v-.52a.287.287 0 0 1-.13.04v.01c.04 0 .06.026.06.08v.13a.172.172 0 0 0-.114-.04c-.112 0-.186.088-.186.22 0 .12.061.2.154.2.064 0 .123-.04.146-.1v.03c0 .021.004.049.01.07l.12-.017v-.01C.42-.025.405-.047.405-.11Zm-.07-.238v.18c0 .082-.055.148-.119.148C.15-.02.11-.087.11-.197c0-.119.048-.19.128-.19.037 0 .074.015.097.039Z" style="fill:#231f20;fill-rule:nonzero" transform="matrix(20 0 0 20 548.913 260)"/><path d="M.114-.58a.045.045 0 0 0-.045.045c0 .025.02.045.045.045.025 0 .045-.02.045-.045A.045.045 0 0 0 .114-.58Zm.042.51v-.35a.287.287 0 0 1-.13.04v.01c.033 0 .06.017.06.08v.22a.06.06 0 0 1-.06.06V0h.19v-.01a.06.06 0 0 1-.06-.06Z" style="fill:#231f20;fill-rule:nonzero" transform="matrix(20 0 0 20 558.753 260)"/><path d="M.27-.044c0 .032.026.054.064.054.036 0 .07-.019.085-.049L.411-.045a.063.063 0 0 1-.046.025C.349-.02.34-.031.34-.051v-.243C.34-.368.289-.41.2-.41c-.076 0-.148.033-.148.102 0 .034.024.053.063.053A.08.08 0 0 0 .144-.26a.074.074 0 0 1-.03-.06.07.07 0 0 1 .075-.072c.05 0 .081.036.081.086 0 .128-.238.063-.238.217 0 .055.052.099.118.099.045 0 .095-.03.12-.071v.017ZM.102-.093c0-.087.109-.096.168-.152v.158c-.027.044-.061.07-.098.07-.042 0-.07-.031-.07-.076Z" style="fill:#231f20;fill-rule:nonzero" transform="matrix(20 0 0 20 563.473 260)"/><path d="M.4-.232c0-.08.054-.148.116-.148.038 0 .057.029.057.079v.231a.06.06 0 0 1-.06.06V0h.19v-.01a.06.06 0 0 1-.06-.06v-.221C.643-.365.605-.41.542-.41a.157.157 0 0 0-.143.102.097.097 0 0 0-.101-.102.156.156 0 0 0-.141.1v-.11a.287.287 0 0 1-.13.04v.01c.04 0 .06.026.06.08v.22a.06.06 0 0 1-.06.06V0h.19v-.01a.06.06 0 0 1-.06-.06v-.162c0-.081.054-.148.116-.148.038 0 .057.029.057.079v.231a.06.06 0 0 1-.06.06V0h.19v-.01A.06.06 0 0 1 .4-.07v-.162Z" style="fill:#231f20;fill-rule:nonzero" transform="matrix(20 0 0 20 571.593 260)"/><path d="M.226-.09.128-.33a.052.052 0 0 1-.004-.021c0-.023.015-.039.041-.039V-.4H-.01v.01c.025 0 .048.026.062.06l.139.34h.01L.34-.33c.014-.033.041-.06.07-.06V-.4H.27v.01c.036 0 .058.016.058.04a.053.053 0 0 1-.005.02l-.097.24Z" style="fill:#231f20;fill-rule:nonzero" transform="matrix(20 0 0 20 590.953 260)"/><path d="M.225-.41c-.114 0-.19.084-.19.21s.076.21.19.21.19-.084.19-.21-.076-.21-.19-.21Zm0 .018c.068 0 .112.075.112.192s-.044.192-.112.192S.113-.083.113-.2s.044-.192.112-.192Z" style="fill:#231f20;fill-rule:nonzero" transform="matrix(20 0 0 20 598.953 260)"/><path d="M.152-.07v-.56a.287.287 0 0 1-.13.04v.01c.04 0 .06.026.06.08v.43a.06.06 0 0 1-.06.06V0h.19v-.01a.06.06 0 0 1-.06-.06Z" style="fill:#231f20;fill-rule:nonzero" transform="matrix(20 0 0 20 607.953 260)"/><path d="M.335-.33v.162c0 .082-.053.148-.118.148-.044 0-.072-.03-.072-.079V-.4h-.13v.01a.06.06 0 0 1 .06.06v.221c0 .072.045.119.114.119.064 0 .123-.04.146-.1v.03c0 .021.004.049.01.07l.12-.017v-.01C.42-.025.405-.047.405-.11V-.4h-.13v.01a.06.06 0 0 1 .06.06Z" style="fill:#231f20;fill-rule:nonzero" transform="matrix(20 0 0 20 612.593 260)"/><path d="M.152-.31v-.11a.287.287 0 0 1-.13.04v.01c.04 0 .06.026.06.08v.41a.06.06 0 0 1-.06.06v.01h.19V.18a.06.06 0 0 1-.06-.06v-.15c.03.026.07.04.114.04.112 0 .186-.088.186-.22 0-.12-.062-.2-.155-.2a.156.156 0 0 0-.145.1Zm0 .258v-.18c0-.082.053-.148.118-.148.066 0 .107.067.107.177 0 .119-.048.19-.128.19a.138.138 0 0 1-.097-.039Z" style="fill:#231f20;fill-rule:nonzero" transform="matrix(20 0 0 20 622.433 260)"/><path d="M.295-.035.288-.041a.094.094 0 0 1-.063.025c-.041 0-.064-.033-.064-.092v-.274h.115V-.4H.161v-.129h-.01a.199.199 0 0 1-.034.082.15.15 0 0 1-.081.058v.007h.055v.286c0 .073.031.106.102.106.048 0 .083-.015.102-.045Z" style="fill:#231f20;fill-rule:nonzero" transform="matrix(20 0 0 20 632.173 260)"/><path d="M.335-.33v.162c0 .082-.053.148-.118.148-.044 0-.072-.03-.072-.079V-.4h-.13v.01a.06.06 0 0 1 .06.06v.221c0 .072.045.119.114.119.064 0 .123-.04.146-.1v.03c0 .021.004.049.01.07l.12-.017v-.01C.42-.025.405-.047.405-.11V-.4h-.13v.01a.06.06 0 0 1 .06.06Z" style="fill:#231f20;fill-rule:nonzero" transform="matrix(20 0 0 20 638.133 260)"/><path d="M.27-.044c0 .032.026.054.064.054.036 0 .07-.019.085-.049L.411-.045a.063.063 0 0 1-.046.025C.349-.02.34-.031.34-.051v-.243C.34-.368.289-.41.2-.41c-.076 0-.148.033-.148.102 0 .034.024.053.063.053A.08.08 0 0 0 .144-.26a.074.074 0 0 1-.03-.06.07.07 0 0 1 .075-.072c.05 0 .081.036.081.086 0 .128-.238.063-.238.217 0 .055.052.099.118.099.045 0 .095-.03.12-.071v.017ZM.102-.093c0-.087.109-.096.168-.152v.158c-.027.044-.061.07-.098.07-.042 0-.07-.031-.07-.076Z" style="fill:#231f20;fill-rule:nonzero" transform="matrix(20 0 0 20 647.973 260)"/><path d="M.125-.08a.045.045 0 0 0-.045.045C.08-.01.1.01.125.01.15.01.17-.01.17-.035A.045.045 0 0 0 .125-.08Z" style="fill:#231f20;fill-rule:nonzero" transform="matrix(20 0 0 20 656.093 260)"/><path d="M.144-.227h.209l.065.157a.048.048 0 0 1 .004.02c0 .023-.02.04-.055.04V0H.57v-.01C.539-.01.518-.031.502-.07L.285-.6h-.01l-.219.53C.04-.031.02-.01-.01-.01V0h.143v-.01C.096-.01.075-.028.075-.053c0-.005.001-.011.004-.017l.065-.157Zm.008-.021.097-.234.096.234H.152Z" style="fill:#231f20;fill-rule:nonzero" transform="matrix(20 0 0 20 407.333 300)"/><path d="M.295-.035.288-.041a.094.094 0 0 1-.063.025c-.041 0-.064-.033-.064-.092v-.274h.115V-.4H.161v-.129h-.01a.199.199 0 0 1-.034.082.15.15 0 0 1-.081.058v.007h.055v.286c0 .073.031.106.102.106.048 0 .083-.015.102-.045Z" style="fill:#231f20;fill-rule:nonzero" transform="matrix(20 0 0 20 418.333 300)"/><path d="M.226-.09.128-.33a.052.052 0 0 1-.004-.021c0-.023.015-.039.041-.039V-.4H-.01v.01c.025 0 .048.026.062.06l.139.34h.01L.34-.33c.014-.033.041-.06.07-.06V-.4H.27v.01c.036 0 .058.016.058.04a.053.053 0 0 1-.005.02l-.097.24Z" style="fill:#231f20;fill-rule:nonzero" transform="matrix(20 0 0 20 429.293 300)"/><path d="M.117-.258H.39C.39-.348.323-.41.225-.41c-.115 0-.19.082-.19.21 0 .13.075.21.196.21.072 0 .122-.035.151-.103L.373-.097c-.033.05-.075.076-.121.076-.082 0-.138-.077-.138-.19a.36.36 0 0 1 .003-.047ZM.12-.276c.016-.072.056-.116.105-.116.053 0 .091.049.091.116H.12Z" style="fill:#231f20;fill-rule:nonzero" transform="matrix(20 0 0 20 437.293 300)"/><path d="M.091-.29v.22a.06.06 0 0 1-.06.06V0h.19v-.01a.06.06 0 0 1-.06-.06v-.16c0-.082.04-.134.084-.134.031 0 .051.024.051.062l-.001.017c.034-.018.047-.039.047-.066C.342-.384.315-.41.279-.41c-.048 0-.095.04-.118.1v-.11a.287.287 0 0 1-.13.04v.01c.04 0 .06.027.06.08Z" style="fill:#231f20;fill-rule:nonzero" transform="matrix(20 0 0 20 445.393 300)"/><path d="M.225-.41c-.114 0-.19.084-.19.21s.076.21.19.21.19-.084.19-.21-.076-.21-.19-.21Zm0 .018c.068 0 .112.075.112.192s-.044.192-.112.192S.113-.083.113-.2s.044-.192.112-.192Z" style="fill:#231f20;fill-rule:nonzero" transform="matrix(20 0 0 20 452.433 300)"/><path d="M.117-.258H.39C.39-.348.323-.41.225-.41c-.115 0-.19.082-.19.21 0 .13.075.21.196.21.072 0 .122-.035.151-.103L.373-.097c-.033.05-.075.076-.121.076-.082 0-.138-.077-.138-.19a.36.36 0 0 1 .003-.047ZM.12-.276c.016-.072.056-.116.105-.116.053 0 .091.049.091.116H.12Z" style="fill:#231f20;fill-rule:nonzero" transform="matrix(20 0 0 20 466.433 300)"/><path d="M.225-.41c-.114 0-.19.084-.19.21s.076.21.19.21.19-.084.19-.21-.076-.21-.19-.21Zm0 .018c.068 0 .112.075.112.192s-.044.192-.112.192S.113-.083.113-.2s.044-.192.112-.192Z" style="fill:#231f20;fill-rule:nonzero" transform="matrix(20 0 0 20 474.533 300)"/><path d="M.054 0h.01c.005-.015.011-.02.019-.02.021 0 .047.03.101.03a.13.13 0 0 0 .13-.128c0-.125-.208-.122-.208-.215 0-.032.031-.059.067-.059.043 0 .082.037.106.102h.01V-.4h-.01c-.005.015-.01.021-.017.021C.243-.379.223-.41.174-.41a.116.116 0 0 0-.117.114c0 .125.209.122.209.217 0 .038-.037.071-.081.071-.054 0-.098-.045-.121-.122h-.01V0Z" style="fill:#231f20;fill-rule:nonzero" transform="matrix(20 0 0 20 483.533 300)"/><path d="M.117-.258H.39C.39-.348.323-.41.225-.41c-.115 0-.19.082-.19.21 0 .13.075.21.196.21.072 0 .122-.035.151-.103L.373-.097c-.033.05-.075.076-.121.076-.082 0-.138-.077-.138-.19a.36.36 0 0 1 .003-.047ZM.12-.276c.016-.072.056-.116.105-.116.053 0 .091.049.091.116H.12Z" style="fill:#231f20;fill-rule:nonzero" transform="matrix(20 0 0 20 495.653 300)"/><path d="M.295-.035.288-.041a.094.094 0 0 1-.063.025c-.041 0-.064-.033-.064-.092v-.274h.115V-.4H.161v-.129h-.01a.199.199 0 0 1-.034.082.15.15 0 0 1-.081.058v.007h.055v.286c0 .073.031.106.102.106.048 0 .083-.015.102-.045Z" style="fill:#231f20;fill-rule:nonzero" transform="matrix(20 0 0 20 503.753 300)"/><path d="M.27-.044c0 .032.026.054.064.054.036 0 .07-.019.085-.049L.411-.045a.063.063 0 0 1-.046.025C.349-.02.34-.031.34-.051v-.243C.34-.368.289-.41.2-.41c-.076 0-.148.033-.148.102 0 .034.024.053.063.053A.08.08 0 0 0 .144-.26a.074.074 0 0 1-.03-.06.07.07 0 0 1 .075-.072c.05 0 .081.036.081.086 0 .128-.238.063-.238.217 0 .055.052.099.118.099.045 0 .095-.03.12-.071v.017ZM.102-.093c0-.087.109-.096.168-.152v.158c-.027.044-.061.07-.098.07-.042 0-.07-.031-.07-.076Z" style="fill:#231f20;fill-rule:nonzero" transform="matrix(20 0 0 20 514.713 300)"/><path d="M.225-.392c.046 0 .083.032.083.072 0 .01-.002.019-.007.026a.08.08 0 0 0 .023.005c.024 0 .04-.014.04-.036C.364-.373.303-.41.225-.41c-.115 0-.19.082-.19.21 0 .13.075.21.196.21.072 0 .122-.035.151-.103L.373-.097c-.033.05-.075.076-.121.076-.082 0-.138-.077-.138-.19 0-.105.046-.181.111-.181Z" style="fill:#231f20;fill-rule:nonzero" transform="matrix(20 0 0 20 522.833 300)"/><path d="M.225-.392c.046 0 .083.032.083.072 0 .01-.002.019-.007.026a.08.08 0 0 0 .023.005c.024 0 .04-.014.04-.036C.364-.373.303-.41.225-.41c-.115 0-.19.082-.19.21 0 .13.075.21.196.21.072 0 .122-.035.151-.103L.373-.097c-.033.05-.075.076-.121.076-.082 0-.138-.077-.138-.19 0-.105.046-.181.111-.181Z" style="fill:#231f20;fill-rule:nonzero" transform="matrix(20 0 0 20 530.613 300)"/><path d="M.335-.33v.162c0 .082-.053.148-.118.148-.044 0-.072-.03-.072-.079V-.4h-.13v.01a.06.06 0 0 1 .06.06v.221c0 .072.045.119.114.119.064 0 .123-.04.146-.1v.03c0 .021.004.049.01.07l.12-.017v-.01C.42-.025.405-.047.405-.11V-.4h-.13v.01a.06.06 0 0 1 .06.06Z" style="fill:#231f20;fill-rule:nonzero" transform="matrix(20 0 0 20 538.393 300)"/><path d="M.054 0h.01c.005-.015.011-.02.019-.02.021 0 .047.03.101.03a.13.13 0 0 0 .13-.128c0-.125-.208-.122-.208-.215 0-.032.031-.059.067-.059.043 0 .082.037.106.102h.01V-.4h-.01c-.005.015-.01.021-.017.021C.243-.379.223-.41.174-.41a.116.116 0 0 0-.117.114c0 .125.209.122.209.217 0 .038-.037.071-.081.071-.054 0-.098-.045-.121-.122h-.01V0Z" style="fill:#231f20;fill-rule:nonzero" transform="matrix(20 0 0 20 548.233 300)"/><path d="M.27-.044c0 .032.026.054.064.054.036 0 .07-.019.085-.049L.411-.045a.063.063 0 0 1-.046.025C.349-.02.34-.031.34-.051v-.243C.34-.368.289-.41.2-.41c-.076 0-.148.033-.148.102 0 .034.024.053.063.053A.08.08 0 0 0 .144-.26a.074.074 0 0 1-.03-.06.07.07 0 0 1 .075-.072c.05 0 .081.036.081.086 0 .128-.238.063-.238.217 0 .055.052.099.118.099.045 0 .095-.03.12-.071v.017ZM.102-.093c0-.087.109-.096.168-.152v.158c-.027.044-.061.07-.098.07-.042 0-.07-.031-.07-.076Z" style="fill:#231f20;fill-rule:nonzero" transform="matrix(20 0 0 20 555.353 300)"/><path d="M.4-.232c0-.08.054-.148.116-.148.038 0 .057.029.057.079v.231a.06.06 0 0 1-.06.06V0h.19v-.01a.06.06 0 0 1-.06-.06v-.221C.643-.365.605-.41.542-.41a.157.157 0 0 0-.143.102.097.097 0 0 0-.101-.102.156.156 0 0 0-.141.1v-.11a.287.287 0 0 1-.13.04v.01c.04 0 .06.026.06.08v.22a.06.06 0 0 1-.06.06V0h.19v-.01a.06.06 0 0 1-.06-.06v-.162c0-.081.054-.148.116-.148.038 0 .057.029.057.079v.231a.06.06 0 0 1-.06.06V0h.19v-.01A.06.06 0 0 1 .4-.07v-.162Z" style="fill:#231f20;fill-rule:nonzero" transform="matrix(20 0 0 20 563.473 300)"/><path d="M.117-.258H.39C.39-.348.323-.41.225-.41c-.115 0-.19.082-.19.21 0 .13.075.21.196.21.072 0 .122-.035.151-.103L.373-.097c-.033.05-.075.076-.121.076-.082 0-.138-.077-.138-.19a.36.36 0 0 1 .003-.047ZM.12-.276c.016-.072.056-.116.105-.116.053 0 .091.049.091.116H.12Z" style="fill:#231f20;fill-rule:nonzero" transform="matrix(20 0 0 20 582.833 300)"/><path d="M.295-.035.288-.041a.094.094 0 0 1-.063.025c-.041 0-.064-.033-.064-.092v-.274h.115V-.4H.161v-.129h-.01a.199.199 0 0 1-.034.082.15.15 0 0 1-.081.058v.007h.055v.286c0 .073.031.106.102.106.048 0 .083-.015.102-.045Z" style="fill:#231f20;fill-rule:nonzero" transform="matrix(20 0 0 20 590.933 300)"/><path d="M.109-.58a.045.045 0 0 0-.045.045c0 .025.02.045.045.045.025 0 .045-.02.045-.045A.045.045 0 0 0 .109-.58Zm-.028.6c0 .093-.03.146-.097.171L-.014.2C.087.2.151.122.151 0v-.42a.287.287 0 0 1-.13.04v.01c.04 0 .06.026.06.08v.31Z" style="fill:#231f20;fill-rule:nonzero" transform="matrix(20 0 0 20 601.893 300)"/><path d="M.335-.33v.162c0 .082-.053.148-.118.148-.044 0-.072-.03-.072-.079V-.4h-.13v.01a.06.06 0 0 1 .06.06v.221c0 .072.045.119.114.119.064 0 .123-.04.146-.1v.03c0 .021.004.049.01.07l.12-.017v-.01C.42-.025.405-.047.405-.11V-.4h-.13v.01a.06.06 0 0 1 .06.06Z" style="fill:#231f20;fill-rule:nonzero" transform="matrix(20 0 0 20 606.213 300)"/><path d="M.054 0h.01c.005-.015.011-.02.019-.02.021 0 .047.03.101.03a.13.13 0 0 0 .13-.128c0-.125-.208-.122-.208-.215 0-.032.031-.059.067-.059.043 0 .082.037.106.102h.01V-.4h-.01c-.005.015-.01.021-.017.021C.243-.379.223-.41.174-.41a.116.116 0 0 0-.117.114c0 .125.209.122.209.217 0 .038-.037.071-.081.071-.054 0-.098-.045-.121-.122h-.01V0Z" style="fill:#231f20;fill-rule:nonzero" transform="matrix(20 0 0 20 616.053 300)"/><path d="M.295-.035.288-.041a.094.094 0 0 1-.063.025c-.041 0-.064-.033-.064-.092v-.274h.115V-.4H.161v-.129h-.01a.199.199 0 0 1-.034.082.15.15 0 0 1-.081.058v.007h.055v.286c0 .073.031.106.102.106.048 0 .083-.015.102-.045Z" style="fill:#231f20;fill-rule:nonzero" transform="matrix(20 0 0 20 623.173 300)"/><path d="M.225-.41c-.114 0-.19.084-.19.21s.076.21.19.21.19-.084.19-.21-.076-.21-.19-.21Zm0 .018c.068 0 .112.075.112.192s-.044.192-.112.192S.113-.083.113-.2s.044-.192.112-.192Z" style="fill:#231f20;fill-rule:nonzero" transform="matrix(20 0 0 20 629.133 300)"/><path d="M.405-.11v-.52a.287.287 0 0 1-.13.04v.01c.04 0 .06.026.06.08v.13a.172.172 0 0 0-.114-.04c-.112 0-.186.088-.186.22 0 .12.061.2.154.2.064 0 .123-.04.146-.1v.03c0 .021.004.049.01.07l.12-.017v-.01C.42-.025.405-.047.405-.11Zm-.07-.238v.18c0 .082-.055.148-.119.148C.15-.02.11-.087.11-.197c0-.119.048-.19.128-.19.037 0 .074.015.097.039Z" style="fill:#231f20;fill-rule:nonzero" transform="matrix(20 0 0 20 643.133 300)"/><path d="M.335-.33v.162c0 .082-.053.148-.118.148-.044 0-.072-.03-.072-.079V-.4h-.13v.01a.06.06 0 0 1 .06.06v.221c0 .072.045.119.114.119.064 0 .123-.04.146-.1v.03c0 .021.004.049.01.07l.12-.017v-.01C.42-.025.405-.047.405-.11V-.4h-.13v.01a.06.06 0 0 1 .06.06Z" style="fill:#231f20;fill-rule:nonzero" transform="matrix(20 0 0 20 652.973 300)"/><path d="M.225-.41c-.114 0-.19.084-.19.21s.076.21.19.21.19-.084.19-.21-.076-.21-.19-.21Zm0 .018c.068 0 .112.075.112.192s-.044.192-.112.192S.113-.083.113-.2s.044-.192.112-.192Z" style="fill:#231f20;fill-rule:nonzero" transform="matrix(20 0 0 20 662.813 300)"/><path d="M.405-.11v-.52a.287.287 0 0 1-.13.04v.01c.04 0 .06.026.06.08v.13a.172.172 0 0 0-.114-.04c-.112 0-.186.088-.186.22 0 .12.061.2.154.2.064 0 .123-.04.146-.1v.03c0 .021.004.049.01.07l.12-.017v-.01C.42-.025.405-.047.405-.11Zm-.07-.238v.18c0 .082-.055.148-.119.148C.15-.02.11-.087.11-.197c0-.119.048-.19.128-.19.037 0 .074.015.097.039Z" style="fill:#231f20;fill-rule:nonzero" transform="matrix(20 0 0 20 407.333 320)"/><path d="M.225-.41c-.114 0-.19.084-.19.21s.076.21.19.21.19-.084.19-.21-.076-.21-.19-.21Zm0 .018c.068 0 .112.075.112.192s-.044.192-.112.192S.113-.083.113-.2s.044-.192.112-.192Z" style="fill:#231f20;fill-rule:nonzero" transform="matrix(20 0 0 20 417.173 320)"/><path d="M.152-.07v-.56a.287.287 0 0 1-.13.04v.01c.04 0 .06.026.06.08v.43a.06.06 0 0 1-.06.06V0h.19v-.01a.06.06 0 0 1-.06-.06Z" style="fill:#231f20;fill-rule:nonzero" transform="matrix(20 0 0 20 426.173 320)"/><path d="M.225-.41c-.114 0-.19.084-.19.21s.076.21.19.21.19-.084.19-.21-.076-.21-.19-.21Zm0 .018c.068 0 .112.075.112.192s-.044.192-.112.192S.113-.083.113-.2s.044-.192.112-.192Z" style="fill:#231f20;fill-rule:nonzero" transform="matrix(20 0 0 20 430.813 320)"/><path d="M.091-.29v.22a.06.06 0 0 1-.06.06V0h.19v-.01a.06.06 0 0 1-.06-.06v-.16c0-.082.04-.134.084-.134.031 0 .051.024.051.062l-.001.017c.034-.018.047-.039.047-.066C.342-.384.315-.41.279-.41c-.048 0-.095.04-.118.1v-.11a.287.287 0 0 1-.13.04v.01c.04 0 .06.027.06.08Z" style="fill:#231f20;fill-rule:nonzero" transform="matrix(20 0 0 20 439.813 320)"/><path d="M.117-.258H.39C.39-.348.323-.41.225-.41c-.115 0-.19.082-.19.21 0 .13.075.21.196.21.072 0 .122-.035.151-.103L.373-.097c-.033.05-.075.076-.121.076-.082 0-.138-.077-.138-.19a.36.36 0 0 1 .003-.047ZM.12-.276c.016-.072.056-.116.105-.116.053 0 .091.049.091.116H.12Z" style="fill:#231f20;fill-rule:nonzero" transform="matrix(20 0 0 20 446.853 320)"/><path d="M.054 0h.01c.005-.015.011-.02.019-.02.021 0 .047.03.101.03a.13.13 0 0 0 .13-.128c0-.125-.208-.122-.208-.215 0-.032.031-.059.067-.059.043 0 .082.037.106.102h.01V-.4h-.01c-.005.015-.01.021-.017.021C.243-.379.223-.41.174-.41a.116.116 0 0 0-.117.114c0 .125.209.122.209.217 0 .038-.037.071-.081.071-.054 0-.098-.045-.121-.122h-.01V0Z" style="fill:#231f20;fill-rule:nonzero" transform="matrix(20 0 0 20 454.953 320)"/><path d="M.117-.258H.39C.39-.348.323-.41.225-.41c-.115 0-.19.082-.19.21 0 .13.075.21.196.21.072 0 .122-.035.151-.103L.373-.097c-.033.05-.075.076-.121.076-.082 0-.138-.077-.138-.19a.36.36 0 0 1 .003-.047ZM.12-.276c.016-.072.056-.116.105-.116.053 0 .091.049.091.116H.12Z" style="fill:#231f20;fill-rule:nonzero" transform="matrix(20 0 0 20 467.073 320)"/><path d="M.295-.035.288-.041a.094.094 0 0 1-.063.025c-.041 0-.064-.033-.064-.092v-.274h.115V-.4H.161v-.129h-.01a.199.199 0 0 1-.034.082.15.15 0 0 1-.081.058v.007h.055v.286c0 .073.031.106.102.106.048 0 .083-.015.102-.045Z" style="fill:#231f20;fill-rule:nonzero" transform="matrix(20 0 0 20 475.173 320)"/><path d="M.117-.258H.39C.39-.348.323-.41.225-.41c-.115 0-.19.082-.19.21 0 .13.075.21.196.21.072 0 .122-.035.151-.103L.373-.097c-.033.05-.075.076-.121.076-.082 0-.138-.077-.138-.19a.36.36 0 0 1 .003-.047ZM.12-.276c.016-.072.056-.116.105-.116.053 0 .091.049.091.116H.12Z" style="fill:#231f20;fill-rule:nonzero" transform="matrix(20 0 0 20 486.133 320)"/><path d="M.27-.044c0 .032.026.054.064.054.036 0 .07-.019.085-.049L.411-.045a.063.063 0 0 1-.046.025C.349-.02.34-.031.34-.051v-.243C.34-.368.289-.41.2-.41c-.076 0-.148.033-.148.102 0 .034.024.053.063.053A.08.08 0 0 0 .144-.26a.074.074 0 0 1-.03-.06.07.07 0 0 1 .075-.072c.05 0 .081.036.081.086 0 .128-.238.063-.238.217 0 .055.052.099.118.099.045 0 .095-.03.12-.071v.017ZM.102-.093c0-.087.109-.096.168-.152v.158c-.027.044-.061.07-.098.07-.042 0-.07-.031-.07-.076Z" style="fill:#231f20;fill-rule:nonzero" transform="matrix(20 0 0 20 494.233 320)"/><path d="M.091-.29v.22a.06.06 0 0 1-.06.06V0h.19v-.01a.06.06 0 0 1-.06-.06v-.16c0-.082.04-.134.084-.134.031 0 .051.024.051.062l-.001.017c.034-.018.047-.039.047-.066C.342-.384.315-.41.279-.41c-.048 0-.095.04-.118.1v-.11a.287.287 0 0 1-.13.04v.01c.04 0 .06.027.06.08Z" style="fill:#231f20;fill-rule:nonzero" transform="matrix(20 0 0 20 507.353 320)"/><path d="M.117-.258H.39C.39-.348.323-.41.225-.41c-.115 0-.19.082-.19.21 0 .13.075.21.196.21.072 0 .122-.035.151-.103L.373-.097c-.033.05-.075.076-.121.076-.082 0-.138-.077-.138-.19a.36.36 0 0 1 .003-.047ZM.12-.276c.016-.072.056-.116.105-.116.053 0 .091.049.091.116H.12Z" style="fill:#231f20;fill-rule:nonzero" transform="matrix(20 0 0 20 514.393 320)"/><path d="M.073-.5v.51h.01a.097.097 0 0 1 .052-.047c.031.03.074.047.121.047.112 0 .187-.087.187-.218C.443-.331.382-.41.288-.41a.156.156 0 0 0-.145.1v-.32a.287.287 0 0 1-.13.04v.01c.04 0 .06.026.06.08Zm.07.448v-.18c0-.082.053-.148.118-.148.066 0 .107.067.107.177 0 .119-.048.19-.128.19a.138.138 0 0 1-.097-.039Z" style="fill:#231f20;fill-rule:nonzero" transform="matrix(20 0 0 20 522.493 320)"/><path d="M.335-.33v.162c0 .082-.053.148-.118.148-.044 0-.072-.03-.072-.079V-.4h-.13v.01a.06.06 0 0 1 .06.06v.221c0 .072.045.119.114.119.064 0 .123-.04.146-.1v.03c0 .021.004.049.01.07l.12-.017v-.01C.42-.025.405-.047.405-.11V-.4h-.13v.01a.06.06 0 0 1 .06.06Z" style="fill:#231f20;fill-rule:nonzero" transform="matrix(20 0 0 20 532.053 320)"/><path d="M.4-.232c0-.08.054-.148.116-.148.038 0 .057.029.057.079v.231a.06.06 0 0 1-.06.06V0h.19v-.01a.06.06 0 0 1-.06-.06v-.221C.643-.365.605-.41.542-.41a.157.157 0 0 0-.143.102.097.097 0 0 0-.101-.102.156.156 0 0 0-.141.1v-.11a.287.287 0 0 1-.13.04v.01c.04 0 .06.026.06.08v.22a.06.06 0 0 1-.06.06V0h.19v-.01a.06.06 0 0 1-.06-.06v-.162c0-.081.054-.148.116-.148.038 0 .057.029.057.079v.231a.06.06 0 0 1-.06.06V0h.19v-.01A.06.06 0 0 1 .4-.07v-.162Z" style="fill:#231f20;fill-rule:nonzero" transform="matrix(20 0 0 20 541.893 320)"/><path d="M.125-.08a.045.045 0 0 0-.045.045C.08-.01.1.01.125.01.15.01.17-.01.17-.035A.045.045 0 0 0 .125-.08Z" style="fill:#231f20;fill-rule:nonzero" transform="matrix(20 0 0 20 556.253 320)"/><path d="M562.969 380.084c-.552 0-1.038-.096-1.458-.288-.42-.192-.75-.46-.99-.804a2.111 2.111 0 0 1-.384-1.152h.888c.04.408.22.766.54 1.074.32.308.788.462 1.404.462.568 0 1.018-.146 1.35-.438.332-.292.498-.662.498-1.11 0-.36-.092-.65-.276-.87a1.69 1.69 0 0 0-.684-.492 10.612 10.612 0 0 0-1.128-.354 9.862 9.862 0 0 1-1.332-.444 2.12 2.12 0 0 1-.84-.672c-.232-.304-.348-.716-.348-1.236 0-.432.112-.818.336-1.158.224-.34.54-.606.948-.798.408-.192.876-.288 1.404-.288.776 0 1.402.19 1.878.57.476.38.75.87.822 1.47h-.912c-.056-.344-.244-.65-.564-.918-.32-.268-.752-.402-1.296-.402-.504 0-.924.134-1.26.402-.336.268-.504.634-.504 1.098 0 .352.092.636.276.852.184.216.414.38.69.492.276.112.65.232 1.122.36.544.152.984.302 1.32.45.336.148.62.374.852.678.232.304.348.712.348 1.224 0 .392-.104.764-.312 1.116a2.277 2.277 0 0 1-.924.852c-.408.216-.896.324-1.464.324Zm-34.656 0c-.552 0-1.038-.096-1.458-.288-.42-.192-.75-.46-.99-.804a2.111 2.111 0 0 1-.384-1.152h.888c.04.408.22.766.54 1.074.32.308.788.462 1.404.462.568 0 1.018-.146 1.35-.438.332-.292.498-.662.498-1.11 0-.36-.092-.65-.276-.87a1.69 1.69 0 0 0-.684-.492 10.612 10.612 0 0 0-1.128-.354 9.862 9.862 0 0 1-1.332-.444 2.12 2.12 0 0 1-.84-.672c-.232-.304-.348-.716-.348-1.236 0-.432.112-.818.336-1.158.224-.34.54-.606.948-.798.408-.192.876-.288 1.404-.288.776 0 1.402.19 1.878.57.476.38.75.87.822 1.47h-.912c-.056-.344-.244-.65-.564-.918-.32-.268-.752-.402-1.296-.402-.504 0-.924.134-1.26.402-.336.268-.504.634-.504 1.098 0 .352.092.636.276.852.184.216.414.38.69.492.276.112.65.232 1.122.36.544.152.984.302 1.32.45.336.148.62.374.852.678.232.304.348.712.348 1.224 0 .392-.104.764-.312 1.116a2.277 2.277 0 0 1-.924.852c-.408.216-.896.324-1.464.324Zm38.592-4.284c0-.824.18-1.562.54-2.214a3.92 3.92 0 0 1 1.476-1.524 4.067 4.067 0 0 1 2.088-.546c.936 0 1.738.222 2.406.666.668.444 1.154 1.07 1.458 1.878h-.984a2.886 2.886 0 0 0-1.098-1.332c-.492-.32-1.086-.48-1.782-.48-.616 0-1.17.144-1.662.432a3 3 0 0 0-1.158 1.242c-.28.54-.42 1.166-.42 1.878s.14 1.336.42 1.872c.28.536.666.948 1.158 1.236a3.228 3.228 0 0 0 1.662.432c.696 0 1.29-.158 1.782-.474a2.86 2.86 0 0 0 1.098-1.314h.984c-.304.8-.792 1.42-1.464 1.86-.672.44-1.472.66-2.4.66a4.067 4.067 0 0 1-2.088-.546 3.931 3.931 0 0 1-1.476-1.518c-.36-.648-.54-1.384-.54-2.208Zm-89.796-4.236c.808 0 1.526.18 2.154.54.628.36 1.116.86 1.464 1.5.348.64.522 1.372.522 2.196 0 .824-.174 1.558-.522 2.202a3.763 3.763 0 0 1-1.464 1.506c-.628.36-1.346.54-2.154.54-.808 0-1.526-.18-2.154-.54a3.763 3.763 0 0 1-1.464-1.506c-.348-.644-.522-1.378-.522-2.202 0-.824.174-1.556.522-2.196.348-.64.836-1.14 1.464-1.5.628-.36 1.346-.54 2.154-.54Zm35.388.552h-4.392v3.072c.2-.28.492-.51.876-.69.384-.18.8-.27 1.248-.27.656 0 1.192.134 1.608.402.416.268.716.616.9 1.044.184.428.276.886.276 1.374 0 .56-.106 1.066-.318 1.518-.212.452-.536.81-.972 1.074-.436.264-.978.396-1.626.396-.824 0-1.492-.214-2.004-.642-.512-.428-.824-1.006-.936-1.734h.828c.104.528.344.936.72 1.224.376.288.84.432 1.392.432.696 0 1.222-.206 1.578-.618.356-.412.534-.958.534-1.638 0-.664-.18-1.182-.54-1.554-.36-.372-.876-.558-1.548-.558-.464 0-.872.108-1.224.324a1.967 1.967 0 0 0-.78.876h-.792v-4.764h5.172v.732Zm-19.68 3.504c0-1.376.212-2.444.636-3.204.424-.76 1.184-1.14 2.28-1.14 1.096 0 1.856.38 2.28 1.14.424.76.636 1.828.636 3.204 0 1.4-.212 2.484-.636 3.252-.424.768-1.184 1.152-2.28 1.152-1.104 0-1.866-.384-2.286-1.152-.42-.768-.63-1.852-.63-3.252Zm29.988 2.388h-3.816l-.732 1.992h-.888l3.06-8.28h.948l3.048 8.28h-.888l-.732-1.992Zm59.964-6.396V380h-.84v-3.924h-4.548V380h-.84v-8.388h.84v3.768h4.548v-3.768h.84Zm-45.228 0v.696h-2.328V380h-.84v-7.692h-2.34v-.696h5.508Zm9.216 0V380h-.84v-8.388h.84Zm52.512.684v3.132h3.18v.696h-3.18v3.18h3.54V380h-4.38v-8.4h4.38v.696h-3.54Zm-2.22-.684v.696h-3.696v3.132h3.12v.696h-3.12V380h-.84v-8.388h4.536ZM543.337 380l-2.076-3.504h-1.548V380h-.84v-8.388h2.52c.936 0 1.646.224 2.13.672.484.448.726 1.036.726 1.764 0 .608-.174 1.126-.522 1.554-.348.428-.862.706-1.542.834l2.16 3.564h-1.008Zm65.592 0-2.076-3.504h-1.548V380h-.84v-8.388h2.52c.936 0 1.646.224 2.13.672.484.448.726 1.036.726 1.764 0 .608-.174 1.126-.522 1.554-.348.428-.862.706-1.542.834l2.16 3.564h-1.008Zm-57.78-8.388c.928 0 1.724.168 2.388.504.664.336 1.172.82 1.524 1.452.352.632.528 1.384.528 2.256 0 .864-.176 1.61-.528 2.238a3.493 3.493 0 0 1-1.524 1.44c-.664.332-1.46.498-2.388.498h-2.484v-8.388h2.484Zm38.4 6.396h-3.816l-.732 1.992h-.888l3.06-8.28h.948l3.048 8.28h-.888l-.732-1.992Zm-103.764 1.332c1.472-1.104 2.61-2.094 3.414-2.97.804-.876 1.206-1.734 1.206-2.574 0-.552-.138-.994-.414-1.326-.276-.332-.726-.498-1.35-.498-.608 0-1.078.19-1.41.57-.332.38-.518.886-.558 1.518h-.816c.048-.888.322-1.578.822-2.07.5-.492 1.154-.738 1.962-.738.776 0 1.404.218 1.884.654.48.436.72 1.054.72 1.854 0 .968-.402 1.906-1.206 2.814-.804.908-1.794 1.794-2.97 2.658h4.44v.708h-5.724v-.6Zm14.256 0c1.472-1.104 2.61-2.094 3.414-2.97.804-.876 1.206-1.734 1.206-2.574 0-.552-.138-.994-.414-1.326-.276-.332-.726-.498-1.35-.498-.608 0-1.078.19-1.41.57-.332.38-.518.886-.558 1.518h-.816c.048-.888.322-1.578.822-2.07.5-.492 1.154-.738 1.962-.738.776 0 1.404.218 1.884.654.48.436.72 1.054.72 1.854 0 .968-.402 1.906-1.206 2.814-.804.908-1.794 1.794-2.97 2.658h4.44v.708h-5.724v-.6Zm-22.932-7.38c-.752 0-1.406.162-1.962.486a3.32 3.32 0 0 0-1.29 1.356c-.304.58-.456 1.246-.456 1.998s.152 1.418.456 1.998c.304.58.736 1.032 1.296 1.356.56.324 1.212.486 1.956.486s1.396-.162 1.956-.486c.56-.324.992-.776 1.296-1.356.304-.58.456-1.246.456-1.998s-.152-1.418-.456-1.998a3.32 3.32 0 0 0-1.29-1.356c-.556-.324-1.21-.486-1.962-.486Zm74.04 7.344c1.168 0 2.058-.306 2.67-.918.612-.612.918-1.466.918-2.562 0-1.104-.306-1.966-.918-2.586-.612-.62-1.502-.93-2.67-.93h-1.644v6.996h1.644Zm-53.328-3.684c0-.744-.052-1.372-.156-1.884-.104-.512-.308-.924-.612-1.236-.304-.312-.744-.468-1.32-.468-.576 0-1.016.156-1.32.468-.304.312-.508.724-.612 1.236-.104.512-.156 1.14-.156 1.884 0 .768.052 1.41.156 1.926.104.516.308.93.612 1.242.304.312.744.468 1.32.468.576 0 1.016-.156 1.32-.468.304-.312.508-.726.612-1.242.104-.516.156-1.158.156-1.926Zm-20.712-2.628c-.48 0-.916.112-1.308.336a2.437 2.437 0 0 0-.936.972c-.232.424-.348.92-.348 1.488 0 .576.116 1.076.348 1.5.232.424.544.748.936.972a2.59 2.59 0 0 0 1.308.336c.592 0 1.11-.162 1.554-.486.444-.324.742-.762.894-1.314h-.78c-.128.384-.336.676-.624.876-.288.2-.636.3-1.044.3-.528 0-.966-.19-1.314-.57-.348-.38-.522-.914-.522-1.602 0-.688.174-1.224.522-1.608a1.698 1.698 0 0 1 1.314-.576c.392 0 .738.102 1.038.306.3.204.51.498.63.882h.78c-.152-.576-.448-1.022-.888-1.338-.44-.316-.96-.474-1.56-.474Zm45.444 4.32-1.656-4.536-1.656 4.536h3.312Zm66.744 0-1.656-4.536-1.656 4.536h3.312Zm-49.584-1.5h1.692c.656 0 1.15-.16 1.482-.48.332-.32.498-.748.498-1.284 0-.552-.16-.978-.48-1.278-.32-.3-.824-.45-1.512-.45h-1.68v3.492Zm65.592 0h1.692c.656 0 1.15-.16 1.482-.48.332-.32.498-.748.498-1.284 0-.552-.16-.978-.48-1.278-.32-.3-.824-.45-1.512-.45h-1.68v3.492Zm-18.576-5.016a.532.532 0 0 1-.39-.162.532.532 0 0 1-.162-.39c0-.152.054-.282.162-.39a.532.532 0 0 1 .39-.162c.152 0 .282.054.39.162a.532.532 0 0 1 .162.39.532.532 0 0 1-.162.39.532.532 0 0 1-.39.162Zm1.848 0a.532.532 0 0 1-.39-.162.532.532 0 0 1-.162-.39c0-.152.054-.282.162-.39a.532.532 0 0 1 .39-.162c.152 0 .28.054.384.162a.542.542 0 0 1 .156.39.542.542 0 0 1-.156.39.512.512 0 0 1-.384.162Z" style="fill:#231f20"/><path d="M1612 3113C846 2877 295 2168 295 1321.33h104c0 971 792 1771 1771 1771s1771-800 1771-1770.83h104c0 847-551 1556-1317 1791.67h946v70.833H2389c-119 14-239 16-358 7-27-2-54-4-80-7.491H666v-71" style="fill:#575767" transform="matrix(.01095 0 0 .01095 405.504 343.626)"/><path d="M392.021 377.392a1.918 1.918 0 0 1 0 3.833 1.918 1.918 0 0 1 0-3.833Zm-36.144 0a1.918 1.918 0 0 1 0 3.833 1.917 1.917 0 0 1 0-3.833Z" style="fill:#c83154" transform="translate(55.333 -1.225)"/><path d="M167 1041.67h333v333H167v-333Zm3667 0h333v333h-333v-333ZM2001 2958.34h333v333h-333v-333Z" style="fill:#fff" transform="matrix(.01095 0 0 .01095 405.504 343.626)"/><path d="M.598-.295C.598-.499.461-.6.321-.6s-.277.101-.277.305S.181.01.321.01s.277-.101.277-.305Zm-.086 0c0 .192-.093.284-.191.284S.13-.103.13-.295c0-.192.093-.284.191-.284s.191.092.191.284Z" style="fill:#231f20;fill-rule:nonzero" transform="matrix(76.5 0 0 76.5 20 80)"/><path d="M.073-.5v.51h.01a.097.097 0 0 1 .052-.047c.031.03.074.047.121.047.112 0 .187-.087.187-.218C.443-.331.382-.41.288-.41a.156.156 0 0 0-.145.1v-.32a.287.287 0 0 1-.13.04v.01c.04 0 .06.026.06.08Zm.07.448v-.18c0-.082.053-.148.118-.148.066 0 .107.067.107.177 0 .119-.048.19-.128.19a.138.138 0 0 1-.097-.039Z" style="fill:#231f20;fill-rule:nonzero" transform="matrix(76.5 0 0 76.5 68.119 80)"/><path d="M.152-.07v-.56a.287.287 0 0 1-.13.04v.01c.04 0 .06.026.06.08v.43a.06.06 0 0 1-.06.06V0h.19v-.01a.06.06 0 0 1-.06-.06Z" style="fill:#231f20;fill-rule:nonzero" transform="matrix(76.5 0 0 76.5 104.685 80)"/><path d="M.27-.044c0 .032.026.054.064.054.036 0 .07-.019.085-.049L.411-.045a.063.063 0 0 1-.046.025C.349-.02.34-.031.34-.051v-.243C.34-.368.289-.41.2-.41c-.076 0-.148.033-.148.102 0 .034.024.053.063.053A.08.08 0 0 0 .144-.26a.074.074 0 0 1-.03-.06.07.07 0 0 1 .075-.072c.05 0 .081.036.081.086 0 .128-.238.063-.238.217 0 .055.052.099.118.099.045 0 .095-.03.12-.071v.017ZM.102-.093c0-.087.109-.096.168-.152v.158c-.027.044-.061.07-.098.07-.042 0-.07-.031-.07-.076Z" style="fill:#231f20;fill-rule:nonzero" transform="matrix(76.5 0 0 76.5 122.433 80)"/><path d="M.295-.035.288-.041a.094.094 0 0 1-.063.025c-.041 0-.064-.033-.064-.092v-.274h.115V-.4H.161v-.129h-.01a.199.199 0 0 1-.034.082.15.15 0 0 1-.081.058v.007h.055v.286c0 .073.031.106.102.106.048 0 .083-.015.102-.045Z" style="fill:#231f20;fill-rule:nonzero" transform="matrix(76.5 0 0 76.5 153.492 80)"/><path d="M.27-.044c0 .032.026.054.064.054.036 0 .07-.019.085-.049L.411-.045a.063.063 0 0 1-.046.025C.349-.02.34-.031.34-.051v-.243C.34-.368.289-.41.2-.41c-.076 0-.148.033-.148.102 0 .034.024.053.063.053A.08.08 0 0 0 .144-.26a.074.074 0 0 1-.03-.06.07.07 0 0 1 .075-.072c.05 0 .081.036.081.086 0 .128-.238.063-.238.217 0 .055.052.099.118.099.045 0 .095-.03.12-.071v.017ZM.102-.093c0-.087.109-.096.168-.152v.158c-.027.044-.061.07-.098.07-.042 0-.07-.031-.07-.076Z" style="fill:#231f20;fill-rule:nonzero" transform="matrix(76.5 0 0 76.5 176.29 80)"/><path d="M.033-.59v.01c.043 0 .07.023.07.06v.45c0 .037-.027.06-.07.06V0h.264c.169 0 .287-.121.287-.295S.466-.59.297-.59H.033Zm.463.296c0 .165-.078.273-.198.273H.251c-.043 0-.07-.023-.07-.06v-.488h.117c.119 0 .198.11.198.275Z" style="fill:#231f20;fill-rule:nonzero" transform="matrix(76.5 0 0 76.5 226.473 80)"/><path d="M.114-.58a.045.045 0 0 0-.045.045c0 .025.02.045.045.045.025 0 .045-.02.045-.045A.045.045 0 0 0 .114-.58Zm.042.51v-.35a.287.287 0 0 1-.13.04v.01c.033 0 .06.017.06.08v.22a.06.06 0 0 1-.06.06V0h.19v-.01a.06.06 0 0 1-.06-.06Z" style="fill:#231f20;fill-rule:nonzero" transform="matrix(76.5 0 0 76.5 274.515 80)"/><path d="M.054 0h.01c.005-.015.011-.02.019-.02.021 0 .047.03.101.03a.13.13 0 0 0 .13-.128c0-.125-.208-.122-.208-.215 0-.032.031-.059.067-.059.043 0 .082.037.106.102h.01V-.4h-.01c-.005.015-.01.021-.017.021C.243-.379.223-.41.174-.41a.116.116 0 0 0-.117.114c0 .125.209.122.209.217 0 .038-.037.071-.081.071-.054 0-.098-.045-.121-.122h-.01V0Z" style="fill:#231f20;fill-rule:nonzero" transform="matrix(76.5 0 0 76.5 292.57 80)"/><path d="M.152-.31v-.11a.287.287 0 0 1-.13.04v.01c.04 0 .06.026.06.08v.41a.06.06 0 0 1-.06.06v.01h.19V.18a.06.06 0 0 1-.06-.06v-.15c.03.026.07.04.114.04.112 0 .186-.088.186-.22 0-.12-.062-.2-.155-.2a.156.156 0 0 0-.145.1Zm0 .258v-.18c0-.082.053-.148.118-.148.066 0 .107.067.107.177 0 .119-.048.19-.128.19a.138.138 0 0 1-.097-.039Z" style="fill:#231f20;fill-rule:nonzero" transform="matrix(76.5 0 0 76.5 319.803 80)"/><path d="M.152-.07v-.56a.287.287 0 0 1-.13.04v.01c.04 0 .06.026.06.08v.43a.06.06 0 0 1-.06.06V0h.19v-.01a.06.06 0 0 1-.06-.06Z" style="fill:#231f20;fill-rule:nonzero" transform="matrix(76.5 0 0 76.5 357.06 80)"/><path d="M.27-.044c0 .032.026.054.064.054.036 0 .07-.019.085-.049L.411-.045a.063.063 0 0 1-.046.025C.349-.02.34-.031.34-.051v-.243C.34-.368.289-.41.2-.41c-.076 0-.148.033-.148.102 0 .034.024.053.063.053A.08.08 0 0 0 .144-.26a.074.074 0 0 1-.03-.06.07.07 0 0 1 .075-.072c.05 0 .081.036.081.086 0 .128-.238.063-.238.217 0 .055.052.099.118.099.045 0 .095-.03.12-.071v.017ZM.102-.093c0-.087.109-.096.168-.152v.158c-.027.044-.061.07-.098.07-.042 0-.07-.031-.07-.076Z" style="fill:#231f20;fill-rule:nonzero" transform="matrix(76.5 0 0 76.5 374.807 80)"/><path d="M.228-.082.126-.33A.074.074 0 0 1 .12-.357c0-.021.014-.033.04-.033V-.4h-.175v.01c.026 0 .051.026.065.06l.114.277c.008.02.013.044.013.068 0 .073-.044.124-.091.124A.069.069 0 0 1 .022.098.087.087 0 0 0 .01.14C.01.177.032.2.066.2.153.2.221-.013.238-.058L.345-.33c.015-.039.034-.06.06-.06V-.4h-.12v.01c.025 0 .046.012.046.037a.074.074 0 0 1-.005.023l-.098.248Z" style="fill:#231f20;fill-rule:nonzero" transform="matrix(76.5 0 0 76.5 405.866 80)"/><path d="M.25-.569c.076 0 .138.061.138.135 0 .079-.059.144-.175.144v.01c.084 0 .129.139.174.218C.413-.02.435 0 .457 0h.086v-.01C.434-.026.436-.248.31-.284a.153.153 0 0 0 .153-.151.154.154 0 0 0-.154-.155H.033v.01c.043 0 .07.023.07.06v.45c0 .037-.027.06-.07.06V0h.218v-.01c-.043 0-.07-.023-.07-.06v-.499H.25Z" style="fill:#231f20;fill-rule:nonzero" transform="matrix(76.5 0 0 76.5 455.591 80)"/><path d="M.117-.258H.39C.39-.348.323-.41.225-.41c-.115 0-.19.082-.19.21 0 .13.075.21.196.21.072 0 .122-.035.151-.103L.373-.097c-.033.05-.075.076-.121.076-.082 0-.138-.077-.138-.19a.36.36 0 0 1 .003-.047ZM.12-.276c.016-.072.056-.116.105-.116.053 0 .091.049.091.116H.12Z" style="fill:#231f20;fill-rule:nonzero" transform="matrix(76.5 0 0 76.5 497.13 80)"/><path d="M.323-.344c.018-.02.037-.029.055-.029.03 0 .053.025.058.063.014-.008.022-.028.022-.048C.458-.39.437-.41.404-.41c-.031 0-.065.02-.091.053A.141.141 0 0 0 .195-.41C.111-.41.05-.354.05-.275c0 .049.025.091.066.115a.103.103 0 0 0-.048.09c0 .038.028.067.078.08C.083.021.038.057.038.101.038.159.11.2.211.2.329.2.401.141.401.045c0-.157-.303-.057-.303-.146 0-.021.017-.042.035-.051a.16.16 0 0 0 .062.012C.28-.14.34-.195.34-.275a.138.138 0 0 0-.017-.069ZM.165.01h.003c.15 0 .201.036.201.074C.369.137.3.182.215.182.145.182.1.148.1.097.1.061.127.025.165.01Zm.03-.402c.049 0 .079.045.079.117 0 .072-.03.116-.079.116S.116-.204.116-.275c0-.072.031-.117.079-.117Z" style="fill:#231f20;fill-rule:nonzero" transform="matrix(76.5 0 0 76.5 528.113 80)"/><path d="M.335-.33v.162c0 .082-.053.148-.118.148-.044 0-.072-.03-.072-.079V-.4h-.13v.01a.06.06 0 0 1 .06.06v.221c0 .072.045.119.114.119.064 0 .123-.04.146-.1v.03c0 .021.004.049.01.07l.12-.017v-.01C.42-.025.405-.047.405-.11V-.4h-.13v.01a.06.06 0 0 1 .06.06Z" style="fill:#231f20;fill-rule:nonzero" transform="matrix(76.5 0 0 76.5 562.538 80)"/><path d="M.152-.07v-.56a.287.287 0 0 1-.13.04v.01c.04 0 .06.026.06.08v.43a.06.06 0 0 1-.06.06V0h.19v-.01a.06.06 0 0 1-.06-.06Z" style="fill:#231f20;fill-rule:nonzero" transform="matrix(76.5 0 0 76.5 600.176 80)"/><path d="M.27-.044c0 .032.026.054.064.054.036 0 .07-.019.085-.049L.411-.045a.063.063 0 0 1-.046.025C.349-.02.34-.031.34-.051v-.243C.34-.368.289-.41.2-.41c-.076 0-.148.033-.148.102 0 .034.024.053.063.053A.08.08 0 0 0 .144-.26a.074.074 0 0 1-.03-.06.07.07 0 0 1 .075-.072c.05 0 .081.036.081.086 0 .128-.238.063-.238.217 0 .055.052.099.118.099.045 0 .095-.03.12-.071v.017ZM.102-.093c0-.087.109-.096.168-.152v.158c-.027.044-.061.07-.098.07-.042 0-.07-.031-.07-.076Z" style="fill:#231f20;fill-rule:nonzero" transform="matrix(76.5 0 0 76.5 617.924 80)"/><path d="M.091-.29v.22a.06.06 0 0 1-.06.06V0h.19v-.01a.06.06 0 0 1-.06-.06v-.16c0-.082.04-.134.084-.134.031 0 .051.024.051.062l-.001.017c.034-.018.047-.039.047-.066C.342-.384.315-.41.279-.41c-.048 0-.095.04-.118.1v-.11a.287.287 0 0 1-.13.04v.01c.04 0 .06.027.06.08Z" style="fill:#231f20;fill-rule:nonzero" transform="matrix(76.5 0 0 76.5 648.983 80)"/><path d="M.055 0h.01c0-.02.009-.025.025-.025.027 0 .084.035.15.035.113 0 .185-.073.185-.186 0-.164-.302-.161-.302-.325 0-.042.049-.078.107-.078.071 0 .124.044.155.128h.01V-.59h-.01c0 .02-.009.028-.025.028C.331-.562.311-.6.23-.6c-.099 0-.165.067-.165.166 0 .165.302.158.302.325 0 .053-.057.098-.127.098a.174.174 0 0 1-.175-.15h-.01V0Z" style="fill:#231f20;fill-rule:nonzero" transform="matrix(26 0 0 26 20 120)"/><path d="M.117-.258H.39C.39-.348.323-.41.225-.41c-.115 0-.19.082-.19.21 0 .13.075.21.196.21.072 0 .122-.035.151-.103L.373-.097c-.033.05-.075.076-.121.076-.082 0-.138-.077-.138-.19a.36.36 0 0 1 .003-.047ZM.12-.276c.016-.072.056-.116.105-.116.053 0 .091.049.091.116H.12Z" style="fill:#231f20;fill-rule:nonzero" transform="matrix(26 0 0 26 32.142 120)"/><path d="M.091-.29v.22a.06.06 0 0 1-.06.06V0h.19v-.01a.06.06 0 0 1-.06-.06v-.16c0-.082.04-.134.084-.134.031 0 .051.024.051.062l-.001.017c.034-.018.047-.039.047-.066C.342-.384.315-.41.279-.41c-.048 0-.095.04-.118.1v-.11a.287.287 0 0 1-.13.04v.01c.04 0 .06.027.06.08Z" style="fill:#231f20;fill-rule:nonzero" transform="matrix(26 0 0 26 42.672 120)"/><path d="M.114-.58a.045.045 0 0 0-.045.045c0 .025.02.045.045.045.025 0 .045-.02.045-.045A.045.045 0 0 0 .114-.58Zm.042.51v-.35a.287.287 0 0 1-.13.04v.01c.033 0 .06.017.06.08v.22a.06.06 0 0 1-.06.06V0h.19v-.01a.06.06 0 0 1-.06-.06Z" style="fill:#231f20;fill-rule:nonzero" transform="matrix(26 0 0 26 51.824 120)"/><path d="M.098-.07a.06.06 0 0 1-.06.06V0h.19v-.01a.06.06 0 0 1-.06-.06v-.312h.115V-.4H.168v-.068c0-.089.031-.144.081-.144.029 0 .052.025.052.054A.07.07 0 0 1 .268-.5c.01.003.02.005.029.005.038 0 .064-.024.064-.058C.361-.598.317-.63.256-.63c-.094 0-.158.076-.158.19v.04H.043v.018h.055v.312Z" style="fill:#231f20;fill-rule:nonzero" transform="matrix(26 0 0 26 57.96 120)"/><path d="M.098-.07a.06.06 0 0 1-.06.06V0h.19v-.01a.06.06 0 0 1-.06-.06v-.312h.115V-.4H.168v-.068c0-.089.031-.144.081-.144.029 0 .052.025.052.054A.07.07 0 0 1 .268-.5c.01.003.02.005.029.005.038 0 .064-.024.064-.058C.361-.598.317-.63.256-.63c-.094 0-.158.076-.158.19v.04H.043v.018h.055v.312Z" style="fill:#231f20;fill-rule:nonzero" transform="matrix(26 0 0 26 72.052 120)"/><path d="M.225-.41c-.114 0-.19.084-.19.21s.076.21.19.21.19-.084.19-.21-.076-.21-.19-.21Zm0 .018c.068 0 .112.075.112.192s-.044.192-.112.192S.113-.083.113-.2s.044-.192.112-.192Z" style="fill:#231f20;fill-rule:nonzero" transform="matrix(26 0 0 26 79.644 120)"/><path d="M.347-.301v.231a.06.06 0 0 1-.06.06V0h.19v-.01a.06.06 0 0 1-.06-.06v-.221C.417-.363.371-.41.302-.41a.156.156 0 0 0-.145.1v-.11a.287.287 0 0 1-.13.04v.01c.04 0 .06.026.06.08v.22a.06.06 0 0 1-.06.06V0h.19v-.01a.06.06 0 0 1-.06-.06v-.162c0-.082.053-.148.118-.148.044 0 .072.03.072.079Z" style="fill:#231f20;fill-rule:nonzero" transform="matrix(26 0 0 26 91.344 120)"/><path d="M.295-.035.288-.041a.094.094 0 0 1-.063.025c-.041 0-.064-.033-.064-.092v-.274h.115V-.4H.161v-.129h-.01a.199.199 0 0 1-.034.082.15.15 0 0 1-.081.058v.007h.055v.286c0 .073.031.106.102.106.048 0 .083-.015.102-.045Z" style="fill:#231f20;fill-rule:nonzero" transform="matrix(26 0 0 26 104.136 120)"/><path d="M.098-.07a.06.06 0 0 1-.06.06V0h.19v-.01a.06.06 0 0 1-.06-.06v-.312h.115V-.4H.168v-.068c0-.089.031-.144.081-.144.029 0 .052.025.052.054A.07.07 0 0 1 .268-.5c.01.003.02.005.029.005.038 0 .064-.024.064-.058C.361-.598.317-.63.256-.63c-.094 0-.158.076-.158.19v.04H.043v.018h.055v.312Z" style="fill:#231f20;fill-rule:nonzero" transform="matrix(26 0 0 26 118.384 120)"/><path d="M.225-.41c-.114 0-.19.084-.19.21s.076.21.19.21.19-.084.19-.21-.076-.21-.19-.21Zm0 .018c.068 0 .112.075.112.192s-.044.192-.112.192S.113-.083.113-.2s.044-.192.112-.192Z" style="fill:#231f20;fill-rule:nonzero" transform="matrix(26 0 0 26 125.976 120)"/><path d="M.091-.29v.22a.06.06 0 0 1-.06.06V0h.19v-.01a.06.06 0 0 1-.06-.06v-.16c0-.082.04-.134.084-.134.031 0 .051.024.051.062l-.001.017c.034-.018.047-.039.047-.066C.342-.384.315-.41.279-.41c-.048 0-.095.04-.118.1v-.11a.287.287 0 0 1-.13.04v.01c.04 0 .06.027.06.08Z" style="fill:#231f20;fill-rule:nonzero" transform="matrix(26 0 0 26 137.676 120)"/><path d="M.073-.5v.51h.01a.097.097 0 0 1 .052-.047c.031.03.074.047.121.047.112 0 .187-.087.187-.218C.443-.331.382-.41.288-.41a.156.156 0 0 0-.145.1v-.32a.287.287 0 0 1-.13.04v.01c.04 0 .06.026.06.08Zm.07.448v-.18c0-.082.053-.148.118-.148.066 0 .107.067.107.177 0 .119-.048.19-.128.19a.138.138 0 0 1-.097-.039Z" style="fill:#231f20;fill-rule:nonzero" transform="matrix(26 0 0 26 153.328 120)"/><path d="M.225-.41c-.114 0-.19.084-.19.21s.076.21.19.21.19-.084.19-.21-.076-.21-.19-.21Zm0 .018c.068 0 .112.075.112.192s-.044.192-.112.192S.113-.083.113-.2s.044-.192.112-.192Z" style="fill:#231f20;fill-rule:nonzero" transform="matrix(26 0 0 26 165.756 120)"/><path d="M.225-.41c-.114 0-.19.084-.19.21s.076.21.19.21.19-.084.19-.21-.076-.21-.19-.21Zm0 .018c.068 0 .112.075.112.192s-.044.192-.112.192S.113-.083.113-.2s.044-.192.112-.192Z" style="fill:#231f20;fill-rule:nonzero" transform="matrix(26 0 0 26 177.456 120)"/><path d="M.289-.39c.02 0 .032.011.032.025 0 .011-.006.023-.021.035l-.123.1.115.16c.014.019.018.026.018.036 0 .012-.007.024-.028.024V0h.185v-.01C.436-.01.402-.035.375-.07L.242-.26l.086-.07c.038-.031.088-.06.119-.06V-.4H.289v.01Zm-.132.32v-.56a.287.287 0 0 1-.13.04v.01c.033 0 .06.017.06.08v.43a.06.06 0 0 1-.06.06V0h.19v-.01a.06.06 0 0 1-.06-.06Z" style="fill:#231f20;fill-rule:nonzero" transform="matrix(26 0 0 26 189.156 120)"/><path d="M.225-.392c.046 0 .083.032.083.072 0 .01-.002.019-.007.026a.08.08 0 0 0 .023.005c.024 0 .04-.014.04-.036C.364-.373.303-.41.225-.41c-.115 0-.19.082-.19.21 0 .13.075.21.196.21.072 0 .122-.035.151-.103L.373-.097c-.033.05-.075.076-.121.076-.082 0-.138-.077-.138-.19 0-.105.046-.181.111-.181Z" style="fill:#231f20;fill-rule:nonzero" transform="matrix(26 0 0 26 207.278 120)"/><path d="M.225-.41c-.114 0-.19.084-.19.21s.076.21.19.21.19-.084.19-.21-.076-.21-.19-.21Zm0 .018c.068 0 .112.075.112.192s-.044.192-.112.192S.113-.083.113-.2s.044-.192.112-.192Z" style="fill:#231f20;fill-rule:nonzero" transform="matrix(26 0 0 26 217.392 120)"/><path d="M.226-.09.128-.33a.052.052 0 0 1-.004-.021c0-.023.015-.039.041-.039V-.4H-.01v.01c.025 0 .048.026.062.06l.139.34h.01L.34-.33c.014-.033.041-.06.07-.06V-.4H.27v.01c.036 0 .058.016.058.04a.053.053 0 0 1-.005.02l-.097.24Z" style="fill:#231f20;fill-rule:nonzero" transform="matrix(26 0 0 26 229.092 120)"/><path d="M.117-.258H.39C.39-.348.323-.41.225-.41c-.115 0-.19.082-.19.21 0 .13.075.21.196.21.072 0 .122-.035.151-.103L.373-.097c-.033.05-.075.076-.121.076-.082 0-.138-.077-.138-.19a.36.36 0 0 1 .003-.047ZM.12-.276c.016-.072.056-.116.105-.116.053 0 .091.049.091.116H.12Z" style="fill:#231f20;fill-rule:nonzero" transform="matrix(26 0 0 26 239.492 120)"/><path d="M.091-.29v.22a.06.06 0 0 1-.06.06V0h.19v-.01a.06.06 0 0 1-.06-.06v-.16c0-.082.04-.134.084-.134.031 0 .051.024.051.062l-.001.017c.034-.018.047-.039.047-.066C.342-.384.315-.41.279-.41c-.048 0-.095.04-.118.1v-.11a.287.287 0 0 1-.13.04v.01c.04 0 .06.027.06.08Z" style="fill:#231f20;fill-rule:nonzero" transform="matrix(26 0 0 26 250.022 120)"/><path d="M.054 0h.01c.005-.015.011-.02.019-.02.021 0 .047.03.101.03a.13.13 0 0 0 .13-.128c0-.125-.208-.122-.208-.215 0-.032.031-.059.067-.059.043 0 .082.037.106.102h.01V-.4h-.01c-.005.015-.01.021-.017.021C.243-.379.223-.41.174-.41a.116.116 0 0 0-.117.114c0 .125.209.122.209.217 0 .038-.037.071-.081.071-.054 0-.098-.045-.121-.122h-.01V0Z" style="fill:#231f20;fill-rule:nonzero" transform="matrix(26 0 0 26 259.174 120)"/><path d="M.125-.08a.045.045 0 0 0-.045.045C.08-.01.1.01.125.01.15.01.17-.01.17-.035A.045.045 0 0 0 .125-.08Z" style="fill:#231f20;fill-rule:nonzero" transform="matrix(26 0 0 26 268.43 120)"/><path d="m659.773 359.072.006-.006L680 379.287l-.713.713-19.514-19.514L640.26 380l-.713-.713 20.221-20.221.005.006Z" style="fill:#231f20"/><path d="M239.53 160h135.855l-.165 219.836-135.69.063V160Zm1.503 178.461c2.036 10.71 7.923 20.954 16.275 28.317 8.348 7.358 19.81 12.263 30.161 12.547l2.76.027v-49.934l-50.044-.148.115 3.214c.116 1.779.446 4.469.733 5.977Zm-.846 40.883s41.66-.091 39.541-.536c-16.268-3.42-30.57-15.588-36.586-31.128-1.155-2.983-2.314-6.925-2.723-9.259-.079-.45-.232 40.923-.232 40.923Zm61.691-.101c0 .057 72.837.101 72.837.101s.094-72.299-.007-72.436c-.101-.136-.375 1.107-.61 2.763-.583 4.111-2.631 11.519-4.478 16.198-9.101 23.057-27.172 40.691-50.322 49.105-4.15 1.509-10.79 3.231-14.44 3.747-1.639.231-2.98.466-2.98.522Zm-9.607.097c.862-.001 3.339-.154 5.505-.337 33.897-2.873 62.838-26.043 73.139-58.552 2.168-6.843 3.807-16.68 3.811-22.87l.001-2.047h-41.784c-22.982 0-41.869.085-41.971.187-.103.102-.266 83.623-.266 83.623l1.567-.003-.002-.001Zm-17.212-50.74c.591 0 2.062-.273 3.269-.608 6.177-1.708 11.251-7.426 11.66-13.139l.165-2.295h-16.168V328.6h1.074Zm-34.871 0h33.141v-32.738h-2.147c-5.431 0-12.121 2.417-17.542 6.339-7.627 5.518-13.274 15.899-13.424 24.68l-.028 1.719Zm50.096-.112c.067-.189-.052-10.845-.052-10.845l-1.122 2.275c-1.495 3.031-4.715 6.219-7.622 7.545l-2.133.973s10.75.122 10.929.052Zm0 0v.003l.002-.003h-.002Zm-49.475-8.891c3.136-10.681 11.748-19.634 21.89-22.756 1.244-.383 2.558-.823 2.919-.979.384-.166-25.432-.328-25.432-.328s.05 26.019.622 24.063h.001Zm33.177-7.693s16.042-.073 16.13-.161c.088-.088.043-1.156-.104-2.373-.793-6.651-7.14-12.86-13.707-13.409l-2.319-.194v16.137Zm7.437-15.083c2.873 1.342 6.504 4.956 7.663 7.629.448 1.032.929 1.879 1.069 1.882.14.003.073-10.634.073-10.634s-10.993-.117-10.993-.041c0 .077.984.6 2.187 1.162l.001.002Zm26.085-1.94h67.322l-.217-5.507c-1.122-28.483-11.681-56.374-29.786-78.678-20.734-25.542-49.781-42.61-81.834-48.084-6.751-1.153-10.828-1.581-17.638-1.853l-5.168-.207v134.329h67.321Zm-40.906-132.265c12.032 2.477 22.077 5.882 32.815 11.125 34.412 16.8 60.238 47.592 70.714 84.308 2.031 7.119 4.268 18.428 4.268 21.58 0 .705.077 1.206.171 1.112.094-.093.321-120.087.321-120.087s-119.942.128-116.821.508c1.986.241 5.825.895 8.532 1.452v.002Z" style="fill:#231f20;fill-rule:nonzero"/><path d="M.323-.344c.018-.02.037-.029.055-.029.03 0 .053.025.058.063.014-.008.022-.028.022-.048C.458-.39.437-.41.404-.41c-.031 0-.065.02-.091.053A.141.141 0 0 0 .195-.41C.111-.41.05-.354.05-.275c0 .049.025.091.066.115a.103.103 0 0 0-.048.09c0 .038.028.067.078.08C.083.021.038.057.038.101.038.159.11.2.211.2.329.2.401.141.401.045c0-.157-.303-.057-.303-.146 0-.021.017-.042.035-.051a.16.16 0 0 0 .062.012C.28-.14.34-.195.34-.275a.138.138 0 0 0-.017-.069ZM.165.01h.003c.15 0 .201.036.201.074C.369.137.3.182.215.182.145.182.1.148.1.097.1.061.127.025.165.01Zm.03-.402c.049 0 .079.045.079.117 0 .072-.03.116-.079.116S.116-.204.116-.275c0-.072.031-.117.079-.117Z" style="fill:#231f20;fill-rule:nonzero" transform="translate(21.108 320) scale(325.4)"/><path d="M.144-.227h.209l.065.157a.048.048 0 0 1 .004.02c0 .023-.02.04-.055.04V0H.57v-.01C.539-.01.518-.031.502-.07L.285-.6h-.01l-.219.53C.04-.031.02-.01-.01-.01V0h.143v-.01C.096-.01.075-.028.075-.053c0-.005.001-.011.004-.017l.065-.157Zm.008-.021.097-.234.096.234H.152Z" style="fill:#231f20;fill-rule:nonzero" transform="translate(252.73 260) scale(100.016)"/><path d="M.27-.044c0 .032.026.054.064.054.036 0 .07-.019.085-.049L.411-.045a.063.063 0 0 1-.046.025C.349-.02.34-.031.34-.051v-.243C.34-.368.289-.41.2-.41c-.076 0-.148.033-.148.102 0 .034.024.053.063.053A.08.08 0 0 0 .144-.26a.074.074 0 0 1-.03-.06.07.07 0 0 1 .075-.072c.05 0 .081.036.081.086 0 .128-.238.063-.238.217 0 .055.052.099.118.099.045 0 .095-.03.12-.071v.017ZM.102-.093c0-.087.109-.096.168-.152v.158c-.027.044-.061.07-.098.07-.042 0-.07-.031-.07-.076Z" style="fill:#231f20;fill-rule:nonzero" transform="translate(308.739 260) scale(100.016)"/><path d="M.219-.6H.211l-.026.141-.143-.02-.002.008.127.068-.063.128.007.005.104-.099.104.099.007-.005-.063-.128.127-.068-.002-.008-.143.02L.219-.6Z" style="fill:#231f20;fill-rule:nonzero" transform="matrix(30 0 0 30 147.503 260)"/><path d="M.125-.08a.045.045 0 0 0-.045.045C.08-.01.1.01.125.01.15.01.17-.01.17-.035A.045.045 0 0 0 .125-.08Z" style="fill:#231f20;fill-rule:nonzero" transform="matrix(30 0 0 30 160.403 260)"/><path d="M.225-.41c-.114 0-.19.084-.19.21s.076.21.19.21.19-.084.19-.21-.076-.21-.19-.21Zm0 .018c.068 0 .112.075.112.192s-.044.192-.112.192S.113-.083.113-.2s.044-.192.112-.192Z" style="fill:#231f20;fill-rule:nonzero" transform="matrix(30 0 0 30 167.903 260)"/><path d="M.295-.035.288-.041a.094.094 0 0 1-.063.025c-.041 0-.064-.033-.064-.092v-.274h.115V-.4H.161v-.129h-.01a.199.199 0 0 1-.034.082.15.15 0 0 1-.081.058v.007h.055v.286c0 .073.031.106.102.106.048 0 .083-.015.102-.045Z" style="fill:#231f20;fill-rule:nonzero" transform="matrix(30 0 0 30 181.403 260)"/><path d="M.098-.07a.06.06 0 0 1-.06.06V0h.19v-.01a.06.06 0 0 1-.06-.06v-.312h.115V-.4H.168v-.068c0-.089.031-.144.081-.144.029 0 .052.025.052.054A.07.07 0 0 1 .268-.5c.01.003.02.005.029.005.038 0 .064-.024.064-.058C.361-.598.317-.63.256-.63c-.094 0-.158.076-.158.19v.04H.043v.018h.055v.312Z" style="fill:#231f20;fill-rule:nonzero" transform="matrix(30 0 0 30 190.343 260)"/></svg>